<?xml version="1.0" encoding="UTF-8"?>
<svg width="163px" height="97px" viewBox="0 0 163 97" version="1.1" xmlns="http://www.w3.org/2000/svg" xmlns:xlink="http://www.w3.org/1999/xlink">
    <!-- Generator: Sketch 62 (91390) - https://sketch.com -->
    <title>Adjectives</title>
    <desc>Created with Sketch.</desc>
    <defs>
        <radialGradient cx="26.9203086%" cy="60.7926827%" fx="26.9203086%" fy="60.7926827%" r="48.4726828%" gradientTransform="translate(0.269203,0.607927),scale(0.589020,1.000000),rotate(144.180216),translate(-0.269203,-0.607927)" id="radialGradient-1">
            <stop stop-color="#FAD961" offset="0%"></stop>
            <stop stop-color="#F76B1C" offset="100%"></stop>
        </radialGradient>
        <path d="M39.2148438,21 L40.4716797,17.4316406 L45.3847656,17.4316406 L46.6679688,21 L48.9003906,21 L44.0927734,8.09765625 L41.8076172,8.09765625 L37,21 L39.2148438,21 Z M44.8310547,15.6210938 L41.0869141,15.6210938 L42.2470703,12.2724609 C42.5517578,11.4169922 42.7832031,10.6289062 42.9414062,9.90820312 C43,10.1425781 43.1069336,10.5117188 43.262207,11.015625 L43.3266901,11.2233339 C43.4515306,11.6222497 43.5516183,11.922154 43.6269531,12.1230469 L43.6269531,12.1230469 L44.8310547,15.6210938 Z M53.6552734,21.1757812 C54.9326172,21.1757812 55.9023438,20.6923828 56.5644531,19.7255859 L56.5644531,19.7255859 L56.6611328,19.7255859 L57.0214844,21 L58.6386719,21 L58.6386719,7.32421875 L56.5644531,7.32421875 L56.5644531,10.8662109 C56.5644531,11.2705078 56.6142578,11.8212891 56.7138672,12.5185547 L56.7138672,12.5185547 L56.6083984,12.5185547 C55.9404297,11.5751953 54.9677734,11.1035156 53.6904297,11.1035156 C52.4716797,11.1035156 51.5180664,11.5473633 50.8295898,12.4350586 C50.1411133,13.3227539 49.796875,14.5634766 49.796875,16.1572266 C49.796875,17.7451172 50.1367188,18.9785156 50.8164062,19.8574219 C51.4960938,20.7363281 52.4423828,21.1757812 53.6552734,21.1757812 Z M54.2089844,19.5058594 C53.4472656,19.5058594 52.8759766,19.2231445 52.4951172,18.6577148 C52.1142578,18.0922852 51.9238281,17.2705078 51.9238281,16.1923828 C51.9238281,15.1025391 52.1201172,14.2631836 52.5126953,13.6743164 C52.9052734,13.0854492 53.4648438,12.7910156 54.1914062,12.7910156 C55.0410156,12.7910156 55.6650391,13.0488281 56.0634766,13.5644531 C56.4619141,14.0800781 56.6611328,14.9501953 56.6611328,16.1748047 L56.6611328,16.1748047 L56.6611328,16.4648438 C56.6494141,17.5371094 56.4501953,18.3120117 56.0634766,18.7895508 C55.6767578,19.2670898 55.0585938,19.5058594 54.2089844,19.5058594 Z M62.6376953,9.83789062 C63.0009766,9.83789062 63.2836914,9.73681641 63.4858398,9.53466797 C63.6879883,9.33251953 63.7890625,9.05566406 63.7890625,8.70410156 C63.7890625,8.33496094 63.6879883,8.05078125 63.4858398,7.8515625 C63.2836914,7.65234375 63.0009766,7.55273438 62.6376953,7.55273438 C62.2626953,7.55273438 61.9741211,7.65234375 61.7719727,7.8515625 C61.5698242,8.05078125 61.46875,8.33496094 61.46875,8.70410156 C61.46875,9.05566406 61.5698242,9.33251953 61.7719727,9.53466797 C61.9741211,9.73681641 62.2626953,9.83789062 62.6376953,9.83789062 Z M60.5986328,25.3242188 C61.5888672,25.3242188 62.3461914,25.0664062 62.8706055,24.5507812 C63.3950195,24.0351562 63.6572266,23.2763672 63.6572266,22.2744141 L63.6572266,22.2744141 L63.6572266,11.2792969 L61.5917969,11.2792969 L61.5917969,22.1337891 C61.5917969,23.1298828 61.1523438,23.6279297 60.2734375,23.6279297 C59.8574219,23.6279297 59.4501953,23.5751953 59.0517578,23.4697266 L59.0517578,23.4697266 L59.0517578,25.1044922 C59.4619141,25.2509766 59.9775391,25.3242188 60.5986328,25.3242188 Z M70.8554688,21.1757812 C71.5175781,21.1757812 72.1064453,21.1259766 72.6220703,21.0263672 C73.1376953,20.9267578 73.6474609,20.7568359 74.1513672,20.5166016 L74.1513672,20.5166016 L74.1513672,18.8378906 C73.5830078,19.0898438 73.0512695,19.2700195 72.5561523,19.378418 C72.0610352,19.4868164 71.5263672,19.5410156 70.9521484,19.5410156 C70.0791016,19.5410156 69.4023438,19.2875977 68.921875,18.7807617 C68.4414062,18.2739258 68.1865234,17.5488281 68.1572266,16.6054688 L68.1572266,16.6054688 L74.6347656,16.6054688 L74.6347656,15.4892578 C74.6347656,14.1240234 74.2626953,13.0517578 73.5185547,12.2724609 C72.7744141,11.4931641 71.7607422,11.1035156 70.4775391,11.1035156 C69.0947266,11.1035156 68.0078125,11.5576172 67.2167969,12.4658203 C66.4257812,13.3740234 66.0302734,14.6220703 66.0302734,16.2099609 C66.0302734,17.7568359 66.456543,18.9711914 67.309082,19.8530273 C68.1616211,20.7348633 69.34375,21.1757812 70.8554688,21.1757812 Z M72.6044922,15.1113281 L68.1923828,15.1113281 C68.2685547,14.3144531 68.5043945,13.7080078 68.8999023,13.2919922 C69.2954102,12.8759766 69.8212891,12.6679688 70.4775391,12.6679688 C71.1337891,12.6679688 71.6494141,12.8745117 72.0244141,13.2875977 C72.3994141,13.7006836 72.5927734,14.3085938 72.6044922,15.1113281 L72.6044922,15.1113281 Z M80.9013672,21.1757812 C81.4990234,21.1757812 82.0073242,21.1289062 82.4262695,21.0351562 C82.8452148,20.9414062 83.2392578,20.7861328 83.6083984,20.5693359 L83.6083984,20.5693359 L83.6083984,18.7675781 C82.7880859,19.2246094 81.9179688,19.453125 80.9980469,19.453125 C80.1894531,19.453125 79.5756836,19.1791992 79.1567383,18.6313477 C78.737793,18.0834961 78.5283203,17.2646484 78.5283203,16.1748047 C78.5283203,13.9423828 79.3691406,12.8261719 81.0507812,12.8261719 C81.6191406,12.8261719 82.3398438,12.9960938 83.2128906,13.3359375 L83.2128906,13.3359375 L83.8369141,11.6748047 C83.0166016,11.2939453 82.09375,11.1035156 81.0683594,11.1035156 C79.5566406,11.1035156 78.4008789,11.5429688 77.6010742,12.421875 C76.8012695,13.3007812 76.4013672,14.5576172 76.4013672,16.1923828 C76.4013672,17.7978516 76.7836914,19.0297852 77.5483398,19.8881836 C78.3129883,20.746582 79.4306641,21.1757812 80.9013672,21.1757812 Z M89.0224609,21.1757812 C89.4091797,21.1757812 89.7827148,21.1420898 90.1430664,21.074707 C90.503418,21.0073242 90.7978516,20.9238281 91.0263672,20.8242188 L91.0263672,20.8242188 L91.0263672,19.2685547 C90.5224609,19.4267578 90.0185547,19.5058594 89.5146484,19.5058594 C89.1103516,19.5058594 88.7836914,19.387207 88.534668,19.1499023 C88.2856445,18.9125977 88.1611328,18.5449219 88.1611328,18.046875 L88.1611328,18.046875 L88.1611328,12.84375 L90.9296875,12.84375 L90.9296875,11.2792969 L88.1611328,11.2792969 L88.1611328,9.1171875 L86.8867188,9.1171875 L86.1835938,11.1738281 L84.7597656,11.9296875 L84.7597656,12.84375 L86.0869141,12.84375 L86.0869141,18.0820312 C86.0869141,20.1445312 87.0654297,21.1757812 89.0224609,21.1757812 Z M94.0146484,9.83789062 C94.3779297,9.83789062 94.6606445,9.73681641 94.862793,9.53466797 C95.0649414,9.33251953 95.1660156,9.05566406 95.1660156,8.70410156 C95.1660156,8.33496094 95.0649414,8.05078125 94.862793,7.8515625 C94.6606445,7.65234375 94.3779297,7.55273438 94.0146484,7.55273438 C93.6396484,7.55273438 93.3510742,7.65234375 93.1489258,7.8515625 C92.9467773,8.05078125 92.8457031,8.33496094 92.8457031,8.70410156 C92.8457031,9.05566406 92.9467773,9.33251953 93.1489258,9.53466797 C93.3510742,9.73681641 93.6396484,9.83789062 94.0146484,9.83789062 Z M95.0341797,21 L95.0341797,11.2792969 L92.96875,11.2792969 L92.96875,21 L95.0341797,21 Z M102.43457,21 L106.143555,11.2792969 L103.946289,11.2792969 L101.96875,16.9306641 C101.611328,18.0439453 101.40625,18.8115234 101.353516,19.2333984 L101.353516,19.2333984 L101.283203,19.2333984 C101.212891,18.6474609 101.007812,17.8798828 100.667969,16.9306641 L100.667969,16.9306641 L98.6904297,11.2792969 L96.5107422,11.2792969 L100.202148,21 L102.43457,21 Z M111.865234,21.1757812 C112.527344,21.1757812 113.116211,21.1259766 113.631836,21.0263672 C114.147461,20.9267578 114.657227,20.7568359 115.161133,20.5166016 L115.161133,20.5166016 L115.161133,18.8378906 C114.592773,19.0898438 114.061035,19.2700195 113.565918,19.378418 C113.070801,19.4868164 112.536133,19.5410156 111.961914,19.5410156 C111.088867,19.5410156 110.412109,19.2875977 109.931641,18.7807617 C109.451172,18.2739258 109.196289,17.5488281 109.166992,16.6054688 L109.166992,16.6054688 L115.644531,16.6054688 L115.644531,15.4892578 C115.644531,14.1240234 115.272461,13.0517578 114.52832,12.2724609 C113.78418,11.4931641 112.770508,11.1035156 111.487305,11.1035156 C110.104492,11.1035156 109.017578,11.5576172 108.226562,12.4658203 C107.435547,13.3740234 107.040039,14.6220703 107.040039,16.2099609 C107.040039,17.7568359 107.466309,18.9711914 108.318848,19.8530273 C109.171387,20.7348633 110.353516,21.1757812 111.865234,21.1757812 Z M113.614258,15.1113281 L109.202148,15.1113281 C109.27832,14.3144531 109.51416,13.7080078 109.909668,13.2919922 C110.305176,12.8759766 110.831055,12.6679688 111.487305,12.6679688 C112.143555,12.6679688 112.65918,12.8745117 113.03418,13.2875977 C113.40918,13.7006836 113.602539,14.3085938 113.614258,15.1113281 L113.614258,15.1113281 Z M120.513672,21.1757812 C121.802734,21.1757812 122.792969,20.9223633 123.484375,20.4155273 C124.175781,19.9086914 124.521484,19.1806641 124.521484,18.2314453 C124.521484,17.7626953 124.433594,17.3598633 124.257812,17.0229492 C124.082031,16.6860352 123.8125,16.3886719 123.449219,16.1308594 C123.085938,15.8730469 122.50293,15.5888672 121.700195,15.2783203 C120.745117,14.9091797 120.125488,14.6191406 119.841309,14.4082031 C119.557129,14.1972656 119.415039,13.9394531 119.415039,13.6347656 C119.415039,13.0136719 119.959961,12.703125 121.049805,12.703125 C121.764648,12.703125 122.646484,12.9199219 123.695312,13.3535156 L123.695312,13.3535156 L124.363281,11.7978516 C123.34375,11.3349609 122.262695,11.1035156 121.120117,11.1035156 C119.96582,11.1035156 119.053223,11.3334961 118.382324,11.793457 C117.711426,12.253418 117.375977,12.8994141 117.375977,13.7314453 C117.375977,14.4228516 117.57373,14.9853516 117.969238,15.4189453 C118.364746,15.8525391 119.12207,16.2861328 120.241211,16.7197266 C120.81543,16.9423828 121.263672,17.1416016 121.585938,17.3173828 C121.908203,17.4931641 122.139648,17.6630859 122.280273,17.8271484 C122.420898,17.9912109 122.491211,18.1962891 122.491211,18.4423828 C122.491211,19.2099609 121.855469,19.59375 120.583984,19.59375 C119.599609,19.59375 118.536133,19.3300781 117.393555,18.8027344 L117.393555,18.8027344 L117.393555,20.5869141 C118.178711,20.9794922 119.21875,21.1757812 120.513672,21.1757812 Z" id="path-2"></path>
    </defs>
    <g id="Symbols" stroke="none" stroke-width="1" fill="none" fill-rule="evenodd">
        <g id="i/Adjectives">
            <g id="Adjectives">
                <path d="M6,0.394562483 L157,0.394562483 C160.313708,0.394562483 163,3.08085398 163,6.39456248 L163,90.4047666 C163,93.7184751 160.313708,96.4047666 157,96.4047666 L6,96.4047666 C2.6862915,96.4047666 4.05812251e-16,93.7184751 0,90.4047666 L0,6.39456248 C-4.05812251e-16,3.08085398 2.6862915,0.394562483 6,0.394562483 Z" id="Rectangle-2" fill="url(#radialGradient-1)" fill-rule="nonzero"></path>
                <polyline id="Line-2" stroke="#FFFFFF" stroke-width="4" stroke-linecap="square" points="2 30.677207 20.4627861 30.677207 161 30.677207"></polyline>
                <line x1="81" y1="41.3945625" x2="81" y2="81.3988144" id="Line-3" stroke="#FFFFFF" stroke-width="2" stroke-linecap="square"></line>
                <path d="M52.9931349,49.0036028 C58.1822401,51.3588598 60.3723751,57.2618864 57.8774108,62.1596607 C55.382177,67.0587072 49.130886,69.1272218 43.9428588,66.7719648 C41.9532482,65.8687389 40.3463585,64.4238318 39.2946841,62.5927003 C39.1833715,62.4000969 39.0122251,62.24922 38.8095447,62.1573708 C38.6739752,62.0947811 38.5233124,62.0599242 38.3680678,62.0558533 L35.6529041,61.9856307 L37.7896738,60.0723184 C38.0430243,59.8458758 38.1659263,59.5176613 38.11876,59.190719 C37.8478905,57.2827496 38.1721253,55.3544259 39.0580438,53.6156524 C41.5527386,48.7168604 47.8042992,46.6470737 52.9931349,49.0036028 Z M53.4645287,48.0779871 C47.7255988,45.4721167 40.8363494,47.7530802 38.0767146,53.1701458 C37.0641208,55.1587694 36.7509363,57.2931813 37.0404029,59.3273478 L33,62.9443224 L38.3384203,63.0827321 C39.4534325,65.0258128 41.2010125,66.6668853 43.4706565,67.697835 C49.2090473,70.3029421 56.0985663,68.0229963 58.858201,62.6046585 C61.6181053,57.1875929 59.2029195,50.6828397 53.4645287,48.0779871 Z" id="Shape" fill="#FFFFFF" fill-rule="nonzero"></path>
                <path d="M26.4009627,66.3457971 C25.6711538,66.3437635 25.8563532,67.8573136 26.3813974,68.7755102 L15.7261349,68.7755102 C16.1755985,68.2465049 16.6022807,67.6592861 17.0731856,66.9848742 C17.7453709,66.0226997 17.9777412,64.780643 17.7657402,63.2602293 C17.6638939,62.5316713 17.094895,61.797775 16.6749132,61.190728 C15.3635086,59.2938333 13.9355169,57.3382169 14.002253,54.3095915 C14.0547842,51.9134338 15.5945388,50.0289953 17.0568366,48.8258323 C20.0334275,46.3757827 26.9233267,46.317315 29.498429,49.1016472 C30.5184996,50.2049068 31.3466705,51.8417473 31.4876471,53.7068661 C31.5744845,54.8541034 31.4278795,55.1642363 31.0759738,55.9296544 C30.6645686,56.9289432 33.6331189,59.5856633 32.8757044,60.2593126 C32.4179323,60.6833303 31.9598921,60.6635021 31.4351159,60.9761771 C31.0373795,61.1584437 31.501316,61.6971089 31.2491125,62.5875969 C31.0633771,63.2426891 30.6969985,63.5228255 30.5849677,64.087674 C30.5034907,64.4969477 30.9864564,64.6072736 30.8031331,65.4331931 C30.6468795,66.1381098 30.1440806,66.3503729 29.3301146,66.4678166 C28.2524204,66.6226288 27.481873,66.3752852 26.4009627,66.3457971 Z" id="Shape" fill="#FFFFFF" fill-rule="nonzero"></path>
                <path d="M54.9193529,58.2008343 C54.0352412,56.2067873 51.9080697,54.9183673 49.50041,54.9183673 C47.0922037,54.9183673 44.9647588,56.2067873 44.0806471,58.200591 L44,58.3825315 L44.0806471,58.5647151 C44.9647588,60.5585188 47.0922037,61.8469388 49.5001367,61.8469388 C51.9080697,61.8469388 54.0352412,60.5585188 54.9193529,58.5649583 L55,58.3827747 L54.9193529,58.2008343 Z M49.5001367,60.8550232 C47.6272088,60.8550232 45.9645103,59.8908365 45.2042399,58.3825315 C45.9645103,56.8739831 47.6272088,55.9102829 49.5001367,55.9102829 C51.3727912,55.9102829 53.0357631,56.8742263 53.7957601,58.3827747 C53.0357631,59.8910798 51.3727912,60.8550232 49.5001367,60.8550232 Z" id="Shape" fill="#FFFFFF" fill-rule="nonzero"></path>
                <path d="M48.9997361,55.9081633 C47.8970705,55.9081633 47,56.7961971 47,57.8880164 C47,58.9795743 47.8970705,59.8673469 48.9997361,59.8673469 C50.1029295,59.8673469 51,58.9795743 51,57.8880164 C51,56.7961971 50.1029295,55.9081633 48.9997361,55.9081633 Z" id="Shape" fill="#FFFFFF" fill-rule="nonzero"></path>
                <g fill-rule="nonzero" fill="#FFFFFF">
                    <use xlink:href="#path-2"></use>
                    <use xlink:href="#path-2"></use>
                </g>
                <path d="M90.1152344,60 C91.8378906,60 93.1572266,59.5636393 94.0732422,58.690918 C94.9892578,57.8181966 95.4472656,56.5569661 95.4472656,54.9072266 C95.4472656,53.3531901 95.0052083,52.1477865 94.1210938,51.2910156 C93.2369792,50.4342448 91.9996745,50.0058594 90.4091797,50.0058594 L90.4091797,50.0058594 L87.3193359,50.0058594 L87.3193359,60 L90.1152344,60 Z M90.1152344,58.6259766 L88.953125,58.6259766 L88.953125,51.3730469 L90.3681641,51.3730469 C92.6057943,51.3730469 93.7246094,52.5693359 93.7246094,54.9619141 C93.7246094,57.4046224 92.5214844,58.6259766 90.1152344,58.6259766 L90.1152344,58.6259766 Z M100.724609,60.1367188 C101.239583,60.1367188 101.697591,60.0979818 102.098633,60.0205078 C102.499674,59.9430339 102.896159,59.8108724 103.288086,59.6240234 L103.288086,59.6240234 L103.288086,58.3183594 C102.846029,58.5143229 102.432454,58.6544596 102.047363,58.7387695 C101.662272,58.8230794 101.246419,58.8652344 100.799805,58.8652344 C100.120768,58.8652344 99.594401,58.6681315 99.2207031,58.2739258 C98.8470052,57.8797201 98.648763,57.3157552 98.6259766,56.5820312 L98.6259766,56.5820312 L103.664062,56.5820312 L103.664062,55.7138672 C103.664062,54.6520182 103.374674,53.8180339 102.795898,53.2119141 C102.217122,52.6057943 101.428711,52.3027344 100.430664,52.3027344 C99.3551432,52.3027344 98.5097656,52.6559245 97.8945312,53.3623047 C97.2792969,54.0686849 96.9716797,55.039388 96.9716797,56.2744141 C96.9716797,57.4775391 97.3032227,58.4220378 97.9663086,59.1079102 C98.6293945,59.7937826 99.5488281,60.1367188 100.724609,60.1367188 Z M102.084961,55.4199219 L98.6533203,55.4199219 C98.7125651,54.8001302 98.8959961,54.3284505 99.2036133,54.0048828 C99.5112305,53.6813151 99.9202474,53.5195312 100.430664,53.5195312 C100.941081,53.5195312 101.342122,53.6801758 101.633789,54.0014648 C101.925456,54.3227539 102.075846,54.7955729 102.084961,55.4199219 L102.084961,55.4199219 Z M107.451172,60.1367188 C108.453776,60.1367188 109.223958,59.9396159 109.761719,59.5454102 C110.299479,59.1512044 110.568359,58.5849609 110.568359,57.8466797 C110.568359,57.4820964 110.5,57.1687826 110.363281,56.9067383 C110.226562,56.644694 110.016927,56.4134115 109.734375,56.2128906 C109.451823,56.0123698 108.998372,55.7913411 108.374023,55.5498047 C107.631185,55.2626953 107.149251,55.0371094 106.928223,54.8730469 C106.707194,54.7089844 106.59668,54.5084635 106.59668,54.2714844 C106.59668,53.7884115 107.020508,53.546875 107.868164,53.546875 C108.424154,53.546875 109.110026,53.7154948 109.925781,54.0527344 L109.925781,54.0527344 L110.445312,52.8427734 C109.652344,52.4827474 108.811523,52.3027344 107.922852,52.3027344 C107.025065,52.3027344 106.315267,52.4816081 105.793457,52.8393555 C105.271647,53.1971029 105.010742,53.6995443 105.010742,54.3466797 C105.010742,54.8844401 105.164551,55.3219401 105.472168,55.6591797 C105.779785,55.9964193 106.368815,56.3336589 107.239258,56.6708984 C107.685872,56.8440755 108.034505,56.9990234 108.285156,57.1357422 C108.535807,57.2724609 108.71582,57.4046224 108.825195,57.5322266 C108.93457,57.6598307 108.989258,57.8193359 108.989258,58.0107422 C108.989258,58.6077474 108.494792,58.90625 107.505859,58.90625 C106.740234,58.90625 105.913086,58.7011719 105.024414,58.2910156 L105.024414,58.2910156 L105.024414,59.6787109 C105.635091,59.9840495 106.44401,60.1367188 107.451172,60.1367188 Z M115.353516,60.1367188 C115.818359,60.1367188 116.213704,60.1002604 116.539551,60.0273438 C116.865397,59.9544271 117.171875,59.8336589 117.458984,59.6650391 L117.458984,59.6650391 L117.458984,58.2636719 C116.820964,58.6191406 116.144206,58.796875 115.428711,58.796875 C114.799805,58.796875 114.322428,58.5838216 113.996582,58.1577148 C113.670736,57.7316081 113.507812,57.0947266 113.507812,56.2470703 C113.507812,54.5107422 114.161784,53.6425781 115.469727,53.6425781 C115.911784,53.6425781 116.472331,53.7747396 117.151367,54.0390625 L117.151367,54.0390625 L117.636719,52.7470703 C116.998698,52.4508464 116.280924,52.3027344 115.483398,52.3027344 C114.307617,52.3027344 113.408691,52.6445312 112.786621,53.328125 C112.164551,54.0117188 111.853516,54.9892578 111.853516,56.2607422 C111.853516,57.5094401 112.150879,58.4676107 112.745605,59.1352539 C113.340332,59.8028971 114.209635,60.1367188 115.353516,60.1367188 Z M120.842773,60 L120.842773,56.0488281 C120.842773,55.3789062 121.042155,54.8343099 121.440918,54.4150391 C121.839681,53.9957682 122.360352,53.7861328 123.00293,53.7861328 C123.249023,53.7861328 123.486003,53.8134766 123.713867,53.8681641 L123.713867,53.8681641 L123.871094,52.3710938 C123.661458,52.3255208 123.394857,52.3027344 123.071289,52.3027344 C122.606445,52.3027344 122.172363,52.4348958 121.769043,52.6992188 C121.365723,52.9635417 121.038737,53.3212891 120.788086,53.7724609 L120.788086,53.7724609 L120.706055,53.7724609 L120.494141,52.4394531 L119.236328,52.4394531 L119.236328,60 L120.842773,60 Z M126.085938,51.3183594 C126.36849,51.3183594 126.588379,51.2397461 126.745605,51.0825195 C126.902832,50.925293 126.981445,50.7099609 126.981445,50.4365234 C126.981445,50.1494141 126.902832,49.9283854 126.745605,49.7734375 C126.588379,49.6184896 126.36849,49.5410156 126.085938,49.5410156 C125.794271,49.5410156 125.569824,49.6184896 125.412598,49.7734375 C125.255371,49.9283854 125.176758,50.1494141 125.176758,50.4365234 C125.176758,50.7099609 125.255371,50.925293 125.412598,51.0825195 C125.569824,51.2397461 125.794271,51.3183594 126.085938,51.3183594 Z M126.878906,60 L126.878906,52.4394531 L125.272461,52.4394531 L125.272461,60 L126.878906,60 Z M133.010742,60.1367188 C133.958659,60.1367188 134.699219,59.7915039 135.232422,59.1010742 C135.765625,58.4106445 136.032227,57.445638 136.032227,56.2060547 C136.032227,54.9710286 135.769043,54.0117188 135.242676,53.328125 C134.716309,52.6445312 133.981445,52.3027344 133.038086,52.3027344 C132.044596,52.3027344 131.292643,52.6787109 130.782227,53.4306641 L130.782227,53.4306641 L130.713867,53.4306641 C130.722982,53.3304036 130.736654,53.0957031 130.754883,52.7265625 C130.773112,52.3574219 130.782227,52.0794271 130.782227,51.8925781 L130.782227,51.8925781 L130.782227,49.3632812 L129.175781,49.3632812 L129.175781,60 L130.378906,60 L130.672852,59.1044922 L130.782227,59.1044922 C131.310872,59.7926432 132.053711,60.1367188 133.010742,60.1367188 Z M132.648438,58.8242188 C131.98763,58.8242188 131.511393,58.6180013 131.219727,58.2055664 C130.92806,57.7931315 130.782227,57.1266276 130.782227,56.2060547 L130.782227,56.2060547 L130.782227,56.0966797 C130.791341,55.2034505 130.938314,54.566569 131.223145,54.1860352 C131.507975,53.8055013 131.973958,53.6152344 132.621094,53.6152344 C133.796875,53.6152344 134.384766,54.4742839 134.384766,56.1923828 C134.384766,57.0445964 134.237793,57.6962891 133.943848,58.1474609 C133.649902,58.5986328 133.218099,58.8242188 132.648438,58.8242188 Z M138.711914,51.3183594 C138.994466,51.3183594 139.214355,51.2397461 139.371582,51.0825195 C139.528809,50.925293 139.607422,50.7099609 139.607422,50.4365234 C139.607422,50.1494141 139.528809,49.9283854 139.371582,49.7734375 C139.214355,49.6184896 138.994466,49.5410156 138.711914,49.5410156 C138.420247,49.5410156 138.195801,49.6184896 138.038574,49.7734375 C137.881348,49.9283854 137.802734,50.1494141 137.802734,50.4365234 C137.802734,50.7099609 137.881348,50.925293 138.038574,51.0825195 C138.195801,51.2397461 138.420247,51.3183594 138.711914,51.3183594 Z M139.504883,60 L139.504883,52.4394531 L137.898438,52.4394531 L137.898438,60 L139.504883,60 Z M143.408203,60 L143.408203,56.2333984 C143.408203,55.2900391 143.56543,54.6178385 143.879883,54.2167969 C144.194336,53.8157552 144.691081,53.6152344 145.370117,53.6152344 C145.880534,53.6152344 146.253092,53.7587891 146.487793,54.0458984 C146.722493,54.3330078 146.839844,54.7682292 146.839844,55.3515625 L146.839844,55.3515625 L146.839844,60 L148.453125,60 L148.453125,55.0712891 C148.453125,53.2255859 147.546224,52.3027344 145.732422,52.3027344 C145.222005,52.3027344 144.757161,52.4007161 144.337891,52.5966797 C143.91862,52.7926432 143.595052,53.070638 143.367188,53.4306641 L143.367188,53.4306641 L143.285156,53.4306641 L143.05957,52.4394531 L141.801758,52.4394531 L141.801758,60 L143.408203,60 Z M152.869141,63.3632812 C154.204427,63.3632812 155.22526,63.1308594 155.931641,62.6660156 C156.638021,62.2011719 156.991211,61.5403646 156.991211,60.6835938 C156.991211,60.0136719 156.77474,59.5009766 156.341797,59.1455078 C155.908854,58.7900391 155.275391,58.6123047 154.441406,58.6123047 L154.441406,58.6123047 L153.12207,58.6123047 C152.689128,58.6123047 152.391764,58.5690104 152.22998,58.4824219 C152.068197,58.3958333 151.987305,58.2659505 151.987305,58.0927734 C151.987305,57.8056641 152.160482,57.555013 152.506836,57.3408203 C152.702799,57.3772786 152.921549,57.3955078 153.163086,57.3955078 C154.106445,57.3955078 154.847005,57.1722005 155.384766,56.7255859 C155.922526,56.2789714 156.191406,55.6660156 156.191406,54.8867188 C156.191406,54.6269531 156.152669,54.3808594 156.075195,54.1484375 C155.997721,53.9160156 155.89974,53.7200521 155.78125,53.5605469 L155.78125,53.5605469 L157.073242,53.3212891 L157.073242,52.4394531 L154.455078,52.4394531 C154.336589,52.4075521 154.159993,52.3767904 153.925293,52.347168 C153.690592,52.3175456 153.466146,52.3027344 153.251953,52.3027344 C152.294922,52.3027344 151.55778,52.5283203 151.040527,52.9794922 C150.523275,53.4306641 150.264648,54.0664062 150.264648,54.8867188 C150.264648,55.3971354 150.386556,55.8426107 150.630371,56.2231445 C150.874186,56.6036784 151.192057,56.8782552 151.583984,57.046875 C151.269531,57.2382812 151.032552,57.4319661 150.873047,57.6279297 C150.713542,57.8238932 150.633789,58.063151 150.633789,58.3457031 C150.633789,58.5690104 150.703288,58.7820638 150.842285,58.9848633 C150.981283,59.1876628 151.157878,59.3346354 151.37207,59.4257812 C150.843424,59.5488281 150.432129,59.7687174 150.138184,60.0854492 C149.844238,60.402181 149.697266,60.7929688 149.697266,61.2578125 C149.697266,61.9322917 149.968424,62.4518229 150.510742,62.8164062 C151.05306,63.1809896 151.839193,63.3632812 152.869141,63.3632812 Z M153.238281,56.3632812 C152.782552,56.3632812 152.43278,56.2356771 152.188965,55.9804688 C151.94515,55.7252604 151.823242,55.3606771 151.823242,54.8867188 C151.823242,54.3808594 151.942871,53.9957682 152.182129,53.7314453 C152.421387,53.4671224 152.773438,53.3349609 153.238281,53.3349609 C153.707682,53.3349609 154.057454,53.4682617 154.287598,53.7348633 C154.517741,54.0014648 154.632812,54.3808594 154.632812,54.8730469 C154.632812,55.8665365 154.167969,56.3632812 153.238281,56.3632812 Z M152.916992,62.2558594 C152.351888,62.2558594 151.913249,62.1624349 151.601074,61.9755859 C151.2889,61.788737 151.132812,61.5221354 151.132812,61.1757812 C151.132812,60.8066406 151.268392,60.5138346 151.539551,60.2973633 C151.81071,60.0808919 152.176432,59.9726562 152.636719,59.9726562 L152.636719,59.9726562 L153.853516,59.9726562 C154.491536,59.9726562 154.927897,60.0421549 155.162598,60.1811523 C155.397298,60.3201497 155.514648,60.5537109 155.514648,60.8818359 C155.514648,61.2965495 155.300456,61.6292318 154.87207,61.8798828 C154.443685,62.1305339 153.791992,62.2558594 152.916992,62.2558594 Z M90.0332031,72 L91.0380859,68.4863281 C91.1930339,67.9713542 91.4026693,67.0986328 91.6669922,65.8681641 L91.6669922,65.8681641 L91.7285156,65.8681641 C92.0384115,67.2307943 92.2526042,68.0989583 92.3710938,68.4726562 L92.3710938,68.4726562 L93.3486328,72 L95.1533203,72 L97.2861328,64.4394531 L95.6728516,64.4394531 L94.6953125,68.1650391 C94.4446615,69.1722005 94.2851562,69.9560547 94.2167969,70.5166016 L94.2167969,70.5166016 L94.1621094,70.5166016 C94.1438802,70.2613932 94.0834961,69.9036458 93.980957,69.4433594 C93.878418,68.9830729 93.7929688,68.641276 93.7246094,68.4179688 L93.7246094,68.4179688 L92.6103516,64.4394531 L90.8466797,64.4394531 L89.6982422,68.4179688 C89.6298828,68.6321615 89.5489909,68.9545898 89.4555664,69.3852539 C89.3621419,69.815918 89.2926432,70.1975911 89.2470703,70.5302734 L89.2470703,70.5302734 L89.2060547,70.5302734 C89.1149089,69.8740234 88.9599609,69.085612 88.7412109,68.1650391 L88.7412109,68.1650391 L87.7773438,64.4394531 L86.1367188,64.4394531 L88.2558594,72 L90.0332031,72 Z M101.695312,72.1367188 C102.825521,72.1367188 103.707357,71.7903646 104.34082,71.0976562 C104.974284,70.4049479 105.291016,69.4410807 105.291016,68.2060547 C105.291016,67.0120443 104.972005,66.0629883 104.333984,65.3588867 C103.695964,64.6547852 102.830078,64.3027344 101.736328,64.3027344 C100.592448,64.3027344 99.7060547,64.6468099 99.0771484,65.3349609 C98.4482422,66.023112 98.1337891,66.9801432 98.1337891,68.2060547 C98.1337891,68.9944661 98.2796224,69.6871745 98.5712891,70.2841797 C98.8629557,70.8811849 99.2799479,71.3391927 99.8222656,71.6582031 C100.364583,71.9772135 100.988932,72.1367188 101.695312,72.1367188 Z M101.722656,70.8242188 C100.432943,70.8242188 99.7880859,69.9514974 99.7880859,68.2060547 C99.7880859,67.3720703 99.9396159,66.7317708 100.242676,66.2851562 C100.545736,65.8385417 101.034505,65.6152344 101.708984,65.6152344 C102.994141,65.6152344 103.636719,66.4788411 103.636719,68.2060547 C103.636719,69.9514974 102.998698,70.8242188 101.722656,70.8242188 Z M108.743164,72 L108.743164,68.0488281 C108.743164,67.3789062 108.942546,66.8343099 109.341309,66.4150391 C109.740072,65.9957682 110.260742,65.7861328 110.90332,65.7861328 C111.149414,65.7861328 111.386393,65.8134766 111.614258,65.8681641 L111.614258,65.8681641 L111.771484,64.3710938 C111.561849,64.3255208 111.295247,64.3027344 110.97168,64.3027344 C110.506836,64.3027344 110.072754,64.4348958 109.669434,64.6992188 C109.266113,64.9635417 108.939128,65.3212891 108.688477,65.7724609 L108.688477,65.7724609 L108.606445,65.7724609 L108.394531,64.4394531 L107.136719,64.4394531 L107.136719,72 L108.743164,72 Z M115.722656,72.1367188 C116.716146,72.1367188 117.470378,71.7607422 117.985352,71.0087891 L117.985352,71.0087891 L118.060547,71.0087891 L118.34082,72 L119.598633,72 L119.598633,61.3632812 L117.985352,61.3632812 L117.985352,64.1181641 C117.985352,64.4326172 118.024089,64.8610026 118.101562,65.4033203 L118.101562,65.4033203 L118.019531,65.4033203 C117.5,64.6695964 116.74349,64.3027344 115.75,64.3027344 C114.802083,64.3027344 114.060384,64.6479492 113.524902,65.3383789 C112.989421,66.0288086 112.72168,66.9938151 112.72168,68.2333984 C112.72168,69.4684245 112.986003,70.4277344 113.514648,71.1113281 C114.043294,71.7949219 114.779297,72.1367188 115.722656,72.1367188 Z M116.15332,70.8378906 C115.560872,70.8378906 115.116536,70.6180013 114.820312,70.1782227 C114.524089,69.738444 114.375977,69.0992839 114.375977,68.2607422 C114.375977,67.4130859 114.528646,66.7602539 114.833984,66.3022461 C115.139323,65.8442383 115.574544,65.6152344 116.139648,65.6152344 C116.800456,65.6152344 117.285807,65.8157552 117.595703,66.2167969 C117.905599,66.6178385 118.060547,67.2945964 118.060547,68.2470703 L118.060547,68.2470703 L118.060547,68.4726562 C118.051432,69.3066406 117.896484,69.9093424 117.595703,70.2807617 C117.294922,70.652181 116.814128,70.8378906 116.15332,70.8378906 Z M123.857422,72.1367188 C124.860026,72.1367188 125.630208,71.9396159 126.167969,71.5454102 C126.705729,71.1512044 126.974609,70.5849609 126.974609,69.8466797 C126.974609,69.4820964 126.90625,69.1687826 126.769531,68.9067383 C126.632812,68.644694 126.423177,68.4134115 126.140625,68.2128906 C125.858073,68.0123698 125.404622,67.7913411 124.780273,67.5498047 C124.037435,67.2626953 123.555501,67.0371094 123.334473,66.8730469 C123.113444,66.7089844 123.00293,66.5084635 123.00293,66.2714844 C123.00293,65.7884115 123.426758,65.546875 124.274414,65.546875 C124.830404,65.546875 125.516276,65.7154948 126.332031,66.0527344 L126.332031,66.0527344 L126.851562,64.8427734 C126.058594,64.4827474 125.217773,64.3027344 124.329102,64.3027344 C123.431315,64.3027344 122.721517,64.4816081 122.199707,64.8393555 C121.677897,65.1971029 121.416992,65.6995443 121.416992,66.3466797 C121.416992,66.8844401 121.570801,67.3219401 121.878418,67.6591797 C122.186035,67.9964193 122.775065,68.3336589 123.645508,68.6708984 C124.092122,68.8440755 124.440755,68.9990234 124.691406,69.1357422 C124.942057,69.2724609 125.12207,69.4046224 125.231445,69.5322266 C125.34082,69.6598307 125.395508,69.8193359 125.395508,70.0107422 C125.395508,70.6077474 124.901042,70.90625 123.912109,70.90625 C123.146484,70.90625 122.319336,70.7011719 121.430664,70.2910156 L121.430664,70.2910156 L121.430664,71.6787109 C122.041341,71.9840495 122.85026,72.1367188 123.857422,72.1367188 Z M129.483398,72.1982422 C129.811523,72.1982422 130.063314,72.1036784 130.23877,71.9145508 C130.414225,71.7254232 130.501953,71.4690755 130.501953,71.1455078 C130.501953,70.8264974 130.415365,70.574707 130.242188,70.3901367 C130.06901,70.2055664 129.816081,70.1132812 129.483398,70.1132812 C129.155273,70.1132812 128.904622,70.2021484 128.731445,70.3798828 C128.558268,70.5576172 128.47168,70.8128255 128.47168,71.1455078 C128.47168,71.4736328 128.558268,71.7311198 128.731445,71.9179688 C128.904622,72.1048177 129.155273,72.1982422 129.483398,72.1982422 Z" id="Describingwords." fill="#FFFFFF" fill-rule="nonzero"></path>
            </g>
        </g>
    </g>
</svg>