<?xml version="1.0" encoding="UTF-8"?>
<svg width="163px" height="98px" viewBox="0 0 163 98" version="1.1" xmlns="http://www.w3.org/2000/svg" xmlns:xlink="http://www.w3.org/1999/xlink">
    <!-- Generator: Sketch 62 (91390) - https://sketch.com -->
    <title>Adverbs</title>
    <desc>Created with Sketch.</desc>
    <defs>
        <radialGradient cx="26.9203086%" cy="60.7926827%" fx="26.9203086%" fy="60.7926827%" r="48.1480443%" gradientTransform="translate(0.269203,0.607927),scale(0.595092,1.000000),rotate(143.900900),translate(-0.269203,-0.607927)" id="radialGradient-1">
            <stop stop-color="#FAD961" offset="0%"></stop>
            <stop stop-color="#F76B1C" offset="100%"></stop>
        </radialGradient>
    </defs>
    <g id="Symbols" stroke="none" stroke-width="1" fill="none" fill-rule="evenodd">
        <g id="i/Adverbs">
            <g id="Adverbs">
                <line x1="79" y1="43" x2="79" y2="88.7428943" id="Line-3" stroke="#FFFFFF" stroke-width="2" stroke-linecap="square"></line>
                <g id="Identify" fill="url(#radialGradient-1)" fill-rule="nonzero">
                    <g id="Group-5">
                        <g id="Group-2">
                            <g id="Group-3" transform="translate(0.000000, 0.600000)">
                                <path d="M6,0 L157,0 C160.313708,-6.08718376e-16 163,2.6862915 163,6 L163,91 C163,94.3137085 160.313708,97 157,97 L6,97 C2.6862915,97 4.05812251e-16,94.3137085 0,91 L0,6 C-4.05812251e-16,2.6862915 2.6862915,6.08718376e-16 6,0 Z" id="Rectangle-2"></path>
                            </g>
                        </g>
                    </g>
                </g>
                <line x1="2" y1="32" x2="161" y2="32" id="Line-2" stroke="#FFFFFF" stroke-width="4" stroke-linecap="square"></line>
                <line x1="82" y1="42" x2="82" y2="87.7428943" id="Line-3" stroke="#FFFFFF" stroke-width="2" stroke-linecap="square"></line>
                <path d="M95.8027344,62 L95.8027344,57.1396484 C95.8027344,56.055013 95.7639974,54.8929036 95.6865234,53.6533203 L95.6865234,53.6533203 L95.7412109,53.6533203 L98.6396484,62 L100.082031,62 L103.083008,53.6669922 L103.137695,53.6669922 C103.119466,53.835612 103.097819,54.3186849 103.072754,55.1162109 C103.047689,55.913737 103.035156,56.5608724 103.035156,57.0576172 L103.035156,62 L104.607422,62 L104.607422,52.0058594 L102.296875,52.0058594 L99.4394531,59.9560547 L99.3984375,59.9560547 L96.6230469,52.0058594 L94.3193359,52.0058594 L94.3193359,62 L95.8027344,62 Z M110.178711,62.1367188 C111.308919,62.1367188 112.190755,61.7903646 112.824219,61.0976562 C113.457682,60.4049479 113.774414,59.4410807 113.774414,58.2060547 C113.774414,57.0120443 113.455404,56.0629883 112.817383,55.3588867 C112.179362,54.6547852 111.313477,54.3027344 110.219727,54.3027344 C109.075846,54.3027344 108.189453,54.6468099 107.560547,55.3349609 C106.931641,56.023112 106.617188,56.9801432 106.617188,58.2060547 C106.617188,58.9944661 106.763021,59.6871745 107.054688,60.2841797 C107.346354,60.8811849 107.763346,61.3391927 108.305664,61.6582031 C108.847982,61.9772135 109.472331,62.1367188 110.178711,62.1367188 Z M110.206055,60.8242188 C108.916341,60.8242188 108.271484,59.9514974 108.271484,58.2060547 C108.271484,57.3720703 108.423014,56.7317708 108.726074,56.2851562 C109.029134,55.8385417 109.517904,55.6152344 110.192383,55.6152344 C111.477539,55.6152344 112.120117,56.4788411 112.120117,58.2060547 C112.120117,59.9514974 111.482096,60.8242188 110.206055,60.8242188 Z M118.169922,62.1367188 C119.163411,62.1367188 119.917643,61.7607422 120.432617,61.0087891 L120.432617,61.0087891 L120.507812,61.0087891 L120.788086,62 L122.045898,62 L122.045898,51.3632812 L120.432617,51.3632812 L120.432617,54.1181641 C120.432617,54.4326172 120.471354,54.8610026 120.548828,55.4033203 L120.548828,55.4033203 L120.466797,55.4033203 C119.947266,54.6695964 119.190755,54.3027344 118.197266,54.3027344 C117.249349,54.3027344 116.50765,54.6479492 115.972168,55.3383789 C115.436686,56.0288086 115.168945,56.9938151 115.168945,58.2333984 C115.168945,59.4684245 115.433268,60.4277344 115.961914,61.1113281 C116.49056,61.7949219 117.226562,62.1367188 118.169922,62.1367188 Z M118.600586,60.8378906 C118.008138,60.8378906 117.563802,60.6180013 117.267578,60.1782227 C116.971354,59.738444 116.823242,59.0992839 116.823242,58.2607422 C116.823242,57.4130859 116.975911,56.7602539 117.28125,56.3022461 C117.586589,55.8442383 118.02181,55.6152344 118.586914,55.6152344 C119.247721,55.6152344 119.733073,55.8157552 120.042969,56.2167969 C120.352865,56.6178385 120.507812,57.2945964 120.507812,58.2470703 L120.507812,58.2470703 L120.507812,58.4726562 C120.498698,59.3066406 120.34375,59.9093424 120.042969,60.2807617 C119.742188,60.652181 119.261393,60.8378906 118.600586,60.8378906 Z M125.15625,53.3183594 C125.438802,53.3183594 125.658691,53.2397461 125.815918,53.0825195 C125.973145,52.925293 126.051758,52.7099609 126.051758,52.4365234 C126.051758,52.1494141 125.973145,51.9283854 125.815918,51.7734375 C125.658691,51.6184896 125.438802,51.5410156 125.15625,51.5410156 C124.864583,51.5410156 124.640137,51.6184896 124.48291,51.7734375 C124.325684,51.9283854 124.24707,52.1494141 124.24707,52.4365234 C124.24707,52.7099609 124.325684,52.925293 124.48291,53.0825195 C124.640137,53.2397461 124.864583,53.3183594 125.15625,53.3183594 Z M125.949219,62 L125.949219,54.4394531 L124.342773,54.4394531 L124.342773,62 L125.949219,62 Z M130.194336,62 L130.194336,55.65625 L132.040039,55.65625 L132.040039,54.4394531 L130.194336,54.4394531 L130.194336,53.9472656 C130.194336,53.4960938 130.277507,53.1577148 130.443848,52.9321289 C130.610189,52.706543 130.875651,52.59375 131.240234,52.59375 C131.60026,52.59375 131.978516,52.6575521 132.375,52.7851562 L132.375,52.7851562 L132.798828,51.5683594 C132.251953,51.3815104 131.695964,51.2880859 131.130859,51.2880859 C130.269531,51.2880859 129.629232,51.503418 129.209961,51.934082 C128.79069,52.3647461 128.581055,53.0266927 128.581055,53.9199219 L128.581055,53.9199219 L128.581055,54.4121094 L127.336914,54.9042969 L127.336914,55.65625 L128.581055,55.65625 L128.581055,62 L130.194336,62 Z M133.509766,65.3632812 C134.88151,65.3632812 135.861328,64.5771484 136.449219,63.0048828 L136.449219,63.0048828 L139.682617,54.4394531 L137.946289,54.4394531 C136.898112,57.4791667 136.319336,59.1778971 136.209961,59.5356445 C136.100586,59.8933919 136.025391,60.1975911 135.984375,60.4482422 L135.984375,60.4482422 L135.929688,60.4482422 C135.852214,59.9104818 135.697266,59.336263 135.464844,58.7255859 L135.464844,58.7255859 L133.926758,54.4394531 L132.176758,54.4394531 L135.211914,62 L134.931641,62.7109375 C134.617188,63.608724 134.072591,64.0576172 133.297852,64.0576172 C132.987956,64.0576172 132.71224,64.0302734 132.470703,63.9755859 L132.470703,63.9755859 L132.470703,65.2470703 C132.807943,65.3245443 133.154297,65.3632812 133.509766,65.3632812 Z M146.299805,62.1367188 C146.878581,62.1367188 147.352539,62.0535482 147.72168,61.887207 C148.09082,61.7208659 148.457682,61.4075521 148.822266,60.9472656 L148.822266,60.9472656 L148.876953,60.9472656 L149.198242,62 L150.34668,62 L150.34668,56.9072266 C150.34668,56.0094401 150.101725,55.3509115 149.611816,54.9316406 C149.121908,54.5123698 148.396159,54.3027344 147.43457,54.3027344 C147.001628,54.3027344 146.541341,54.3585612 146.053711,54.4702148 C145.566081,54.5818685 145.117188,54.7447917 144.707031,54.9589844 L144.707031,54.9589844 L145.226562,56.1074219 C145.554688,55.952474 145.896484,55.8180339 146.251953,55.7041016 C146.607422,55.5901693 146.978841,55.5332031 147.366211,55.5332031 C147.840169,55.5332031 148.189941,55.652832 148.415527,55.8920898 C148.641113,56.1313477 148.753906,56.492513 148.753906,56.9755859 L148.753906,56.9755859 L148.753906,57.3789062 L147.448242,57.4199219 C146.263346,57.4563802 145.38151,57.6728516 144.802734,58.0693359 C144.223958,58.4658203 143.93457,59.0537109 143.93457,59.8330078 C143.93457,60.5667318 144.143066,61.1341146 144.560059,61.5351562 C144.977051,61.9361979 145.556966,62.1367188 146.299805,62.1367188 Z M146.805664,60.90625 C146.404622,60.90625 146.103841,60.8139648 145.90332,60.6293945 C145.702799,60.4448242 145.602539,60.1839193 145.602539,59.8466797 C145.602539,59.3818359 145.774577,59.0366211 146.118652,58.8110352 C146.462728,58.5854492 147.013021,58.4589844 147.769531,58.4316406 L147.769531,58.4316406 L148.740234,58.390625 L148.740234,59.046875 C148.740234,59.6347656 148.563639,60.0916341 148.210449,60.4174805 C147.857259,60.7433268 147.388997,60.90625 146.805664,60.90625 Z M97.6074219,74 L100.492188,66.4394531 L98.7832031,66.4394531 L97.2451172,70.8349609 C96.9671224,71.7008464 96.8076172,72.2978516 96.7666016,72.6259766 L96.7666016,72.6259766 L96.7119141,72.6259766 C96.6572266,72.1702474 96.4977214,71.5732422 96.2333984,70.8349609 L96.2333984,70.8349609 L94.6953125,66.4394531 L93,66.4394531 L95.8710938,74 L97.6074219,74 Z M104.942383,74.1367188 C105.457357,74.1367188 105.915365,74.0979818 106.316406,74.0205078 C106.717448,73.9430339 107.113932,73.8108724 107.505859,73.6240234 L107.505859,73.6240234 L107.505859,72.3183594 C107.063802,72.5143229 106.650228,72.6544596 106.265137,72.7387695 C105.880046,72.8230794 105.464193,72.8652344 105.017578,72.8652344 C104.338542,72.8652344 103.812174,72.6681315 103.438477,72.2739258 C103.064779,71.8797201 102.866536,71.3157552 102.84375,70.5820312 L102.84375,70.5820312 L107.881836,70.5820312 L107.881836,69.7138672 C107.881836,68.6520182 107.592448,67.8180339 107.013672,67.2119141 C106.434896,66.6057943 105.646484,66.3027344 104.648438,66.3027344 C103.572917,66.3027344 102.727539,66.6559245 102.112305,67.3623047 C101.49707,68.0686849 101.189453,69.039388 101.189453,70.2744141 C101.189453,71.4775391 101.520996,72.4220378 102.184082,73.1079102 C102.847168,73.7937826 103.766602,74.1367188 104.942383,74.1367188 Z M106.302734,69.4199219 L102.871094,69.4199219 C102.930339,68.8001302 103.11377,68.3284505 103.421387,68.0048828 C103.729004,67.6813151 104.138021,67.5195312 104.648438,67.5195312 C105.158854,67.5195312 105.559896,67.6801758 105.851562,68.0014648 C106.143229,68.3227539 106.29362,68.7955729 106.302734,69.4199219 L106.302734,69.4199219 Z M111.313477,74 L111.313477,70.0488281 C111.313477,69.3789062 111.512858,68.8343099 111.911621,68.4150391 C112.310384,67.9957682 112.831055,67.7861328 113.473633,67.7861328 C113.719727,67.7861328 113.956706,67.8134766 114.18457,67.8681641 L114.18457,67.8681641 L114.341797,66.3710938 C114.132161,66.3255208 113.86556,66.3027344 113.541992,66.3027344 C113.077148,66.3027344 112.643066,66.4348958 112.239746,66.6992188 C111.836426,66.9635417 111.50944,67.3212891 111.258789,67.7724609 L111.258789,67.7724609 L111.176758,67.7724609 L110.964844,66.4394531 L109.707031,66.4394531 L109.707031,74 L111.313477,74 Z M119.578125,74.1367188 C120.526042,74.1367188 121.266602,73.7915039 121.799805,73.1010742 C122.333008,72.4106445 122.599609,71.445638 122.599609,70.2060547 C122.599609,68.9710286 122.336426,68.0117188 121.810059,67.328125 C121.283691,66.6445312 120.548828,66.3027344 119.605469,66.3027344 C118.611979,66.3027344 117.860026,66.6787109 117.349609,67.4306641 L117.349609,67.4306641 L117.28125,67.4306641 C117.290365,67.3304036 117.304036,67.0957031 117.322266,66.7265625 C117.340495,66.3574219 117.349609,66.0794271 117.349609,65.8925781 L117.349609,65.8925781 L117.349609,63.3632812 L115.743164,63.3632812 L115.743164,74 L116.946289,74 L117.240234,73.1044922 L117.349609,73.1044922 C117.878255,73.7926432 118.621094,74.1367188 119.578125,74.1367188 Z M119.21582,72.8242188 C118.555013,72.8242188 118.078776,72.6180013 117.787109,72.2055664 C117.495443,71.7931315 117.349609,71.1266276 117.349609,70.2060547 L117.349609,70.2060547 L117.349609,70.0966797 C117.358724,69.2034505 117.505697,68.566569 117.790527,68.1860352 C118.075358,67.8055013 118.541341,67.6152344 119.188477,67.6152344 C120.364258,67.6152344 120.952148,68.4742839 120.952148,70.1923828 C120.952148,71.0445964 120.805176,71.6962891 120.51123,72.1474609 C120.217285,72.5986328 119.785482,72.8242188 119.21582,72.8242188 Z M125.238281,74.1982422 C125.566406,74.1982422 125.818197,74.1036784 125.993652,73.9145508 C126.169108,73.7254232 126.256836,73.4690755 126.256836,73.1455078 C126.256836,72.8264974 126.170247,72.574707 125.99707,72.3901367 C125.823893,72.2055664 125.570964,72.1132812 125.238281,72.1132812 C124.910156,72.1132812 124.659505,72.2021484 124.486328,72.3798828 C124.313151,72.5576172 124.226562,72.8128255 124.226562,73.1455078 C124.226562,73.4736328 124.313151,73.7311198 124.486328,73.9179688 C124.659505,74.1048177 124.910156,74.1982422 125.238281,74.1982422 Z" id="Modifyaverb." fill="#FFFFFF" fill-rule="nonzero"></path>
                <g transform="translate(41.000000, 2.000000)" fill="#FFFFFF" font-family="OpenSans-SemiBold, Open Sans" font-size="20" font-weight="500">
                    <text>
                        <tspan x="0" y="21">Adverbs</tspan>
                    </text>
                </g>
                <g id="noun_846018_ffffff" transform="translate(26.000000, 52.000000)" fill="#FFFFFF" fill-rule="nonzero">
                    <path d="M1.03044086,0.00151212228 C0.451600553,0.0612151426 0.0130135561,0.542997689 0.016012461,1.11572462 L0.016012461,16.7146996 C0.0103513309,17.1165247 0.224886627,17.4902822 0.577582303,17.6928531 C0.930277977,17.895424 1.36649088,17.895424 1.71918656,17.6928531 C2.07188223,17.4902822 2.28641753,17.1165247 2.28064268,16.7146996 L2.28064268,2.22993712 L32.8516156,2.22993712 C33.2599485,2.23561993 33.6397594,2.02450387 33.8456112,1.6774294 C34.0514629,1.33035493 34.0514629,0.90109432 33.8456112,0.55401985 C33.6397594,0.206945382 33.2599485,-0.00417068409 32.8516156,0.00151212228 L1.14838443,0.00151212228 C1.1090966,-0.000504040759 1.06972869,-0.000504040759 1.03044086,0.00151212228 Z M32.8398212,4.43508747 C32.5374558,4.43821413 32.2488956,4.56015675 32.0384286,4.77380973 C31.8279616,4.98746272 31.7130725,5.27507678 31.7193573,5.57257462 L31.7193573,20.0573371 L10.2064504,20.0573371 C9.97078788,20.0538637 9.73989667,20.1228385 9.5459665,20.2546456 L6.05483686,22.7035918 L6.05483686,21.1715496 C6.05477435,20.5562125 5.54788167,20.0573987 4.92257859,20.0573371 L1.14838443,20.0573371 C0.740051438,20.0516543 0.360240559,20.2627704 0.154388811,20.6098448 C-0.0514629371,20.9569193 -0.0514629371,21.3861799 0.154388811,21.7332544 C0.360240559,22.0803289 0.740051438,22.2914449 1.14838443,22.2857621 L3.79032036,22.2857621 L3.79032036,24.8855913 C3.79028969,25.303495 4.02787397,25.6862851 4.40570277,25.8770808 C4.78353158,26.0678766 5.23808173,26.0345999 5.58306259,25.790889 L10.5720755,22.2857621 L32.8516156,22.2857621 C33.4769186,22.2857006 33.9841188,21.7868867 33.9841188,21.1715496 L33.9841188,5.57257462 C33.9902444,5.27105102 33.8721453,4.97986279 33.6565502,4.76551655 C33.440955,4.55117028 33.1462775,4.43197312 32.8398212,4.43508747 Z M7.56451454,7.44120182 C5.49349569,7.44120182 3.80211472,9.10562731 3.80211472,11.1436371 C3.80211472,13.1816506 5.49349569,14.8460724 7.56451454,14.8460724 C9.63553339,14.8460724 11.3269143,13.1816506 11.3269143,11.1436371 C11.3269143,9.10562731 9.63553339,7.44120182 7.56451454,7.44120182 Z M17,7.44120182 C14.9289811,7.44120182 13.2376002,9.10562731 13.2376002,11.1436371 C13.2376002,13.1816506 14.9289811,14.8460724 17,14.8460724 C19.0710188,14.8460724 20.7623998,13.1816506 20.7623998,11.1436371 C20.7623998,9.10562731 19.0710188,7.44120182 17,7.44120182 Z M26.4354854,7.44120182 C24.3644666,7.44120182 22.6730856,9.10562731 22.6730856,11.1436371 C22.6730856,13.1816506 24.3644666,14.8460724 26.4354854,14.8460724 C28.5065043,14.8460724 30.1978853,13.1816506 30.1978853,11.1436371 C30.1978853,9.10562731 28.5065043,7.44120182 26.4354854,7.44120182 Z M7.56451454,9.64641408 C8.41169808,9.64641408 9.08598655,10.3099573 9.08598655,11.1436371 C9.08598655,11.9773206 8.41169808,12.6408602 7.56451454,12.6408602 C6.71733137,12.6408602 6.04304249,11.9773206 6.04304249,11.1436371 C6.04304249,10.3099573 6.71733137,9.64641408 7.56451454,9.64641408 Z M17,9.64641408 C17.8471835,9.64641408 18.521472,10.3099573 18.521472,11.1436371 C18.521472,11.9773206 17.8471835,12.6408602 17,12.6408602 C16.1528168,12.6408602 15.478528,11.9773206 15.478528,11.1436371 C15.478528,10.3099573 16.1528168,9.64641408 17,9.64641408 Z M26.4354854,9.64641408 C27.2826686,9.64641408 27.9569575,10.3099573 27.9569575,11.1436371 C27.9569575,11.9773206 27.2826686,12.6408602 26.4354854,12.6408602 C25.5883019,12.6408602 24.9140134,11.9773206 24.9140134,11.1436371 C24.9140134,10.3099573 25.5883019,9.64641408 26.4354854,9.64641408 Z" id="Shape"></path>
                </g>
            </g>
        </g>
    </g>
</svg>