<?xml version="1.0" encoding="UTF-8"?>
<svg width="163px" height="97px" viewBox="0 0 163 97" version="1.1" xmlns="http://www.w3.org/2000/svg" xmlns:xlink="http://www.w3.org/1999/xlink">
    <!-- Generator: Sketch 62 (91390) - https://sketch.com -->
    <title>Amplify</title>
    <desc>Created with Sketch.</desc>
    <defs>
        <radialGradient cx="26.6602155%" cy="59.9094438%" fx="26.6602155%" fy="59.9094438%" r="35.133316%" gradientTransform="translate(0.266602,0.599094),scale(0.595092,1.000000),rotate(-90.000000),translate(-0.266602,-0.599094)" id="radialGradient-1">
            <stop stop-color="#F9E30E" offset="0%"></stop>
            <stop stop-color="#F1C206" offset="100%"></stop>
            <stop stop-color="#F1C206" offset="100%"></stop>
        </radialGradient>
        <path d="M52.2148438,20 L53.4716797,16.4316406 L58.3847656,16.4316406 L59.6679688,20 L61.9003906,20 L57.0927734,7.09765625 L54.8076172,7.09765625 L50,20 L52.2148438,20 Z M57.8310547,14.6210938 L54.0869141,14.6210938 L55.2470703,11.2724609 C55.5517578,10.4169922 55.7832031,9.62890625 55.9414062,8.90820312 C56,9.14257812 56.1069336,9.51171875 56.262207,10.015625 L56.3266901,10.2233339 C56.4515306,10.6222497 56.5516183,10.922154 56.6269531,11.1230469 L56.6269531,11.1230469 L57.8310547,14.6210938 Z M65.4423828,20 L65.4423828,15.1572266 C65.4423828,13.9501953 65.628418,13.0874023 66.0004883,12.5688477 C66.3725586,12.050293 66.9570312,11.7910156 67.7539062,11.7910156 C68.3515625,11.7910156 68.7910156,11.9741211 69.0722656,12.340332 C69.3535156,12.706543 69.4941406,13.2617188 69.4941406,14.0058594 L69.4941406,14.0058594 L69.4941406,20 L71.5683594,20 L71.5683594,14.8496094 C71.5683594,13.8125 71.7543945,13.043457 72.1264648,12.5424805 C72.4985352,12.0415039 73.0859375,11.7910156 73.8886719,11.7910156 C74.4863281,11.7910156 74.9272461,11.9741211 75.2114258,12.340332 C75.4956055,12.706543 75.6376953,13.2617188 75.6376953,14.0058594 L75.6376953,14.0058594 L75.6376953,20 L77.703125,20 L77.703125,13.6630859 C77.703125,12.4619141 77.4379883,11.5683594 76.9077148,10.9824219 C76.3774414,10.3964844 75.5322266,10.1035156 74.3720703,10.1035156 C73.6982422,10.1035156 73.1005859,10.2382812 72.5791016,10.5078125 C72.0576172,10.7773438 71.6533203,11.1523438 71.3662109,11.6328125 L71.3662109,11.6328125 L71.2255859,11.6328125 C70.7392578,10.6132812 69.7490234,10.1035156 68.2548828,10.1035156 C67.6396484,10.1035156 67.0756836,10.2294922 66.5629883,10.4814453 C66.050293,10.7333984 65.6591797,11.0908203 65.3896484,11.5537109 L65.3896484,11.5537109 L65.2841797,11.5537109 L64.9941406,10.2792969 L63.3769531,10.2792969 L63.3769531,20 L65.4423828,20 Z M82.6513672,24.3242188 L82.6513672,20.3427734 C82.6513672,20.1669922 82.6103516,19.6689453 82.5283203,18.8486328 L82.5283203,18.8486328 L82.6513672,18.8486328 C83.3310547,19.7333984 84.2861328,20.1757812 85.5166016,20.1757812 C86.7294922,20.1757812 87.6801758,19.7304688 88.3686523,18.8398438 C89.0571289,17.9492188 89.4013672,16.7099609 89.4013672,15.1220703 C89.4013672,13.5341797 89.0629883,12.3007812 88.3862305,11.421875 C87.7094727,10.5429688 86.7646484,10.1035156 85.5517578,10.1035156 C84.2626953,10.1035156 83.2958984,10.5957031 82.6513672,11.5800781 L82.6513672,11.5800781 L82.5458984,11.5800781 C82.3994141,10.8945312 82.3027344,10.4609375 82.2558594,10.2792969 L82.2558594,10.2792969 L80.5859375,10.2792969 L80.5859375,24.3242188 L82.6513672,24.3242188 Z M85.0507812,18.4882812 C84.2011719,18.4882812 83.5888672,18.2231445 83.2138672,17.6928711 C82.8388672,17.1625977 82.6513672,16.3056641 82.6513672,15.1220703 L82.6513672,15.1220703 L82.6513672,14.8144531 C82.6513672,13.7597656 82.840332,12.9921875 83.2182617,12.5117188 C83.5961914,12.03125 84.1953125,11.7910156 85.015625,11.7910156 C85.7597656,11.7910156 86.3237305,12.0708008 86.7075195,12.6303711 C87.0913086,13.1899414 87.2832031,14.0146484 87.2832031,15.1044922 C87.2832031,16.1884766 87.0898438,17.0234375 86.703125,17.609375 C86.3164062,18.1953125 85.765625,18.4882812 85.0507812,18.4882812 Z M93.8662109,20 L93.8662109,6.32421875 L91.8007812,6.32421875 L91.8007812,20 L93.8662109,20 Z M97.8652344,8.83789062 C98.2285156,8.83789062 98.5112305,8.73681641 98.7133789,8.53466797 C98.9155273,8.33251953 99.0166016,8.05566406 99.0166016,7.70410156 C99.0166016,7.33496094 98.9155273,7.05078125 98.7133789,6.8515625 C98.5112305,6.65234375 98.2285156,6.55273438 97.8652344,6.55273438 C97.4902344,6.55273438 97.2016602,6.65234375 96.9995117,6.8515625 C96.7973633,7.05078125 96.6962891,7.33496094 96.6962891,7.70410156 C96.6962891,8.05566406 96.7973633,8.33251953 96.9995117,8.53466797 C97.2016602,8.73681641 97.4902344,8.83789062 97.8652344,8.83789062 Z M98.8847656,20 L98.8847656,10.2792969 L96.8193359,10.2792969 L96.8193359,20 L98.8847656,20 Z M104.342773,20 L104.342773,11.84375 L106.71582,11.84375 L106.71582,10.2792969 L104.342773,10.2792969 L104.342773,9.64648438 C104.342773,9.06640625 104.449707,8.63134766 104.663574,8.34130859 C104.877441,8.05126953 105.21875,7.90625 105.6875,7.90625 C106.150391,7.90625 106.636719,7.98828125 107.146484,8.15234375 L107.146484,8.15234375 L107.691406,6.58789062 C106.988281,6.34765625 106.273438,6.22753906 105.546875,6.22753906 C104.439453,6.22753906 103.616211,6.50439453 103.077148,7.05810547 C102.538086,7.61181641 102.268555,8.46289062 102.268555,9.61132812 L102.268555,9.61132812 L102.268555,10.2441406 L100.668945,10.8769531 L100.668945,11.84375 L102.268555,11.84375 L102.268555,20 L104.342773,20 Z M108.605469,24.3242188 C110.369141,24.3242188 111.628906,23.3134766 112.384766,21.2919922 L112.384766,21.2919922 L116.541992,10.2792969 L114.30957,10.2792969 C112.961914,14.1875 112.217773,16.371582 112.077148,16.831543 C111.936523,17.2915039 111.839844,17.6826172 111.787109,18.0048828 L111.787109,18.0048828 L111.716797,18.0048828 C111.617188,17.3134766 111.417969,16.5751953 111.119141,15.7900391 L111.119141,15.7900391 L109.141602,10.2792969 L106.891602,10.2792969 L110.793945,20 L110.433594,20.9140625 C110.029297,22.0683594 109.329102,22.6455078 108.333008,22.6455078 C107.93457,22.6455078 107.580078,22.6103516 107.269531,22.5400391 L107.269531,22.5400391 L107.269531,24.1748047 C107.703125,24.2744141 108.148438,24.3242188 108.605469,24.3242188 Z" id="path-2"></path>
    </defs>
    <g id="Symbols" stroke="none" stroke-width="1" fill="none" fill-rule="evenodd">
        <g id="i/Amplify">
            <g id="Amplify">
                <g id="Group-23">
                    <rect id="Rectangle-2" fill="url(#radialGradient-1)" fill-rule="nonzero" x="0" y="0" width="163" height="97" rx="6"></rect>
                    <g id="yellow-icon"></g>
                    <polyline id="Line-2" stroke="#FFFFFF" stroke-width="4" stroke-linecap="square" points="2 30 20.4627861 30 161 30"></polyline>
                    <line x1="81" y1="45" x2="81" y2="85.0042519" id="Line-3" stroke="#FFFFFF" stroke-width="2" stroke-linecap="square"></line>
                    <g id="Amplify" fill-rule="nonzero" fill="#FFFFFF">
                        <use xlink:href="#path-2"></use>
                        <use xlink:href="#path-2"></use>
                    </g>
                    <path d="M59.2055339,56.7450922 L47.9997974,56.7450922 C47.8176548,56.7450922 47.6698287,56.8933926 47.6698287,57.0761199 L47.6698287,68.3173781 C47.6698287,68.5001054 47.8176548,68.6484058 47.9997974,68.6484058 L59.2055339,68.6484058 C59.3876766,68.6484058 59.5355026,68.5001054 59.5355026,68.3173781 L59.5355026,57.0761199 C59.5355026,56.8933926 59.3876766,56.7450922 59.2055339,56.7450922 Z" id="Shape" fill="#ECF0F1" fill-rule="nonzero"></path>
                    <polygon id="Shape" stroke="#BDC3C7" fill="#BDC3C7" fill-rule="nonzero" points="58.8755652 53.7459816 48.3297661 53.7459816 48.3297661 43.1663373 58.8755652 43.1663373"></polygon>
                    <path d="M59.2055339,70.9859025 L47.9997974,70.9859025 C47.8176548,70.9859025 47.6698287,71.1342029 47.6698287,71.3169302 L47.6698287,82.5586298 C47.6698287,82.741357 47.8176548,82.8896575 47.9997974,82.8896575 L59.2055339,82.8896575 C59.3876766,82.8896575 59.5355026,82.741357 59.5355026,82.5586298 L59.5355026,71.3169302 C59.5355026,71.1342029 59.3876766,70.9859025 59.2055339,70.9859025 Z" id="Shape" stroke="#BDC3C7" fill="#BDC3C7" fill-rule="nonzero"></path>
                    <path d="M44.0045366,51.0284651 L46.3354354,48.6900856 C46.3974695,48.6278524 46.4326662,48.5435507 46.4326662,48.4561594 C46.4326662,48.3687681 46.3974695,48.284025 46.3354354,48.2222332 L44.0045366,45.8838538 L43.537301,46.3521476 L45.3054932,48.1255731 L27.1132198,48.1255731 C26.9310771,48.1255731 26.7832511,48.2738735 26.7832511,48.4566008 L26.7832511,56.7455336 L21.5107915,56.7455336 C21.3286488,56.7455336 21.1808228,56.893834 21.1808228,57.0765613 L21.1808228,68.3182608 C21.1808228,68.5009881 21.3286488,68.6492885 21.5107915,68.6492885 L26.7836911,68.6492885 L26.7836911,76.93778 C26.7836911,77.1205073 26.931517,77.2688076 27.1136597,77.2688076 L45.3059331,77.2688076 L43.5381809,79.0426745 L44.0049766,79.5109684 L46.3358754,77.172589 C46.3983495,77.1103558 46.4326662,77.026054 46.4326662,76.9391041 C46.4326662,76.8512714 46.3983495,76.7665284 46.3358754,76.7047365 L44.0049766,74.3667984 L43.5386208,74.8346508 L45.306813,76.6080764 L27.4445083,76.6080764 L27.4445083,68.6501713 L32.7174079,68.6501713 C32.8995506,68.6501713 33.0473766,68.5018709 33.0473766,68.3191436 L33.0473766,63.0279974 L45.306813,63.0279974 L43.5386208,64.8014229 L44.0058565,65.2705995 L46.3367553,62.93222 C46.3996693,62.8699868 46.4339861,62.7856851 46.4339861,62.6982938 C46.4339861,62.6109025 46.3996693,62.5261594 46.3367553,62.4643676 L44.0058565,60.1259881 L43.5386208,60.5942819 L45.306813,62.3677075 L33.0464967,62.3677075 L33.0464967,57.0761199 C33.0464967,56.8933926 32.8986707,56.7450922 32.716528,56.7450922 L27.4436284,56.7450922 L27.4436284,48.7871871 L45.3059331,48.7871871 L43.5381809,50.5606127 L44.0045366,51.0284651 Z" id="Shape" stroke="#9B9B9B" stroke-width="2" fill="#FFFFFF" fill-rule="nonzero"></path>
                    <path d="M89.53125,49 L89.53125,45.7949219 L90.421875,45.7949219 C91.5039062,45.7949219 92.3378906,45.5566406 92.9238281,45.0800781 C93.5097656,44.6035156 93.8027344,43.9179688 93.8027344,43.0234375 C93.8027344,42.171875 93.5361328,41.5273438 93.0029297,41.0898438 C92.4697266,40.6523438 91.6679688,40.4335938 90.5976562,40.4335938 L90.5976562,40.4335938 L88.1308594,40.4335938 L88.1308594,49 L89.53125,49 Z M90.2753906,44.6171875 L89.53125,44.6171875 L89.53125,41.6054688 L90.5039062,41.6054688 C91.140625,41.6054688 91.609375,41.7265625 91.9101562,41.96875 C92.2109375,42.2109375 92.3613281,42.578125 92.3613281,43.0703125 C92.3613281,43.6015625 92.1933594,43.9921875 91.8574219,44.2421875 C91.5214844,44.4921875 90.9941406,44.6171875 90.2753906,44.6171875 L90.2753906,44.6171875 Z M96.7441406,49 L96.7441406,45.6132812 C96.7441406,45.0390625 96.9150391,44.5722656 97.2568359,44.2128906 C97.5986328,43.8535156 98.0449219,43.6738281 98.5957031,43.6738281 C98.8066406,43.6738281 99.0097656,43.6972656 99.2050781,43.7441406 L99.2050781,43.7441406 L99.3398438,42.4609375 C99.1601562,42.421875 98.9316406,42.4023438 98.6542969,42.4023438 C98.2558594,42.4023438 97.8837891,42.515625 97.5380859,42.7421875 C97.1923828,42.96875 96.9121094,43.2753906 96.6972656,43.6621094 L96.6972656,43.6621094 L96.6269531,43.6621094 L96.4453125,42.5195312 L95.3671875,42.5195312 L95.3671875,49 L96.7441406,49 Z M103.207031,49.1171875 C104.175781,49.1171875 104.931641,48.8203125 105.474609,48.2265625 C106.017578,47.6328125 106.289062,46.8066406 106.289062,45.7480469 C106.289062,44.7246094 106.015625,43.9111328 105.46875,43.3076172 C104.921875,42.7041016 104.179688,42.4023438 103.242188,42.4023438 C102.261719,42.4023438 101.501953,42.6972656 100.962891,43.2871094 C100.423828,43.8769531 100.154297,44.6972656 100.154297,45.7480469 C100.154297,46.4238281 100.279297,47.0175781 100.529297,47.5292969 C100.779297,48.0410156 101.136719,48.4335938 101.601562,48.7070312 C102.066406,48.9804688 102.601562,49.1171875 103.207031,49.1171875 Z M103.230469,47.9921875 C102.125,47.9921875 101.572266,47.2441406 101.572266,45.7480469 C101.572266,45.0332031 101.702148,44.484375 101.961914,44.1015625 C102.22168,43.71875 102.640625,43.5273438 103.21875,43.5273438 C104.320312,43.5273438 104.871094,44.2675781 104.871094,45.7480469 C104.871094,47.2441406 104.324219,47.9921875 103.230469,47.9921875 Z M110.835938,49 L113.308594,42.5195312 L111.84375,42.5195312 L110.525391,46.2871094 C110.287109,47.0292969 110.150391,47.5410156 110.115234,47.8222656 L110.115234,47.8222656 L110.068359,47.8222656 C110.021484,47.4316406 109.884766,46.9199219 109.658203,46.2871094 L109.658203,46.2871094 L108.339844,42.5195312 L106.886719,42.5195312 L109.347656,49 L110.835938,49 Z M114.990234,41.5585938 C115.232422,41.5585938 115.420898,41.4912109 115.555664,41.3564453 C115.69043,41.2216797 115.757812,41.0371094 115.757812,40.8027344 C115.757812,40.5566406 115.69043,40.3671875 115.555664,40.234375 C115.420898,40.1015625 115.232422,40.0351562 114.990234,40.0351562 C114.740234,40.0351562 114.547852,40.1015625 114.413086,40.234375 C114.27832,40.3671875 114.210938,40.5566406 114.210938,40.8027344 C114.210938,41.0371094 114.27832,41.2216797 114.413086,41.3564453 C114.547852,41.4912109 114.740234,41.5585938 114.990234,41.5585938 Z M115.669922,49 L115.669922,42.5195312 L114.292969,42.5195312 L114.292969,49 L115.669922,49 Z M119.824219,49.1171875 C120.675781,49.1171875 121.322266,48.7949219 121.763672,48.1503906 L121.763672,48.1503906 L121.828125,48.1503906 L122.068359,49 L123.146484,49 L123.146484,39.8828125 L121.763672,39.8828125 L121.763672,42.2441406 C121.763672,42.5136719 121.796875,42.8808594 121.863281,43.3457031 L121.863281,43.3457031 L121.792969,43.3457031 C121.347656,42.7167969 120.699219,42.4023438 119.847656,42.4023438 C119.035156,42.4023438 118.399414,42.6982422 117.94043,43.2900391 C117.481445,43.8818359 117.251953,44.7089844 117.251953,45.7714844 C117.251953,46.8300781 117.478516,47.6523438 117.931641,48.2382812 C118.384766,48.8242188 119.015625,49.1171875 119.824219,49.1171875 Z M120.193359,48.0039062 C119.685547,48.0039062 119.304688,47.8154297 119.050781,47.4384766 C118.796875,47.0615234 118.669922,46.5136719 118.669922,45.7949219 C118.669922,45.0683594 118.800781,44.5087891 119.0625,44.1162109 C119.324219,43.7236328 119.697266,43.5273438 120.181641,43.5273438 C120.748047,43.5273438 121.164062,43.6992188 121.429688,44.0429688 C121.695312,44.3867188 121.828125,44.9667969 121.828125,45.7832031 L121.828125,45.7832031 L121.828125,45.9765625 C121.820312,46.6914062 121.6875,47.2080078 121.429688,47.5263672 C121.171875,47.8447266 120.759766,48.0039062 120.193359,48.0039062 Z M127.945312,49.1171875 C128.386719,49.1171875 128.779297,49.0839844 129.123047,49.0175781 C129.466797,48.9511719 129.806641,48.8378906 130.142578,48.6777344 L130.142578,48.6777344 L130.142578,47.5585938 C129.763672,47.7265625 129.40918,47.8466797 129.079102,47.9189453 C128.749023,47.9912109 128.392578,48.0273438 128.009766,48.0273438 C127.427734,48.0273438 126.976562,47.8583984 126.65625,47.5205078 C126.335938,47.1826172 126.166016,46.6992188 126.146484,46.0703125 L126.146484,46.0703125 L130.464844,46.0703125 L130.464844,45.3261719 C130.464844,44.4160156 130.216797,43.7011719 129.720703,43.1816406 C129.224609,42.6621094 128.548828,42.4023438 127.693359,42.4023438 C126.771484,42.4023438 126.046875,42.7050781 125.519531,43.3105469 C124.992188,43.9160156 124.728516,44.7480469 124.728516,45.8066406 C124.728516,46.8378906 125.012695,47.6474609 125.581055,48.2353516 C126.149414,48.8232422 126.9375,49.1171875 127.945312,49.1171875 Z M129.111328,45.0742188 L126.169922,45.0742188 C126.220703,44.5429688 126.37793,44.1386719 126.641602,43.8613281 C126.905273,43.5839844 127.255859,43.4453125 127.693359,43.4453125 C128.130859,43.4453125 128.474609,43.5830078 128.724609,43.8583984 C128.974609,44.1337891 129.103516,44.5390625 129.111328,45.0742188 L129.111328,45.0742188 Z M89.3613281,61 L89.3613281,57.7714844 C89.3613281,56.9667969 89.4853516,56.3916016 89.7333984,56.0458984 C89.9814453,55.7001953 90.3710938,55.5273438 90.9023438,55.5273438 C91.3007812,55.5273438 91.59375,55.6494141 91.78125,55.8935547 C91.96875,56.1376953 92.0625,56.5078125 92.0625,57.0039062 L92.0625,57.0039062 L92.0625,61 L93.4453125,61 L93.4453125,57.5664062 C93.4453125,56.875 93.5693359,56.3623047 93.8173828,56.0283203 C94.0654297,55.6943359 94.4570312,55.5273438 94.9921875,55.5273438 C95.390625,55.5273438 95.6845703,55.6494141 95.8740234,55.8935547 C96.0634766,56.1376953 96.1582031,56.5078125 96.1582031,57.0039062 L96.1582031,57.0039062 L96.1582031,61 L97.5351562,61 L97.5351562,56.7753906 C97.5351562,55.9746094 97.3583984,55.3789062 97.0048828,54.9882812 C96.6513672,54.5976562 96.0878906,54.4023438 95.3144531,54.4023438 C94.8652344,54.4023438 94.4667969,54.4921875 94.1191406,54.671875 C93.7714844,54.8515625 93.5019531,55.1015625 93.3105469,55.421875 L93.3105469,55.421875 L93.2167969,55.421875 C92.8925781,54.7421875 92.2324219,54.4023438 91.2363281,54.4023438 C90.8261719,54.4023438 90.4501953,54.4863281 90.1083984,54.6542969 C89.7666016,54.8222656 89.5058594,55.0605469 89.3261719,55.3691406 L89.3261719,55.3691406 L89.2558594,55.3691406 L89.0625,54.5195312 L87.984375,54.5195312 L87.984375,61 L89.3613281,61 Z M102.123047,61.1171875 C103.091797,61.1171875 103.847656,60.8203125 104.390625,60.2265625 C104.933594,59.6328125 105.205078,58.8066406 105.205078,57.7480469 C105.205078,56.7246094 104.931641,55.9111328 104.384766,55.3076172 C103.837891,54.7041016 103.095703,54.4023438 102.158203,54.4023438 C101.177734,54.4023438 100.417969,54.6972656 99.8789062,55.2871094 C99.3398438,55.8769531 99.0703125,56.6972656 99.0703125,57.7480469 C99.0703125,58.4238281 99.1953125,59.0175781 99.4453125,59.5292969 C99.6953125,60.0410156 100.052734,60.4335938 100.517578,60.7070312 C100.982422,60.9804688 101.517578,61.1171875 102.123047,61.1171875 Z M102.146484,59.9921875 C101.041016,59.9921875 100.488281,59.2441406 100.488281,57.7480469 C100.488281,57.0332031 100.618164,56.484375 100.87793,56.1015625 C101.137695,55.71875 101.556641,55.5273438 102.134766,55.5273438 C103.236328,55.5273438 103.787109,56.2675781 103.787109,57.7480469 C103.787109,59.2441406 103.240234,59.9921875 102.146484,59.9921875 Z M108.164062,61 L108.164062,57.6132812 C108.164062,57.0390625 108.334961,56.5722656 108.676758,56.2128906 C109.018555,55.8535156 109.464844,55.6738281 110.015625,55.6738281 C110.226562,55.6738281 110.429688,55.6972656 110.625,55.7441406 L110.625,55.7441406 L110.759766,54.4609375 C110.580078,54.421875 110.351562,54.4023438 110.074219,54.4023438 C109.675781,54.4023438 109.303711,54.515625 108.958008,54.7421875 C108.612305,54.96875 108.332031,55.2753906 108.117188,55.6621094 L108.117188,55.6621094 L108.046875,55.6621094 L107.865234,54.5195312 L106.787109,54.5195312 L106.787109,61 L108.164062,61 Z M114.791016,61.1171875 C115.232422,61.1171875 115.625,61.0839844 115.96875,61.0175781 C116.3125,60.9511719 116.652344,60.8378906 116.988281,60.6777344 L116.988281,60.6777344 L116.988281,59.5585938 C116.609375,59.7265625 116.254883,59.8466797 115.924805,59.9189453 C115.594727,59.9912109 115.238281,60.0273438 114.855469,60.0273438 C114.273438,60.0273438 113.822266,59.8583984 113.501953,59.5205078 C113.181641,59.1826172 113.011719,58.6992188 112.992188,58.0703125 L112.992188,58.0703125 L117.310547,58.0703125 L117.310547,57.3261719 C117.310547,56.4160156 117.0625,55.7011719 116.566406,55.1816406 C116.070312,54.6621094 115.394531,54.4023438 114.539062,54.4023438 C113.617188,54.4023438 112.892578,54.7050781 112.365234,55.3105469 C111.837891,55.9160156 111.574219,56.7480469 111.574219,57.8066406 C111.574219,58.8378906 111.858398,59.6474609 112.426758,60.2353516 C112.995117,60.8232422 113.783203,61.1171875 114.791016,61.1171875 Z M115.957031,57.0742188 L113.015625,57.0742188 C113.066406,56.5429688 113.223633,56.1386719 113.487305,55.8613281 C113.750977,55.5839844 114.101562,55.4453125 114.539062,55.4453125 C114.976562,55.4453125 115.320312,55.5830078 115.570312,55.8583984 C115.820312,56.1337891 115.949219,56.5390625 115.957031,57.0742188 L115.957031,57.0742188 Z M89.6542969,73 L89.6542969,67.5625 L91.2363281,67.5625 L91.2363281,66.5195312 L89.6542969,66.5195312 L89.6542969,66.0976562 C89.6542969,65.7109375 89.7255859,65.4208984 89.8681641,65.2275391 C90.0107422,65.0341797 90.2382812,64.9375 90.5507812,64.9375 C90.859375,64.9375 91.1835938,64.9921875 91.5234375,65.1015625 L91.5234375,65.1015625 L91.8867188,64.0585938 C91.4179688,63.8984375 90.9414062,63.8183594 90.4570312,63.8183594 C89.71875,63.8183594 89.1699219,64.0029297 88.8105469,64.3720703 C88.4511719,64.7412109 88.2714844,65.3085938 88.2714844,66.0742188 L88.2714844,66.0742188 L88.2714844,66.4960938 L87.2050781,66.9179688 L87.2050781,67.5625 L88.2714844,67.5625 L88.2714844,73 L89.6542969,73 Z M95.1679688,73.1171875 C95.609375,73.1171875 96.0019531,73.0839844 96.3457031,73.0175781 C96.6894531,72.9511719 97.0292969,72.8378906 97.3652344,72.6777344 L97.3652344,72.6777344 L97.3652344,71.5585938 C96.9863281,71.7265625 96.6318359,71.8466797 96.3017578,71.9189453 C95.9716797,71.9912109 95.6152344,72.0273438 95.2324219,72.0273438 C94.6503906,72.0273438 94.1992188,71.8583984 93.8789062,71.5205078 C93.5585938,71.1826172 93.3886719,70.6992188 93.3691406,70.0703125 L93.3691406,70.0703125 L97.6875,70.0703125 L97.6875,69.3261719 C97.6875,68.4160156 97.4394531,67.7011719 96.9433594,67.1816406 C96.4472656,66.6621094 95.7714844,66.4023438 94.9160156,66.4023438 C93.9941406,66.4023438 93.2695312,66.7050781 92.7421875,67.3105469 C92.2148438,67.9160156 91.9511719,68.7480469 91.9511719,69.8066406 C91.9511719,70.8378906 92.2353516,71.6474609 92.8037109,72.2353516 C93.3720703,72.8232422 94.1601562,73.1171875 95.1679688,73.1171875 Z M96.3339844,69.0742188 L93.3925781,69.0742188 C93.4433594,68.5429688 93.6005859,68.1386719 93.8642578,67.8613281 C94.1279297,67.5839844 94.4785156,67.4453125 94.9160156,67.4453125 C95.3535156,67.4453125 95.6972656,67.5830078 95.9472656,67.8583984 C96.1972656,68.1337891 96.3261719,68.5390625 96.3339844,69.0742188 L96.3339844,69.0742188 Z M100.822266,73.1171875 C101.318359,73.1171875 101.724609,73.0458984 102.041016,72.9033203 C102.357422,72.7607422 102.671875,72.4921875 102.984375,72.0976562 L102.984375,72.0976562 L103.03125,72.0976562 L103.306641,73 L104.291016,73 L104.291016,68.6347656 C104.291016,67.8652344 104.081055,67.3007812 103.661133,66.9414062 C103.241211,66.5820312 102.619141,66.4023438 101.794922,66.4023438 C101.423828,66.4023438 101.029297,66.4501953 100.611328,66.5458984 C100.193359,66.6416016 99.8085938,66.78125 99.4570312,66.9648438 L99.4570312,66.9648438 L99.9023438,67.9492188 C100.183594,67.8164062 100.476562,67.7011719 100.78125,67.6035156 C101.085938,67.5058594 101.404297,67.4570312 101.736328,67.4570312 C102.142578,67.4570312 102.442383,67.5595703 102.635742,67.7646484 C102.829102,67.9697266 102.925781,68.2792969 102.925781,68.6933594 L102.925781,68.6933594 L102.925781,69.0390625 L101.806641,69.0742188 C100.791016,69.1054688 100.035156,69.2910156 99.5390625,69.6308594 C99.0429688,69.9707031 98.7949219,70.4746094 98.7949219,71.1425781 C98.7949219,71.7714844 98.9736328,72.2578125 99.3310547,72.6015625 C99.6884766,72.9453125 100.185547,73.1171875 100.822266,73.1171875 Z M101.255859,72.0625 C100.912109,72.0625 100.654297,71.9833984 100.482422,71.8251953 C100.310547,71.6669922 100.224609,71.4433594 100.224609,71.1542969 C100.224609,70.7558594 100.37207,70.4599609 100.666992,70.2666016 C100.961914,70.0732422 101.433594,69.9648438 102.082031,69.9414062 L102.082031,69.9414062 L102.914062,69.90625 L102.914062,70.46875 C102.914062,70.9726562 102.762695,71.3642578 102.459961,71.6435547 C102.157227,71.9228516 101.755859,72.0625 101.255859,72.0625 Z M108.298828,73.1171875 C108.556641,73.1171875 108.805664,73.0947266 109.045898,73.0498047 C109.286133,73.0048828 109.482422,72.9492188 109.634766,72.8828125 L109.634766,72.8828125 L109.634766,71.8457031 C109.298828,71.9511719 108.962891,72.0039062 108.626953,72.0039062 C108.357422,72.0039062 108.139648,71.9248047 107.973633,71.7666016 C107.807617,71.6083984 107.724609,71.3632812 107.724609,71.03125 L107.724609,71.03125 L107.724609,67.5625 L109.570312,67.5625 L109.570312,66.5195312 L107.724609,66.5195312 L107.724609,65.078125 L106.875,65.078125 L106.40625,66.4492188 L105.457031,66.953125 L105.457031,67.5625 L106.341797,67.5625 L106.341797,71.0546875 C106.341797,72.4296875 106.994141,73.1171875 108.298828,73.1171875 Z M113.208984,73.1171875 C113.662109,73.1171875 114.06543,73.03125 114.418945,72.859375 C114.772461,72.6875 115.044922,72.4511719 115.236328,72.1503906 L115.236328,72.1503906 L115.306641,72.1503906 L115.5,73 L116.583984,73 L116.583984,66.5195312 L115.201172,66.5195312 L115.201172,69.7480469 C115.201172,70.5605469 115.06543,71.1396484 114.793945,71.4853516 C114.522461,71.8310547 114.097656,72.0039062 113.519531,72.0039062 C113.085938,72.0039062 112.767578,71.8798828 112.564453,71.6318359 C112.361328,71.3837891 112.259766,71.0117188 112.259766,70.515625 L112.259766,70.515625 L112.259766,66.5195312 L110.871094,66.5195312 L110.871094,70.7558594 C110.871094,71.5488281 111.064453,72.140625 111.451172,72.53125 C111.837891,72.921875 112.423828,73.1171875 113.208984,73.1171875 Z M119.923828,73 L119.923828,69.6132812 C119.923828,69.0390625 120.094727,68.5722656 120.436523,68.2128906 C120.77832,67.8535156 121.224609,67.6738281 121.775391,67.6738281 C121.986328,67.6738281 122.189453,67.6972656 122.384766,67.7441406 L122.384766,67.7441406 L122.519531,66.4609375 C122.339844,66.421875 122.111328,66.4023438 121.833984,66.4023438 C121.435547,66.4023438 121.063477,66.515625 120.717773,66.7421875 C120.37207,66.96875 120.091797,67.2753906 119.876953,67.6621094 L119.876953,67.6621094 L119.806641,67.6621094 L119.625,66.5195312 L118.546875,66.5195312 L118.546875,73 L119.923828,73 Z M126.550781,73.1171875 C126.992188,73.1171875 127.384766,73.0839844 127.728516,73.0175781 C128.072266,72.9511719 128.412109,72.8378906 128.748047,72.6777344 L128.748047,72.6777344 L128.748047,71.5585938 C128.369141,71.7265625 128.014648,71.8466797 127.68457,71.9189453 C127.354492,71.9912109 126.998047,72.0273438 126.615234,72.0273438 C126.033203,72.0273438 125.582031,71.8583984 125.261719,71.5205078 C124.941406,71.1826172 124.771484,70.6992188 124.751953,70.0703125 L124.751953,70.0703125 L129.070312,70.0703125 L129.070312,69.3261719 C129.070312,68.4160156 128.822266,67.7011719 128.326172,67.1816406 C127.830078,66.6621094 127.154297,66.4023438 126.298828,66.4023438 C125.376953,66.4023438 124.652344,66.7050781 124.125,67.3105469 C123.597656,67.9160156 123.333984,68.7480469 123.333984,69.8066406 C123.333984,70.8378906 123.618164,71.6474609 124.186523,72.2353516 C124.754883,72.8232422 125.542969,73.1171875 126.550781,73.1171875 Z M127.716797,69.0742188 L124.775391,69.0742188 C124.826172,68.5429688 124.983398,68.1386719 125.24707,67.8613281 C125.510742,67.5839844 125.861328,67.4453125 126.298828,67.4453125 C126.736328,67.4453125 127.080078,67.5830078 127.330078,67.8583984 C127.580078,68.1337891 127.708984,68.5390625 127.716797,69.0742188 L127.716797,69.0742188 Z M132.316406,73.1171875 C133.175781,73.1171875 133.835938,72.9482422 134.296875,72.6103516 C134.757812,72.2724609 134.988281,71.7871094 134.988281,71.1542969 C134.988281,70.8417969 134.929688,70.5732422 134.8125,70.3486328 C134.695312,70.1240234 134.515625,69.9257812 134.273438,69.7539062 C134.03125,69.5820312 133.642578,69.3925781 133.107422,69.1855469 C132.470703,68.9394531 132.057617,68.7460938 131.868164,68.6054688 C131.678711,68.4648438 131.583984,68.2929688 131.583984,68.0898438 C131.583984,67.6757812 131.947266,67.46875 132.673828,67.46875 C133.150391,67.46875 133.738281,67.6132812 134.4375,67.9023438 L134.4375,67.9023438 L134.882812,66.8652344 C134.203125,66.5566406 133.482422,66.4023438 132.720703,66.4023438 C131.951172,66.4023438 131.342773,66.5556641 130.895508,66.8623047 C130.448242,67.1689453 130.224609,67.5996094 130.224609,68.1542969 C130.224609,68.6152344 130.356445,68.9902344 130.620117,69.2792969 C130.883789,69.5683594 131.388672,69.8574219 132.134766,70.1464844 C132.517578,70.2949219 132.816406,70.4277344 133.03125,70.5449219 C133.246094,70.6621094 133.400391,70.7753906 133.494141,70.8847656 C133.587891,70.9941406 133.634766,71.1308594 133.634766,71.2949219 C133.634766,71.8066406 133.210938,72.0625 132.363281,72.0625 C131.707031,72.0625 130.998047,71.8867188 130.236328,71.5351562 L130.236328,71.5351562 L130.236328,72.7246094 C130.759766,72.9863281 131.453125,73.1171875 132.316406,73.1171875 Z M142.259766,73.1171875 C143.228516,73.1171875 143.984375,72.8203125 144.527344,72.2265625 C145.070312,71.6328125 145.341797,70.8066406 145.341797,69.7480469 C145.341797,68.7246094 145.068359,67.9111328 144.521484,67.3076172 C143.974609,66.7041016 143.232422,66.4023438 142.294922,66.4023438 C141.314453,66.4023438 140.554688,66.6972656 140.015625,67.2871094 C139.476562,67.8769531 139.207031,68.6972656 139.207031,69.7480469 C139.207031,70.4238281 139.332031,71.0175781 139.582031,71.5292969 C139.832031,72.0410156 140.189453,72.4335938 140.654297,72.7070312 C141.119141,72.9804688 141.654297,73.1171875 142.259766,73.1171875 Z M142.283203,71.9921875 C141.177734,71.9921875 140.625,71.2441406 140.625,69.7480469 C140.625,69.0332031 140.754883,68.484375 141.014648,68.1015625 C141.274414,67.71875 141.693359,67.5273438 142.271484,67.5273438 C143.373047,67.5273438 143.923828,68.2675781 143.923828,69.7480469 C143.923828,71.2441406 143.376953,71.9921875 142.283203,71.9921875 Z M148.300781,73 L148.300781,69.6132812 C148.300781,69.0390625 148.47168,68.5722656 148.813477,68.2128906 C149.155273,67.8535156 149.601562,67.6738281 150.152344,67.6738281 C150.363281,67.6738281 150.566406,67.6972656 150.761719,67.7441406 L150.761719,67.7441406 L150.896484,66.4609375 C150.716797,66.421875 150.488281,66.4023438 150.210938,66.4023438 C149.8125,66.4023438 149.44043,66.515625 149.094727,66.7421875 C148.749023,66.96875 148.46875,67.2753906 148.253906,67.6621094 L148.253906,67.6621094 L148.183594,67.6621094 L148.001953,66.5195312 L146.923828,66.5195312 L146.923828,73 L148.300781,73 Z M88.6816406,77.5585938 C88.9238281,77.5585938 89.1123047,77.4912109 89.2470703,77.3564453 C89.3818359,77.2216797 89.4492188,77.0371094 89.4492188,76.8027344 C89.4492188,76.5566406 89.3818359,76.3671875 89.2470703,76.234375 C89.1123047,76.1015625 88.9238281,76.0351562 88.6816406,76.0351562 C88.4316406,76.0351562 88.2392578,76.1015625 88.1044922,76.234375 C87.9697266,76.3671875 87.9023438,76.5566406 87.9023438,76.8027344 C87.9023438,77.0371094 87.9697266,77.2216797 88.1044922,77.3564453 C88.2392578,77.4912109 88.4316406,77.5585938 88.6816406,77.5585938 Z M89.3613281,85 L89.3613281,78.5195312 L87.984375,78.5195312 L87.984375,85 L89.3613281,85 Z M92.7070312,85 L92.7070312,81.7714844 C92.7070312,80.9628906 92.8417969,80.3867188 93.1113281,80.0429688 C93.3808594,79.6992188 93.8066406,79.5273438 94.3886719,79.5273438 C94.8261719,79.5273438 95.1455078,79.6503906 95.3466797,79.8964844 C95.5478516,80.1425781 95.6484375,80.515625 95.6484375,81.015625 L95.6484375,81.015625 L95.6484375,85 L97.03125,85 L97.03125,80.7753906 C97.03125,79.1933594 96.2539062,78.4023438 94.6992188,78.4023438 C94.2617188,78.4023438 93.8632812,78.4863281 93.5039062,78.6542969 C93.1445312,78.8222656 92.8671875,79.0605469 92.671875,79.3691406 L92.671875,79.3691406 L92.6015625,79.3691406 L92.4082031,78.5195312 L91.3300781,78.5195312 L91.3300781,85 L92.7070312,85 Z M100.617188,85 L100.617188,79.5625 L102.199219,79.5625 L102.199219,78.5195312 L100.617188,78.5195312 L100.617188,78.0976562 C100.617188,77.7109375 100.688477,77.4208984 100.831055,77.2275391 C100.973633,77.0341797 101.201172,76.9375 101.513672,76.9375 C101.822266,76.9375 102.146484,76.9921875 102.486328,77.1015625 L102.486328,77.1015625 L102.849609,76.0585938 C102.380859,75.8984375 101.904297,75.8183594 101.419922,75.8183594 C100.681641,75.8183594 100.132812,76.0029297 99.7734375,76.3720703 C99.4140625,76.7412109 99.234375,77.3085938 99.234375,78.0742188 L99.234375,78.0742188 L99.234375,78.4960938 L98.1679688,78.9179688 L98.1679688,79.5625 L99.234375,79.5625 L99.234375,85 L100.617188,85 Z M105.966797,85.1171875 C106.935547,85.1171875 107.691406,84.8203125 108.234375,84.2265625 C108.777344,83.6328125 109.048828,82.8066406 109.048828,81.7480469 C109.048828,80.7246094 108.775391,79.9111328 108.228516,79.3076172 C107.681641,78.7041016 106.939453,78.4023438 106.001953,78.4023438 C105.021484,78.4023438 104.261719,78.6972656 103.722656,79.2871094 C103.183594,79.8769531 102.914062,80.6972656 102.914062,81.7480469 C102.914062,82.4238281 103.039062,83.0175781 103.289062,83.5292969 C103.539062,84.0410156 103.896484,84.4335938 104.361328,84.7070312 C104.826172,84.9804688 105.361328,85.1171875 105.966797,85.1171875 Z M105.990234,83.9921875 C104.884766,83.9921875 104.332031,83.2441406 104.332031,81.7480469 C104.332031,81.0332031 104.461914,80.484375 104.72168,80.1015625 C104.981445,79.71875 105.400391,79.5273438 105.978516,79.5273438 C107.080078,79.5273438 107.630859,80.2675781 107.630859,81.7480469 C107.630859,83.2441406 107.083984,83.9921875 105.990234,83.9921875 Z M112.007812,85 L112.007812,81.6132812 C112.007812,81.0390625 112.178711,80.5722656 112.520508,80.2128906 C112.862305,79.8535156 113.308594,79.6738281 113.859375,79.6738281 C114.070312,79.6738281 114.273438,79.6972656 114.46875,79.7441406 L114.46875,79.7441406 L114.603516,78.4609375 C114.423828,78.421875 114.195312,78.4023438 113.917969,78.4023438 C113.519531,78.4023438 113.147461,78.515625 112.801758,78.7421875 C112.456055,78.96875 112.175781,79.2753906 111.960938,79.6621094 L111.960938,79.6621094 L111.890625,79.6621094 L111.708984,78.5195312 L110.630859,78.5195312 L110.630859,85 L112.007812,85 Z M117.181641,85 L117.181641,81.7714844 C117.181641,80.9667969 117.305664,80.3916016 117.553711,80.0458984 C117.801758,79.7001953 118.191406,79.5273438 118.722656,79.5273438 C119.121094,79.5273438 119.414062,79.6494141 119.601562,79.8935547 C119.789062,80.1376953 119.882812,80.5078125 119.882812,81.0039062 L119.882812,81.0039062 L119.882812,85 L121.265625,85 L121.265625,81.5664062 C121.265625,80.875 121.389648,80.3623047 121.637695,80.0283203 C121.885742,79.6943359 122.277344,79.5273438 122.8125,79.5273438 C123.210938,79.5273438 123.504883,79.6494141 123.694336,79.8935547 C123.883789,80.1376953 123.978516,80.5078125 123.978516,81.0039062 L123.978516,81.0039062 L123.978516,85 L125.355469,85 L125.355469,80.7753906 C125.355469,79.9746094 125.178711,79.3789062 124.825195,78.9882812 C124.47168,78.5976562 123.908203,78.4023438 123.134766,78.4023438 C122.685547,78.4023438 122.287109,78.4921875 121.939453,78.671875 C121.591797,78.8515625 121.322266,79.1015625 121.130859,79.421875 L121.130859,79.421875 L121.037109,79.421875 C120.712891,78.7421875 120.052734,78.4023438 119.056641,78.4023438 C118.646484,78.4023438 118.270508,78.4863281 117.928711,78.6542969 C117.586914,78.8222656 117.326172,79.0605469 117.146484,79.3691406 L117.146484,79.3691406 L117.076172,79.3691406 L116.882812,78.5195312 L115.804688,78.5195312 L115.804688,85 L117.181641,85 Z M128.847656,85.1171875 C129.34375,85.1171875 129.75,85.0458984 130.066406,84.9033203 C130.382812,84.7607422 130.697266,84.4921875 131.009766,84.0976562 L131.009766,84.0976562 L131.056641,84.0976562 L131.332031,85 L132.316406,85 L132.316406,80.6347656 C132.316406,79.8652344 132.106445,79.3007812 131.686523,78.9414062 C131.266602,78.5820312 130.644531,78.4023438 129.820312,78.4023438 C129.449219,78.4023438 129.054688,78.4501953 128.636719,78.5458984 C128.21875,78.6416016 127.833984,78.78125 127.482422,78.9648438 L127.482422,78.9648438 L127.927734,79.9492188 C128.208984,79.8164062 128.501953,79.7011719 128.806641,79.6035156 C129.111328,79.5058594 129.429688,79.4570312 129.761719,79.4570312 C130.167969,79.4570312 130.467773,79.5595703 130.661133,79.7646484 C130.854492,79.9697266 130.951172,80.2792969 130.951172,80.6933594 L130.951172,80.6933594 L130.951172,81.0390625 L129.832031,81.0742188 C128.816406,81.1054688 128.060547,81.2910156 127.564453,81.6308594 C127.068359,81.9707031 126.820312,82.4746094 126.820312,83.1425781 C126.820312,83.7714844 126.999023,84.2578125 127.356445,84.6015625 C127.713867,84.9453125 128.210938,85.1171875 128.847656,85.1171875 Z M129.28125,84.0625 C128.9375,84.0625 128.679688,83.9833984 128.507812,83.8251953 C128.335938,83.6669922 128.25,83.4433594 128.25,83.1542969 C128.25,82.7558594 128.397461,82.4599609 128.692383,82.2666016 C128.987305,82.0732422 129.458984,81.9648438 130.107422,81.9414062 L130.107422,81.9414062 L130.939453,81.90625 L130.939453,82.46875 C130.939453,82.9726562 130.788086,83.3642578 130.485352,83.6435547 C130.182617,83.9228516 129.78125,84.0625 129.28125,84.0625 Z M136.324219,85.1171875 C136.582031,85.1171875 136.831055,85.0947266 137.071289,85.0498047 C137.311523,85.0048828 137.507812,84.9492188 137.660156,84.8828125 L137.660156,84.8828125 L137.660156,83.8457031 C137.324219,83.9511719 136.988281,84.0039062 136.652344,84.0039062 C136.382812,84.0039062 136.165039,83.9248047 135.999023,83.7666016 C135.833008,83.6083984 135.75,83.3632812 135.75,83.03125 L135.75,83.03125 L135.75,79.5625 L137.595703,79.5625 L137.595703,78.5195312 L135.75,78.5195312 L135.75,77.078125 L134.900391,77.078125 L134.431641,78.4492188 L133.482422,78.953125 L133.482422,79.5625 L134.367188,79.5625 L134.367188,83.0546875 C134.367188,84.4296875 135.019531,85.1171875 136.324219,85.1171875 Z M139.652344,77.5585938 C139.894531,77.5585938 140.083008,77.4912109 140.217773,77.3564453 C140.352539,77.2216797 140.419922,77.0371094 140.419922,76.8027344 C140.419922,76.5566406 140.352539,76.3671875 140.217773,76.234375 C140.083008,76.1015625 139.894531,76.0351562 139.652344,76.0351562 C139.402344,76.0351562 139.209961,76.1015625 139.075195,76.234375 C138.94043,76.3671875 138.873047,76.5566406 138.873047,76.8027344 C138.873047,77.0371094 138.94043,77.2216797 139.075195,77.3564453 C139.209961,77.4912109 139.402344,77.5585938 139.652344,77.5585938 Z M140.332031,85 L140.332031,78.5195312 L138.955078,78.5195312 L138.955078,85 L140.332031,85 Z M144.966797,85.1171875 C145.935547,85.1171875 146.691406,84.8203125 147.234375,84.2265625 C147.777344,83.6328125 148.048828,82.8066406 148.048828,81.7480469 C148.048828,80.7246094 147.775391,79.9111328 147.228516,79.3076172 C146.681641,78.7041016 145.939453,78.4023438 145.001953,78.4023438 C144.021484,78.4023438 143.261719,78.6972656 142.722656,79.2871094 C142.183594,79.8769531 141.914062,80.6972656 141.914062,81.7480469 C141.914062,82.4238281 142.039062,83.0175781 142.289062,83.5292969 C142.539062,84.0410156 142.896484,84.4335938 143.361328,84.7070312 C143.826172,84.9804688 144.361328,85.1171875 144.966797,85.1171875 Z M144.990234,83.9921875 C143.884766,83.9921875 143.332031,83.2441406 143.332031,81.7480469 C143.332031,81.0332031 143.461914,80.484375 143.72168,80.1015625 C143.981445,79.71875 144.400391,79.5273438 144.978516,79.5273438 C146.080078,79.5273438 146.630859,80.2675781 146.630859,81.7480469 C146.630859,83.2441406 146.083984,83.9921875 144.990234,83.9921875 Z M151.007812,85 L151.007812,81.7714844 C151.007812,80.9628906 151.142578,80.3867188 151.412109,80.0429688 C151.681641,79.6992188 152.107422,79.5273438 152.689453,79.5273438 C153.126953,79.5273438 153.446289,79.6503906 153.647461,79.8964844 C153.848633,80.1425781 153.949219,80.515625 153.949219,81.015625 L153.949219,81.015625 L153.949219,85 L155.332031,85 L155.332031,80.7753906 C155.332031,79.1933594 154.554688,78.4023438 153,78.4023438 C152.5625,78.4023438 152.164062,78.4863281 151.804688,78.6542969 C151.445312,78.8222656 151.167969,79.0605469 150.972656,79.3691406 L150.972656,79.3691406 L150.902344,79.3691406 L150.708984,78.5195312 L149.630859,78.5195312 L149.630859,85 L151.007812,85 Z M157.910156,85.1699219 C158.191406,85.1699219 158.407227,85.0888672 158.557617,84.9267578 C158.708008,84.7646484 158.783203,84.5449219 158.783203,84.2675781 C158.783203,83.9941406 158.708984,83.7783203 158.560547,83.6201172 C158.412109,83.4619141 158.195312,83.3828125 157.910156,83.3828125 C157.628906,83.3828125 157.414062,83.4589844 157.265625,83.6113281 C157.117188,83.7636719 157.042969,83.9824219 157.042969,84.2675781 C157.042969,84.5488281 157.117188,84.7695312 157.265625,84.9296875 C157.414062,85.0898438 157.628906,85.1699219 157.910156,85.1699219 Z" id="Providemorefeaturesorinformation." fill="#FFFFFF" fill-rule="nonzero"></path>
                </g>
            </g>
        </g>
    </g>
</svg>