<?xml version="1.0" encoding="UTF-8"?>
<svg width="163px" height="98px" viewBox="0 0 163 98" version="1.1" xmlns="http://www.w3.org/2000/svg" xmlns:xlink="http://www.w3.org/1999/xlink">
    <!-- Generator: Sketch 62 (91390) - https://sketch.com -->
    <title>Arrange</title>
    <desc>Created with Sketch.</desc>
    <defs>
        <radialGradient cx="27.2018999%" cy="50.0000088%" fx="27.2018999%" fy="50.0000088%" r="50.0190377%" gradientTransform="translate(0.272019,0.500000),scale(0.595107,1.000000),rotate(91.580851),translate(-0.272019,-0.500000)" id="radialGradient-1">
            <stop stop-color="#80C3F3" offset="0%"></stop>
            <stop stop-color="#4A90E2" offset="100%"></stop>
        </radialGradient>
        <path d="M2.09179688,16 L3.27880859,12.6298828 L7.91894531,12.6298828 L9.13085938,16 L11.2392578,16 L6.69873047,3.81445312 L4.54052734,3.81445312 L0,16 L2.09179688,16 Z M7.39599609,10.9199219 L3.85986328,10.9199219 L4.95556641,7.75732422 C5.24332682,6.94938151 5.46191406,6.20507812 5.61132812,5.52441406 C5.66666667,5.74576823 5.76765951,6.09440104 5.91430664,6.5703125 C6.06095378,7.04622396 6.17578125,7.39485677 6.25878906,7.61621094 L6.25878906,7.61621094 L7.39599609,10.9199219 Z M14.5844727,16 L14.5844727,11.2021484 C14.5844727,10.3886719 14.8265788,9.7273763 15.310791,9.21826172 C15.7950033,8.70914714 16.4272461,8.45458984 17.2075195,8.45458984 C17.5063477,8.45458984 17.7941081,8.48779297 18.0708008,8.55419922 L18.0708008,8.55419922 L18.2617188,6.73632812 C18.0071615,6.68098958 17.683431,6.65332031 17.2905273,6.65332031 C16.7260742,6.65332031 16.1989746,6.81380208 15.7092285,7.13476562 C15.2194824,7.45572917 14.8224284,7.89013672 14.5180664,8.43798828 L14.5180664,8.43798828 L14.418457,8.43798828 L14.1611328,6.81933594 L12.6337891,6.81933594 L12.6337891,16 L14.5844727,16 Z M21.9140625,16 L21.9140625,11.2021484 C21.9140625,10.3886719 22.1561686,9.7273763 22.6403809,9.21826172 C23.1245931,8.70914714 23.7568359,8.45458984 24.5371094,8.45458984 C24.8359375,8.45458984 25.1236979,8.48779297 25.4003906,8.55419922 L25.4003906,8.55419922 L25.5913086,6.73632812 C25.3367513,6.68098958 25.0130208,6.65332031 24.6201172,6.65332031 C24.0556641,6.65332031 23.5285645,6.81380208 23.0388184,7.13476562 C22.5490723,7.45572917 22.1520182,7.89013672 21.8476562,8.43798828 L21.8476562,8.43798828 L21.7480469,8.43798828 L21.4907227,6.81933594 L19.9633789,6.81933594 L19.9633789,16 L21.9140625,16 Z M29.5175781,16.1660156 C30.2203776,16.1660156 30.7958984,16.0650228 31.2441406,15.8630371 C31.6923828,15.6610514 32.1378581,15.280599 32.5805664,14.7216797 L32.5805664,14.7216797 L32.6469727,14.7216797 L33.0371094,16 L34.4316406,16 L34.4316406,9.81591797 C34.4316406,8.7257487 34.134196,7.92610677 33.5393066,7.41699219 C32.9444173,6.9078776 32.063151,6.65332031 30.8955078,6.65332031 C30.3697917,6.65332031 29.8108724,6.72111003 29.21875,6.85668945 C28.6266276,6.99226888 28.081543,7.19010417 27.5834961,7.45019531 L27.5834961,7.45019531 L28.2143555,8.84472656 C28.612793,8.65657552 29.027832,8.49332682 29.4594727,8.35498047 C29.8911133,8.21663411 30.3421224,8.14746094 30.8125,8.14746094 C31.3880208,8.14746094 31.8127441,8.29272461 32.0866699,8.58325195 C32.3605957,8.8737793 32.4975586,9.31233724 32.4975586,9.89892578 L32.4975586,9.89892578 L32.4975586,10.3886719 L30.9121094,10.4384766 C29.4733073,10.4827474 28.4025065,10.7456055 27.699707,11.2270508 C26.9969076,11.7084961 26.6455078,12.4223633 26.6455078,13.3686523 C26.6455078,14.2596029 26.8986816,14.9485677 27.4050293,15.4355469 C27.911377,15.922526 28.6155599,16.1660156 29.5175781,16.1660156 Z M30.1318359,14.671875 C29.6448568,14.671875 29.2796224,14.5598145 29.0361328,14.3356934 C28.7926432,14.1115723 28.6708984,13.7947591 28.6708984,13.3852539 C28.6708984,12.8208008 28.8798014,12.4016113 29.2976074,12.1276855 C29.7154134,11.8537598 30.3836263,11.7001953 31.3022461,11.6669922 L31.3022461,11.6669922 L32.480957,11.6171875 L32.480957,12.4140625 C32.480957,13.1279297 32.2665202,13.6826986 31.8376465,14.0783691 C31.4087728,14.4740397 30.8401693,14.671875 30.1318359,14.671875 Z M39.1049805,16 L39.1049805,11.4262695 C39.1049805,10.2807617 39.2958984,9.46451823 39.6777344,8.97753906 C40.0595703,8.4905599 40.6627604,8.24707031 41.4873047,8.24707031 C42.1070964,8.24707031 42.5594889,8.42138672 42.8444824,8.77001953 C43.1294759,9.11865234 43.2719727,9.64713542 43.2719727,10.3554688 L43.2719727,10.3554688 L43.2719727,16 L45.230957,16 L45.230957,10.0151367 C45.230957,7.77392578 44.1297201,6.65332031 41.9272461,6.65332031 C41.3074544,6.65332031 40.7430013,6.77229818 40.2338867,7.01025391 C39.7247721,7.24820964 39.3318685,7.58577474 39.0551758,8.02294922 L39.0551758,8.02294922 L38.9555664,8.02294922 L38.6816406,6.81933594 L37.1542969,6.81933594 L37.1542969,16 L39.1049805,16 Z M50.5932617,20.0839844 C52.214681,20.0839844 53.4542643,19.8017578 54.3120117,19.2373047 C55.1697591,18.6728516 55.5986328,17.8704427 55.5986328,16.8300781 C55.5986328,16.0166016 55.3357747,15.394043 54.8100586,14.9624023 C54.2843424,14.5307617 53.5151367,14.3149414 52.5024414,14.3149414 L52.5024414,14.3149414 L50.9003906,14.3149414 C50.3746745,14.3149414 50.0135905,14.2623698 49.8171387,14.1572266 C49.6206868,14.0520833 49.5224609,13.8943685 49.5224609,13.684082 C49.5224609,13.3354492 49.7327474,13.0310872 50.1533203,12.7709961 C50.391276,12.8152669 50.656901,12.8374023 50.9501953,12.8374023 C52.0957031,12.8374023 52.9949544,12.5662435 53.6479492,12.0239258 C54.300944,11.4816081 54.6274414,10.7373047 54.6274414,9.79101562 C54.6274414,9.47558594 54.5804036,9.17675781 54.4863281,8.89453125 C54.3922526,8.61230469 54.2732747,8.37434896 54.1293945,8.18066406 L54.1293945,8.18066406 L55.6982422,7.89013672 L55.6982422,6.81933594 L52.519043,6.81933594 C52.3751628,6.78059896 52.1607259,6.74324544 51.8757324,6.70727539 C51.5907389,6.67130534 51.3181966,6.65332031 51.0581055,6.65332031 C49.8959961,6.65332031 49.0008952,6.92724609 48.3728027,7.47509766 C47.7447103,8.02294922 47.4306641,8.79492188 47.4306641,9.79101562 C47.4306641,10.4108073 47.5786947,10.9517415 47.8747559,11.4138184 C48.1708171,11.8758952 48.5568034,12.2093099 49.0327148,12.4140625 C48.6508789,12.6464844 48.3631185,12.8816732 48.1694336,13.1196289 C47.9757487,13.3575846 47.8789062,13.648112 47.8789062,13.9912109 C47.8789062,14.2623698 47.9632975,14.5210775 48.1320801,14.767334 C48.3008626,15.0135905 48.5152995,15.1920573 48.7753906,15.3027344 C48.1334635,15.4521484 47.6340332,15.7191569 47.2770996,16.1037598 C46.920166,16.4883626 46.7416992,16.9628906 46.7416992,17.5273438 C46.7416992,18.3463542 47.0709635,18.9772135 47.7294922,19.4199219 C48.3880208,19.8626302 49.3426107,20.0839844 50.5932617,20.0839844 Z M51.0415039,11.5839844 C50.4881185,11.5839844 50.0633952,11.4290365 49.767334,11.1191406 C49.4712728,10.8092448 49.3232422,10.3665365 49.3232422,9.79101562 C49.3232422,9.17675781 49.4685059,8.70914714 49.7590332,8.38818359 C50.0495605,8.06722005 50.4770508,7.90673828 51.0415039,7.90673828 C51.6114909,7.90673828 52.0362142,8.06860352 52.3156738,8.39233398 C52.5951335,8.71606445 52.7348633,9.17675781 52.7348633,9.77441406 C52.7348633,10.9807943 52.1704102,11.5839844 51.0415039,11.5839844 Z M50.6513672,18.7392578 C49.9651693,18.7392578 49.4325358,18.6258138 49.0534668,18.3989258 C48.6743978,18.1720378 48.4848633,17.8483073 48.4848633,17.4277344 C48.4848633,16.9794922 48.6494954,16.6239421 48.9787598,16.361084 C49.3080241,16.0982259 49.7521159,15.9667969 50.3110352,15.9667969 L50.3110352,15.9667969 L51.7885742,15.9667969 C52.5633138,15.9667969 53.0931803,16.0511882 53.3781738,16.2199707 C53.6631673,16.3887533 53.8056641,16.6723633 53.8056641,17.0708008 C53.8056641,17.5743815 53.5455729,17.9783529 53.0253906,18.2827148 C52.5052083,18.5870768 51.7138672,18.7392578 50.6513672,18.7392578 Z M61.4091797,16.1660156 C62.0345052,16.1660156 62.5906576,16.1189779 63.0776367,16.0249023 C63.5646159,15.9308268 64.0460612,15.7703451 64.5219727,15.543457 L64.5219727,15.543457 L64.5219727,13.9580078 C63.9851888,14.1959635 63.4829915,14.3661296 63.0153809,14.4685059 C62.5477702,14.5708822 62.042806,14.6220703 61.5004883,14.6220703 C60.675944,14.6220703 60.0367839,14.3827311 59.5830078,13.9040527 C59.1292318,13.4253743 58.8885091,12.7405599 58.8608398,11.8496094 L58.8608398,11.8496094 L64.9785156,11.8496094 L64.9785156,10.7954102 C64.9785156,9.50602214 64.6271159,8.49332682 63.9243164,7.75732422 C63.2215169,7.02132161 62.2641602,6.65332031 61.0522461,6.65332031 C59.7462565,6.65332031 58.7197266,7.08219401 57.9726562,7.93994141 C57.2255859,8.7976888 56.8520508,9.97639974 56.8520508,11.4760742 C56.8520508,12.9370117 57.2546387,14.083903 58.0598145,14.916748 C58.8649902,15.7495931 59.9814453,16.1660156 61.4091797,16.1660156 Z M63.0610352,10.4384766 L58.894043,10.4384766 C58.9659831,9.6858724 59.1887207,9.11311849 59.5622559,8.72021484 C59.935791,8.3273112 60.4324544,8.13085938 61.0522461,8.13085938 C61.6720378,8.13085938 62.1590169,8.32592773 62.5131836,8.71606445 C62.8673503,9.10620117 63.0499674,9.68033854 63.0610352,10.4384766 L63.0610352,10.4384766 Z" id="path-2"></path>
    </defs>
    <g id="Symbols" stroke="none" stroke-width="1" fill="none" fill-rule="evenodd">
        <g id="i/Arrange">
            <g id="Arrange">
                <g id="Group-13">
                    <g id="Chunk" transform="translate(0.000000, 0.734061)">
                        <g id="Group-11">
                            <g id="Group-6">
                                <g id="Group-2" fill="url(#radialGradient-1)" fill-rule="nonzero">
                                    <g id="Group-3">
                                        <g id="blue-icon">
                                            <rect id="Rectangle-2" x="0" y="0" width="162.995772" height="97" rx="6"></rect>
                                        </g>
                                    </g>
                                </g>
                                <line x1="2" y1="28.0580735" x2="161" y2="28.0580735" id="Line-2" stroke="#FFFFFF" stroke-width="4" stroke-linecap="square"></line>
                                <line x1="80.990625" y1="38.7017877" x2="80.990625" y2="83.9779173" id="Line-3" stroke="#FFFFFF" stroke-width="2" stroke-linecap="square"></line>
                            </g>
                            <g id="Group" transform="translate(20.375000, 39.000000)" fill-rule="nonzero">
                                <polygon id="Path" fill="#FFFFFF" points="22.7812423 22.9448343 22.7812423 38.5613223 6.85168551 38.5613223 6.85168551 22.9448343"></polygon>
                                <polygon id="Path" fill="#FFFFFF" points="39.3385073 22.9448343 39.3385073 38.5613223 23.4089504 38.5613223 23.4089504 22.9448343"></polygon>
                                <polygon id="Path" fill="#FFFFFF" points="39.3385073 6.77105427 39.3385073 22.3875421 23.4089504 22.3875421 23.4089504 6.77105427"></polygon>
                                <polygon id="Path" fill="#BDC3C7" points="16.5531315 0.609614217 16.5531315 16.2261021 0.623574588 16.2261021 0.623574588 0.609614217"></polygon>
                            </g>
                        </g>
                    </g>
                    <g id="Group" transform="translate(48.616667, 2.734061)" fill-rule="nonzero">
                        <g id="Arrange">
                            <use fill="#000000" xlink:href="#path-2"></use>
                            <use fill="#FFFFFF" xlink:href="#path-2"></use>
                        </g>
                    </g>
                    <path d="M93.046875,52.390625 C93.8476562,52.390625 94.4560547,52.1591797 94.8720703,51.6962891 C95.2880859,51.2333984 95.4960938,50.5644531 95.4960938,49.6894531 L95.4960938,49.6894531 L95.4960938,41.4335938 L94.0898438,41.4335938 L94.0898438,49.7363281 C94.0898438,50.7050781 93.7070312,51.1894531 92.9414062,51.1894531 C92.6992188,51.1894531 92.4140625,51.1484375 92.0859375,51.0664062 L92.0859375,51.0664062 L92.0859375,52.2441406 C92.34375,52.3417969 92.6640625,52.390625 93.046875,52.390625 Z M100.236328,50.1171875 C101.205078,50.1171875 101.960938,49.8203125 102.503906,49.2265625 C103.046875,48.6328125 103.318359,47.8066406 103.318359,46.7480469 C103.318359,45.7246094 103.044922,44.9111328 102.498047,44.3076172 C101.951172,43.7041016 101.208984,43.4023438 100.271484,43.4023438 C99.2910156,43.4023438 98.53125,43.6972656 97.9921875,44.2871094 C97.453125,44.8769531 97.1835938,45.6972656 97.1835938,46.7480469 C97.1835938,47.4238281 97.3085938,48.0175781 97.5585938,48.5292969 C97.8085938,49.0410156 98.1660156,49.4335938 98.6308594,49.7070312 C99.0957031,49.9804688 99.6308594,50.1171875 100.236328,50.1171875 Z M100.259766,48.9921875 C99.1542969,48.9921875 98.6015625,48.2441406 98.6015625,46.7480469 C98.6015625,46.0332031 98.7314453,45.484375 98.9912109,45.1015625 C99.2509766,44.71875 99.6699219,44.5273438 100.248047,44.5273438 C101.349609,44.5273438 101.900391,45.2675781 101.900391,46.7480469 C101.900391,48.2441406 101.353516,48.9921875 100.259766,48.9921875 Z M105.597656,42.5585938 C105.839844,42.5585938 106.02832,42.4912109 106.163086,42.3564453 C106.297852,42.2216797 106.365234,42.0371094 106.365234,41.8027344 C106.365234,41.5566406 106.297852,41.3671875 106.163086,41.234375 C106.02832,41.1015625 105.839844,41.0351562 105.597656,41.0351562 C105.347656,41.0351562 105.155273,41.1015625 105.020508,41.234375 C104.885742,41.3671875 104.818359,41.5566406 104.818359,41.8027344 C104.818359,42.0371094 104.885742,42.2216797 105.020508,42.3564453 C105.155273,42.4912109 105.347656,42.5585938 105.597656,42.5585938 Z M106.277344,50 L106.277344,43.5195312 L104.900391,43.5195312 L104.900391,50 L106.277344,50 Z M109.623047,50 L109.623047,46.7714844 C109.623047,45.9628906 109.757812,45.3867188 110.027344,45.0429688 C110.296875,44.6992188 110.722656,44.5273438 111.304688,44.5273438 C111.742188,44.5273438 112.061523,44.6503906 112.262695,44.8964844 C112.463867,45.1425781 112.564453,45.515625 112.564453,46.015625 L112.564453,46.015625 L112.564453,50 L113.947266,50 L113.947266,45.7753906 C113.947266,44.1933594 113.169922,43.4023438 111.615234,43.4023438 C111.177734,43.4023438 110.779297,43.4863281 110.419922,43.6542969 C110.060547,43.8222656 109.783203,44.0605469 109.587891,44.3691406 L109.587891,44.3691406 L109.517578,44.3691406 L109.324219,43.5195312 L108.246094,43.5195312 L108.246094,50 L109.623047,50 Z M96.0703125,62.1171875 C96.328125,62.1171875 96.5771484,62.0947266 96.8173828,62.0498047 C97.0576172,62.0048828 97.2539062,61.9492188 97.40625,61.8828125 L97.40625,61.8828125 L97.40625,60.8457031 C97.0703125,60.9511719 96.734375,61.0039062 96.3984375,61.0039062 C96.1289062,61.0039062 95.9111328,60.9248047 95.7451172,60.7666016 C95.5791016,60.6083984 95.4960938,60.3632812 95.4960938,60.03125 L95.4960938,60.03125 L95.4960938,56.5625 L97.3417969,56.5625 L97.3417969,55.5195312 L95.4960938,55.5195312 L95.4960938,54.078125 L94.6464844,54.078125 L94.1777344,55.4492188 L93.2285156,55.953125 L93.2285156,56.5625 L94.1132812,56.5625 L94.1132812,60.0546875 C94.1132812,61.4296875 94.765625,62.1171875 96.0703125,62.1171875 Z M101.367188,62.1171875 C102.335938,62.1171875 103.091797,61.8203125 103.634766,61.2265625 C104.177734,60.6328125 104.449219,59.8066406 104.449219,58.7480469 C104.449219,57.7246094 104.175781,56.9111328 103.628906,56.3076172 C103.082031,55.7041016 102.339844,55.4023438 101.402344,55.4023438 C100.421875,55.4023438 99.6621094,55.6972656 99.1230469,56.2871094 C98.5839844,56.8769531 98.3144531,57.6972656 98.3144531,58.7480469 C98.3144531,59.4238281 98.4394531,60.0175781 98.6894531,60.5292969 C98.9394531,61.0410156 99.296875,61.4335938 99.7617188,61.7070312 C100.226562,61.9804688 100.761719,62.1171875 101.367188,62.1171875 Z M101.390625,60.9921875 C100.285156,60.9921875 99.7324219,60.2441406 99.7324219,58.7480469 C99.7324219,58.0332031 99.8623047,57.484375 100.12207,57.1015625 C100.381836,56.71875 100.800781,56.5273438 101.378906,56.5273438 C102.480469,56.5273438 103.03125,57.2675781 103.03125,58.7480469 C103.03125,60.2441406 102.484375,60.9921875 101.390625,60.9921875 Z M107.900391,64.8828125 C109.044922,64.8828125 109.919922,64.6835938 110.525391,64.2851562 C111.130859,63.8867188 111.433594,63.3203125 111.433594,62.5859375 C111.433594,62.0117188 111.248047,61.5722656 110.876953,61.2675781 C110.505859,60.9628906 109.962891,60.8105469 109.248047,60.8105469 L109.248047,60.8105469 L108.117188,60.8105469 C107.746094,60.8105469 107.491211,60.7734375 107.352539,60.6992188 C107.213867,60.625 107.144531,60.5136719 107.144531,60.3652344 C107.144531,60.1191406 107.292969,59.9042969 107.589844,59.7207031 C107.757812,59.7519531 107.945312,59.7675781 108.152344,59.7675781 C108.960938,59.7675781 109.595703,59.5761719 110.056641,59.1933594 C110.517578,58.8105469 110.748047,58.2851562 110.748047,57.6171875 C110.748047,57.3945312 110.714844,57.1835938 110.648438,56.984375 C110.582031,56.7851562 110.498047,56.6171875 110.396484,56.4804688 L110.396484,56.4804688 L111.503906,56.2753906 L111.503906,55.5195312 L109.259766,55.5195312 C109.158203,55.4921875 109.006836,55.4658203 108.805664,55.4404297 C108.604492,55.4150391 108.412109,55.4023438 108.228516,55.4023438 C107.408203,55.4023438 106.776367,55.5957031 106.333008,55.9824219 C105.889648,56.3691406 105.667969,56.9140625 105.667969,57.6171875 C105.667969,58.0546875 105.772461,58.4365234 105.981445,58.7626953 C106.19043,59.0888672 106.462891,59.3242188 106.798828,59.46875 C106.529297,59.6328125 106.326172,59.7988281 106.189453,59.9667969 C106.052734,60.1347656 105.984375,60.3398438 105.984375,60.5820312 C105.984375,60.7734375 106.043945,60.9560547 106.163086,61.1298828 C106.282227,61.3037109 106.433594,61.4296875 106.617188,61.5078125 C106.164062,61.6132812 105.811523,61.8017578 105.55957,62.0732422 C105.307617,62.3447266 105.181641,62.6796875 105.181641,63.078125 C105.181641,63.65625 105.414062,64.1015625 105.878906,64.4140625 C106.34375,64.7265625 107.017578,64.8828125 107.900391,64.8828125 Z M108.216797,58.8828125 C107.826172,58.8828125 107.526367,58.7734375 107.317383,58.5546875 C107.108398,58.3359375 107.003906,58.0234375 107.003906,57.6171875 C107.003906,57.1835938 107.106445,56.8535156 107.311523,56.6269531 C107.516602,56.4003906 107.818359,56.2871094 108.216797,56.2871094 C108.619141,56.2871094 108.918945,56.4013672 109.116211,56.6298828 C109.313477,56.8583984 109.412109,57.1835938 109.412109,57.6054688 C109.412109,58.4570312 109.013672,58.8828125 108.216797,58.8828125 Z M107.941406,63.9335938 C107.457031,63.9335938 107.081055,63.8535156 106.813477,63.6933594 C106.545898,63.5332031 106.412109,63.3046875 106.412109,63.0078125 C106.412109,62.6914062 106.52832,62.4404297 106.760742,62.2548828 C106.993164,62.0693359 107.306641,61.9765625 107.701172,61.9765625 L107.701172,61.9765625 L108.744141,61.9765625 C109.291016,61.9765625 109.665039,62.0361328 109.866211,62.1552734 C110.067383,62.2744141 110.167969,62.4746094 110.167969,62.7558594 C110.167969,63.1113281 109.984375,63.3964844 109.617188,63.6113281 C109.25,63.8261719 108.691406,63.9335938 107.941406,63.9335938 Z M115.535156,62.1171875 C115.976562,62.1171875 116.369141,62.0839844 116.712891,62.0175781 C117.056641,61.9511719 117.396484,61.8378906 117.732422,61.6777344 L117.732422,61.6777344 L117.732422,60.5585938 C117.353516,60.7265625 116.999023,60.8466797 116.668945,60.9189453 C116.338867,60.9912109 115.982422,61.0273438 115.599609,61.0273438 C115.017578,61.0273438 114.566406,60.8583984 114.246094,60.5205078 C113.925781,60.1826172 113.755859,59.6992188 113.736328,59.0703125 L113.736328,59.0703125 L118.054688,59.0703125 L118.054688,58.3261719 C118.054688,57.4160156 117.806641,56.7011719 117.310547,56.1816406 C116.814453,55.6621094 116.138672,55.4023438 115.283203,55.4023438 C114.361328,55.4023438 113.636719,55.7050781 113.109375,56.3105469 C112.582031,56.9160156 112.318359,57.7480469 112.318359,58.8066406 C112.318359,59.8378906 112.602539,60.6474609 113.170898,61.2353516 C113.739258,61.8232422 114.527344,62.1171875 115.535156,62.1171875 Z M116.701172,58.0742188 L113.759766,58.0742188 C113.810547,57.5429688 113.967773,57.1386719 114.231445,56.8613281 C114.495117,56.5839844 114.845703,56.4453125 115.283203,56.4453125 C115.720703,56.4453125 116.064453,56.5830078 116.314453,56.8583984 C116.564453,57.1337891 116.693359,57.5390625 116.701172,58.0742188 L116.701172,58.0742188 Z M121.705078,62.1171875 C121.962891,62.1171875 122.211914,62.0947266 122.452148,62.0498047 C122.692383,62.0048828 122.888672,61.9492188 123.041016,61.8828125 L123.041016,61.8828125 L123.041016,60.8457031 C122.705078,60.9511719 122.369141,61.0039062 122.033203,61.0039062 C121.763672,61.0039062 121.545898,60.9248047 121.379883,60.7666016 C121.213867,60.6083984 121.130859,60.3632812 121.130859,60.03125 L121.130859,60.03125 L121.130859,56.5625 L122.976562,56.5625 L122.976562,55.5195312 L121.130859,55.5195312 L121.130859,54.078125 L120.28125,54.078125 L119.8125,55.4492188 L118.863281,55.953125 L118.863281,56.5625 L119.748047,56.5625 L119.748047,60.0546875 C119.748047,61.4296875 120.400391,62.1171875 121.705078,62.1171875 Z M125.712891,62 L125.712891,58.7832031 C125.712891,57.9707031 125.848633,57.3916016 126.120117,57.0458984 C126.391602,56.7001953 126.816406,56.5273438 127.394531,56.5273438 C127.832031,56.5273438 128.151367,56.6503906 128.352539,56.8964844 C128.553711,57.1425781 128.654297,57.515625 128.654297,58.015625 L128.654297,58.015625 L128.654297,62 L130.037109,62 L130.037109,57.7753906 C130.037109,56.1933594 129.251953,55.4023438 127.681641,55.4023438 C127.236328,55.4023438 126.84668,55.4882812 126.512695,55.6601562 C126.178711,55.8320312 125.917969,56.0742188 125.730469,56.3867188 L125.730469,56.3867188 L125.642578,56.3867188 C125.689453,55.9648438 125.712891,55.5683594 125.712891,55.1972656 L125.712891,55.1972656 L125.712891,52.8828125 L124.335938,52.8828125 L124.335938,62 L125.712891,62 Z M134.783203,62.1171875 C135.224609,62.1171875 135.617188,62.0839844 135.960938,62.0175781 C136.304688,61.9511719 136.644531,61.8378906 136.980469,61.6777344 L136.980469,61.6777344 L136.980469,60.5585938 C136.601562,60.7265625 136.24707,60.8466797 135.916992,60.9189453 C135.586914,60.9912109 135.230469,61.0273438 134.847656,61.0273438 C134.265625,61.0273438 133.814453,60.8583984 133.494141,60.5205078 C133.173828,60.1826172 133.003906,59.6992188 132.984375,59.0703125 L132.984375,59.0703125 L137.302734,59.0703125 L137.302734,58.3261719 C137.302734,57.4160156 137.054688,56.7011719 136.558594,56.1816406 C136.0625,55.6621094 135.386719,55.4023438 134.53125,55.4023438 C133.609375,55.4023438 132.884766,55.7050781 132.357422,56.3105469 C131.830078,56.9160156 131.566406,57.7480469 131.566406,58.8066406 C131.566406,59.8378906 131.850586,60.6474609 132.418945,61.2353516 C132.987305,61.8232422 133.775391,62.1171875 134.783203,62.1171875 Z M135.949219,58.0742188 L133.007812,58.0742188 C133.058594,57.5429688 133.21582,57.1386719 133.479492,56.8613281 C133.743164,56.5839844 134.09375,56.4453125 134.53125,56.4453125 C134.96875,56.4453125 135.3125,56.5830078 135.5625,56.8583984 C135.8125,57.1337891 135.941406,57.5390625 135.949219,58.0742188 L135.949219,58.0742188 Z M140.244141,62 L140.244141,58.6132812 C140.244141,58.0390625 140.415039,57.5722656 140.756836,57.2128906 C141.098633,56.8535156 141.544922,56.6738281 142.095703,56.6738281 C142.306641,56.6738281 142.509766,56.6972656 142.705078,56.7441406 L142.705078,56.7441406 L142.839844,55.4609375 C142.660156,55.421875 142.431641,55.4023438 142.154297,55.4023438 C141.755859,55.4023438 141.383789,55.515625 141.038086,55.7421875 C140.692383,55.96875 140.412109,56.2753906 140.197266,56.6621094 L140.197266,56.6621094 L140.126953,56.6621094 L139.945312,55.5195312 L138.867188,55.5195312 L138.867188,62 L140.244141,62 Z M95.3613281,74 L95.3613281,70.6132812 C95.3613281,70.0390625 95.5322266,69.5722656 95.8740234,69.2128906 C96.2158203,68.8535156 96.6621094,68.6738281 97.2128906,68.6738281 C97.4238281,68.6738281 97.6269531,68.6972656 97.8222656,68.7441406 L97.8222656,68.7441406 L97.9570312,67.4609375 C97.7773438,67.421875 97.5488281,67.4023438 97.2714844,67.4023438 C96.8730469,67.4023438 96.5009766,67.515625 96.1552734,67.7421875 C95.8095703,67.96875 95.5292969,68.2753906 95.3144531,68.6621094 L95.3144531,68.6621094 L95.2441406,68.6621094 L95.0625,67.5195312 L93.984375,67.5195312 L93.984375,74 L95.3613281,74 Z M101.988281,74.1171875 C102.429688,74.1171875 102.822266,74.0839844 103.166016,74.0175781 C103.509766,73.9511719 103.849609,73.8378906 104.185547,73.6777344 L104.185547,73.6777344 L104.185547,72.5585938 C103.806641,72.7265625 103.452148,72.8466797 103.12207,72.9189453 C102.791992,72.9912109 102.435547,73.0273438 102.052734,73.0273438 C101.470703,73.0273438 101.019531,72.8583984 100.699219,72.5205078 C100.378906,72.1826172 100.208984,71.6992188 100.189453,71.0703125 L100.189453,71.0703125 L104.507812,71.0703125 L104.507812,70.3261719 C104.507812,69.4160156 104.259766,68.7011719 103.763672,68.1816406 C103.267578,67.6621094 102.591797,67.4023438 101.736328,67.4023438 C100.814453,67.4023438 100.089844,67.7050781 99.5625,68.3105469 C99.0351562,68.9160156 98.7714844,69.7480469 98.7714844,70.8066406 C98.7714844,71.8378906 99.0556641,72.6474609 99.6240234,73.2353516 C100.192383,73.8232422 100.980469,74.1171875 101.988281,74.1171875 Z M103.154297,70.0742188 L100.212891,70.0742188 C100.263672,69.5429688 100.420898,69.1386719 100.68457,68.8613281 C100.948242,68.5839844 101.298828,68.4453125 101.736328,68.4453125 C102.173828,68.4453125 102.517578,68.5830078 102.767578,68.8583984 C103.017578,69.1337891 103.146484,69.5390625 103.154297,70.0742188 L103.154297,70.0742188 Z M107.449219,74 L107.449219,64.8828125 L106.072266,64.8828125 L106.072266,74 L107.449219,74 Z M110.988281,74.1171875 C111.484375,74.1171875 111.890625,74.0458984 112.207031,73.9033203 C112.523438,73.7607422 112.837891,73.4921875 113.150391,73.0976562 L113.150391,73.0976562 L113.197266,73.0976562 L113.472656,74 L114.457031,74 L114.457031,69.6347656 C114.457031,68.8652344 114.24707,68.3007812 113.827148,67.9414062 C113.407227,67.5820312 112.785156,67.4023438 111.960938,67.4023438 C111.589844,67.4023438 111.195312,67.4501953 110.777344,67.5458984 C110.359375,67.6416016 109.974609,67.78125 109.623047,67.9648438 L109.623047,67.9648438 L110.068359,68.9492188 C110.349609,68.8164062 110.642578,68.7011719 110.947266,68.6035156 C111.251953,68.5058594 111.570312,68.4570312 111.902344,68.4570312 C112.308594,68.4570312 112.608398,68.5595703 112.801758,68.7646484 C112.995117,68.9697266 113.091797,69.2792969 113.091797,69.6933594 L113.091797,69.6933594 L113.091797,70.0390625 L111.972656,70.0742188 C110.957031,70.1054688 110.201172,70.2910156 109.705078,70.6308594 C109.208984,70.9707031 108.960938,71.4746094 108.960938,72.1425781 C108.960938,72.7714844 109.139648,73.2578125 109.49707,73.6015625 C109.854492,73.9453125 110.351562,74.1171875 110.988281,74.1171875 Z M111.421875,73.0625 C111.078125,73.0625 110.820312,72.9833984 110.648438,72.8251953 C110.476562,72.6669922 110.390625,72.4433594 110.390625,72.1542969 C110.390625,71.7558594 110.538086,71.4599609 110.833008,71.2666016 C111.12793,71.0732422 111.599609,70.9648438 112.248047,70.9414062 L112.248047,70.9414062 L113.080078,70.90625 L113.080078,71.46875 C113.080078,71.9726562 112.928711,72.3642578 112.625977,72.6435547 C112.323242,72.9228516 111.921875,73.0625 111.421875,73.0625 Z M118.464844,74.1171875 C118.722656,74.1171875 118.97168,74.0947266 119.211914,74.0498047 C119.452148,74.0048828 119.648438,73.9492188 119.800781,73.8828125 L119.800781,73.8828125 L119.800781,72.8457031 C119.464844,72.9511719 119.128906,73.0039062 118.792969,73.0039062 C118.523438,73.0039062 118.305664,72.9248047 118.139648,72.7666016 C117.973633,72.6083984 117.890625,72.3632812 117.890625,72.03125 L117.890625,72.03125 L117.890625,68.5625 L119.736328,68.5625 L119.736328,67.5195312 L117.890625,67.5195312 L117.890625,66.078125 L117.041016,66.078125 L116.572266,67.4492188 L115.623047,67.953125 L115.623047,68.5625 L116.507812,68.5625 L116.507812,72.0546875 C116.507812,73.4296875 117.160156,74.1171875 118.464844,74.1171875 Z M123.925781,74.1171875 C124.367188,74.1171875 124.759766,74.0839844 125.103516,74.0175781 C125.447266,73.9511719 125.787109,73.8378906 126.123047,73.6777344 L126.123047,73.6777344 L126.123047,72.5585938 C125.744141,72.7265625 125.389648,72.8466797 125.05957,72.9189453 C124.729492,72.9912109 124.373047,73.0273438 123.990234,73.0273438 C123.408203,73.0273438 122.957031,72.8583984 122.636719,72.5205078 C122.316406,72.1826172 122.146484,71.6992188 122.126953,71.0703125 L122.126953,71.0703125 L126.445312,71.0703125 L126.445312,70.3261719 C126.445312,69.4160156 126.197266,68.7011719 125.701172,68.1816406 C125.205078,67.6621094 124.529297,67.4023438 123.673828,67.4023438 C122.751953,67.4023438 122.027344,67.7050781 121.5,68.3105469 C120.972656,68.9160156 120.708984,69.7480469 120.708984,70.8066406 C120.708984,71.8378906 120.993164,72.6474609 121.561523,73.2353516 C122.129883,73.8232422 122.917969,74.1171875 123.925781,74.1171875 Z M125.091797,70.0742188 L122.150391,70.0742188 C122.201172,69.5429688 122.358398,69.1386719 122.62207,68.8613281 C122.885742,68.5839844 123.236328,68.4453125 123.673828,68.4453125 C124.111328,68.4453125 124.455078,68.5830078 124.705078,68.8583984 C124.955078,69.1337891 125.083984,69.5390625 125.091797,70.0742188 L125.091797,70.0742188 Z M130.195312,74.1171875 C131.046875,74.1171875 131.693359,73.7949219 132.134766,73.1503906 L132.134766,73.1503906 L132.199219,73.1503906 L132.439453,74 L133.517578,74 L133.517578,64.8828125 L132.134766,64.8828125 L132.134766,67.2441406 C132.134766,67.5136719 132.167969,67.8808594 132.234375,68.3457031 L132.234375,68.3457031 L132.164062,68.3457031 C131.71875,67.7167969 131.070312,67.4023438 130.21875,67.4023438 C129.40625,67.4023438 128.770508,67.6982422 128.311523,68.2900391 C127.852539,68.8818359 127.623047,69.7089844 127.623047,70.7714844 C127.623047,71.8300781 127.849609,72.6523438 128.302734,73.2382812 C128.755859,73.8242188 129.386719,74.1171875 130.195312,74.1171875 Z M130.564453,73.0039062 C130.056641,73.0039062 129.675781,72.8154297 129.421875,72.4384766 C129.167969,72.0615234 129.041016,71.5136719 129.041016,70.7949219 C129.041016,70.0683594 129.171875,69.5087891 129.433594,69.1162109 C129.695312,68.7236328 130.068359,68.5273438 130.552734,68.5273438 C131.119141,68.5273438 131.535156,68.6992188 131.800781,69.0429688 C132.066406,69.3867188 132.199219,69.9667969 132.199219,70.7832031 L132.199219,70.7832031 L132.199219,70.9765625 C132.191406,71.6914062 132.058594,72.2080078 131.800781,72.5263672 C131.542969,72.8447266 131.130859,73.0039062 130.564453,73.0039062 Z M94.6816406,78.5585938 C94.9238281,78.5585938 95.1123047,78.4912109 95.2470703,78.3564453 C95.3818359,78.2216797 95.4492188,78.0371094 95.4492188,77.8027344 C95.4492188,77.5566406 95.3818359,77.3671875 95.2470703,77.234375 C95.1123047,77.1015625 94.9238281,77.0351562 94.6816406,77.0351562 C94.4316406,77.0351562 94.2392578,77.1015625 94.1044922,77.234375 C93.9697266,77.3671875 93.9023438,77.5566406 93.9023438,77.8027344 C93.9023438,78.0371094 93.9697266,78.2216797 94.1044922,78.3564453 C94.2392578,78.4912109 94.4316406,78.5585938 94.6816406,78.5585938 Z M95.3613281,86 L95.3613281,79.5195312 L93.984375,79.5195312 L93.984375,86 L95.3613281,86 Z M99.4160156,86.1171875 C99.6738281,86.1171875 99.9228516,86.0947266 100.163086,86.0498047 C100.40332,86.0048828 100.599609,85.9492188 100.751953,85.8828125 L100.751953,85.8828125 L100.751953,84.8457031 C100.416016,84.9511719 100.080078,85.0039062 99.7441406,85.0039062 C99.4746094,85.0039062 99.2568359,84.9248047 99.0908203,84.7666016 C98.9248047,84.6083984 98.8417969,84.3632812 98.8417969,84.03125 L98.8417969,84.03125 L98.8417969,80.5625 L100.6875,80.5625 L100.6875,79.5195312 L98.8417969,79.5195312 L98.8417969,78.078125 L97.9921875,78.078125 L97.5234375,79.4492188 L96.5742188,79.953125 L96.5742188,80.5625 L97.4589844,80.5625 L97.4589844,84.0546875 C97.4589844,85.4296875 98.1113281,86.1171875 99.4160156,86.1171875 Z M104.876953,86.1171875 C105.318359,86.1171875 105.710938,86.0839844 106.054688,86.0175781 C106.398438,85.9511719 106.738281,85.8378906 107.074219,85.6777344 L107.074219,85.6777344 L107.074219,84.5585938 C106.695312,84.7265625 106.34082,84.8466797 106.010742,84.9189453 C105.680664,84.9912109 105.324219,85.0273438 104.941406,85.0273438 C104.359375,85.0273438 103.908203,84.8583984 103.587891,84.5205078 C103.267578,84.1826172 103.097656,83.6992188 103.078125,83.0703125 L103.078125,83.0703125 L107.396484,83.0703125 L107.396484,82.3261719 C107.396484,81.4160156 107.148438,80.7011719 106.652344,80.1816406 C106.15625,79.6621094 105.480469,79.4023438 104.625,79.4023438 C103.703125,79.4023438 102.978516,79.7050781 102.451172,80.3105469 C101.923828,80.9160156 101.660156,81.7480469 101.660156,82.8066406 C101.660156,83.8378906 101.944336,84.6474609 102.512695,85.2353516 C103.081055,85.8232422 103.869141,86.1171875 104.876953,86.1171875 Z M106.042969,82.0742188 L103.101562,82.0742188 C103.152344,81.5429688 103.30957,81.1386719 103.573242,80.8613281 C103.836914,80.5839844 104.1875,80.4453125 104.625,80.4453125 C105.0625,80.4453125 105.40625,80.5830078 105.65625,80.8583984 C105.90625,81.1337891 106.035156,81.5390625 106.042969,82.0742188 L106.042969,82.0742188 Z M110.337891,86 L110.337891,82.7714844 C110.337891,81.9667969 110.461914,81.3916016 110.709961,81.0458984 C110.958008,80.7001953 111.347656,80.5273438 111.878906,80.5273438 C112.277344,80.5273438 112.570312,80.6494141 112.757812,80.8935547 C112.945312,81.1376953 113.039062,81.5078125 113.039062,82.0039062 L113.039062,82.0039062 L113.039062,86 L114.421875,86 L114.421875,82.5664062 C114.421875,81.875 114.545898,81.3623047 114.793945,81.0283203 C115.041992,80.6943359 115.433594,80.5273438 115.96875,80.5273438 C116.367188,80.5273438 116.661133,80.6494141 116.850586,80.8935547 C117.040039,81.1376953 117.134766,81.5078125 117.134766,82.0039062 L117.134766,82.0039062 L117.134766,86 L118.511719,86 L118.511719,81.7753906 C118.511719,80.9746094 118.334961,80.3789062 117.981445,79.9882812 C117.62793,79.5976562 117.064453,79.4023438 116.291016,79.4023438 C115.841797,79.4023438 115.443359,79.4921875 115.095703,79.671875 C114.748047,79.8515625 114.478516,80.1015625 114.287109,80.421875 L114.287109,80.421875 L114.193359,80.421875 C113.869141,79.7421875 113.208984,79.4023438 112.212891,79.4023438 C111.802734,79.4023438 111.426758,79.4863281 111.084961,79.6542969 C110.743164,79.8222656 110.482422,80.0605469 110.302734,80.3691406 L110.302734,80.3691406 L110.232422,80.3691406 L110.039062,79.5195312 L108.960938,79.5195312 L108.960938,86 L110.337891,86 Z M122.115234,86.1171875 C122.974609,86.1171875 123.634766,85.9482422 124.095703,85.6103516 C124.556641,85.2724609 124.787109,84.7871094 124.787109,84.1542969 C124.787109,83.8417969 124.728516,83.5732422 124.611328,83.3486328 C124.494141,83.1240234 124.314453,82.9257812 124.072266,82.7539062 C123.830078,82.5820312 123.441406,82.3925781 122.90625,82.1855469 C122.269531,81.9394531 121.856445,81.7460938 121.666992,81.6054688 C121.477539,81.4648438 121.382812,81.2929688 121.382812,81.0898438 C121.382812,80.6757812 121.746094,80.46875 122.472656,80.46875 C122.949219,80.46875 123.537109,80.6132812 124.236328,80.9023438 L124.236328,80.9023438 L124.681641,79.8652344 C124.001953,79.5566406 123.28125,79.4023438 122.519531,79.4023438 C121.75,79.4023438 121.141602,79.5556641 120.694336,79.8623047 C120.24707,80.1689453 120.023438,80.5996094 120.023438,81.1542969 C120.023438,81.6152344 120.155273,81.9902344 120.418945,82.2792969 C120.682617,82.5683594 121.1875,82.8574219 121.933594,83.1464844 C122.316406,83.2949219 122.615234,83.4277344 122.830078,83.5449219 C123.044922,83.6621094 123.199219,83.7753906 123.292969,83.8847656 C123.386719,83.9941406 123.433594,84.1308594 123.433594,84.2949219 C123.433594,84.8066406 123.009766,85.0625 122.162109,85.0625 C121.505859,85.0625 120.796875,84.8867188 120.035156,84.5351562 L120.035156,84.5351562 L120.035156,85.7246094 C120.558594,85.9863281 121.251953,86.1171875 122.115234,86.1171875 Z M126.9375,86.1699219 C127.21875,86.1699219 127.43457,86.0888672 127.584961,85.9267578 C127.735352,85.7646484 127.810547,85.5449219 127.810547,85.2675781 C127.810547,84.9941406 127.736328,84.7783203 127.587891,84.6201172 C127.439453,84.4619141 127.222656,84.3828125 126.9375,84.3828125 C126.65625,84.3828125 126.441406,84.4589844 126.292969,84.6113281 C126.144531,84.7636719 126.070312,84.9824219 126.070312,85.2675781 C126.070312,85.5488281 126.144531,85.7695312 126.292969,85.9296875 C126.441406,86.0898438 126.65625,86.1699219 126.9375,86.1699219 Z" id="Jointogetherrelateditems." fill="#FFFFFF" fill-rule="nonzero"></path>
                </g>
            </g>
        </g>
    </g>
</svg>