<?xml version="1.0" encoding="UTF-8"?>
<svg width="163px" height="97px" viewBox="0 0 163 97" version="1.1" xmlns="http://www.w3.org/2000/svg" xmlns:xlink="http://www.w3.org/1999/xlink">
    <!-- Generator: Sketch 62 (91390) - https://sketch.com -->
    <title>Categorise</title>
    <desc>Created with Sketch.</desc>
    <defs>
        <radialGradient cx="25.765%" cy="49.999975%" fx="25.765%" fy="49.999975%" r="47.5383503%" gradientTransform="translate(0.257650,0.500000),scale(0.586896,1.000000),rotate(90.000000),translate(-0.257650,-0.500000)" id="radialGradient-1">
            <stop stop-color="#31CEBB" offset="0%"></stop>
            <stop stop-color="#16A085" offset="100%"></stop>
        </radialGradient>
    </defs>
    <g id="Symbols" stroke="none" stroke-width="1" fill="none" fill-rule="evenodd">
        <g id="i/Categorise">
            <g id="Categorise">
                <g id="Group-48">
                    <path d="M6,0.451162791 L157,0.451162791 C160.313708,0.451162791 163,3.13745429 163,6.45116279 L163,90.1151953 C163,93.4289038 160.313708,96.1151953 157,96.1151953 L6,96.1151953 C2.6862915,96.1151953 4.05812251e-16,93.4289038 0,90.1151953 L0,6.45116279 C-4.05812251e-16,3.13745429 2.6862915,0.451162791 6,0.451162791 Z" id="Rectangle-2" fill="url(#radialGradient-1)" fill-rule="nonzero"></path>
                    <line x1="80.990625" y1="40.1785529" x2="80.990625" y2="85.9214473" id="Line-3" stroke="#FFFFFF" stroke-width="2" stroke-linecap="square"></line>
                    <path d="M61.6885637,84.8283723 L50.3739361,84.8283723 C48.0691045,84.8283723 46.1833333,83.0804743 46.1833333,80.9441543 L46.1833333,70.4567663 C46.1833333,68.3204465 48.0691045,66.5725485 50.3739361,66.5725485 L61.6885637,66.5725485 C63.9933954,66.5725485 65.8791667,68.3204465 65.8791667,70.4567663 L65.8791667,81.0088914 C65.8791667,83.0804743 63.9933954,84.8283723 61.6885637,84.8283723 Z" id="Path" fill="#BDC3C7" fill-rule="nonzero"></path>
                    <path d="M34.536705,84.8283723 L23.1924617,84.8283723 C20.8957743,84.8283723 19.0166667,83.0804743 19.0166667,80.9441543 L19.0166667,70.4567663 C19.0166667,68.3204465 20.8957743,66.5725485 23.1924617,66.5725485 L34.536705,66.5725485 C36.8333922,66.5725485 38.7125,68.3204465 38.7125,70.4567663 L38.7125,81.0088914 C38.6429035,83.0804743 36.7637957,84.8283723 34.536705,84.8283723 Z" id="Path" fill="#FFFFFF" fill-rule="nonzero"></path>
                    <path d="M61.7033717,61.3565989 L50.3591283,61.3565989 C48.0624411,61.3565989 46.1833333,59.6087009 46.1833333,57.4723811 L46.1833333,46.984993 C46.1833333,44.8486732 48.0624411,43.1007752 50.3591283,43.1007752 L61.7033717,43.1007752 C64.0000589,43.1007752 65.8791667,44.8486732 65.8791667,46.984993 L65.8791667,57.5371181 C65.8791667,59.6734378 64.0000589,61.3565989 61.7033717,61.3565989 Z" id="Path" fill="#FFFFFF" fill-rule="nonzero"></path>
                    <path d="M34.4671084,61.3565989 L23.1924618,61.3565989 C20.8957745,61.3565989 19.0166667,59.6087009 19.0166667,57.4723811 L19.0166667,46.984993 C19.0166667,44.8486732 20.8957745,43.1007752 23.1924618,43.1007752 L34.5367049,43.1007752 C36.8333922,43.1007752 38.7125,44.8486732 38.7125,46.984993 L38.7125,57.5371181 C38.6429033,59.6734378 36.7637956,61.3565989 34.4671084,61.3565989 Z" id="Path" fill="#BDC3C7" fill-rule="nonzero"></path>
                    <path d="M91.9648438,60.1171875 C92.9335938,60.1171875 93.6933594,59.9003906 94.2441406,59.4667969 C94.7949219,59.0332031 95.0703125,58.4355469 95.0703125,57.6738281 C95.0703125,57.2871094 95.0019531,56.9511719 94.8652344,56.6660156 C94.7285156,56.3808594 94.5136719,56.125 94.2207031,55.8984375 C93.9277344,55.671875 93.4667969,55.4277344 92.8378906,55.1660156 C92.2792969,54.9355469 91.8925781,54.75 91.6777344,54.609375 C91.4628906,54.46875 91.3085938,54.3193359 91.2148438,54.1611328 C91.1210938,54.0029297 91.0742188,53.8125 91.0742188,53.5898438 C91.0742188,53.265625 91.1914062,53.0048828 91.4257812,52.8076172 C91.6601562,52.6103516 92.0039062,52.5117188 92.4570312,52.5117188 C93.0546875,52.5117188 93.734375,52.671875 94.4960938,52.9921875 L94.4960938,52.9921875 L94.9414062,51.8496094 C94.1289062,51.4902344 93.3125,51.3105469 92.4921875,51.3105469 C91.6367188,51.3105469 90.9550781,51.515625 90.4472656,51.9257812 C89.9394531,52.3359375 89.6855469,52.8984375 89.6855469,53.6132812 C89.6855469,54.1835938 89.8457031,54.671875 90.1660156,55.078125 C90.4863281,55.484375 91.0371094,55.8457031 91.8183594,56.1621094 C92.5761719,56.4667969 93.0761719,56.7304688 93.3183594,56.953125 C93.5605469,57.1757812 93.6816406,57.4472656 93.6816406,57.7675781 C93.6816406,58.1230469 93.5498047,58.40625 93.2861328,58.6171875 C93.0224609,58.828125 92.6132812,58.9335938 92.0585938,58.9335938 C91.6796875,58.9335938 91.2705078,58.8808594 90.8310547,58.7753906 C90.3916016,58.6699219 89.9765625,58.5253906 89.5859375,58.3417969 L89.5859375,58.3417969 L89.5859375,59.6660156 C90.203125,59.9667969 90.9960938,60.1171875 91.9648438,60.1171875 Z M99.2480469,60.1171875 C100.216797,60.1171875 100.972656,59.8203125 101.515625,59.2265625 C102.058594,58.6328125 102.330078,57.8066406 102.330078,56.7480469 C102.330078,55.7246094 102.056641,54.9111328 101.509766,54.3076172 C100.962891,53.7041016 100.220703,53.4023438 99.2832031,53.4023438 C98.3027344,53.4023438 97.5429688,53.6972656 97.0039062,54.2871094 C96.4648438,54.8769531 96.1953125,55.6972656 96.1953125,56.7480469 C96.1953125,57.4238281 96.3203125,58.0175781 96.5703125,58.5292969 C96.8203125,59.0410156 97.1777344,59.4335938 97.6425781,59.7070312 C98.1074219,59.9804688 98.6425781,60.1171875 99.2480469,60.1171875 Z M99.2714844,58.9921875 C98.1660156,58.9921875 97.6132812,58.2441406 97.6132812,56.7480469 C97.6132812,56.0332031 97.7431641,55.484375 98.0029297,55.1015625 C98.2626953,54.71875 98.6816406,54.5273438 99.2597656,54.5273438 C100.361328,54.5273438 100.912109,55.2675781 100.912109,56.7480469 C100.912109,58.2441406 100.365234,58.9921875 99.2714844,58.9921875 Z M105.289062,60 L105.289062,56.6132812 C105.289062,56.0390625 105.459961,55.5722656 105.801758,55.2128906 C106.143555,54.8535156 106.589844,54.6738281 107.140625,54.6738281 C107.351562,54.6738281 107.554688,54.6972656 107.75,54.7441406 L107.75,54.7441406 L107.884766,53.4609375 C107.705078,53.421875 107.476562,53.4023438 107.199219,53.4023438 C106.800781,53.4023438 106.428711,53.515625 106.083008,53.7421875 C105.737305,53.96875 105.457031,54.2753906 105.242188,54.6621094 L105.242188,54.6621094 L105.171875,54.6621094 L104.990234,53.5195312 L103.912109,53.5195312 L103.912109,60 L105.289062,60 Z M111.171875,60.1171875 C111.429688,60.1171875 111.678711,60.0947266 111.918945,60.0498047 C112.15918,60.0048828 112.355469,59.9492188 112.507812,59.8828125 L112.507812,59.8828125 L112.507812,58.8457031 C112.171875,58.9511719 111.835938,59.0039062 111.5,59.0039062 C111.230469,59.0039062 111.012695,58.9248047 110.84668,58.7666016 C110.680664,58.6083984 110.597656,58.3632812 110.597656,58.03125 L110.597656,58.03125 L110.597656,54.5625 L112.443359,54.5625 L112.443359,53.5195312 L110.597656,53.5195312 L110.597656,52.078125 L109.748047,52.078125 L109.279297,53.4492188 L108.330078,53.953125 L108.330078,54.5625 L109.214844,54.5625 L109.214844,58.0546875 C109.214844,59.4296875 109.867188,60.1171875 111.171875,60.1171875 Z M117.617188,52.5585938 C117.859375,52.5585938 118.047852,52.4912109 118.182617,52.3564453 C118.317383,52.2216797 118.384766,52.0371094 118.384766,51.8027344 C118.384766,51.5566406 118.317383,51.3671875 118.182617,51.234375 C118.047852,51.1015625 117.859375,51.0351562 117.617188,51.0351562 C117.367188,51.0351562 117.174805,51.1015625 117.040039,51.234375 C116.905273,51.3671875 116.837891,51.5566406 116.837891,51.8027344 C116.837891,52.0371094 116.905273,52.2216797 117.040039,52.3564453 C117.174805,52.4912109 117.367188,52.5585938 117.617188,52.5585938 Z M118.296875,60 L118.296875,53.5195312 L116.919922,53.5195312 L116.919922,60 L118.296875,60 Z M122.351562,60.1171875 C122.609375,60.1171875 122.858398,60.0947266 123.098633,60.0498047 C123.338867,60.0048828 123.535156,59.9492188 123.6875,59.8828125 L123.6875,59.8828125 L123.6875,58.8457031 C123.351562,58.9511719 123.015625,59.0039062 122.679688,59.0039062 C122.410156,59.0039062 122.192383,58.9248047 122.026367,58.7666016 C121.860352,58.6083984 121.777344,58.3632812 121.777344,58.03125 L121.777344,58.03125 L121.777344,54.5625 L123.623047,54.5625 L123.623047,53.5195312 L121.777344,53.5195312 L121.777344,52.078125 L120.927734,52.078125 L120.458984,53.4492188 L119.509766,53.953125 L119.509766,54.5625 L120.394531,54.5625 L120.394531,58.0546875 C120.394531,59.4296875 121.046875,60.1171875 122.351562,60.1171875 Z M127.8125,60.1171875 C128.253906,60.1171875 128.646484,60.0839844 128.990234,60.0175781 C129.333984,59.9511719 129.673828,59.8378906 130.009766,59.6777344 L130.009766,59.6777344 L130.009766,58.5585938 C129.630859,58.7265625 129.276367,58.8466797 128.946289,58.9189453 C128.616211,58.9912109 128.259766,59.0273438 127.876953,59.0273438 C127.294922,59.0273438 126.84375,58.8583984 126.523438,58.5205078 C126.203125,58.1826172 126.033203,57.6992188 126.013672,57.0703125 L126.013672,57.0703125 L130.332031,57.0703125 L130.332031,56.3261719 C130.332031,55.4160156 130.083984,54.7011719 129.587891,54.1816406 C129.091797,53.6621094 128.416016,53.4023438 127.560547,53.4023438 C126.638672,53.4023438 125.914062,53.7050781 125.386719,54.3105469 C124.859375,54.9160156 124.595703,55.7480469 124.595703,56.8066406 C124.595703,57.8378906 124.879883,58.6474609 125.448242,59.2353516 C126.016602,59.8232422 126.804688,60.1171875 127.8125,60.1171875 Z M128.978516,56.0742188 L126.037109,56.0742188 C126.087891,55.5429688 126.245117,55.1386719 126.508789,54.8613281 C126.772461,54.5839844 127.123047,54.4453125 127.560547,54.4453125 C127.998047,54.4453125 128.341797,54.5830078 128.591797,54.8583984 C128.841797,55.1337891 128.970703,55.5390625 128.978516,56.0742188 L128.978516,56.0742188 Z M133.273438,60 L133.273438,56.7714844 C133.273438,55.9667969 133.397461,55.3916016 133.645508,55.0458984 C133.893555,54.7001953 134.283203,54.5273438 134.814453,54.5273438 C135.212891,54.5273438 135.505859,54.6494141 135.693359,54.8935547 C135.880859,55.1376953 135.974609,55.5078125 135.974609,56.0039062 L135.974609,56.0039062 L135.974609,60 L137.357422,60 L137.357422,56.5664062 C137.357422,55.875 137.481445,55.3623047 137.729492,55.0283203 C137.977539,54.6943359 138.369141,54.5273438 138.904297,54.5273438 C139.302734,54.5273438 139.59668,54.6494141 139.786133,54.8935547 C139.975586,55.1376953 140.070312,55.5078125 140.070312,56.0039062 L140.070312,56.0039062 L140.070312,60 L141.447266,60 L141.447266,55.7753906 C141.447266,54.9746094 141.270508,54.3789062 140.916992,53.9882812 C140.563477,53.5976562 140,53.4023438 139.226562,53.4023438 C138.777344,53.4023438 138.378906,53.4921875 138.03125,53.671875 C137.683594,53.8515625 137.414062,54.1015625 137.222656,54.421875 L137.222656,54.421875 L137.128906,54.421875 C136.804688,53.7421875 136.144531,53.4023438 135.148438,53.4023438 C134.738281,53.4023438 134.362305,53.4863281 134.020508,53.6542969 C133.678711,53.8222656 133.417969,54.0605469 133.238281,54.3691406 L133.238281,54.3691406 L133.167969,54.3691406 L132.974609,53.5195312 L131.896484,53.5195312 L131.896484,60 L133.273438,60 Z M145.050781,60.1171875 C145.910156,60.1171875 146.570312,59.9482422 147.03125,59.6103516 C147.492188,59.2724609 147.722656,58.7871094 147.722656,58.1542969 C147.722656,57.8417969 147.664062,57.5732422 147.546875,57.3486328 C147.429688,57.1240234 147.25,56.9257812 147.007812,56.7539062 C146.765625,56.5820312 146.376953,56.3925781 145.841797,56.1855469 C145.205078,55.9394531 144.791992,55.7460938 144.602539,55.6054688 C144.413086,55.4648438 144.318359,55.2929688 144.318359,55.0898438 C144.318359,54.6757812 144.681641,54.46875 145.408203,54.46875 C145.884766,54.46875 146.472656,54.6132812 147.171875,54.9023438 L147.171875,54.9023438 L147.617188,53.8652344 C146.9375,53.5566406 146.216797,53.4023438 145.455078,53.4023438 C144.685547,53.4023438 144.077148,53.5556641 143.629883,53.8623047 C143.182617,54.1689453 142.958984,54.5996094 142.958984,55.1542969 C142.958984,55.6152344 143.09082,55.9902344 143.354492,56.2792969 C143.618164,56.5683594 144.123047,56.8574219 144.869141,57.1464844 C145.251953,57.2949219 145.550781,57.4277344 145.765625,57.5449219 C145.980469,57.6621094 146.134766,57.7753906 146.228516,57.8847656 C146.322266,57.9941406 146.369141,58.1308594 146.369141,58.2949219 C146.369141,58.8066406 145.945312,59.0625 145.097656,59.0625 C144.441406,59.0625 143.732422,58.8867188 142.970703,58.5351562 L142.970703,58.5351562 L142.970703,59.7246094 C143.494141,59.9863281 144.1875,60.1171875 145.050781,60.1171875 Z M90.6816406,64.5585938 C90.9238281,64.5585938 91.1123047,64.4912109 91.2470703,64.3564453 C91.3818359,64.2216797 91.4492188,64.0371094 91.4492188,63.8027344 C91.4492188,63.5566406 91.3818359,63.3671875 91.2470703,63.234375 C91.1123047,63.1015625 90.9238281,63.0351562 90.6816406,63.0351562 C90.4316406,63.0351562 90.2392578,63.1015625 90.1044922,63.234375 C89.9697266,63.3671875 89.9023438,63.5566406 89.9023438,63.8027344 C89.9023438,64.0371094 89.9697266,64.2216797 90.1044922,64.3564453 C90.2392578,64.4912109 90.4316406,64.5585938 90.6816406,64.5585938 Z M91.3613281,72 L91.3613281,65.5195312 L89.984375,65.5195312 L89.984375,72 L91.3613281,72 Z M94.7070312,72 L94.7070312,68.7714844 C94.7070312,67.9628906 94.8417969,67.3867188 95.1113281,67.0429688 C95.3808594,66.6992188 95.8066406,66.5273438 96.3886719,66.5273438 C96.8261719,66.5273438 97.1455078,66.6503906 97.3466797,66.8964844 C97.5478516,67.1425781 97.6484375,67.515625 97.6484375,68.015625 L97.6484375,68.015625 L97.6484375,72 L99.03125,72 L99.03125,67.7753906 C99.03125,66.1933594 98.2539062,65.4023438 96.6992188,65.4023438 C96.2617188,65.4023438 95.8632812,65.4863281 95.5039062,65.6542969 C95.1445312,65.8222656 94.8671875,66.0605469 94.671875,66.3691406 L94.671875,66.3691406 L94.6015625,66.3691406 L94.4082031,65.5195312 L93.3300781,65.5195312 L93.3300781,72 L94.7070312,72 Z M103.033203,72.1171875 C103.291016,72.1171875 103.540039,72.0947266 103.780273,72.0498047 C104.020508,72.0048828 104.216797,71.9492188 104.369141,71.8828125 L104.369141,71.8828125 L104.369141,70.8457031 C104.033203,70.9511719 103.697266,71.0039062 103.361328,71.0039062 C103.091797,71.0039062 102.874023,70.9248047 102.708008,70.7666016 C102.541992,70.6083984 102.458984,70.3632812 102.458984,70.03125 L102.458984,70.03125 L102.458984,66.5625 L104.304688,66.5625 L104.304688,65.5195312 L102.458984,65.5195312 L102.458984,64.078125 L101.609375,64.078125 L101.140625,65.4492188 L100.191406,65.953125 L100.191406,66.5625 L101.076172,66.5625 L101.076172,70.0546875 C101.076172,71.4296875 101.728516,72.1171875 103.033203,72.1171875 Z M108.330078,72.1171875 C109.298828,72.1171875 110.054688,71.8203125 110.597656,71.2265625 C111.140625,70.6328125 111.412109,69.8066406 111.412109,68.7480469 C111.412109,67.7246094 111.138672,66.9111328 110.591797,66.3076172 C110.044922,65.7041016 109.302734,65.4023438 108.365234,65.4023438 C107.384766,65.4023438 106.625,65.6972656 106.085938,66.2871094 C105.546875,66.8769531 105.277344,67.6972656 105.277344,68.7480469 C105.277344,69.4238281 105.402344,70.0175781 105.652344,70.5292969 C105.902344,71.0410156 106.259766,71.4335938 106.724609,71.7070312 C107.189453,71.9804688 107.724609,72.1171875 108.330078,72.1171875 Z M108.353516,70.9921875 C107.248047,70.9921875 106.695312,70.2441406 106.695312,68.7480469 C106.695312,68.0332031 106.825195,67.484375 107.084961,67.1015625 C107.344727,66.71875 107.763672,66.5273438 108.341797,66.5273438 C109.443359,66.5273438 109.994141,67.2675781 109.994141,68.7480469 C109.994141,70.2441406 109.447266,70.9921875 108.353516,70.9921875 Z M117.980469,74.8828125 C119.125,74.8828125 120,74.6835938 120.605469,74.2851562 C121.210938,73.8867188 121.513672,73.3203125 121.513672,72.5859375 C121.513672,72.0117188 121.328125,71.5722656 120.957031,71.2675781 C120.585938,70.9628906 120.042969,70.8105469 119.328125,70.8105469 L119.328125,70.8105469 L118.197266,70.8105469 C117.826172,70.8105469 117.571289,70.7734375 117.432617,70.6992188 C117.293945,70.625 117.224609,70.5136719 117.224609,70.3652344 C117.224609,70.1191406 117.373047,69.9042969 117.669922,69.7207031 C117.837891,69.7519531 118.025391,69.7675781 118.232422,69.7675781 C119.041016,69.7675781 119.675781,69.5761719 120.136719,69.1933594 C120.597656,68.8105469 120.828125,68.2851562 120.828125,67.6171875 C120.828125,67.3945312 120.794922,67.1835938 120.728516,66.984375 C120.662109,66.7851562 120.578125,66.6171875 120.476562,66.4804688 L120.476562,66.4804688 L121.583984,66.2753906 L121.583984,65.5195312 L119.339844,65.5195312 C119.238281,65.4921875 119.086914,65.4658203 118.885742,65.4404297 C118.68457,65.4150391 118.492188,65.4023438 118.308594,65.4023438 C117.488281,65.4023438 116.856445,65.5957031 116.413086,65.9824219 C115.969727,66.3691406 115.748047,66.9140625 115.748047,67.6171875 C115.748047,68.0546875 115.852539,68.4365234 116.061523,68.7626953 C116.270508,69.0888672 116.542969,69.3242188 116.878906,69.46875 C116.609375,69.6328125 116.40625,69.7988281 116.269531,69.9667969 C116.132812,70.1347656 116.064453,70.3398438 116.064453,70.5820312 C116.064453,70.7734375 116.124023,70.9560547 116.243164,71.1298828 C116.362305,71.3037109 116.513672,71.4296875 116.697266,71.5078125 C116.244141,71.6132812 115.891602,71.8017578 115.639648,72.0732422 C115.387695,72.3447266 115.261719,72.6796875 115.261719,73.078125 C115.261719,73.65625 115.494141,74.1015625 115.958984,74.4140625 C116.423828,74.7265625 117.097656,74.8828125 117.980469,74.8828125 Z M118.296875,68.8828125 C117.90625,68.8828125 117.606445,68.7734375 117.397461,68.5546875 C117.188477,68.3359375 117.083984,68.0234375 117.083984,67.6171875 C117.083984,67.1835938 117.186523,66.8535156 117.391602,66.6269531 C117.59668,66.4003906 117.898438,66.2871094 118.296875,66.2871094 C118.699219,66.2871094 118.999023,66.4013672 119.196289,66.6298828 C119.393555,66.8583984 119.492188,67.1835938 119.492188,67.6054688 C119.492188,68.4570312 119.09375,68.8828125 118.296875,68.8828125 Z M118.021484,73.9335938 C117.537109,73.9335938 117.161133,73.8535156 116.893555,73.6933594 C116.625977,73.5332031 116.492188,73.3046875 116.492188,73.0078125 C116.492188,72.6914062 116.608398,72.4404297 116.84082,72.2548828 C117.073242,72.0693359 117.386719,71.9765625 117.78125,71.9765625 L117.78125,71.9765625 L118.824219,71.9765625 C119.371094,71.9765625 119.745117,72.0361328 119.946289,72.1552734 C120.147461,72.2744141 120.248047,72.4746094 120.248047,72.7558594 C120.248047,73.1113281 120.064453,73.3964844 119.697266,73.6113281 C119.330078,73.8261719 118.771484,73.9335938 118.021484,73.9335938 Z M124.162109,72 L124.162109,68.6132812 C124.162109,68.0390625 124.333008,67.5722656 124.674805,67.2128906 C125.016602,66.8535156 125.462891,66.6738281 126.013672,66.6738281 C126.224609,66.6738281 126.427734,66.6972656 126.623047,66.7441406 L126.623047,66.7441406 L126.757812,65.4609375 C126.578125,65.421875 126.349609,65.4023438 126.072266,65.4023438 C125.673828,65.4023438 125.301758,65.515625 124.956055,65.7421875 C124.610352,65.96875 124.330078,66.2753906 124.115234,66.6621094 L124.115234,66.6621094 L124.044922,66.6621094 L123.863281,65.5195312 L122.785156,65.5195312 L122.785156,72 L124.162109,72 Z M130.625,72.1171875 C131.59375,72.1171875 132.349609,71.8203125 132.892578,71.2265625 C133.435547,70.6328125 133.707031,69.8066406 133.707031,68.7480469 C133.707031,67.7246094 133.433594,66.9111328 132.886719,66.3076172 C132.339844,65.7041016 131.597656,65.4023438 130.660156,65.4023438 C129.679688,65.4023438 128.919922,65.6972656 128.380859,66.2871094 C127.841797,66.8769531 127.572266,67.6972656 127.572266,68.7480469 C127.572266,69.4238281 127.697266,70.0175781 127.947266,70.5292969 C128.197266,71.0410156 128.554688,71.4335938 129.019531,71.7070312 C129.484375,71.9804688 130.019531,72.1171875 130.625,72.1171875 Z M130.648438,70.9921875 C129.542969,70.9921875 128.990234,70.2441406 128.990234,68.7480469 C128.990234,68.0332031 129.120117,67.484375 129.379883,67.1015625 C129.639648,66.71875 130.058594,66.5273438 130.636719,66.5273438 C131.738281,66.5273438 132.289062,67.2675781 132.289062,68.7480469 C132.289062,70.2441406 131.742188,70.9921875 130.648438,70.9921875 Z M137.568359,72.1171875 C138.021484,72.1171875 138.424805,72.03125 138.77832,71.859375 C139.131836,71.6875 139.404297,71.4511719 139.595703,71.1503906 L139.595703,71.1503906 L139.666016,71.1503906 L139.859375,72 L140.943359,72 L140.943359,65.5195312 L139.560547,65.5195312 L139.560547,68.7480469 C139.560547,69.5605469 139.424805,70.1396484 139.15332,70.4853516 C138.881836,70.8310547 138.457031,71.0039062 137.878906,71.0039062 C137.445312,71.0039062 137.126953,70.8798828 136.923828,70.6318359 C136.720703,70.3837891 136.619141,70.0117188 136.619141,69.515625 L136.619141,69.515625 L136.619141,65.5195312 L135.230469,65.5195312 L135.230469,69.7558594 C135.230469,70.5488281 135.423828,71.140625 135.810547,71.53125 C136.197266,71.921875 136.783203,72.1171875 137.568359,72.1171875 Z M144.283203,74.8828125 L144.283203,72.2285156 C144.283203,72.1113281 144.255859,71.7792969 144.201172,71.2324219 L144.201172,71.2324219 L144.283203,71.2324219 C144.736328,71.8222656 145.373047,72.1171875 146.193359,72.1171875 C147.001953,72.1171875 147.635742,71.8203125 148.094727,71.2265625 C148.553711,70.6328125 148.783203,69.8066406 148.783203,68.7480469 C148.783203,67.6894531 148.557617,66.8671875 148.106445,66.28125 C147.655273,65.6953125 147.025391,65.4023438 146.216797,65.4023438 C145.357422,65.4023438 144.712891,65.7304688 144.283203,66.3867188 L144.283203,66.3867188 L144.212891,66.3867188 C144.115234,65.9296875 144.050781,65.640625 144.019531,65.5195312 L144.019531,65.5195312 L142.90625,65.5195312 L142.90625,74.8828125 L144.283203,74.8828125 Z M145.882812,70.9921875 C145.316406,70.9921875 144.908203,70.8154297 144.658203,70.4619141 C144.408203,70.1083984 144.283203,69.5371094 144.283203,68.7480469 L144.283203,68.7480469 L144.283203,68.5429688 C144.283203,67.8398438 144.40918,67.328125 144.661133,67.0078125 C144.913086,66.6875 145.3125,66.5273438 145.859375,66.5273438 C146.355469,66.5273438 146.731445,66.7138672 146.987305,67.0869141 C147.243164,67.4599609 147.371094,68.0097656 147.371094,68.7363281 C147.371094,69.4589844 147.242188,70.015625 146.984375,70.40625 C146.726562,70.796875 146.359375,70.9921875 145.882812,70.9921875 Z M152.064453,72.1171875 C152.923828,72.1171875 153.583984,71.9482422 154.044922,71.6103516 C154.505859,71.2724609 154.736328,70.7871094 154.736328,70.1542969 C154.736328,69.8417969 154.677734,69.5732422 154.560547,69.3486328 C154.443359,69.1240234 154.263672,68.9257812 154.021484,68.7539062 C153.779297,68.5820312 153.390625,68.3925781 152.855469,68.1855469 C152.21875,67.9394531 151.805664,67.7460938 151.616211,67.6054688 C151.426758,67.4648438 151.332031,67.2929688 151.332031,67.0898438 C151.332031,66.6757812 151.695312,66.46875 152.421875,66.46875 C152.898438,66.46875 153.486328,66.6132812 154.185547,66.9023438 L154.185547,66.9023438 L154.630859,65.8652344 C153.951172,65.5566406 153.230469,65.4023438 152.46875,65.4023438 C151.699219,65.4023438 151.09082,65.5556641 150.643555,65.8623047 C150.196289,66.1689453 149.972656,66.5996094 149.972656,67.1542969 C149.972656,67.6152344 150.104492,67.9902344 150.368164,68.2792969 C150.631836,68.5683594 151.136719,68.8574219 151.882812,69.1464844 C152.265625,69.2949219 152.564453,69.4277344 152.779297,69.5449219 C152.994141,69.6621094 153.148438,69.7753906 153.242188,69.8847656 C153.335938,69.9941406 153.382812,70.1308594 153.382812,70.2949219 C153.382812,70.8066406 152.958984,71.0625 152.111328,71.0625 C151.455078,71.0625 150.746094,70.8867188 149.984375,70.5351562 L149.984375,70.5351562 L149.984375,71.7246094 C150.507812,71.9863281 151.201172,72.1171875 152.064453,72.1171875 Z M156.886719,72.1699219 C157.167969,72.1699219 157.383789,72.0888672 157.53418,71.9267578 C157.68457,71.7646484 157.759766,71.5449219 157.759766,71.2675781 C157.759766,70.9941406 157.685547,70.7783203 157.537109,70.6201172 C157.388672,70.4619141 157.171875,70.3828125 156.886719,70.3828125 C156.605469,70.3828125 156.390625,70.4589844 156.242188,70.6113281 C156.09375,70.7636719 156.019531,70.9824219 156.019531,71.2675781 C156.019531,71.5488281 156.09375,71.7695312 156.242188,71.9296875 C156.390625,72.0898438 156.605469,72.1699219 156.886719,72.1699219 Z" id="Sortitemsintogroups." fill="#FFFFFF" fill-rule="nonzero"></path>
                    <line x1="2" y1="28" x2="161" y2="28" id="Line-2" stroke="#FFFFFF" stroke-width="4" stroke-linecap="square"></line>
                </g>
                <path d="M48.140625,18.15625 C49.2760417,18.15625 50.2916667,17.9869792 51.1875,17.6484375 L51.1875,17.6484375 L51.1875,16.046875 C50.6979167,16.1979167 50.2265625,16.3216146 49.7734375,16.4179688 C49.3203125,16.5143229 48.8515625,16.5625 48.3671875,16.5625 C47.2473958,16.5625 46.3919271,16.203125 45.8007812,15.484375 C45.2096354,14.765625 44.9140625,13.7057292 44.9140625,12.3046875 C44.9140625,10.9661458 45.2213542,9.91666667 45.8359375,9.15625 C46.4505208,8.39583333 47.2942708,8.015625 48.3671875,8.015625 C48.8411458,8.015625 49.2929688,8.08463542 49.7226562,8.22265625 C50.1523438,8.36067708 50.5598958,8.52083333 50.9453125,8.703125 L50.9453125,8.703125 L51.6171875,7.1484375 C50.6276042,6.65885417 49.5494792,6.4140625 48.3828125,6.4140625 C47.2734375,6.4140625 46.3072917,6.65104167 45.484375,7.125 C44.6614583,7.59895833 44.0325521,8.28125 43.5976562,9.171875 C43.1627604,10.0625 42.9453125,11.1015625 42.9453125,12.2890625 C42.9453125,14.1744792 43.3932292,15.6236979 44.2890625,16.6367188 C45.1848958,17.6497396 46.46875,18.15625 48.140625,18.15625 Z M55.546875,18.15625 C56.2083333,18.15625 56.75,18.0611979 57.171875,17.8710938 C57.59375,17.6809896 58.0130208,17.3229167 58.4296875,16.796875 L58.4296875,16.796875 L58.4921875,16.796875 L58.859375,18 L60.171875,18 L60.171875,12.1796875 C60.171875,11.1536458 59.8919271,10.4010417 59.3320312,9.921875 C58.7721354,9.44270833 57.9427083,9.203125 56.84375,9.203125 C56.3489583,9.203125 55.8229167,9.26692708 55.265625,9.39453125 C54.7083333,9.52213542 54.1953125,9.70833333 53.7265625,9.953125 L53.7265625,9.953125 L54.3203125,11.265625 C54.6953125,11.0885417 55.0859375,10.9348958 55.4921875,10.8046875 C55.8984375,10.6744792 56.3229167,10.609375 56.765625,10.609375 C57.3072917,10.609375 57.7070312,10.7460938 57.9648438,11.0195312 C58.2226562,11.2929688 58.3515625,11.7057292 58.3515625,12.2578125 L58.3515625,12.2578125 L58.3515625,12.71875 L56.859375,12.765625 C55.5052083,12.8072917 54.4973958,13.0546875 53.8359375,13.5078125 C53.1744792,13.9609375 52.84375,14.6328125 52.84375,15.5234375 C52.84375,16.3619792 53.0820312,17.0104167 53.5585938,17.46875 C54.0351562,17.9270833 54.6979167,18.15625 55.546875,18.15625 Z M56.125,16.75 C55.6666667,16.75 55.3229167,16.6445312 55.09375,16.4335938 C54.8645833,16.2226562 54.75,15.9244792 54.75,15.5390625 C54.75,15.0078125 54.9466146,14.6132812 55.3398438,14.3554688 C55.7330729,14.0976562 56.3619792,13.953125 57.2265625,13.921875 L57.2265625,13.921875 L58.3359375,13.875 L58.3359375,14.625 C58.3359375,15.296875 58.1341146,15.8190104 57.7304688,16.1914062 C57.3268229,16.5638021 56.7916667,16.75 56.125,16.75 Z M65.515625,18.15625 C65.859375,18.15625 66.1914062,18.1263021 66.5117188,18.0664062 C66.8320312,18.0065104 67.09375,17.9322917 67.296875,17.84375 L67.296875,17.84375 L67.296875,16.4609375 C66.8489583,16.6015625 66.4010417,16.671875 65.953125,16.671875 C65.59375,16.671875 65.3033854,16.5664062 65.0820312,16.3554688 C64.8606771,16.1445312 64.75,15.8177083 64.75,15.375 L64.75,15.375 L64.75,10.75 L67.2109375,10.75 L67.2109375,9.359375 L64.75,9.359375 L64.75,7.4375 L63.6171875,7.4375 L62.9921875,9.265625 L61.7265625,9.9375 L61.7265625,10.75 L62.90625,10.75 L62.90625,15.40625 C62.90625,17.2395833 63.7760417,18.15625 65.515625,18.15625 Z M72.796875,18.15625 C73.3854167,18.15625 73.9088542,18.1119792 74.3671875,18.0234375 C74.8255208,17.9348958 75.2786458,17.7838542 75.7265625,17.5703125 L75.7265625,17.5703125 L75.7265625,16.078125 C75.2213542,16.3020833 74.7486979,16.4622396 74.3085938,16.5585938 C73.8684896,16.6549479 73.3932292,16.703125 72.8828125,16.703125 C72.1067708,16.703125 71.5052083,16.4778646 71.078125,16.0273438 C70.6510417,15.5768229 70.4244792,14.9322917 70.3984375,14.09375 L70.3984375,14.09375 L76.15625,14.09375 L76.15625,13.1015625 C76.15625,11.8880208 75.8255208,10.9348958 75.1640625,10.2421875 C74.5026042,9.54947917 73.6015625,9.203125 72.4609375,9.203125 C71.2317708,9.203125 70.265625,9.60677083 69.5625,10.4140625 C68.859375,11.2213542 68.5078125,12.3307292 68.5078125,13.7421875 C68.5078125,15.1171875 68.8867188,16.1966146 69.6445312,16.9804688 C70.4023438,17.7643229 71.453125,18.15625 72.796875,18.15625 Z M74.3515625,12.765625 L70.4296875,12.765625 C70.4973958,12.0572917 70.7070312,11.5182292 71.0585938,11.1484375 C71.4101562,10.7786458 71.8776042,10.59375 72.4609375,10.59375 C73.0442708,10.59375 73.5026042,10.7773438 73.8359375,11.1445312 C74.1692708,11.5117188 74.3411458,12.0520833 74.3515625,12.765625 L74.3515625,12.765625 Z M80.734375,21.84375 C82.2604167,21.84375 83.4270833,21.578125 84.234375,21.046875 C85.0416667,20.515625 85.4453125,19.7604167 85.4453125,18.78125 C85.4453125,18.015625 85.1979167,17.4296875 84.703125,17.0234375 C84.2083333,16.6171875 83.484375,16.4140625 82.53125,16.4140625 L82.53125,16.4140625 L81.0234375,16.4140625 C80.5286458,16.4140625 80.1888021,16.3645833 80.0039062,16.265625 C79.8190104,16.1666667 79.7265625,16.0182292 79.7265625,15.8203125 C79.7265625,15.4921875 79.9244792,15.2057292 80.3203125,14.9609375 C80.5442708,15.0026042 80.7942708,15.0234375 81.0703125,15.0234375 C82.1484375,15.0234375 82.9947917,14.7682292 83.609375,14.2578125 C84.2239583,13.7473958 84.53125,13.046875 84.53125,12.15625 C84.53125,11.859375 84.4869792,11.578125 84.3984375,11.3125 C84.3098958,11.046875 84.1979167,10.8229167 84.0625,10.640625 L84.0625,10.640625 L85.5390625,10.3671875 L85.5390625,9.359375 L82.546875,9.359375 C82.4114583,9.32291667 82.2096354,9.28776042 81.9414062,9.25390625 C81.6731771,9.22005208 81.4166667,9.203125 81.171875,9.203125 C80.078125,9.203125 79.2356771,9.4609375 78.6445312,9.9765625 C78.0533854,10.4921875 77.7578125,11.21875 77.7578125,12.15625 C77.7578125,12.7395833 77.8971354,13.2486979 78.1757812,13.6835938 C78.4544271,14.1184896 78.8177083,14.4322917 79.265625,14.625 C78.90625,14.84375 78.6354167,15.0651042 78.453125,15.2890625 C78.2708333,15.5130208 78.1796875,15.7864583 78.1796875,16.109375 C78.1796875,16.3645833 78.2591146,16.6080729 78.4179688,16.8398438 C78.5768229,17.0716146 78.7786458,17.2395833 79.0234375,17.34375 C78.4192708,17.484375 77.9492188,17.7356771 77.6132812,18.0976562 C77.2773438,18.4596354 77.109375,18.90625 77.109375,19.4375 C77.109375,20.2083333 77.4192708,20.8020833 78.0390625,21.21875 C78.6588542,21.6354167 79.5572917,21.84375 80.734375,21.84375 Z M81.15625,13.84375 C80.6354167,13.84375 80.2356771,13.6979167 79.9570312,13.40625 C79.6783854,13.1145833 79.5390625,12.6979167 79.5390625,12.15625 C79.5390625,11.578125 79.6757812,11.1380208 79.9492188,10.8359375 C80.2226562,10.5338542 80.625,10.3828125 81.15625,10.3828125 C81.6927083,10.3828125 82.0924479,10.5351562 82.3554688,10.8398438 C82.6184896,11.1445312 82.75,11.578125 82.75,12.140625 C82.75,13.2760417 82.21875,13.84375 81.15625,13.84375 Z M80.7890625,20.578125 C80.1432292,20.578125 79.6419271,20.4713542 79.2851562,20.2578125 C78.9283854,20.0442708 78.75,19.7395833 78.75,19.34375 C78.75,18.921875 78.9049479,18.5872396 79.2148438,18.3398438 C79.5247396,18.0924479 79.9427083,17.96875 80.46875,17.96875 L80.46875,17.96875 L81.859375,17.96875 C82.5885417,17.96875 83.0872396,18.0481771 83.3554688,18.2070312 C83.6236979,18.3658854 83.7578125,18.6328125 83.7578125,19.0078125 C83.7578125,19.4817708 83.5130208,19.8619792 83.0234375,20.1484375 C82.5338542,20.4348958 81.7890625,20.578125 80.7890625,20.578125 Z M90.6953125,18.15625 C91.9869792,18.15625 92.9947917,17.7604167 93.71875,16.96875 C94.4427083,16.1770833 94.8046875,15.0755208 94.8046875,13.6640625 C94.8046875,12.2994792 94.4401042,11.2148438 93.7109375,10.4101562 C92.9817708,9.60546875 91.9921875,9.203125 90.7421875,9.203125 C89.4348958,9.203125 88.421875,9.59635417 87.703125,10.3828125 C86.984375,11.1692708 86.625,12.2630208 86.625,13.6640625 C86.625,14.5651042 86.7916667,15.3567708 87.125,16.0390625 C87.4583333,16.7213542 87.9348958,17.2447917 88.5546875,17.609375 C89.1744792,17.9739583 89.8880208,18.15625 90.6953125,18.15625 Z M90.7265625,16.65625 C89.2526042,16.65625 88.515625,15.6588542 88.515625,13.6640625 C88.515625,12.7109375 88.6888021,11.9791667 89.0351562,11.46875 C89.3815104,10.9583333 89.9401042,10.703125 90.7109375,10.703125 C92.1796875,10.703125 92.9140625,11.6901042 92.9140625,13.6640625 C92.9140625,15.6588542 92.1848958,16.65625 90.7265625,16.65625 Z M98.75,18 L98.75,13.484375 C98.75,12.71875 98.9778646,12.0963542 99.4335938,11.6171875 C99.8893229,11.1380208 100.484375,10.8984375 101.21875,10.8984375 C101.5,10.8984375 101.770833,10.9296875 102.03125,10.9921875 L102.03125,10.9921875 L102.210938,9.28125 C101.971354,9.22916667 101.666667,9.203125 101.296875,9.203125 C100.765625,9.203125 100.269531,9.35416667 99.8085938,9.65625 C99.3476562,9.95833333 98.9739583,10.3671875 98.6875,10.8828125 L98.6875,10.8828125 L98.59375,10.8828125 L98.3515625,9.359375 L96.9140625,9.359375 L96.9140625,18 L98.75,18 Z M104.742188,8.078125 C105.065104,8.078125 105.316406,7.98828125 105.496094,7.80859375 C105.675781,7.62890625 105.765625,7.3828125 105.765625,7.0703125 C105.765625,6.7421875 105.675781,6.48958333 105.496094,6.3125 C105.316406,6.13541667 105.065104,6.046875 104.742188,6.046875 C104.408854,6.046875 104.152344,6.13541667 103.972656,6.3125 C103.792969,6.48958333 103.703125,6.7421875 103.703125,7.0703125 C103.703125,7.3828125 103.792969,7.62890625 103.972656,7.80859375 C104.152344,7.98828125 104.408854,8.078125 104.742188,8.078125 Z M105.648438,18 L105.648438,9.359375 L103.8125,9.359375 L103.8125,18 L105.648438,18 Z M110.515625,18.15625 C111.661458,18.15625 112.541667,17.9309896 113.15625,17.4804688 C113.770833,17.0299479 114.078125,16.3828125 114.078125,15.5390625 C114.078125,15.1223958 114,14.7643229 113.84375,14.4648438 C113.6875,14.1653646 113.447917,13.9010417 113.125,13.671875 C112.802083,13.4427083 112.283854,13.1901042 111.570312,12.9140625 C110.721354,12.5859375 110.170573,12.328125 109.917969,12.140625 C109.665365,11.953125 109.539062,11.7239583 109.539062,11.453125 C109.539062,10.9010417 110.023438,10.625 110.992188,10.625 C111.627604,10.625 112.411458,10.8177083 113.34375,11.203125 L113.34375,11.203125 L113.9375,9.8203125 C113.03125,9.40885417 112.070312,9.203125 111.054688,9.203125 C110.028646,9.203125 109.217448,9.40755208 108.621094,9.81640625 C108.02474,10.2252604 107.726562,10.7994792 107.726562,11.5390625 C107.726562,12.1536458 107.902344,12.6536458 108.253906,13.0390625 C108.605469,13.4244792 109.278646,13.8098958 110.273438,14.1953125 C110.783854,14.3932292 111.182292,14.5703125 111.46875,14.7265625 C111.755208,14.8828125 111.960938,15.0338542 112.085938,15.1796875 C112.210938,15.3255208 112.273438,15.5078125 112.273438,15.7265625 C112.273438,16.4088542 111.708333,16.75 110.578125,16.75 C109.703125,16.75 108.757812,16.515625 107.742188,16.046875 L107.742188,16.046875 L107.742188,17.6328125 C108.440104,17.9817708 109.364583,18.15625 110.515625,18.15625 Z M119.835938,18.15625 C120.424479,18.15625 120.947917,18.1119792 121.40625,18.0234375 C121.864583,17.9348958 122.317708,17.7838542 122.765625,17.5703125 L122.765625,17.5703125 L122.765625,16.078125 C122.260417,16.3020833 121.78776,16.4622396 121.347656,16.5585938 C120.907552,16.6549479 120.432292,16.703125 119.921875,16.703125 C119.145833,16.703125 118.544271,16.4778646 118.117188,16.0273438 C117.690104,15.5768229 117.463542,14.9322917 117.4375,14.09375 L117.4375,14.09375 L123.195312,14.09375 L123.195312,13.1015625 C123.195312,11.8880208 122.864583,10.9348958 122.203125,10.2421875 C121.541667,9.54947917 120.640625,9.203125 119.5,9.203125 C118.270833,9.203125 117.304688,9.60677083 116.601562,10.4140625 C115.898438,11.2213542 115.546875,12.3307292 115.546875,13.7421875 C115.546875,15.1171875 115.925781,16.1966146 116.683594,16.9804688 C117.441406,17.7643229 118.492188,18.15625 119.835938,18.15625 Z M121.390625,12.765625 L117.46875,12.765625 C117.536458,12.0572917 117.746094,11.5182292 118.097656,11.1484375 C118.449219,10.7786458 118.916667,10.59375 119.5,10.59375 C120.083333,10.59375 120.541667,10.7773438 120.875,11.1445312 C121.208333,11.5117188 121.380208,12.0520833 121.390625,12.765625 L121.390625,12.765625 Z" fill="#FFFFFF" fill-rule="nonzero"></path>
            </g>
        </g>
    </g>
</svg>