<?xml version="1.0" encoding="UTF-8"?>
<svg width="165px" height="97px" viewBox="0 0 165 97" version="1.1" xmlns="http://www.w3.org/2000/svg" xmlns:xlink="http://www.w3.org/1999/xlink">
    <!-- Generator: Sketch 62 (91390) - https://sketch.com -->
    <title>Combine</title>
    <desc>Created with Sketch.</desc>
    <defs>
        <radialGradient cx="26.0530847%" cy="62.3934409%" fx="26.0530847%" fy="62.3934409%" r="35.1006849%" gradientTransform="translate(0.260531,0.623934),scale(0.595092,1.000000),rotate(-90.000000),translate(-0.260531,-0.623934)" id="radialGradient-1">
            <stop stop-color="#F5836F" offset="0%"></stop>
            <stop stop-color="#E74C3C" offset="100%"></stop>
        </radialGradient>
        <path d="M6.52441406,18.1660156 C7.73079427,18.1660156 8.80989583,17.9861654 9.76171875,17.6264648 L9.76171875,17.6264648 L9.76171875,15.9248047 C9.24153646,16.0852865 8.74072266,16.2167155 8.25927734,16.3190918 C7.77783203,16.4214681 7.27978516,16.4726562 6.76513672,16.4726562 C5.57535807,16.4726562 4.66642253,16.0908203 4.03833008,15.3271484 C3.41023763,14.5634766 3.09619141,13.4373372 3.09619141,11.9487305 C3.09619141,10.5265299 3.4226888,9.41145833 4.07568359,8.60351562 C4.72867839,7.79557292 5.62516276,7.39160156 6.76513672,7.39160156 C7.26871745,7.39160156 7.7487793,7.46492513 8.20532227,7.61157227 C8.66186523,7.7582194 9.09488932,7.92838542 9.50439453,8.12207031 L9.50439453,8.12207031 L10.2182617,6.47021484 C9.16682943,5.95003255 8.02132161,5.68994141 6.78173828,5.68994141 C5.60302734,5.68994141 4.5764974,5.94173177 3.70214844,6.4453125 C2.82779948,6.94889323 2.15958659,7.67382812 1.69750977,8.62011719 C1.23543294,9.56640625 1.00439453,10.6704102 1.00439453,11.9321289 C1.00439453,13.9353841 1.48030599,15.475179 2.43212891,16.5515137 C3.38395182,17.6278483 4.74804688,18.1660156 6.52441406,18.1660156 Z M15.9458008,18.1660156 C17.3181966,18.1660156 18.3889974,17.7454427 19.1582031,16.9042969 C19.9274089,16.063151 20.3120117,14.8927409 20.3120117,13.3930664 C20.3120117,11.9431966 19.9246419,10.7907715 19.1499023,9.93579102 C18.3751628,9.08081055 17.3237305,8.65332031 15.9956055,8.65332031 C14.6066081,8.65332031 13.5302734,9.0711263 12.7666016,9.90673828 C12.0029297,10.7423503 11.6210938,11.9044596 11.6210938,13.3930664 C11.6210938,14.3504232 11.7981771,15.191569 12.1523438,15.9165039 C12.5065104,16.6414388 13.0128581,17.1975911 13.6713867,17.5849609 C14.3299154,17.9723307 15.0880534,18.1660156 15.9458008,18.1660156 Z M15.9790039,16.5722656 C14.4129232,16.5722656 13.6298828,15.5125326 13.6298828,13.3930664 C13.6298828,12.3803711 13.8138835,11.6028646 14.1818848,11.0605469 C14.5498861,10.5182292 15.1433919,10.2470703 15.9624023,10.2470703 C17.5229492,10.2470703 18.3032227,11.2957357 18.3032227,13.3930664 C18.3032227,15.5125326 17.5284831,16.5722656 15.9790039,16.5722656 Z M24.5039062,18 L24.5039062,13.4262695 C24.5039062,12.2862956 24.6796061,11.4714355 25.0310059,10.9816895 C25.3824056,10.4919434 25.9344076,10.2470703 26.6870117,10.2470703 C27.2514648,10.2470703 27.6665039,10.4200033 27.9321289,10.7658691 C28.1977539,11.111735 28.3305664,11.6360677 28.3305664,12.3388672 L28.3305664,12.3388672 L28.3305664,18 L30.2895508,18 L30.2895508,13.1357422 C30.2895508,12.15625 30.4652507,11.4299316 30.8166504,10.9567871 C31.1680501,10.4836426 31.722819,10.2470703 32.480957,10.2470703 C33.0454102,10.2470703 33.4618327,10.4200033 33.7302246,10.7658691 C33.9986165,11.111735 34.1328125,11.6360677 34.1328125,12.3388672 L34.1328125,12.3388672 L34.1328125,18 L36.0834961,18 L36.0834961,12.0151367 C36.0834961,10.8806966 35.8330892,10.0367839 35.3322754,9.48339844 C34.8314616,8.93001302 34.0332031,8.65332031 32.9375,8.65332031 C32.3011068,8.65332031 31.7366536,8.78059896 31.2441406,9.03515625 C30.7516276,9.28971354 30.3697917,9.64388021 30.0986328,10.0976562 L30.0986328,10.0976562 L29.9658203,10.0976562 C29.5065104,9.13476562 28.5712891,8.65332031 27.1601562,8.65332031 C26.5791016,8.65332031 26.0464681,8.77229818 25.5622559,9.01025391 C25.0780436,9.24820964 24.7086589,9.58577474 24.4541016,10.0229492 L24.4541016,10.0229492 L24.3544922,10.0229492 L24.0805664,8.81933594 L22.5532227,8.81933594 L22.5532227,18 L24.5039062,18 Z M43.4628906,18.1660156 C44.6139323,18.1660156 45.5131836,17.7468262 46.1606445,16.9084473 C46.8081055,16.0700684 47.1318359,14.8982747 47.1318359,13.3930664 C47.1318359,11.8933919 46.8122559,10.7285156 46.1730957,9.8984375 C45.5339355,9.06835938 44.6416016,8.65332031 43.4960938,8.65332031 C42.2897135,8.65332031 41.3766276,9.10986328 40.7568359,10.0229492 L40.7568359,10.0229492 L40.6738281,10.0229492 C40.6848958,9.90120443 40.7014974,9.61621094 40.7236328,9.16796875 C40.7457682,8.71972656 40.7568359,8.38216146 40.7568359,8.15527344 L40.7568359,8.15527344 L40.7568359,5.08398438 L38.8061523,5.08398438 L38.8061523,18 L40.2670898,18 L40.6240234,16.9125977 L40.7568359,16.9125977 C41.398763,17.7482096 42.3007812,18.1660156 43.4628906,18.1660156 Z M43.0229492,16.5722656 C42.2205404,16.5722656 41.6422526,16.3218587 41.2880859,15.8210449 C40.9339193,15.3202311 40.7568359,14.5109049 40.7568359,13.3930664 L40.7568359,13.3930664 L40.7568359,13.2602539 C40.7679036,12.1756185 40.9463704,11.4022624 41.2922363,10.9401855 C41.6381022,10.4781087 42.2039388,10.2470703 42.9897461,10.2470703 C44.4174805,10.2470703 45.1313477,11.2902018 45.1313477,13.3764648 C45.1313477,14.4112956 44.9528809,15.2026367 44.5959473,15.7504883 C44.2390137,16.2983398 43.714681,16.5722656 43.0229492,16.5722656 Z M50.3857422,7.45800781 C50.7288411,7.45800781 50.9958496,7.36254883 51.1867676,7.17163086 C51.3776855,6.98071289 51.4731445,6.71923828 51.4731445,6.38720703 C51.4731445,6.03857422 51.3776855,5.77018229 51.1867676,5.58203125 C50.9958496,5.39388021 50.7288411,5.29980469 50.3857422,5.29980469 C50.0315755,5.29980469 49.7590332,5.39388021 49.5681152,5.58203125 C49.3771973,5.77018229 49.2817383,6.03857422 49.2817383,6.38720703 C49.2817383,6.71923828 49.3771973,6.98071289 49.5681152,7.17163086 C49.7590332,7.36254883 50.0315755,7.45800781 50.3857422,7.45800781 Z M51.3486328,18 L51.3486328,8.81933594 L49.3979492,8.81933594 L49.3979492,18 L51.3486328,18 Z M56.0883789,18 L56.0883789,13.4262695 C56.0883789,12.2807617 56.2792969,11.4645182 56.6611328,10.9775391 C57.0429688,10.4905599 57.6461589,10.2470703 58.4707031,10.2470703 C59.0904948,10.2470703 59.5428874,10.4213867 59.8278809,10.7700195 C60.1128743,11.1186523 60.2553711,11.6471354 60.2553711,12.3554688 L60.2553711,12.3554688 L60.2553711,18 L62.2143555,18 L62.2143555,12.0151367 C62.2143555,9.77392578 61.1131185,8.65332031 58.9106445,8.65332031 C58.2908529,8.65332031 57.7263997,8.77229818 57.2172852,9.01025391 C56.7081706,9.24820964 56.3152669,9.58577474 56.0385742,10.0229492 L56.0385742,10.0229492 L55.9389648,10.0229492 L55.6650391,8.81933594 L54.1376953,8.81933594 L54.1376953,18 L56.0883789,18 Z M68.9379883,18.1660156 C69.5633138,18.1660156 70.1194661,18.1189779 70.6064453,18.0249023 C71.0934245,17.9308268 71.5748698,17.7703451 72.0507812,17.543457 L72.0507812,17.543457 L72.0507812,15.9580078 C71.5139974,16.1959635 71.0118001,16.3661296 70.5441895,16.4685059 C70.0765788,16.5708822 69.5716146,16.6220703 69.0292969,16.6220703 C68.2047526,16.6220703 67.5655924,16.3827311 67.1118164,15.9040527 C66.6580404,15.4253743 66.4173177,14.7405599 66.3896484,13.8496094 L66.3896484,13.8496094 L72.5073242,13.8496094 L72.5073242,12.7954102 C72.5073242,11.5060221 72.1559245,10.4933268 71.453125,9.75732422 C70.7503255,9.02132161 69.7929688,8.65332031 68.5810547,8.65332031 C67.2750651,8.65332031 66.2485352,9.08219401 65.5014648,9.93994141 C64.7543945,10.7976888 64.3808594,11.9763997 64.3808594,13.4760742 C64.3808594,14.9370117 64.7834473,16.083903 65.588623,16.916748 C66.3937988,17.7495931 67.5102539,18.1660156 68.9379883,18.1660156 Z M70.5898438,12.4384766 L66.4228516,12.4384766 C66.4947917,11.6858724 66.7175293,11.1131185 67.0910645,10.7202148 C67.4645996,10.3273112 67.961263,10.1308594 68.5810547,10.1308594 C69.2008464,10.1308594 69.6878255,10.3259277 70.0419922,10.7160645 C70.3961589,11.1062012 70.578776,11.6803385 70.5898438,12.4384766 L70.5898438,12.4384766 Z" id="path-2"></path>
    </defs>
    <g id="Symbols" stroke="none" stroke-width="1" fill="none" fill-rule="evenodd">
        <g id="i/Combine">
            <g id="Combine">
                <polyline id="Line-2" stroke="#FFFFFF" stroke-width="4" stroke-linecap="square" points="4 3 22.4627861 3 163 3"></polyline>
                <path d="M6,0 L157,0 C160.313708,-6.08718376e-16 163,2.6862915 163,6 L163,91 C163,94.3137085 160.313708,97 157,97 L6,97 C2.6862915,97 4.05812251e-16,94.3137085 0,91 L0,6 C-4.05812251e-16,2.6862915 2.6862915,6.08718376e-16 6,0 Z" id="Rectangle-2" fill="url(#radialGradient-1)" fill-rule="nonzero"></path>
                <polyline id="Line-2" stroke="#FFFFFF" stroke-width="4" stroke-linecap="square" points="2 30 20.4627861 30 161 30"></polyline>
                <line x1="81" y1="45" x2="81" y2="85.0042519" id="Line-3" stroke="#FFFFFF" stroke-width="2" stroke-linecap="square"></line>
                <g id="Adverbs" transform="translate(43.000000, 2.000000)" fill="#FFFFFF" fill-rule="nonzero">
                    <g id="Combine">
                        <use xlink:href="#path-2"></use>
                        <use xlink:href="#path-2"></use>
                    </g>
                </g>
                <path d="M92.4023438,51 L92.4023438,46.8339844 C92.4023438,45.9042969 92.3691406,44.9082031 92.3027344,43.8457031 L92.3027344,43.8457031 L92.3496094,43.8457031 L94.8339844,51 L96.0703125,51 L98.6425781,43.8574219 L98.6894531,43.8574219 C98.6738281,44.0019531 98.6552734,44.4160156 98.6337891,45.0996094 C98.6123047,45.7832031 98.6015625,46.3378906 98.6015625,46.7636719 L98.6015625,46.7636719 L98.6015625,51 L99.9492188,51 L99.9492188,42.4335938 L97.96875,42.4335938 L95.5195312,49.2480469 L95.484375,49.2480469 L93.1054688,42.4335938 L91.1308594,42.4335938 L91.1308594,51 L92.4023438,51 Z M104.888672,51.1171875 C105.330078,51.1171875 105.722656,51.0839844 106.066406,51.0175781 C106.410156,50.9511719 106.75,50.8378906 107.085938,50.6777344 L107.085938,50.6777344 L107.085938,49.5585938 C106.707031,49.7265625 106.352539,49.8466797 106.022461,49.9189453 C105.692383,49.9912109 105.335938,50.0273438 104.953125,50.0273438 C104.371094,50.0273438 103.919922,49.8583984 103.599609,49.5205078 C103.279297,49.1826172 103.109375,48.6992188 103.089844,48.0703125 L103.089844,48.0703125 L107.408203,48.0703125 L107.408203,47.3261719 C107.408203,46.4160156 107.160156,45.7011719 106.664062,45.1816406 C106.167969,44.6621094 105.492188,44.4023438 104.636719,44.4023438 C103.714844,44.4023438 102.990234,44.7050781 102.462891,45.3105469 C101.935547,45.9160156 101.671875,46.7480469 101.671875,47.8066406 C101.671875,48.8378906 101.956055,49.6474609 102.524414,50.2353516 C103.092773,50.8232422 103.880859,51.1171875 104.888672,51.1171875 Z M106.054688,47.0742188 L103.113281,47.0742188 C103.164062,46.5429688 103.321289,46.1386719 103.584961,45.8613281 C103.848633,45.5839844 104.199219,45.4453125 104.636719,45.4453125 C105.074219,45.4453125 105.417969,45.5830078 105.667969,45.8583984 C105.917969,46.1337891 106.046875,46.5390625 106.054688,47.0742188 L106.054688,47.0742188 Z M110.349609,51 L110.349609,47.6132812 C110.349609,47.0390625 110.520508,46.5722656 110.862305,46.2128906 C111.204102,45.8535156 111.650391,45.6738281 112.201172,45.6738281 C112.412109,45.6738281 112.615234,45.6972656 112.810547,45.7441406 L112.810547,45.7441406 L112.945312,44.4609375 C112.765625,44.421875 112.537109,44.4023438 112.259766,44.4023438 C111.861328,44.4023438 111.489258,44.515625 111.143555,44.7421875 C110.797852,44.96875 110.517578,45.2753906 110.302734,45.6621094 L110.302734,45.6621094 L110.232422,45.6621094 L110.050781,44.5195312 L108.972656,44.5195312 L108.972656,51 L110.349609,51 Z M116.015625,53.8828125 C117.160156,53.8828125 118.035156,53.6835938 118.640625,53.2851562 C119.246094,52.8867188 119.548828,52.3203125 119.548828,51.5859375 C119.548828,51.0117188 119.363281,50.5722656 118.992188,50.2675781 C118.621094,49.9628906 118.078125,49.8105469 117.363281,49.8105469 L117.363281,49.8105469 L116.232422,49.8105469 C115.861328,49.8105469 115.606445,49.7734375 115.467773,49.6992188 C115.329102,49.625 115.259766,49.5136719 115.259766,49.3652344 C115.259766,49.1191406 115.408203,48.9042969 115.705078,48.7207031 C115.873047,48.7519531 116.060547,48.7675781 116.267578,48.7675781 C117.076172,48.7675781 117.710938,48.5761719 118.171875,48.1933594 C118.632812,47.8105469 118.863281,47.2851562 118.863281,46.6171875 C118.863281,46.3945312 118.830078,46.1835938 118.763672,45.984375 C118.697266,45.7851562 118.613281,45.6171875 118.511719,45.4804688 L118.511719,45.4804688 L119.619141,45.2753906 L119.619141,44.5195312 L117.375,44.5195312 C117.273438,44.4921875 117.12207,44.4658203 116.920898,44.4404297 C116.719727,44.4150391 116.527344,44.4023438 116.34375,44.4023438 C115.523438,44.4023438 114.891602,44.5957031 114.448242,44.9824219 C114.004883,45.3691406 113.783203,45.9140625 113.783203,46.6171875 C113.783203,47.0546875 113.887695,47.4365234 114.09668,47.7626953 C114.305664,48.0888672 114.578125,48.3242188 114.914062,48.46875 C114.644531,48.6328125 114.441406,48.7988281 114.304688,48.9667969 C114.167969,49.1347656 114.099609,49.3398438 114.099609,49.5820312 C114.099609,49.7734375 114.15918,49.9560547 114.27832,50.1298828 C114.397461,50.3037109 114.548828,50.4296875 114.732422,50.5078125 C114.279297,50.6132812 113.926758,50.8017578 113.674805,51.0732422 C113.422852,51.3447266 113.296875,51.6796875 113.296875,52.078125 C113.296875,52.65625 113.529297,53.1015625 113.994141,53.4140625 C114.458984,53.7265625 115.132812,53.8828125 116.015625,53.8828125 Z M116.332031,47.8828125 C115.941406,47.8828125 115.641602,47.7734375 115.432617,47.5546875 C115.223633,47.3359375 115.119141,47.0234375 115.119141,46.6171875 C115.119141,46.1835938 115.22168,45.8535156 115.426758,45.6269531 C115.631836,45.4003906 115.933594,45.2871094 116.332031,45.2871094 C116.734375,45.2871094 117.03418,45.4013672 117.231445,45.6298828 C117.428711,45.8583984 117.527344,46.1835938 117.527344,46.6054688 C117.527344,47.4570312 117.128906,47.8828125 116.332031,47.8828125 Z M116.056641,52.9335938 C115.572266,52.9335938 115.196289,52.8535156 114.928711,52.6933594 C114.661133,52.5332031 114.527344,52.3046875 114.527344,52.0078125 C114.527344,51.6914062 114.643555,51.4404297 114.875977,51.2548828 C115.108398,51.0693359 115.421875,50.9765625 115.816406,50.9765625 L115.816406,50.9765625 L116.859375,50.9765625 C117.40625,50.9765625 117.780273,51.0361328 117.981445,51.1552734 C118.182617,51.2744141 118.283203,51.4746094 118.283203,51.7558594 C118.283203,52.1113281 118.099609,52.3964844 117.732422,52.6113281 C117.365234,52.8261719 116.806641,52.9335938 116.056641,52.9335938 Z M123.650391,51.1171875 C124.091797,51.1171875 124.484375,51.0839844 124.828125,51.0175781 C125.171875,50.9511719 125.511719,50.8378906 125.847656,50.6777344 L125.847656,50.6777344 L125.847656,49.5585938 C125.46875,49.7265625 125.114258,49.8466797 124.78418,49.9189453 C124.454102,49.9912109 124.097656,50.0273438 123.714844,50.0273438 C123.132812,50.0273438 122.681641,49.8583984 122.361328,49.5205078 C122.041016,49.1826172 121.871094,48.6992188 121.851562,48.0703125 L121.851562,48.0703125 L126.169922,48.0703125 L126.169922,47.3261719 C126.169922,46.4160156 125.921875,45.7011719 125.425781,45.1816406 C124.929688,44.6621094 124.253906,44.4023438 123.398438,44.4023438 C122.476562,44.4023438 121.751953,44.7050781 121.224609,45.3105469 C120.697266,45.9160156 120.433594,46.7480469 120.433594,47.8066406 C120.433594,48.8378906 120.717773,49.6474609 121.286133,50.2353516 C121.854492,50.8232422 122.642578,51.1171875 123.650391,51.1171875 Z M124.816406,47.0742188 L121.875,47.0742188 C121.925781,46.5429688 122.083008,46.1386719 122.34668,45.8613281 C122.610352,45.5839844 122.960938,45.4453125 123.398438,45.4453125 C123.835938,45.4453125 124.179688,45.5830078 124.429688,45.8583984 C124.679688,46.1337891 124.808594,46.5390625 124.816406,47.0742188 L124.816406,47.0742188 Z M91.6816406,55.5585938 C91.9238281,55.5585938 92.1123047,55.4912109 92.2470703,55.3564453 C92.3818359,55.2216797 92.4492188,55.0371094 92.4492188,54.8027344 C92.4492188,54.5566406 92.3818359,54.3671875 92.2470703,54.234375 C92.1123047,54.1015625 91.9238281,54.0351562 91.6816406,54.0351562 C91.4316406,54.0351562 91.2392578,54.1015625 91.1044922,54.234375 C90.9697266,54.3671875 90.9023438,54.5566406 90.9023438,54.8027344 C90.9023438,55.0371094 90.9697266,55.2216797 91.1044922,55.3564453 C91.2392578,55.4912109 91.4316406,55.5585938 91.6816406,55.5585938 Z M92.3613281,63 L92.3613281,56.5195312 L90.984375,56.5195312 L90.984375,63 L92.3613281,63 Z M96.4160156,63.1171875 C96.6738281,63.1171875 96.9228516,63.0947266 97.1630859,63.0498047 C97.4033203,63.0048828 97.5996094,62.9492188 97.7519531,62.8828125 L97.7519531,62.8828125 L97.7519531,61.8457031 C97.4160156,61.9511719 97.0800781,62.0039062 96.7441406,62.0039062 C96.4746094,62.0039062 96.2568359,61.9248047 96.0908203,61.7666016 C95.9248047,61.6083984 95.8417969,61.3632812 95.8417969,61.03125 L95.8417969,61.03125 L95.8417969,57.5625 L97.6875,57.5625 L97.6875,56.5195312 L95.8417969,56.5195312 L95.8417969,55.078125 L94.9921875,55.078125 L94.5234375,56.4492188 L93.5742188,56.953125 L93.5742188,57.5625 L94.4589844,57.5625 L94.4589844,61.0546875 C94.4589844,62.4296875 95.1113281,63.1171875 96.4160156,63.1171875 Z M101.876953,63.1171875 C102.318359,63.1171875 102.710938,63.0839844 103.054688,63.0175781 C103.398438,62.9511719 103.738281,62.8378906 104.074219,62.6777344 L104.074219,62.6777344 L104.074219,61.5585938 C103.695312,61.7265625 103.34082,61.8466797 103.010742,61.9189453 C102.680664,61.9912109 102.324219,62.0273438 101.941406,62.0273438 C101.359375,62.0273438 100.908203,61.8583984 100.587891,61.5205078 C100.267578,61.1826172 100.097656,60.6992188 100.078125,60.0703125 L100.078125,60.0703125 L104.396484,60.0703125 L104.396484,59.3261719 C104.396484,58.4160156 104.148438,57.7011719 103.652344,57.1816406 C103.15625,56.6621094 102.480469,56.4023438 101.625,56.4023438 C100.703125,56.4023438 99.9785156,56.7050781 99.4511719,57.3105469 C98.9238281,57.9160156 98.6601562,58.7480469 98.6601562,59.8066406 C98.6601562,60.8378906 98.9443359,61.6474609 99.5126953,62.2353516 C100.081055,62.8232422 100.869141,63.1171875 101.876953,63.1171875 Z M103.042969,59.0742188 L100.101562,59.0742188 C100.152344,58.5429688 100.30957,58.1386719 100.573242,57.8613281 C100.836914,57.5839844 101.1875,57.4453125 101.625,57.4453125 C102.0625,57.4453125 102.40625,57.5830078 102.65625,57.8583984 C102.90625,58.1337891 103.035156,58.5390625 103.042969,59.0742188 L103.042969,59.0742188 Z M107.337891,63 L107.337891,59.7714844 C107.337891,58.9667969 107.461914,58.3916016 107.709961,58.0458984 C107.958008,57.7001953 108.347656,57.5273438 108.878906,57.5273438 C109.277344,57.5273438 109.570312,57.6494141 109.757812,57.8935547 C109.945312,58.1376953 110.039062,58.5078125 110.039062,59.0039062 L110.039062,59.0039062 L110.039062,63 L111.421875,63 L111.421875,59.5664062 C111.421875,58.875 111.545898,58.3623047 111.793945,58.0283203 C112.041992,57.6943359 112.433594,57.5273438 112.96875,57.5273438 C113.367188,57.5273438 113.661133,57.6494141 113.850586,57.8935547 C114.040039,58.1376953 114.134766,58.5078125 114.134766,59.0039062 L114.134766,59.0039062 L114.134766,63 L115.511719,63 L115.511719,58.7753906 C115.511719,57.9746094 115.334961,57.3789062 114.981445,56.9882812 C114.62793,56.5976562 114.064453,56.4023438 113.291016,56.4023438 C112.841797,56.4023438 112.443359,56.4921875 112.095703,56.671875 C111.748047,56.8515625 111.478516,57.1015625 111.287109,57.421875 L111.287109,57.421875 L111.193359,57.421875 C110.869141,56.7421875 110.208984,56.4023438 109.212891,56.4023438 C108.802734,56.4023438 108.426758,56.4863281 108.084961,56.6542969 C107.743164,56.8222656 107.482422,57.0605469 107.302734,57.3691406 L107.302734,57.3691406 L107.232422,57.3691406 L107.039062,56.5195312 L105.960938,56.5195312 L105.960938,63 L107.337891,63 Z M119.115234,63.1171875 C119.974609,63.1171875 120.634766,62.9482422 121.095703,62.6103516 C121.556641,62.2724609 121.787109,61.7871094 121.787109,61.1542969 C121.787109,60.8417969 121.728516,60.5732422 121.611328,60.3486328 C121.494141,60.1240234 121.314453,59.9257812 121.072266,59.7539062 C120.830078,59.5820312 120.441406,59.3925781 119.90625,59.1855469 C119.269531,58.9394531 118.856445,58.7460938 118.666992,58.6054688 C118.477539,58.4648438 118.382812,58.2929688 118.382812,58.0898438 C118.382812,57.6757812 118.746094,57.46875 119.472656,57.46875 C119.949219,57.46875 120.537109,57.6132812 121.236328,57.9023438 L121.236328,57.9023438 L121.681641,56.8652344 C121.001953,56.5566406 120.28125,56.4023438 119.519531,56.4023438 C118.75,56.4023438 118.141602,56.5556641 117.694336,56.8623047 C117.24707,57.1689453 117.023438,57.5996094 117.023438,58.1542969 C117.023438,58.6152344 117.155273,58.9902344 117.418945,59.2792969 C117.682617,59.5683594 118.1875,59.8574219 118.933594,60.1464844 C119.316406,60.2949219 119.615234,60.4277344 119.830078,60.5449219 C120.044922,60.6621094 120.199219,60.7753906 120.292969,60.8847656 C120.386719,60.9941406 120.433594,61.1308594 120.433594,61.2949219 C120.433594,61.8066406 120.009766,62.0625 119.162109,62.0625 C118.505859,62.0625 117.796875,61.8867188 117.035156,61.5351562 L117.035156,61.5351562 L117.035156,62.7246094 C117.558594,62.9863281 118.251953,63.1171875 119.115234,63.1171875 Z M127.089844,55.5585938 C127.332031,55.5585938 127.520508,55.4912109 127.655273,55.3564453 C127.790039,55.2216797 127.857422,55.0371094 127.857422,54.8027344 C127.857422,54.5566406 127.790039,54.3671875 127.655273,54.234375 C127.520508,54.1015625 127.332031,54.0351562 127.089844,54.0351562 C126.839844,54.0351562 126.647461,54.1015625 126.512695,54.234375 C126.37793,54.3671875 126.310547,54.5566406 126.310547,54.8027344 C126.310547,55.0371094 126.37793,55.2216797 126.512695,55.3564453 C126.647461,55.4912109 126.839844,55.5585938 127.089844,55.5585938 Z M127.769531,63 L127.769531,56.5195312 L126.392578,56.5195312 L126.392578,63 L127.769531,63 Z M131.115234,63 L131.115234,59.7714844 C131.115234,58.9628906 131.25,58.3867188 131.519531,58.0429688 C131.789062,57.6992188 132.214844,57.5273438 132.796875,57.5273438 C133.234375,57.5273438 133.553711,57.6503906 133.754883,57.8964844 C133.956055,58.1425781 134.056641,58.515625 134.056641,59.015625 L134.056641,59.015625 L134.056641,63 L135.439453,63 L135.439453,58.7753906 C135.439453,57.1933594 134.662109,56.4023438 133.107422,56.4023438 C132.669922,56.4023438 132.271484,56.4863281 131.912109,56.6542969 C131.552734,56.8222656 131.275391,57.0605469 131.080078,57.3691406 L131.080078,57.3691406 L131.009766,57.3691406 L130.816406,56.5195312 L129.738281,56.5195312 L129.738281,63 L131.115234,63 Z M139.441406,63.1171875 C139.699219,63.1171875 139.948242,63.0947266 140.188477,63.0498047 C140.428711,63.0048828 140.625,62.9492188 140.777344,62.8828125 L140.777344,62.8828125 L140.777344,61.8457031 C140.441406,61.9511719 140.105469,62.0039062 139.769531,62.0039062 C139.5,62.0039062 139.282227,61.9248047 139.116211,61.7666016 C138.950195,61.6083984 138.867188,61.3632812 138.867188,61.03125 L138.867188,61.03125 L138.867188,57.5625 L140.712891,57.5625 L140.712891,56.5195312 L138.867188,56.5195312 L138.867188,55.078125 L138.017578,55.078125 L137.548828,56.4492188 L136.599609,56.953125 L136.599609,57.5625 L137.484375,57.5625 L137.484375,61.0546875 C137.484375,62.4296875 138.136719,63.1171875 139.441406,63.1171875 Z M144.738281,63.1171875 C145.707031,63.1171875 146.462891,62.8203125 147.005859,62.2265625 C147.548828,61.6328125 147.820312,60.8066406 147.820312,59.7480469 C147.820312,58.7246094 147.546875,57.9111328 147,57.3076172 C146.453125,56.7041016 145.710938,56.4023438 144.773438,56.4023438 C143.792969,56.4023438 143.033203,56.6972656 142.494141,57.2871094 C141.955078,57.8769531 141.685547,58.6972656 141.685547,59.7480469 C141.685547,60.4238281 141.810547,61.0175781 142.060547,61.5292969 C142.310547,62.0410156 142.667969,62.4335938 143.132812,62.7070312 C143.597656,62.9804688 144.132812,63.1171875 144.738281,63.1171875 Z M144.761719,61.9921875 C143.65625,61.9921875 143.103516,61.2441406 143.103516,59.7480469 C143.103516,59.0332031 143.233398,58.484375 143.493164,58.1015625 C143.75293,57.71875 144.171875,57.5273438 144.75,57.5273438 C145.851562,57.5273438 146.402344,58.2675781 146.402344,59.7480469 C146.402344,61.2441406 145.855469,61.9921875 144.761719,61.9921875 Z M93.6503906,75.1171875 C94.6191406,75.1171875 95.375,74.8203125 95.9179688,74.2265625 C96.4609375,73.6328125 96.7324219,72.8066406 96.7324219,71.7480469 C96.7324219,70.7246094 96.4589844,69.9111328 95.9121094,69.3076172 C95.3652344,68.7041016 94.6230469,68.4023438 93.6855469,68.4023438 C92.7050781,68.4023438 91.9453125,68.6972656 91.40625,69.2871094 C90.8671875,69.8769531 90.5976562,70.6972656 90.5976562,71.7480469 C90.5976562,72.4238281 90.7226562,73.0175781 90.9726562,73.5292969 C91.2226562,74.0410156 91.5800781,74.4335938 92.0449219,74.7070312 C92.5097656,74.9804688 93.0449219,75.1171875 93.6503906,75.1171875 Z M93.6738281,73.9921875 C92.5683594,73.9921875 92.015625,73.2441406 92.015625,71.7480469 C92.015625,71.0332031 92.1455078,70.484375 92.4052734,70.1015625 C92.6650391,69.71875 93.0839844,69.5273438 93.6621094,69.5273438 C94.7636719,69.5273438 95.3144531,70.2675781 95.3144531,71.7480469 C95.3144531,73.2441406 94.7675781,73.9921875 93.6738281,73.9921875 Z M99.6914062,75 L99.6914062,71.7714844 C99.6914062,70.9628906 99.8261719,70.3867188 100.095703,70.0429688 C100.365234,69.6992188 100.791016,69.5273438 101.373047,69.5273438 C101.810547,69.5273438 102.129883,69.6503906 102.331055,69.8964844 C102.532227,70.1425781 102.632812,70.515625 102.632812,71.015625 L102.632812,71.015625 L102.632812,75 L104.015625,75 L104.015625,70.7753906 C104.015625,69.1933594 103.238281,68.4023438 101.683594,68.4023438 C101.246094,68.4023438 100.847656,68.4863281 100.488281,68.6542969 C100.128906,68.8222656 99.8515625,69.0605469 99.65625,69.3691406 L99.65625,69.3691406 L99.5859375,69.3691406 L99.3925781,68.5195312 L98.3144531,68.5195312 L98.3144531,75 L99.6914062,75 Z M108.761719,75.1171875 C109.203125,75.1171875 109.595703,75.0839844 109.939453,75.0175781 C110.283203,74.9511719 110.623047,74.8378906 110.958984,74.6777344 L110.958984,74.6777344 L110.958984,73.5585938 C110.580078,73.7265625 110.225586,73.8466797 109.895508,73.9189453 C109.56543,73.9912109 109.208984,74.0273438 108.826172,74.0273438 C108.244141,74.0273438 107.792969,73.8583984 107.472656,73.5205078 C107.152344,73.1826172 106.982422,72.6992188 106.962891,72.0703125 L106.962891,72.0703125 L111.28125,72.0703125 L111.28125,71.3261719 C111.28125,70.4160156 111.033203,69.7011719 110.537109,69.1816406 C110.041016,68.6621094 109.365234,68.4023438 108.509766,68.4023438 C107.587891,68.4023438 106.863281,68.7050781 106.335938,69.3105469 C105.808594,69.9160156 105.544922,70.7480469 105.544922,71.8066406 C105.544922,72.8378906 105.829102,73.6474609 106.397461,74.2353516 C106.96582,74.8232422 107.753906,75.1171875 108.761719,75.1171875 Z M109.927734,71.0742188 L106.986328,71.0742188 C107.037109,70.5429688 107.194336,70.1386719 107.458008,69.8613281 C107.72168,69.5839844 108.072266,69.4453125 108.509766,69.4453125 C108.947266,69.4453125 109.291016,69.5830078 109.541016,69.8583984 C109.791016,70.1337891 109.919922,70.5390625 109.927734,71.0742188 L109.927734,71.0742188 Z M117.339844,75 L117.339844,71.7714844 C117.339844,70.9628906 117.474609,70.3867188 117.744141,70.0429688 C118.013672,69.6992188 118.439453,69.5273438 119.021484,69.5273438 C119.458984,69.5273438 119.77832,69.6503906 119.979492,69.8964844 C120.180664,70.1425781 120.28125,70.515625 120.28125,71.015625 L120.28125,71.015625 L120.28125,75 L121.664062,75 L121.664062,70.7753906 C121.664062,69.1933594 120.886719,68.4023438 119.332031,68.4023438 C118.894531,68.4023438 118.496094,68.4863281 118.136719,68.6542969 C117.777344,68.8222656 117.5,69.0605469 117.304688,69.3691406 L117.304688,69.3691406 L117.234375,69.3691406 L117.041016,68.5195312 L115.962891,68.5195312 L115.962891,75 L117.339844,75 Z M126.410156,75.1171875 C126.851562,75.1171875 127.244141,75.0839844 127.587891,75.0175781 C127.931641,74.9511719 128.271484,74.8378906 128.607422,74.6777344 L128.607422,74.6777344 L128.607422,73.5585938 C128.228516,73.7265625 127.874023,73.8466797 127.543945,73.9189453 C127.213867,73.9912109 126.857422,74.0273438 126.474609,74.0273438 C125.892578,74.0273438 125.441406,73.8583984 125.121094,73.5205078 C124.800781,73.1826172 124.630859,72.6992188 124.611328,72.0703125 L124.611328,72.0703125 L128.929688,72.0703125 L128.929688,71.3261719 C128.929688,70.4160156 128.681641,69.7011719 128.185547,69.1816406 C127.689453,68.6621094 127.013672,68.4023438 126.158203,68.4023438 C125.236328,68.4023438 124.511719,68.7050781 123.984375,69.3105469 C123.457031,69.9160156 123.193359,70.7480469 123.193359,71.8066406 C123.193359,72.8378906 123.477539,73.6474609 124.045898,74.2353516 C124.614258,74.8232422 125.402344,75.1171875 126.410156,75.1171875 Z M127.576172,71.0742188 L124.634766,71.0742188 C124.685547,70.5429688 124.842773,70.1386719 125.106445,69.8613281 C125.370117,69.5839844 125.720703,69.4453125 126.158203,69.4453125 C126.595703,69.4453125 126.939453,69.5830078 127.189453,69.8583984 C127.439453,70.1337891 127.568359,70.5390625 127.576172,71.0742188 L127.576172,71.0742188 Z M132.966797,75 L133.828125,71.9882812 C133.960938,71.546875 134.140625,70.7988281 134.367188,69.7441406 L134.367188,69.7441406 L134.419922,69.7441406 C134.685547,70.9121094 134.869141,71.65625 134.970703,71.9765625 L134.970703,71.9765625 L135.808594,75 L137.355469,75 L139.183594,68.5195312 L137.800781,68.5195312 L136.962891,71.7128906 C136.748047,72.5761719 136.611328,73.2480469 136.552734,73.7285156 L136.552734,73.7285156 L136.505859,73.7285156 C136.490234,73.5097656 136.438477,73.203125 136.350586,72.8085938 C136.262695,72.4140625 136.189453,72.1210938 136.130859,71.9296875 L136.130859,71.9296875 L135.175781,68.5195312 L133.664062,68.5195312 L132.679688,71.9296875 C132.621094,72.1132812 132.551758,72.3896484 132.47168,72.7587891 C132.391602,73.1279297 132.332031,73.4550781 132.292969,73.7402344 L132.292969,73.7402344 L132.257812,73.7402344 C132.179688,73.1777344 132.046875,72.5019531 131.859375,71.7128906 L131.859375,71.7128906 L131.033203,68.5195312 L129.626953,68.5195312 L131.443359,75 L132.966797,75 Z M93.8144531,87.1171875 C94.2558594,87.1171875 94.6484375,87.0839844 94.9921875,87.0175781 C95.3359375,86.9511719 95.6757812,86.8378906 96.0117188,86.6777344 L96.0117188,86.6777344 L96.0117188,85.5585938 C95.6328125,85.7265625 95.2783203,85.8466797 94.9482422,85.9189453 C94.6181641,85.9912109 94.2617188,86.0273438 93.8789062,86.0273438 C93.296875,86.0273438 92.8457031,85.8583984 92.5253906,85.5205078 C92.2050781,85.1826172 92.0351562,84.6992188 92.015625,84.0703125 L92.015625,84.0703125 L96.3339844,84.0703125 L96.3339844,83.3261719 C96.3339844,82.4160156 96.0859375,81.7011719 95.5898438,81.1816406 C95.09375,80.6621094 94.4179688,80.4023438 93.5625,80.4023438 C92.640625,80.4023438 91.9160156,80.7050781 91.3886719,81.3105469 C90.8613281,81.9160156 90.5976562,82.7480469 90.5976562,83.8066406 C90.5976562,84.8378906 90.8818359,85.6474609 91.4501953,86.2353516 C92.0185547,86.8232422 92.8066406,87.1171875 93.8144531,87.1171875 Z M94.9804688,83.0742188 L92.0390625,83.0742188 C92.0898438,82.5429688 92.2470703,82.1386719 92.5107422,81.8613281 C92.7744141,81.5839844 93.125,81.4453125 93.5625,81.4453125 C94,81.4453125 94.34375,81.5830078 94.59375,81.8583984 C94.84375,82.1337891 94.9726562,82.5390625 94.9804688,83.0742188 L94.9804688,83.0742188 Z M99.2753906,87 L99.2753906,83.7714844 C99.2753906,82.9628906 99.4101562,82.3867188 99.6796875,82.0429688 C99.9492188,81.6992188 100.375,81.5273438 100.957031,81.5273438 C101.394531,81.5273438 101.713867,81.6503906 101.915039,81.8964844 C102.116211,82.1425781 102.216797,82.515625 102.216797,83.015625 L102.216797,83.015625 L102.216797,87 L103.599609,87 L103.599609,82.7753906 C103.599609,81.1933594 102.822266,80.4023438 101.267578,80.4023438 C100.830078,80.4023438 100.431641,80.4863281 100.072266,80.6542969 C99.7128906,80.8222656 99.4355469,81.0605469 99.2402344,81.3691406 L99.2402344,81.3691406 L99.1699219,81.3691406 L98.9765625,80.5195312 L97.8984375,80.5195312 L97.8984375,87 L99.2753906,87 Z M107.601562,87.1171875 C107.859375,87.1171875 108.108398,87.0947266 108.348633,87.0498047 C108.588867,87.0048828 108.785156,86.9492188 108.9375,86.8828125 L108.9375,86.8828125 L108.9375,85.8457031 C108.601562,85.9511719 108.265625,86.0039062 107.929688,86.0039062 C107.660156,86.0039062 107.442383,85.9248047 107.276367,85.7666016 C107.110352,85.6083984 107.027344,85.3632812 107.027344,85.03125 L107.027344,85.03125 L107.027344,81.5625 L108.873047,81.5625 L108.873047,80.5195312 L107.027344,80.5195312 L107.027344,79.078125 L106.177734,79.078125 L105.708984,80.4492188 L104.759766,80.953125 L104.759766,81.5625 L105.644531,81.5625 L105.644531,85.0546875 C105.644531,86.4296875 106.296875,87.1171875 107.601562,87.1171875 Z M110.929688,79.5585938 C111.171875,79.5585938 111.360352,79.4912109 111.495117,79.3564453 C111.629883,79.2216797 111.697266,79.0371094 111.697266,78.8027344 C111.697266,78.5566406 111.629883,78.3671875 111.495117,78.234375 C111.360352,78.1015625 111.171875,78.0351562 110.929688,78.0351562 C110.679688,78.0351562 110.487305,78.1015625 110.352539,78.234375 C110.217773,78.3671875 110.150391,78.5566406 110.150391,78.8027344 C110.150391,79.0371094 110.217773,79.2216797 110.352539,79.3564453 C110.487305,79.4912109 110.679688,79.5585938 110.929688,79.5585938 Z M111.609375,87 L111.609375,80.5195312 L110.232422,80.5195312 L110.232422,87 L111.609375,87 Z M115.664062,87.1171875 C115.921875,87.1171875 116.170898,87.0947266 116.411133,87.0498047 C116.651367,87.0048828 116.847656,86.9492188 117,86.8828125 L117,86.8828125 L117,85.8457031 C116.664062,85.9511719 116.328125,86.0039062 115.992188,86.0039062 C115.722656,86.0039062 115.504883,85.9248047 115.338867,85.7666016 C115.172852,85.6083984 115.089844,85.3632812 115.089844,85.03125 L115.089844,85.03125 L115.089844,81.5625 L116.935547,81.5625 L116.935547,80.5195312 L115.089844,80.5195312 L115.089844,79.078125 L114.240234,79.078125 L113.771484,80.4492188 L112.822266,80.953125 L112.822266,81.5625 L113.707031,81.5625 L113.707031,85.0546875 C113.707031,86.4296875 114.359375,87.1171875 115.664062,87.1171875 Z M118.453125,89.8828125 C119.628906,89.8828125 120.46875,89.2089844 120.972656,87.8613281 L120.972656,87.8613281 L123.744141,80.5195312 L122.255859,80.5195312 C121.357422,83.125 120.861328,84.5810547 120.767578,84.8876953 C120.673828,85.1943359 120.609375,85.4550781 120.574219,85.6699219 L120.574219,85.6699219 L120.527344,85.6699219 C120.460938,85.2089844 120.328125,84.7167969 120.128906,84.1933594 L120.128906,84.1933594 L118.810547,80.5195312 L117.310547,80.5195312 L119.912109,87 L119.671875,87.609375 C119.402344,88.3789062 118.935547,88.7636719 118.271484,88.7636719 C118.005859,88.7636719 117.769531,88.7402344 117.5625,88.6933594 L117.5625,88.6933594 L117.5625,89.7832031 C117.851562,89.8496094 118.148438,89.8828125 118.453125,89.8828125 Z M125.390625,87.1699219 C125.671875,87.1699219 125.887695,87.0888672 126.038086,86.9267578 C126.188477,86.7646484 126.263672,86.5449219 126.263672,86.2675781 C126.263672,85.9941406 126.189453,85.7783203 126.041016,85.6201172 C125.892578,85.4619141 125.675781,85.3828125 125.390625,85.3828125 C125.109375,85.3828125 124.894531,85.4589844 124.746094,85.6113281 C124.597656,85.7636719 124.523438,85.9824219 124.523438,86.2675781 C124.523438,86.5488281 124.597656,86.7695312 124.746094,86.9296875 C124.894531,87.0898438 125.109375,87.1699219 125.390625,87.1699219 Z" id="Mergeitemsintoonenewentity." fill="#FFFFFF" fill-rule="nonzero"></path>
                <g id="Group-14" transform="translate(20.000000, 45.000000)" fill-rule="nonzero">
                    <path d="M37.2690393,33.0458888 L31.2478719,33.0458888 L33.2058721,31.2414469 L32.6888392,30.7649629 L30.1070857,33.1442395 C29.9643048,33.2758227 29.9643048,33.4891402 30.1070857,33.6207235 L32.6888392,36 L33.2058721,35.523516 L31.2478719,33.7190741 L37.6345196,33.7190741 C37.8362648,33.7190741 38,33.56818 38,33.3822569 L38,14 L37.2690393,14 L37.2690393,33.0458888 L37.2690393,33.0458888 Z" id="Shape" stroke="#FFFFFF" fill="#FFFFFF"></path>
                    <path d="M11.3111608,30.7647275 L10.7941279,31.2411921 L12.7521281,33.0455603 L6.73096073,33.0455603 L6.73096073,14 L6,14 L6,33.3823637 C6,33.5682793 6.16373521,33.7191672 6.36548037,33.7191672 L12.7521281,33.7191672 L10.7941279,35.5235354 L11.3111608,36 L13.8929143,33.6208206 C14.0356952,33.4892427 14.0356952,33.2759339 13.8929143,33.144356 L11.3111608,30.7647275 Z" id="Shape" stroke="#FFFFFF" fill="#FFFFFF"></path>
                    <path d="M26.6662959,29 L15.3337041,29 C15.1494994,29 15,29.1494995 15,29.3337041 L15,40.666296 C15,40.8505006 15.1494994,41 15.3337041,41 L26.6662959,41 C26.8505006,41 27,40.8505006 27,40.666296 L27,29.3337041 C27,29.1494995 26.8505006,29 26.6662959,29 Z" id="Shape-path" fill="#ECF0F1"></path>
                    <path d="M26.6662959,0 L15.3337041,0 C15.1494994,0 15,0.149499413 15,0.333704061 L15,11.6662959 C15,11.8505005 15.1494994,12 15.3337041,12 L26.6662959,12 C26.8505006,12 27,11.8505005 27,11.6662959 L27,0.333704061 C27,0.149499413 26.8505006,0 26.6662959,0 Z M26.3325918,11.3325917 L15.6674082,11.3325917 L15.6674082,0.667408188 L26.3325918,0.667408188 L26.3325918,11.3325917 Z" id="Shape" stroke="#9B9B9B" fill="#9B9B9B"></path>
                    <path d="M41.6662959,0 L30.3337041,0 C30.1494994,0 30,0.149499413 30,0.333704061 L30,11.6662959 C30,11.8505005 30.1494994,12 30.3337041,12 L41.6662959,12 C41.8505006,12 42,11.8505005 42,11.6662959 L42,0.333704061 C42,0.149499413 41.8505006,0 41.6662959,0 Z M41.3325918,11.3325917 L30.6674082,11.3325917 L30.6674082,0.667408188 L41.3325918,0.667408188 L41.3325918,11.3325917 Z" id="Shape" stroke="#BDC3C7" fill="#BDC3C7"></path>
                    <path d="M12,11.6662959 L12,0.333704061 C12,0.149499413 11.8505006,0 11.6662959,0 L0.33370411,0 C0.149499438,0 0,0.149499413 0,0.333704061 L0,11.6662959 C0,11.8505005 0.149499438,12 0.33370411,12 L11.6662959,12 C11.8505006,12 12,11.8505005 12,11.6662959 Z M11.3325918,11.3325917 L0.667408218,11.3325917 L0.667408218,0.667408188 L11.3325918,0.667408188 L11.3325918,11.3325917 Z" id="Shape" stroke="#BDC3C7" fill="#BDC3C7"></path>
                </g>
            </g>
        </g>
    </g>
</svg>