<?xml version="1.0" encoding="UTF-8"?>
<svg width="163px" height="97px" viewBox="0 0 163 97" version="1.1" xmlns="http://www.w3.org/2000/svg" xmlns:xlink="http://www.w3.org/1999/xlink">
    <!-- Generator: Sketch 62 (91390) - https://sketch.com -->
    <title>i/Compare</title>
    <desc>Created with Sketch.</desc>
    <defs>
        <radialGradient cx="25.7698997%" cy="50.0000162%" fx="25.7698997%" fy="50.0000162%" r="50.0190387%" gradientTransform="translate(0.257699,0.500000),scale(0.595092,1.000000),rotate(91.580894),translate(-0.257699,-0.500000)" id="radialGradient-1">
            <stop stop-color="#80C3F3" offset="0%"></stop>
            <stop stop-color="#4A90E2" offset="100%"></stop>
        </radialGradient>
        <path d="M45.9082031,18.1757812 C47.1855469,18.1757812 48.328125,17.9853516 49.3359375,17.6044922 L49.3359375,17.6044922 L49.3359375,15.8027344 C48.7851562,15.9726562 48.2548828,16.1118164 47.7451172,16.2202148 C47.2353516,16.3286133 46.7080078,16.3828125 46.1630859,16.3828125 C44.9033203,16.3828125 43.940918,15.9785156 43.2758789,15.1699219 C42.6108398,14.3613281 42.2783203,13.1689453 42.2783203,11.5927734 C42.2783203,10.0869141 42.6240234,8.90625 43.3154297,8.05078125 C44.0068359,7.1953125 44.9560547,6.76757812 46.1630859,6.76757812 C46.6962891,6.76757812 47.2045898,6.84521484 47.6879883,7.00048828 C48.1713867,7.15576172 48.6298828,7.3359375 49.0634766,7.54101562 L49.0634766,7.54101562 L49.8193359,5.79199219 C48.7060547,5.24121094 47.4931641,4.96582031 46.1806641,4.96582031 C44.9326172,4.96582031 43.8457031,5.23242188 42.9199219,5.765625 C41.9941406,6.29882812 41.2866211,7.06640625 40.7973633,8.06835938 C40.3081055,9.0703125 40.0634766,10.2392578 40.0634766,11.5751953 C40.0634766,13.6962891 40.5673828,15.3266602 41.5751953,16.4663086 C42.5830078,17.605957 44.0273438,18.1757812 45.9082031,18.1757812 Z M55.8837891,18.1757812 C57.3369141,18.1757812 58.4707031,17.7304688 59.2851562,16.8398438 C60.0996094,15.9492188 60.5068359,14.7099609 60.5068359,13.1220703 C60.5068359,11.5869141 60.0966797,10.3666992 59.2763672,9.46142578 C58.4560547,8.55615234 57.3427734,8.10351562 55.9365234,8.10351562 C54.4658203,8.10351562 53.3261719,8.54589844 52.5175781,9.43066406 C51.7089844,10.3154297 51.3046875,11.5458984 51.3046875,13.1220703 C51.3046875,14.1357422 51.4921875,15.0263672 51.8671875,15.7939453 C52.2421875,16.5615234 52.7783203,17.1503906 53.4755859,17.5605469 C54.1728516,17.9707031 54.9755859,18.1757812 55.8837891,18.1757812 Z M55.9189453,16.4882812 C54.2607422,16.4882812 53.4316406,15.3662109 53.4316406,13.1220703 C53.4316406,12.0498047 53.6264648,11.2265625 54.0161133,10.6523438 C54.4057617,10.078125 55.0341797,9.79101562 55.9013672,9.79101562 C57.5537109,9.79101562 58.3798828,10.9013672 58.3798828,13.1220703 C58.3798828,15.3662109 57.5595703,16.4882812 55.9189453,16.4882812 Z M64.9453125,18 L64.9453125,13.1572266 C64.9453125,11.9501953 65.1313477,11.0874023 65.503418,10.5688477 C65.8754883,10.050293 66.4599609,9.79101562 67.2568359,9.79101562 C67.8544922,9.79101562 68.2939453,9.97412109 68.5751953,10.340332 C68.8564453,10.706543 68.9970703,11.2617188 68.9970703,12.0058594 L68.9970703,12.0058594 L68.9970703,18 L71.0712891,18 L71.0712891,12.8496094 C71.0712891,11.8125 71.2573242,11.043457 71.6293945,10.5424805 C72.0014648,10.0415039 72.5888672,9.79101562 73.3916016,9.79101562 C73.9892578,9.79101562 74.4301758,9.97412109 74.7143555,10.340332 C74.9985352,10.706543 75.140625,11.2617188 75.140625,12.0058594 L75.140625,12.0058594 L75.140625,18 L77.2060547,18 L77.2060547,11.6630859 C77.2060547,10.4619141 76.940918,9.56835938 76.4106445,8.98242188 C75.8803711,8.39648438 75.0351562,8.10351562 73.875,8.10351562 C73.2011719,8.10351562 72.6035156,8.23828125 72.0820312,8.5078125 C71.5605469,8.77734375 71.15625,9.15234375 70.8691406,9.6328125 L70.8691406,9.6328125 L70.7285156,9.6328125 C70.2421875,8.61328125 69.2519531,8.10351562 67.7578125,8.10351562 C67.1425781,8.10351562 66.5786133,8.22949219 66.065918,8.48144531 C65.5532227,8.73339844 65.1621094,9.09082031 64.8925781,9.55371094 L64.8925781,9.55371094 L64.7871094,9.55371094 L64.4970703,8.27929688 L62.8798828,8.27929688 L62.8798828,18 L64.9453125,18 Z M82.1542969,22.3242188 L82.1542969,18.3427734 C82.1542969,18.1669922 82.1132812,17.6689453 82.03125,16.8486328 L82.03125,16.8486328 L82.1542969,16.8486328 C82.8339844,17.7333984 83.7890625,18.1757812 85.0195312,18.1757812 C86.2324219,18.1757812 87.1831055,17.7304688 87.871582,16.8398438 C88.5600586,15.9492188 88.9042969,14.7099609 88.9042969,13.1220703 C88.9042969,11.5341797 88.565918,10.3007812 87.8891602,9.421875 C87.2124023,8.54296875 86.2675781,8.10351562 85.0546875,8.10351562 C83.765625,8.10351562 82.7988281,8.59570312 82.1542969,9.58007812 L82.1542969,9.58007812 L82.0488281,9.58007812 C81.9023438,8.89453125 81.8056641,8.4609375 81.7587891,8.27929688 L81.7587891,8.27929688 L80.0888672,8.27929688 L80.0888672,22.3242188 L82.1542969,22.3242188 Z M84.5537109,16.4882812 C83.7041016,16.4882812 83.0917969,16.2231445 82.7167969,15.6928711 C82.3417969,15.1625977 82.1542969,14.3056641 82.1542969,13.1220703 L82.1542969,13.1220703 L82.1542969,12.8144531 C82.1542969,11.7597656 82.3432617,10.9921875 82.7211914,10.5117188 C83.0991211,10.03125 83.6982422,9.79101562 84.5185547,9.79101562 C85.2626953,9.79101562 85.8266602,10.0708008 86.2104492,10.6303711 C86.5942383,11.1899414 86.7861328,12.0146484 86.7861328,13.1044922 C86.7861328,14.1884766 86.5927734,15.0234375 86.2060547,15.609375 C85.8193359,16.1953125 85.2685547,16.4882812 84.5537109,16.4882812 Z M93.6591797,18.1757812 C94.4033203,18.1757812 95.0126953,18.0688477 95.4873047,17.8549805 C95.9619141,17.6411133 96.4335938,17.2382812 96.9023438,16.6464844 L96.9023438,16.6464844 L96.9726562,16.6464844 L97.3857422,18 L98.8623047,18 L98.8623047,11.4521484 C98.8623047,10.2978516 98.5473633,9.45117188 97.9174805,8.91210938 C97.2875977,8.37304688 96.3544922,8.10351562 95.1181641,8.10351562 C94.5615234,8.10351562 93.9697266,8.17529297 93.3427734,8.31884766 C92.7158203,8.46240234 92.1386719,8.671875 91.6113281,8.94726562 L91.6113281,8.94726562 L92.2792969,10.4238281 C92.7011719,10.2246094 93.140625,10.0517578 93.5976562,9.90527344 C94.0546875,9.75878906 94.5322266,9.68554688 95.0302734,9.68554688 C95.6396484,9.68554688 96.0893555,9.83935547 96.3793945,10.1469727 C96.6694336,10.4545898 96.8144531,10.9189453 96.8144531,11.5400391 L96.8144531,11.5400391 L96.8144531,12.0585938 L95.1357422,12.1113281 C93.6123047,12.1582031 92.4785156,12.4365234 91.734375,12.9462891 C90.9902344,13.4560547 90.6181641,14.2119141 90.6181641,15.2138672 C90.6181641,16.1572266 90.8862305,16.8867188 91.4223633,17.4023438 C91.9584961,17.9179688 92.7041016,18.1757812 93.6591797,18.1757812 Z M94.3095703,16.59375 C93.7939453,16.59375 93.4072266,16.4750977 93.1494141,16.237793 C92.8916016,16.0004883 92.7626953,15.6650391 92.7626953,15.2314453 C92.7626953,14.6337891 92.9838867,14.1899414 93.4262695,13.8999023 C93.8686523,13.6098633 94.5761719,13.4472656 95.5488281,13.4121094 L95.5488281,13.4121094 L96.796875,13.359375 L96.796875,14.203125 C96.796875,14.9589844 96.5698242,15.5463867 96.1157227,15.965332 C95.6616211,16.3842773 95.0595703,16.59375 94.3095703,16.59375 Z M103.810547,18 L103.810547,12.9199219 C103.810547,12.0585938 104.066895,11.3583984 104.57959,10.8193359 C105.092285,10.2802734 105.761719,10.0107422 106.587891,10.0107422 C106.904297,10.0107422 107.208984,10.0458984 107.501953,10.1162109 L107.501953,10.1162109 L107.704102,8.19140625 C107.43457,8.1328125 107.091797,8.10351562 106.675781,8.10351562 C106.078125,8.10351562 105.52002,8.2734375 105.001465,8.61328125 C104.48291,8.953125 104.0625,9.41308594 103.740234,9.99316406 L103.740234,9.99316406 L103.634766,9.99316406 L103.362305,8.27929688 L101.745117,8.27929688 L101.745117,18 L103.810547,18 Z M113.750977,18.1757812 C114.413086,18.1757812 115.001953,18.1259766 115.517578,18.0263672 C116.033203,17.9267578 116.542969,17.7568359 117.046875,17.5166016 L117.046875,17.5166016 L117.046875,15.8378906 C116.478516,16.0898438 115.946777,16.2700195 115.45166,16.378418 C114.956543,16.4868164 114.421875,16.5410156 113.847656,16.5410156 C112.974609,16.5410156 112.297852,16.2875977 111.817383,15.7807617 C111.336914,15.2739258 111.082031,14.5488281 111.052734,13.6054688 L111.052734,13.6054688 L117.530273,13.6054688 L117.530273,12.4892578 C117.530273,11.1240234 117.158203,10.0517578 116.414062,9.27246094 C115.669922,8.49316406 114.65625,8.10351562 113.373047,8.10351562 C111.990234,8.10351562 110.90332,8.55761719 110.112305,9.46582031 C109.321289,10.3740234 108.925781,11.6220703 108.925781,13.2099609 C108.925781,14.7568359 109.352051,15.9711914 110.20459,16.8530273 C111.057129,17.7348633 112.239258,18.1757812 113.750977,18.1757812 Z M115.5,12.1113281 L111.087891,12.1113281 C111.164062,11.3144531 111.399902,10.7080078 111.79541,10.2919922 C112.190918,9.87597656 112.716797,9.66796875 113.373047,9.66796875 C114.029297,9.66796875 114.544922,9.87451172 114.919922,10.2875977 C115.294922,10.7006836 115.488281,11.3085938 115.5,12.1113281 L115.5,12.1113281 Z" id="path-2"></path>
    </defs>
    <g id="Symbols" stroke="none" stroke-width="1" fill="none" fill-rule="evenodd">
        <g id="i/Compare">
            <g id="Compare">
                <g>
                    <g id="Group-9">
                        <g id="Group-7">
                            <g id="Group-6">
                                <g id="Group-2" fill="url(#radialGradient-1)" fill-rule="nonzero">
                                    <g id="Group-3">
                                        <g id="blue-icon">
                                            <rect id="Rectangle-2" x="0" y="0" width="163" height="97" rx="6"></rect>
                                        </g>
                                    </g>
                                </g>
                                <line x1="2" y1="28.023622" x2="161" y2="28.023622" id="Line-2" stroke="#FFFFFF" stroke-width="4" stroke-linecap="square"></line>
                                <line x1="77.425" y1="39.7165354" x2="77.425" y2="86.3070866" id="Line-3" stroke="#FFFFFF" stroke-width="2" stroke-linecap="square"></line>
                            </g>
                        </g>
                    </g>
                    <g id="noun_570171_3498DB" transform="translate(14.000000, 45.000000)" fill-rule="nonzero">
                        <g id="Compare-2">
                            <g id="Group">
                                <path d="M21.7403645,4.89961653 C20.7986028,5.8067385 19.9534166,6.81094089 19.2186186,7.895812 C18.8537948,8.44832842 18.9966451,9.19447704 19.539094,9.56974759 C20.0815429,9.94501813 20.8218793,9.8098653 21.1999903,9.26654114 C21.8397507,8.32161894 22.5763272,7.44744809 23.3975118,6.65851672 C23.7085482,6.3594876 23.8380325,5.91555106 23.7371891,5.49393369 C23.6363457,5.07231631 23.3204952,4.73707182 22.9086154,4.61448357 C22.4967357,4.49189532 22.0514009,4.6005874 21.7403645,4.89961653 L21.7403645,4.89961653 Z" id="Shape" fill="#FFFFFF"></path>
                                <path d="M16.0625618,22.5677283 C16.1858061,23.1072098 16.6587124,23.4833007 17.195199,23.4684871 C17.2854814,23.4797581 17.3767495,23.4797581 17.4670319,23.4684871 C17.7603848,23.3963977 18.0137952,23.2064673 18.1711205,22.9407751 C18.3284456,22.6750828 18.3766965,22.3555645 18.3051833,22.053009 C18.0549904,20.9793169 17.9145301,19.8814815 17.8861076,18.7775221 C17.8861076,18.1314501 17.3790087,17.6077053 16.7534705,17.6077053 C16.1279322,17.6077053 15.6208333,18.1314501 15.6208333,18.7775221 C15.6383663,20.0534699 15.7864317,21.3239297 16.0625618,22.5677283 L16.0625618,22.5677283 Z" id="Shape" fill="#FFFFFF"></path>
                                <path d="M17.2609992,16.3032696 L17.474069,16.3032696 C18.0529132,16.3128099 18.5536614,15.8979105 18.6577903,15.3224872 C18.8615891,14.2157071 19.1789616,13.1333953 19.6047673,12.0930816 C19.767585,11.6978135 19.7093398,11.2448019 19.4519723,10.904692 C19.1946049,10.5645821 18.7772152,10.3890445 18.3570302,10.4442027 C17.936845,10.4993608 17.5777006,10.7768349 17.4148829,11.172103 C16.9250914,12.3663608 16.560103,13.6090495 16.3258594,14.879939 C16.2597456,15.1943063 16.3216198,15.5223312 16.4975375,15.7900869 C16.6734551,16.0578427 16.9486132,16.242798 17.2609992,16.3032696 Z" id="Shape" fill="#FFFFFF"></path>
                                <path d="M49.6583992,11.2486533 C50.1241292,12.1976198 50.4875573,13.191299 50.742822,14.2136648 C50.9209609,14.7760462 51.5162262,15.1062149 52.1021171,14.9676087 C52.688008,14.8290025 53.0625236,14.2694094 52.9573276,13.6897717 C52.6606077,12.536542 52.2436873,11.4160274 51.7130952,10.3457739 C51.417026,9.83752329 50.7690894,9.63906371 50.2287897,9.89113907 C49.6884901,10.1432144 49.4395003,10.7601324 49.6583992,11.3043867 L49.6583992,11.2486533 Z" id="Shape" fill="#FFFFFF"></path>
                                <path d="M47.4939141,8.64314451 C47.7467942,8.99577207 48.1562906,9.17726616 48.5681496,9.11925986 C48.9800086,9.06125356 49.3316592,8.77255932 49.490638,8.36192546 C49.6496169,7.95129166 49.5917712,7.48110333 49.3388909,7.12847583 C48.5709847,6.06067231 47.6997403,5.08270611 46.7396783,4.21087623 C46.2526318,3.76518485 45.5201197,3.82632864 45.1035667,4.34744472 C44.6870138,4.8685608 44.7441601,5.65231309 45.2312067,6.09800447 C46.0669746,6.85891021 46.8254057,7.71200901 47.4939141,8.64314451 L47.4939141,8.64314451 Z" id="Shape" fill="#FFFFFF"></path>
                                <path d="M32.5194311,2.60854893 L32.6750886,2.60854893 C33.7961299,2.43885303 34.9317771,2.38660915 36.0636323,2.4526637 C36.4914096,2.48479395 36.9038086,2.28593308 37.1454822,1.93099006 C37.3871558,1.57604702 37.4213883,1.11894612 37.2352846,0.731872846 C37.0491809,0.344799569 36.6710144,0.0865595503 36.243237,0.0544293075 C34.9498487,-0.0445972098 33.6496783,-0.0084285199 32.3637736,0.162349855 C31.702487,0.205396374 31.2012535,0.777155527 31.244237,1.43940966 C31.2872207,2.10166381 31.8581445,2.60363077 32.5194311,2.56058425 L32.5194311,2.60854893 Z" id="Shape" fill="#FFFFFF"></path>
                                <path d="M25.7255937,5.20531095 C25.9604314,5.20738636 26.1913925,5.15031107 26.3933513,5.04029417 C27.4317483,4.45741991 28.5335087,3.97548147 29.6807736,3.60229082 C30.1246694,3.46782329 30.4538975,3.12257691 30.5403265,2.70091728 C30.6267556,2.27925764 30.456732,1.84779561 30.0964269,1.57445084 C29.7361219,1.30110606 29.2424537,1.22905967 28.8075521,1.38635121 C27.4985204,1.81520408 26.2418112,2.36825424 25.057836,3.03651901 C24.5714717,3.3131602 24.3431862,3.85178528 24.4980145,4.35738123 C24.6528429,4.86297718 25.1534287,5.21355496 25.7255937,5.21709786 L25.7255937,5.20531095 Z" id="Shape" fill="#FFFFFF"></path>
                                <path d="M19.7200087,28.9392708 C20.110016,29.4040754 20.7993778,29.4816258 21.2842065,29.1152366 C21.7690354,28.7488474 21.8774945,28.0683771 21.5303061,27.5712139 C20.8790157,26.7228723 20.3181222,25.809714 19.8566349,24.8464063 C19.7008281,24.4524567 19.3364983,24.177913 18.9124901,24.1349384 C18.4884821,24.0919638 18.0758114,24.287756 17.8430725,24.6423253 C17.6103336,24.9968946 17.596507,25.4508552 17.8072416,25.8187443 C18.3347032,26.9216689 18.9757077,27.9674165 19.7200087,28.9392708 L19.7200087,28.9392708 Z" id="Shape" fill="#FFFFFF"></path>
                                <path d="M46.1920573,29.687111 C45.3305512,30.4509188 44.3878325,31.1267689 43.3792389,31.7036653 C42.9057549,31.9837182 42.6835148,32.5289858 42.834243,33.040817 C42.9849712,33.5526482 43.4723,33.9075495 44.0293124,33.9111361 C44.2591206,33.9096401 44.48405,33.8477105 44.6793861,33.732152 C45.8350571,33.0464073 46.9119382,32.2465201 47.8922498,31.3456971 C48.3352643,30.8843986 48.3296501,30.1748018 47.8793872,29.7199418 C47.4291242,29.2650819 46.6871953,29.2195034 46.1795559,29.6155173 L46.1920573,29.687111 Z" id="Shape" fill="#FFFFFF"></path>
                                <path d="M50.0612612,24.1290776 C49.6262727,25.1102453 49.0826778,26.0459654 48.4393944,26.920887 C48.1905354,27.2525939 48.1512765,27.6840754 48.3366179,28.0504696 C48.5219593,28.4168638 48.903261,28.6615537 49.3348339,28.6910472 C49.7664069,28.7205405 50.1815623,28.5302803 50.4216762,28.1929614 C51.1654126,27.1804813 51.793579,26.0975906 52.2958333,24.9621175 L51.1905612,24.5118256 L50.0612612,24.1290776 Z" id="Shape" fill="#FFFFFF"></path>
                                <path d="M53.6539535,17.4401847 C53.6409419,17.0216955 53.3975311,16.6416934 53.0154116,16.4433214 C52.6332923,16.2449494 52.1705172,16.2583452 51.8014094,16.4784624 C51.4323016,16.6985797 51.2129374,17.0919774 51.225949,17.5104667 L51.225949,17.9555862 C51.2268196,18.9102562 51.1374223,19.8630122 50.9588685,20.8020084 C50.8985567,21.1080947 50.9671123,21.4247535 51.1493725,21.6819476 C51.3316326,21.9391419 51.6125779,22.115677 51.9300703,22.172508 L52.1485907,22.172508 C52.7422424,22.1818512 53.2558004,21.7755229 53.3625929,21.211987 C53.5618401,20.1372891 53.659362,19.0473317 53.6539535,17.9555862 L53.6539535,17.4401847 Z" id="Shape" fill="#FFFFFF"></path>
                                <path d="M44.6757937,3.96102628 C45.0050026,3.34977843 44.7713352,2.59111484 44.1529968,2.26362752 C43.5601051,1.94868519 42.9515327,1.66332977 42.3295834,1.40864147 C41.6833726,1.14088399 41.0237027,0.905875268 40.3531564,0.704535318 C39.6770993,0.506629744 38.9663436,0.886605401 38.7656392,1.5532347 C38.5649347,2.219864 38.9502841,2.92070799 39.6263412,3.11861356 C40.2136713,3.27344503 40.7924948,3.45809999 41.3604966,3.67183982 C41.9087958,3.89815966 42.4443437,4.14962615 42.9543895,4.41366595 C43.1385718,4.51169686 43.3443947,4.56351459 43.5536932,4.56454584 C44.0103592,4.57609247 44.4383994,4.34587187 44.6757937,3.96102628 L44.6757937,3.96102628 Z" id="Shape" fill="#FFFFFF"></path>
                                <path d="M27.1837426,32.2548965 C26.1881838,31.7025464 25.2520062,31.0448903 24.3905758,30.2927229 C23.8874026,29.8524785 23.130636,29.9128751 22.7002904,30.4276223 C22.2699448,30.9423697 22.3289834,31.7165434 22.8321567,32.1567878 C23.8187202,33.0182513 24.8916095,33.7705171 26.03291,34.4010237 C26.6155317,34.7396732 27.3561968,34.5310307 27.6872318,33.9350075 C28.018267,33.3389843 27.8143157,32.5812824 27.231694,32.2426329 L27.1837426,32.2548965 Z" id="Shape" fill="#FFFFFF"></path>
                                <path d="M40.4734414,33.3280677 C39.3922131,33.7052136 38.2740119,33.970404 37.1369524,34.119343 C36.7019113,34.1471843 36.3150026,34.4014201 36.1219713,34.7862822 C35.9289399,35.1711444 35.9591118,35.6281633 36.2011216,35.9851844 C36.4431313,36.3422054 36.8602119,36.5449884 37.295253,36.5171472 L37.4535535,36.5171472 C38.7609244,36.3460334 40.0465112,36.0406473 41.2892982,35.6059816 C41.9281878,35.3841663 42.2634743,34.694421 42.0381817,34.0653925 C41.812889,33.436364 41.1123309,33.1062525 40.4734414,33.3280677 Z" id="Shape" fill="#FFFFFF"></path>
                                <path d="M33.4571681,33.9737113 C32.3155338,33.8771041 31.1867442,33.6553275 30.0893585,33.3120277 C29.4447411,33.1117398 28.7670387,33.4962896 28.5756679,34.170944 C28.3842971,34.8455983 28.7517261,35.5548791 29.3963435,35.7551671 C30.6600242,36.1512081 31.9599863,36.4071082 33.2747957,36.5186482 L33.372061,36.5186482 C34.0435374,36.5467587 34.6096502,35.9998434 34.6365093,35.2970784 C34.6633684,34.5943136 34.1408027,34.0018219 33.4693263,33.9737113 L33.4571681,33.9737113 Z" id="Shape" fill="#FFFFFF"></path>
                                <path d="M21.6382183,33.3220408 C15.4736352,34.3338901 9.23047627,31.9839317 5.49937621,27.2472946 C1.76827617,22.5106574 1.18604404,16.1957714 3.9942804,10.9230349 C6.80251676,5.6502984 12.5219232,2.31964062 18.7791992,2.31313727 C19.7374866,2.31266782 20.6940337,2.39009097 21.6382183,2.544547 C22.0765999,2.61482052 22.5214398,2.45922371 22.805171,2.13636837 C23.0889022,1.81351305 23.1684194,1.37244859 23.013769,0.979319739 C22.8591186,0.586190881 22.4937958,0.300723244 22.0554143,0.230449721 C15.0162941,-0.84288691 7.93183265,1.88667314 3.70394588,7.30105567 C-0.523940897,12.7154382 -1.1848901,19.904927 1.99183432,25.9245852 C5.16855873,31.9442435 11.6492085,35.7826575 18.7791992,35.8675478 C19.8773366,35.8675478 20.9734362,35.7784143 22.0554143,35.6014266 C22.7330935,35.4927932 23.1890685,34.8867001 23.0738631,34.2476797 C22.9586576,33.6086593 22.3158975,33.1786959 21.6382183,33.2873293 L21.6382183,33.3220408 Z" id="Shape" fill="#9B9B9B"></path>
                                <path d="M29.7716271,32.3603554 C34.0582926,29.3376896 36.7948366,24.6582319 37.2776365,19.5251686 C37.7604364,14.3921053 35.942389,9.30623034 32.2909525,5.57522831 C31.8402221,5.11394068 31.0909096,5.09588804 30.6173161,5.53490662 C30.1437226,5.97392519 30.1251884,6.70376755 30.5759188,7.16505519 C33.7555903,10.4153923 35.3380813,14.8455156 34.9164779,19.3162855 C34.4948744,23.7870554 32.1103117,27.8622656 28.3759444,30.4940369 C28.0139037,30.7273698 27.8121916,31.135131 27.8504489,31.5563269 C27.8887061,31.9775229 28.1607838,32.3444571 28.5592594,32.5122554 C28.9577349,32.6800537 29.4185635,32.6217467 29.7597992,32.3603554 L29.7716271,32.3603554 Z" id="Shape" fill="#BDC3C7"></path>
                            </g>
                        </g>
                    </g>
                    <path d="M87.53125,50 L87.53125,41.4335938 L86.1308594,41.4335938 L86.1308594,50 L87.53125,50 Z M91.8320312,50.1171875 C92.6835938,50.1171875 93.3300781,49.7949219 93.7714844,49.1503906 L93.7714844,49.1503906 L93.8359375,49.1503906 L94.0761719,50 L95.1542969,50 L95.1542969,40.8828125 L93.7714844,40.8828125 L93.7714844,43.2441406 C93.7714844,43.5136719 93.8046875,43.8808594 93.8710938,44.3457031 L93.8710938,44.3457031 L93.8007812,44.3457031 C93.3554688,43.7167969 92.7070312,43.4023438 91.8554688,43.4023438 C91.0429688,43.4023438 90.4072266,43.6982422 89.9482422,44.2900391 C89.4892578,44.8818359 89.2597656,45.7089844 89.2597656,46.7714844 C89.2597656,47.8300781 89.4863281,48.6523438 89.9394531,49.2382812 C90.3925781,49.8242188 91.0234375,50.1171875 91.8320312,50.1171875 Z M92.2011719,49.0039062 C91.6933594,49.0039062 91.3125,48.8154297 91.0585938,48.4384766 C90.8046875,48.0615234 90.6777344,47.5136719 90.6777344,46.7949219 C90.6777344,46.0683594 90.8085938,45.5087891 91.0703125,45.1162109 C91.3320312,44.7236328 91.7050781,44.5273438 92.1894531,44.5273438 C92.7558594,44.5273438 93.171875,44.6992188 93.4375,45.0429688 C93.703125,45.3867188 93.8359375,45.9667969 93.8359375,46.7832031 L93.8359375,46.7832031 L93.8359375,46.9765625 C93.828125,47.6914062 93.6953125,48.2080078 93.4375,48.5263672 C93.1796875,48.8447266 92.7675781,49.0039062 92.2011719,49.0039062 Z M99.953125,50.1171875 C100.394531,50.1171875 100.787109,50.0839844 101.130859,50.0175781 C101.474609,49.9511719 101.814453,49.8378906 102.150391,49.6777344 L102.150391,49.6777344 L102.150391,48.5585938 C101.771484,48.7265625 101.416992,48.8466797 101.086914,48.9189453 C100.756836,48.9912109 100.400391,49.0273438 100.017578,49.0273438 C99.4355469,49.0273438 98.984375,48.8583984 98.6640625,48.5205078 C98.34375,48.1826172 98.1738281,47.6992188 98.1542969,47.0703125 L98.1542969,47.0703125 L102.472656,47.0703125 L102.472656,46.3261719 C102.472656,45.4160156 102.224609,44.7011719 101.728516,44.1816406 C101.232422,43.6621094 100.556641,43.4023438 99.7011719,43.4023438 C98.7792969,43.4023438 98.0546875,43.7050781 97.5273438,44.3105469 C97,44.9160156 96.7363281,45.7480469 96.7363281,46.8066406 C96.7363281,47.8378906 97.0205078,48.6474609 97.5888672,49.2353516 C98.1572266,49.8232422 98.9453125,50.1171875 99.953125,50.1171875 Z M101.119141,46.0742188 L98.1777344,46.0742188 C98.2285156,45.5429688 98.3857422,45.1386719 98.6494141,44.8613281 C98.9130859,44.5839844 99.2636719,44.4453125 99.7011719,44.4453125 C100.138672,44.4453125 100.482422,44.5830078 100.732422,44.8583984 C100.982422,45.1337891 101.111328,45.5390625 101.119141,46.0742188 L101.119141,46.0742188 Z M105.414062,50 L105.414062,46.7714844 C105.414062,45.9628906 105.548828,45.3867188 105.818359,45.0429688 C106.087891,44.6992188 106.513672,44.5273438 107.095703,44.5273438 C107.533203,44.5273438 107.852539,44.6503906 108.053711,44.8964844 C108.254883,45.1425781 108.355469,45.515625 108.355469,46.015625 L108.355469,46.015625 L108.355469,50 L109.738281,50 L109.738281,45.7753906 C109.738281,44.1933594 108.960938,43.4023438 107.40625,43.4023438 C106.96875,43.4023438 106.570312,43.4863281 106.210938,43.6542969 C105.851562,43.8222656 105.574219,44.0605469 105.378906,44.3691406 L105.378906,44.3691406 L105.308594,44.3691406 L105.115234,43.5195312 L104.037109,43.5195312 L104.037109,50 L105.414062,50 Z M113.740234,50.1171875 C113.998047,50.1171875 114.24707,50.0947266 114.487305,50.0498047 C114.727539,50.0048828 114.923828,49.9492188 115.076172,49.8828125 L115.076172,49.8828125 L115.076172,48.8457031 C114.740234,48.9511719 114.404297,49.0039062 114.068359,49.0039062 C113.798828,49.0039062 113.581055,48.9248047 113.415039,48.7666016 C113.249023,48.6083984 113.166016,48.3632812 113.166016,48.03125 L113.166016,48.03125 L113.166016,44.5625 L115.011719,44.5625 L115.011719,43.5195312 L113.166016,43.5195312 L113.166016,42.078125 L112.316406,42.078125 L111.847656,43.4492188 L110.898438,43.953125 L110.898438,44.5625 L111.783203,44.5625 L111.783203,48.0546875 C111.783203,49.4296875 112.435547,50.1171875 113.740234,50.1171875 Z M117.068359,42.5585938 C117.310547,42.5585938 117.499023,42.4912109 117.633789,42.3564453 C117.768555,42.2216797 117.835938,42.0371094 117.835938,41.8027344 C117.835938,41.5566406 117.768555,41.3671875 117.633789,41.234375 C117.499023,41.1015625 117.310547,41.0351562 117.068359,41.0351562 C116.818359,41.0351562 116.625977,41.1015625 116.491211,41.234375 C116.356445,41.3671875 116.289062,41.5566406 116.289062,41.8027344 C116.289062,42.0371094 116.356445,42.2216797 116.491211,42.3564453 C116.625977,42.4912109 116.818359,42.5585938 117.068359,42.5585938 Z M117.748047,50 L117.748047,43.5195312 L116.371094,43.5195312 L116.371094,50 L117.748047,50 Z M121.386719,50 L121.386719,44.5625 L122.96875,44.5625 L122.96875,43.5195312 L121.386719,43.5195312 L121.386719,43.0976562 C121.386719,42.7109375 121.458008,42.4208984 121.600586,42.2275391 C121.743164,42.0341797 121.970703,41.9375 122.283203,41.9375 C122.591797,41.9375 122.916016,41.9921875 123.255859,42.1015625 L123.255859,42.1015625 L123.619141,41.0585938 C123.150391,40.8984375 122.673828,40.8183594 122.189453,40.8183594 C121.451172,40.8183594 120.902344,41.0029297 120.542969,41.3720703 C120.183594,41.7412109 120.003906,42.3085938 120.003906,43.0742188 L120.003906,43.0742188 L120.003906,43.4960938 L118.9375,43.9179688 L118.9375,44.5625 L120.003906,44.5625 L120.003906,50 L121.386719,50 Z M124.228516,52.8828125 C125.404297,52.8828125 126.244141,52.2089844 126.748047,50.8613281 L126.748047,50.8613281 L129.519531,43.5195312 L128.03125,43.5195312 C127.132812,46.125 126.636719,47.5810547 126.542969,47.8876953 C126.449219,48.1943359 126.384766,48.4550781 126.349609,48.6699219 L126.349609,48.6699219 L126.302734,48.6699219 C126.236328,48.2089844 126.103516,47.7167969 125.904297,47.1933594 L125.904297,47.1933594 L124.585938,43.5195312 L123.085938,43.5195312 L125.6875,50 L125.447266,50.609375 C125.177734,51.3789062 124.710938,51.7636719 124.046875,51.7636719 C123.78125,51.7636719 123.544922,51.7402344 123.337891,51.6933594 L123.337891,51.6933594 L123.337891,52.7832031 C123.626953,52.8496094 123.923828,52.8828125 124.228516,52.8828125 Z M87.6660156,62.1171875 C88.5253906,62.1171875 89.1855469,61.9482422 89.6464844,61.6103516 C90.1074219,61.2724609 90.3378906,60.7871094 90.3378906,60.1542969 C90.3378906,59.8417969 90.2792969,59.5732422 90.1621094,59.3486328 C90.0449219,59.1240234 89.8652344,58.9257812 89.6230469,58.7539062 C89.3808594,58.5820312 88.9921875,58.3925781 88.4570312,58.1855469 C87.8203125,57.9394531 87.4072266,57.7460938 87.2177734,57.6054688 C87.0283203,57.4648438 86.9335938,57.2929688 86.9335938,57.0898438 C86.9335938,56.6757812 87.296875,56.46875 88.0234375,56.46875 C88.5,56.46875 89.0878906,56.6132812 89.7871094,56.9023438 L89.7871094,56.9023438 L90.2324219,55.8652344 C89.5527344,55.5566406 88.8320312,55.4023438 88.0703125,55.4023438 C87.3007812,55.4023438 86.6923828,55.5556641 86.2451172,55.8623047 C85.7978516,56.1689453 85.5742188,56.5996094 85.5742188,57.1542969 C85.5742188,57.6152344 85.7060547,57.9902344 85.9697266,58.2792969 C86.2333984,58.5683594 86.7382812,58.8574219 87.484375,59.1464844 C87.8671875,59.2949219 88.1660156,59.4277344 88.3808594,59.5449219 C88.5957031,59.6621094 88.75,59.7753906 88.84375,59.8847656 C88.9375,59.9941406 88.984375,60.1308594 88.984375,60.2949219 C88.984375,60.8066406 88.5605469,61.0625 87.7128906,61.0625 C87.0566406,61.0625 86.3476562,60.8867188 85.5859375,60.5351562 L85.5859375,60.5351562 L85.5859375,61.7246094 C86.109375,61.9863281 86.8027344,62.1171875 87.6660156,62.1171875 Z M92.5234375,54.5585938 C92.765625,54.5585938 92.9541016,54.4912109 93.0888672,54.3564453 C93.2236328,54.2216797 93.2910156,54.0371094 93.2910156,53.8027344 C93.2910156,53.5566406 93.2236328,53.3671875 93.0888672,53.234375 C92.9541016,53.1015625 92.765625,53.0351562 92.5234375,53.0351562 C92.2734375,53.0351562 92.0810547,53.1015625 91.9462891,53.234375 C91.8115234,53.3671875 91.7441406,53.5566406 91.7441406,53.8027344 C91.7441406,54.0371094 91.8115234,54.2216797 91.9462891,54.3564453 C92.0810547,54.4912109 92.2734375,54.5585938 92.5234375,54.5585938 Z M93.203125,62 L93.203125,55.5195312 L91.8261719,55.5195312 L91.8261719,62 L93.203125,62 Z M96.5488281,62 L96.5488281,58.7714844 C96.5488281,57.9667969 96.6728516,57.3916016 96.9208984,57.0458984 C97.1689453,56.7001953 97.5585938,56.5273438 98.0898438,56.5273438 C98.4882812,56.5273438 98.78125,56.6494141 98.96875,56.8935547 C99.15625,57.1376953 99.25,57.5078125 99.25,58.0039062 L99.25,58.0039062 L99.25,62 L100.632812,62 L100.632812,58.5664062 C100.632812,57.875 100.756836,57.3623047 101.004883,57.0283203 C101.25293,56.6943359 101.644531,56.5273438 102.179688,56.5273438 C102.578125,56.5273438 102.87207,56.6494141 103.061523,56.8935547 C103.250977,57.1376953 103.345703,57.5078125 103.345703,58.0039062 L103.345703,58.0039062 L103.345703,62 L104.722656,62 L104.722656,57.7753906 C104.722656,56.9746094 104.545898,56.3789062 104.192383,55.9882812 C103.838867,55.5976562 103.275391,55.4023438 102.501953,55.4023438 C102.052734,55.4023438 101.654297,55.4921875 101.306641,55.671875 C100.958984,55.8515625 100.689453,56.1015625 100.498047,56.421875 L100.498047,56.421875 L100.404297,56.421875 C100.080078,55.7421875 99.4199219,55.4023438 98.4238281,55.4023438 C98.0136719,55.4023438 97.6376953,55.4863281 97.2958984,55.6542969 C96.9541016,55.8222656 96.6933594,56.0605469 96.5136719,56.3691406 L96.5136719,56.3691406 L96.4433594,56.3691406 L96.25,55.5195312 L95.171875,55.5195312 L95.171875,62 L96.5488281,62 Z M107.341797,54.5585938 C107.583984,54.5585938 107.772461,54.4912109 107.907227,54.3564453 C108.041992,54.2216797 108.109375,54.0371094 108.109375,53.8027344 C108.109375,53.5566406 108.041992,53.3671875 107.907227,53.234375 C107.772461,53.1015625 107.583984,53.0351562 107.341797,53.0351562 C107.091797,53.0351562 106.899414,53.1015625 106.764648,53.234375 C106.629883,53.3671875 106.5625,53.5566406 106.5625,53.8027344 C106.5625,54.0371094 106.629883,54.2216797 106.764648,54.3564453 C106.899414,54.4912109 107.091797,54.5585938 107.341797,54.5585938 Z M108.021484,62 L108.021484,55.5195312 L106.644531,55.5195312 L106.644531,62 L108.021484,62 Z M111.367188,62 L111.367188,52.8828125 L109.990234,52.8828125 L109.990234,62 L111.367188,62 Z M114.90625,62.1171875 C115.402344,62.1171875 115.808594,62.0458984 116.125,61.9033203 C116.441406,61.7607422 116.755859,61.4921875 117.068359,61.0976562 L117.068359,61.0976562 L117.115234,61.0976562 L117.390625,62 L118.375,62 L118.375,57.6347656 C118.375,56.8652344 118.165039,56.3007812 117.745117,55.9414062 C117.325195,55.5820312 116.703125,55.4023438 115.878906,55.4023438 C115.507812,55.4023438 115.113281,55.4501953 114.695312,55.5458984 C114.277344,55.6416016 113.892578,55.78125 113.541016,55.9648438 L113.541016,55.9648438 L113.986328,56.9492188 C114.267578,56.8164062 114.560547,56.7011719 114.865234,56.6035156 C115.169922,56.5058594 115.488281,56.4570312 115.820312,56.4570312 C116.226562,56.4570312 116.526367,56.5595703 116.719727,56.7646484 C116.913086,56.9697266 117.009766,57.2792969 117.009766,57.6933594 L117.009766,57.6933594 L117.009766,58.0390625 L115.890625,58.0742188 C114.875,58.1054688 114.119141,58.2910156 113.623047,58.6308594 C113.126953,58.9707031 112.878906,59.4746094 112.878906,60.1425781 C112.878906,60.7714844 113.057617,61.2578125 113.415039,61.6015625 C113.772461,61.9453125 114.269531,62.1171875 114.90625,62.1171875 Z M115.339844,61.0625 C114.996094,61.0625 114.738281,60.9833984 114.566406,60.8251953 C114.394531,60.6669922 114.308594,60.4433594 114.308594,60.1542969 C114.308594,59.7558594 114.456055,59.4599609 114.750977,59.2666016 C115.045898,59.0732422 115.517578,58.9648438 116.166016,58.9414062 L116.166016,58.9414062 L116.998047,58.90625 L116.998047,59.46875 C116.998047,59.9726562 116.84668,60.3642578 116.543945,60.6435547 C116.241211,60.9228516 115.839844,61.0625 115.339844,61.0625 Z M121.673828,62 L121.673828,58.6132812 C121.673828,58.0390625 121.844727,57.5722656 122.186523,57.2128906 C122.52832,56.8535156 122.974609,56.6738281 123.525391,56.6738281 C123.736328,56.6738281 123.939453,56.6972656 124.134766,56.7441406 L124.134766,56.7441406 L124.269531,55.4609375 C124.089844,55.421875 123.861328,55.4023438 123.583984,55.4023438 C123.185547,55.4023438 122.813477,55.515625 122.467773,55.7421875 C122.12207,55.96875 121.841797,56.2753906 121.626953,56.6621094 L121.626953,56.6621094 L121.556641,56.6621094 L121.375,55.5195312 L120.296875,55.5195312 L120.296875,62 L121.673828,62 Z M126.167969,54.5585938 C126.410156,54.5585938 126.598633,54.4912109 126.733398,54.3564453 C126.868164,54.2216797 126.935547,54.0371094 126.935547,53.8027344 C126.935547,53.5566406 126.868164,53.3671875 126.733398,53.234375 C126.598633,53.1015625 126.410156,53.0351562 126.167969,53.0351562 C125.917969,53.0351562 125.725586,53.1015625 125.59082,53.234375 C125.456055,53.3671875 125.388672,53.5566406 125.388672,53.8027344 C125.388672,54.0371094 125.456055,54.2216797 125.59082,54.3564453 C125.725586,54.4912109 125.917969,54.5585938 126.167969,54.5585938 Z M126.847656,62 L126.847656,55.5195312 L125.470703,55.5195312 L125.470703,62 L126.847656,62 Z M130.902344,62.1171875 C131.160156,62.1171875 131.40918,62.0947266 131.649414,62.0498047 C131.889648,62.0048828 132.085938,61.9492188 132.238281,61.8828125 L132.238281,61.8828125 L132.238281,60.8457031 C131.902344,60.9511719 131.566406,61.0039062 131.230469,61.0039062 C130.960938,61.0039062 130.743164,60.9248047 130.577148,60.7666016 C130.411133,60.6083984 130.328125,60.3632812 130.328125,60.03125 L130.328125,60.03125 L130.328125,56.5625 L132.173828,56.5625 L132.173828,55.5195312 L130.328125,55.5195312 L130.328125,54.078125 L129.478516,54.078125 L129.009766,55.4492188 L128.060547,55.953125 L128.060547,56.5625 L128.945312,56.5625 L128.945312,60.0546875 C128.945312,61.4296875 129.597656,62.1171875 130.902344,62.1171875 Z M134.230469,54.5585938 C134.472656,54.5585938 134.661133,54.4912109 134.795898,54.3564453 C134.930664,54.2216797 134.998047,54.0371094 134.998047,53.8027344 C134.998047,53.5566406 134.930664,53.3671875 134.795898,53.234375 C134.661133,53.1015625 134.472656,53.0351562 134.230469,53.0351562 C133.980469,53.0351562 133.788086,53.1015625 133.65332,53.234375 C133.518555,53.3671875 133.451172,53.5566406 133.451172,53.8027344 C133.451172,54.0371094 133.518555,54.2216797 133.65332,54.3564453 C133.788086,54.4912109 133.980469,54.5585938 134.230469,54.5585938 Z M134.910156,62 L134.910156,55.5195312 L133.533203,55.5195312 L133.533203,62 L134.910156,62 Z M139.708984,62.1171875 C140.150391,62.1171875 140.542969,62.0839844 140.886719,62.0175781 C141.230469,61.9511719 141.570312,61.8378906 141.90625,61.6777344 L141.90625,61.6777344 L141.90625,60.5585938 C141.527344,60.7265625 141.172852,60.8466797 140.842773,60.9189453 C140.512695,60.9912109 140.15625,61.0273438 139.773438,61.0273438 C139.191406,61.0273438 138.740234,60.8583984 138.419922,60.5205078 C138.099609,60.1826172 137.929688,59.6992188 137.910156,59.0703125 L137.910156,59.0703125 L142.228516,59.0703125 L142.228516,58.3261719 C142.228516,57.4160156 141.980469,56.7011719 141.484375,56.1816406 C140.988281,55.6621094 140.3125,55.4023438 139.457031,55.4023438 C138.535156,55.4023438 137.810547,55.7050781 137.283203,56.3105469 C136.755859,56.9160156 136.492188,57.7480469 136.492188,58.8066406 C136.492188,59.8378906 136.776367,60.6474609 137.344727,61.2353516 C137.913086,61.8232422 138.701172,62.1171875 139.708984,62.1171875 Z M140.875,58.0742188 L137.933594,58.0742188 C137.984375,57.5429688 138.141602,57.1386719 138.405273,56.8613281 C138.668945,56.5839844 139.019531,56.4453125 139.457031,56.4453125 C139.894531,56.4453125 140.238281,56.5830078 140.488281,56.8583984 C140.738281,57.1337891 140.867188,57.5390625 140.875,58.0742188 L140.875,58.0742188 Z M145.474609,62.1171875 C146.333984,62.1171875 146.994141,61.9482422 147.455078,61.6103516 C147.916016,61.2724609 148.146484,60.7871094 148.146484,60.1542969 C148.146484,59.8417969 148.087891,59.5732422 147.970703,59.3486328 C147.853516,59.1240234 147.673828,58.9257812 147.431641,58.7539062 C147.189453,58.5820312 146.800781,58.3925781 146.265625,58.1855469 C145.628906,57.9394531 145.21582,57.7460938 145.026367,57.6054688 C144.836914,57.4648438 144.742188,57.2929688 144.742188,57.0898438 C144.742188,56.6757812 145.105469,56.46875 145.832031,56.46875 C146.308594,56.46875 146.896484,56.6132812 147.595703,56.9023438 L147.595703,56.9023438 L148.041016,55.8652344 C147.361328,55.5566406 146.640625,55.4023438 145.878906,55.4023438 C145.109375,55.4023438 144.500977,55.5556641 144.053711,55.8623047 C143.606445,56.1689453 143.382812,56.5996094 143.382812,57.1542969 C143.382812,57.6152344 143.514648,57.9902344 143.77832,58.2792969 C144.041992,58.5683594 144.546875,58.8574219 145.292969,59.1464844 C145.675781,59.2949219 145.974609,59.4277344 146.189453,59.5449219 C146.404297,59.6621094 146.558594,59.7753906 146.652344,59.8847656 C146.746094,59.9941406 146.792969,60.1308594 146.792969,60.2949219 C146.792969,60.8066406 146.369141,61.0625 145.521484,61.0625 C144.865234,61.0625 144.15625,60.8867188 143.394531,60.5351562 L143.394531,60.5351562 L143.394531,61.7246094 C143.917969,61.9863281 144.611328,62.1171875 145.474609,62.1171875 Z M87.5546875,74.1171875 C88.0507812,74.1171875 88.4570312,74.0458984 88.7734375,73.9033203 C89.0898438,73.7607422 89.4042969,73.4921875 89.7167969,73.0976562 L89.7167969,73.0976562 L89.7636719,73.0976562 L90.0390625,74 L91.0234375,74 L91.0234375,69.6347656 C91.0234375,68.8652344 90.8134766,68.3007812 90.3935547,67.9414062 C89.9736328,67.5820312 89.3515625,67.4023438 88.5273438,67.4023438 C88.15625,67.4023438 87.7617188,67.4501953 87.34375,67.5458984 C86.9257812,67.6416016 86.5410156,67.78125 86.1894531,67.9648438 L86.1894531,67.9648438 L86.6347656,68.9492188 C86.9160156,68.8164062 87.2089844,68.7011719 87.5136719,68.6035156 C87.8183594,68.5058594 88.1367188,68.4570312 88.46875,68.4570312 C88.875,68.4570312 89.1748047,68.5595703 89.3681641,68.7646484 C89.5615234,68.9697266 89.6582031,69.2792969 89.6582031,69.6933594 L89.6582031,69.6933594 L89.6582031,70.0390625 L88.5390625,70.0742188 C87.5234375,70.1054688 86.7675781,70.2910156 86.2714844,70.6308594 C85.7753906,70.9707031 85.5273438,71.4746094 85.5273438,72.1425781 C85.5273438,72.7714844 85.7060547,73.2578125 86.0634766,73.6015625 C86.4208984,73.9453125 86.9179688,74.1171875 87.5546875,74.1171875 Z M87.9882812,73.0625 C87.6445312,73.0625 87.3867188,72.9833984 87.2148438,72.8251953 C87.0429688,72.6669922 86.9570312,72.4433594 86.9570312,72.1542969 C86.9570312,71.7558594 87.1044922,71.4599609 87.3994141,71.2666016 C87.6943359,71.0732422 88.1660156,70.9648438 88.8144531,70.9414062 L88.8144531,70.9414062 L89.6464844,70.90625 L89.6464844,71.46875 C89.6464844,71.9726562 89.4951172,72.3642578 89.1923828,72.6435547 C88.8896484,72.9228516 88.4882812,73.0625 87.9882812,73.0625 Z M94.3222656,74 L94.3222656,70.7714844 C94.3222656,69.9628906 94.4570312,69.3867188 94.7265625,69.0429688 C94.9960938,68.6992188 95.421875,68.5273438 96.0039062,68.5273438 C96.4414062,68.5273438 96.7607422,68.6503906 96.9619141,68.8964844 C97.1630859,69.1425781 97.2636719,69.515625 97.2636719,70.015625 L97.2636719,70.015625 L97.2636719,74 L98.6464844,74 L98.6464844,69.7753906 C98.6464844,68.1933594 97.8691406,67.4023438 96.3144531,67.4023438 C95.8769531,67.4023438 95.4785156,67.4863281 95.1191406,67.6542969 C94.7597656,67.8222656 94.4824219,68.0605469 94.2871094,68.3691406 L94.2871094,68.3691406 L94.2167969,68.3691406 L94.0234375,67.5195312 L92.9453125,67.5195312 L92.9453125,74 L94.3222656,74 Z M102.748047,74.1171875 C103.599609,74.1171875 104.246094,73.7949219 104.6875,73.1503906 L104.6875,73.1503906 L104.751953,73.1503906 L104.992188,74 L106.070312,74 L106.070312,64.8828125 L104.6875,64.8828125 L104.6875,67.2441406 C104.6875,67.5136719 104.720703,67.8808594 104.787109,68.3457031 L104.787109,68.3457031 L104.716797,68.3457031 C104.271484,67.7167969 103.623047,67.4023438 102.771484,67.4023438 C101.958984,67.4023438 101.323242,67.6982422 100.864258,68.2900391 C100.405273,68.8818359 100.175781,69.7089844 100.175781,70.7714844 C100.175781,71.8300781 100.402344,72.6523438 100.855469,73.2382812 C101.308594,73.8242188 101.939453,74.1171875 102.748047,74.1171875 Z M103.117188,73.0039062 C102.609375,73.0039062 102.228516,72.8154297 101.974609,72.4384766 C101.720703,72.0615234 101.59375,71.5136719 101.59375,70.7949219 C101.59375,70.0683594 101.724609,69.5087891 101.986328,69.1162109 C102.248047,68.7236328 102.621094,68.5273438 103.105469,68.5273438 C103.671875,68.5273438 104.087891,68.6992188 104.353516,69.0429688 C104.619141,69.3867188 104.751953,69.9667969 104.751953,70.7832031 L104.751953,70.7832031 L104.751953,70.9765625 C104.744141,71.6914062 104.611328,72.2080078 104.353516,72.5263672 C104.095703,72.8447266 103.683594,73.0039062 103.117188,73.0039062 Z M88.1699219,86.1171875 C89.0214844,86.1171875 89.6679688,85.7949219 90.109375,85.1503906 L90.109375,85.1503906 L90.1738281,85.1503906 L90.4140625,86 L91.4921875,86 L91.4921875,76.8828125 L90.109375,76.8828125 L90.109375,79.2441406 C90.109375,79.5136719 90.1425781,79.8808594 90.2089844,80.3457031 L90.2089844,80.3457031 L90.1386719,80.3457031 C89.6933594,79.7167969 89.0449219,79.4023438 88.1933594,79.4023438 C87.3808594,79.4023438 86.7451172,79.6982422 86.2861328,80.2900391 C85.8271484,80.8818359 85.5976562,81.7089844 85.5976562,82.7714844 C85.5976562,83.8300781 85.8242188,84.6523438 86.2773438,85.2382812 C86.7304688,85.8242188 87.3613281,86.1171875 88.1699219,86.1171875 Z M88.5390625,85.0039062 C88.03125,85.0039062 87.6503906,84.8154297 87.3964844,84.4384766 C87.1425781,84.0615234 87.015625,83.5136719 87.015625,82.7949219 C87.015625,82.0683594 87.1464844,81.5087891 87.4082031,81.1162109 C87.6699219,80.7236328 88.0429688,80.5273438 88.5273438,80.5273438 C89.09375,80.5273438 89.5097656,80.6992188 89.7753906,81.0429688 C90.0410156,81.3867188 90.1738281,81.9667969 90.1738281,82.7832031 L90.1738281,82.7832031 L90.1738281,82.9765625 C90.1660156,83.6914062 90.0332031,84.2080078 89.7753906,84.5263672 C89.5175781,84.8447266 89.1054688,85.0039062 88.5390625,85.0039062 Z M94.1582031,78.5585938 C94.4003906,78.5585938 94.5888672,78.4912109 94.7236328,78.3564453 C94.8583984,78.2216797 94.9257812,78.0371094 94.9257812,77.8027344 C94.9257812,77.5566406 94.8583984,77.3671875 94.7236328,77.234375 C94.5888672,77.1015625 94.4003906,77.0351562 94.1582031,77.0351562 C93.9082031,77.0351562 93.7158203,77.1015625 93.5810547,77.234375 C93.4462891,77.3671875 93.3789062,77.5566406 93.3789062,77.8027344 C93.3789062,78.0371094 93.4462891,78.2216797 93.5810547,78.3564453 C93.7158203,78.4912109 93.9082031,78.5585938 94.1582031,78.5585938 Z M94.8378906,86 L94.8378906,79.5195312 L93.4609375,79.5195312 L93.4609375,86 L94.8378906,86 Z M98.4765625,86 L98.4765625,80.5625 L100.058594,80.5625 L100.058594,79.5195312 L98.4765625,79.5195312 L98.4765625,79.0976562 C98.4765625,78.7109375 98.5478516,78.4208984 98.6904297,78.2275391 C98.8330078,78.0341797 99.0605469,77.9375 99.3730469,77.9375 C99.6816406,77.9375 100.005859,77.9921875 100.345703,78.1015625 L100.345703,78.1015625 L100.708984,77.0585938 C100.240234,76.8984375 99.7636719,76.8183594 99.2792969,76.8183594 C98.5410156,76.8183594 97.9921875,77.0029297 97.6328125,77.3720703 C97.2734375,77.7412109 97.09375,78.3085938 97.09375,79.0742188 L97.09375,79.0742188 L97.09375,79.4960938 L96.0273438,79.9179688 L96.0273438,80.5625 L97.09375,80.5625 L97.09375,86 L98.4765625,86 Z M102.830078,86 L102.830078,80.5625 L104.412109,80.5625 L104.412109,79.5195312 L102.830078,79.5195312 L102.830078,79.0976562 C102.830078,78.7109375 102.901367,78.4208984 103.043945,78.2275391 C103.186523,78.0341797 103.414062,77.9375 103.726562,77.9375 C104.035156,77.9375 104.359375,77.9921875 104.699219,78.1015625 L104.699219,78.1015625 L105.0625,77.0585938 C104.59375,76.8984375 104.117188,76.8183594 103.632812,76.8183594 C102.894531,76.8183594 102.345703,77.0029297 101.986328,77.3720703 C101.626953,77.7412109 101.447266,78.3085938 101.447266,79.0742188 L101.447266,79.0742188 L101.447266,79.4960938 L100.380859,79.9179688 L100.380859,80.5625 L101.447266,80.5625 L101.447266,86 L102.830078,86 Z M108.349609,86.1171875 C108.791016,86.1171875 109.183594,86.0839844 109.527344,86.0175781 C109.871094,85.9511719 110.210938,85.8378906 110.546875,85.6777344 L110.546875,85.6777344 L110.546875,84.5585938 C110.167969,84.7265625 109.813477,84.8466797 109.483398,84.9189453 C109.15332,84.9912109 108.796875,85.0273438 108.414062,85.0273438 C107.832031,85.0273438 107.380859,84.8583984 107.060547,84.5205078 C106.740234,84.1826172 106.570312,83.6992188 106.550781,83.0703125 L106.550781,83.0703125 L110.869141,83.0703125 L110.869141,82.3261719 C110.869141,81.4160156 110.621094,80.7011719 110.125,80.1816406 C109.628906,79.6621094 108.953125,79.4023438 108.097656,79.4023438 C107.175781,79.4023438 106.451172,79.7050781 105.923828,80.3105469 C105.396484,80.9160156 105.132812,81.7480469 105.132812,82.8066406 C105.132812,83.8378906 105.416992,84.6474609 105.985352,85.2353516 C106.553711,85.8232422 107.341797,86.1171875 108.349609,86.1171875 Z M109.515625,82.0742188 L106.574219,82.0742188 C106.625,81.5429688 106.782227,81.1386719 107.045898,80.8613281 C107.30957,80.5839844 107.660156,80.4453125 108.097656,80.4453125 C108.535156,80.4453125 108.878906,80.5830078 109.128906,80.8583984 C109.378906,81.1337891 109.507812,81.5390625 109.515625,82.0742188 L109.515625,82.0742188 Z M113.810547,86 L113.810547,82.6132812 C113.810547,82.0390625 113.981445,81.5722656 114.323242,81.2128906 C114.665039,80.8535156 115.111328,80.6738281 115.662109,80.6738281 C115.873047,80.6738281 116.076172,80.6972656 116.271484,80.7441406 L116.271484,80.7441406 L116.40625,79.4609375 C116.226562,79.421875 115.998047,79.4023438 115.720703,79.4023438 C115.322266,79.4023438 114.950195,79.515625 114.604492,79.7421875 C114.258789,79.96875 113.978516,80.2753906 113.763672,80.6621094 L113.763672,80.6621094 L113.693359,80.6621094 L113.511719,79.5195312 L112.433594,79.5195312 L112.433594,86 L113.810547,86 Z M120.4375,86.1171875 C120.878906,86.1171875 121.271484,86.0839844 121.615234,86.0175781 C121.958984,85.9511719 122.298828,85.8378906 122.634766,85.6777344 L122.634766,85.6777344 L122.634766,84.5585938 C122.255859,84.7265625 121.901367,84.8466797 121.571289,84.9189453 C121.241211,84.9912109 120.884766,85.0273438 120.501953,85.0273438 C119.919922,85.0273438 119.46875,84.8583984 119.148438,84.5205078 C118.828125,84.1826172 118.658203,83.6992188 118.638672,83.0703125 L118.638672,83.0703125 L122.957031,83.0703125 L122.957031,82.3261719 C122.957031,81.4160156 122.708984,80.7011719 122.212891,80.1816406 C121.716797,79.6621094 121.041016,79.4023438 120.185547,79.4023438 C119.263672,79.4023438 118.539062,79.7050781 118.011719,80.3105469 C117.484375,80.9160156 117.220703,81.7480469 117.220703,82.8066406 C117.220703,83.8378906 117.504883,84.6474609 118.073242,85.2353516 C118.641602,85.8232422 119.429688,86.1171875 120.4375,86.1171875 Z M121.603516,82.0742188 L118.662109,82.0742188 C118.712891,81.5429688 118.870117,81.1386719 119.133789,80.8613281 C119.397461,80.5839844 119.748047,80.4453125 120.185547,80.4453125 C120.623047,80.4453125 120.966797,80.5830078 121.216797,80.8583984 C121.466797,81.1337891 121.595703,81.5390625 121.603516,82.0742188 L121.603516,82.0742188 Z M125.898438,86 L125.898438,82.7714844 C125.898438,81.9628906 126.033203,81.3867188 126.302734,81.0429688 C126.572266,80.6992188 126.998047,80.5273438 127.580078,80.5273438 C128.017578,80.5273438 128.336914,80.6503906 128.538086,80.8964844 C128.739258,81.1425781 128.839844,81.515625 128.839844,82.015625 L128.839844,82.015625 L128.839844,86 L130.222656,86 L130.222656,81.7753906 C130.222656,80.1933594 129.445312,79.4023438 127.890625,79.4023438 C127.453125,79.4023438 127.054688,79.4863281 126.695312,79.6542969 C126.335938,79.8222656 126.058594,80.0605469 125.863281,80.3691406 L125.863281,80.3691406 L125.792969,80.3691406 L125.599609,79.5195312 L124.521484,79.5195312 L124.521484,86 L125.898438,86 Z M134.751953,86.1171875 C135.150391,86.1171875 135.489258,86.0859375 135.768555,86.0234375 C136.047852,85.9609375 136.310547,85.8574219 136.556641,85.7128906 L136.556641,85.7128906 L136.556641,84.5117188 C136.009766,84.8164062 135.429688,84.96875 134.816406,84.96875 C134.277344,84.96875 133.868164,84.7861328 133.588867,84.4208984 C133.30957,84.0556641 133.169922,83.5097656 133.169922,82.7832031 C133.169922,81.2949219 133.730469,80.5507812 134.851562,80.5507812 C135.230469,80.5507812 135.710938,80.6640625 136.292969,80.890625 L136.292969,80.890625 L136.708984,79.7832031 C136.162109,79.5292969 135.546875,79.4023438 134.863281,79.4023438 C133.855469,79.4023438 133.084961,79.6953125 132.551758,80.28125 C132.018555,80.8671875 131.751953,81.7050781 131.751953,82.7949219 C131.751953,83.8652344 132.006836,84.6865234 132.516602,85.2587891 C133.026367,85.8310547 133.771484,86.1171875 134.751953,86.1171875 Z M140.910156,86.1171875 C141.351562,86.1171875 141.744141,86.0839844 142.087891,86.0175781 C142.431641,85.9511719 142.771484,85.8378906 143.107422,85.6777344 L143.107422,85.6777344 L143.107422,84.5585938 C142.728516,84.7265625 142.374023,84.8466797 142.043945,84.9189453 C141.713867,84.9912109 141.357422,85.0273438 140.974609,85.0273438 C140.392578,85.0273438 139.941406,84.8583984 139.621094,84.5205078 C139.300781,84.1826172 139.130859,83.6992188 139.111328,83.0703125 L139.111328,83.0703125 L143.429688,83.0703125 L143.429688,82.3261719 C143.429688,81.4160156 143.181641,80.7011719 142.685547,80.1816406 C142.189453,79.6621094 141.513672,79.4023438 140.658203,79.4023438 C139.736328,79.4023438 139.011719,79.7050781 138.484375,80.3105469 C137.957031,80.9160156 137.693359,81.7480469 137.693359,82.8066406 C137.693359,83.8378906 137.977539,84.6474609 138.545898,85.2353516 C139.114258,85.8232422 139.902344,86.1171875 140.910156,86.1171875 Z M142.076172,82.0742188 L139.134766,82.0742188 C139.185547,81.5429688 139.342773,81.1386719 139.606445,80.8613281 C139.870117,80.5839844 140.220703,80.4453125 140.658203,80.4453125 C141.095703,80.4453125 141.439453,80.5830078 141.689453,80.8583984 C141.939453,81.1337891 142.068359,81.5390625 142.076172,82.0742188 L142.076172,82.0742188 Z M146.675781,86.1171875 C147.535156,86.1171875 148.195312,85.9482422 148.65625,85.6103516 C149.117188,85.2724609 149.347656,84.7871094 149.347656,84.1542969 C149.347656,83.8417969 149.289062,83.5732422 149.171875,83.3486328 C149.054688,83.1240234 148.875,82.9257812 148.632812,82.7539062 C148.390625,82.5820312 148.001953,82.3925781 147.466797,82.1855469 C146.830078,81.9394531 146.416992,81.7460938 146.227539,81.6054688 C146.038086,81.4648438 145.943359,81.2929688 145.943359,81.0898438 C145.943359,80.6757812 146.306641,80.46875 147.033203,80.46875 C147.509766,80.46875 148.097656,80.6132812 148.796875,80.9023438 L148.796875,80.9023438 L149.242188,79.8652344 C148.5625,79.5566406 147.841797,79.4023438 147.080078,79.4023438 C146.310547,79.4023438 145.702148,79.5556641 145.254883,79.8623047 C144.807617,80.1689453 144.583984,80.5996094 144.583984,81.1542969 C144.583984,81.6152344 144.71582,81.9902344 144.979492,82.2792969 C145.243164,82.5683594 145.748047,82.8574219 146.494141,83.1464844 C146.876953,83.2949219 147.175781,83.4277344 147.390625,83.5449219 C147.605469,83.6621094 147.759766,83.7753906 147.853516,83.8847656 C147.947266,83.9941406 147.994141,84.1308594 147.994141,84.2949219 C147.994141,84.8066406 147.570312,85.0625 146.722656,85.0625 C146.066406,85.0625 145.357422,84.8867188 144.595703,84.5351562 L144.595703,84.5351562 L144.595703,85.7246094 C145.119141,85.9863281 145.8125,86.1171875 146.675781,86.1171875 Z M151.498047,86.1699219 C151.779297,86.1699219 151.995117,86.0888672 152.145508,85.9267578 C152.295898,85.7646484 152.371094,85.5449219 152.371094,85.2675781 C152.371094,84.9941406 152.296875,84.7783203 152.148438,84.6201172 C152,84.4619141 151.783203,84.3828125 151.498047,84.3828125 C151.216797,84.3828125 151.001953,84.4589844 150.853516,84.6113281 C150.705078,84.7636719 150.630859,84.9824219 150.630859,85.2675781 C150.630859,85.5488281 150.705078,85.7695312 150.853516,85.9296875 C151.001953,86.0898438 151.216797,86.1699219 151.498047,86.1699219 Z" id="Identifysimilaritiesanddiferences." fill="#FFFFFF" fill-rule="nonzero"></path>
                </g>
                <g fill-rule="nonzero" fill="#FFFFFF">
                    <use xlink:href="#path-2"></use>
                    <use xlink:href="#path-2"></use>
                </g>
            </g>
        </g>
    </g>
</svg>