<?xml version="1.0" encoding="UTF-8"?>
<svg width="163px" height="97px" viewBox="0 0 163 97" version="1.1" xmlns="http://www.w3.org/2000/svg" xmlns:xlink="http://www.w3.org/1999/xlink">
    <!-- Generator: Sketch 62 (91390) - https://sketch.com -->
    <title>Complete</title>
    <desc>Created with Sketch.</desc>
    <defs>
        <radialGradient cx="26.0530847%" cy="62.3934409%" fx="26.0530847%" fy="62.3934409%" r="35.1006849%" gradientTransform="translate(0.260531,0.623934),scale(0.595092,1.000000),rotate(-90.000000),translate(-0.260531,-0.623934)" id="radialGradient-1">
            <stop stop-color="#F5836F" offset="0%"></stop>
            <stop stop-color="#E74C3C" offset="100%"></stop>
        </radialGradient>
        <path d="M6.52441406,18.1660156 C7.73079427,18.1660156 8.80989583,17.9861654 9.76171875,17.6264648 L9.76171875,17.6264648 L9.76171875,15.9248047 C9.24153646,16.0852865 8.74072266,16.2167155 8.25927734,16.3190918 C7.77783203,16.4214681 7.27978516,16.4726562 6.76513672,16.4726562 C5.57535807,16.4726562 4.66642253,16.0908203 4.03833008,15.3271484 C3.41023763,14.5634766 3.09619141,13.4373372 3.09619141,11.9487305 C3.09619141,10.5265299 3.4226888,9.41145833 4.07568359,8.60351562 C4.72867839,7.79557292 5.62516276,7.39160156 6.76513672,7.39160156 C7.26871745,7.39160156 7.7487793,7.46492513 8.20532227,7.61157227 C8.66186523,7.7582194 9.09488932,7.92838542 9.50439453,8.12207031 L9.50439453,8.12207031 L10.2182617,6.47021484 C9.16682943,5.95003255 8.02132161,5.68994141 6.78173828,5.68994141 C5.60302734,5.68994141 4.5764974,5.94173177 3.70214844,6.4453125 C2.82779948,6.94889323 2.15958659,7.67382812 1.69750977,8.62011719 C1.23543294,9.56640625 1.00439453,10.6704102 1.00439453,11.9321289 C1.00439453,13.9353841 1.48030599,15.475179 2.43212891,16.5515137 C3.38395182,17.6278483 4.74804688,18.1660156 6.52441406,18.1660156 Z M15.9458008,18.1660156 C17.3181966,18.1660156 18.3889974,17.7454427 19.1582031,16.9042969 C19.9274089,16.063151 20.3120117,14.8927409 20.3120117,13.3930664 C20.3120117,11.9431966 19.9246419,10.7907715 19.1499023,9.93579102 C18.3751628,9.08081055 17.3237305,8.65332031 15.9956055,8.65332031 C14.6066081,8.65332031 13.5302734,9.0711263 12.7666016,9.90673828 C12.0029297,10.7423503 11.6210938,11.9044596 11.6210938,13.3930664 C11.6210938,14.3504232 11.7981771,15.191569 12.1523438,15.9165039 C12.5065104,16.6414388 13.0128581,17.1975911 13.6713867,17.5849609 C14.3299154,17.9723307 15.0880534,18.1660156 15.9458008,18.1660156 Z M15.9790039,16.5722656 C14.4129232,16.5722656 13.6298828,15.5125326 13.6298828,13.3930664 C13.6298828,12.3803711 13.8138835,11.6028646 14.1818848,11.0605469 C14.5498861,10.5182292 15.1433919,10.2470703 15.9624023,10.2470703 C17.5229492,10.2470703 18.3032227,11.2957357 18.3032227,13.3930664 C18.3032227,15.5125326 17.5284831,16.5722656 15.9790039,16.5722656 Z M24.5039062,18 L24.5039062,13.4262695 C24.5039062,12.2862956 24.6796061,11.4714355 25.0310059,10.9816895 C25.3824056,10.4919434 25.9344076,10.2470703 26.6870117,10.2470703 C27.2514648,10.2470703 27.6665039,10.4200033 27.9321289,10.7658691 C28.1977539,11.111735 28.3305664,11.6360677 28.3305664,12.3388672 L28.3305664,12.3388672 L28.3305664,18 L30.2895508,18 L30.2895508,13.1357422 C30.2895508,12.15625 30.4652507,11.4299316 30.8166504,10.9567871 C31.1680501,10.4836426 31.722819,10.2470703 32.480957,10.2470703 C33.0454102,10.2470703 33.4618327,10.4200033 33.7302246,10.7658691 C33.9986165,11.111735 34.1328125,11.6360677 34.1328125,12.3388672 L34.1328125,12.3388672 L34.1328125,18 L36.0834961,18 L36.0834961,12.0151367 C36.0834961,10.8806966 35.8330892,10.0367839 35.3322754,9.48339844 C34.8314616,8.93001302 34.0332031,8.65332031 32.9375,8.65332031 C32.3011068,8.65332031 31.7366536,8.78059896 31.2441406,9.03515625 C30.7516276,9.28971354 30.3697917,9.64388021 30.0986328,10.0976562 L30.0986328,10.0976562 L29.9658203,10.0976562 C29.5065104,9.13476562 28.5712891,8.65332031 27.1601562,8.65332031 C26.5791016,8.65332031 26.0464681,8.77229818 25.5622559,9.01025391 C25.0780436,9.24820964 24.7086589,9.58577474 24.4541016,10.0229492 L24.4541016,10.0229492 L24.3544922,10.0229492 L24.0805664,8.81933594 L22.5532227,8.81933594 L22.5532227,18 L24.5039062,18 Z M40.7568359,22.0839844 L40.7568359,18.3237305 C40.7568359,18.1577148 40.718099,17.6873372 40.640625,16.9125977 L40.640625,16.9125977 L40.7568359,16.9125977 C41.398763,17.7482096 42.3007812,18.1660156 43.4628906,18.1660156 C44.6083984,18.1660156 45.5062663,17.7454427 46.1564941,16.9042969 C46.806722,16.063151 47.1318359,14.8927409 47.1318359,13.3930664 C47.1318359,11.8933919 46.8122559,10.7285156 46.1730957,9.8984375 C45.5339355,9.06835938 44.6416016,8.65332031 43.4960938,8.65332031 C42.2786458,8.65332031 41.3655599,9.11816406 40.7568359,10.0478516 L40.7568359,10.0478516 L40.6572266,10.0478516 C40.5188802,9.40039062 40.4275716,8.99088542 40.3833008,8.81933594 L40.3833008,8.81933594 L38.8061523,8.81933594 L38.8061523,22.0839844 L40.7568359,22.0839844 Z M43.0229492,16.5722656 C42.2205404,16.5722656 41.6422526,16.3218587 41.2880859,15.8210449 C40.9339193,15.3202311 40.7568359,14.5109049 40.7568359,13.3930664 L40.7568359,13.3930664 L40.7568359,13.1025391 C40.7568359,12.1064453 40.9353027,11.3815104 41.2922363,10.9277344 C41.6491699,10.4739583 42.2150065,10.2470703 42.9897461,10.2470703 C43.6925456,10.2470703 44.225179,10.5113118 44.5876465,11.0397949 C44.9501139,11.568278 45.1313477,12.347168 45.1313477,13.3764648 C45.1313477,14.4002279 44.9487305,15.1888021 44.5834961,15.7421875 C44.2182617,16.2955729 43.6980794,16.5722656 43.0229492,16.5722656 Z M51.3486328,18 L51.3486328,5.08398438 L49.3979492,5.08398438 L49.3979492,18 L51.3486328,18 Z M58.1469727,18.1660156 C58.7722982,18.1660156 59.3284505,18.1189779 59.8154297,18.0249023 C60.3024089,17.9308268 60.7838542,17.7703451 61.2597656,17.543457 L61.2597656,17.543457 L61.2597656,15.9580078 C60.7229818,16.1959635 60.2207845,16.3661296 59.7531738,16.4685059 C59.2855632,16.5708822 58.780599,16.6220703 58.2382812,16.6220703 C57.413737,16.6220703 56.7745768,16.3827311 56.3208008,15.9040527 C55.8670247,15.4253743 55.6263021,14.7405599 55.5986328,13.8496094 L55.5986328,13.8496094 L61.7163086,13.8496094 L61.7163086,12.7954102 C61.7163086,11.5060221 61.3649089,10.4933268 60.6621094,9.75732422 C59.9593099,9.02132161 59.0019531,8.65332031 57.7900391,8.65332031 C56.4840495,8.65332031 55.4575195,9.08219401 54.7104492,9.93994141 C53.9633789,10.7976888 53.5898438,11.9763997 53.5898438,13.4760742 C53.5898438,14.9370117 53.9924316,16.083903 54.7976074,16.916748 C55.6027832,17.7495931 56.7192383,18.1660156 58.1469727,18.1660156 Z M59.7988281,12.4384766 L55.6318359,12.4384766 C55.703776,11.6858724 55.9265137,11.1131185 56.3000488,10.7202148 C56.673584,10.3273112 57.1702474,10.1308594 57.7900391,10.1308594 C58.4098307,10.1308594 58.8968099,10.3259277 59.2509766,10.7160645 C59.6051432,11.1062012 59.7877604,11.6803385 59.7988281,12.4384766 L59.7988281,12.4384766 Z M66.8876953,18.1660156 C67.2529297,18.1660156 67.6057129,18.134196 67.9460449,18.0705566 C68.286377,18.0069173 68.5644531,17.9280599 68.7802734,17.8339844 L68.7802734,17.8339844 L68.7802734,16.3647461 C68.304362,16.5141602 67.8284505,16.5888672 67.3525391,16.5888672 C66.9707031,16.5888672 66.6621908,16.4768066 66.427002,16.2526855 C66.1918132,16.0285645 66.0742188,15.6813151 66.0742188,15.2109375 L66.0742188,15.2109375 L66.0742188,10.296875 L68.6889648,10.296875 L68.6889648,8.81933594 L66.0742188,8.81933594 L66.0742188,6.77734375 L64.8706055,6.77734375 L64.206543,8.71972656 L62.8618164,9.43359375 L62.8618164,10.296875 L64.1152344,10.296875 L64.1152344,15.2441406 C64.1152344,17.1920573 65.039388,18.1660156 66.8876953,18.1660156 Z M74.6240234,18.1660156 C75.249349,18.1660156 75.8055013,18.1189779 76.2924805,18.0249023 C76.7794596,17.9308268 77.2609049,17.7703451 77.7368164,17.543457 L77.7368164,17.543457 L77.7368164,15.9580078 C77.2000326,16.1959635 76.6978353,16.3661296 76.2302246,16.4685059 C75.7626139,16.5708822 75.2576497,16.6220703 74.715332,16.6220703 C73.8907878,16.6220703 73.2516276,16.3827311 72.7978516,15.9040527 C72.3440755,15.4253743 72.1033529,14.7405599 72.0756836,13.8496094 L72.0756836,13.8496094 L78.1933594,13.8496094 L78.1933594,12.7954102 C78.1933594,11.5060221 77.8419596,10.4933268 77.1391602,9.75732422 C76.4363607,9.02132161 75.4790039,8.65332031 74.2670898,8.65332031 C72.9611003,8.65332031 71.9345703,9.08219401 71.1875,9.93994141 C70.4404297,10.7976888 70.0668945,11.9763997 70.0668945,13.4760742 C70.0668945,14.9370117 70.4694824,16.083903 71.2746582,16.916748 C72.079834,17.7495931 73.1962891,18.1660156 74.6240234,18.1660156 Z M76.2758789,12.4384766 L72.1088867,12.4384766 C72.1808268,11.6858724 72.4035645,11.1131185 72.7770996,10.7202148 C73.1506348,10.3273112 73.6472982,10.1308594 74.2670898,10.1308594 C74.8868815,10.1308594 75.3738607,10.3259277 75.7280273,10.7160645 C76.082194,11.1062012 76.2648112,11.6803385 76.2758789,12.4384766 L76.2758789,12.4384766 Z" id="path-2"></path>
    </defs>
    <g id="Symbols" stroke="none" stroke-width="1" fill="none" fill-rule="evenodd">
        <g id="i/Complete">
            <g id="Complete">
                <path d="M6,0 L157,0 C160.313708,-6.08718376e-16 163,2.6862915 163,6 L163,91 C163,94.3137085 160.313708,97 157,97 L6,97 C2.6862915,97 4.05812251e-16,94.3137085 0,91 L0,6 C-4.05812251e-16,2.6862915 2.6862915,6.08718376e-16 6,0 Z" id="Rectangle-2" fill="url(#radialGradient-1)" fill-rule="nonzero"></path>
                <polyline id="Line-2" stroke="#FFFFFF" stroke-width="4" stroke-linecap="square" points="2 30 20.4627861 30 161 30"></polyline>
                <line x1="81" y1="45" x2="81" y2="85.0042519" id="Line-3" stroke="#FFFFFF" stroke-width="2" stroke-linecap="square"></line>
                <g id="Adverbs" transform="translate(43.000000, 2.000000)" fill="#FFFFFF" fill-rule="nonzero">
                    <g id="Complete">
                        <use xlink:href="#path-2"></use>
                        <use xlink:href="#path-2"></use>
                    </g>
                </g>
                <path d="M94.5195312,47 L94.5195312,43.484375 L97.7480469,43.484375 L97.7480469,42.2949219 L94.5195312,42.2949219 L94.5195312,39.6171875 L97.9648438,39.6171875 L97.9648438,38.4335938 L93.1308594,38.4335938 L93.1308594,47 L94.5195312,47 Z M100.068359,39.5585938 C100.310547,39.5585938 100.499023,39.4912109 100.633789,39.3564453 C100.768555,39.2216797 100.835938,39.0371094 100.835938,38.8027344 C100.835938,38.5566406 100.768555,38.3671875 100.633789,38.234375 C100.499023,38.1015625 100.310547,38.0351562 100.068359,38.0351562 C99.8183594,38.0351562 99.6259766,38.1015625 99.4912109,38.234375 C99.3564453,38.3671875 99.2890625,38.5566406 99.2890625,38.8027344 C99.2890625,39.0371094 99.3564453,39.2216797 99.4912109,39.3564453 C99.6259766,39.4912109 99.8183594,39.5585938 100.068359,39.5585938 Z M100.748047,47 L100.748047,40.5195312 L99.3710938,40.5195312 L99.3710938,47 L100.748047,47 Z M104.09375,47 L104.09375,37.8828125 L102.716797,37.8828125 L102.716797,47 L104.09375,47 Z M107.439453,47 L107.439453,37.8828125 L106.0625,37.8828125 L106.0625,47 L107.439453,47 Z M113.222656,39.5585938 C113.464844,39.5585938 113.65332,39.4912109 113.788086,39.3564453 C113.922852,39.2216797 113.990234,39.0371094 113.990234,38.8027344 C113.990234,38.5566406 113.922852,38.3671875 113.788086,38.234375 C113.65332,38.1015625 113.464844,38.0351562 113.222656,38.0351562 C112.972656,38.0351562 112.780273,38.1015625 112.645508,38.234375 C112.510742,38.3671875 112.443359,38.5566406 112.443359,38.8027344 C112.443359,39.0371094 112.510742,39.2216797 112.645508,39.3564453 C112.780273,39.4912109 112.972656,39.5585938 113.222656,39.5585938 Z M113.902344,47 L113.902344,40.5195312 L112.525391,40.5195312 L112.525391,47 L113.902344,47 Z M117.248047,47 L117.248047,43.7714844 C117.248047,42.9628906 117.382812,42.3867188 117.652344,42.0429688 C117.921875,41.6992188 118.347656,41.5273438 118.929688,41.5273438 C119.367188,41.5273438 119.686523,41.6503906 119.887695,41.8964844 C120.088867,42.1425781 120.189453,42.515625 120.189453,43.015625 L120.189453,43.015625 L120.189453,47 L121.572266,47 L121.572266,42.7753906 C121.572266,41.1933594 120.794922,40.4023438 119.240234,40.4023438 C118.802734,40.4023438 118.404297,40.4863281 118.044922,40.6542969 C117.685547,40.8222656 117.408203,41.0605469 117.212891,41.3691406 L117.212891,41.3691406 L117.142578,41.3691406 L116.949219,40.5195312 L115.871094,40.5195312 L115.871094,47 L117.248047,47 Z M128.691406,47.1171875 C128.949219,47.1171875 129.198242,47.0947266 129.438477,47.0498047 C129.678711,47.0048828 129.875,46.9492188 130.027344,46.8828125 L130.027344,46.8828125 L130.027344,45.8457031 C129.691406,45.9511719 129.355469,46.0039062 129.019531,46.0039062 C128.75,46.0039062 128.532227,45.9248047 128.366211,45.7666016 C128.200195,45.6083984 128.117188,45.3632812 128.117188,45.03125 L128.117188,45.03125 L128.117188,41.5625 L129.962891,41.5625 L129.962891,40.5195312 L128.117188,40.5195312 L128.117188,39.078125 L127.267578,39.078125 L126.798828,40.4492188 L125.849609,40.953125 L125.849609,41.5625 L126.734375,41.5625 L126.734375,45.0546875 C126.734375,46.4296875 127.386719,47.1171875 128.691406,47.1171875 Z M132.699219,47 L132.699219,43.7832031 C132.699219,42.9707031 132.834961,42.3916016 133.106445,42.0458984 C133.37793,41.7001953 133.802734,41.5273438 134.380859,41.5273438 C134.818359,41.5273438 135.137695,41.6503906 135.338867,41.8964844 C135.540039,42.1425781 135.640625,42.515625 135.640625,43.015625 L135.640625,43.015625 L135.640625,47 L137.023438,47 L137.023438,42.7753906 C137.023438,41.1933594 136.238281,40.4023438 134.667969,40.4023438 C134.222656,40.4023438 133.833008,40.4882812 133.499023,40.6601562 C133.165039,40.8320312 132.904297,41.0742188 132.716797,41.3867188 L132.716797,41.3867188 L132.628906,41.3867188 C132.675781,40.9648438 132.699219,40.5683594 132.699219,40.1972656 L132.699219,40.1972656 L132.699219,37.8828125 L131.322266,37.8828125 L131.322266,47 L132.699219,47 Z M141.769531,47.1171875 C142.210938,47.1171875 142.603516,47.0839844 142.947266,47.0175781 C143.291016,46.9511719 143.630859,46.8378906 143.966797,46.6777344 L143.966797,46.6777344 L143.966797,45.5585938 C143.587891,45.7265625 143.233398,45.8466797 142.90332,45.9189453 C142.573242,45.9912109 142.216797,46.0273438 141.833984,46.0273438 C141.251953,46.0273438 140.800781,45.8583984 140.480469,45.5205078 C140.160156,45.1826172 139.990234,44.6992188 139.970703,44.0703125 L139.970703,44.0703125 L144.289062,44.0703125 L144.289062,43.3261719 C144.289062,42.4160156 144.041016,41.7011719 143.544922,41.1816406 C143.048828,40.6621094 142.373047,40.4023438 141.517578,40.4023438 C140.595703,40.4023438 139.871094,40.7050781 139.34375,41.3105469 C138.816406,41.9160156 138.552734,42.7480469 138.552734,43.8066406 C138.552734,44.8378906 138.836914,45.6474609 139.405273,46.2353516 C139.973633,46.8232422 140.761719,47.1171875 141.769531,47.1171875 Z M142.935547,43.0742188 L139.994141,43.0742188 C140.044922,42.5429688 140.202148,42.1386719 140.46582,41.8613281 C140.729492,41.5839844 141.080078,41.4453125 141.517578,41.4453125 C141.955078,41.4453125 142.298828,41.5830078 142.548828,41.8583984 C142.798828,42.1337891 142.927734,42.5390625 142.935547,43.0742188 L142.935547,43.0742188 Z M94.8535156,61.8828125 C95.9980469,61.8828125 96.8730469,61.6835938 97.4785156,61.2851562 C98.0839844,60.8867188 98.3867188,60.3203125 98.3867188,59.5859375 C98.3867188,59.0117188 98.2011719,58.5722656 97.8300781,58.2675781 C97.4589844,57.9628906 96.9160156,57.8105469 96.2011719,57.8105469 L96.2011719,57.8105469 L95.0703125,57.8105469 C94.6992188,57.8105469 94.4443359,57.7734375 94.3056641,57.6992188 C94.1669922,57.625 94.0976562,57.5136719 94.0976562,57.3652344 C94.0976562,57.1191406 94.2460938,56.9042969 94.5429688,56.7207031 C94.7109375,56.7519531 94.8984375,56.7675781 95.1054688,56.7675781 C95.9140625,56.7675781 96.5488281,56.5761719 97.0097656,56.1933594 C97.4707031,55.8105469 97.7011719,55.2851562 97.7011719,54.6171875 C97.7011719,54.3945312 97.6679688,54.1835938 97.6015625,53.984375 C97.5351562,53.7851562 97.4511719,53.6171875 97.3496094,53.4804688 L97.3496094,53.4804688 L98.4570312,53.2753906 L98.4570312,52.5195312 L96.2128906,52.5195312 C96.1113281,52.4921875 95.9599609,52.4658203 95.7587891,52.4404297 C95.5576172,52.4150391 95.3652344,52.4023438 95.1816406,52.4023438 C94.3613281,52.4023438 93.7294922,52.5957031 93.2861328,52.9824219 C92.8427734,53.3691406 92.6210938,53.9140625 92.6210938,54.6171875 C92.6210938,55.0546875 92.7255859,55.4365234 92.9345703,55.7626953 C93.1435547,56.0888672 93.4160156,56.3242188 93.7519531,56.46875 C93.4824219,56.6328125 93.2792969,56.7988281 93.1425781,56.9667969 C93.0058594,57.1347656 92.9375,57.3398438 92.9375,57.5820312 C92.9375,57.7734375 92.9970703,57.9560547 93.1162109,58.1298828 C93.2353516,58.3037109 93.3867188,58.4296875 93.5703125,58.5078125 C93.1171875,58.6132812 92.7646484,58.8017578 92.5126953,59.0732422 C92.2607422,59.3447266 92.1347656,59.6796875 92.1347656,60.078125 C92.1347656,60.65625 92.3671875,61.1015625 92.8320312,61.4140625 C93.296875,61.7265625 93.9707031,61.8828125 94.8535156,61.8828125 Z M95.1699219,55.8828125 C94.7792969,55.8828125 94.4794922,55.7734375 94.2705078,55.5546875 C94.0615234,55.3359375 93.9570312,55.0234375 93.9570312,54.6171875 C93.9570312,54.1835938 94.0595703,53.8535156 94.2646484,53.6269531 C94.4697266,53.4003906 94.7714844,53.2871094 95.1699219,53.2871094 C95.5722656,53.2871094 95.8720703,53.4013672 96.0693359,53.6298828 C96.2666016,53.8583984 96.3652344,54.1835938 96.3652344,54.6054688 C96.3652344,55.4570312 95.9667969,55.8828125 95.1699219,55.8828125 Z M94.8945312,60.9335938 C94.4101562,60.9335938 94.0341797,60.8535156 93.7666016,60.6933594 C93.4990234,60.5332031 93.3652344,60.3046875 93.3652344,60.0078125 C93.3652344,59.6914062 93.4814453,59.4404297 93.7138672,59.2548828 C93.9462891,59.0693359 94.2597656,58.9765625 94.6542969,58.9765625 L94.6542969,58.9765625 L95.6972656,58.9765625 C96.2441406,58.9765625 96.6181641,59.0361328 96.8193359,59.1552734 C97.0205078,59.2744141 97.1210938,59.4746094 97.1210938,59.7558594 C97.1210938,60.1113281 96.9375,60.3964844 96.5703125,60.6113281 C96.203125,60.8261719 95.6445312,60.9335938 94.8945312,60.9335938 Z M101.228516,59.1171875 C101.724609,59.1171875 102.130859,59.0458984 102.447266,58.9033203 C102.763672,58.7607422 103.078125,58.4921875 103.390625,58.0976562 L103.390625,58.0976562 L103.4375,58.0976562 L103.712891,59 L104.697266,59 L104.697266,54.6347656 C104.697266,53.8652344 104.487305,53.3007812 104.067383,52.9414062 C103.647461,52.5820312 103.025391,52.4023438 102.201172,52.4023438 C101.830078,52.4023438 101.435547,52.4501953 101.017578,52.5458984 C100.599609,52.6416016 100.214844,52.78125 99.8632812,52.9648438 L99.8632812,52.9648438 L100.308594,53.9492188 C100.589844,53.8164062 100.882812,53.7011719 101.1875,53.6035156 C101.492188,53.5058594 101.810547,53.4570312 102.142578,53.4570312 C102.548828,53.4570312 102.848633,53.5595703 103.041992,53.7646484 C103.235352,53.9697266 103.332031,54.2792969 103.332031,54.6933594 L103.332031,54.6933594 L103.332031,55.0390625 L102.212891,55.0742188 C101.197266,55.1054688 100.441406,55.2910156 99.9453125,55.6308594 C99.4492188,55.9707031 99.2011719,56.4746094 99.2011719,57.1425781 C99.2011719,57.7714844 99.3798828,58.2578125 99.7373047,58.6015625 C100.094727,58.9453125 100.591797,59.1171875 101.228516,59.1171875 Z M101.662109,58.0625 C101.318359,58.0625 101.060547,57.9833984 100.888672,57.8251953 C100.716797,57.6669922 100.630859,57.4433594 100.630859,57.1542969 C100.630859,56.7558594 100.77832,56.4599609 101.073242,56.2666016 C101.368164,56.0732422 101.839844,55.9648438 102.488281,55.9414062 L102.488281,55.9414062 L103.320312,55.90625 L103.320312,56.46875 C103.320312,56.9726562 103.168945,57.3642578 102.866211,57.6435547 C102.563477,57.9228516 102.162109,58.0625 101.662109,58.0625 Z M107.996094,61.8828125 L107.996094,59.2285156 C107.996094,59.1113281 107.96875,58.7792969 107.914062,58.2324219 L107.914062,58.2324219 L107.996094,58.2324219 C108.449219,58.8222656 109.085938,59.1171875 109.90625,59.1171875 C110.714844,59.1171875 111.348633,58.8203125 111.807617,58.2265625 C112.266602,57.6328125 112.496094,56.8066406 112.496094,55.7480469 C112.496094,54.6894531 112.270508,53.8671875 111.819336,53.28125 C111.368164,52.6953125 110.738281,52.4023438 109.929688,52.4023438 C109.070312,52.4023438 108.425781,52.7304688 107.996094,53.3867188 L107.996094,53.3867188 L107.925781,53.3867188 C107.828125,52.9296875 107.763672,52.640625 107.732422,52.5195312 L107.732422,52.5195312 L106.619141,52.5195312 L106.619141,61.8828125 L107.996094,61.8828125 Z M109.595703,57.9921875 C109.029297,57.9921875 108.621094,57.8154297 108.371094,57.4619141 C108.121094,57.1083984 107.996094,56.5371094 107.996094,55.7480469 L107.996094,55.7480469 L107.996094,55.5429688 C107.996094,54.8398438 108.12207,54.328125 108.374023,54.0078125 C108.625977,53.6875 109.025391,53.5273438 109.572266,53.5273438 C110.068359,53.5273438 110.444336,53.7138672 110.700195,54.0869141 C110.956055,54.4599609 111.083984,55.0097656 111.083984,55.7363281 C111.083984,56.4589844 110.955078,57.015625 110.697266,57.40625 C110.439453,57.796875 110.072266,57.9921875 109.595703,57.9921875 Z M115.777344,59.1171875 C116.636719,59.1171875 117.296875,58.9482422 117.757812,58.6103516 C118.21875,58.2724609 118.449219,57.7871094 118.449219,57.1542969 C118.449219,56.8417969 118.390625,56.5732422 118.273438,56.3486328 C118.15625,56.1240234 117.976562,55.9257812 117.734375,55.7539062 C117.492188,55.5820312 117.103516,55.3925781 116.568359,55.1855469 C115.931641,54.9394531 115.518555,54.7460938 115.329102,54.6054688 C115.139648,54.4648438 115.044922,54.2929688 115.044922,54.0898438 C115.044922,53.6757812 115.408203,53.46875 116.134766,53.46875 C116.611328,53.46875 117.199219,53.6132812 117.898438,53.9023438 L117.898438,53.9023438 L118.34375,52.8652344 C117.664062,52.5566406 116.943359,52.4023438 116.181641,52.4023438 C115.412109,52.4023438 114.803711,52.5556641 114.356445,52.8623047 C113.90918,53.1689453 113.685547,53.5996094 113.685547,54.1542969 C113.685547,54.6152344 113.817383,54.9902344 114.081055,55.2792969 C114.344727,55.5683594 114.849609,55.8574219 115.595703,56.1464844 C115.978516,56.2949219 116.277344,56.4277344 116.492188,56.5449219 C116.707031,56.6621094 116.861328,56.7753906 116.955078,56.8847656 C117.048828,56.9941406 117.095703,57.1308594 117.095703,57.2949219 C117.095703,57.8066406 116.671875,58.0625 115.824219,58.0625 C115.167969,58.0625 114.458984,57.8867188 113.697266,57.5351562 L113.697266,57.5351562 L113.697266,58.7246094 C114.220703,58.9863281 114.914062,59.1171875 115.777344,59.1171875 Z M125.720703,59.1171875 C126.689453,59.1171875 127.445312,58.8203125 127.988281,58.2265625 C128.53125,57.6328125 128.802734,56.8066406 128.802734,55.7480469 C128.802734,54.7246094 128.529297,53.9111328 127.982422,53.3076172 C127.435547,52.7041016 126.693359,52.4023438 125.755859,52.4023438 C124.775391,52.4023438 124.015625,52.6972656 123.476562,53.2871094 C122.9375,53.8769531 122.667969,54.6972656 122.667969,55.7480469 C122.667969,56.4238281 122.792969,57.0175781 123.042969,57.5292969 C123.292969,58.0410156 123.650391,58.4335938 124.115234,58.7070312 C124.580078,58.9804688 125.115234,59.1171875 125.720703,59.1171875 Z M125.744141,57.9921875 C124.638672,57.9921875 124.085938,57.2441406 124.085938,55.7480469 C124.085938,55.0332031 124.21582,54.484375 124.475586,54.1015625 C124.735352,53.71875 125.154297,53.5273438 125.732422,53.5273438 C126.833984,53.5273438 127.384766,54.2675781 127.384766,55.7480469 C127.384766,57.2441406 126.837891,57.9921875 125.744141,57.9921875 Z M131.761719,59 L131.761719,55.6132812 C131.761719,55.0390625 131.932617,54.5722656 132.274414,54.2128906 C132.616211,53.8535156 133.0625,53.6738281 133.613281,53.6738281 C133.824219,53.6738281 134.027344,53.6972656 134.222656,53.7441406 L134.222656,53.7441406 L134.357422,52.4609375 C134.177734,52.421875 133.949219,52.4023438 133.671875,52.4023438 C133.273438,52.4023438 132.901367,52.515625 132.555664,52.7421875 C132.209961,52.96875 131.929688,53.2753906 131.714844,53.6621094 L131.714844,53.6621094 L131.644531,53.6621094 L131.462891,52.5195312 L130.384766,52.5195312 L130.384766,59 L131.761719,59 Z M94.3613281,71 L94.3613281,67.7714844 C94.3613281,66.9667969 94.4853516,66.3916016 94.7333984,66.0458984 C94.9814453,65.7001953 95.3710938,65.5273438 95.9023438,65.5273438 C96.3007812,65.5273438 96.59375,65.6494141 96.78125,65.8935547 C96.96875,66.1376953 97.0625,66.5078125 97.0625,67.0039062 L97.0625,67.0039062 L97.0625,71 L98.4453125,71 L98.4453125,67.5664062 C98.4453125,66.875 98.5693359,66.3623047 98.8173828,66.0283203 C99.0654297,65.6943359 99.4570312,65.5273438 99.9921875,65.5273438 C100.390625,65.5273438 100.68457,65.6494141 100.874023,65.8935547 C101.063477,66.1376953 101.158203,66.5078125 101.158203,67.0039062 L101.158203,67.0039062 L101.158203,71 L102.535156,71 L102.535156,66.7753906 C102.535156,65.9746094 102.358398,65.3789062 102.004883,64.9882812 C101.651367,64.5976562 101.087891,64.4023438 100.314453,64.4023438 C99.8652344,64.4023438 99.4667969,64.4921875 99.1191406,64.671875 C98.7714844,64.8515625 98.5019531,65.1015625 98.3105469,65.421875 L98.3105469,65.421875 L98.2167969,65.421875 C97.8925781,64.7421875 97.2324219,64.4023438 96.2363281,64.4023438 C95.8261719,64.4023438 95.4501953,64.4863281 95.1083984,64.6542969 C94.7666016,64.8222656 94.5058594,65.0605469 94.3261719,65.3691406 L94.3261719,65.3691406 L94.2558594,65.3691406 L94.0625,64.5195312 L92.984375,64.5195312 L92.984375,71 L94.3613281,71 Z M106.027344,71.1171875 C106.523438,71.1171875 106.929688,71.0458984 107.246094,70.9033203 C107.5625,70.7607422 107.876953,70.4921875 108.189453,70.0976562 L108.189453,70.0976562 L108.236328,70.0976562 L108.511719,71 L109.496094,71 L109.496094,66.6347656 C109.496094,65.8652344 109.286133,65.3007812 108.866211,64.9414062 C108.446289,64.5820312 107.824219,64.4023438 107,64.4023438 C106.628906,64.4023438 106.234375,64.4501953 105.816406,64.5458984 C105.398438,64.6416016 105.013672,64.78125 104.662109,64.9648438 L104.662109,64.9648438 L105.107422,65.9492188 C105.388672,65.8164062 105.681641,65.7011719 105.986328,65.6035156 C106.291016,65.5058594 106.609375,65.4570312 106.941406,65.4570312 C107.347656,65.4570312 107.647461,65.5595703 107.84082,65.7646484 C108.03418,65.9697266 108.130859,66.2792969 108.130859,66.6933594 L108.130859,66.6933594 L108.130859,67.0390625 L107.011719,67.0742188 C105.996094,67.1054688 105.240234,67.2910156 104.744141,67.6308594 C104.248047,67.9707031 104,68.4746094 104,69.1425781 C104,69.7714844 104.178711,70.2578125 104.536133,70.6015625 C104.893555,70.9453125 105.390625,71.1171875 106.027344,71.1171875 Z M106.460938,70.0625 C106.117188,70.0625 105.859375,69.9833984 105.6875,69.8251953 C105.515625,69.6669922 105.429688,69.4433594 105.429688,69.1542969 C105.429688,68.7558594 105.577148,68.4599609 105.87207,68.2666016 C106.166992,68.0732422 106.638672,67.9648438 107.287109,67.9414062 L107.287109,67.9414062 L108.119141,67.90625 L108.119141,68.46875 C108.119141,68.9726562 107.967773,69.3642578 107.665039,69.6435547 C107.362305,69.9228516 106.960938,70.0625 106.460938,70.0625 Z M112.783203,71 L112.783203,68.7792969 L113.539062,68.1582031 L115.619141,71 L117.236328,71 L114.464844,67.3027344 L117.072266,64.5195312 L115.484375,64.5195312 L113.527344,66.6054688 L112.748047,67.578125 L112.712891,67.578125 L112.783203,66.3300781 L112.783203,61.8828125 L111.417969,61.8828125 L111.417969,71 L112.783203,71 Z M121.109375,71.1171875 C121.550781,71.1171875 121.943359,71.0839844 122.287109,71.0175781 C122.630859,70.9511719 122.970703,70.8378906 123.306641,70.6777344 L123.306641,70.6777344 L123.306641,69.5585938 C122.927734,69.7265625 122.573242,69.8466797 122.243164,69.9189453 C121.913086,69.9912109 121.556641,70.0273438 121.173828,70.0273438 C120.591797,70.0273438 120.140625,69.8583984 119.820312,69.5205078 C119.5,69.1826172 119.330078,68.6992188 119.310547,68.0703125 L119.310547,68.0703125 L123.628906,68.0703125 L123.628906,67.3261719 C123.628906,66.4160156 123.380859,65.7011719 122.884766,65.1816406 C122.388672,64.6621094 121.712891,64.4023438 120.857422,64.4023438 C119.935547,64.4023438 119.210938,64.7050781 118.683594,65.3105469 C118.15625,65.9160156 117.892578,66.7480469 117.892578,67.8066406 C117.892578,68.8378906 118.176758,69.6474609 118.745117,70.2353516 C119.313477,70.8232422 120.101562,71.1171875 121.109375,71.1171875 Z M122.275391,67.0742188 L119.333984,67.0742188 C119.384766,66.5429688 119.541992,66.1386719 119.805664,65.8613281 C120.069336,65.5839844 120.419922,65.4453125 120.857422,65.4453125 C121.294922,65.4453125 121.638672,65.5830078 121.888672,65.8583984 C122.138672,66.1337891 122.267578,66.5390625 122.275391,67.0742188 L122.275391,67.0742188 Z M129.880859,71.1171875 C130.376953,71.1171875 130.783203,71.0458984 131.099609,70.9033203 C131.416016,70.7607422 131.730469,70.4921875 132.042969,70.0976562 L132.042969,70.0976562 L132.089844,70.0976562 L132.365234,71 L133.349609,71 L133.349609,66.6347656 C133.349609,65.8652344 133.139648,65.3007812 132.719727,64.9414062 C132.299805,64.5820312 131.677734,64.4023438 130.853516,64.4023438 C130.482422,64.4023438 130.087891,64.4501953 129.669922,64.5458984 C129.251953,64.6416016 128.867188,64.78125 128.515625,64.9648438 L128.515625,64.9648438 L128.960938,65.9492188 C129.242188,65.8164062 129.535156,65.7011719 129.839844,65.6035156 C130.144531,65.5058594 130.462891,65.4570312 130.794922,65.4570312 C131.201172,65.4570312 131.500977,65.5595703 131.694336,65.7646484 C131.887695,65.9697266 131.984375,66.2792969 131.984375,66.6933594 L131.984375,66.6933594 L131.984375,67.0390625 L130.865234,67.0742188 C129.849609,67.1054688 129.09375,67.2910156 128.597656,67.6308594 C128.101562,67.9707031 127.853516,68.4746094 127.853516,69.1425781 C127.853516,69.7714844 128.032227,70.2578125 128.389648,70.6015625 C128.74707,70.9453125 129.244141,71.1171875 129.880859,71.1171875 Z M130.314453,70.0625 C129.970703,70.0625 129.712891,69.9833984 129.541016,69.8251953 C129.369141,69.6669922 129.283203,69.4433594 129.283203,69.1542969 C129.283203,68.7558594 129.430664,68.4599609 129.725586,68.2666016 C130.020508,68.0732422 130.492188,67.9648438 131.140625,67.9414062 L131.140625,67.9414062 L131.972656,67.90625 L131.972656,68.46875 C131.972656,68.9726562 131.821289,69.3642578 131.518555,69.6435547 C131.21582,69.9228516 130.814453,70.0625 130.314453,70.0625 Z M95.5976562,83.1171875 C95.9960938,83.1171875 96.3349609,83.0859375 96.6142578,83.0234375 C96.8935547,82.9609375 97.15625,82.8574219 97.4023438,82.7128906 L97.4023438,82.7128906 L97.4023438,81.5117188 C96.8554688,81.8164062 96.2753906,81.96875 95.6621094,81.96875 C95.1230469,81.96875 94.7138672,81.7861328 94.4345703,81.4208984 C94.1552734,81.0556641 94.015625,80.5097656 94.015625,79.7832031 C94.015625,78.2949219 94.5761719,77.5507812 95.6972656,77.5507812 C96.0761719,77.5507812 96.5566406,77.6640625 97.1386719,77.890625 L97.1386719,77.890625 L97.5546875,76.7832031 C97.0078125,76.5292969 96.3925781,76.4023438 95.7089844,76.4023438 C94.7011719,76.4023438 93.9306641,76.6953125 93.3974609,77.28125 C92.8642578,77.8671875 92.5976562,78.7050781 92.5976562,79.7949219 C92.5976562,80.8652344 92.8525391,81.6865234 93.3623047,82.2587891 C93.8720703,82.8310547 94.6171875,83.1171875 95.5976562,83.1171875 Z M101.591797,83.1171875 C102.560547,83.1171875 103.316406,82.8203125 103.859375,82.2265625 C104.402344,81.6328125 104.673828,80.8066406 104.673828,79.7480469 C104.673828,78.7246094 104.400391,77.9111328 103.853516,77.3076172 C103.306641,76.7041016 102.564453,76.4023438 101.626953,76.4023438 C100.646484,76.4023438 99.8867188,76.6972656 99.3476562,77.2871094 C98.8085938,77.8769531 98.5390625,78.6972656 98.5390625,79.7480469 C98.5390625,80.4238281 98.6640625,81.0175781 98.9140625,81.5292969 C99.1640625,82.0410156 99.5214844,82.4335938 99.9863281,82.7070312 C100.451172,82.9804688 100.986328,83.1171875 101.591797,83.1171875 Z M101.615234,81.9921875 C100.509766,81.9921875 99.9570312,81.2441406 99.9570312,79.7480469 C99.9570312,79.0332031 100.086914,78.484375 100.34668,78.1015625 C100.606445,77.71875 101.025391,77.5273438 101.603516,77.5273438 C102.705078,77.5273438 103.255859,78.2675781 103.255859,79.7480469 C103.255859,81.2441406 102.708984,81.9921875 101.615234,81.9921875 Z M107.632812,83 L107.632812,79.6132812 C107.632812,79.0390625 107.803711,78.5722656 108.145508,78.2128906 C108.487305,77.8535156 108.933594,77.6738281 109.484375,77.6738281 C109.695312,77.6738281 109.898438,77.6972656 110.09375,77.7441406 L110.09375,77.7441406 L110.228516,76.4609375 C110.048828,76.421875 109.820312,76.4023438 109.542969,76.4023438 C109.144531,76.4023438 108.772461,76.515625 108.426758,76.7421875 C108.081055,76.96875 107.800781,77.2753906 107.585938,77.6621094 L107.585938,77.6621094 L107.515625,77.6621094 L107.333984,76.5195312 L106.255859,76.5195312 L106.255859,83 L107.632812,83 Z M112.806641,83 L112.806641,79.6132812 C112.806641,79.0390625 112.977539,78.5722656 113.319336,78.2128906 C113.661133,77.8535156 114.107422,77.6738281 114.658203,77.6738281 C114.869141,77.6738281 115.072266,77.6972656 115.267578,77.7441406 L115.267578,77.7441406 L115.402344,76.4609375 C115.222656,76.421875 114.994141,76.4023438 114.716797,76.4023438 C114.318359,76.4023438 113.946289,76.515625 113.600586,76.7421875 C113.254883,76.96875 112.974609,77.2753906 112.759766,77.6621094 L112.759766,77.6621094 L112.689453,77.6621094 L112.507812,76.5195312 L111.429688,76.5195312 L111.429688,83 L112.806641,83 Z M119.433594,83.1171875 C119.875,83.1171875 120.267578,83.0839844 120.611328,83.0175781 C120.955078,82.9511719 121.294922,82.8378906 121.630859,82.6777344 L121.630859,82.6777344 L121.630859,81.5585938 C121.251953,81.7265625 120.897461,81.8466797 120.567383,81.9189453 C120.237305,81.9912109 119.880859,82.0273438 119.498047,82.0273438 C118.916016,82.0273438 118.464844,81.8583984 118.144531,81.5205078 C117.824219,81.1826172 117.654297,80.6992188 117.634766,80.0703125 L117.634766,80.0703125 L121.953125,80.0703125 L121.953125,79.3261719 C121.953125,78.4160156 121.705078,77.7011719 121.208984,77.1816406 C120.712891,76.6621094 120.037109,76.4023438 119.181641,76.4023438 C118.259766,76.4023438 117.535156,76.7050781 117.007812,77.3105469 C116.480469,77.9160156 116.216797,78.7480469 116.216797,79.8066406 C116.216797,80.8378906 116.500977,81.6474609 117.069336,82.2353516 C117.637695,82.8232422 118.425781,83.1171875 119.433594,83.1171875 Z M120.599609,79.0742188 L117.658203,79.0742188 C117.708984,78.5429688 117.866211,78.1386719 118.129883,77.8613281 C118.393555,77.5839844 118.744141,77.4453125 119.181641,77.4453125 C119.619141,77.4453125 119.962891,77.5830078 120.212891,77.8583984 C120.462891,78.1337891 120.591797,78.5390625 120.599609,79.0742188 L120.599609,79.0742188 Z M126.130859,83.1171875 C126.529297,83.1171875 126.868164,83.0859375 127.147461,83.0234375 C127.426758,82.9609375 127.689453,82.8574219 127.935547,82.7128906 L127.935547,82.7128906 L127.935547,81.5117188 C127.388672,81.8164062 126.808594,81.96875 126.195312,81.96875 C125.65625,81.96875 125.24707,81.7861328 124.967773,81.4208984 C124.688477,81.0556641 124.548828,80.5097656 124.548828,79.7832031 C124.548828,78.2949219 125.109375,77.5507812 126.230469,77.5507812 C126.609375,77.5507812 127.089844,77.6640625 127.671875,77.890625 L127.671875,77.890625 L128.087891,76.7832031 C127.541016,76.5292969 126.925781,76.4023438 126.242188,76.4023438 C125.234375,76.4023438 124.463867,76.6953125 123.930664,77.28125 C123.397461,77.8671875 123.130859,78.7050781 123.130859,79.7949219 C123.130859,80.8652344 123.385742,81.6865234 123.895508,82.2587891 C124.405273,82.8310547 125.150391,83.1171875 126.130859,83.1171875 Z M131.544922,83.1171875 C131.802734,83.1171875 132.051758,83.0947266 132.291992,83.0498047 C132.532227,83.0048828 132.728516,82.9492188 132.880859,82.8828125 L132.880859,82.8828125 L132.880859,81.8457031 C132.544922,81.9511719 132.208984,82.0039062 131.873047,82.0039062 C131.603516,82.0039062 131.385742,81.9248047 131.219727,81.7666016 C131.053711,81.6083984 130.970703,81.3632812 130.970703,81.03125 L130.970703,81.03125 L130.970703,77.5625 L132.816406,77.5625 L132.816406,76.5195312 L130.970703,76.5195312 L130.970703,75.078125 L130.121094,75.078125 L129.652344,76.4492188 L128.703125,76.953125 L128.703125,77.5625 L129.587891,77.5625 L129.587891,81.0546875 C129.587891,82.4296875 130.240234,83.1171875 131.544922,83.1171875 Z M134.873047,75.5585938 C135.115234,75.5585938 135.303711,75.4912109 135.438477,75.3564453 C135.573242,75.2216797 135.640625,75.0371094 135.640625,74.8027344 C135.640625,74.5566406 135.573242,74.3671875 135.438477,74.234375 C135.303711,74.1015625 135.115234,74.0351562 134.873047,74.0351562 C134.623047,74.0351562 134.430664,74.1015625 134.295898,74.234375 C134.161133,74.3671875 134.09375,74.5566406 134.09375,74.8027344 C134.09375,75.0371094 134.161133,75.2216797 134.295898,75.3564453 C134.430664,75.4912109 134.623047,75.5585938 134.873047,75.5585938 Z M135.552734,83 L135.552734,76.5195312 L134.175781,76.5195312 L134.175781,83 L135.552734,83 Z M140.1875,83.1171875 C141.15625,83.1171875 141.912109,82.8203125 142.455078,82.2265625 C142.998047,81.6328125 143.269531,80.8066406 143.269531,79.7480469 C143.269531,78.7246094 142.996094,77.9111328 142.449219,77.3076172 C141.902344,76.7041016 141.160156,76.4023438 140.222656,76.4023438 C139.242188,76.4023438 138.482422,76.6972656 137.943359,77.2871094 C137.404297,77.8769531 137.134766,78.6972656 137.134766,79.7480469 C137.134766,80.4238281 137.259766,81.0175781 137.509766,81.5292969 C137.759766,82.0410156 138.117188,82.4335938 138.582031,82.7070312 C139.046875,82.9804688 139.582031,83.1171875 140.1875,83.1171875 Z M140.210938,81.9921875 C139.105469,81.9921875 138.552734,81.2441406 138.552734,79.7480469 C138.552734,79.0332031 138.682617,78.484375 138.942383,78.1015625 C139.202148,77.71875 139.621094,77.5273438 140.199219,77.5273438 C141.300781,77.5273438 141.851562,78.2675781 141.851562,79.7480469 C141.851562,81.2441406 141.304688,81.9921875 140.210938,81.9921875 Z M146.228516,83 L146.228516,79.7714844 C146.228516,78.9628906 146.363281,78.3867188 146.632812,78.0429688 C146.902344,77.6992188 147.328125,77.5273438 147.910156,77.5273438 C148.347656,77.5273438 148.666992,77.6503906 148.868164,77.8964844 C149.069336,78.1425781 149.169922,78.515625 149.169922,79.015625 L149.169922,79.015625 L149.169922,83 L150.552734,83 L150.552734,78.7753906 C150.552734,77.1933594 149.775391,76.4023438 148.220703,76.4023438 C147.783203,76.4023438 147.384766,76.4863281 147.025391,76.6542969 C146.666016,76.8222656 146.388672,77.0605469 146.193359,77.3691406 L146.193359,77.3691406 L146.123047,77.3691406 L145.929688,76.5195312 L144.851562,76.5195312 L144.851562,83 L146.228516,83 Z M153.130859,83.1699219 C153.412109,83.1699219 153.62793,83.0888672 153.77832,82.9267578 C153.928711,82.7646484 154.003906,82.5449219 154.003906,82.2675781 C154.003906,81.9941406 153.929688,81.7783203 153.78125,81.6201172 C153.632812,81.4619141 153.416016,81.3828125 153.130859,81.3828125 C152.849609,81.3828125 152.634766,81.4589844 152.486328,81.6113281 C152.337891,81.7636719 152.263672,81.9824219 152.263672,82.2675781 C152.263672,82.5488281 152.337891,82.7695312 152.486328,82.9296875 C152.634766,83.0898438 152.849609,83.1699219 153.130859,83.1699219 Z" id="Fillinthegapsormakeacorrection." fill="#FFFFFF" fill-rule="nonzero"></path>
                <g id="Group" transform="translate(18.000000, 49.000000)">
                    <g id="Group-15" fill-rule="nonzero">
                        <path d="M0,16.7741935 L17.0625,16.7741935 L17.0625,0 L0,0 L0,16.7741935 Z M2,2 L14.5125,2 L14.5125,14.3010752 L2,14.3010752 L2,2 Z" id="Shape" fill="#BDC3C7"></path>
                        <path d="M25,3 L25,19.7741935 L42.0625,19.7741935 L42.0625,3 L25,3 Z M39.5125,17.3010752 L27,17.3010752 L27,5 L39.5125,5 L39.5125,17.3010752 Z" id="Shape" fill="#9B9B9B"></path>
                        <path d="M6,39.7741935 L23.0625,39.7741935 L23.0625,23 L6,23 L6,39.7741935 Z M8,25 L20.5125,25 L20.5125,37.3010752 L8,37.3010752 L8,25 Z" id="Shape" fill="#ECF0F1"></path>
                        <path d="M25,39.7741935 L42.0625,39.7741935 L42.0625,23 L25,23 L25,39.7741935 Z M27,25 L39.5125,25 L39.5125,37.3010752 L27,37.3010752 L27,25 Z" id="Shape" fill="#BDC3C7"></path>
                    </g>
                    <text id="?" fill="#FFFFFF" font-family="OpenSans-SemiBold, Open Sans" font-size="12" font-weight="500">
                        <tspan x="12" y="35">?</tspan>
                    </text>
                </g>
            </g>
        </g>
    </g>
</svg>