<?xml version="1.0" encoding="UTF-8"?>
<svg width="163px" height="98px" viewBox="0 0 163 98" version="1.1" xmlns="http://www.w3.org/2000/svg" xmlns:xlink="http://www.w3.org/1999/xlink">
    <!-- Generator: Sketch 62 (91390) - https://sketch.com -->
    <title>Conjunctions</title>
    <desc>Created with Sketch.</desc>
    <defs>
        <radialGradient cx="26.9203086%" cy="60.7926827%" fx="26.9203086%" fy="60.7926827%" r="48.1480443%" gradientTransform="translate(0.269203,0.607927),scale(0.595092,1.000000),rotate(143.900900),translate(-0.269203,-0.607927)" id="radialGradient-1">
            <stop stop-color="#FAD961" offset="0%"></stop>
            <stop stop-color="#F76B1C" offset="100%"></stop>
        </radialGradient>
        <path d="M25.6757812,23.1953125 C27.0950521,23.1953125 28.3645833,22.983724 29.484375,22.5605469 L29.484375,22.5605469 L29.484375,20.5585938 C28.8723958,20.7473958 28.2832031,20.9020182 27.7167969,21.0224609 C27.1503906,21.1429036 26.5644531,21.203125 25.9589844,21.203125 C24.5592448,21.203125 23.4899089,20.7539062 22.7509766,19.8554688 C22.0120443,18.9570312 21.6425781,17.6321615 21.6425781,15.8808594 C21.6425781,14.2076823 22.0266927,12.8958333 22.7949219,11.9453125 C23.563151,10.9947917 24.6178385,10.5195312 25.9589844,10.5195312 C26.5514323,10.5195312 27.1162109,10.6057943 27.6533203,10.7783203 C28.1904297,10.9508464 28.6998698,11.1510417 29.1816406,11.3789062 L29.1816406,11.3789062 L30.0214844,9.43554688 C28.7845052,8.82356771 27.436849,8.51757812 25.9785156,8.51757812 C24.5917969,8.51757812 23.3841146,8.81380208 22.3554688,9.40625 C21.3268229,9.99869792 20.5406901,10.8515625 19.9970703,11.9648438 C19.4534505,13.078125 19.1816406,14.3769531 19.1816406,15.8613281 C19.1816406,18.218099 19.7415365,20.0296224 20.8613281,21.2958984 C21.9811198,22.5621745 23.5859375,23.1953125 25.6757812,23.1953125 Z M36.7597656,23.1953125 C38.374349,23.1953125 39.6341146,22.7005208 40.5390625,21.7109375 C41.4440104,20.7213542 41.8964844,19.344401 41.8964844,17.5800781 C41.8964844,15.874349 41.4407552,14.5185547 40.5292969,13.5126953 C39.6178385,12.5068359 38.3808594,12.0039062 36.8183594,12.0039062 C35.1842448,12.0039062 33.9179688,12.4954427 33.0195312,13.4785156 C32.1210938,14.4615885 31.671875,15.828776 31.671875,17.5800781 C31.671875,18.7063802 31.8802083,19.6959635 32.296875,20.5488281 C32.7135417,21.4016927 33.3092448,22.0559896 34.0839844,22.5117188 C34.858724,22.9674479 35.750651,23.1953125 36.7597656,23.1953125 Z M36.7988281,21.3203125 C34.9563802,21.3203125 34.0351562,20.0735677 34.0351562,17.5800781 C34.0351562,16.3886719 34.2516276,15.4739583 34.6845703,14.8359375 C35.117513,14.1979167 35.8157552,13.8789062 36.7792969,13.8789062 C38.6152344,13.8789062 39.5332031,15.1126302 39.5332031,17.5800781 C39.5332031,20.0735677 38.6217448,21.3203125 36.7988281,21.3203125 Z M46.828125,23 L46.828125,17.6191406 C46.828125,16.2714844 47.0527344,15.3111979 47.5019531,14.7382812 C47.9511719,14.1653646 48.6608073,13.8789062 49.6308594,13.8789062 C50.360026,13.8789062 50.8922526,14.0839844 51.2275391,14.4941406 C51.5628255,14.9042969 51.7304688,15.5260417 51.7304688,16.359375 L51.7304688,16.359375 L51.7304688,23 L54.0351562,23 L54.0351562,15.9589844 C54.0351562,13.3222656 52.7395833,12.0039062 50.1484375,12.0039062 C49.4192708,12.0039062 48.7552083,12.1438802 48.15625,12.4238281 C47.5572917,12.703776 47.0950521,13.1009115 46.7695312,13.6152344 L46.7695312,13.6152344 L46.6523438,13.6152344 L46.3300781,12.1992188 L44.5332031,12.1992188 L44.5332031,23 L46.828125,23 Z M58.390625,10.5976562 C58.7942708,10.5976562 59.1083984,10.4853516 59.3330078,10.2607422 C59.5576172,10.0361328 59.6699219,9.72851562 59.6699219,9.33789062 C59.6699219,8.92773438 59.5576172,8.61197917 59.3330078,8.390625 C59.1083984,8.16927083 58.7942708,8.05859375 58.390625,8.05859375 C57.9739583,8.05859375 57.6533203,8.16927083 57.4287109,8.390625 C57.2041016,8.61197917 57.0917969,8.92773438 57.0917969,9.33789062 C57.0917969,9.72851562 57.2041016,10.0361328 57.4287109,10.2607422 C57.6533203,10.4853516 57.9739583,10.5976562 58.390625,10.5976562 Z M56.125,27.8046875 C57.2252604,27.8046875 58.0667318,27.5182292 58.6494141,26.9453125 C59.2320964,26.3723958 59.5234375,25.5292969 59.5234375,24.4160156 L59.5234375,24.4160156 L59.5234375,12.1992188 L57.2285156,12.1992188 L57.2285156,24.2597656 C57.2285156,25.3665365 56.7402344,25.9199219 55.7636719,25.9199219 C55.3014323,25.9199219 54.8489583,25.8613281 54.40625,25.7441406 L54.40625,25.7441406 L54.40625,27.5605469 C54.8619792,27.7233073 55.4348958,27.8046875 56.125,27.8046875 Z M66.6035156,23.1953125 C67.358724,23.1953125 68.0309245,23.0520833 68.6201172,22.765625 C69.2093099,22.4791667 69.6634115,22.0852865 69.9824219,21.5839844 L69.9824219,21.5839844 L70.0996094,21.5839844 L70.421875,23 L72.2285156,23 L72.2285156,12.1992188 L69.9238281,12.1992188 L69.9238281,17.5800781 C69.9238281,18.9342448 69.6975911,19.8994141 69.2451172,20.4755859 C68.7926432,21.0517578 68.0846354,21.3398438 67.1210938,21.3398438 C66.3984375,21.3398438 65.8678385,21.133138 65.5292969,20.7197266 C65.1907552,20.3063151 65.0214844,19.6861979 65.0214844,18.859375 L65.0214844,18.859375 L65.0214844,12.1992188 L62.7070312,12.1992188 L62.7070312,19.2597656 C62.7070312,20.5813802 63.0292969,21.5677083 63.6738281,22.21875 C64.3183594,22.8697917 65.2949219,23.1953125 66.6035156,23.1953125 Z M77.7949219,23 L77.7949219,17.6191406 C77.7949219,16.2714844 78.0195312,15.3111979 78.46875,14.7382812 C78.9179688,14.1653646 79.6276042,13.8789062 80.5976562,13.8789062 C81.3268229,13.8789062 81.8590495,14.0839844 82.1943359,14.4941406 C82.5296224,14.9042969 82.6972656,15.5260417 82.6972656,16.359375 L82.6972656,16.359375 L82.6972656,23 L85.0019531,23 L85.0019531,15.9589844 C85.0019531,13.3222656 83.7063802,12.0039062 81.1152344,12.0039062 C80.3860677,12.0039062 79.7220052,12.1438802 79.1230469,12.4238281 C78.5240885,12.703776 78.061849,13.1009115 77.7363281,13.6152344 L77.7363281,13.6152344 L77.6191406,13.6152344 L77.296875,12.1992188 L75.5,12.1992188 L75.5,23 L77.7949219,23 Z M92.5507812,23.1953125 C93.2148438,23.1953125 93.7796224,23.1432292 94.2451172,23.0390625 C94.710612,22.9348958 95.1484375,22.7623698 95.5585938,22.5214844 L95.5585938,22.5214844 L95.5585938,20.5195312 C94.6471354,21.0273438 93.6803385,21.28125 92.6582031,21.28125 C91.7597656,21.28125 91.0777995,20.976888 90.6123047,20.3681641 C90.1468099,19.7594401 89.9140625,18.8496094 89.9140625,17.6386719 C89.9140625,15.1582031 90.8483073,13.9179688 92.7167969,13.9179688 C93.3483073,13.9179688 94.1490885,14.1067708 95.1191406,14.484375 L95.1191406,14.484375 L95.8125,12.6386719 C94.9010417,12.2154948 93.875651,12.0039062 92.7363281,12.0039062 C91.0566406,12.0039062 89.7724609,12.4921875 88.8837891,13.46875 C87.9951172,14.4453125 87.5507812,15.8417969 87.5507812,17.6582031 C87.5507812,19.4420573 87.9755859,20.8108724 88.8251953,21.7646484 C89.6748047,22.7184245 90.9166667,23.1953125 92.5507812,23.1953125 Z M101.574219,23.1953125 C102.003906,23.1953125 102.418945,23.1578776 102.819336,23.0830078 C103.219727,23.008138 103.546875,22.9153646 103.800781,22.8046875 L103.800781,22.8046875 L103.800781,21.0761719 C103.240885,21.2519531 102.68099,21.3398438 102.121094,21.3398438 C101.671875,21.3398438 101.308919,21.2080078 101.032227,20.9443359 C100.755534,20.6806641 100.617188,20.2721354 100.617188,19.71875 L100.617188,19.71875 L100.617188,13.9375 L103.693359,13.9375 L103.693359,12.1992188 L100.617188,12.1992188 L100.617188,9.796875 L99.2011719,9.796875 L98.4199219,12.0820312 L96.8378906,12.921875 L96.8378906,13.9375 L98.3125,13.9375 L98.3125,19.7578125 C98.3125,22.0494792 99.3997396,23.1953125 101.574219,23.1953125 Z M107.121094,10.5976562 C107.52474,10.5976562 107.838867,10.4853516 108.063477,10.2607422 C108.288086,10.0361328 108.400391,9.72851562 108.400391,9.33789062 C108.400391,8.92773438 108.288086,8.61197917 108.063477,8.390625 C107.838867,8.16927083 107.52474,8.05859375 107.121094,8.05859375 C106.704427,8.05859375 106.383789,8.16927083 106.15918,8.390625 C105.93457,8.61197917 105.822266,8.92773438 105.822266,9.33789062 C105.822266,9.72851562 105.93457,10.0361328 106.15918,10.2607422 C106.383789,10.4853516 106.704427,10.5976562 107.121094,10.5976562 Z M108.253906,23 L108.253906,12.1992188 L105.958984,12.1992188 L105.958984,23 L108.253906,23 Z M115.978516,23.1953125 C117.593099,23.1953125 118.852865,22.7005208 119.757812,21.7109375 C120.66276,20.7213542 121.115234,19.344401 121.115234,17.5800781 C121.115234,15.874349 120.659505,14.5185547 119.748047,13.5126953 C118.836589,12.5068359 117.599609,12.0039062 116.037109,12.0039062 C114.402995,12.0039062 113.136719,12.4954427 112.238281,13.4785156 C111.339844,14.4615885 110.890625,15.828776 110.890625,17.5800781 C110.890625,18.7063802 111.098958,19.6959635 111.515625,20.5488281 C111.932292,21.4016927 112.527995,22.0559896 113.302734,22.5117188 C114.077474,22.9674479 114.969401,23.1953125 115.978516,23.1953125 Z M116.017578,21.3203125 C114.17513,21.3203125 113.253906,20.0735677 113.253906,17.5800781 C113.253906,16.3886719 113.470378,15.4739583 113.90332,14.8359375 C114.336263,14.1979167 115.034505,13.8789062 115.998047,13.8789062 C117.833984,13.8789062 118.751953,15.1126302 118.751953,17.5800781 C118.751953,20.0735677 117.840495,21.3203125 116.017578,21.3203125 Z M126.046875,23 L126.046875,17.6191406 C126.046875,16.2714844 126.271484,15.3111979 126.720703,14.7382812 C127.169922,14.1653646 127.879557,13.8789062 128.849609,13.8789062 C129.578776,13.8789062 130.111003,14.0839844 130.446289,14.4941406 C130.781576,14.9042969 130.949219,15.5260417 130.949219,16.359375 L130.949219,16.359375 L130.949219,23 L133.253906,23 L133.253906,15.9589844 C133.253906,13.3222656 131.958333,12.0039062 129.367188,12.0039062 C128.638021,12.0039062 127.973958,12.1438802 127.375,12.4238281 C126.776042,12.703776 126.313802,13.1009115 125.988281,13.6152344 L125.988281,13.6152344 L125.871094,13.6152344 L125.548828,12.1992188 L123.751953,12.1992188 L123.751953,23 L126.046875,23 Z M139.25,23.1953125 C140.682292,23.1953125 141.782552,22.913737 142.550781,22.3505859 C143.31901,21.7874349 143.703125,20.9785156 143.703125,19.9238281 C143.703125,19.4029948 143.605469,18.9554036 143.410156,18.5810547 C143.214844,18.2067057 142.915365,17.8763021 142.511719,17.5898438 C142.108073,17.3033854 141.460286,16.9876302 140.568359,16.6425781 C139.507161,16.2324219 138.818685,15.9101562 138.50293,15.6757812 C138.187174,15.4414062 138.029297,15.1549479 138.029297,14.8164062 C138.029297,14.1263021 138.634766,13.78125 139.845703,13.78125 C140.639974,13.78125 141.619792,14.0221354 142.785156,14.5039062 L142.785156,14.5039062 L143.527344,12.7753906 C142.394531,12.2610677 141.193359,12.0039062 139.923828,12.0039062 C138.641276,12.0039062 137.627279,12.2594401 136.881836,12.7705078 C136.136393,13.2815755 135.763672,13.999349 135.763672,14.9238281 C135.763672,15.6920573 135.983398,16.3170573 136.422852,16.7988281 C136.862305,17.280599 137.703776,17.7623698 138.947266,18.2441406 C139.585286,18.4915365 140.083333,18.7128906 140.441406,18.9082031 C140.799479,19.1035156 141.056641,19.2923177 141.212891,19.4746094 C141.369141,19.656901 141.447266,19.8847656 141.447266,20.1582031 C141.447266,21.0110677 140.740885,21.4375 139.328125,21.4375 C138.234375,21.4375 137.052734,21.1445312 135.783203,20.5585938 L135.783203,20.5585938 L135.783203,22.5410156 C136.655599,22.9772135 137.811198,23.1953125 139.25,23.1953125 Z" id="path-2"></path>
    </defs>
    <g id="Symbols" stroke="none" stroke-width="1" fill="none" fill-rule="evenodd">
        <g id="i/Conjunctions">
            <g id="Conjunctions">
                <line x1="79" y1="43" x2="79" y2="88.7428943" id="Line-3" stroke="#FFFFFF" stroke-width="2" stroke-linecap="square"></line>
                <g id="Identify" fill="url(#radialGradient-1)" fill-rule="nonzero">
                    <g id="Group-5">
                        <g id="Group-2">
                            <g id="Group-3" transform="translate(0.000000, 0.600000)">
                                <path d="M6,0 L157,0 C160.313708,-6.08718376e-16 163,2.6862915 163,6 L163,91 C163,94.3137085 160.313708,97 157,97 L6,97 C2.6862915,97 4.05812251e-16,94.3137085 0,91 L0,6 C-4.05812251e-16,2.6862915 2.6862915,6.08718376e-16 6,0 Z" id="Rectangle-2"></path>
                            </g>
                        </g>
                    </g>
                </g>
                <line x1="2" y1="32.25" x2="161" y2="32.25" id="Line-2" stroke="#FFFFFF" stroke-width="4" stroke-linecap="square"></line>
                <line x1="74" y1="42" x2="74" y2="87.7428943" id="Line-3" stroke="#FFFFFF" stroke-width="2" stroke-linecap="square"></line>
                <path d="M85.0507812,52.5898438 C85.9182943,52.5898438 86.5773926,52.3391113 87.0280762,51.8376465 C87.4787598,51.3361816 87.7041016,50.6114909 87.7041016,49.6635742 L87.7041016,49.6635742 L87.7041016,40.7197266 L86.1806641,40.7197266 L86.1806641,49.7143555 C86.1806641,50.7638346 85.7659505,51.2885742 84.9365234,51.2885742 C84.6741536,51.2885742 84.3652344,51.2441406 84.0097656,51.1552734 L84.0097656,51.1552734 L84.0097656,52.4311523 C84.2890625,52.5369466 84.6360677,52.5898438 85.0507812,52.5898438 Z M92.8393555,50.1269531 C93.8888346,50.1269531 94.7076823,49.8053385 95.2958984,49.1621094 C95.8841146,48.5188802 96.1782227,47.6238607 96.1782227,46.4770508 C96.1782227,45.3683268 95.8819987,44.4870605 95.2895508,43.833252 C94.6971029,43.1794434 93.8930664,42.8525391 92.8774414,42.8525391 C91.8152669,42.8525391 90.9921875,43.1720378 90.4082031,43.8110352 C89.8242188,44.4500326 89.5322266,45.3387044 89.5322266,46.4770508 C89.5322266,47.2091471 89.6676432,47.8523763 89.9384766,48.4067383 C90.2093099,48.9611003 90.5965169,49.3863932 91.1000977,49.6826172 C91.6036784,49.9788411 92.183431,50.1269531 92.8393555,50.1269531 Z M92.8647461,48.9082031 C91.6671549,48.9082031 91.0683594,48.097819 91.0683594,46.4770508 C91.0683594,45.7026367 91.2090658,45.1080729 91.4904785,44.6933594 C91.7718913,44.2786458 92.2257487,44.0712891 92.8520508,44.0712891 C94.0454102,44.0712891 94.6420898,44.8732096 94.6420898,46.4770508 C94.6420898,48.097819 94.0496419,48.9082031 92.8647461,48.9082031 Z M98.6474609,41.9384766 C98.9098307,41.9384766 99.1140137,41.8654785 99.2600098,41.7194824 C99.4060059,41.5734863 99.4790039,41.3735352 99.4790039,41.1196289 C99.4790039,40.8530273 99.4060059,40.6477865 99.2600098,40.5039062 C99.1140137,40.360026 98.9098307,40.2880859 98.6474609,40.2880859 C98.3766276,40.2880859 98.1682129,40.360026 98.0222168,40.5039062 C97.8762207,40.6477865 97.8032227,40.8530273 97.8032227,41.1196289 C97.8032227,41.3735352 97.8762207,41.5734863 98.0222168,41.7194824 C98.1682129,41.8654785 98.3766276,41.9384766 98.6474609,41.9384766 Z M99.3837891,50 L99.3837891,42.9794922 L97.8920898,42.9794922 L97.8920898,50 L99.3837891,50 Z M103.008301,50 L103.008301,46.5024414 C103.008301,45.6264648 103.154297,45.0022786 103.446289,44.6298828 C103.738281,44.257487 104.199544,44.0712891 104.830078,44.0712891 C105.304036,44.0712891 105.649984,44.2045898 105.86792,44.4711914 C106.085856,44.737793 106.194824,45.1419271 106.194824,45.6835938 L106.194824,45.6835938 L106.194824,50 L107.692871,50 L107.692871,45.4233398 C107.692871,43.7094727 106.850749,42.8525391 105.166504,42.8525391 C104.692546,42.8525391 104.260905,42.9435221 103.871582,43.1254883 C103.482259,43.3074544 103.181803,43.5655924 102.970215,43.8999023 L102.970215,43.8999023 L102.894043,43.8999023 L102.68457,42.9794922 L101.516602,42.9794922 L101.516602,50 L103.008301,50 Z M116.033691,50.1269531 C117.083171,50.1269531 117.902018,49.8053385 118.490234,49.1621094 C119.078451,48.5188802 119.372559,47.6238607 119.372559,46.4770508 C119.372559,45.3683268 119.076335,44.4870605 118.483887,43.833252 C117.891439,43.1794434 117.087402,42.8525391 116.071777,42.8525391 C115.009603,42.8525391 114.186523,43.1720378 113.602539,43.8110352 C113.018555,44.4500326 112.726562,45.3387044 112.726562,46.4770508 C112.726562,47.2091471 112.861979,47.8523763 113.132812,48.4067383 C113.403646,48.9611003 113.790853,49.3863932 114.294434,49.6826172 C114.798014,49.9788411 115.377767,50.1269531 116.033691,50.1269531 Z M116.059082,48.9082031 C114.861491,48.9082031 114.262695,48.097819 114.262695,46.4770508 C114.262695,45.7026367 114.403402,45.1080729 114.684814,44.6933594 C114.966227,44.2786458 115.420085,44.0712891 116.046387,44.0712891 C117.239746,44.0712891 117.836426,44.8732096 117.836426,46.4770508 C117.836426,48.097819 117.243978,48.9082031 116.059082,48.9082031 Z M122.578125,50 L122.578125,46.5024414 C122.578125,45.6264648 122.724121,45.0022786 123.016113,44.6298828 C123.308105,44.257487 123.769368,44.0712891 124.399902,44.0712891 C124.873861,44.0712891 125.219808,44.2045898 125.437744,44.4711914 C125.65568,44.737793 125.764648,45.1419271 125.764648,45.6835938 L125.764648,45.6835938 L125.764648,50 L127.262695,50 L127.262695,45.4233398 C127.262695,43.7094727 126.420573,42.8525391 124.736328,42.8525391 C124.26237,42.8525391 123.830729,42.9435221 123.441406,43.1254883 C123.052083,43.3074544 122.751628,43.5655924 122.540039,43.8999023 L122.540039,43.8999023 L122.463867,43.8999023 L122.254395,42.9794922 L121.086426,42.9794922 L121.086426,50 L122.578125,50 Z M132.404297,50.1269531 C132.882487,50.1269531 133.30778,50.0909831 133.680176,50.019043 C134.052572,49.9471029 134.420736,49.8243815 134.784668,49.6508789 L134.784668,49.6508789 L134.784668,48.4384766 C134.374186,48.6204427 133.990153,48.7505697 133.632568,48.8288574 C133.274984,48.9071452 132.888835,48.9462891 132.474121,48.9462891 C131.843587,48.9462891 131.354818,48.763265 131.007812,48.3972168 C130.660807,48.0311686 130.476725,47.507487 130.455566,46.8261719 L130.455566,46.8261719 L135.133789,46.8261719 L135.133789,46.0200195 C135.133789,45.0340169 134.865072,44.2596029 134.327637,43.6967773 C133.790202,43.1339518 133.058105,42.8525391 132.131348,42.8525391 C131.13265,42.8525391 130.347656,43.1805013 129.776367,43.8364258 C129.205078,44.4923503 128.919434,45.3937174 128.919434,46.5405273 C128.919434,47.6577148 129.227295,48.5347493 129.843018,49.1716309 C130.45874,49.8085124 131.3125,50.1269531 132.404297,50.1269531 Z M133.66748,45.7470703 L130.480957,45.7470703 C130.53597,45.1715495 130.706299,44.7335612 130.991943,44.4331055 C131.277588,44.1326497 131.657389,43.9824219 132.131348,43.9824219 C132.605306,43.9824219 132.977702,44.1315918 133.248535,44.4299316 C133.519368,44.7282715 133.659017,45.1673177 133.66748,45.7470703 L133.66748,45.7470703 Z M87.5581055,66.1230469 L87.5581055,63.2475586 C87.5581055,63.1206055 87.5284831,62.7609049 87.4692383,62.168457 L87.4692383,62.168457 L87.5581055,62.168457 C88.0489909,62.8074544 88.7387695,63.1269531 89.6274414,63.1269531 C90.503418,63.1269531 91.1900228,62.8053385 91.6872559,62.1621094 C92.1844889,61.5188802 92.4331055,60.6238607 92.4331055,59.4770508 C92.4331055,58.3302409 92.1887207,57.4394531 91.6999512,56.8046875 C91.2111816,56.1699219 90.5288086,55.8525391 89.652832,55.8525391 C88.7218424,55.8525391 88.0236003,56.2080078 87.5581055,56.9189453 L87.5581055,56.9189453 L87.4819336,56.9189453 C87.3761393,56.4238281 87.3063151,56.1106771 87.2724609,55.9794922 L87.2724609,55.9794922 L86.0664062,55.9794922 L86.0664062,66.1230469 L87.5581055,66.1230469 Z M89.2910156,61.9082031 C88.6774089,61.9082031 88.2351888,61.7167155 87.9643555,61.3337402 C87.6935221,60.950765 87.5581055,60.3318685 87.5581055,59.4770508 L87.5581055,59.4770508 L87.5581055,59.2548828 C87.5581055,58.4931641 87.6945801,57.9388021 87.9675293,57.5917969 C88.2404785,57.2447917 88.6731771,57.0712891 89.265625,57.0712891 C89.8030599,57.0712891 90.2103678,57.2733561 90.4875488,57.6774902 C90.7647298,58.0816243 90.9033203,58.6772461 90.9033203,59.4643555 C90.9033203,60.2472331 90.7636719,60.8502604 90.484375,61.2734375 C90.2050781,61.6966146 89.8072917,61.9082031 89.2910156,61.9082031 Z M95.8671875,63.1269531 C96.4046224,63.1269531 96.8447266,63.0497233 97.1875,62.8952637 C97.5302734,62.740804 97.870931,62.4498698 98.2094727,62.0224609 L98.2094727,62.0224609 L98.2602539,62.0224609 L98.5585938,63 L99.625,63 L99.625,58.2709961 C99.625,57.4373372 99.3975423,56.8258464 98.942627,56.4365234 C98.4877116,56.0472005 97.8138021,55.8525391 96.9208984,55.8525391 C96.5188802,55.8525391 96.0914714,55.9043783 95.6386719,56.0080566 C95.1858724,56.111735 94.769043,56.2630208 94.3881836,56.4619141 L94.3881836,56.4619141 L94.8706055,57.5283203 C95.175293,57.3844401 95.4926758,57.2596029 95.8227539,57.1538086 C96.152832,57.0480143 96.4977214,56.9951172 96.8574219,56.9951172 C97.297526,56.9951172 97.6223145,57.1062012 97.8317871,57.3283691 C98.0412598,57.5505371 98.1459961,57.8859049 98.1459961,58.3344727 L98.1459961,58.3344727 L98.1459961,58.7089844 L96.9335938,58.7470703 C95.8333333,58.7809245 95.0144857,58.9819336 94.4770508,59.3500977 C93.9396159,59.7182617 93.6708984,60.2641602 93.6708984,60.987793 C93.6708984,61.6691081 93.864502,62.1959635 94.251709,62.5683594 C94.638916,62.9407552 95.1774089,63.1269531 95.8671875,63.1269531 Z M96.3369141,61.984375 C95.9645182,61.984375 95.6852214,61.8986816 95.4990234,61.7272949 C95.3128255,61.5559082 95.2197266,61.3136393 95.2197266,61.0004883 C95.2197266,60.5688477 95.3794759,60.248291 95.6989746,60.0388184 C96.0184733,59.8293457 96.5294596,59.7119141 97.2319336,59.6865234 L97.2319336,59.6865234 L98.1333008,59.6484375 L98.1333008,60.2578125 C98.1333008,60.8037109 97.9693197,61.227946 97.6413574,61.5305176 C97.3133952,61.8330892 96.8785807,61.984375 96.3369141,61.984375 Z M103.19873,63 L103.19873,59.3310547 C103.19873,58.7089844 103.38387,58.2032878 103.75415,57.8139648 C104.12443,57.4246419 104.60791,57.2299805 105.20459,57.2299805 C105.433105,57.2299805 105.653158,57.2553711 105.864746,57.3061523 L105.864746,57.3061523 L106.010742,55.9160156 C105.816081,55.8736979 105.568522,55.8525391 105.268066,55.8525391 C104.836426,55.8525391 104.43335,55.9752604 104.058838,56.2207031 C103.684326,56.4661458 103.380697,56.7983398 103.147949,57.2172852 L103.147949,57.2172852 L103.071777,57.2172852 L102.875,55.9794922 L101.707031,55.9794922 L101.707031,63 L103.19873,63 Z M109.571777,63.1269531 C109.851074,63.1269531 110.12085,63.1026204 110.381104,63.0539551 C110.641357,63.0052897 110.854004,62.944987 111.019043,62.8730469 L111.019043,62.8730469 L111.019043,61.7495117 C110.655111,61.8637695 110.291178,61.9208984 109.927246,61.9208984 C109.635254,61.9208984 109.399333,61.8352051 109.219482,61.6638184 C109.039632,61.4924316 108.949707,61.226888 108.949707,60.8671875 L108.949707,60.8671875 L108.949707,57.109375 L110.949219,57.109375 L110.949219,55.9794922 L108.949707,55.9794922 L108.949707,54.4179688 L108.029297,54.4179688 L107.521484,55.9033203 L106.493164,56.4492188 L106.493164,57.109375 L107.45166,57.109375 L107.45166,60.8925781 C107.45166,62.3821615 108.158366,63.1269531 109.571777,63.1269531 Z M118.687012,63.1269531 C119.736491,63.1269531 120.555339,62.8053385 121.143555,62.1621094 C121.731771,61.5188802 122.025879,60.6238607 122.025879,59.4770508 C122.025879,58.3683268 121.729655,57.4870605 121.137207,56.833252 C120.544759,56.1794434 119.740723,55.8525391 118.725098,55.8525391 C117.662923,55.8525391 116.839844,56.1720378 116.255859,56.8110352 C115.671875,57.4500326 115.379883,58.3387044 115.379883,59.4770508 C115.379883,60.2091471 115.515299,60.8523763 115.786133,61.4067383 C116.056966,61.9611003 116.444173,62.3863932 116.947754,62.6826172 C117.451335,62.9788411 118.031087,63.1269531 118.687012,63.1269531 Z M118.712402,61.9082031 C117.514811,61.9082031 116.916016,61.097819 116.916016,59.4770508 C116.916016,58.7026367 117.056722,58.1080729 117.338135,57.6933594 C117.619548,57.2786458 118.073405,57.0712891 118.699707,57.0712891 C119.893066,57.0712891 120.489746,57.8732096 120.489746,59.4770508 C120.489746,61.097819 119.897298,61.9082031 118.712402,61.9082031 Z M125.548828,63 L125.548828,57.109375 L127.262695,57.109375 L127.262695,55.9794922 L125.548828,55.9794922 L125.548828,55.5224609 C125.548828,55.1035156 125.626058,54.7893066 125.780518,54.579834 C125.934977,54.3703613 126.181478,54.265625 126.52002,54.265625 C126.854329,54.265625 127.205566,54.3248698 127.57373,54.4433594 L127.57373,54.4433594 L127.967285,53.3134766 C127.459473,53.139974 126.943197,53.0532227 126.418457,53.0532227 C125.618652,53.0532227 125.024089,53.2531738 124.634766,53.6530762 C124.245443,54.0529785 124.050781,54.6676432 124.050781,55.4970703 L124.050781,55.4970703 L124.050781,55.9541016 L122.895508,56.4111328 L122.895508,57.109375 L124.050781,57.109375 L124.050781,63 L125.548828,63 Z M88.3261719,76.1269531 C88.6054688,76.1269531 88.8752441,76.1026204 89.135498,76.0539551 C89.395752,76.0052897 89.6083984,75.944987 89.7734375,75.8730469 L89.7734375,75.8730469 L89.7734375,74.7495117 C89.4095052,74.8637695 89.0455729,74.9208984 88.6816406,74.9208984 C88.3896484,74.9208984 88.1537272,74.8352051 87.973877,74.6638184 C87.7940267,74.4924316 87.7041016,74.226888 87.7041016,73.8671875 L87.7041016,73.8671875 L87.7041016,70.109375 L89.7036133,70.109375 L89.7036133,68.9794922 L87.7041016,68.9794922 L87.7041016,67.4179688 L86.7836914,67.4179688 L86.2758789,68.9033203 L85.2475586,69.4492188 L85.2475586,70.109375 L86.2060547,70.109375 L86.2060547,73.8925781 C86.2060547,75.3821615 86.9127604,76.1269531 88.3261719,76.1269531 Z M94.2421875,76.1269531 C94.7203776,76.1269531 95.1456706,76.0909831 95.5180664,76.019043 C95.8904622,75.9471029 96.2586263,75.8243815 96.6225586,75.6508789 L96.6225586,75.6508789 L96.6225586,74.4384766 C96.2120768,74.6204427 95.8280436,74.7505697 95.470459,74.8288574 C95.1128743,74.9071452 94.7267253,74.9462891 94.3120117,74.9462891 C93.6814779,74.9462891 93.1927083,74.763265 92.8457031,74.3972168 C92.4986979,74.0311686 92.3146159,73.507487 92.293457,72.8261719 L92.293457,72.8261719 L96.9716797,72.8261719 L96.9716797,72.0200195 C96.9716797,71.0340169 96.7029622,70.2596029 96.1655273,69.6967773 C95.6280924,69.1339518 94.8959961,68.8525391 93.9692383,68.8525391 C92.9705404,68.8525391 92.1855469,69.1805013 91.6142578,69.8364258 C91.0429688,70.4923503 90.7573242,71.3937174 90.7573242,72.5405273 C90.7573242,73.6577148 91.0651855,74.5347493 91.6809082,75.1716309 C92.2966309,75.8085124 93.1503906,76.1269531 94.2421875,76.1269531 Z M95.5053711,71.7470703 L92.3188477,71.7470703 C92.3738607,71.1715495 92.5441895,70.7335612 92.829834,70.4331055 C93.1154785,70.1326497 93.4952799,69.9824219 93.9692383,69.9824219 C94.4431966,69.9824219 94.8155924,70.1315918 95.0864258,70.4299316 C95.3572591,70.7282715 95.4969076,71.1673177 95.5053711,71.7470703 L95.5053711,71.7470703 Z M99.4472656,76 L101.173828,73.3720703 L102.906738,76 L104.595215,76 L102.113281,72.4135742 L104.474609,68.9794922 L102.786133,68.9794922 L101.173828,71.4360352 L99.5742188,68.9794922 L97.8730469,68.9794922 L100.228027,72.4135742 L97.7587891,76 L99.4472656,76 Z M108.086426,76.1269531 C108.365723,76.1269531 108.635498,76.1026204 108.895752,76.0539551 C109.156006,76.0052897 109.368652,75.944987 109.533691,75.8730469 L109.533691,75.8730469 L109.533691,74.7495117 C109.169759,74.8637695 108.805827,74.9208984 108.441895,74.9208984 C108.149902,74.9208984 107.913981,74.8352051 107.734131,74.6638184 C107.554281,74.4924316 107.464355,74.226888 107.464355,73.8671875 L107.464355,73.8671875 L107.464355,70.109375 L109.463867,70.109375 L109.463867,68.9794922 L107.464355,68.9794922 L107.464355,67.4179688 L106.543945,67.4179688 L106.036133,68.9033203 L105.007812,69.4492188 L105.007812,70.109375 L105.966309,70.109375 L105.966309,73.8925781 C105.966309,75.3821615 106.673014,76.1269531 108.086426,76.1269531 Z M116.573242,76.1269531 C116.852539,76.1269531 117.122314,76.1026204 117.382568,76.0539551 C117.642822,76.0052897 117.855469,75.944987 118.020508,75.8730469 L118.020508,75.8730469 L118.020508,74.7495117 C117.656576,74.8637695 117.292643,74.9208984 116.928711,74.9208984 C116.636719,74.9208984 116.400798,74.8352051 116.220947,74.6638184 C116.041097,74.4924316 115.951172,74.226888 115.951172,73.8671875 L115.951172,73.8671875 L115.951172,70.109375 L117.950684,70.109375 L117.950684,68.9794922 L115.951172,68.9794922 L115.951172,67.4179688 L115.030762,67.4179688 L114.522949,68.9033203 L113.494629,69.4492188 L113.494629,70.109375 L114.453125,70.109375 L114.453125,73.8925781 C114.453125,75.3821615 115.159831,76.1269531 116.573242,76.1269531 Z M122.311523,76.1269531 C123.361003,76.1269531 124.17985,75.8053385 124.768066,75.1621094 C125.356283,74.5188802 125.650391,73.6238607 125.650391,72.4770508 C125.650391,71.3683268 125.354167,70.4870605 124.761719,69.833252 C124.169271,69.1794434 123.365234,68.8525391 122.349609,68.8525391 C121.287435,68.8525391 120.464355,69.1720378 119.880371,69.8110352 C119.296387,70.4500326 119.004395,71.3387044 119.004395,72.4770508 C119.004395,73.2091471 119.139811,73.8523763 119.410645,74.4067383 C119.681478,74.9611003 120.068685,75.3863932 120.572266,75.6826172 C121.075846,75.9788411 121.655599,76.1269531 122.311523,76.1269531 Z M122.336914,74.9082031 C121.139323,74.9082031 120.540527,74.097819 120.540527,72.4770508 C120.540527,71.7026367 120.681234,71.1080729 120.962646,70.6933594 C121.244059,70.2786458 121.697917,70.0712891 122.324219,70.0712891 C123.517578,70.0712891 124.114258,70.8732096 124.114258,72.4770508 C124.114258,74.097819 123.52181,74.9082031 122.336914,74.9082031 Z M87.7675781,89.1269531 C88.305013,89.1269531 88.7451172,89.0497233 89.0878906,88.8952637 C89.4306641,88.740804 89.7713216,88.4498698 90.1098633,88.0224609 L90.1098633,88.0224609 L90.1606445,88.0224609 L90.4589844,89 L91.5253906,89 L91.5253906,84.2709961 C91.5253906,83.4373372 91.2979329,82.8258464 90.8430176,82.4365234 C90.3881022,82.0472005 89.7141927,81.8525391 88.8212891,81.8525391 C88.4192708,81.8525391 87.991862,81.9043783 87.5390625,82.0080566 C87.086263,82.111735 86.6694336,82.2630208 86.2885742,82.4619141 L86.2885742,82.4619141 L86.7709961,83.5283203 C87.0756836,83.3844401 87.3930664,83.2596029 87.7231445,83.1538086 C88.0532227,83.0480143 88.398112,82.9951172 88.7578125,82.9951172 C89.1979167,82.9951172 89.5227051,83.1062012 89.7321777,83.3283691 C89.9416504,83.5505371 90.0463867,83.8859049 90.0463867,84.3344727 L90.0463867,84.3344727 L90.0463867,84.7089844 L88.8339844,84.7470703 C87.733724,84.7809245 86.9148763,84.9819336 86.3774414,85.3500977 C85.8400065,85.7182617 85.5712891,86.2641602 85.5712891,86.987793 C85.5712891,87.6691081 85.7648926,88.1959635 86.1520996,88.5683594 C86.5393066,88.9407552 87.0777995,89.1269531 87.7675781,89.1269531 Z M88.2373047,87.984375 C87.8649089,87.984375 87.585612,87.8986816 87.3994141,87.7272949 C87.2132161,87.5559082 87.1201172,87.3136393 87.1201172,87.0004883 C87.1201172,86.5688477 87.2798665,86.248291 87.5993652,86.0388184 C87.9188639,85.8293457 88.4298503,85.7119141 89.1323242,85.6865234 L89.1323242,85.6865234 L90.0336914,85.6484375 L90.0336914,86.2578125 C90.0336914,86.8037109 89.8697103,87.227946 89.541748,87.5305176 C89.2137858,87.8330892 88.7789714,87.984375 88.2373047,87.984375 Z M95.0991211,89 L95.0991211,85.5024414 C95.0991211,84.6264648 95.2451172,84.0022786 95.5371094,83.6298828 C95.8291016,83.257487 96.2903646,83.0712891 96.9208984,83.0712891 C97.3948568,83.0712891 97.740804,83.2045898 97.9587402,83.4711914 C98.1766764,83.737793 98.2856445,84.1419271 98.2856445,84.6835938 L98.2856445,84.6835938 L98.2856445,89 L99.7836914,89 L99.7836914,84.4233398 C99.7836914,82.7094727 98.941569,81.8525391 97.2573242,81.8525391 C96.7833659,81.8525391 96.3517253,81.9435221 95.9624023,82.1254883 C95.5730794,82.3074544 95.2726237,82.5655924 95.0610352,82.8999023 L95.0610352,82.8999023 L94.9848633,82.8999023 L94.7753906,81.9794922 L93.6074219,81.9794922 L93.6074219,89 L95.0991211,89 Z M104.747559,89.1269531 C105.797038,89.1269531 106.615885,88.8053385 107.204102,88.1621094 C107.792318,87.5188802 108.086426,86.6238607 108.086426,85.4770508 C108.086426,84.3683268 107.790202,83.4870605 107.197754,82.833252 C106.605306,82.1794434 105.80127,81.8525391 104.785645,81.8525391 C103.72347,81.8525391 102.900391,82.1720378 102.316406,82.8110352 C101.732422,83.4500326 101.44043,84.3387044 101.44043,85.4770508 C101.44043,86.2091471 101.575846,86.8523763 101.84668,87.4067383 C102.117513,87.9611003 102.50472,88.3863932 103.008301,88.6826172 C103.511882,88.9788411 104.091634,89.1269531 104.747559,89.1269531 Z M104.772949,87.9082031 C103.575358,87.9082031 102.976562,87.097819 102.976562,85.4770508 C102.976562,84.7026367 103.117269,84.1080729 103.398682,83.6933594 C103.680094,83.2786458 104.133952,83.0712891 104.760254,83.0712891 C105.953613,83.0712891 106.550293,83.8732096 106.550293,85.4770508 C106.550293,87.097819 105.957845,87.9082031 104.772949,87.9082031 Z M112.060059,89.1269531 C112.339355,89.1269531 112.609131,89.1026204 112.869385,89.0539551 C113.129639,89.0052897 113.342285,88.944987 113.507324,88.8730469 L113.507324,88.8730469 L113.507324,87.7495117 C113.143392,87.8637695 112.77946,87.9208984 112.415527,87.9208984 C112.123535,87.9208984 111.887614,87.8352051 111.707764,87.6638184 C111.527913,87.4924316 111.437988,87.226888 111.437988,86.8671875 L111.437988,86.8671875 L111.437988,83.109375 L113.4375,83.109375 L113.4375,81.9794922 L111.437988,81.9794922 L111.437988,80.4179688 L110.517578,80.4179688 L110.009766,81.9033203 L108.981445,82.4492188 L108.981445,83.109375 L109.939941,83.109375 L109.939941,86.8925781 C109.939941,88.3821615 110.646647,89.1269531 112.060059,89.1269531 Z M116.401855,89 L116.401855,85.5151367 C116.401855,84.6349284 116.54891,84.0075684 116.843018,83.6330566 C117.137126,83.2585449 117.597331,83.0712891 118.223633,83.0712891 C118.697591,83.0712891 119.043538,83.2045898 119.261475,83.4711914 C119.479411,83.737793 119.588379,84.1419271 119.588379,84.6835938 L119.588379,84.6835938 L119.588379,89 L121.086426,89 L121.086426,84.4233398 C121.086426,82.7094727 120.23584,81.8525391 118.534668,81.8525391 C118.052246,81.8525391 117.630127,81.945638 117.268311,82.1318359 C116.906494,82.3180339 116.624023,82.5804036 116.420898,82.9189453 L116.420898,82.9189453 L116.325684,82.9189453 C116.376465,82.4619141 116.401855,82.0323893 116.401855,81.6303711 L116.401855,81.6303711 L116.401855,79.1230469 L114.910156,79.1230469 L114.910156,89 L116.401855,89 Z M126.228027,89.1269531 C126.706217,89.1269531 127.13151,89.0909831 127.503906,89.019043 C127.876302,88.9471029 128.244466,88.8243815 128.608398,88.6508789 L128.608398,88.6508789 L128.608398,87.4384766 C128.197917,87.6204427 127.813883,87.7505697 127.456299,87.8288574 C127.098714,87.9071452 126.712565,87.9462891 126.297852,87.9462891 C125.667318,87.9462891 125.178548,87.763265 124.831543,87.3972168 C124.484538,87.0311686 124.300456,86.507487 124.279297,85.8261719 L124.279297,85.8261719 L128.95752,85.8261719 L128.95752,85.0200195 C128.95752,84.0340169 128.688802,83.2596029 128.151367,82.6967773 C127.613932,82.1339518 126.881836,81.8525391 125.955078,81.8525391 C124.95638,81.8525391 124.171387,82.1805013 123.600098,82.8364258 C123.028809,83.4923503 122.743164,84.3937174 122.743164,85.5405273 C122.743164,86.6577148 123.051025,87.5347493 123.666748,88.1716309 C124.282471,88.8085124 125.13623,89.1269531 126.228027,89.1269531 Z M127.491211,84.7470703 L124.304688,84.7470703 C124.359701,84.1715495 124.530029,83.7335612 124.815674,83.4331055 C125.101318,83.1326497 125.48112,82.9824219 125.955078,82.9824219 C126.429036,82.9824219 126.801432,83.1315918 127.072266,83.4299316 C127.343099,83.7282715 127.482747,84.1673177 127.491211,84.7470703 L127.491211,84.7470703 Z M132.144043,89 L132.144043,85.3310547 C132.144043,84.7089844 132.329183,84.2032878 132.699463,83.8139648 C133.069743,83.4246419 133.553223,83.2299805 134.149902,83.2299805 C134.378418,83.2299805 134.59847,83.2553711 134.810059,83.3061523 L134.810059,83.3061523 L134.956055,81.9160156 C134.761393,81.8736979 134.513835,81.8525391 134.213379,81.8525391 C133.781738,81.8525391 133.378662,81.9752604 133.00415,82.2207031 C132.629639,82.4661458 132.326009,82.7983398 132.093262,83.2172852 L132.093262,83.2172852 L132.01709,83.2172852 L131.820312,81.9794922 L130.652344,81.9794922 L130.652344,89 L132.144043,89 Z M136.974609,89.184082 C137.279297,89.184082 137.513102,89.0962728 137.676025,88.9206543 C137.838949,88.7450358 137.92041,88.5069987 137.92041,88.206543 C137.92041,87.910319 137.840007,87.6765137 137.679199,87.505127 C137.518392,87.3337402 137.283529,87.2480469 136.974609,87.2480469 C136.669922,87.2480469 136.437174,87.3305664 136.276367,87.4956055 C136.11556,87.6606445 136.035156,87.8976237 136.035156,88.206543 C136.035156,88.5112305 136.11556,88.7503255 136.276367,88.9238281 C136.437174,89.0973307 136.669922,89.184082 136.974609,89.184082 Z" id="Joinonepartoftexttoanother." fill="#FFFFFF" fill-rule="nonzero"></path>
                <g fill-rule="nonzero">
                    <use fill="#000000" xlink:href="#path-2"></use>
                    <use fill="#FFFFFF" xlink:href="#path-2"></use>
                </g>
                <g id="noun_1273444_ffffff" transform="translate(12.000000, 51.000000)" fill="#FFFFFF" fill-rule="nonzero">
                    <circle id="Oval" transform="translate(15.000000, 5.000000) rotate(-49.977287) translate(-15.000000, -5.000000) " cx="15" cy="5" r="3"></circle>
                    <path d="M1.71507758,26.9120095 C2.0748072,26.9120095 2.43727865,26.8039257 2.7464213,26.5804037 L8.34416513,22.5310036 C8.75927993,22.2306541 9.01248898,21.7577382 9.02482728,21.2596071 L9.08418818,18.8445971 L11.8419324,20.3747119 L13.6520963,25.8532347 C13.8832335,26.5528245 14.5581379,27 15.2856855,27 C15.4569135,27 15.6311576,26.9751788 15.802934,26.9230412 C16.7051369,26.6493515 17.2052488,25.7267648 16.919686,24.8626196 L14.9090936,18.777488 C14.7807754,18.3899359 14.5011075,18.0559662 14.1339749,17.8522748 L9.91249849,15.5101525 C10.7340914,13.9479934 11.9695652,12.4843311 12.930992,11.3210184 C12.5054581,12.3614071 11.9664121,13.3550427 11.3179665,14.2823571 C11.2794437,14.777205 11.212954,15.2795387 11.1167153,15.7868628 C11.5773447,15.5122538 12.0289261,15.2128235 12.4699513,14.8876528 C12.8865741,14.0307307 13.3835329,12.6073864 13.7259889,11.3273221 L11.3710211,10.5763826 C11.023904,10.4655409 10.7420427,10.2319065 10.5780805,9.91816139 C10.4141185,9.60454763 10.3875226,9.2483832 10.5032283,8.91559539 C10.6900848,8.37806563 11.2130911,8.01677939 11.803958,8.01677939 C11.9509206,8.01677939 12.0969237,8.03949933 12.2374431,8.08428248 L14.1138224,8.68261769 C14.0735173,8.25041375 13.9014668,7.86036648 13.5697039,7.58496945 C12.6583158,6.82812011 10.8578855,6.63532908 9.33355863,8.0506623 C7.24975904,10.0085158 6.25597857,11.4591765 5.19337784,14.2143287 C4.81500369,15.4851999 5.13826682,16.2957629 5.70473129,16.855356 L5.61795201,20.3890268 L0.680992017,23.9601264 C-0.0742482541,24.5064553 -0.224089898,25.536075 0.346213156,26.2595668 C0.68318549,26.6869115 1.19604696,26.9120095 1.71507758,26.9120095 Z" id="Shape"></path>
                    <path d="M37.7592282,14.6405606 C37.7592282,15.6593605 37.700197,16.7866571 36.9971763,17.2659876 C36.5947999,17.540517 36.0648573,17.540106 35.4215371,17.2653027 C34.5482493,16.8936469 33.3099316,16.4525368 32.6363596,16.9125516 C32.2141723,17.20078 32,17.8528558 32,18.8506962 C32,19.8485366 32.2141723,20.5007494 32.6363596,20.7887039 C33.3100654,21.2485817 34.548517,20.8074716 35.4210016,20.4358158 C36.0649911,20.1610124 36.5949338,20.1606015 36.9971763,20.4349939 C37.700197,20.9144614 37.7592282,22.041895 37.7592282,23.060695 C37.7592282,24.1521 37.3730487,26.0832581 37.1757424,27 L53,27 L53,13.1464028 L51.1771256,13.7675187 C51.0393861,13.8139586 50.8972291,13.837658 50.7541353,13.837658 C50.1766731,13.837658 49.6665413,13.4606595 49.484361,12.9000934 C49.3711173,12.552959 49.3972196,12.1817142 49.5573134,11.8541694 C49.7171395,11.5270355 49.992351,11.2831921 50.3316803,11.1675719 L52.3608294,10.4763167 C51.4124475,10.2735704 49.9792329,10 49.1509214,10 C47.756124,10 47.186961,10.1954857 47.186961,10.6739943 C47.186961,10.8311227 47.2343466,11.0264714 47.32711,11.254561 C47.6066049,11.9404735 47.9278635,12.8328311 47.9278635,13.6524465 C47.9278635,14.337948 47.7040533,14.8793353 47.2629922,15.2616764 C46.7718682,15.6868956 46.0439499,15.8934776 45.0370722,15.8934776 C42.6474443,15.8934776 42.146281,14.6748082 42.146281,13.6524465 C42.146281,12.83379 42.4670041,11.9407475 42.746499,11.254561 C42.8395301,11.0264714 42.886648,10.8311227 42.886648,10.6739943 C42.886648,10.1953488 42.3177527,10 40.923223,10 C39.9067075,10 37.9770147,10.4124791 37.153522,10.5993344 C37.3425291,11.4667596 37.7592282,13.5069624 37.7592282,14.6405606 Z" id="Shape"></path>
                    <path d="M23.6262027,11.8547173 C23.7900462,12.1819881 23.8166229,12.5533699 23.7010008,12.9005044 C23.5145535,13.4609335 22.9920625,13.8377949 22.401212,13.8377949 C22.2549036,13.8377949 22.10928,13.8143695 21.9689993,13.7675187 L20,13.1120181 L20,27 L36.3827099,27 C36.5595678,26.2098376 37,24.1360721 37,23.060695 C37,22.6050638 37,21.3947508 36.5864184,21.1191255 C36.3764082,20.978984 36.01324,21.08296 35.7451448,21.1947444 C34.5874176,21.6766777 33.1291279,22.1436791 32.1231889,21.4726986 C31.4483617,21.0225471 31.1061534,20.1403268 31.1061534,18.8506962 C31.1061534,17.5610657 31.4483617,16.6787084 32.1231889,16.2286939 C33.1289909,15.5578504 34.5871436,16.0244408 35.7454188,16.5063741 C36.01324,16.6178845 36.3762712,16.7218605 36.5864184,16.581856 C37,16.3062307 37,15.0960547 37,14.6404235 C37,13.5321686 36.5328541,11.3649755 36.3675036,10.6330341 C35.6355505,10.4676863 33.4670894,10 32.3596387,10 C30.9318984,10 30.3496784,10.1954857 30.3496784,10.6739943 C30.3496784,10.8311227 30.3979,11.0264714 30.4931101,11.254561 C30.7791513,11.9404735 31.1079343,12.8328311 31.1079343,13.6524465 C31.1079343,14.337948 30.8788821,14.8793353 30.4272165,15.2616764 C29.9247264,15.6868956 29.1797589,15.8934776 28.1497091,15.8934776 C25.7041114,15.8934776 25.1906619,14.6748082 25.1906619,13.6524465 C25.1906619,12.83379 25.5191709,11.9407475 25.8052122,11.254561 C25.9001483,11.0264714 25.9486438,10.8311227 25.9486438,10.6739943 C25.9486438,10.1953488 25.3665608,10 23.9396425,10 C23.1097394,10 21.6873419,10.2619262 20.717021,10.4630286 L22.8338356,11.1677089 C23.1811127,11.283603 23.4623592,11.5273095 23.6262027,11.8547173 Z" id="Shape"></path>
                    <path d="M11.4298831,8.05811013 C10.8606318,7.86123183 10.245482,8.18080653 10.0559126,8.77214673 C9.8663433,9.36334587 10.1744614,10.0019312 10.7435768,10.1988095 L21.5704852,13.9420365 C21.6842811,13.981243 21.7999782,14 21.9133668,14 C22.3685504,14 22.7926372,13.7008747 22.9440482,13.2278589 C23.1336176,12.6366598 22.8259069,11.9977924 22.2563841,11.8009141 L11.4298831,8.05811013 Z" id="Shape"></path>
                </g>
            </g>
        </g>
    </g>
</svg>