<?xml version="1.0" encoding="UTF-8"?>
<svg width="163px" height="97px" viewBox="0 0 163 97" version="1.1" xmlns="http://www.w3.org/2000/svg" xmlns:xlink="http://www.w3.org/1999/xlink">
    <!-- Generator: Sketch 62 (91390) - https://sketch.com -->
    <title>Connect</title>
    <desc>Created with Sketch.</desc>
    <defs>
        <radialGradient cx="28.5765%" cy="49.9999992%" fx="28.5765%" fy="49.9999992%" r="50.0193895%" gradientTransform="translate(0.285765,0.500000),scale(0.589683,1.000000),rotate(91.595388),translate(-0.285765,-0.500000)" id="radialGradient-1">
            <stop stop-color="#80C3F3" offset="0%"></stop>
            <stop stop-color="#4A90E2" offset="100%"></stop>
        </radialGradient>
        <path d="M49.6757812,21.1953125 C51.0950521,21.1953125 52.3645833,20.983724 53.484375,20.5605469 L53.484375,20.5605469 L53.484375,18.5585938 C52.8723958,18.7473958 52.2832031,18.9020182 51.7167969,19.0224609 C51.1503906,19.1429036 50.5644531,19.203125 49.9589844,19.203125 C48.5592448,19.203125 47.4899089,18.7539062 46.7509766,17.8554688 C46.0120443,16.9570312 45.6425781,15.6321615 45.6425781,13.8808594 C45.6425781,12.2076823 46.0266927,10.8958333 46.7949219,9.9453125 C47.563151,8.99479167 48.6178385,8.51953125 49.9589844,8.51953125 C50.5514323,8.51953125 51.1162109,8.60579427 51.6533203,8.77832031 C52.1904297,8.95084635 52.6998698,9.15104167 53.1816406,9.37890625 L53.1816406,9.37890625 L54.0214844,7.43554688 C52.7845052,6.82356771 51.436849,6.51757812 49.9785156,6.51757812 C48.5917969,6.51757812 47.3841146,6.81380208 46.3554688,7.40625 C45.3268229,7.99869792 44.5406901,8.8515625 43.9970703,9.96484375 C43.4534505,11.078125 43.1816406,12.3769531 43.1816406,13.8613281 C43.1816406,16.218099 43.7415365,18.0296224 44.8613281,19.2958984 C45.9811198,20.5621745 47.5859375,21.1953125 49.6757812,21.1953125 Z M60.7597656,21.1953125 C62.374349,21.1953125 63.6341146,20.7005208 64.5390625,19.7109375 C65.4440104,18.7213542 65.8964844,17.344401 65.8964844,15.5800781 C65.8964844,13.874349 65.4407552,12.5185547 64.5292969,11.5126953 C63.6178385,10.5068359 62.3808594,10.0039062 60.8183594,10.0039062 C59.1842448,10.0039062 57.9179688,10.4954427 57.0195312,11.4785156 C56.1210938,12.4615885 55.671875,13.828776 55.671875,15.5800781 C55.671875,16.7063802 55.8802083,17.6959635 56.296875,18.5488281 C56.7135417,19.4016927 57.3092448,20.0559896 58.0839844,20.5117188 C58.858724,20.9674479 59.750651,21.1953125 60.7597656,21.1953125 Z M60.7988281,19.3203125 C58.9563802,19.3203125 58.0351562,18.0735677 58.0351562,15.5800781 C58.0351562,14.3886719 58.2516276,13.4739583 58.6845703,12.8359375 C59.117513,12.1979167 59.8157552,11.8789062 60.7792969,11.8789062 C62.6152344,11.8789062 63.5332031,13.1126302 63.5332031,15.5800781 C63.5332031,18.0735677 62.6217448,19.3203125 60.7988281,19.3203125 Z M70.828125,21 L70.828125,15.6191406 C70.828125,14.2714844 71.0527344,13.3111979 71.5019531,12.7382812 C71.9511719,12.1653646 72.6608073,11.8789062 73.6308594,11.8789062 C74.360026,11.8789062 74.8922526,12.0839844 75.2275391,12.4941406 C75.5628255,12.9042969 75.7304688,13.5260417 75.7304688,14.359375 L75.7304688,14.359375 L75.7304688,21 L78.0351562,21 L78.0351562,13.9589844 C78.0351562,11.3222656 76.7395833,10.0039062 74.1484375,10.0039062 C73.4192708,10.0039062 72.7552083,10.1438802 72.15625,10.4238281 C71.5572917,10.703776 71.0950521,11.1009115 70.7695312,11.6152344 L70.7695312,11.6152344 L70.6523438,11.6152344 L70.3300781,10.1992188 L68.5332031,10.1992188 L68.5332031,21 L70.828125,21 Z M83.5234375,21 L83.5234375,15.6191406 C83.5234375,14.2714844 83.7480469,13.3111979 84.1972656,12.7382812 C84.6464844,12.1653646 85.3561198,11.8789062 86.3261719,11.8789062 C87.0553385,11.8789062 87.5875651,12.0839844 87.9228516,12.4941406 C88.258138,12.9042969 88.4257812,13.5260417 88.4257812,14.359375 L88.4257812,14.359375 L88.4257812,21 L90.7304688,21 L90.7304688,13.9589844 C90.7304688,11.3222656 89.4348958,10.0039062 86.84375,10.0039062 C86.1145833,10.0039062 85.4505208,10.1438802 84.8515625,10.4238281 C84.2526042,10.703776 83.7903646,11.1009115 83.4648438,11.6152344 L83.4648438,11.6152344 L83.3476562,11.6152344 L83.0253906,10.1992188 L81.2285156,10.1992188 L81.2285156,21 L83.5234375,21 Z M98.640625,21.1953125 C99.3763021,21.1953125 100.030599,21.139974 100.603516,21.0292969 C101.176432,20.9186198 101.742839,20.7298177 102.302734,20.4628906 L102.302734,20.4628906 L102.302734,18.5976562 C101.671224,18.8776042 101.080404,19.0777995 100.530273,19.1982422 C99.9801432,19.3186849 99.3860677,19.3789062 98.7480469,19.3789062 C97.7779948,19.3789062 97.0260417,19.0973307 96.4921875,18.5341797 C95.9583333,17.9710286 95.6751302,17.1653646 95.6425781,16.1171875 L95.6425781,16.1171875 L102.839844,16.1171875 L102.839844,14.8769531 C102.839844,13.360026 102.426432,12.1686198 101.599609,11.3027344 C100.772786,10.436849 99.6464844,10.0039062 98.2207031,10.0039062 C96.6842448,10.0039062 95.4765625,10.5084635 94.5976562,11.5175781 C93.71875,12.5266927 93.2792969,13.9134115 93.2792969,15.6777344 C93.2792969,17.3964844 93.7529297,18.7457682 94.7001953,19.7255859 C95.6474609,20.7054036 96.9609375,21.1953125 98.640625,21.1953125 Z M100.583984,14.4570312 L95.6816406,14.4570312 C95.766276,13.5716146 96.0283203,12.8977865 96.4677734,12.4355469 C96.9072266,11.9733073 97.4915365,11.7421875 98.2207031,11.7421875 C98.9498698,11.7421875 99.5227865,11.9716797 99.9394531,12.4306641 C100.35612,12.8896484 100.570964,13.5651042 100.583984,14.4570312 L100.583984,14.4570312 Z M109.802734,21.1953125 C110.466797,21.1953125 111.031576,21.1432292 111.49707,21.0390625 C111.962565,20.9348958 112.400391,20.7623698 112.810547,20.5214844 L112.810547,20.5214844 L112.810547,18.5195312 C111.899089,19.0273438 110.932292,19.28125 109.910156,19.28125 C109.011719,19.28125 108.329753,18.976888 107.864258,18.3681641 C107.398763,17.7594401 107.166016,16.8496094 107.166016,15.6386719 C107.166016,13.1582031 108.10026,11.9179688 109.96875,11.9179688 C110.60026,11.9179688 111.401042,12.1067708 112.371094,12.484375 L112.371094,12.484375 L113.064453,10.6386719 C112.152995,10.2154948 111.127604,10.0039062 109.988281,10.0039062 C108.308594,10.0039062 107.024414,10.4921875 106.135742,11.46875 C105.24707,12.4453125 104.802734,13.8417969 104.802734,15.6582031 C104.802734,17.4420573 105.227539,18.8108724 106.077148,19.7646484 C106.926758,20.7184245 108.16862,21.1953125 109.802734,21.1953125 Z M118.826172,21.1953125 C119.255859,21.1953125 119.670898,21.1578776 120.071289,21.0830078 C120.47168,21.008138 120.798828,20.9153646 121.052734,20.8046875 L121.052734,20.8046875 L121.052734,19.0761719 C120.492839,19.2519531 119.932943,19.3398438 119.373047,19.3398438 C118.923828,19.3398438 118.560872,19.2080078 118.28418,18.9443359 C118.007487,18.6806641 117.869141,18.2721354 117.869141,17.71875 L117.869141,17.71875 L117.869141,11.9375 L120.945312,11.9375 L120.945312,10.1992188 L117.869141,10.1992188 L117.869141,7.796875 L116.453125,7.796875 L115.671875,10.0820312 L114.089844,10.921875 L114.089844,11.9375 L115.564453,11.9375 L115.564453,17.7578125 C115.564453,20.0494792 116.651693,21.1953125 118.826172,21.1953125 Z" id="path-2"></path>
    </defs>
    <g id="Symbols" stroke="none" stroke-width="1" fill="none" fill-rule="evenodd">
        <g id="i/Connect">
            <g id="Connect">
                <g id="Group-2" fill="url(#radialGradient-1)" fill-rule="nonzero">
                    <g id="Group-3">
                        <g id="blue-icon">
                            <rect id="Rectangle-2" x="0" y="0" width="163" height="96.1183237" rx="6"></rect>
                        </g>
                    </g>
                </g>
                <line x1="2" y1="28.3813948" x2="161" y2="28.3813948" id="Line-2" stroke="#FFFFFF" stroke-width="4" stroke-linecap="square"></line>
                <line x1="82" y1="39" x2="82" y2="85.1670689" id="Line-3" stroke="#FFFFFF" stroke-width="2" stroke-linecap="square"></line>
                <g id="Group" transform="translate(21.054167, 38.598697)" fill-rule="nonzero">
                    <polygon id="Path" fill="#3498DB" points="28.525 28.7598134 42.7875 28.7598134 42.7875 37.8418597 42.7782292 37.8418597 28.5254279 37.8418597 28.5254279 28.7598134"></polygon>
                    <polygon id="Path" fill="#3498DB" points="1.35840465 28.7598134 1.36760437 28.7598134 15.6208333 28.7598134 15.6208333 37.8418597 15.6115622 37.8418597 1.35833333 37.8418597 1.35833333 28.7598134"></polygon>
                    <path d="M29.0069951,24.2187902 C28.4996678,24.2187902 28.0474133,24.4487398 27.7140407,24.8235639 C27.3805983,25.1983958 27.1666667,25.7121387 27.1666667,26.2771011 L27.1666667,38.0437522 C27.1666667,38.6087146 27.3805983,39.1225125 27.7140407,39.4973444 L27.7140407,39.5075898 C28.0523055,39.8824217 28.5044902,40.1123713 29.0069951,40.1123713 L42.9846024,40.1123713 C43.4871772,40.1123713 43.9536193,39.8824217 44.287061,39.5075898 L44.287061,39.4973444 C44.6205036,39.1225125 44.825,38.6087146 44.825,38.0437522 L44.825,26.2771011 C44.825,25.7121387 44.6205036,25.1983958 44.287061,24.8235639 C43.9536193,24.4487398 43.4871765,24.2187902 42.9846024,24.2187902 L29.0069959,24.2187902 L29.0069951,24.2187902 Z" id="Path" fill="#FFFFFF"></path>
                    <path d="M1.84046097,24.2187902 C1.33306571,24.2187902 0.871377965,24.4487398 0.538006703,24.8235639 C0.204635441,25.1983958 0,25.7121387 0,26.2771011 L0,38.0437522 C0,38.6087146 0.204635441,39.1225125 0.538006703,39.4973444 L0.538006703,39.5075898 C0.876270206,39.8824217 1.33788807,40.1123713 1.84046097,40.1123713 L15.8179415,40.1123713 C16.3205843,40.1123713 16.7821323,39.8824217 17.1203965,39.5075898 L17.1203965,39.4973444 C17.4538376,39.1225125 17.6583333,38.6087146 17.6583333,38.0437522 L17.6583333,26.2771011 C17.6583333,25.7121387 17.4538376,25.1983958 17.1203965,24.8235639 C16.7869546,24.4487398 16.3253375,24.2187902 15.8179422,24.2187902 L1.84046097,24.2187902 L1.84046097,24.2187902 Z" id="Path" fill="#ECF0F1"></path>
                    <path d="M21.7742878,17.0690865 L21.7742878,18.9584949 L8.87807468,18.9584949 C8.47626481,18.9584949 8.15,19.3289167 8.15,19.7850993 L8.15,22.2864398 C8.15,22.5172895 8.31544289,22.7051158 8.51876325,22.7051158 L9.03875669,22.7051158 C9.24207711,22.7051158 9.40744992,22.5172895 9.40744992,22.2864398 L9.40744992,20.7942752 C9.40744992,20.5689185 9.57289274,20.3863231 9.77621317,20.3863231 L35.0487861,20.3863231 C35.2521065,20.3863231 35.4175501,20.5634174 35.4175501,20.7942752 L35.4175501,22.2864398 C35.4175501,22.5172895 35.5877539,22.7051158 35.7862433,22.7051158 L36.3062367,22.7051158 C36.509557,22.7051158 36.675,22.5172895 36.675,22.2864398 L36.675,19.7850993 C36.675,19.3289167 36.3490152,18.947763 35.9375434,18.947763 L23.0317384,18.947763 L23.0317384,17.0690865 C23.0317384,16.8382367 22.8663655,16.6504183 22.6630451,16.6504183 L22.1429817,16.6504183 C21.9397307,16.6504183 21.7742878,16.8382367 21.7742878,17.0690865 Z" id="Path" fill="#ECF0F1"></path>
                    <polygon id="Path" fill="#3498DB" points="14.9416667 4.54102317 29.2041667 4.54102317 29.2041667 13.6230695 29.1948958 13.6230695 14.9419519 13.6230695 14.9419519 4.54102317"></polygon>
                    <path d="M15.4237316,0 C14.9163344,0 14.4547147,0.229944247 14.1212722,0.604767433 C13.7878299,0.979598478 13.5833333,1.50396753 13.5833333,2.06892467 L13.5833333,13.8246563 C13.5833333,14.3896135 13.7878299,14.9139826 14.1212722,15.2888137 C14.4595371,15.6636368 14.9211568,15.8935811 15.4237316,15.8935811 L29.4012677,15.8935811 C29.9038426,15.8935811 30.3703545,15.6636368 30.7037278,15.2888137 C31.0370997,14.9139826 31.2416667,14.3896135 31.2416667,13.8246563 L31.2416667,2.06892467 C31.2416667,1.49853849 31.0370997,0.979598478 30.7037278,0.604767433 C30.365463,0.224507358 29.9086657,0 29.4012677,0 L15.4237316,0 Z" id="Path" fill="#BDC3C7"></path>
                </g>
                <g fill-rule="nonzero">
                    <use fill="#000000" xlink:href="#path-2"></use>
                    <use fill="#FFFFFF" xlink:href="#path-2"></use>
                </g>
                <path d="M95.6054688,49.1171875 C96.4570312,49.1171875 97.21875,48.9902344 97.890625,48.7363281 L97.890625,48.7363281 L97.890625,47.5351562 C97.5234375,47.6484375 97.1699219,47.7412109 96.8300781,47.8134766 C96.4902344,47.8857422 96.1386719,47.921875 95.7753906,47.921875 C94.9355469,47.921875 94.2939453,47.6523438 93.8505859,47.1132812 C93.4072266,46.5742188 93.1855469,45.7792969 93.1855469,44.7285156 C93.1855469,43.7246094 93.4160156,42.9375 93.8769531,42.3671875 C94.3378906,41.796875 94.9707031,41.5117188 95.7753906,41.5117188 C96.1308594,41.5117188 96.4697266,41.5634766 96.7919922,41.6669922 C97.1142578,41.7705078 97.4199219,41.890625 97.7089844,42.0273438 L97.7089844,42.0273438 L98.2128906,40.8613281 C97.4707031,40.4941406 96.6621094,40.3105469 95.7871094,40.3105469 C94.9550781,40.3105469 94.2304688,40.4882812 93.6132812,40.84375 C92.9960938,41.1992188 92.5244141,41.7109375 92.1982422,42.3789062 C91.8720703,43.046875 91.7089844,43.8261719 91.7089844,44.7167969 C91.7089844,46.1308594 92.0449219,47.2177734 92.7167969,47.9775391 C93.3886719,48.7373047 94.3515625,49.1171875 95.6054688,49.1171875 Z M100.966797,49 L100.966797,45.6132812 C100.966797,45.0390625 101.137695,44.5722656 101.479492,44.2128906 C101.821289,43.8535156 102.267578,43.6738281 102.818359,43.6738281 C103.029297,43.6738281 103.232422,43.6972656 103.427734,43.7441406 L103.427734,43.7441406 L103.5625,42.4609375 C103.382812,42.421875 103.154297,42.4023438 102.876953,42.4023438 C102.478516,42.4023438 102.106445,42.515625 101.760742,42.7421875 C101.415039,42.96875 101.134766,43.2753906 100.919922,43.6621094 L100.919922,43.6621094 L100.849609,43.6621094 L100.667969,42.5195312 L99.5898438,42.5195312 L99.5898438,49 L100.966797,49 Z M107.59375,49.1171875 C108.035156,49.1171875 108.427734,49.0839844 108.771484,49.0175781 C109.115234,48.9511719 109.455078,48.8378906 109.791016,48.6777344 L109.791016,48.6777344 L109.791016,47.5585938 C109.412109,47.7265625 109.057617,47.8466797 108.727539,47.9189453 C108.397461,47.9912109 108.041016,48.0273438 107.658203,48.0273438 C107.076172,48.0273438 106.625,47.8583984 106.304688,47.5205078 C105.984375,47.1826172 105.814453,46.6992188 105.794922,46.0703125 L105.794922,46.0703125 L110.113281,46.0703125 L110.113281,45.3261719 C110.113281,44.4160156 109.865234,43.7011719 109.369141,43.1816406 C108.873047,42.6621094 108.197266,42.4023438 107.341797,42.4023438 C106.419922,42.4023438 105.695312,42.7050781 105.167969,43.3105469 C104.640625,43.9160156 104.376953,44.7480469 104.376953,45.8066406 C104.376953,46.8378906 104.661133,47.6474609 105.229492,48.2353516 C105.797852,48.8232422 106.585938,49.1171875 107.59375,49.1171875 Z M108.759766,45.0742188 L105.818359,45.0742188 C105.869141,44.5429688 106.026367,44.1386719 106.290039,43.8613281 C106.553711,43.5839844 106.904297,43.4453125 107.341797,43.4453125 C107.779297,43.4453125 108.123047,43.5830078 108.373047,43.8583984 C108.623047,44.1337891 108.751953,44.5390625 108.759766,45.0742188 L108.759766,45.0742188 Z M113.248047,49.1171875 C113.744141,49.1171875 114.150391,49.0458984 114.466797,48.9033203 C114.783203,48.7607422 115.097656,48.4921875 115.410156,48.0976562 L115.410156,48.0976562 L115.457031,48.0976562 L115.732422,49 L116.716797,49 L116.716797,44.6347656 C116.716797,43.8652344 116.506836,43.3007812 116.086914,42.9414062 C115.666992,42.5820312 115.044922,42.4023438 114.220703,42.4023438 C113.849609,42.4023438 113.455078,42.4501953 113.037109,42.5458984 C112.619141,42.6416016 112.234375,42.78125 111.882812,42.9648438 L111.882812,42.9648438 L112.328125,43.9492188 C112.609375,43.8164062 112.902344,43.7011719 113.207031,43.6035156 C113.511719,43.5058594 113.830078,43.4570312 114.162109,43.4570312 C114.568359,43.4570312 114.868164,43.5595703 115.061523,43.7646484 C115.254883,43.9697266 115.351562,44.2792969 115.351562,44.6933594 L115.351562,44.6933594 L115.351562,45.0390625 L114.232422,45.0742188 C113.216797,45.1054688 112.460938,45.2910156 111.964844,45.6308594 C111.46875,45.9707031 111.220703,46.4746094 111.220703,47.1425781 C111.220703,47.7714844 111.399414,48.2578125 111.756836,48.6015625 C112.114258,48.9453125 112.611328,49.1171875 113.248047,49.1171875 Z M113.681641,48.0625 C113.337891,48.0625 113.080078,47.9833984 112.908203,47.8251953 C112.736328,47.6669922 112.650391,47.4433594 112.650391,47.1542969 C112.650391,46.7558594 112.797852,46.4599609 113.092773,46.2666016 C113.387695,46.0732422 113.859375,45.9648438 114.507812,45.9414062 L114.507812,45.9414062 L115.339844,45.90625 L115.339844,46.46875 C115.339844,46.9726562 115.188477,47.3642578 114.885742,47.6435547 C114.583008,47.9228516 114.181641,48.0625 113.681641,48.0625 Z M120.724609,49.1171875 C120.982422,49.1171875 121.231445,49.0947266 121.47168,49.0498047 C121.711914,49.0048828 121.908203,48.9492188 122.060547,48.8828125 L122.060547,48.8828125 L122.060547,47.8457031 C121.724609,47.9511719 121.388672,48.0039062 121.052734,48.0039062 C120.783203,48.0039062 120.56543,47.9248047 120.399414,47.7666016 C120.233398,47.6083984 120.150391,47.3632812 120.150391,47.03125 L120.150391,47.03125 L120.150391,43.5625 L121.996094,43.5625 L121.996094,42.5195312 L120.150391,42.5195312 L120.150391,41.078125 L119.300781,41.078125 L118.832031,42.4492188 L117.882812,42.953125 L117.882812,43.5625 L118.767578,43.5625 L118.767578,47.0546875 C118.767578,48.4296875 119.419922,49.1171875 120.724609,49.1171875 Z M126.185547,49.1171875 C126.626953,49.1171875 127.019531,49.0839844 127.363281,49.0175781 C127.707031,48.9511719 128.046875,48.8378906 128.382812,48.6777344 L128.382812,48.6777344 L128.382812,47.5585938 C128.003906,47.7265625 127.649414,47.8466797 127.319336,47.9189453 C126.989258,47.9912109 126.632812,48.0273438 126.25,48.0273438 C125.667969,48.0273438 125.216797,47.8583984 124.896484,47.5205078 C124.576172,47.1826172 124.40625,46.6992188 124.386719,46.0703125 L124.386719,46.0703125 L128.705078,46.0703125 L128.705078,45.3261719 C128.705078,44.4160156 128.457031,43.7011719 127.960938,43.1816406 C127.464844,42.6621094 126.789062,42.4023438 125.933594,42.4023438 C125.011719,42.4023438 124.287109,42.7050781 123.759766,43.3105469 C123.232422,43.9160156 122.96875,44.7480469 122.96875,45.8066406 C122.96875,46.8378906 123.25293,47.6474609 123.821289,48.2353516 C124.389648,48.8232422 125.177734,49.1171875 126.185547,49.1171875 Z M127.351562,45.0742188 L124.410156,45.0742188 C124.460938,44.5429688 124.618164,44.1386719 124.881836,43.8613281 C125.145508,43.5839844 125.496094,43.4453125 125.933594,43.4453125 C126.371094,43.4453125 126.714844,43.5830078 126.964844,43.8583984 C127.214844,44.1337891 127.34375,44.5390625 127.351562,45.0742188 L127.351562,45.0742188 Z M94.5976562,61.1171875 C94.9960938,61.1171875 95.3349609,61.0859375 95.6142578,61.0234375 C95.8935547,60.9609375 96.15625,60.8574219 96.4023438,60.7128906 L96.4023438,60.7128906 L96.4023438,59.5117188 C95.8554688,59.8164062 95.2753906,59.96875 94.6621094,59.96875 C94.1230469,59.96875 93.7138672,59.7861328 93.4345703,59.4208984 C93.1552734,59.0556641 93.015625,58.5097656 93.015625,57.7832031 C93.015625,56.2949219 93.5761719,55.5507812 94.6972656,55.5507812 C95.0761719,55.5507812 95.5566406,55.6640625 96.1386719,55.890625 L96.1386719,55.890625 L96.5546875,54.7832031 C96.0078125,54.5292969 95.3925781,54.4023438 94.7089844,54.4023438 C93.7011719,54.4023438 92.9306641,54.6953125 92.3974609,55.28125 C91.8642578,55.8671875 91.5976562,56.7050781 91.5976562,57.7949219 C91.5976562,58.8652344 91.8525391,59.6865234 92.3623047,60.2587891 C92.8720703,60.8310547 93.6171875,61.1171875 94.5976562,61.1171875 Z M99.4960938,61.1171875 C99.9921875,61.1171875 100.398438,61.0458984 100.714844,60.9033203 C101.03125,60.7607422 101.345703,60.4921875 101.658203,60.0976562 L101.658203,60.0976562 L101.705078,60.0976562 L101.980469,61 L102.964844,61 L102.964844,56.6347656 C102.964844,55.8652344 102.754883,55.3007812 102.334961,54.9414062 C101.915039,54.5820312 101.292969,54.4023438 100.46875,54.4023438 C100.097656,54.4023438 99.703125,54.4501953 99.2851562,54.5458984 C98.8671875,54.6416016 98.4824219,54.78125 98.1308594,54.9648438 L98.1308594,54.9648438 L98.5761719,55.9492188 C98.8574219,55.8164062 99.1503906,55.7011719 99.4550781,55.6035156 C99.7597656,55.5058594 100.078125,55.4570312 100.410156,55.4570312 C100.816406,55.4570312 101.116211,55.5595703 101.30957,55.7646484 C101.50293,55.9697266 101.599609,56.2792969 101.599609,56.6933594 L101.599609,56.6933594 L101.599609,57.0390625 L100.480469,57.0742188 C99.4648438,57.1054688 98.7089844,57.2910156 98.2128906,57.6308594 C97.7167969,57.9707031 97.46875,58.4746094 97.46875,59.1425781 C97.46875,59.7714844 97.6474609,60.2578125 98.0048828,60.6015625 C98.3623047,60.9453125 98.859375,61.1171875 99.4960938,61.1171875 Z M99.9296875,60.0625 C99.5859375,60.0625 99.328125,59.9833984 99.15625,59.8251953 C98.984375,59.6669922 98.8984375,59.4433594 98.8984375,59.1542969 C98.8984375,58.7558594 99.0458984,58.4599609 99.3408203,58.2666016 C99.6357422,58.0732422 100.107422,57.9648438 100.755859,57.9414062 L100.755859,57.9414062 L101.587891,57.90625 L101.587891,58.46875 C101.587891,58.9726562 101.436523,59.3642578 101.133789,59.6435547 C100.831055,59.9228516 100.429688,60.0625 99.9296875,60.0625 Z M107.166016,61.1171875 C107.619141,61.1171875 108.022461,61.03125 108.375977,60.859375 C108.729492,60.6875 109.001953,60.4511719 109.193359,60.1503906 L109.193359,60.1503906 L109.263672,60.1503906 L109.457031,61 L110.541016,61 L110.541016,54.5195312 L109.158203,54.5195312 L109.158203,57.7480469 C109.158203,58.5605469 109.022461,59.1396484 108.750977,59.4853516 C108.479492,59.8310547 108.054688,60.0039062 107.476562,60.0039062 C107.042969,60.0039062 106.724609,59.8798828 106.521484,59.6318359 C106.318359,59.3837891 106.216797,59.0117188 106.216797,58.515625 L106.216797,58.515625 L106.216797,54.5195312 L104.828125,54.5195312 L104.828125,58.7558594 C104.828125,59.5488281 105.021484,60.140625 105.408203,60.53125 C105.794922,60.921875 106.380859,61.1171875 107.166016,61.1171875 Z M114.185547,61.1171875 C115.044922,61.1171875 115.705078,60.9482422 116.166016,60.6103516 C116.626953,60.2724609 116.857422,59.7871094 116.857422,59.1542969 C116.857422,58.8417969 116.798828,58.5732422 116.681641,58.3486328 C116.564453,58.1240234 116.384766,57.9257812 116.142578,57.7539062 C115.900391,57.5820312 115.511719,57.3925781 114.976562,57.1855469 C114.339844,56.9394531 113.926758,56.7460938 113.737305,56.6054688 C113.547852,56.4648438 113.453125,56.2929688 113.453125,56.0898438 C113.453125,55.6757812 113.816406,55.46875 114.542969,55.46875 C115.019531,55.46875 115.607422,55.6132812 116.306641,55.9023438 L116.306641,55.9023438 L116.751953,54.8652344 C116.072266,54.5566406 115.351562,54.4023438 114.589844,54.4023438 C113.820312,54.4023438 113.211914,54.5556641 112.764648,54.8623047 C112.317383,55.1689453 112.09375,55.5996094 112.09375,56.1542969 C112.09375,56.6152344 112.225586,56.9902344 112.489258,57.2792969 C112.75293,57.5683594 113.257812,57.8574219 114.003906,58.1464844 C114.386719,58.2949219 114.685547,58.4277344 114.900391,58.5449219 C115.115234,58.6621094 115.269531,58.7753906 115.363281,58.8847656 C115.457031,58.9941406 115.503906,59.1308594 115.503906,59.2949219 C115.503906,59.8066406 115.080078,60.0625 114.232422,60.0625 C113.576172,60.0625 112.867188,59.8867188 112.105469,59.5351562 L112.105469,59.5351562 L112.105469,60.7246094 C112.628906,60.9863281 113.322266,61.1171875 114.185547,61.1171875 Z M119.916016,61.1171875 C120.412109,61.1171875 120.818359,61.0458984 121.134766,60.9033203 C121.451172,60.7607422 121.765625,60.4921875 122.078125,60.0976562 L122.078125,60.0976562 L122.125,60.0976562 L122.400391,61 L123.384766,61 L123.384766,56.6347656 C123.384766,55.8652344 123.174805,55.3007812 122.754883,54.9414062 C122.334961,54.5820312 121.712891,54.4023438 120.888672,54.4023438 C120.517578,54.4023438 120.123047,54.4501953 119.705078,54.5458984 C119.287109,54.6416016 118.902344,54.78125 118.550781,54.9648438 L118.550781,54.9648438 L118.996094,55.9492188 C119.277344,55.8164062 119.570312,55.7011719 119.875,55.6035156 C120.179688,55.5058594 120.498047,55.4570312 120.830078,55.4570312 C121.236328,55.4570312 121.536133,55.5595703 121.729492,55.7646484 C121.922852,55.9697266 122.019531,56.2792969 122.019531,56.6933594 L122.019531,56.6933594 L122.019531,57.0390625 L120.900391,57.0742188 C119.884766,57.1054688 119.128906,57.2910156 118.632812,57.6308594 C118.136719,57.9707031 117.888672,58.4746094 117.888672,59.1425781 C117.888672,59.7714844 118.067383,60.2578125 118.424805,60.6015625 C118.782227,60.9453125 119.279297,61.1171875 119.916016,61.1171875 Z M120.349609,60.0625 C120.005859,60.0625 119.748047,59.9833984 119.576172,59.8251953 C119.404297,59.6669922 119.318359,59.4433594 119.318359,59.1542969 C119.318359,58.7558594 119.46582,58.4599609 119.760742,58.2666016 C120.055664,58.0732422 120.527344,57.9648438 121.175781,57.9414062 L121.175781,57.9414062 L122.007812,57.90625 L122.007812,58.46875 C122.007812,58.9726562 121.856445,59.3642578 121.553711,59.6435547 C121.250977,59.9228516 120.849609,60.0625 120.349609,60.0625 Z M126.683594,61 L126.683594,51.8828125 L125.306641,51.8828125 L125.306641,61 L126.683594,61 Z M133.146484,61 L133.146484,51.8828125 L131.769531,51.8828125 L131.769531,61 L133.146484,61 Z M135.8125,53.5585938 C136.054688,53.5585938 136.243164,53.4912109 136.37793,53.3564453 C136.512695,53.2216797 136.580078,53.0371094 136.580078,52.8027344 C136.580078,52.5566406 136.512695,52.3671875 136.37793,52.234375 C136.243164,52.1015625 136.054688,52.0351562 135.8125,52.0351562 C135.5625,52.0351562 135.370117,52.1015625 135.235352,52.234375 C135.100586,52.3671875 135.033203,52.5566406 135.033203,52.8027344 C135.033203,53.0371094 135.100586,53.2216797 135.235352,53.3564453 C135.370117,53.4912109 135.5625,53.5585938 135.8125,53.5585938 Z M136.492188,61 L136.492188,54.5195312 L135.115234,54.5195312 L135.115234,61 L136.492188,61 Z M139.837891,61 L139.837891,57.7714844 C139.837891,56.9628906 139.972656,56.3867188 140.242188,56.0429688 C140.511719,55.6992188 140.9375,55.5273438 141.519531,55.5273438 C141.957031,55.5273438 142.276367,55.6503906 142.477539,55.8964844 C142.678711,56.1425781 142.779297,56.515625 142.779297,57.015625 L142.779297,57.015625 L142.779297,61 L144.162109,61 L144.162109,56.7753906 C144.162109,55.1933594 143.384766,54.4023438 141.830078,54.4023438 C141.392578,54.4023438 140.994141,54.4863281 140.634766,54.6542969 C140.275391,54.8222656 139.998047,55.0605469 139.802734,55.3691406 L139.802734,55.3691406 L139.732422,55.3691406 L139.539062,54.5195312 L138.460938,54.5195312 L138.460938,61 L139.837891,61 Z M147.443359,61 L147.443359,58.7792969 L148.199219,58.1582031 L150.279297,61 L151.896484,61 L149.125,57.3027344 L151.732422,54.5195312 L150.144531,54.5195312 L148.1875,56.6054688 L147.408203,57.578125 L147.373047,57.578125 L147.443359,56.3300781 L147.443359,51.8828125 L146.078125,51.8828125 L146.078125,61 L147.443359,61 Z M154.621094,61.1171875 C155.480469,61.1171875 156.140625,60.9482422 156.601562,60.6103516 C157.0625,60.2724609 157.292969,59.7871094 157.292969,59.1542969 C157.292969,58.8417969 157.234375,58.5732422 157.117188,58.3486328 C157,58.1240234 156.820312,57.9257812 156.578125,57.7539062 C156.335938,57.5820312 155.947266,57.3925781 155.412109,57.1855469 C154.775391,56.9394531 154.362305,56.7460938 154.172852,56.6054688 C153.983398,56.4648438 153.888672,56.2929688 153.888672,56.0898438 C153.888672,55.6757812 154.251953,55.46875 154.978516,55.46875 C155.455078,55.46875 156.042969,55.6132812 156.742188,55.9023438 L156.742188,55.9023438 L157.1875,54.8652344 C156.507812,54.5566406 155.787109,54.4023438 155.025391,54.4023438 C154.255859,54.4023438 153.647461,54.5556641 153.200195,54.8623047 C152.75293,55.1689453 152.529297,55.5996094 152.529297,56.1542969 C152.529297,56.6152344 152.661133,56.9902344 152.924805,57.2792969 C153.188477,57.5683594 153.693359,57.8574219 154.439453,58.1464844 C154.822266,58.2949219 155.121094,58.4277344 155.335938,58.5449219 C155.550781,58.6621094 155.705078,58.7753906 155.798828,58.8847656 C155.892578,58.9941406 155.939453,59.1308594 155.939453,59.2949219 C155.939453,59.8066406 155.515625,60.0625 154.667969,60.0625 C154.011719,60.0625 153.302734,59.8867188 152.541016,59.5351562 L152.541016,59.5351562 L152.541016,60.7246094 C153.064453,60.9863281 153.757812,61.1171875 154.621094,61.1171875 Z M95.2714844,73.1171875 C96.0839844,73.1171875 96.71875,72.8212891 97.1757812,72.2294922 C97.6328125,71.6376953 97.8613281,70.8105469 97.8613281,69.7480469 C97.8613281,68.6894531 97.6357422,67.8671875 97.1845703,67.28125 C96.7333984,66.6953125 96.1035156,66.4023438 95.2949219,66.4023438 C94.4433594,66.4023438 93.7988281,66.7246094 93.3613281,67.3691406 L93.3613281,67.3691406 L93.3027344,67.3691406 C93.3105469,67.2832031 93.3222656,67.0820312 93.3378906,66.765625 C93.3535156,66.4492188 93.3613281,66.2109375 93.3613281,66.0507812 L93.3613281,66.0507812 L93.3613281,63.8828125 L91.984375,63.8828125 L91.984375,73 L93.015625,73 L93.2675781,72.2324219 L93.3613281,72.2324219 C93.8144531,72.8222656 94.4511719,73.1171875 95.2714844,73.1171875 Z M94.9609375,71.9921875 C94.3945312,71.9921875 93.9863281,71.8154297 93.7363281,71.4619141 C93.4863281,71.1083984 93.3613281,70.5371094 93.3613281,69.7480469 L93.3613281,69.7480469 L93.3613281,69.6542969 C93.3691406,68.8886719 93.4951172,68.3427734 93.7392578,68.0166016 C93.9833984,67.6904297 94.3828125,67.5273438 94.9375,67.5273438 C95.9453125,67.5273438 96.4492188,68.2636719 96.4492188,69.7363281 C96.4492188,70.4667969 96.3232422,71.0253906 96.0712891,71.4121094 C95.8193359,71.7988281 95.4492188,71.9921875 94.9609375,71.9921875 Z M102.291016,73.1171875 C102.732422,73.1171875 103.125,73.0839844 103.46875,73.0175781 C103.8125,72.9511719 104.152344,72.8378906 104.488281,72.6777344 L104.488281,72.6777344 L104.488281,71.5585938 C104.109375,71.7265625 103.754883,71.8466797 103.424805,71.9189453 C103.094727,71.9912109 102.738281,72.0273438 102.355469,72.0273438 C101.773438,72.0273438 101.322266,71.8583984 101.001953,71.5205078 C100.681641,71.1826172 100.511719,70.6992188 100.492188,70.0703125 L100.492188,70.0703125 L104.810547,70.0703125 L104.810547,69.3261719 C104.810547,68.4160156 104.5625,67.7011719 104.066406,67.1816406 C103.570312,66.6621094 102.894531,66.4023438 102.039062,66.4023438 C101.117188,66.4023438 100.392578,66.7050781 99.8652344,67.3105469 C99.3378906,67.9160156 99.0742188,68.7480469 99.0742188,69.8066406 C99.0742188,70.8378906 99.3583984,71.6474609 99.9267578,72.2353516 C100.495117,72.8232422 101.283203,73.1171875 102.291016,73.1171875 Z M103.457031,69.0742188 L100.515625,69.0742188 C100.566406,68.5429688 100.723633,68.1386719 100.987305,67.8613281 C101.250977,67.5839844 101.601562,67.4453125 102.039062,67.4453125 C102.476562,67.4453125 102.820312,67.5830078 103.070312,67.8583984 C103.320312,68.1337891 103.449219,68.5390625 103.457031,69.0742188 L103.457031,69.0742188 Z M108.460938,73.1171875 C108.71875,73.1171875 108.967773,73.0947266 109.208008,73.0498047 C109.448242,73.0048828 109.644531,72.9492188 109.796875,72.8828125 L109.796875,72.8828125 L109.796875,71.8457031 C109.460938,71.9511719 109.125,72.0039062 108.789062,72.0039062 C108.519531,72.0039062 108.301758,71.9248047 108.135742,71.7666016 C107.969727,71.6083984 107.886719,71.3632812 107.886719,71.03125 L107.886719,71.03125 L107.886719,67.5625 L109.732422,67.5625 L109.732422,66.5195312 L107.886719,66.5195312 L107.886719,65.078125 L107.037109,65.078125 L106.568359,66.4492188 L105.619141,66.953125 L105.619141,67.5625 L106.503906,67.5625 L106.503906,71.0546875 C106.503906,72.4296875 107.15625,73.1171875 108.460938,73.1171875 Z M113.564453,73 L114.425781,69.9882812 C114.558594,69.546875 114.738281,68.7988281 114.964844,67.7441406 L114.964844,67.7441406 L115.017578,67.7441406 C115.283203,68.9121094 115.466797,69.65625 115.568359,69.9765625 L115.568359,69.9765625 L116.40625,73 L117.953125,73 L119.78125,66.5195312 L118.398438,66.5195312 L117.560547,69.7128906 C117.345703,70.5761719 117.208984,71.2480469 117.150391,71.7285156 L117.150391,71.7285156 L117.103516,71.7285156 C117.087891,71.5097656 117.036133,71.203125 116.948242,70.8085938 C116.860352,70.4140625 116.787109,70.1210938 116.728516,69.9296875 L116.728516,69.9296875 L115.773438,66.5195312 L114.261719,66.5195312 L113.277344,69.9296875 C113.21875,70.1132812 113.149414,70.3896484 113.069336,70.7587891 C112.989258,71.1279297 112.929688,71.4550781 112.890625,71.7402344 L112.890625,71.7402344 L112.855469,71.7402344 C112.777344,71.1777344 112.644531,70.5019531 112.457031,69.7128906 L112.457031,69.7128906 L111.630859,66.5195312 L110.224609,66.5195312 L112.041016,73 L113.564453,73 Z M123.724609,73.1171875 C124.166016,73.1171875 124.558594,73.0839844 124.902344,73.0175781 C125.246094,72.9511719 125.585938,72.8378906 125.921875,72.6777344 L125.921875,72.6777344 L125.921875,71.5585938 C125.542969,71.7265625 125.188477,71.8466797 124.858398,71.9189453 C124.52832,71.9912109 124.171875,72.0273438 123.789062,72.0273438 C123.207031,72.0273438 122.755859,71.8583984 122.435547,71.5205078 C122.115234,71.1826172 121.945312,70.6992188 121.925781,70.0703125 L121.925781,70.0703125 L126.244141,70.0703125 L126.244141,69.3261719 C126.244141,68.4160156 125.996094,67.7011719 125.5,67.1816406 C125.003906,66.6621094 124.328125,66.4023438 123.472656,66.4023438 C122.550781,66.4023438 121.826172,66.7050781 121.298828,67.3105469 C120.771484,67.9160156 120.507812,68.7480469 120.507812,69.8066406 C120.507812,70.8378906 120.791992,71.6474609 121.360352,72.2353516 C121.928711,72.8232422 122.716797,73.1171875 123.724609,73.1171875 Z M124.890625,69.0742188 L121.949219,69.0742188 C122,68.5429688 122.157227,68.1386719 122.420898,67.8613281 C122.68457,67.5839844 123.035156,67.4453125 123.472656,67.4453125 C123.910156,67.4453125 124.253906,67.5830078 124.503906,67.8583984 C124.753906,68.1337891 124.882812,68.5390625 124.890625,69.0742188 L124.890625,69.0742188 Z M130.638672,73.1171875 C131.080078,73.1171875 131.472656,73.0839844 131.816406,73.0175781 C132.160156,72.9511719 132.5,72.8378906 132.835938,72.6777344 L132.835938,72.6777344 L132.835938,71.5585938 C132.457031,71.7265625 132.102539,71.8466797 131.772461,71.9189453 C131.442383,71.9912109 131.085938,72.0273438 130.703125,72.0273438 C130.121094,72.0273438 129.669922,71.8583984 129.349609,71.5205078 C129.029297,71.1826172 128.859375,70.6992188 128.839844,70.0703125 L128.839844,70.0703125 L133.158203,70.0703125 L133.158203,69.3261719 C133.158203,68.4160156 132.910156,67.7011719 132.414062,67.1816406 C131.917969,66.6621094 131.242188,66.4023438 130.386719,66.4023438 C129.464844,66.4023438 128.740234,66.7050781 128.212891,67.3105469 C127.685547,67.9160156 127.421875,68.7480469 127.421875,69.8066406 C127.421875,70.8378906 127.706055,71.6474609 128.274414,72.2353516 C128.842773,72.8232422 129.630859,73.1171875 130.638672,73.1171875 Z M131.804688,69.0742188 L128.863281,69.0742188 C128.914062,68.5429688 129.071289,68.1386719 129.334961,67.8613281 C129.598633,67.5839844 129.949219,67.4453125 130.386719,67.4453125 C130.824219,67.4453125 131.167969,67.5830078 131.417969,67.8583984 C131.667969,68.1337891 131.796875,68.5390625 131.804688,69.0742188 L131.804688,69.0742188 Z M136.099609,73 L136.099609,69.7714844 C136.099609,68.9628906 136.234375,68.3867188 136.503906,68.0429688 C136.773438,67.6992188 137.199219,67.5273438 137.78125,67.5273438 C138.21875,67.5273438 138.538086,67.6503906 138.739258,67.8964844 C138.94043,68.1425781 139.041016,68.515625 139.041016,69.015625 L139.041016,69.015625 L139.041016,73 L140.423828,73 L140.423828,68.7753906 C140.423828,67.1933594 139.646484,66.4023438 138.091797,66.4023438 C137.654297,66.4023438 137.255859,66.4863281 136.896484,66.6542969 C136.537109,66.8222656 136.259766,67.0605469 136.064453,67.3691406 L136.064453,67.3691406 L135.994141,67.3691406 L135.800781,66.5195312 L134.722656,66.5195312 L134.722656,73 L136.099609,73 Z M92.6816406,77.5585938 C92.9238281,77.5585938 93.1123047,77.4912109 93.2470703,77.3564453 C93.3818359,77.2216797 93.4492188,77.0371094 93.4492188,76.8027344 C93.4492188,76.5566406 93.3818359,76.3671875 93.2470703,76.234375 C93.1123047,76.1015625 92.9238281,76.0351562 92.6816406,76.0351562 C92.4316406,76.0351562 92.2392578,76.1015625 92.1044922,76.234375 C91.9697266,76.3671875 91.9023438,76.5566406 91.9023438,76.8027344 C91.9023438,77.0371094 91.9697266,77.2216797 92.1044922,77.3564453 C92.2392578,77.4912109 92.4316406,77.5585938 92.6816406,77.5585938 Z M93.3613281,85 L93.3613281,78.5195312 L91.984375,78.5195312 L91.984375,85 L93.3613281,85 Z M97.4160156,85.1171875 C97.6738281,85.1171875 97.9228516,85.0947266 98.1630859,85.0498047 C98.4033203,85.0048828 98.5996094,84.9492188 98.7519531,84.8828125 L98.7519531,84.8828125 L98.7519531,83.8457031 C98.4160156,83.9511719 98.0800781,84.0039062 97.7441406,84.0039062 C97.4746094,84.0039062 97.2568359,83.9248047 97.0908203,83.7666016 C96.9248047,83.6083984 96.8417969,83.3632812 96.8417969,83.03125 L96.8417969,83.03125 L96.8417969,79.5625 L98.6875,79.5625 L98.6875,78.5195312 L96.8417969,78.5195312 L96.8417969,77.078125 L95.9921875,77.078125 L95.5234375,78.4492188 L94.5742188,78.953125 L94.5742188,79.5625 L95.4589844,79.5625 L95.4589844,83.0546875 C95.4589844,84.4296875 96.1113281,85.1171875 97.4160156,85.1171875 Z M102.876953,85.1171875 C103.318359,85.1171875 103.710938,85.0839844 104.054688,85.0175781 C104.398438,84.9511719 104.738281,84.8378906 105.074219,84.6777344 L105.074219,84.6777344 L105.074219,83.5585938 C104.695312,83.7265625 104.34082,83.8466797 104.010742,83.9189453 C103.680664,83.9912109 103.324219,84.0273438 102.941406,84.0273438 C102.359375,84.0273438 101.908203,83.8583984 101.587891,83.5205078 C101.267578,83.1826172 101.097656,82.6992188 101.078125,82.0703125 L101.078125,82.0703125 L105.396484,82.0703125 L105.396484,81.3261719 C105.396484,80.4160156 105.148438,79.7011719 104.652344,79.1816406 C104.15625,78.6621094 103.480469,78.4023438 102.625,78.4023438 C101.703125,78.4023438 100.978516,78.7050781 100.451172,79.3105469 C99.9238281,79.9160156 99.6601562,80.7480469 99.6601562,81.8066406 C99.6601562,82.8378906 99.9443359,83.6474609 100.512695,84.2353516 C101.081055,84.8232422 101.869141,85.1171875 102.876953,85.1171875 Z M104.042969,81.0742188 L101.101562,81.0742188 C101.152344,80.5429688 101.30957,80.1386719 101.573242,79.8613281 C101.836914,79.5839844 102.1875,79.4453125 102.625,79.4453125 C103.0625,79.4453125 103.40625,79.5830078 103.65625,79.8583984 C103.90625,80.1337891 104.035156,80.5390625 104.042969,81.0742188 L104.042969,81.0742188 Z M108.337891,85 L108.337891,81.7714844 C108.337891,80.9667969 108.461914,80.3916016 108.709961,80.0458984 C108.958008,79.7001953 109.347656,79.5273438 109.878906,79.5273438 C110.277344,79.5273438 110.570312,79.6494141 110.757812,79.8935547 C110.945312,80.1376953 111.039062,80.5078125 111.039062,81.0039062 L111.039062,81.0039062 L111.039062,85 L112.421875,85 L112.421875,81.5664062 C112.421875,80.875 112.545898,80.3623047 112.793945,80.0283203 C113.041992,79.6943359 113.433594,79.5273438 113.96875,79.5273438 C114.367188,79.5273438 114.661133,79.6494141 114.850586,79.8935547 C115.040039,80.1376953 115.134766,80.5078125 115.134766,81.0039062 L115.134766,81.0039062 L115.134766,85 L116.511719,85 L116.511719,80.7753906 C116.511719,79.9746094 116.334961,79.3789062 115.981445,78.9882812 C115.62793,78.5976562 115.064453,78.4023438 114.291016,78.4023438 C113.841797,78.4023438 113.443359,78.4921875 113.095703,78.671875 C112.748047,78.8515625 112.478516,79.1015625 112.287109,79.421875 L112.287109,79.421875 L112.193359,79.421875 C111.869141,78.7421875 111.208984,78.4023438 110.212891,78.4023438 C109.802734,78.4023438 109.426758,78.4863281 109.084961,78.6542969 C108.743164,78.8222656 108.482422,79.0605469 108.302734,79.3691406 L108.302734,79.3691406 L108.232422,79.3691406 L108.039062,78.5195312 L106.960938,78.5195312 L106.960938,85 L108.337891,85 Z M120.115234,85.1171875 C120.974609,85.1171875 121.634766,84.9482422 122.095703,84.6103516 C122.556641,84.2724609 122.787109,83.7871094 122.787109,83.1542969 C122.787109,82.8417969 122.728516,82.5732422 122.611328,82.3486328 C122.494141,82.1240234 122.314453,81.9257812 122.072266,81.7539062 C121.830078,81.5820312 121.441406,81.3925781 120.90625,81.1855469 C120.269531,80.9394531 119.856445,80.7460938 119.666992,80.6054688 C119.477539,80.4648438 119.382812,80.2929688 119.382812,80.0898438 C119.382812,79.6757812 119.746094,79.46875 120.472656,79.46875 C120.949219,79.46875 121.537109,79.6132812 122.236328,79.9023438 L122.236328,79.9023438 L122.681641,78.8652344 C122.001953,78.5566406 121.28125,78.4023438 120.519531,78.4023438 C119.75,78.4023438 119.141602,78.5556641 118.694336,78.8623047 C118.24707,79.1689453 118.023438,79.5996094 118.023438,80.1542969 C118.023438,80.6152344 118.155273,80.9902344 118.418945,81.2792969 C118.682617,81.5683594 119.1875,81.8574219 119.933594,82.1464844 C120.316406,82.2949219 120.615234,82.4277344 120.830078,82.5449219 C121.044922,82.6621094 121.199219,82.7753906 121.292969,82.8847656 C121.386719,82.9941406 121.433594,83.1308594 121.433594,83.2949219 C121.433594,83.8066406 121.009766,84.0625 120.162109,84.0625 C119.505859,84.0625 118.796875,83.8867188 118.035156,83.5351562 L118.035156,83.5351562 L118.035156,84.7246094 C118.558594,84.9863281 119.251953,85.1171875 120.115234,85.1171875 Z M124.9375,85.1699219 C125.21875,85.1699219 125.43457,85.0888672 125.584961,84.9267578 C125.735352,84.7646484 125.810547,84.5449219 125.810547,84.2675781 C125.810547,83.9941406 125.736328,83.7783203 125.587891,83.6201172 C125.439453,83.4619141 125.222656,83.3828125 124.9375,83.3828125 C124.65625,83.3828125 124.441406,83.4589844 124.292969,83.6113281 C124.144531,83.7636719 124.070312,83.9824219 124.070312,84.2675781 C124.070312,84.5488281 124.144531,84.7695312 124.292969,84.9296875 C124.441406,85.0898438 124.65625,85.1699219 124.9375,85.1699219 Z" id="Createcausallinksbetweenitems." fill="#FFFFFF" fill-rule="nonzero"></path>
            </g>
        </g>
    </g>
</svg>