<?xml version="1.0" encoding="UTF-8"?>
<svg width="163px" height="97px" viewBox="0 0 163 97" version="1.1" xmlns="http://www.w3.org/2000/svg" xmlns:xlink="http://www.w3.org/1999/xlink">
    <!-- Generator: Sketch 62 (91390) - https://sketch.com -->
    <title>Designate</title>
    <desc>Created with Sketch.</desc>
    <defs>
        <radialGradient cx="26.0530847%" cy="62.3934409%" fx="26.0530847%" fy="62.3934409%" r="35.1006849%" gradientTransform="translate(0.260531,0.623934),scale(0.595092,1.000000),rotate(-90.000000),translate(-0.260531,-0.623934)" id="radialGradient-1">
            <stop stop-color="#F5836F" offset="0%"></stop>
            <stop stop-color="#E74C3C" offset="100%"></stop>
        </radialGradient>
        <path d="M4.99707031,18 C7.08886719,18 8.69091797,17.4701335 9.80322266,16.4104004 C10.9155273,15.3506673 11.4716797,13.8191732 11.4716797,11.815918 C11.4716797,9.9288737 10.9348958,8.46516927 9.86132812,7.42480469 C8.78776042,6.3844401 7.28531901,5.86425781 5.35400391,5.86425781 L5.35400391,5.86425781 L1.60205078,5.86425781 L1.60205078,18 L4.99707031,18 Z M4.99707031,16.331543 L3.5859375,16.331543 L3.5859375,7.52441406 L5.30419922,7.52441406 C8.02132161,7.52441406 9.37988281,8.97705078 9.37988281,11.8823242 C9.37988281,14.8484701 7.91894531,16.331543 4.99707031,16.331543 L4.99707031,16.331543 Z M17.8798828,18.1660156 C18.5052083,18.1660156 19.0613607,18.1189779 19.5483398,18.0249023 C20.035319,17.9308268 20.5167643,17.7703451 20.9926758,17.543457 L20.9926758,17.543457 L20.9926758,15.9580078 C20.4558919,16.1959635 19.9536947,16.3661296 19.486084,16.4685059 C19.0184733,16.5708822 18.5135091,16.6220703 17.9711914,16.6220703 C17.1466471,16.6220703 16.507487,16.3827311 16.0537109,15.9040527 C15.5999349,15.4253743 15.3592122,14.7405599 15.331543,13.8496094 L15.331543,13.8496094 L21.4492188,13.8496094 L21.4492188,12.7954102 C21.4492188,11.5060221 21.097819,10.4933268 20.3950195,9.75732422 C19.6922201,9.02132161 18.7348633,8.65332031 17.5229492,8.65332031 C16.2169596,8.65332031 15.1904297,9.08219401 14.4433594,9.93994141 C13.6962891,10.7976888 13.3227539,11.9763997 13.3227539,13.4760742 C13.3227539,14.9370117 13.7253418,16.083903 14.5305176,16.916748 C15.3356934,17.7495931 16.4521484,18.1660156 17.8798828,18.1660156 Z M19.5317383,12.4384766 L15.3647461,12.4384766 C15.4366862,11.6858724 15.6594238,11.1131185 16.032959,10.7202148 C16.4064941,10.3273112 16.9031576,10.1308594 17.5229492,10.1308594 C18.1427409,10.1308594 18.6297201,10.3259277 18.9838867,10.7160645 C19.3380534,11.1062012 19.5206706,11.6803385 19.5317383,12.4384766 L19.5317383,12.4384766 Z M26.0478516,18.1660156 C27.2652995,18.1660156 28.2005208,17.9266764 28.8535156,17.447998 C29.5065104,16.9693197 29.8330078,16.2817383 29.8330078,15.3852539 C29.8330078,14.9425456 29.75,14.5620931 29.5839844,14.2438965 C29.4179688,13.9256999 29.1634115,13.6448568 28.8203125,13.4013672 C28.4772135,13.1578776 27.9265951,12.8894857 27.168457,12.5961914 C26.2664388,12.2475586 25.6812337,11.9736328 25.4128418,11.7744141 C25.1444499,11.5751953 25.0102539,11.3317057 25.0102539,11.0439453 C25.0102539,10.4573568 25.5249023,10.1640625 26.5541992,10.1640625 C27.2293294,10.1640625 28.0621745,10.3688151 29.0527344,10.7783203 L29.0527344,10.7783203 L29.6835938,9.30908203 C28.7207031,8.87190755 27.699707,8.65332031 26.6206055,8.65332031 C25.5304362,8.65332031 24.6685384,8.87052409 24.0349121,9.30493164 C23.4012858,9.73933919 23.0844727,10.3494466 23.0844727,11.1352539 C23.0844727,11.7882487 23.2712402,12.3194987 23.6447754,12.7290039 C24.0183105,13.1385091 24.7335612,13.5480143 25.7905273,13.9575195 C26.3328451,14.167806 26.7561849,14.355957 27.0605469,14.5219727 C27.3649089,14.6879883 27.5834961,14.8484701 27.7163086,15.003418 C27.8491211,15.1583659 27.9155273,15.3520508 27.9155273,15.5844727 C27.9155273,16.3094076 27.3151042,16.671875 26.1142578,16.671875 C25.1845703,16.671875 24.1801758,16.4228516 23.1010742,15.9248047 L23.1010742,15.9248047 L23.1010742,17.6098633 C23.8426107,17.9806315 24.8248698,18.1660156 26.0478516,18.1660156 Z M32.9291992,7.45800781 C33.2722982,7.45800781 33.5393066,7.36254883 33.7302246,7.17163086 C33.9211426,6.98071289 34.0166016,6.71923828 34.0166016,6.38720703 C34.0166016,6.03857422 33.9211426,5.77018229 33.7302246,5.58203125 C33.5393066,5.39388021 33.2722982,5.29980469 32.9291992,5.29980469 C32.5750326,5.29980469 32.3024902,5.39388021 32.1115723,5.58203125 C31.9206543,5.77018229 31.8251953,6.03857422 31.8251953,6.38720703 C31.8251953,6.71923828 31.9206543,6.98071289 32.1115723,7.17163086 C32.3024902,7.36254883 32.5750326,7.45800781 32.9291992,7.45800781 Z M33.8920898,18 L33.8920898,8.81933594 L31.9414062,8.81933594 L31.9414062,18 L33.8920898,18 Z M39.3291016,22.0839844 C40.9505208,22.0839844 42.1901042,21.8017578 43.0478516,21.2373047 C43.905599,20.6728516 44.3344727,19.8704427 44.3344727,18.8300781 C44.3344727,18.0166016 44.0716146,17.394043 43.5458984,16.9624023 C43.0201823,16.5307617 42.2509766,16.3149414 41.2382812,16.3149414 L41.2382812,16.3149414 L39.6362305,16.3149414 C39.1105143,16.3149414 38.7494303,16.2623698 38.5529785,16.1572266 C38.3565267,16.0520833 38.2583008,15.8943685 38.2583008,15.684082 C38.2583008,15.3354492 38.4685872,15.0310872 38.8891602,14.7709961 C39.1271159,14.8152669 39.3927409,14.8374023 39.6860352,14.8374023 C40.831543,14.8374023 41.7307943,14.5662435 42.3837891,14.0239258 C43.0367839,13.4816081 43.3632812,12.7373047 43.3632812,11.7910156 C43.3632812,11.4755859 43.3162435,11.1767578 43.222168,10.8945312 C43.1280924,10.6123047 43.0091146,10.374349 42.8652344,10.1806641 L42.8652344,10.1806641 L44.434082,9.89013672 L44.434082,8.81933594 L41.2548828,8.81933594 C41.1110026,8.78059896 40.8965658,8.74324544 40.6115723,8.70727539 C40.3265788,8.67130534 40.0540365,8.65332031 39.7939453,8.65332031 C38.6318359,8.65332031 37.736735,8.92724609 37.1086426,9.47509766 C36.4805501,10.0229492 36.1665039,10.7949219 36.1665039,11.7910156 C36.1665039,12.4108073 36.3145345,12.9517415 36.6105957,13.4138184 C36.9066569,13.8758952 37.2926432,14.2093099 37.7685547,14.4140625 C37.3867188,14.6464844 37.0989583,14.8816732 36.9052734,15.1196289 C36.7115885,15.3575846 36.6147461,15.648112 36.6147461,15.9912109 C36.6147461,16.2623698 36.6991374,16.5210775 36.8679199,16.767334 C37.0367025,17.0135905 37.2511393,17.1920573 37.5112305,17.3027344 C36.8693034,17.4521484 36.369873,17.7191569 36.0129395,18.1037598 C35.6560059,18.4883626 35.4775391,18.9628906 35.4775391,19.5273438 C35.4775391,20.3463542 35.8068034,20.9772135 36.465332,21.4199219 C37.1238607,21.8626302 38.0784505,22.0839844 39.3291016,22.0839844 Z M39.7773438,13.5839844 C39.2239583,13.5839844 38.799235,13.4290365 38.5031738,13.1191406 C38.2071126,12.8092448 38.059082,12.3665365 38.059082,11.7910156 C38.059082,11.1767578 38.2043457,10.7091471 38.494873,10.3881836 C38.7854004,10.0672201 39.2128906,9.90673828 39.7773438,9.90673828 C40.3473307,9.90673828 40.772054,10.0686035 41.0515137,10.392334 C41.3309733,10.7160645 41.4707031,11.1767578 41.4707031,11.7744141 C41.4707031,12.9807943 40.90625,13.5839844 39.7773438,13.5839844 Z M39.387207,20.7392578 C38.7010091,20.7392578 38.1683757,20.6258138 37.7893066,20.3989258 C37.4102376,20.1720378 37.2207031,19.8483073 37.2207031,19.4277344 C37.2207031,18.9794922 37.3853353,18.6239421 37.7145996,18.361084 C38.0438639,18.0982259 38.4879557,17.9667969 39.046875,17.9667969 L39.046875,17.9667969 L40.5244141,17.9667969 C41.2991536,17.9667969 41.8290202,18.0511882 42.1140137,18.2199707 C42.3990072,18.3887533 42.5415039,18.6723633 42.5415039,19.0708008 C42.5415039,19.5743815 42.2814128,19.9783529 41.7612305,20.2827148 C41.2410482,20.5870768 40.449707,20.7392578 39.387207,20.7392578 Z M48.0864258,18 L48.0864258,13.4262695 C48.0864258,12.2807617 48.2773438,11.4645182 48.6591797,10.9775391 C49.0410156,10.4905599 49.6442057,10.2470703 50.46875,10.2470703 C51.0885417,10.2470703 51.5409342,10.4213867 51.8259277,10.7700195 C52.1109212,11.1186523 52.253418,11.6471354 52.253418,12.3554688 L52.253418,12.3554688 L52.253418,18 L54.2124023,18 L54.2124023,12.0151367 C54.2124023,9.77392578 53.1111654,8.65332031 50.9086914,8.65332031 C50.2888997,8.65332031 49.7244466,8.77229818 49.215332,9.01025391 C48.7062174,9.24820964 48.3133138,9.58577474 48.0366211,10.0229492 L48.0366211,10.0229492 L47.9370117,10.0229492 L47.6630859,8.81933594 L46.1357422,8.81933594 L46.1357422,18 L48.0864258,18 Z M59.1513672,18.1660156 C59.8541667,18.1660156 60.4296875,18.0650228 60.8779297,17.8630371 C61.3261719,17.6610514 61.7716471,17.280599 62.2143555,16.7216797 L62.2143555,16.7216797 L62.2807617,16.7216797 L62.6708984,18 L64.0654297,18 L64.0654297,11.815918 C64.0654297,10.7257487 63.767985,9.92610677 63.1730957,9.41699219 C62.5782064,8.9078776 61.6969401,8.65332031 60.5292969,8.65332031 C60.0035807,8.65332031 59.4446615,8.72111003 58.8525391,8.85668945 C58.2604167,8.99226888 57.715332,9.19010417 57.2172852,9.45019531 L57.2172852,9.45019531 L57.8481445,10.8447266 C58.246582,10.6565755 58.6616211,10.4933268 59.0932617,10.3549805 C59.5249023,10.2166341 59.9759115,10.1474609 60.4462891,10.1474609 C61.0218099,10.1474609 61.4465332,10.2927246 61.720459,10.583252 C61.9943848,10.8737793 62.1313477,11.3123372 62.1313477,11.8989258 L62.1313477,11.8989258 L62.1313477,12.3886719 L60.5458984,12.4384766 C59.1070964,12.4827474 58.0362956,12.7456055 57.3334961,13.2270508 C56.6306966,13.7084961 56.2792969,14.4223633 56.2792969,15.3686523 C56.2792969,16.2596029 56.5324707,16.9485677 57.0388184,17.4355469 C57.545166,17.922526 58.249349,18.1660156 59.1513672,18.1660156 Z M59.765625,16.671875 C59.2786458,16.671875 58.9134115,16.5598145 58.6699219,16.3356934 C58.4264323,16.1115723 58.3046875,15.7947591 58.3046875,15.3852539 C58.3046875,14.8208008 58.5135905,14.4016113 58.9313965,14.1276855 C59.3492025,13.8537598 60.0174154,13.7001953 60.9360352,13.6669922 L60.9360352,13.6669922 L62.1147461,13.6171875 L62.1147461,14.4140625 C62.1147461,15.1279297 61.9003092,15.6826986 61.4714355,16.0783691 C61.0425618,16.4740397 60.4739583,16.671875 59.765625,16.671875 Z M69.7431641,18.1660156 C70.1083984,18.1660156 70.4611816,18.134196 70.8015137,18.0705566 C71.1418457,18.0069173 71.4199219,17.9280599 71.6357422,17.8339844 L71.6357422,17.8339844 L71.6357422,16.3647461 C71.1598307,16.5141602 70.6839193,16.5888672 70.2080078,16.5888672 C69.8261719,16.5888672 69.5176595,16.4768066 69.2824707,16.2526855 C69.0472819,16.0285645 68.9296875,15.6813151 68.9296875,15.2109375 L68.9296875,15.2109375 L68.9296875,10.296875 L71.5444336,10.296875 L71.5444336,8.81933594 L68.9296875,8.81933594 L68.9296875,6.77734375 L67.7260742,6.77734375 L67.0620117,8.71972656 L65.7172852,9.43359375 L65.7172852,10.296875 L66.9707031,10.296875 L66.9707031,15.2441406 C66.9707031,17.1920573 67.8948568,18.1660156 69.7431641,18.1660156 Z M77.4794922,18.1660156 C78.1048177,18.1660156 78.6609701,18.1189779 79.1479492,18.0249023 C79.6349284,17.9308268 80.1163737,17.7703451 80.5922852,17.543457 L80.5922852,17.543457 L80.5922852,15.9580078 C80.0555013,16.1959635 79.553304,16.3661296 79.0856934,16.4685059 C78.6180827,16.5708822 78.1131185,16.6220703 77.5708008,16.6220703 C76.7462565,16.6220703 76.1070964,16.3827311 75.6533203,15.9040527 C75.1995443,15.4253743 74.9588216,14.7405599 74.9311523,13.8496094 L74.9311523,13.8496094 L81.0488281,13.8496094 L81.0488281,12.7954102 C81.0488281,11.5060221 80.6974284,10.4933268 79.9946289,9.75732422 C79.2918294,9.02132161 78.3344727,8.65332031 77.1225586,8.65332031 C75.816569,8.65332031 74.7900391,9.08219401 74.0429688,9.93994141 C73.2958984,10.7976888 72.9223633,11.9763997 72.9223633,13.4760742 C72.9223633,14.9370117 73.3249512,16.083903 74.130127,16.916748 C74.9353027,17.7495931 76.0517578,18.1660156 77.4794922,18.1660156 Z M79.1313477,12.4384766 L74.9643555,12.4384766 C75.0362956,11.6858724 75.2590332,11.1131185 75.6325684,10.7202148 C76.0061035,10.3273112 76.5027669,10.1308594 77.1225586,10.1308594 C77.7423503,10.1308594 78.2293294,10.3259277 78.5834961,10.7160645 C78.9376628,11.1062012 79.1202799,11.6803385 79.1313477,12.4384766 L79.1313477,12.4384766 Z" id="path-2"></path>
    </defs>
    <g id="Symbols" stroke="none" stroke-width="1" fill="none" fill-rule="evenodd">
        <g id="i/Designate">
            <g id="Designate">
                <path d="M6,0 L157,0 C160.313708,-6.08718376e-16 163,2.6862915 163,6 L163,91 C163,94.3137085 160.313708,97 157,97 L6,97 C2.6862915,97 4.05812251e-16,94.3137085 0,91 L0,6 C-4.05812251e-16,2.6862915 2.6862915,6.08718376e-16 6,0 Z" id="Rectangle-2" fill="url(#radialGradient-1)" fill-rule="nonzero"></path>
                <polyline id="Line-2" stroke="#FFFFFF" stroke-width="4" stroke-linecap="square" points="2 30 20.4627861 30 161 30"></polyline>
                <line x1="81" y1="45" x2="81" y2="85.0042519" id="Line-3" stroke="#FFFFFF" stroke-width="2" stroke-linecap="square"></line>
                <g id="Adverbs" transform="translate(42.000000, 2.000000)" fill="#FFFFFF" fill-rule="nonzero">
                    <g id="Designate">
                        <use xlink:href="#path-2"></use>
                        <use xlink:href="#path-2"></use>
                    </g>
                </g>
                <path d="M97.7636719,51.1171875 C98.3144531,51.1171875 98.8271484,51.0820312 99.3017578,51.0117188 C99.7763672,50.9414062 100.271484,50.8222656 100.787109,50.6542969 L100.787109,50.6542969 L100.787109,46.3535156 L97.6347656,46.3535156 L97.6347656,47.5546875 L99.4101562,47.5546875 L99.4101562,49.7636719 C98.8945312,49.8769531 98.4101562,49.9335938 97.9570312,49.9335938 C97.0585938,49.9335938 96.3701172,49.6611328 95.8916016,49.1162109 C95.4130859,48.5712891 95.1738281,47.7753906 95.1738281,46.7285156 C95.1738281,45.7324219 95.4394531,44.9472656 95.9707031,44.3730469 C96.5019531,43.7988281 97.2246094,43.5117188 98.1386719,43.5117188 C98.8339844,43.5117188 99.5292969,43.671875 100.224609,43.9921875 L100.224609,43.9921875 L100.716797,42.8261719 C99.9160156,42.4824219 99.0683594,42.3105469 98.1738281,42.3105469 C96.7832031,42.3105469 95.6914062,42.7001953 94.8984375,43.4794922 C94.1054688,44.2587891 93.7089844,45.3378906 93.7089844,46.7167969 C93.7089844,48.1152344 94.0605469,49.1982422 94.7636719,49.9658203 C95.4667969,50.7333984 96.4667969,51.1171875 97.7636719,51.1171875 Z M103.394531,43.5585938 C103.636719,43.5585938 103.825195,43.4912109 103.959961,43.3564453 C104.094727,43.2216797 104.162109,43.0371094 104.162109,42.8027344 C104.162109,42.5566406 104.094727,42.3671875 103.959961,42.234375 C103.825195,42.1015625 103.636719,42.0351562 103.394531,42.0351562 C103.144531,42.0351562 102.952148,42.1015625 102.817383,42.234375 C102.682617,42.3671875 102.615234,42.5566406 102.615234,42.8027344 C102.615234,43.0371094 102.682617,43.2216797 102.817383,43.3564453 C102.952148,43.4912109 103.144531,43.5585938 103.394531,43.5585938 Z M104.074219,51 L104.074219,44.5195312 L102.697266,44.5195312 L102.697266,51 L104.074219,51 Z M109.007812,51 L111.480469,44.5195312 L110.015625,44.5195312 L108.697266,48.2871094 C108.458984,49.0292969 108.322266,49.5410156 108.287109,49.8222656 L108.287109,49.8222656 L108.240234,49.8222656 C108.193359,49.4316406 108.056641,48.9199219 107.830078,48.2871094 L107.830078,48.2871094 L106.511719,44.5195312 L105.058594,44.5195312 L107.519531,51 L109.007812,51 Z M115.294922,51.1171875 C115.736328,51.1171875 116.128906,51.0839844 116.472656,51.0175781 C116.816406,50.9511719 117.15625,50.8378906 117.492188,50.6777344 L117.492188,50.6777344 L117.492188,49.5585938 C117.113281,49.7265625 116.758789,49.8466797 116.428711,49.9189453 C116.098633,49.9912109 115.742188,50.0273438 115.359375,50.0273438 C114.777344,50.0273438 114.326172,49.8583984 114.005859,49.5205078 C113.685547,49.1826172 113.515625,48.6992188 113.496094,48.0703125 L113.496094,48.0703125 L117.814453,48.0703125 L117.814453,47.3261719 C117.814453,46.4160156 117.566406,45.7011719 117.070312,45.1816406 C116.574219,44.6621094 115.898438,44.4023438 115.042969,44.4023438 C114.121094,44.4023438 113.396484,44.7050781 112.869141,45.3105469 C112.341797,45.9160156 112.078125,46.7480469 112.078125,47.8066406 C112.078125,48.8378906 112.362305,49.6474609 112.930664,50.2353516 C113.499023,50.8232422 114.287109,51.1171875 115.294922,51.1171875 Z M116.460938,47.0742188 L113.519531,47.0742188 C113.570312,46.5429688 113.727539,46.1386719 113.991211,45.8613281 C114.254883,45.5839844 114.605469,45.4453125 115.042969,45.4453125 C115.480469,45.4453125 115.824219,45.5830078 116.074219,45.8583984 C116.324219,46.1337891 116.453125,46.5390625 116.460938,47.0742188 L116.460938,47.0742188 Z M124.066406,51.1171875 C124.5625,51.1171875 124.96875,51.0458984 125.285156,50.9033203 C125.601562,50.7607422 125.916016,50.4921875 126.228516,50.0976562 L126.228516,50.0976562 L126.275391,50.0976562 L126.550781,51 L127.535156,51 L127.535156,46.6347656 C127.535156,45.8652344 127.325195,45.3007812 126.905273,44.9414062 C126.485352,44.5820312 125.863281,44.4023438 125.039062,44.4023438 C124.667969,44.4023438 124.273438,44.4501953 123.855469,44.5458984 C123.4375,44.6416016 123.052734,44.78125 122.701172,44.9648438 L122.701172,44.9648438 L123.146484,45.9492188 C123.427734,45.8164062 123.720703,45.7011719 124.025391,45.6035156 C124.330078,45.5058594 124.648438,45.4570312 124.980469,45.4570312 C125.386719,45.4570312 125.686523,45.5595703 125.879883,45.7646484 C126.073242,45.9697266 126.169922,46.2792969 126.169922,46.6933594 L126.169922,46.6933594 L126.169922,47.0390625 L125.050781,47.0742188 C124.035156,47.1054688 123.279297,47.2910156 122.783203,47.6308594 C122.287109,47.9707031 122.039062,48.4746094 122.039062,49.1425781 C122.039062,49.7714844 122.217773,50.2578125 122.575195,50.6015625 C122.932617,50.9453125 123.429688,51.1171875 124.066406,51.1171875 Z M124.5,50.0625 C124.15625,50.0625 123.898438,49.9833984 123.726562,49.8251953 C123.554688,49.6669922 123.46875,49.4433594 123.46875,49.1542969 C123.46875,48.7558594 123.616211,48.4599609 123.911133,48.2666016 C124.206055,48.0732422 124.677734,47.9648438 125.326172,47.9414062 L125.326172,47.9414062 L126.158203,47.90625 L126.158203,48.46875 C126.158203,48.9726562 126.006836,49.3642578 125.704102,49.6435547 C125.401367,49.9228516 125,50.0625 124.5,50.0625 Z M95.6660156,63.1171875 C96.5253906,63.1171875 97.1855469,62.9482422 97.6464844,62.6103516 C98.1074219,62.2724609 98.3378906,61.7871094 98.3378906,61.1542969 C98.3378906,60.8417969 98.2792969,60.5732422 98.1621094,60.3486328 C98.0449219,60.1240234 97.8652344,59.9257812 97.6230469,59.7539062 C97.3808594,59.5820312 96.9921875,59.3925781 96.4570312,59.1855469 C95.8203125,58.9394531 95.4072266,58.7460938 95.2177734,58.6054688 C95.0283203,58.4648438 94.9335938,58.2929688 94.9335938,58.0898438 C94.9335938,57.6757812 95.296875,57.46875 96.0234375,57.46875 C96.5,57.46875 97.0878906,57.6132812 97.7871094,57.9023438 L97.7871094,57.9023438 L98.2324219,56.8652344 C97.5527344,56.5566406 96.8320312,56.4023438 96.0703125,56.4023438 C95.3007812,56.4023438 94.6923828,56.5556641 94.2451172,56.8623047 C93.7978516,57.1689453 93.5742188,57.5996094 93.5742188,58.1542969 C93.5742188,58.6152344 93.7060547,58.9902344 93.9697266,59.2792969 C94.2333984,59.5683594 94.7382812,59.8574219 95.484375,60.1464844 C95.8671875,60.2949219 96.1660156,60.4277344 96.3808594,60.5449219 C96.5957031,60.6621094 96.75,60.7753906 96.84375,60.8847656 C96.9375,60.9941406 96.984375,61.1308594 96.984375,61.2949219 C96.984375,61.8066406 96.5605469,62.0625 95.7128906,62.0625 C95.0566406,62.0625 94.3476562,61.8867188 93.5859375,61.5351562 L93.5859375,61.5351562 L93.5859375,62.7246094 C94.109375,62.9863281 94.8027344,63.1171875 95.6660156,63.1171875 Z M102.65625,63.1171875 C103.097656,63.1171875 103.490234,63.0839844 103.833984,63.0175781 C104.177734,62.9511719 104.517578,62.8378906 104.853516,62.6777344 L104.853516,62.6777344 L104.853516,61.5585938 C104.474609,61.7265625 104.120117,61.8466797 103.790039,61.9189453 C103.459961,61.9912109 103.103516,62.0273438 102.720703,62.0273438 C102.138672,62.0273438 101.6875,61.8583984 101.367188,61.5205078 C101.046875,61.1826172 100.876953,60.6992188 100.857422,60.0703125 L100.857422,60.0703125 L105.175781,60.0703125 L105.175781,59.3261719 C105.175781,58.4160156 104.927734,57.7011719 104.431641,57.1816406 C103.935547,56.6621094 103.259766,56.4023438 102.404297,56.4023438 C101.482422,56.4023438 100.757812,56.7050781 100.230469,57.3105469 C99.703125,57.9160156 99.4394531,58.7480469 99.4394531,59.8066406 C99.4394531,60.8378906 99.7236328,61.6474609 100.291992,62.2353516 C100.860352,62.8232422 101.648438,63.1171875 102.65625,63.1171875 Z M103.822266,59.0742188 L100.880859,59.0742188 C100.931641,58.5429688 101.088867,58.1386719 101.352539,57.8613281 C101.616211,57.5839844 101.966797,57.4453125 102.404297,57.4453125 C102.841797,57.4453125 103.185547,57.5830078 103.435547,57.8583984 C103.685547,58.1337891 103.814453,58.5390625 103.822266,59.0742188 L103.822266,59.0742188 Z M109.353516,63.1171875 C109.751953,63.1171875 110.09082,63.0859375 110.370117,63.0234375 C110.649414,62.9609375 110.912109,62.8574219 111.158203,62.7128906 L111.158203,62.7128906 L111.158203,61.5117188 C110.611328,61.8164062 110.03125,61.96875 109.417969,61.96875 C108.878906,61.96875 108.469727,61.7861328 108.19043,61.4208984 C107.911133,61.0556641 107.771484,60.5097656 107.771484,59.7832031 C107.771484,58.2949219 108.332031,57.5507812 109.453125,57.5507812 C109.832031,57.5507812 110.3125,57.6640625 110.894531,57.890625 L110.894531,57.890625 L111.310547,56.7832031 C110.763672,56.5292969 110.148438,56.4023438 109.464844,56.4023438 C108.457031,56.4023438 107.686523,56.6953125 107.15332,57.28125 C106.620117,57.8671875 106.353516,58.7050781 106.353516,59.7949219 C106.353516,60.8652344 106.608398,61.6865234 107.118164,62.2587891 C107.62793,62.8310547 108.373047,63.1171875 109.353516,63.1171875 Z M114.767578,63.1171875 C115.025391,63.1171875 115.274414,63.0947266 115.514648,63.0498047 C115.754883,63.0048828 115.951172,62.9492188 116.103516,62.8828125 L116.103516,62.8828125 L116.103516,61.8457031 C115.767578,61.9511719 115.431641,62.0039062 115.095703,62.0039062 C114.826172,62.0039062 114.608398,61.9248047 114.442383,61.7666016 C114.276367,61.6083984 114.193359,61.3632812 114.193359,61.03125 L114.193359,61.03125 L114.193359,57.5625 L116.039062,57.5625 L116.039062,56.5195312 L114.193359,56.5195312 L114.193359,55.078125 L113.34375,55.078125 L112.875,56.4492188 L111.925781,56.953125 L111.925781,57.5625 L112.810547,57.5625 L112.810547,61.0546875 C112.810547,62.4296875 113.462891,63.1171875 114.767578,63.1171875 Z M118.095703,55.5585938 C118.337891,55.5585938 118.526367,55.4912109 118.661133,55.3564453 C118.795898,55.2216797 118.863281,55.0371094 118.863281,54.8027344 C118.863281,54.5566406 118.795898,54.3671875 118.661133,54.234375 C118.526367,54.1015625 118.337891,54.0351562 118.095703,54.0351562 C117.845703,54.0351562 117.65332,54.1015625 117.518555,54.234375 C117.383789,54.3671875 117.316406,54.5566406 117.316406,54.8027344 C117.316406,55.0371094 117.383789,55.2216797 117.518555,55.3564453 C117.65332,55.4912109 117.845703,55.5585938 118.095703,55.5585938 Z M118.775391,63 L118.775391,56.5195312 L117.398438,56.5195312 L117.398438,63 L118.775391,63 Z M123.410156,63.1171875 C124.378906,63.1171875 125.134766,62.8203125 125.677734,62.2265625 C126.220703,61.6328125 126.492188,60.8066406 126.492188,59.7480469 C126.492188,58.7246094 126.21875,57.9111328 125.671875,57.3076172 C125.125,56.7041016 124.382812,56.4023438 123.445312,56.4023438 C122.464844,56.4023438 121.705078,56.6972656 121.166016,57.2871094 C120.626953,57.8769531 120.357422,58.6972656 120.357422,59.7480469 C120.357422,60.4238281 120.482422,61.0175781 120.732422,61.5292969 C120.982422,62.0410156 121.339844,62.4335938 121.804688,62.7070312 C122.269531,62.9804688 122.804688,63.1171875 123.410156,63.1171875 Z M123.433594,61.9921875 C122.328125,61.9921875 121.775391,61.2441406 121.775391,59.7480469 C121.775391,59.0332031 121.905273,58.484375 122.165039,58.1015625 C122.424805,57.71875 122.84375,57.5273438 123.421875,57.5273438 C124.523438,57.5273438 125.074219,58.2675781 125.074219,59.7480469 C125.074219,61.2441406 124.527344,61.9921875 123.433594,61.9921875 Z M129.451172,63 L129.451172,59.7714844 C129.451172,58.9628906 129.585938,58.3867188 129.855469,58.0429688 C130.125,57.6992188 130.550781,57.5273438 131.132812,57.5273438 C131.570312,57.5273438 131.889648,57.6503906 132.09082,57.8964844 C132.291992,58.1425781 132.392578,58.515625 132.392578,59.015625 L132.392578,59.015625 L132.392578,63 L133.775391,63 L133.775391,58.7753906 C133.775391,57.1933594 132.998047,56.4023438 131.443359,56.4023438 C131.005859,56.4023438 130.607422,56.4863281 130.248047,56.6542969 C129.888672,56.8222656 129.611328,57.0605469 129.416016,57.3691406 L129.416016,57.3691406 L129.345703,57.3691406 L129.152344,56.5195312 L128.074219,56.5195312 L128.074219,63 L129.451172,63 Z M140.378906,63.1171875 C140.875,63.1171875 141.28125,63.0458984 141.597656,62.9033203 C141.914062,62.7607422 142.228516,62.4921875 142.541016,62.0976562 L142.541016,62.0976562 L142.587891,62.0976562 L142.863281,63 L143.847656,63 L143.847656,58.6347656 C143.847656,57.8652344 143.637695,57.3007812 143.217773,56.9414062 C142.797852,56.5820312 142.175781,56.4023438 141.351562,56.4023438 C140.980469,56.4023438 140.585938,56.4501953 140.167969,56.5458984 C139.75,56.6416016 139.365234,56.78125 139.013672,56.9648438 L139.013672,56.9648438 L139.458984,57.9492188 C139.740234,57.8164062 140.033203,57.7011719 140.337891,57.6035156 C140.642578,57.5058594 140.960938,57.4570312 141.292969,57.4570312 C141.699219,57.4570312 141.999023,57.5595703 142.192383,57.7646484 C142.385742,57.9697266 142.482422,58.2792969 142.482422,58.6933594 L142.482422,58.6933594 L142.482422,59.0390625 L141.363281,59.0742188 C140.347656,59.1054688 139.591797,59.2910156 139.095703,59.6308594 C138.599609,59.9707031 138.351562,60.4746094 138.351562,61.1425781 C138.351562,61.7714844 138.530273,62.2578125 138.887695,62.6015625 C139.245117,62.9453125 139.742188,63.1171875 140.378906,63.1171875 Z M140.8125,62.0625 C140.46875,62.0625 140.210938,61.9833984 140.039062,61.8251953 C139.867188,61.6669922 139.78125,61.4433594 139.78125,61.1542969 C139.78125,60.7558594 139.928711,60.4599609 140.223633,60.2666016 C140.518555,60.0732422 140.990234,59.9648438 141.638672,59.9414062 L141.638672,59.9414062 L142.470703,59.90625 L142.470703,60.46875 C142.470703,60.9726562 142.319336,61.3642578 142.016602,61.6435547 C141.713867,61.9228516 141.3125,62.0625 140.8125,62.0625 Z M95.3613281,75 L95.3613281,71.7714844 C95.3613281,70.9628906 95.4960938,70.3867188 95.765625,70.0429688 C96.0351562,69.6992188 96.4609375,69.5273438 97.0429688,69.5273438 C97.4804688,69.5273438 97.7998047,69.6503906 98.0009766,69.8964844 C98.2021484,70.1425781 98.3027344,70.515625 98.3027344,71.015625 L98.3027344,71.015625 L98.3027344,75 L99.6855469,75 L99.6855469,70.7753906 C99.6855469,69.1933594 98.9082031,68.4023438 97.3535156,68.4023438 C96.9160156,68.4023438 96.5175781,68.4863281 96.1582031,68.6542969 C95.7988281,68.8222656 95.5214844,69.0605469 95.3261719,69.3691406 L95.3261719,69.3691406 L95.2558594,69.3691406 L95.0625,68.5195312 L93.984375,68.5195312 L93.984375,75 L95.3613281,75 Z M103.171875,75.1171875 C103.667969,75.1171875 104.074219,75.0458984 104.390625,74.9033203 C104.707031,74.7607422 105.021484,74.4921875 105.333984,74.0976562 L105.333984,74.0976562 L105.380859,74.0976562 L105.65625,75 L106.640625,75 L106.640625,70.6347656 C106.640625,69.8652344 106.430664,69.3007812 106.010742,68.9414062 C105.59082,68.5820312 104.96875,68.4023438 104.144531,68.4023438 C103.773438,68.4023438 103.378906,68.4501953 102.960938,68.5458984 C102.542969,68.6416016 102.158203,68.78125 101.806641,68.9648438 L101.806641,68.9648438 L102.251953,69.9492188 C102.533203,69.8164062 102.826172,69.7011719 103.130859,69.6035156 C103.435547,69.5058594 103.753906,69.4570312 104.085938,69.4570312 C104.492188,69.4570312 104.791992,69.5595703 104.985352,69.7646484 C105.178711,69.9697266 105.275391,70.2792969 105.275391,70.6933594 L105.275391,70.6933594 L105.275391,71.0390625 L104.15625,71.0742188 C103.140625,71.1054688 102.384766,71.2910156 101.888672,71.6308594 C101.392578,71.9707031 101.144531,72.4746094 101.144531,73.1425781 C101.144531,73.7714844 101.323242,74.2578125 101.680664,74.6015625 C102.038086,74.9453125 102.535156,75.1171875 103.171875,75.1171875 Z M103.605469,74.0625 C103.261719,74.0625 103.003906,73.9833984 102.832031,73.8251953 C102.660156,73.6669922 102.574219,73.4433594 102.574219,73.1542969 C102.574219,72.7558594 102.72168,72.4599609 103.016602,72.2666016 C103.311523,72.0732422 103.783203,71.9648438 104.431641,71.9414062 L104.431641,71.9414062 L105.263672,71.90625 L105.263672,72.46875 C105.263672,72.9726562 105.112305,73.3642578 104.80957,73.6435547 C104.506836,73.9228516 104.105469,74.0625 103.605469,74.0625 Z M109.939453,75 L109.939453,71.7714844 C109.939453,70.9667969 110.063477,70.3916016 110.311523,70.0458984 C110.55957,69.7001953 110.949219,69.5273438 111.480469,69.5273438 C111.878906,69.5273438 112.171875,69.6494141 112.359375,69.8935547 C112.546875,70.1376953 112.640625,70.5078125 112.640625,71.0039062 L112.640625,71.0039062 L112.640625,75 L114.023438,75 L114.023438,71.5664062 C114.023438,70.875 114.147461,70.3623047 114.395508,70.0283203 C114.643555,69.6943359 115.035156,69.5273438 115.570312,69.5273438 C115.96875,69.5273438 116.262695,69.6494141 116.452148,69.8935547 C116.641602,70.1376953 116.736328,70.5078125 116.736328,71.0039062 L116.736328,71.0039062 L116.736328,75 L118.113281,75 L118.113281,70.7753906 C118.113281,69.9746094 117.936523,69.3789062 117.583008,68.9882812 C117.229492,68.5976562 116.666016,68.4023438 115.892578,68.4023438 C115.443359,68.4023438 115.044922,68.4921875 114.697266,68.671875 C114.349609,68.8515625 114.080078,69.1015625 113.888672,69.421875 L113.888672,69.421875 L113.794922,69.421875 C113.470703,68.7421875 112.810547,68.4023438 111.814453,68.4023438 C111.404297,68.4023438 111.02832,68.4863281 110.686523,68.6542969 C110.344727,68.8222656 110.083984,69.0605469 109.904297,69.3691406 L109.904297,69.3691406 L109.833984,69.3691406 L109.640625,68.5195312 L108.5625,68.5195312 L108.5625,75 L109.939453,75 Z M122.865234,75.1171875 C123.306641,75.1171875 123.699219,75.0839844 124.042969,75.0175781 C124.386719,74.9511719 124.726562,74.8378906 125.0625,74.6777344 L125.0625,74.6777344 L125.0625,73.5585938 C124.683594,73.7265625 124.329102,73.8466797 123.999023,73.9189453 C123.668945,73.9912109 123.3125,74.0273438 122.929688,74.0273438 C122.347656,74.0273438 121.896484,73.8583984 121.576172,73.5205078 C121.255859,73.1826172 121.085938,72.6992188 121.066406,72.0703125 L121.066406,72.0703125 L125.384766,72.0703125 L125.384766,71.3261719 C125.384766,70.4160156 125.136719,69.7011719 124.640625,69.1816406 C124.144531,68.6621094 123.46875,68.4023438 122.613281,68.4023438 C121.691406,68.4023438 120.966797,68.7050781 120.439453,69.3105469 C119.912109,69.9160156 119.648438,70.7480469 119.648438,71.8066406 C119.648438,72.8378906 119.932617,73.6474609 120.500977,74.2353516 C121.069336,74.8232422 121.857422,75.1171875 122.865234,75.1171875 Z M124.03125,71.0742188 L121.089844,71.0742188 C121.140625,70.5429688 121.297852,70.1386719 121.561523,69.8613281 C121.825195,69.5839844 122.175781,69.4453125 122.613281,69.4453125 C123.050781,69.4453125 123.394531,69.5830078 123.644531,69.8583984 C123.894531,70.1337891 124.023438,70.5390625 124.03125,71.0742188 L124.03125,71.0742188 Z M132.732422,75.1171875 C133.701172,75.1171875 134.457031,74.8203125 135,74.2265625 C135.542969,73.6328125 135.814453,72.8066406 135.814453,71.7480469 C135.814453,70.7246094 135.541016,69.9111328 134.994141,69.3076172 C134.447266,68.7041016 133.705078,68.4023438 132.767578,68.4023438 C131.787109,68.4023438 131.027344,68.6972656 130.488281,69.2871094 C129.949219,69.8769531 129.679688,70.6972656 129.679688,71.7480469 C129.679688,72.4238281 129.804688,73.0175781 130.054688,73.5292969 C130.304688,74.0410156 130.662109,74.4335938 131.126953,74.7070312 C131.591797,74.9804688 132.126953,75.1171875 132.732422,75.1171875 Z M132.755859,73.9921875 C131.650391,73.9921875 131.097656,73.2441406 131.097656,71.7480469 C131.097656,71.0332031 131.227539,70.484375 131.487305,70.1015625 C131.74707,69.71875 132.166016,69.5273438 132.744141,69.5273438 C133.845703,69.5273438 134.396484,70.2675781 134.396484,71.7480469 C134.396484,73.2441406 133.849609,73.9921875 132.755859,73.9921875 Z M138.773438,75 L138.773438,71.6132812 C138.773438,71.0390625 138.944336,70.5722656 139.286133,70.2128906 C139.62793,69.8535156 140.074219,69.6738281 140.625,69.6738281 C140.835938,69.6738281 141.039062,69.6972656 141.234375,69.7441406 L141.234375,69.7441406 L141.369141,68.4609375 C141.189453,68.421875 140.960938,68.4023438 140.683594,68.4023438 C140.285156,68.4023438 139.913086,68.515625 139.567383,68.7421875 C139.22168,68.96875 138.941406,69.2753906 138.726562,69.6621094 L138.726562,69.6621094 L138.65625,69.6621094 L138.474609,68.5195312 L137.396484,68.5195312 L137.396484,75 L138.773438,75 Z M96.0703125,87.1171875 C96.328125,87.1171875 96.5771484,87.0947266 96.8173828,87.0498047 C97.0576172,87.0048828 97.2539062,86.9492188 97.40625,86.8828125 L97.40625,86.8828125 L97.40625,85.8457031 C97.0703125,85.9511719 96.734375,86.0039062 96.3984375,86.0039062 C96.1289062,86.0039062 95.9111328,85.9248047 95.7451172,85.7666016 C95.5791016,85.6083984 95.4960938,85.3632812 95.4960938,85.03125 L95.4960938,85.03125 L95.4960938,81.5625 L97.3417969,81.5625 L97.3417969,80.5195312 L95.4960938,80.5195312 L95.4960938,79.078125 L94.6464844,79.078125 L94.1777344,80.4492188 L93.2285156,80.953125 L93.2285156,81.5625 L94.1132812,81.5625 L94.1132812,85.0546875 C94.1132812,86.4296875 94.765625,87.1171875 96.0703125,87.1171875 Z M101.53125,87.1171875 C101.972656,87.1171875 102.365234,87.0839844 102.708984,87.0175781 C103.052734,86.9511719 103.392578,86.8378906 103.728516,86.6777344 L103.728516,86.6777344 L103.728516,85.5585938 C103.349609,85.7265625 102.995117,85.8466797 102.665039,85.9189453 C102.334961,85.9912109 101.978516,86.0273438 101.595703,86.0273438 C101.013672,86.0273438 100.5625,85.8583984 100.242188,85.5205078 C99.921875,85.1826172 99.7519531,84.6992188 99.7324219,84.0703125 L99.7324219,84.0703125 L104.050781,84.0703125 L104.050781,83.3261719 C104.050781,82.4160156 103.802734,81.7011719 103.306641,81.1816406 C102.810547,80.6621094 102.134766,80.4023438 101.279297,80.4023438 C100.357422,80.4023438 99.6328125,80.7050781 99.1054688,81.3105469 C98.578125,81.9160156 98.3144531,82.7480469 98.3144531,83.8066406 C98.3144531,84.8378906 98.5986328,85.6474609 99.1669922,86.2353516 C99.7353516,86.8232422 100.523438,87.1171875 101.53125,87.1171875 Z M102.697266,83.0742188 L99.7558594,83.0742188 C99.8066406,82.5429688 99.9638672,82.1386719 100.227539,81.8613281 C100.491211,81.5839844 100.841797,81.4453125 101.279297,81.4453125 C101.716797,81.4453125 102.060547,81.5830078 102.310547,81.8583984 C102.560547,82.1337891 102.689453,82.5390625 102.697266,83.0742188 L102.697266,83.0742188 Z M106.992188,87 L106.992188,83.6132812 C106.992188,83.0390625 107.163086,82.5722656 107.504883,82.2128906 C107.84668,81.8535156 108.292969,81.6738281 108.84375,81.6738281 C109.054688,81.6738281 109.257812,81.6972656 109.453125,81.7441406 L109.453125,81.7441406 L109.587891,80.4609375 C109.408203,80.421875 109.179688,80.4023438 108.902344,80.4023438 C108.503906,80.4023438 108.131836,80.515625 107.786133,80.7421875 C107.44043,80.96875 107.160156,81.2753906 106.945312,81.6621094 L106.945312,81.6621094 L106.875,81.6621094 L106.693359,80.5195312 L105.615234,80.5195312 L105.615234,87 L106.992188,87 Z M112.166016,87 L112.166016,83.7714844 C112.166016,82.9667969 112.290039,82.3916016 112.538086,82.0458984 C112.786133,81.7001953 113.175781,81.5273438 113.707031,81.5273438 C114.105469,81.5273438 114.398438,81.6494141 114.585938,81.8935547 C114.773438,82.1376953 114.867188,82.5078125 114.867188,83.0039062 L114.867188,83.0039062 L114.867188,87 L116.25,87 L116.25,83.5664062 C116.25,82.875 116.374023,82.3623047 116.62207,82.0283203 C116.870117,81.6943359 117.261719,81.5273438 117.796875,81.5273438 C118.195312,81.5273438 118.489258,81.6494141 118.678711,81.8935547 C118.868164,82.1376953 118.962891,82.5078125 118.962891,83.0039062 L118.962891,83.0039062 L118.962891,87 L120.339844,87 L120.339844,82.7753906 C120.339844,81.9746094 120.163086,81.3789062 119.80957,80.9882812 C119.456055,80.5976562 118.892578,80.4023438 118.119141,80.4023438 C117.669922,80.4023438 117.271484,80.4921875 116.923828,80.671875 C116.576172,80.8515625 116.306641,81.1015625 116.115234,81.421875 L116.115234,81.421875 L116.021484,81.421875 C115.697266,80.7421875 115.037109,80.4023438 114.041016,80.4023438 C113.630859,80.4023438 113.254883,80.4863281 112.913086,80.6542969 C112.571289,80.8222656 112.310547,81.0605469 112.130859,81.3691406 L112.130859,81.3691406 L112.060547,81.3691406 L111.867188,80.5195312 L110.789062,80.5195312 L110.789062,87 L112.166016,87 Z M122.923828,87.1699219 C123.205078,87.1699219 123.420898,87.0888672 123.571289,86.9267578 C123.72168,86.7646484 123.796875,86.5449219 123.796875,86.2675781 C123.796875,85.9941406 123.722656,85.7783203 123.574219,85.6201172 C123.425781,85.4619141 123.208984,85.3828125 122.923828,85.3828125 C122.642578,85.3828125 122.427734,85.4589844 122.279297,85.6113281 C122.130859,85.7636719 122.056641,85.9824219 122.056641,86.2675781 C122.056641,86.5488281 122.130859,86.7695312 122.279297,86.9296875 C122.427734,87.0898438 122.642578,87.1699219 122.923828,87.1699219 Z" id="Giveasectionanameorterm." fill="#FFFFFF" fill-rule="nonzero"></path>
                <g id="Group-9" transform="translate(20.000000, 40.000000)" fill-rule="nonzero">
                    <g id="noun_107318_EC5D57" transform="translate(0.000000, 20.000000)">
                        <g id="Group">
                            <path d="M5.56545653,10.6615115 C5.65630435,10.6615115 5.7435,10.6275266 5.80741304,10.5668699 L8.09960869,8.40689214 L7.61523912,7.94960154 L5.90784782,9.55850745 L5.90784782,6.26068042 C5.90784782,5.03808396 6.96378261,4.04348755 8.26076088,4.04348755 L18.3042391,4.04348755 C19.2524347,4.04348755 20.0997391,3.72987994 20.6571522,3.23946475 L20.6571522,9.56022816 L18.9502174,7.95132231 L18.4663044,8.40732232 L20.7580435,10.5673001 C20.8224131,10.6283869 20.9091522,10.6623718 21,10.6623718 C21.0908478,10.6623718 21.1780435,10.6283869 21.2415,10.5673001 L23.5336956,8.40732232 L23.0493261,7.95046189 L21.3423913,9.55936781 L21.3423913,3.23989494 C21.8998044,3.72987994 22.7475653,4.04391774 23.6953044,4.04391774 L33.7387826,4.04391774 C35.0362174,4.04391774 36.0916956,5.03851415 36.0916956,6.2611106 L36.0916956,9.56022816 L34.3843044,7.95132231 L33.8990218,8.40775249 L36.1912174,10.5673001 C36.2560435,10.6288171 36.3427826,10.662802 36.4336304,10.662802 C36.5235653,10.662802 36.6116739,10.6288171 36.6746739,10.5673001 L38.9668696,8.40775249 L38.4820435,7.95132231 L36.7760218,9.56022816 L36.7760218,6.26154079 C36.7760218,4.68317823 35.4133044,3.39906479 33.7383261,3.39906479 L23.6948478,3.39906479 C22.4188696,3.39906479 21.3419347,2.69570616 21.3419347,1.86329091 L21.3419347,0.00487547261 L20.6571522,0.00487547261 L20.6571522,1.86329091 C20.6571522,2.69613635 19.5797609,3.39906479 18.3042391,3.39906479 L8.26076088,3.39906479 C6.58578261,3.39906479 5.22306522,4.68317823 5.22306522,6.26154079 L5.22306522,9.56022816 L3.51613044,7.95132231 L3.03176087,8.40775249 L5.3235,10.5673001 C5.38741304,10.6275266 5.47460869,10.6615115 5.56545653,10.6615115 Z" id="Shape" stroke="#FFFFFF" fill="#ECF0F1"></path>
                            <path d="M41.6370653,17.6374523 C41.6352391,17.6090599 41.6288478,17.5815278 41.6192609,17.554426 C41.6156087,17.5445316 41.6128696,17.5337769 41.6078478,17.5243127 C41.5918696,17.4903277 41.5704131,17.4576334 41.5411956,17.429241 L37.1599565,13.3011497 C37.1311956,13.2736176 37.0955869,13.2542591 37.0599782,13.2383421 C37.0499347,13.2331799 37.0380653,13.2305987 37.0271087,13.2275874 C36.9983478,13.2185534 36.9691304,13.212961 36.9394565,13.2112402 C36.9316956,13.21081 36.9257609,13.2073685 36.9184565,13.2073685 L31.5693913,13.2073685 C31.3803913,13.2073685 31.227,13.3519119 31.227,13.5300101 L31.227,25.9547219 C31.227,26.13282 31.3803913,26.2773634 31.5693913,26.2773634 L41.2992391,26.2773634 C41.4882391,26.2773634 41.6416304,26.13282 41.6416304,25.9547219 L41.6416304,17.657241 C41.6411739,17.6499278 41.6375218,17.6443354 41.6370653,17.6374523 Z M40.4724782,17.3345995 L37.2608478,17.3345995 L37.2608478,14.3082216 L40.4724782,17.3345995 Z M31.9117826,25.6320802 L31.9117826,13.8522215 L36.5760653,13.8522215 L36.5760653,17.6576713 C36.5760653,17.8357694 36.7294565,17.9803128 36.9184565,17.9803128 L40.9568478,17.9803128 L40.9568478,25.6320802 L31.9117826,25.6320802 Z" id="Shape" stroke="#BDC3C7" fill="#BDC3C7"></path>
                            <path d="M26.1847174,17.554426 C26.1810653,17.5445316 26.1778696,17.5337769 26.1737609,17.5243127 C26.1573261,17.4903277 26.1358696,17.4576334 26.1066522,17.429241 L21.7258696,13.3011497 C21.6966522,13.2736176 21.6619565,13.2542591 21.6258913,13.2383421 C21.6153913,13.2331799 21.6044347,13.2305987 21.5934782,13.2280175 C21.5647174,13.2189836 21.5355,13.2133912 21.5049131,13.2112402 C21.4976087,13.21081 21.4921304,13.2073685 21.4843696,13.2073685 L16.1348478,13.2073685 C15.9458478,13.2073685 15.7924565,13.3519119 15.7924565,13.5300101 L15.7924565,25.9547219 C15.7924565,26.13282 15.9458478,26.2773634 16.1348478,26.2773634 L25.8646956,26.2773634 C26.0536956,26.2773634 26.2070869,26.13282 26.2070869,25.9547219 L26.2070869,17.657241 C26.2070869,17.6499278 26.2034347,17.6443354 26.2025218,17.6370222 C26.2011522,17.6090599 26.1947609,17.5810976 26.1847174,17.554426 Z M25.0383913,17.3345995 L21.8267609,17.3345995 L21.8267609,14.3082216 L25.0383913,17.3345995 Z M16.4772391,25.6320802 L16.4772391,13.8522215 L21.1415218,13.8522215 L21.1415218,17.6576713 C21.1415218,17.8357694 21.2949131,17.9803128 21.4839131,17.9803128 L25.5223044,17.9803128 L25.5223044,25.6320802 L16.4772391,25.6320802 Z" id="Shape" stroke="#9B9B9B" fill="#9B9B9B"></path>
                            <path d="M10.7506304,17.554426 C10.7469782,17.5445316 10.7442391,17.5337769 10.7392174,17.5243127 C10.7227826,17.4903277 10.7013261,17.4576334 10.6721087,17.429241 L6.29132609,13.3011497 C6.26210869,13.2736176 6.22741304,13.2542591 6.19089131,13.2383421 C6.18039131,13.2340402 6.16989131,13.2305987 6.15893478,13.2280175 C6.13017391,13.2189836 6.1005,13.212961 6.06991304,13.2112402 C6.06260869,13.21081 6.05621739,13.2073685 6.04891304,13.2073685 L0.701217391,13.2073685 C0.512217391,13.2073685 0.358826087,13.3519119 0.358826087,13.5300101 L0.358826087,25.9547219 C0.358826087,26.13282 0.512217391,26.2773634 0.701217391,26.2773634 L10.4306087,26.2773634 C10.6196087,26.2773634 10.773,26.13282 10.773,25.9547219 L10.773,17.657241 C10.773,17.6499278 10.7693478,17.6443354 10.7688913,17.6370222 C10.7666087,17.6090599 10.7606739,17.5810976 10.7506304,17.554426 Z M9.60384781,17.3345995 L6.39221739,17.3345995 L6.39221739,14.3082216 L9.60384781,17.3345995 Z M1.04360869,25.6320802 L1.04360869,13.8522215 L5.70743478,13.8522215 L5.70743478,17.6576713 C5.70743478,17.8357694 5.86082609,17.9803128 6.04982609,17.9803128 L10.0882174,17.9803128 L10.0882174,25.6320802 L1.04360869,25.6320802 Z" id="Shape" stroke="#BDC3C7" fill="#BDC3C7"></path>
                        </g>
                    </g>
                    <g id="noun_1144686_EC5D57" transform="translate(12.000000, 0.000000)">
                        <path d="M9.71742111,14.352 C6.31632373,14.352 3.53360768,11.8404 3.53360768,8.77066668 C3.53360768,5.70093333 6.31632373,3.18933333 9.71742111,3.18933333 C13.1185185,3.18933333 15.9012345,5.70093333 15.9012345,8.77066668 C15.9012345,11.8404 13.1185185,14.352 9.71742111,14.352 Z" id="Path" fill="#E74C3C"></path>
                        <path d="M9.71742111,2.39200001 C5.83045267,2.39200001 2.65020576,5.2624 2.65020576,8.77066668 C2.65020576,12.2789334 5.83045267,15.1493334 9.71742111,15.1493334 C13.6043896,15.1493334 16.7846365,12.2789334 16.7846365,8.77066668 C16.7846365,5.2624 13.6043896,2.39200001 9.71742111,2.39200001 Z" id="Path" fill="#E74C3C"></path>
                        <path d="M9.71742111,16.744 C4.85871056,16.744 0.883401926,13.156 0.883401926,8.77066668 C0.883401926,4.38533333 4.85871056,0.797333335 9.71742111,0.797333335 C14.5761317,0.797333335 18.5514404,4.38533333 18.5514404,8.77066668 C18.5514404,13.156 14.5761317,16.744 9.71742111,16.744 Z" id="Path" fill="#E74C3C"></path>
                        <path d="M9.71742111,0 C4.3728395,0 0,3.9468 0,8.77066668 C0,13.5945333 4.3728395,17.5413334 9.71742111,17.5413334 C15.0620027,17.5413334 19.4348422,13.5945333 19.4348422,8.77066668 C19.4348422,3.9468 15.0620027,0 9.71742111,0 Z" id="Path" stroke="#BDC3C7" stroke-width="2" fill="#FFFFFF"></path>
                        <path d="M12.3676269,7.176 C12.3676269,8.37199994 11.3958847,9.32880002 10.1591221,9.52813332 L10.1591221,9.96666667 C10.1591221,10.2058667 9.9824417,10.3653333 9.71742111,10.3653333 C9.45240052,10.3653333 9.27572015,10.2058667 9.27572015,9.96666667 L9.27572015,9.16933334 C9.27572015,8.93013336 9.45240052,8.77066668 9.71742111,8.77066668 C10.6891633,8.77066668 11.484225,8.05306666 11.484225,7.176 C11.484225,6.29893333 10.6891633,5.58133333 9.71742111,5.58133333 C8.74567904,5.58133333 7.95061726,6.29893333 7.95061726,7.176 C7.95061726,7.41520001 7.77393689,7.57466669 7.5089163,7.57466669 C7.24389575,7.57466669 7.06721536,7.41520001 7.06721536,7.176 C7.06721536,5.8604 8.25980793,4.784 9.71742111,4.784 C11.1750343,4.784 12.3676269,5.8604 12.3676269,7.176 Z" id="Path" stroke="#E74C3C" fill="#E74C3C"></path>
                        <path d="M10.600823,11.96 C10.600823,12.3985333 10.2032921,12.7573333 9.71742111,12.7573333 C9.23155007,12.7573333 8.83401926,12.3985333 8.83401926,11.96 C8.83401926,11.5214667 9.23155007,11.1626667 9.71742111,11.1626667 C10.2032921,11.1626667 10.600823,11.5214667 10.600823,11.96 Z" id="Path" fill="#E74C3C"></path>
                    </g>
                </g>
            </g>
        </g>
    </g>
</svg>