<?xml version="1.0" encoding="UTF-8"?>
<svg width="163px" height="97px" viewBox="0 0 163 97" version="1.1" xmlns="http://www.w3.org/2000/svg" xmlns:xlink="http://www.w3.org/1999/xlink">
    <!-- Generator: Sketch 62 (91390) - https://sketch.com -->
    <title>Elaborate</title>
    <desc>Created with Sketch.</desc>
    <defs>
        <radialGradient cx="26.0530847%" cy="62.3934409%" fx="26.0530847%" fy="62.3934409%" r="35.1006849%" gradientTransform="translate(0.260531,0.623934),scale(0.595092,1.000000),rotate(-90.000000),translate(-0.260531,-0.623934)" id="radialGradient-1">
            <stop stop-color="#F5836F" offset="0%"></stop>
            <stop stop-color="#E74C3C" offset="100%"></stop>
        </radialGradient>
        <path d="M8.46679688,18 L8.46679688,16.3149414 L3.5859375,16.3149414 L3.5859375,12.5048828 L8.15966797,12.5048828 L8.15966797,10.8447266 L3.5859375,10.8447266 L3.5859375,7.54101562 L8.46679688,7.54101562 L8.46679688,5.86425781 L1.60205078,5.86425781 L1.60205078,18 L8.46679688,18 Z M12.8330078,18 L12.8330078,5.08398438 L10.8823242,5.08398438 L10.8823242,18 L12.8330078,18 Z M17.8466797,18.1660156 C18.5494792,18.1660156 19.125,18.0650228 19.5732422,17.8630371 C20.0214844,17.6610514 20.4669596,17.280599 20.909668,16.7216797 L20.909668,16.7216797 L20.9760742,16.7216797 L21.3662109,18 L22.7607422,18 L22.7607422,11.815918 C22.7607422,10.7257487 22.4632975,9.92610677 21.8684082,9.41699219 C21.2735189,8.9078776 20.3922526,8.65332031 19.2246094,8.65332031 C18.6988932,8.65332031 18.139974,8.72111003 17.5478516,8.85668945 C16.9557292,8.99226888 16.4106445,9.19010417 15.9125977,9.45019531 L15.9125977,9.45019531 L16.543457,10.8447266 C16.9418945,10.6565755 17.3569336,10.4933268 17.7885742,10.3549805 C18.2202148,10.2166341 18.671224,10.1474609 19.1416016,10.1474609 C19.7171224,10.1474609 20.1418457,10.2927246 20.4157715,10.583252 C20.6896973,10.8737793 20.8266602,11.3123372 20.8266602,11.8989258 L20.8266602,11.8989258 L20.8266602,12.3886719 L19.2412109,12.4384766 C17.8024089,12.4827474 16.7316081,12.7456055 16.0288086,13.2270508 C15.3260091,13.7084961 14.9746094,14.4223633 14.9746094,15.3686523 C14.9746094,16.2596029 15.2277832,16.9485677 15.7341309,17.4355469 C16.2404785,17.922526 16.9446615,18.1660156 17.8466797,18.1660156 Z M18.4609375,16.671875 C17.9739583,16.671875 17.608724,16.5598145 17.3652344,16.3356934 C17.1217448,16.1115723 17,15.7947591 17,15.3852539 C17,14.8208008 17.208903,14.4016113 17.626709,14.1276855 C18.044515,13.8537598 18.7127279,13.7001953 19.6313477,13.6669922 L19.6313477,13.6669922 L20.8100586,13.6171875 L20.8100586,14.4140625 C20.8100586,15.1279297 20.5956217,15.6826986 20.166748,16.0783691 C19.7378743,16.4740397 19.1692708,16.671875 18.4609375,16.671875 Z M30.1401367,18.1660156 C31.2911784,18.1660156 32.1904297,17.7468262 32.8378906,16.9084473 C33.4853516,16.0700684 33.809082,14.8982747 33.809082,13.3930664 C33.809082,11.8933919 33.489502,10.7285156 32.8503418,9.8984375 C32.2111816,9.06835938 31.3188477,8.65332031 30.1733398,8.65332031 C28.9669596,8.65332031 28.0538737,9.10986328 27.434082,10.0229492 L27.434082,10.0229492 L27.3510742,10.0229492 C27.3621419,9.90120443 27.3787435,9.61621094 27.4008789,9.16796875 C27.4230143,8.71972656 27.434082,8.38216146 27.434082,8.15527344 L27.434082,8.15527344 L27.434082,5.08398438 L25.4833984,5.08398438 L25.4833984,18 L26.9443359,18 L27.3012695,16.9125977 L27.434082,16.9125977 C28.0760091,17.7482096 28.9780273,18.1660156 30.1401367,18.1660156 Z M29.7001953,16.5722656 C28.8977865,16.5722656 28.3194987,16.3218587 27.965332,15.8210449 C27.6111654,15.3202311 27.434082,14.5109049 27.434082,13.3930664 L27.434082,13.3930664 L27.434082,13.2602539 C27.4451497,12.1756185 27.6236165,11.4022624 27.9694824,10.9401855 C28.3153483,10.4781087 28.8811849,10.2470703 29.6669922,10.2470703 C31.0947266,10.2470703 31.8085938,11.2902018 31.8085938,13.3764648 C31.8085938,14.4112956 31.630127,15.2026367 31.2731934,15.7504883 C30.9162598,16.2983398 30.3919271,16.5722656 29.7001953,16.5722656 Z M39.8520508,18.1660156 C41.2244466,18.1660156 42.2952474,17.7454427 43.0644531,16.9042969 C43.8336589,16.063151 44.2182617,14.8927409 44.2182617,13.3930664 C44.2182617,11.9431966 43.8308919,10.7907715 43.0561523,9.93579102 C42.2814128,9.08081055 41.2299805,8.65332031 39.9018555,8.65332031 C38.5128581,8.65332031 37.4365234,9.0711263 36.6728516,9.90673828 C35.9091797,10.7423503 35.5273438,11.9044596 35.5273438,13.3930664 C35.5273438,14.3504232 35.7044271,15.191569 36.0585938,15.9165039 C36.4127604,16.6414388 36.9191081,17.1975911 37.5776367,17.5849609 C38.2361654,17.9723307 38.9943034,18.1660156 39.8520508,18.1660156 Z M39.8852539,16.5722656 C38.3191732,16.5722656 37.5361328,15.5125326 37.5361328,13.3930664 C37.5361328,12.3803711 37.7201335,11.6028646 38.0881348,11.0605469 C38.4561361,10.5182292 39.0496419,10.2470703 39.8686523,10.2470703 C41.4291992,10.2470703 42.2094727,11.2957357 42.2094727,13.3930664 C42.2094727,15.5125326 41.4347331,16.5722656 39.8852539,16.5722656 Z M48.4101562,18 L48.4101562,13.2021484 C48.4101562,12.3886719 48.6522624,11.7273763 49.1364746,11.2182617 C49.6206868,10.7091471 50.2529297,10.4545898 51.0332031,10.4545898 C51.3320312,10.4545898 51.6197917,10.487793 51.8964844,10.5541992 L51.8964844,10.5541992 L52.0874023,8.73632812 C51.8328451,8.68098958 51.5091146,8.65332031 51.1162109,8.65332031 C50.5517578,8.65332031 50.0246582,8.81380208 49.5349121,9.13476562 C49.045166,9.45572917 48.648112,9.89013672 48.34375,10.4379883 L48.34375,10.4379883 L48.2441406,10.4379883 L47.9868164,8.81933594 L46.4594727,8.81933594 L46.4594727,18 L48.4101562,18 Z M56.0136719,18.1660156 C56.7164714,18.1660156 57.2919922,18.0650228 57.7402344,17.8630371 C58.1884766,17.6610514 58.6339518,17.280599 59.0766602,16.7216797 L59.0766602,16.7216797 L59.1430664,16.7216797 L59.5332031,18 L60.9277344,18 L60.9277344,11.815918 C60.9277344,10.7257487 60.6302897,9.92610677 60.0354004,9.41699219 C59.4405111,8.9078776 58.5592448,8.65332031 57.3916016,8.65332031 C56.8658854,8.65332031 56.3069661,8.72111003 55.7148438,8.85668945 C55.1227214,8.99226888 54.5776367,9.19010417 54.0795898,9.45019531 L54.0795898,9.45019531 L54.7104492,10.8447266 C55.1088867,10.6565755 55.5239258,10.4933268 55.9555664,10.3549805 C56.387207,10.2166341 56.8382161,10.1474609 57.3085938,10.1474609 C57.8841146,10.1474609 58.3088379,10.2927246 58.5827637,10.583252 C58.8566895,10.8737793 58.9936523,11.3123372 58.9936523,11.8989258 L58.9936523,11.8989258 L58.9936523,12.3886719 L57.4082031,12.4384766 C55.969401,12.4827474 54.8986003,12.7456055 54.1958008,13.2270508 C53.4930013,13.7084961 53.1416016,14.4223633 53.1416016,15.3686523 C53.1416016,16.2596029 53.3947754,16.9485677 53.901123,17.4355469 C54.4074707,17.922526 55.1116536,18.1660156 56.0136719,18.1660156 Z M56.6279297,16.671875 C56.1409505,16.671875 55.7757161,16.5598145 55.5322266,16.3356934 C55.288737,16.1115723 55.1669922,15.7947591 55.1669922,15.3852539 C55.1669922,14.8208008 55.3758952,14.4016113 55.7937012,14.1276855 C56.2115072,13.8537598 56.8797201,13.7001953 57.7983398,13.6669922 L57.7983398,13.6669922 L58.9770508,13.6171875 L58.9770508,14.4140625 C58.9770508,15.1279297 58.7626139,15.6826986 58.3337402,16.0783691 C57.9048665,16.4740397 57.336263,16.671875 56.6279297,16.671875 Z M66.6054688,18.1660156 C66.9707031,18.1660156 67.3234863,18.134196 67.6638184,18.0705566 C68.0041504,18.0069173 68.2822266,17.9280599 68.4980469,17.8339844 L68.4980469,17.8339844 L68.4980469,16.3647461 C68.0221354,16.5141602 67.546224,16.5888672 67.0703125,16.5888672 C66.6884766,16.5888672 66.3799642,16.4768066 66.1447754,16.2526855 C65.9095866,16.0285645 65.7919922,15.6813151 65.7919922,15.2109375 L65.7919922,15.2109375 L65.7919922,10.296875 L68.4067383,10.296875 L68.4067383,8.81933594 L65.7919922,8.81933594 L65.7919922,6.77734375 L64.5883789,6.77734375 L63.9243164,8.71972656 L62.5795898,9.43359375 L62.5795898,10.296875 L63.8330078,10.296875 L63.8330078,15.2441406 C63.8330078,17.1920573 64.7571615,18.1660156 66.6054688,18.1660156 Z M74.3417969,18.1660156 C74.9671224,18.1660156 75.5232747,18.1189779 76.0102539,18.0249023 C76.4972331,17.9308268 76.9786784,17.7703451 77.4545898,17.543457 L77.4545898,17.543457 L77.4545898,15.9580078 C76.917806,16.1959635 76.4156087,16.3661296 75.947998,16.4685059 C75.4803874,16.5708822 74.9754232,16.6220703 74.4331055,16.6220703 C73.6085612,16.6220703 72.969401,16.3827311 72.515625,15.9040527 C72.061849,15.4253743 71.8211263,14.7405599 71.793457,13.8496094 L71.793457,13.8496094 L77.9111328,13.8496094 L77.9111328,12.7954102 C77.9111328,11.5060221 77.5597331,10.4933268 76.8569336,9.75732422 C76.1541341,9.02132161 75.1967773,8.65332031 73.9848633,8.65332031 C72.6788737,8.65332031 71.6523438,9.08219401 70.9052734,9.93994141 C70.1582031,10.7976888 69.784668,11.9763997 69.784668,13.4760742 C69.784668,14.9370117 70.1872559,16.083903 70.9924316,16.916748 C71.7976074,17.7495931 72.9140625,18.1660156 74.3417969,18.1660156 Z M75.9936523,12.4384766 L71.8266602,12.4384766 C71.8986003,11.6858724 72.1213379,11.1131185 72.494873,10.7202148 C72.8684082,10.3273112 73.3650716,10.1308594 73.9848633,10.1308594 C74.6046549,10.1308594 75.0916341,10.3259277 75.4458008,10.7160645 C75.7999674,11.1062012 75.9825846,11.6803385 75.9936523,12.4384766 L75.9936523,12.4384766 Z" id="path-2"></path>
    </defs>
    <g id="Symbols" stroke="none" stroke-width="1" fill="none" fill-rule="evenodd">
        <g id="i/Elaborate">
            <g id="Elaborate">
                <path d="M6,0 L157,0 C160.313708,-6.08718376e-16 163,2.6862915 163,6 L163,91 C163,94.3137085 160.313708,97 157,97 L6,97 C2.6862915,97 4.05812251e-16,94.3137085 0,91 L0,6 C-4.05812251e-16,2.6862915 2.6862915,6.08718376e-16 6,0 Z" id="Rectangle-2" fill="url(#radialGradient-1)" fill-rule="nonzero"></path>
                <polyline id="Line-2" stroke="#FFFFFF" stroke-width="4" stroke-linecap="square" points="2 30 20.4627861 30 161 30"></polyline>
                <line x1="81" y1="45" x2="81" y2="85.0042519" id="Line-3" stroke="#FFFFFF" stroke-width="2" stroke-linecap="square"></line>
                <g id="Adverbs" transform="translate(44.000000, 2.000000)" fill="#FFFFFF" fill-rule="nonzero">
                    <g id="Elaborate">
                        <use xlink:href="#path-2"></use>
                        <use xlink:href="#path-2"></use>
                    </g>
                </g>
                <path d="M94.0898438,56 L94.0898438,48.6347656 L96.609375,48.6347656 L96.609375,47.4335938 L90.1699219,47.4335938 L90.1699219,48.6347656 L92.6894531,48.6347656 L92.6894531,56 L94.0898438,56 Z M99.3457031,56.1171875 C99.8417969,56.1171875 100.248047,56.0458984 100.564453,55.9033203 C100.880859,55.7607422 101.195312,55.4921875 101.507812,55.0976562 L101.507812,55.0976562 L101.554688,55.0976562 L101.830078,56 L102.814453,56 L102.814453,51.6347656 C102.814453,50.8652344 102.604492,50.3007812 102.18457,49.9414062 C101.764648,49.5820312 101.142578,49.4023438 100.318359,49.4023438 C99.9472656,49.4023438 99.5527344,49.4501953 99.1347656,49.5458984 C98.7167969,49.6416016 98.3320312,49.78125 97.9804688,49.9648438 L97.9804688,49.9648438 L98.4257812,50.9492188 C98.7070312,50.8164062 99,50.7011719 99.3046875,50.6035156 C99.609375,50.5058594 99.9277344,50.4570312 100.259766,50.4570312 C100.666016,50.4570312 100.96582,50.5595703 101.15918,50.7646484 C101.352539,50.9697266 101.449219,51.2792969 101.449219,51.6933594 L101.449219,51.6933594 L101.449219,52.0390625 L100.330078,52.0742188 C99.3144531,52.1054688 98.5585938,52.2910156 98.0625,52.6308594 C97.5664062,52.9707031 97.3183594,53.4746094 97.3183594,54.1425781 C97.3183594,54.7714844 97.4970703,55.2578125 97.8544922,55.6015625 C98.2119141,55.9453125 98.7089844,56.1171875 99.3457031,56.1171875 Z M99.7792969,55.0625 C99.4355469,55.0625 99.1777344,54.9833984 99.0058594,54.8251953 C98.8339844,54.6669922 98.7480469,54.4433594 98.7480469,54.1542969 C98.7480469,53.7558594 98.8955078,53.4599609 99.1904297,53.2666016 C99.4853516,53.0732422 99.9570312,52.9648438 100.605469,52.9414062 L100.605469,52.9414062 L101.4375,52.90625 L101.4375,53.46875 C101.4375,53.9726562 101.286133,54.3642578 100.983398,54.6435547 C100.680664,54.9228516 100.279297,55.0625 99.7792969,55.0625 Z M106.113281,56 L106.113281,46.8828125 L104.736328,46.8828125 L104.736328,56 L106.113281,56 Z M109.447266,56 L109.447266,53.7792969 L110.203125,53.1582031 L112.283203,56 L113.900391,56 L111.128906,52.3027344 L113.736328,49.5195312 L112.148438,49.5195312 L110.191406,51.6054688 L109.412109,52.578125 L109.376953,52.578125 L109.447266,51.3300781 L109.447266,46.8828125 L108.082031,46.8828125 L108.082031,56 L109.447266,56 Z M93.0703125,68.1171875 C93.328125,68.1171875 93.5771484,68.0947266 93.8173828,68.0498047 C94.0576172,68.0048828 94.2539062,67.9492188 94.40625,67.8828125 L94.40625,67.8828125 L94.40625,66.8457031 C94.0703125,66.9511719 93.734375,67.0039062 93.3984375,67.0039062 C93.1289062,67.0039062 92.9111328,66.9248047 92.7451172,66.7666016 C92.5791016,66.6083984 92.4960938,66.3632812 92.4960938,66.03125 L92.4960938,66.03125 L92.4960938,62.5625 L94.3417969,62.5625 L94.3417969,61.5195312 L92.4960938,61.5195312 L92.4960938,60.078125 L91.6464844,60.078125 L91.1777344,61.4492188 L90.2285156,61.953125 L90.2285156,62.5625 L91.1132812,62.5625 L91.1132812,66.0546875 C91.1132812,67.4296875 91.765625,68.1171875 93.0703125,68.1171875 Z M97.078125,68 L97.078125,64.7832031 C97.078125,63.9707031 97.2138672,63.3916016 97.4853516,63.0458984 C97.7568359,62.7001953 98.1816406,62.5273438 98.7597656,62.5273438 C99.1972656,62.5273438 99.5166016,62.6503906 99.7177734,62.8964844 C99.9189453,63.1425781 100.019531,63.515625 100.019531,64.015625 L100.019531,64.015625 L100.019531,68 L101.402344,68 L101.402344,63.7753906 C101.402344,62.1933594 100.617188,61.4023438 99.046875,61.4023438 C98.6015625,61.4023438 98.2119141,61.4882812 97.8779297,61.6601562 C97.5439453,61.8320312 97.2832031,62.0742188 97.0957031,62.3867188 L97.0957031,62.3867188 L97.0078125,62.3867188 C97.0546875,61.9648438 97.078125,61.5683594 97.078125,61.1972656 L97.078125,61.1972656 L97.078125,58.8828125 L95.7011719,58.8828125 L95.7011719,68 L97.078125,68 Z M104.695312,68 L104.695312,64.6132812 C104.695312,64.0390625 104.866211,63.5722656 105.208008,63.2128906 C105.549805,62.8535156 105.996094,62.6738281 106.546875,62.6738281 C106.757812,62.6738281 106.960938,62.6972656 107.15625,62.7441406 L107.15625,62.7441406 L107.291016,61.4609375 C107.111328,61.421875 106.882812,61.4023438 106.605469,61.4023438 C106.207031,61.4023438 105.834961,61.515625 105.489258,61.7421875 C105.143555,61.96875 104.863281,62.2753906 104.648438,62.6621094 L104.648438,62.6621094 L104.578125,62.6621094 L104.396484,61.5195312 L103.318359,61.5195312 L103.318359,68 L104.695312,68 Z M111.158203,68.1171875 C112.126953,68.1171875 112.882812,67.8203125 113.425781,67.2265625 C113.96875,66.6328125 114.240234,65.8066406 114.240234,64.7480469 C114.240234,63.7246094 113.966797,62.9111328 113.419922,62.3076172 C112.873047,61.7041016 112.130859,61.4023438 111.193359,61.4023438 C110.212891,61.4023438 109.453125,61.6972656 108.914062,62.2871094 C108.375,62.8769531 108.105469,63.6972656 108.105469,64.7480469 C108.105469,65.4238281 108.230469,66.0175781 108.480469,66.5292969 C108.730469,67.0410156 109.087891,67.4335938 109.552734,67.7070312 C110.017578,67.9804688 110.552734,68.1171875 111.158203,68.1171875 Z M111.181641,66.9921875 C110.076172,66.9921875 109.523438,66.2441406 109.523438,64.7480469 C109.523438,64.0332031 109.65332,63.484375 109.913086,63.1015625 C110.172852,62.71875 110.591797,62.5273438 111.169922,62.5273438 C112.271484,62.5273438 112.822266,63.2675781 112.822266,64.7480469 C112.822266,66.2441406 112.275391,66.9921875 111.181641,66.9921875 Z M118.101562,68.1171875 C118.554688,68.1171875 118.958008,68.03125 119.311523,67.859375 C119.665039,67.6875 119.9375,67.4511719 120.128906,67.1503906 L120.128906,67.1503906 L120.199219,67.1503906 L120.392578,68 L121.476562,68 L121.476562,61.5195312 L120.09375,61.5195312 L120.09375,64.7480469 C120.09375,65.5605469 119.958008,66.1396484 119.686523,66.4853516 C119.415039,66.8310547 118.990234,67.0039062 118.412109,67.0039062 C117.978516,67.0039062 117.660156,66.8798828 117.457031,66.6318359 C117.253906,66.3837891 117.152344,66.0117188 117.152344,65.515625 L117.152344,65.515625 L117.152344,61.5195312 L115.763672,61.5195312 L115.763672,65.7558594 C115.763672,66.5488281 115.957031,67.140625 116.34375,67.53125 C116.730469,67.921875 117.316406,68.1171875 118.101562,68.1171875 Z M125.308594,70.8828125 C126.453125,70.8828125 127.328125,70.6835938 127.933594,70.2851562 C128.539062,69.8867188 128.841797,69.3203125 128.841797,68.5859375 C128.841797,68.0117188 128.65625,67.5722656 128.285156,67.2675781 C127.914062,66.9628906 127.371094,66.8105469 126.65625,66.8105469 L126.65625,66.8105469 L125.525391,66.8105469 C125.154297,66.8105469 124.899414,66.7734375 124.760742,66.6992188 C124.62207,66.625 124.552734,66.5136719 124.552734,66.3652344 C124.552734,66.1191406 124.701172,65.9042969 124.998047,65.7207031 C125.166016,65.7519531 125.353516,65.7675781 125.560547,65.7675781 C126.369141,65.7675781 127.003906,65.5761719 127.464844,65.1933594 C127.925781,64.8105469 128.15625,64.2851562 128.15625,63.6171875 C128.15625,63.3945312 128.123047,63.1835938 128.056641,62.984375 C127.990234,62.7851562 127.90625,62.6171875 127.804688,62.4804688 L127.804688,62.4804688 L128.912109,62.2753906 L128.912109,61.5195312 L126.667969,61.5195312 C126.566406,61.4921875 126.415039,61.4658203 126.213867,61.4404297 C126.012695,61.4150391 125.820312,61.4023438 125.636719,61.4023438 C124.816406,61.4023438 124.18457,61.5957031 123.741211,61.9824219 C123.297852,62.3691406 123.076172,62.9140625 123.076172,63.6171875 C123.076172,64.0546875 123.180664,64.4365234 123.389648,64.7626953 C123.598633,65.0888672 123.871094,65.3242188 124.207031,65.46875 C123.9375,65.6328125 123.734375,65.7988281 123.597656,65.9667969 C123.460938,66.1347656 123.392578,66.3398438 123.392578,66.5820312 C123.392578,66.7734375 123.452148,66.9560547 123.571289,67.1298828 C123.69043,67.3037109 123.841797,67.4296875 124.025391,67.5078125 C123.572266,67.6132812 123.219727,67.8017578 122.967773,68.0732422 C122.71582,68.3447266 122.589844,68.6796875 122.589844,69.078125 C122.589844,69.65625 122.822266,70.1015625 123.287109,70.4140625 C123.751953,70.7265625 124.425781,70.8828125 125.308594,70.8828125 Z M125.625,64.8828125 C125.234375,64.8828125 124.93457,64.7734375 124.725586,64.5546875 C124.516602,64.3359375 124.412109,64.0234375 124.412109,63.6171875 C124.412109,63.1835938 124.514648,62.8535156 124.719727,62.6269531 C124.924805,62.4003906 125.226562,62.2871094 125.625,62.2871094 C126.027344,62.2871094 126.327148,62.4013672 126.524414,62.6298828 C126.72168,62.8583984 126.820312,63.1835938 126.820312,63.6054688 C126.820312,64.4570312 126.421875,64.8828125 125.625,64.8828125 Z M125.349609,69.9335938 C124.865234,69.9335938 124.489258,69.8535156 124.22168,69.6933594 C123.954102,69.5332031 123.820312,69.3046875 123.820312,69.0078125 C123.820312,68.6914062 123.936523,68.4404297 124.168945,68.2548828 C124.401367,68.0693359 124.714844,67.9765625 125.109375,67.9765625 L125.109375,67.9765625 L126.152344,67.9765625 C126.699219,67.9765625 127.073242,68.0361328 127.274414,68.1552734 C127.475586,68.2744141 127.576172,68.4746094 127.576172,68.7558594 C127.576172,69.1113281 127.392578,69.3964844 127.025391,69.6113281 C126.658203,69.8261719 126.099609,69.9335938 125.349609,69.9335938 Z M131.490234,68 L131.490234,64.7832031 C131.490234,63.9707031 131.625977,63.3916016 131.897461,63.0458984 C132.168945,62.7001953 132.59375,62.5273438 133.171875,62.5273438 C133.609375,62.5273438 133.928711,62.6503906 134.129883,62.8964844 C134.331055,63.1425781 134.431641,63.515625 134.431641,64.015625 L134.431641,64.015625 L134.431641,68 L135.814453,68 L135.814453,63.7753906 C135.814453,62.1933594 135.029297,61.4023438 133.458984,61.4023438 C133.013672,61.4023438 132.624023,61.4882812 132.290039,61.6601562 C131.956055,61.8320312 131.695312,62.0742188 131.507812,62.3867188 L131.507812,62.3867188 L131.419922,62.3867188 C131.466797,61.9648438 131.490234,61.5683594 131.490234,61.1972656 L131.490234,61.1972656 L131.490234,58.8828125 L130.113281,58.8828125 L130.113281,68 L131.490234,68 Z M91.1425781,82.8828125 C92.3183594,82.8828125 93.1582031,82.2089844 93.6621094,80.8613281 L93.6621094,80.8613281 L96.4335938,73.5195312 L94.9453125,73.5195312 C94.046875,76.125 93.5507812,77.5810547 93.4570312,77.8876953 C93.3632812,78.1943359 93.2988281,78.4550781 93.2636719,78.6699219 L93.2636719,78.6699219 L93.2167969,78.6699219 C93.1503906,78.2089844 93.0175781,77.7167969 92.8183594,77.1933594 L92.8183594,77.1933594 L91.5,73.5195312 L90,73.5195312 L92.6015625,80 L92.3613281,80.609375 C92.0917969,81.3789062 91.625,81.7636719 90.9609375,81.7636719 C90.6953125,81.7636719 90.4589844,81.7402344 90.2519531,81.6933594 L90.2519531,81.6933594 L90.2519531,82.7832031 C90.5410156,82.8496094 90.8378906,82.8828125 91.1425781,82.8828125 Z M100.083984,80.1171875 C101.052734,80.1171875 101.808594,79.8203125 102.351562,79.2265625 C102.894531,78.6328125 103.166016,77.8066406 103.166016,76.7480469 C103.166016,75.7246094 102.892578,74.9111328 102.345703,74.3076172 C101.798828,73.7041016 101.056641,73.4023438 100.119141,73.4023438 C99.1386719,73.4023438 98.3789062,73.6972656 97.8398438,74.2871094 C97.3007812,74.8769531 97.03125,75.6972656 97.03125,76.7480469 C97.03125,77.4238281 97.15625,78.0175781 97.40625,78.5292969 C97.65625,79.0410156 98.0136719,79.4335938 98.4785156,79.7070312 C98.9433594,79.9804688 99.4785156,80.1171875 100.083984,80.1171875 Z M100.107422,78.9921875 C99.0019531,78.9921875 98.4492188,78.2441406 98.4492188,76.7480469 C98.4492188,76.0332031 98.5791016,75.484375 98.8388672,75.1015625 C99.0986328,74.71875 99.5175781,74.5273438 100.095703,74.5273438 C101.197266,74.5273438 101.748047,75.2675781 101.748047,76.7480469 C101.748047,78.2441406 101.201172,78.9921875 100.107422,78.9921875 Z M107.027344,80.1171875 C107.480469,80.1171875 107.883789,80.03125 108.237305,79.859375 C108.59082,79.6875 108.863281,79.4511719 109.054688,79.1503906 L109.054688,79.1503906 L109.125,79.1503906 L109.318359,80 L110.402344,80 L110.402344,73.5195312 L109.019531,73.5195312 L109.019531,76.7480469 C109.019531,77.5605469 108.883789,78.1396484 108.612305,78.4853516 C108.34082,78.8310547 107.916016,79.0039062 107.337891,79.0039062 C106.904297,79.0039062 106.585938,78.8798828 106.382812,78.6318359 C106.179688,78.3837891 106.078125,78.0117188 106.078125,77.515625 L106.078125,77.515625 L106.078125,73.5195312 L104.689453,73.5195312 L104.689453,77.7558594 C104.689453,78.5488281 104.882812,79.140625 105.269531,79.53125 C105.65625,79.921875 106.242188,80.1171875 107.027344,80.1171875 Z M113.742188,80 L113.742188,76.6132812 C113.742188,76.0390625 113.913086,75.5722656 114.254883,75.2128906 C114.59668,74.8535156 115.042969,74.6738281 115.59375,74.6738281 C115.804688,74.6738281 116.007812,74.6972656 116.203125,74.7441406 L116.203125,74.7441406 L116.337891,73.4609375 C116.158203,73.421875 115.929688,73.4023438 115.652344,73.4023438 C115.253906,73.4023438 114.881836,73.515625 114.536133,73.7421875 C114.19043,73.96875 113.910156,74.2753906 113.695312,74.6621094 L113.695312,74.6621094 L113.625,74.6621094 L113.443359,73.5195312 L112.365234,73.5195312 L112.365234,80 L113.742188,80 Z M121.353516,72.5585938 C121.595703,72.5585938 121.78418,72.4912109 121.918945,72.3564453 C122.053711,72.2216797 122.121094,72.0371094 122.121094,71.8027344 C122.121094,71.5566406 122.053711,71.3671875 121.918945,71.234375 C121.78418,71.1015625 121.595703,71.0351562 121.353516,71.0351562 C121.103516,71.0351562 120.911133,71.1015625 120.776367,71.234375 C120.641602,71.3671875 120.574219,71.5566406 120.574219,71.8027344 C120.574219,72.0371094 120.641602,72.2216797 120.776367,72.3564453 C120.911133,72.4912109 121.103516,72.5585938 121.353516,72.5585938 Z M122.033203,80 L122.033203,73.5195312 L120.65625,73.5195312 L120.65625,80 L122.033203,80 Z M126.1875,80.1171875 C127.039062,80.1171875 127.685547,79.7949219 128.126953,79.1503906 L128.126953,79.1503906 L128.191406,79.1503906 L128.431641,80 L129.509766,80 L129.509766,70.8828125 L128.126953,70.8828125 L128.126953,73.2441406 C128.126953,73.5136719 128.160156,73.8808594 128.226562,74.3457031 L128.226562,74.3457031 L128.15625,74.3457031 C127.710938,73.7167969 127.0625,73.4023438 126.210938,73.4023438 C125.398438,73.4023438 124.762695,73.6982422 124.303711,74.2900391 C123.844727,74.8818359 123.615234,75.7089844 123.615234,76.7714844 C123.615234,77.8300781 123.841797,78.6523438 124.294922,79.2382812 C124.748047,79.8242188 125.378906,80.1171875 126.1875,80.1171875 Z M126.556641,79.0039062 C126.048828,79.0039062 125.667969,78.8154297 125.414062,78.4384766 C125.160156,78.0615234 125.033203,77.5136719 125.033203,76.7949219 C125.033203,76.0683594 125.164062,75.5087891 125.425781,75.1162109 C125.6875,74.7236328 126.060547,74.5273438 126.544922,74.5273438 C127.111328,74.5273438 127.527344,74.6992188 127.792969,75.0429688 C128.058594,75.3867188 128.191406,75.9667969 128.191406,76.7832031 L128.191406,76.7832031 L128.191406,76.9765625 C128.183594,77.6914062 128.050781,78.2080078 127.792969,78.5263672 C127.535156,78.8447266 127.123047,79.0039062 126.556641,79.0039062 Z M134.308594,80.1171875 C134.75,80.1171875 135.142578,80.0839844 135.486328,80.0175781 C135.830078,79.9511719 136.169922,79.8378906 136.505859,79.6777344 L136.505859,79.6777344 L136.505859,78.5585938 C136.126953,78.7265625 135.772461,78.8466797 135.442383,78.9189453 C135.112305,78.9912109 134.755859,79.0273438 134.373047,79.0273438 C133.791016,79.0273438 133.339844,78.8583984 133.019531,78.5205078 C132.699219,78.1826172 132.529297,77.6992188 132.509766,77.0703125 L132.509766,77.0703125 L136.828125,77.0703125 L136.828125,76.3261719 C136.828125,75.4160156 136.580078,74.7011719 136.083984,74.1816406 C135.587891,73.6621094 134.912109,73.4023438 134.056641,73.4023438 C133.134766,73.4023438 132.410156,73.7050781 131.882812,74.3105469 C131.355469,74.9160156 131.091797,75.7480469 131.091797,76.8066406 C131.091797,77.8378906 131.375977,78.6474609 131.944336,79.2353516 C132.512695,79.8232422 133.300781,80.1171875 134.308594,80.1171875 Z M135.474609,76.0742188 L132.533203,76.0742188 C132.583984,75.5429688 132.741211,75.1386719 133.004883,74.8613281 C133.268555,74.5839844 133.619141,74.4453125 134.056641,74.4453125 C134.494141,74.4453125 134.837891,74.5830078 135.087891,74.8583984 C135.337891,75.1337891 135.466797,75.5390625 135.474609,76.0742188 L135.474609,76.0742188 Z M139.962891,80.1171875 C140.458984,80.1171875 140.865234,80.0458984 141.181641,79.9033203 C141.498047,79.7607422 141.8125,79.4921875 142.125,79.0976562 L142.125,79.0976562 L142.171875,79.0976562 L142.447266,80 L143.431641,80 L143.431641,75.6347656 C143.431641,74.8652344 143.22168,74.3007812 142.801758,73.9414062 C142.381836,73.5820312 141.759766,73.4023438 140.935547,73.4023438 C140.564453,73.4023438 140.169922,73.4501953 139.751953,73.5458984 C139.333984,73.6416016 138.949219,73.78125 138.597656,73.9648438 L138.597656,73.9648438 L139.042969,74.9492188 C139.324219,74.8164062 139.617188,74.7011719 139.921875,74.6035156 C140.226562,74.5058594 140.544922,74.4570312 140.876953,74.4570312 C141.283203,74.4570312 141.583008,74.5595703 141.776367,74.7646484 C141.969727,74.9697266 142.066406,75.2792969 142.066406,75.6933594 L142.066406,75.6933594 L142.066406,76.0390625 L140.947266,76.0742188 C139.931641,76.1054688 139.175781,76.2910156 138.679688,76.6308594 C138.183594,76.9707031 137.935547,77.4746094 137.935547,78.1425781 C137.935547,78.7714844 138.114258,79.2578125 138.47168,79.6015625 C138.829102,79.9453125 139.326172,80.1171875 139.962891,80.1171875 Z M140.396484,79.0625 C140.052734,79.0625 139.794922,78.9833984 139.623047,78.8251953 C139.451172,78.6669922 139.365234,78.4433594 139.365234,78.1542969 C139.365234,77.7558594 139.512695,77.4599609 139.807617,77.2666016 C140.102539,77.0732422 140.574219,76.9648438 141.222656,76.9414062 L141.222656,76.9414062 L142.054688,76.90625 L142.054688,77.46875 C142.054688,77.9726562 141.90332,78.3642578 141.600586,78.6435547 C141.297852,78.9228516 140.896484,79.0625 140.396484,79.0625 Z M147.035156,80.1171875 C147.894531,80.1171875 148.554688,79.9482422 149.015625,79.6103516 C149.476562,79.2724609 149.707031,78.7871094 149.707031,78.1542969 C149.707031,77.8417969 149.648438,77.5732422 149.53125,77.3486328 C149.414062,77.1240234 149.234375,76.9257812 148.992188,76.7539062 C148.75,76.5820312 148.361328,76.3925781 147.826172,76.1855469 C147.189453,75.9394531 146.776367,75.7460938 146.586914,75.6054688 C146.397461,75.4648438 146.302734,75.2929688 146.302734,75.0898438 C146.302734,74.6757812 146.666016,74.46875 147.392578,74.46875 C147.869141,74.46875 148.457031,74.6132812 149.15625,74.9023438 L149.15625,74.9023438 L149.601562,73.8652344 C148.921875,73.5566406 148.201172,73.4023438 147.439453,73.4023438 C146.669922,73.4023438 146.061523,73.5556641 145.614258,73.8623047 C145.166992,74.1689453 144.943359,74.5996094 144.943359,75.1542969 C144.943359,75.6152344 145.075195,75.9902344 145.338867,76.2792969 C145.602539,76.5683594 146.107422,76.8574219 146.853516,77.1464844 C147.236328,77.2949219 147.535156,77.4277344 147.75,77.5449219 C147.964844,77.6621094 148.119141,77.7753906 148.212891,77.8847656 C148.306641,77.9941406 148.353516,78.1308594 148.353516,78.2949219 C148.353516,78.8066406 147.929688,79.0625 147.082031,79.0625 C146.425781,79.0625 145.716797,78.8867188 144.955078,78.5351562 L144.955078,78.5351562 L144.955078,79.7246094 C145.478516,79.9863281 146.171875,80.1171875 147.035156,80.1171875 Z M151.857422,80.1699219 C152.138672,80.1699219 152.354492,80.0888672 152.504883,79.9267578 C152.655273,79.7646484 152.730469,79.5449219 152.730469,79.2675781 C152.730469,78.9941406 152.65625,78.7783203 152.507812,78.6201172 C152.359375,78.4619141 152.142578,78.3828125 151.857422,78.3828125 C151.576172,78.3828125 151.361328,78.4589844 151.212891,78.6113281 C151.064453,78.7636719 150.990234,78.9824219 150.990234,79.2675781 C150.990234,79.5488281 151.064453,79.7695312 151.212891,79.9296875 C151.361328,80.0898438 151.576172,80.1699219 151.857422,80.1699219 Z" id="Talkthroughyourideas." fill="#FFFFFF" fill-rule="nonzero"></path>
                <g id="Group-9" transform="translate(24.000000, 48.000000)" fill-rule="nonzero">
                    <path d="M35,11.4268147 C35,5.1259681 29.795618,0 23.3988764,0 L11.6011236,0 C5.20398876,0 0,5.1259681 0,11.4264277 L0,14.4940368 C0,19.4087125 3.17359549,23.759555 7.89702242,25.3210287 L8.12511235,25.3961034 L8.00438197,25.601204 C7.38185392,26.6580527 6.53831464,28.3158849 5.42460673,30.668738 C5.25668536,31.0232135 5.33179772,31.4481204 5.61219104,31.7255863 C5.89101124,32.0011178 6.33421347,32.0769663 6.68421347,31.9175296 L20.0070225,25.9204644 L23.3988764,25.9204644 C29.7960112,25.9204644 35,20.7944963 35,14.4940368 L35,11.4268147 Z M33.0934831,14.4940368 C33.0934831,19.7600925 28.7444382,24.044761 23.3988764,24.044761 L19.8001686,24.044761 C19.6641011,24.044761 19.5272472,24.0741717 19.4037641,24.1298971 L8.28988759,29.132805 L8.54157307,28.6409506 C8.99814608,27.7477949 9.82241569,26.1754858 10.2117415,25.6755046 L10.2660112,25.6275188 C10.5161235,25.4785306 10.6808989,25.2297009 10.7178651,24.944108 C10.7827528,24.4460617 10.4398315,23.9874876 9.93724719,23.9004165 C5.28421347,23.0985892 1.90651686,19.1428556 1.90651686,14.4940368 L1.90651686,11.4264277 C1.90651686,6.16037191 6.25556177,1.87570344 11.6011236,1.87570344 L23.3988764,1.87570344 C28.7444382,1.87570344 33.0934831,6.15998495 33.0934831,11.4264277 L33.0934831,14.4940368 Z" id="Shape" fill="#ECF0F1"></path>
                    <path d="M8.5,10 C7.12135431,10 6,11.1212603 6,12.4997905 C6,13.8783206 7.12135431,15 8.5,15 C9.87864569,15 11,13.8783206 11,12.4997905 C11,11.1212603 9.87864569,10 8.5,10 Z" id="Shape" fill="#BDC3C7"></path>
                    <path d="M27.5,10 C26.1213543,10 25,11.1212603 25,12.4997905 C25,13.8783206 26.1213543,15 27.5,15 C28.8786457,15 30,13.8783206 30,12.4997905 C30,11.1212603 28.8786457,10 27.5,10 Z" id="Shape" fill="#BDC3C7"></path>
                    <path d="M18.5,10 C17.1213543,10 16,11.1213543 16,12.5 C16,13.8786457 17.1213543,15 18.5,15 C19.8786457,15 21,13.8782266 21,12.499581 C21,11.1209352 19.8786457,10 18.5,10 Z" id="Shape" fill="#BDC3C7"></path>
                </g>
            </g>
        </g>
    </g>
</svg>