<?xml version="1.0" encoding="UTF-8"?>
<svg width="163px" height="97px" viewBox="0 0 163 97" version="1.1" xmlns="http://www.w3.org/2000/svg" xmlns:xlink="http://www.w3.org/1999/xlink">
    <!-- Generator: Sketch 62 (91390) - https://sketch.com -->
    <title>Eliminate</title>
    <desc>Created with Sketch.</desc>
    <defs>
        <radialGradient cx="25.9245%" cy="49.99998%" fx="25.9245%" fy="49.99998%" r="47.5383503%" gradientTransform="translate(0.259245,0.500000),scale(0.586896,1.000000),rotate(90.000000),translate(-0.259245,-0.500000)" id="radialGradient-1">
            <stop stop-color="#31CEBB" offset="0%"></stop>
            <stop stop-color="#16A085" offset="100%"></stop>
        </radialGradient>
        <path d="M52.152832,19 L52.152832,17.2158203 L46.9848633,17.2158203 L46.9848633,13.1816406 L51.8276367,13.1816406 L51.8276367,11.4238281 L46.9848633,11.4238281 L46.9848633,7.92578125 L52.152832,7.92578125 L52.152832,6.15039062 L44.8842773,6.15039062 L44.8842773,19 L52.152832,19 Z M56.7758789,19 L56.7758789,5.32421875 L54.7104492,5.32421875 L54.7104492,19 L56.7758789,19 Z M60.7749023,7.83789062 C61.1381836,7.83789062 61.4208984,7.73681641 61.6230469,7.53466797 C61.8251953,7.33251953 61.9262695,7.05566406 61.9262695,6.70410156 C61.9262695,6.33496094 61.8251953,6.05078125 61.6230469,5.8515625 C61.4208984,5.65234375 61.1381836,5.55273438 60.7749023,5.55273438 C60.3999023,5.55273438 60.1113281,5.65234375 59.9091797,5.8515625 C59.7070312,6.05078125 59.605957,6.33496094 59.605957,6.70410156 C59.605957,7.05566406 59.7070312,7.33251953 59.9091797,7.53466797 C60.1113281,7.73681641 60.3999023,7.83789062 60.7749023,7.83789062 Z M61.7944336,19 L61.7944336,9.27929688 L59.7290039,9.27929688 L59.7290039,19 L61.7944336,19 Z M66.8129883,19 L66.8129883,14.1572266 C66.8129883,12.9501953 66.9990234,12.0874023 67.3710938,11.5688477 C67.7431641,11.050293 68.3276367,10.7910156 69.1245117,10.7910156 C69.722168,10.7910156 70.1616211,10.9741211 70.4428711,11.340332 C70.7241211,11.706543 70.8647461,12.2617188 70.8647461,13.0058594 L70.8647461,13.0058594 L70.8647461,19 L72.9389648,19 L72.9389648,13.8496094 C72.9389648,12.8125 73.125,12.043457 73.4970703,11.5424805 C73.8691406,11.0415039 74.456543,10.7910156 75.2592773,10.7910156 C75.8569336,10.7910156 76.2978516,10.9741211 76.5820312,11.340332 C76.8662109,11.706543 77.0083008,12.2617188 77.0083008,13.0058594 L77.0083008,13.0058594 L77.0083008,19 L79.0737305,19 L79.0737305,12.6630859 C79.0737305,11.4619141 78.8085938,10.5683594 78.2783203,9.98242188 C77.7480469,9.39648438 76.902832,9.10351562 75.7426758,9.10351562 C75.0688477,9.10351562 74.4711914,9.23828125 73.949707,9.5078125 C73.4282227,9.77734375 73.0239258,10.1523438 72.7368164,10.6328125 L72.7368164,10.6328125 L72.5961914,10.6328125 C72.1098633,9.61328125 71.1196289,9.10351562 69.6254883,9.10351562 C69.0102539,9.10351562 68.4462891,9.22949219 67.9335938,9.48144531 C67.4208984,9.73339844 67.0297852,10.0908203 66.7602539,10.5537109 L66.7602539,10.5537109 L66.6547852,10.5537109 L66.3647461,9.27929688 L64.7475586,9.27929688 L64.7475586,19 L66.8129883,19 Z M83.0024414,7.83789062 C83.3657227,7.83789062 83.6484375,7.73681641 83.8505859,7.53466797 C84.0527344,7.33251953 84.1538086,7.05566406 84.1538086,6.70410156 C84.1538086,6.33496094 84.0527344,6.05078125 83.8505859,5.8515625 C83.6484375,5.65234375 83.3657227,5.55273438 83.0024414,5.55273438 C82.6274414,5.55273438 82.3388672,5.65234375 82.1367188,5.8515625 C81.9345703,6.05078125 81.8334961,6.33496094 81.8334961,6.70410156 C81.8334961,7.05566406 81.9345703,7.33251953 82.1367188,7.53466797 C82.3388672,7.73681641 82.6274414,7.83789062 83.0024414,7.83789062 Z M84.0219727,19 L84.0219727,9.27929688 L81.956543,9.27929688 L81.956543,19 L84.0219727,19 Z M89.0405273,19 L89.0405273,14.1572266 C89.0405273,12.9443359 89.2426758,12.0800781 89.6469727,11.5644531 C90.0512695,11.0488281 90.6899414,10.7910156 91.5629883,10.7910156 C92.2192383,10.7910156 92.6982422,10.9755859 93,11.3447266 C93.3017578,11.7138672 93.4526367,12.2734375 93.4526367,13.0234375 L93.4526367,13.0234375 L93.4526367,19 L95.5268555,19 L95.5268555,12.6630859 C95.5268555,10.2900391 94.3608398,9.10351562 92.0288086,9.10351562 C91.3725586,9.10351562 90.7749023,9.22949219 90.2358398,9.48144531 C89.6967773,9.73339844 89.2807617,10.0908203 88.987793,10.5537109 L88.987793,10.5537109 L88.8823242,10.5537109 L88.5922852,9.27929688 L86.9750977,9.27929688 L86.9750977,19 L89.0405273,19 Z M100.756348,19.1757812 C101.500488,19.1757812 102.109863,19.0688477 102.584473,18.8549805 C103.059082,18.6411133 103.530762,18.2382812 103.999512,17.6464844 L103.999512,17.6464844 L104.069824,17.6464844 L104.48291,19 L105.959473,19 L105.959473,12.4521484 C105.959473,11.2978516 105.644531,10.4511719 105.014648,9.91210938 C104.384766,9.37304688 103.45166,9.10351562 102.215332,9.10351562 C101.658691,9.10351562 101.066895,9.17529297 100.439941,9.31884766 C99.8129883,9.46240234 99.2358398,9.671875 98.7084961,9.94726562 L98.7084961,9.94726562 L99.3764648,11.4238281 C99.7983398,11.2246094 100.237793,11.0517578 100.694824,10.9052734 C101.151855,10.7587891 101.629395,10.6855469 102.127441,10.6855469 C102.736816,10.6855469 103.186523,10.8393555 103.476562,11.1469727 C103.766602,11.4545898 103.911621,11.9189453 103.911621,12.5400391 L103.911621,12.5400391 L103.911621,13.0585938 L102.23291,13.1113281 C100.709473,13.1582031 99.5756836,13.4365234 98.831543,13.9462891 C98.0874023,14.4560547 97.715332,15.2119141 97.715332,16.2138672 C97.715332,17.1572266 97.9833984,17.8867188 98.5195312,18.4023438 C99.0556641,18.9179688 99.8012695,19.1757812 100.756348,19.1757812 Z M101.406738,17.59375 C100.891113,17.59375 100.504395,17.4750977 100.246582,17.237793 C99.9887695,17.0004883 99.8598633,16.6650391 99.8598633,16.2314453 C99.8598633,15.6337891 100.081055,15.1899414 100.523438,14.8999023 C100.96582,14.6098633 101.67334,14.4472656 102.645996,14.4121094 L102.645996,14.4121094 L103.894043,14.359375 L103.894043,15.203125 C103.894043,15.9589844 103.666992,16.5463867 103.212891,16.965332 C102.758789,17.3842773 102.156738,17.59375 101.406738,17.59375 Z M111.971191,19.1757812 C112.35791,19.1757812 112.731445,19.1420898 113.091797,19.074707 C113.452148,19.0073242 113.746582,18.9238281 113.975098,18.8242188 L113.975098,18.8242188 L113.975098,17.2685547 C113.471191,17.4267578 112.967285,17.5058594 112.463379,17.5058594 C112.059082,17.5058594 111.732422,17.387207 111.483398,17.1499023 C111.234375,16.9125977 111.109863,16.5449219 111.109863,16.046875 L111.109863,16.046875 L111.109863,10.84375 L113.878418,10.84375 L113.878418,9.27929688 L111.109863,9.27929688 L111.109863,7.1171875 L109.835449,7.1171875 L109.132324,9.17382812 L107.708496,9.9296875 L107.708496,10.84375 L109.035645,10.84375 L109.035645,16.0820312 C109.035645,18.1445312 110.01416,19.1757812 111.971191,19.1757812 Z M120.162598,19.1757812 C120.824707,19.1757812 121.413574,19.1259766 121.929199,19.0263672 C122.444824,18.9267578 122.95459,18.7568359 123.458496,18.5166016 L123.458496,18.5166016 L123.458496,16.8378906 C122.890137,17.0898438 122.358398,17.2700195 121.863281,17.378418 C121.368164,17.4868164 120.833496,17.5410156 120.259277,17.5410156 C119.38623,17.5410156 118.709473,17.2875977 118.229004,16.7807617 C117.748535,16.2739258 117.493652,15.5488281 117.464355,14.6054688 L117.464355,14.6054688 L123.941895,14.6054688 L123.941895,13.4892578 C123.941895,12.1240234 123.569824,11.0517578 122.825684,10.2724609 C122.081543,9.49316406 121.067871,9.10351562 119.784668,9.10351562 C118.401855,9.10351562 117.314941,9.55761719 116.523926,10.4658203 C115.73291,11.3740234 115.337402,12.6220703 115.337402,14.2099609 C115.337402,15.7568359 115.763672,16.9711914 116.616211,17.8530273 C117.46875,18.7348633 118.650879,19.1757812 120.162598,19.1757812 Z M121.911621,13.1113281 L117.499512,13.1113281 C117.575684,12.3144531 117.811523,11.7080078 118.207031,11.2919922 C118.602539,10.8759766 119.128418,10.6679688 119.784668,10.6679688 C120.440918,10.6679688 120.956543,10.8745117 121.331543,11.2875977 C121.706543,11.7006836 121.899902,12.3085938 121.911621,13.1113281 L121.911621,13.1113281 Z" id="path-2"></path>
    </defs>
    <g id="Symbols" stroke="none" stroke-width="1" fill="none" fill-rule="evenodd">
        <g id="i/Eliminate">
            <g id="Eliminate">
                <g id="Group-12">
                    <g id="Eliminate">
                        <g id="Group-2">
                            <g id="Group-3" transform="translate(0.000000, 0.451163)">
                                <path d="M6,0 L157,0 C160.313708,-1.4968968e-15 163,2.6862915 163,6 L163,89.6640325 C163,92.977741 160.313708,95.6640325 157,95.6640325 L6,95.6640325 C2.6862915,95.6640325 4.05812251e-16,92.977741 0,89.6640325 L0,6 C-4.05812251e-16,2.6862915 2.6862915,-2.79460044e-16 6,0 Z" id="Rectangle-2" fill="url(#radialGradient-1)" fill-rule="nonzero"></path>
                                <line x1="72.840625" y1="39.7273902" x2="72.840625" y2="85.4702845" id="Line-3" stroke="#FFFFFF" stroke-width="2" stroke-linecap="square"></line>
                            </g>
                        </g>
                        <g id="noun_880307_16A085" transform="translate(22.412500, 37.596899)" fill-rule="nonzero">
                            <g id="Group">
                                <path d="M4.45558962,12.2892204 C3.67390723,12.2892204 2.97039308,12.9815708 2.97039308,13.9335527 L2.97039308,45.1758666 L25.3265094,45.1758666 C28.2187343,45.1758666 30.5637815,42.5795524 30.5637815,39.3774316 L30.5637815,13.8470089 C30.5637815,12.9815708 29.9384356,12.2026766 29.0785849,12.2026766 C28.2187343,12.2026766 27.6715566,12.9815708 27.6715566,13.8470089 L27.6715566,39.2908878 C27.6715566,40.6755887 26.6553695,41.8006582 25.4046777,41.8006582 L5.94078616,41.8006582 L5.94078616,13.8470089 C5.94078616,12.9815708 5.23727201,12.2892204 4.45558962,12.2892204 Z" id="Shape" fill="#FFFFFF"></path>
                                <path d="M1.7978695,9.69290622 L10.3963758,9.69290622 L10.3963758,9.69290622 L23.215967,9.69290622 L23.215967,9.69290622 L31.8144733,9.69290622 C32.5961556,9.69290622 33.2996698,9.00055578 33.2996698,8.04857395 C33.2996698,7.09659207 32.6743239,6.40424162 31.8144733,6.40424162 L23.215967,6.40424162 L23.215967,0.173087611 L10.3963758,0.173087611 L10.3963758,6.40424162 L1.7978695,6.40424162 C1.01618711,6.40424162 0.312672956,7.09659207 0.312672956,8.04857395 C0.312672956,9.00055578 0.938018871,9.69290622 1.7978695,9.69290622 Z M13.2886006,3.46175223 L20.2455739,3.46175223 L20.2455739,6.40424162 L13.2886006,6.40424162 L13.2886006,3.46175223 Z" id="Shape" fill="#FFFFFF"></path>
                                <path d="M12.6632547,37.3003803 L12.6632547,16.8760421 C12.6632547,16.010604 12.0379088,15.2317098 11.1780582,15.2317098 C10.3182075,15.2317098 9.69286163,15.9240603 9.69286163,16.8760421 L9.69286163,37.3003803 C9.69286163,38.1658184 10.3182075,38.9447126 11.1780582,38.9447126 C12.0379088,38.9447126 12.6632547,38.1658184 12.6632547,37.3003803 Z" id="Shape" fill="#9B9B9B"></path>
                                <path d="M18.2913679,37.3003803 L18.2913679,16.8760421 C18.2913679,16.010604 17.666022,15.2317098 16.8061714,15.2317098 C15.9463208,15.2317098 15.3209749,15.9240603 15.3209749,16.8760421 L15.3209749,37.3003803 C15.3209749,38.1658184 15.9463208,38.9447126 16.8061714,38.9447126 C17.666022,38.9447126 18.2913679,38.1658184 18.2913679,37.3003803 Z" id="Shape" stroke="#BDC3C7" fill="#BDC3C7"></path>
                                <path d="M23.8413129,37.3003803 L23.8413129,16.8760421 C23.8413129,16.010604 23.215967,15.2317098 22.3561163,15.2317098 C21.4962657,15.2317098 20.8709198,15.9240603 20.8709198,16.8760421 L20.8709198,37.3003803 C20.8709198,38.1658184 21.4962657,38.9447126 22.3561163,38.9447126 C23.215967,38.9447126 23.8413129,38.1658184 23.8413129,37.3003803 Z" id="Shape" fill="#9B9B9B"></path>
                            </g>
                        </g>
                    </g>
                    <path d="M87.9765625,54 L87.9765625,52.8105469 L84.53125,52.8105469 L84.53125,50.1210938 L87.7597656,50.1210938 L87.7597656,48.9492188 L84.53125,48.9492188 L84.53125,46.6171875 L87.9765625,46.6171875 L87.9765625,45.4335938 L83.1308594,45.4335938 L83.1308594,54 L87.9765625,54 Z M91.0585938,54 L91.0585938,50.6132812 C91.0585938,50.0390625 91.2294922,49.5722656 91.5712891,49.2128906 C91.9130859,48.8535156 92.359375,48.6738281 92.9101562,48.6738281 C93.1210938,48.6738281 93.3242188,48.6972656 93.5195312,48.7441406 L93.5195312,48.7441406 L93.6542969,47.4609375 C93.4746094,47.421875 93.2460938,47.4023438 92.96875,47.4023438 C92.5703125,47.4023438 92.1982422,47.515625 91.8525391,47.7421875 C91.5068359,47.96875 91.2265625,48.2753906 91.0117188,48.6621094 L91.0117188,48.6621094 L90.9414062,48.6621094 L90.7597656,47.5195312 L89.6816406,47.5195312 L89.6816406,54 L91.0585938,54 Z M96.4257812,54.1171875 C96.921875,54.1171875 97.328125,54.0458984 97.6445312,53.9033203 C97.9609375,53.7607422 98.2753906,53.4921875 98.5878906,53.0976562 L98.5878906,53.0976562 L98.6347656,53.0976562 L98.9101562,54 L99.8945312,54 L99.8945312,49.6347656 C99.8945312,48.8652344 99.6845703,48.3007812 99.2646484,47.9414062 C98.8447266,47.5820312 98.2226562,47.4023438 97.3984375,47.4023438 C97.0273438,47.4023438 96.6328125,47.4501953 96.2148438,47.5458984 C95.796875,47.6416016 95.4121094,47.78125 95.0605469,47.9648438 L95.0605469,47.9648438 L95.5058594,48.9492188 C95.7871094,48.8164062 96.0800781,48.7011719 96.3847656,48.6035156 C96.6894531,48.5058594 97.0078125,48.4570312 97.3398438,48.4570312 C97.7460938,48.4570312 98.0458984,48.5595703 98.2392578,48.7646484 C98.4326172,48.9697266 98.5292969,49.2792969 98.5292969,49.6933594 L98.5292969,49.6933594 L98.5292969,50.0390625 L97.4101562,50.0742188 C96.3945312,50.1054688 95.6386719,50.2910156 95.1425781,50.6308594 C94.6464844,50.9707031 94.3984375,51.4746094 94.3984375,52.1425781 C94.3984375,52.7714844 94.5771484,53.2578125 94.9345703,53.6015625 C95.2919922,53.9453125 95.7890625,54.1171875 96.4257812,54.1171875 Z M96.859375,53.0625 C96.515625,53.0625 96.2578125,52.9833984 96.0859375,52.8251953 C95.9140625,52.6669922 95.828125,52.4433594 95.828125,52.1542969 C95.828125,51.7558594 95.9755859,51.4599609 96.2705078,51.2666016 C96.5654297,51.0732422 97.0371094,50.9648438 97.6855469,50.9414062 L97.6855469,50.9414062 L98.5175781,50.90625 L98.5175781,51.46875 C98.5175781,51.9726562 98.3662109,52.3642578 98.0634766,52.6435547 C97.7607422,52.9228516 97.359375,53.0625 96.859375,53.0625 Z M103.498047,54.1171875 C104.357422,54.1171875 105.017578,53.9482422 105.478516,53.6103516 C105.939453,53.2724609 106.169922,52.7871094 106.169922,52.1542969 C106.169922,51.8417969 106.111328,51.5732422 105.994141,51.3486328 C105.876953,51.1240234 105.697266,50.9257812 105.455078,50.7539062 C105.212891,50.5820312 104.824219,50.3925781 104.289062,50.1855469 C103.652344,49.9394531 103.239258,49.7460938 103.049805,49.6054688 C102.860352,49.4648438 102.765625,49.2929688 102.765625,49.0898438 C102.765625,48.6757812 103.128906,48.46875 103.855469,48.46875 C104.332031,48.46875 104.919922,48.6132812 105.619141,48.9023438 L105.619141,48.9023438 L106.064453,47.8652344 C105.384766,47.5566406 104.664062,47.4023438 103.902344,47.4023438 C103.132812,47.4023438 102.524414,47.5556641 102.077148,47.8623047 C101.629883,48.1689453 101.40625,48.5996094 101.40625,49.1542969 C101.40625,49.6152344 101.538086,49.9902344 101.801758,50.2792969 C102.06543,50.5683594 102.570312,50.8574219 103.316406,51.1464844 C103.699219,51.2949219 103.998047,51.4277344 104.212891,51.5449219 C104.427734,51.6621094 104.582031,51.7753906 104.675781,51.8847656 C104.769531,51.9941406 104.816406,52.1308594 104.816406,52.2949219 C104.816406,52.8066406 104.392578,53.0625 103.544922,53.0625 C102.888672,53.0625 102.179688,52.8867188 101.417969,52.5351562 L101.417969,52.5351562 L101.417969,53.7246094 C101.941406,53.9863281 102.634766,54.1171875 103.498047,54.1171875 Z M110.488281,54.1171875 C110.929688,54.1171875 111.322266,54.0839844 111.666016,54.0175781 C112.009766,53.9511719 112.349609,53.8378906 112.685547,53.6777344 L112.685547,53.6777344 L112.685547,52.5585938 C112.306641,52.7265625 111.952148,52.8466797 111.62207,52.9189453 C111.291992,52.9912109 110.935547,53.0273438 110.552734,53.0273438 C109.970703,53.0273438 109.519531,52.8583984 109.199219,52.5205078 C108.878906,52.1826172 108.708984,51.6992188 108.689453,51.0703125 L108.689453,51.0703125 L113.007812,51.0703125 L113.007812,50.3261719 C113.007812,49.4160156 112.759766,48.7011719 112.263672,48.1816406 C111.767578,47.6621094 111.091797,47.4023438 110.236328,47.4023438 C109.314453,47.4023438 108.589844,47.7050781 108.0625,48.3105469 C107.535156,48.9160156 107.271484,49.7480469 107.271484,50.8066406 C107.271484,51.8378906 107.555664,52.6474609 108.124023,53.2353516 C108.692383,53.8232422 109.480469,54.1171875 110.488281,54.1171875 Z M111.654297,50.0742188 L108.712891,50.0742188 C108.763672,49.5429688 108.920898,49.1386719 109.18457,48.8613281 C109.448242,48.5839844 109.798828,48.4453125 110.236328,48.4453125 C110.673828,48.4453125 111.017578,48.5830078 111.267578,48.8583984 C111.517578,49.1337891 111.646484,49.5390625 111.654297,50.0742188 L111.654297,50.0742188 Z M119.066406,54 L119.066406,50.7714844 C119.066406,49.9628906 119.201172,49.3867188 119.470703,49.0429688 C119.740234,48.6992188 120.166016,48.5273438 120.748047,48.5273438 C121.185547,48.5273438 121.504883,48.6503906 121.706055,48.8964844 C121.907227,49.1425781 122.007812,49.515625 122.007812,50.015625 L122.007812,50.015625 L122.007812,54 L123.390625,54 L123.390625,49.7753906 C123.390625,48.1933594 122.613281,47.4023438 121.058594,47.4023438 C120.621094,47.4023438 120.222656,47.4863281 119.863281,47.6542969 C119.503906,47.8222656 119.226562,48.0605469 119.03125,48.3691406 L119.03125,48.3691406 L118.960938,48.3691406 L118.767578,47.5195312 L117.689453,47.5195312 L117.689453,54 L119.066406,54 Z M127.972656,54.1171875 C128.941406,54.1171875 129.697266,53.8203125 130.240234,53.2265625 C130.783203,52.6328125 131.054688,51.8066406 131.054688,50.7480469 C131.054688,49.7246094 130.78125,48.9111328 130.234375,48.3076172 C129.6875,47.7041016 128.945312,47.4023438 128.007812,47.4023438 C127.027344,47.4023438 126.267578,47.6972656 125.728516,48.2871094 C125.189453,48.8769531 124.919922,49.6972656 124.919922,50.7480469 C124.919922,51.4238281 125.044922,52.0175781 125.294922,52.5292969 C125.544922,53.0410156 125.902344,53.4335938 126.367188,53.7070312 C126.832031,53.9804688 127.367188,54.1171875 127.972656,54.1171875 Z M127.996094,52.9921875 C126.890625,52.9921875 126.337891,52.2441406 126.337891,50.7480469 C126.337891,50.0332031 126.467773,49.484375 126.727539,49.1015625 C126.987305,48.71875 127.40625,48.5273438 127.984375,48.5273438 C129.085938,48.5273438 129.636719,49.2675781 129.636719,50.7480469 C129.636719,52.2441406 129.089844,52.9921875 127.996094,52.9921875 Z M134.013672,54 L134.013672,50.7714844 C134.013672,49.9628906 134.148438,49.3867188 134.417969,49.0429688 C134.6875,48.6992188 135.113281,48.5273438 135.695312,48.5273438 C136.132812,48.5273438 136.452148,48.6503906 136.65332,48.8964844 C136.854492,49.1425781 136.955078,49.515625 136.955078,50.015625 L136.955078,50.015625 L136.955078,54 L138.337891,54 L138.337891,49.7753906 C138.337891,48.1933594 137.560547,47.4023438 136.005859,47.4023438 C135.568359,47.4023438 135.169922,47.4863281 134.810547,47.6542969 C134.451172,47.8222656 134.173828,48.0605469 133.978516,48.3691406 L133.978516,48.3691406 L133.908203,48.3691406 L133.714844,47.5195312 L132.636719,47.5195312 L132.636719,54 L134.013672,54 Z M142.703125,51.3691406 L142.703125,50.1972656 L139.691406,50.1972656 L139.691406,51.3691406 L142.703125,51.3691406 Z M84.3613281,66 L84.3613281,62.6132812 C84.3613281,62.0390625 84.5322266,61.5722656 84.8740234,61.2128906 C85.2158203,60.8535156 85.6621094,60.6738281 86.2128906,60.6738281 C86.4238281,60.6738281 86.6269531,60.6972656 86.8222656,60.7441406 L86.8222656,60.7441406 L86.9570312,59.4609375 C86.7773438,59.421875 86.5488281,59.4023438 86.2714844,59.4023438 C85.8730469,59.4023438 85.5009766,59.515625 85.1552734,59.7421875 C84.8095703,59.96875 84.5292969,60.2753906 84.3144531,60.6621094 L84.3144531,60.6621094 L84.2441406,60.6621094 L84.0625,59.5195312 L82.984375,59.5195312 L82.984375,66 L84.3613281,66 Z M90.9882812,66.1171875 C91.4296875,66.1171875 91.8222656,66.0839844 92.1660156,66.0175781 C92.5097656,65.9511719 92.8496094,65.8378906 93.1855469,65.6777344 L93.1855469,65.6777344 L93.1855469,64.5585938 C92.8066406,64.7265625 92.4521484,64.8466797 92.1220703,64.9189453 C91.7919922,64.9912109 91.4355469,65.0273438 91.0527344,65.0273438 C90.4707031,65.0273438 90.0195312,64.8583984 89.6992188,64.5205078 C89.3789062,64.1826172 89.2089844,63.6992188 89.1894531,63.0703125 L89.1894531,63.0703125 L93.5078125,63.0703125 L93.5078125,62.3261719 C93.5078125,61.4160156 93.2597656,60.7011719 92.7636719,60.1816406 C92.2675781,59.6621094 91.5917969,59.4023438 90.7363281,59.4023438 C89.8144531,59.4023438 89.0898438,59.7050781 88.5625,60.3105469 C88.0351562,60.9160156 87.7714844,61.7480469 87.7714844,62.8066406 C87.7714844,63.8378906 88.0556641,64.6474609 88.6240234,65.2353516 C89.1923828,65.8232422 89.9804688,66.1171875 90.9882812,66.1171875 Z M92.1542969,62.0742188 L89.2128906,62.0742188 C89.2636719,61.5429688 89.4208984,61.1386719 89.6845703,60.8613281 C89.9482422,60.5839844 90.2988281,60.4453125 90.7363281,60.4453125 C91.1738281,60.4453125 91.5175781,60.5830078 91.7675781,60.8583984 C92.0175781,61.1337891 92.1464844,61.5390625 92.1542969,62.0742188 L92.1542969,62.0742188 Z M96.4492188,66 L96.4492188,56.8828125 L95.0722656,56.8828125 L95.0722656,66 L96.4492188,66 Z M101.248047,66.1171875 C101.689453,66.1171875 102.082031,66.0839844 102.425781,66.0175781 C102.769531,65.9511719 103.109375,65.8378906 103.445312,65.6777344 L103.445312,65.6777344 L103.445312,64.5585938 C103.066406,64.7265625 102.711914,64.8466797 102.381836,64.9189453 C102.051758,64.9912109 101.695312,65.0273438 101.3125,65.0273438 C100.730469,65.0273438 100.279297,64.8583984 99.9589844,64.5205078 C99.6386719,64.1826172 99.46875,63.6992188 99.4492188,63.0703125 L99.4492188,63.0703125 L103.767578,63.0703125 L103.767578,62.3261719 C103.767578,61.4160156 103.519531,60.7011719 103.023438,60.1816406 C102.527344,59.6621094 101.851562,59.4023438 100.996094,59.4023438 C100.074219,59.4023438 99.3496094,59.7050781 98.8222656,60.3105469 C98.2949219,60.9160156 98.03125,61.7480469 98.03125,62.8066406 C98.03125,63.8378906 98.3154297,64.6474609 98.8837891,65.2353516 C99.4521484,65.8232422 100.240234,66.1171875 101.248047,66.1171875 Z M102.414062,62.0742188 L99.4726562,62.0742188 C99.5234375,61.5429688 99.6806641,61.1386719 99.9443359,60.8613281 C100.208008,60.5839844 100.558594,60.4453125 100.996094,60.4453125 C101.433594,60.4453125 101.777344,60.5830078 102.027344,60.8583984 C102.277344,61.1337891 102.40625,61.5390625 102.414062,62.0742188 L102.414062,62.0742188 Z M108.296875,66 L110.769531,59.5195312 L109.304688,59.5195312 L107.986328,63.2871094 C107.748047,64.0292969 107.611328,64.5410156 107.576172,64.8222656 L107.576172,64.8222656 L107.529297,64.8222656 C107.482422,64.4316406 107.345703,63.9199219 107.119141,63.2871094 L107.119141,63.2871094 L105.800781,59.5195312 L104.347656,59.5195312 L106.808594,66 L108.296875,66 Z M113.324219,66.1171875 C113.820312,66.1171875 114.226562,66.0458984 114.542969,65.9033203 C114.859375,65.7607422 115.173828,65.4921875 115.486328,65.0976562 L115.486328,65.0976562 L115.533203,65.0976562 L115.808594,66 L116.792969,66 L116.792969,61.6347656 C116.792969,60.8652344 116.583008,60.3007812 116.163086,59.9414062 C115.743164,59.5820312 115.121094,59.4023438 114.296875,59.4023438 C113.925781,59.4023438 113.53125,59.4501953 113.113281,59.5458984 C112.695312,59.6416016 112.310547,59.78125 111.958984,59.9648438 L111.958984,59.9648438 L112.404297,60.9492188 C112.685547,60.8164062 112.978516,60.7011719 113.283203,60.6035156 C113.587891,60.5058594 113.90625,60.4570312 114.238281,60.4570312 C114.644531,60.4570312 114.944336,60.5595703 115.137695,60.7646484 C115.331055,60.9697266 115.427734,61.2792969 115.427734,61.6933594 L115.427734,61.6933594 L115.427734,62.0390625 L114.308594,62.0742188 C113.292969,62.1054688 112.537109,62.2910156 112.041016,62.6308594 C111.544922,62.9707031 111.296875,63.4746094 111.296875,64.1425781 C111.296875,64.7714844 111.475586,65.2578125 111.833008,65.6015625 C112.19043,65.9453125 112.6875,66.1171875 113.324219,66.1171875 Z M113.757812,65.0625 C113.414062,65.0625 113.15625,64.9833984 112.984375,64.8251953 C112.8125,64.6669922 112.726562,64.4433594 112.726562,64.1542969 C112.726562,63.7558594 112.874023,63.4599609 113.168945,63.2666016 C113.463867,63.0732422 113.935547,62.9648438 114.583984,62.9414062 L114.583984,62.9414062 L115.416016,62.90625 L115.416016,63.46875 C115.416016,63.9726562 115.264648,64.3642578 114.961914,64.6435547 C114.65918,64.9228516 114.257812,65.0625 113.757812,65.0625 Z M120.091797,66 L120.091797,62.7714844 C120.091797,61.9628906 120.226562,61.3867188 120.496094,61.0429688 C120.765625,60.6992188 121.191406,60.5273438 121.773438,60.5273438 C122.210938,60.5273438 122.530273,60.6503906 122.731445,60.8964844 C122.932617,61.1425781 123.033203,61.515625 123.033203,62.015625 L123.033203,62.015625 L123.033203,66 L124.416016,66 L124.416016,61.7753906 C124.416016,60.1933594 123.638672,59.4023438 122.083984,59.4023438 C121.646484,59.4023438 121.248047,59.4863281 120.888672,59.6542969 C120.529297,59.8222656 120.251953,60.0605469 120.056641,60.3691406 L120.056641,60.3691406 L119.986328,60.3691406 L119.792969,59.5195312 L118.714844,59.5195312 L118.714844,66 L120.091797,66 Z M128.417969,66.1171875 C128.675781,66.1171875 128.924805,66.0947266 129.165039,66.0498047 C129.405273,66.0048828 129.601562,65.9492188 129.753906,65.8828125 L129.753906,65.8828125 L129.753906,64.8457031 C129.417969,64.9511719 129.082031,65.0039062 128.746094,65.0039062 C128.476562,65.0039062 128.258789,64.9248047 128.092773,64.7666016 C127.926758,64.6083984 127.84375,64.3632812 127.84375,64.03125 L127.84375,64.03125 L127.84375,60.5625 L129.689453,60.5625 L129.689453,59.5195312 L127.84375,59.5195312 L127.84375,58.078125 L126.994141,58.078125 L126.525391,59.4492188 L125.576172,59.953125 L125.576172,60.5625 L126.460938,60.5625 L126.460938,64.0546875 C126.460938,65.4296875 127.113281,66.1171875 128.417969,66.1171875 Z M83.6816406,70.5585938 C83.9238281,70.5585938 84.1123047,70.4912109 84.2470703,70.3564453 C84.3818359,70.2216797 84.4492188,70.0371094 84.4492188,69.8027344 C84.4492188,69.5566406 84.3818359,69.3671875 84.2470703,69.234375 C84.1123047,69.1015625 83.9238281,69.0351562 83.6816406,69.0351562 C83.4316406,69.0351562 83.2392578,69.1015625 83.1044922,69.234375 C82.9697266,69.3671875 82.9023438,69.5566406 82.9023438,69.8027344 C82.9023438,70.0371094 82.9697266,70.2216797 83.1044922,70.3564453 C83.2392578,70.4912109 83.4316406,70.5585938 83.6816406,70.5585938 Z M84.3613281,78 L84.3613281,71.5195312 L82.984375,71.5195312 L82.984375,78 L84.3613281,78 Z M87.7070312,78 L87.7070312,74.7714844 C87.7070312,73.9628906 87.8417969,73.3867188 88.1113281,73.0429688 C88.3808594,72.6992188 88.8066406,72.5273438 89.3886719,72.5273438 C89.8261719,72.5273438 90.1455078,72.6503906 90.3466797,72.8964844 C90.5478516,73.1425781 90.6484375,73.515625 90.6484375,74.015625 L90.6484375,74.015625 L90.6484375,78 L92.03125,78 L92.03125,73.7753906 C92.03125,72.1933594 91.2539062,71.4023438 89.6992188,71.4023438 C89.2617188,71.4023438 88.8632812,71.4863281 88.5039062,71.6542969 C88.1445312,71.8222656 87.8671875,72.0605469 87.671875,72.3691406 L87.671875,72.3691406 L87.6015625,72.3691406 L87.4082031,71.5195312 L86.3300781,71.5195312 L86.3300781,78 L87.7070312,78 Z M95.6171875,78 L95.6171875,72.5625 L97.1992188,72.5625 L97.1992188,71.5195312 L95.6171875,71.5195312 L95.6171875,71.0976562 C95.6171875,70.7109375 95.6884766,70.4208984 95.8310547,70.2275391 C95.9736328,70.0341797 96.2011719,69.9375 96.5136719,69.9375 C96.8222656,69.9375 97.1464844,69.9921875 97.4863281,70.1015625 L97.4863281,70.1015625 L97.8496094,69.0585938 C97.3808594,68.8984375 96.9042969,68.8183594 96.4199219,68.8183594 C95.6816406,68.8183594 95.1328125,69.0029297 94.7734375,69.3720703 C94.4140625,69.7412109 94.234375,70.3085938 94.234375,71.0742188 L94.234375,71.0742188 L94.234375,71.4960938 L93.1679688,71.9179688 L93.1679688,72.5625 L94.234375,72.5625 L94.234375,78 L95.6171875,78 Z M100.966797,78.1171875 C101.935547,78.1171875 102.691406,77.8203125 103.234375,77.2265625 C103.777344,76.6328125 104.048828,75.8066406 104.048828,74.7480469 C104.048828,73.7246094 103.775391,72.9111328 103.228516,72.3076172 C102.681641,71.7041016 101.939453,71.4023438 101.001953,71.4023438 C100.021484,71.4023438 99.2617188,71.6972656 98.7226562,72.2871094 C98.1835938,72.8769531 97.9140625,73.6972656 97.9140625,74.7480469 C97.9140625,75.4238281 98.0390625,76.0175781 98.2890625,76.5292969 C98.5390625,77.0410156 98.8964844,77.4335938 99.3613281,77.7070312 C99.8261719,77.9804688 100.361328,78.1171875 100.966797,78.1171875 Z M100.990234,76.9921875 C99.8847656,76.9921875 99.3320312,76.2441406 99.3320312,74.7480469 C99.3320312,74.0332031 99.4619141,73.484375 99.7216797,73.1015625 C99.9814453,72.71875 100.400391,72.5273438 100.978516,72.5273438 C102.080078,72.5273438 102.630859,73.2675781 102.630859,74.7480469 C102.630859,76.2441406 102.083984,76.9921875 100.990234,76.9921875 Z M107.007812,78 L107.007812,74.6132812 C107.007812,74.0390625 107.178711,73.5722656 107.520508,73.2128906 C107.862305,72.8535156 108.308594,72.6738281 108.859375,72.6738281 C109.070312,72.6738281 109.273438,72.6972656 109.46875,72.7441406 L109.46875,72.7441406 L109.603516,71.4609375 C109.423828,71.421875 109.195312,71.4023438 108.917969,71.4023438 C108.519531,71.4023438 108.147461,71.515625 107.801758,71.7421875 C107.456055,71.96875 107.175781,72.2753906 106.960938,72.6621094 L106.960938,72.6621094 L106.890625,72.6621094 L106.708984,71.5195312 L105.630859,71.5195312 L105.630859,78 L107.007812,78 Z M112.181641,78 L112.181641,74.7714844 C112.181641,73.9667969 112.305664,73.3916016 112.553711,73.0458984 C112.801758,72.7001953 113.191406,72.5273438 113.722656,72.5273438 C114.121094,72.5273438 114.414062,72.6494141 114.601562,72.8935547 C114.789062,73.1376953 114.882812,73.5078125 114.882812,74.0039062 L114.882812,74.0039062 L114.882812,78 L116.265625,78 L116.265625,74.5664062 C116.265625,73.875 116.389648,73.3623047 116.637695,73.0283203 C116.885742,72.6943359 117.277344,72.5273438 117.8125,72.5273438 C118.210938,72.5273438 118.504883,72.6494141 118.694336,72.8935547 C118.883789,73.1376953 118.978516,73.5078125 118.978516,74.0039062 L118.978516,74.0039062 L118.978516,78 L120.355469,78 L120.355469,73.7753906 C120.355469,72.9746094 120.178711,72.3789062 119.825195,71.9882812 C119.47168,71.5976562 118.908203,71.4023438 118.134766,71.4023438 C117.685547,71.4023438 117.287109,71.4921875 116.939453,71.671875 C116.591797,71.8515625 116.322266,72.1015625 116.130859,72.421875 L116.130859,72.421875 L116.037109,72.421875 C115.712891,71.7421875 115.052734,71.4023438 114.056641,71.4023438 C113.646484,71.4023438 113.270508,71.4863281 112.928711,71.6542969 C112.586914,71.8222656 112.326172,72.0605469 112.146484,72.3691406 L112.146484,72.3691406 L112.076172,72.3691406 L111.882812,71.5195312 L110.804688,71.5195312 L110.804688,78 L112.181641,78 Z M123.847656,78.1171875 C124.34375,78.1171875 124.75,78.0458984 125.066406,77.9033203 C125.382812,77.7607422 125.697266,77.4921875 126.009766,77.0976562 L126.009766,77.0976562 L126.056641,77.0976562 L126.332031,78 L127.316406,78 L127.316406,73.6347656 C127.316406,72.8652344 127.106445,72.3007812 126.686523,71.9414062 C126.266602,71.5820312 125.644531,71.4023438 124.820312,71.4023438 C124.449219,71.4023438 124.054688,71.4501953 123.636719,71.5458984 C123.21875,71.6416016 122.833984,71.78125 122.482422,71.9648438 L122.482422,71.9648438 L122.927734,72.9492188 C123.208984,72.8164062 123.501953,72.7011719 123.806641,72.6035156 C124.111328,72.5058594 124.429688,72.4570312 124.761719,72.4570312 C125.167969,72.4570312 125.467773,72.5595703 125.661133,72.7646484 C125.854492,72.9697266 125.951172,73.2792969 125.951172,73.6933594 L125.951172,73.6933594 L125.951172,74.0390625 L124.832031,74.0742188 C123.816406,74.1054688 123.060547,74.2910156 122.564453,74.6308594 C122.068359,74.9707031 121.820312,75.4746094 121.820312,76.1425781 C121.820312,76.7714844 121.999023,77.2578125 122.356445,77.6015625 C122.713867,77.9453125 123.210938,78.1171875 123.847656,78.1171875 Z M124.28125,77.0625 C123.9375,77.0625 123.679688,76.9833984 123.507812,76.8251953 C123.335938,76.6669922 123.25,76.4433594 123.25,76.1542969 C123.25,75.7558594 123.397461,75.4599609 123.692383,75.2666016 C123.987305,75.0732422 124.458984,74.9648438 125.107422,74.9414062 L125.107422,74.9414062 L125.939453,74.90625 L125.939453,75.46875 C125.939453,75.9726562 125.788086,76.3642578 125.485352,76.6435547 C125.182617,76.9228516 124.78125,77.0625 124.28125,77.0625 Z M131.324219,78.1171875 C131.582031,78.1171875 131.831055,78.0947266 132.071289,78.0498047 C132.311523,78.0048828 132.507812,77.9492188 132.660156,77.8828125 L132.660156,77.8828125 L132.660156,76.8457031 C132.324219,76.9511719 131.988281,77.0039062 131.652344,77.0039062 C131.382812,77.0039062 131.165039,76.9248047 130.999023,76.7666016 C130.833008,76.6083984 130.75,76.3632812 130.75,76.03125 L130.75,76.03125 L130.75,72.5625 L132.595703,72.5625 L132.595703,71.5195312 L130.75,71.5195312 L130.75,70.078125 L129.900391,70.078125 L129.431641,71.4492188 L128.482422,71.953125 L128.482422,72.5625 L129.367188,72.5625 L129.367188,76.0546875 C129.367188,77.4296875 130.019531,78.1171875 131.324219,78.1171875 Z M134.652344,70.5585938 C134.894531,70.5585938 135.083008,70.4912109 135.217773,70.3564453 C135.352539,70.2216797 135.419922,70.0371094 135.419922,69.8027344 C135.419922,69.5566406 135.352539,69.3671875 135.217773,69.234375 C135.083008,69.1015625 134.894531,69.0351562 134.652344,69.0351562 C134.402344,69.0351562 134.209961,69.1015625 134.075195,69.234375 C133.94043,69.3671875 133.873047,69.5566406 133.873047,69.8027344 C133.873047,70.0371094 133.94043,70.2216797 134.075195,70.3564453 C134.209961,70.4912109 134.402344,70.5585938 134.652344,70.5585938 Z M135.332031,78 L135.332031,71.5195312 L133.955078,71.5195312 L133.955078,78 L135.332031,78 Z M139.966797,78.1171875 C140.935547,78.1171875 141.691406,77.8203125 142.234375,77.2265625 C142.777344,76.6328125 143.048828,75.8066406 143.048828,74.7480469 C143.048828,73.7246094 142.775391,72.9111328 142.228516,72.3076172 C141.681641,71.7041016 140.939453,71.4023438 140.001953,71.4023438 C139.021484,71.4023438 138.261719,71.6972656 137.722656,72.2871094 C137.183594,72.8769531 136.914062,73.6972656 136.914062,74.7480469 C136.914062,75.4238281 137.039062,76.0175781 137.289062,76.5292969 C137.539062,77.0410156 137.896484,77.4335938 138.361328,77.7070312 C138.826172,77.9804688 139.361328,78.1171875 139.966797,78.1171875 Z M139.990234,76.9921875 C138.884766,76.9921875 138.332031,76.2441406 138.332031,74.7480469 C138.332031,74.0332031 138.461914,73.484375 138.72168,73.1015625 C138.981445,72.71875 139.400391,72.5273438 139.978516,72.5273438 C141.080078,72.5273438 141.630859,73.2675781 141.630859,74.7480469 C141.630859,76.2441406 141.083984,76.9921875 139.990234,76.9921875 Z M146.007812,78 L146.007812,74.7714844 C146.007812,73.9628906 146.142578,73.3867188 146.412109,73.0429688 C146.681641,72.6992188 147.107422,72.5273438 147.689453,72.5273438 C148.126953,72.5273438 148.446289,72.6503906 148.647461,72.8964844 C148.848633,73.1425781 148.949219,73.515625 148.949219,74.015625 L148.949219,74.015625 L148.949219,78 L150.332031,78 L150.332031,73.7753906 C150.332031,72.1933594 149.554688,71.4023438 148,71.4023438 C147.5625,71.4023438 147.164062,71.4863281 146.804688,71.6542969 C146.445312,71.8222656 146.167969,72.0605469 145.972656,72.3691406 L145.972656,72.3691406 L145.902344,72.3691406 L145.708984,71.5195312 L144.630859,71.5195312 L144.630859,78 L146.007812,78 Z M152.910156,78.1699219 C153.191406,78.1699219 153.407227,78.0888672 153.557617,77.9267578 C153.708008,77.7646484 153.783203,77.5449219 153.783203,77.2675781 C153.783203,76.9941406 153.708984,76.7783203 153.560547,76.6201172 C153.412109,76.4619141 153.195312,76.3828125 152.910156,76.3828125 C152.628906,76.3828125 152.414062,76.4589844 152.265625,76.6113281 C152.117188,76.7636719 152.042969,76.9824219 152.042969,77.2675781 C152.042969,77.5488281 152.117188,77.7695312 152.265625,77.9296875 C152.414062,78.0898438 152.628906,78.1699219 152.910156,78.1699219 Z" id="Erasenon-relevantinformation." fill="#FFFFFF" fill-rule="nonzero"></path>
                </g>
                <line x1="2" y1="27.25" x2="161" y2="27.25" id="Line-2" stroke="#FFFFFF" stroke-width="4" stroke-linecap="square"></line>
                <g fill-rule="nonzero">
                    <use fill="#000000" xlink:href="#path-2"></use>
                    <use fill="#FFFFFF" xlink:href="#path-2"></use>
                </g>
            </g>
        </g>
    </g>
</svg>