<?xml version="1.0" encoding="UTF-8"?>
<svg width="163px" height="97px" viewBox="0 0 163 97" version="1.1" xmlns="http://www.w3.org/2000/svg" xmlns:xlink="http://www.w3.org/1999/xlink">
    <!-- Generator: Sketch 62 (91390) - https://sketch.com -->
    <title>Exemplify</title>
    <desc>Created with Sketch.</desc>
    <defs>
        <radialGradient cx="26.6602155%" cy="59.9094438%" fx="26.6602155%" fy="59.9094438%" r="35.133316%" gradientTransform="translate(0.266602,0.599094),scale(0.595092,1.000000),rotate(-90.000000),translate(-0.266602,-0.599094)" id="radialGradient-1">
            <stop stop-color="#F9E30E" offset="0%"></stop>
            <stop stop-color="#F1C206" offset="100%"></stop>
            <stop stop-color="#F1C206" offset="100%"></stop>
        </radialGradient>
        <path d="M20.7539062,15 L20.7539062,13.0175781 L15.0117188,13.0175781 L15.0117188,8.53515625 L20.3925781,8.53515625 L20.3925781,6.58203125 L15.0117188,6.58203125 L15.0117188,2.6953125 L20.7539062,2.6953125 L20.7539062,0.72265625 L12.6777344,0.72265625 L12.6777344,15 L20.7539062,15 Z M24.796875,15 L27.453125,10.9570312 L30.1191406,15 L32.7167969,15 L28.8984375,9.48242188 L32.53125,4.19921875 L29.9335938,4.19921875 L27.453125,7.97851562 L24.9921875,4.19921875 L22.375,4.19921875 L25.9980469,9.48242188 L22.1992188,15 L24.796875,15 Z M39.328125,15.1953125 C40.0638021,15.1953125 40.718099,15.139974 41.2910156,15.0292969 C41.8639323,14.9186198 42.4303385,14.7298177 42.9902344,14.4628906 L42.9902344,14.4628906 L42.9902344,12.5976562 C42.358724,12.8776042 41.7679036,13.0777995 41.2177734,13.1982422 C40.6676432,13.3186849 40.0735677,13.3789062 39.4355469,13.3789062 C38.4654948,13.3789062 37.7135417,13.0973307 37.1796875,12.5341797 C36.6458333,11.9710286 36.3626302,11.1653646 36.3300781,10.1171875 L36.3300781,10.1171875 L43.5273438,10.1171875 L43.5273438,8.87695312 C43.5273438,7.36002604 43.1139323,6.16861979 42.2871094,5.30273438 C41.4602865,4.43684896 40.3339844,4.00390625 38.9082031,4.00390625 C37.3717448,4.00390625 36.1640625,4.50846354 35.2851562,5.51757812 C34.40625,6.52669271 33.9667969,7.91341146 33.9667969,9.67773438 C33.9667969,11.3964844 34.4404297,12.7457682 35.3876953,13.7255859 C36.3349609,14.7054036 37.6484375,15.1953125 39.328125,15.1953125 Z M41.2714844,8.45703125 L36.3691406,8.45703125 C36.453776,7.57161458 36.7158203,6.89778646 37.1552734,6.43554688 C37.5947266,5.97330729 38.1790365,5.7421875 38.9082031,5.7421875 C39.6373698,5.7421875 40.2102865,5.97167969 40.6269531,6.43066406 C41.0436198,6.88964844 41.2584635,7.56510417 41.2714844,8.45703125 L41.2714844,8.45703125 Z M48.4296875,15 L48.4296875,9.61914062 C48.4296875,8.27799479 48.6363932,7.31933594 49.0498047,6.74316406 C49.4632161,6.16699219 50.1126302,5.87890625 50.9980469,5.87890625 C51.6621094,5.87890625 52.1503906,6.08235677 52.4628906,6.48925781 C52.7753906,6.89615885 52.9316406,7.51302083 52.9316406,8.33984375 L52.9316406,8.33984375 L52.9316406,15 L55.2363281,15 L55.2363281,9.27734375 C55.2363281,8.125 55.4430339,7.27050781 55.8564453,6.71386719 C56.2698568,6.15722656 56.922526,5.87890625 57.8144531,5.87890625 C58.4785156,5.87890625 58.9684245,6.08235677 59.2841797,6.48925781 C59.5999349,6.89615885 59.7578125,7.51302083 59.7578125,8.33984375 L59.7578125,8.33984375 L59.7578125,15 L62.0527344,15 L62.0527344,7.95898438 C62.0527344,6.62434896 61.758138,5.63151042 61.1689453,4.98046875 C60.5797526,4.32942708 59.640625,4.00390625 58.3515625,4.00390625 C57.6028646,4.00390625 56.9388021,4.15364583 56.359375,4.453125 C55.7799479,4.75260417 55.3307292,5.16927083 55.0117188,5.703125 L55.0117188,5.703125 L54.8554688,5.703125 C54.3151042,4.5703125 53.2148438,4.00390625 51.5546875,4.00390625 C50.8710938,4.00390625 50.2444661,4.14388021 49.6748047,4.42382812 C49.1051432,4.70377604 48.6705729,5.10091146 48.3710938,5.61523438 L48.3710938,5.61523438 L48.2539062,5.61523438 L47.9316406,4.19921875 L46.1347656,4.19921875 L46.1347656,15 L48.4296875,15 Z M67.5507812,19.8046875 L67.5507812,15.3808594 C67.5507812,15.1855469 67.5052083,14.6321615 67.4140625,13.7207031 L67.4140625,13.7207031 L67.5507812,13.7207031 C68.3059896,14.703776 69.3671875,15.1953125 70.734375,15.1953125 C72.0820312,15.1953125 73.1383464,14.7005208 73.9033203,13.7109375 C74.6682943,12.7213542 75.0507812,11.344401 75.0507812,9.58007812 C75.0507812,7.81575521 74.6748047,6.4453125 73.9228516,5.46875 C73.1708984,4.4921875 72.1210938,4.00390625 70.7734375,4.00390625 C69.3411458,4.00390625 68.2669271,4.55078125 67.5507812,5.64453125 L67.5507812,5.64453125 L67.4335938,5.64453125 C67.2708333,4.8828125 67.1634115,4.40104167 67.1113281,4.19921875 L67.1113281,4.19921875 L65.2558594,4.19921875 L65.2558594,19.8046875 L67.5507812,19.8046875 Z M70.2167969,13.3203125 C69.2727865,13.3203125 68.5924479,13.0257161 68.1757812,12.4365234 C67.7591146,11.8473307 67.5507812,10.8951823 67.5507812,9.58007812 L67.5507812,9.58007812 L67.5507812,9.23828125 C67.5507812,8.06640625 67.7607422,7.21354167 68.1806641,6.6796875 C68.6005859,6.14583333 69.266276,5.87890625 70.1777344,5.87890625 C71.0045573,5.87890625 71.6311849,6.18977865 72.0576172,6.81152344 C72.4840495,7.43326823 72.6972656,8.34960938 72.6972656,9.56054688 C72.6972656,10.764974 72.4824219,11.6927083 72.0527344,12.34375 C71.6230469,12.9947917 71.0110677,13.3203125 70.2167969,13.3203125 Z M80.0117188,15 L80.0117188,-0.1953125 L77.7167969,-0.1953125 L77.7167969,15 L80.0117188,15 Z M84.4550781,2.59765625 C84.858724,2.59765625 85.1728516,2.48535156 85.3974609,2.26074219 C85.6220703,2.03613281 85.734375,1.72851562 85.734375,1.33789062 C85.734375,0.927734375 85.6220703,0.611979167 85.3974609,0.390625 C85.1728516,0.169270833 84.858724,0.05859375 84.4550781,0.05859375 C84.0384115,0.05859375 83.7177734,0.169270833 83.4931641,0.390625 C83.2685547,0.611979167 83.15625,0.927734375 83.15625,1.33789062 C83.15625,1.72851562 83.2685547,2.03613281 83.4931641,2.26074219 C83.7177734,2.48535156 84.0384115,2.59765625 84.4550781,2.59765625 Z M85.5878906,15 L85.5878906,4.19921875 L83.2929688,4.19921875 L83.2929688,15 L85.5878906,15 Z M91.6523438,15 L91.6523438,5.9375 L94.2890625,5.9375 L94.2890625,4.19921875 L91.6523438,4.19921875 L91.6523438,3.49609375 C91.6523438,2.8515625 91.7711589,2.36816406 92.0087891,2.04589844 C92.2464193,1.72363281 92.625651,1.5625 93.1464844,1.5625 C93.6608073,1.5625 94.2011719,1.65364583 94.7675781,1.8359375 L94.7675781,1.8359375 L95.3730469,0.09765625 C94.5917969,-0.169270833 93.797526,-0.302734375 92.9902344,-0.302734375 C91.7597656,-0.302734375 90.8450521,0.0048828125 90.2460938,0.620117188 C89.6471354,1.23535156 89.3476562,2.18098958 89.3476562,3.45703125 L89.3476562,3.45703125 L89.3476562,4.16015625 L87.5703125,4.86328125 L87.5703125,5.9375 L89.3476562,5.9375 L89.3476562,15 L91.6523438,15 Z M96.3886719,19.8046875 C98.3483073,19.8046875 99.7480469,18.6816406 100.587891,16.4355469 L100.587891,16.4355469 L105.207031,4.19921875 L102.726562,4.19921875 C101.229167,8.54166667 100.402344,10.9684245 100.246094,11.4794922 C100.089844,11.9905599 99.9824219,12.4251302 99.9238281,12.7832031 L99.9238281,12.7832031 L99.8457031,12.7832031 C99.735026,12.014974 99.5136719,11.1946615 99.1816406,10.3222656 L99.1816406,10.3222656 L96.984375,4.19921875 L94.484375,4.19921875 L98.8203125,15 L98.4199219,16.015625 C97.9707031,17.2981771 97.1927083,17.9394531 96.0859375,17.9394531 C95.6432292,17.9394531 95.249349,17.9003906 94.9042969,17.8222656 L94.9042969,17.8222656 L94.9042969,19.6386719 C95.3860677,19.749349 95.8808594,19.8046875 96.3886719,19.8046875 Z" id="path-2"></path>
        <polygon id="path-3" points="0.494918325 18.6177907 26.9686389 18.6177907 18.6265699 0.278140415 11.4816152 10.5653578 7.8868421 5.86149698"></polygon>
    </defs>
    <g id="Symbols" stroke="none" stroke-width="1" fill="none" fill-rule="evenodd">
        <g id="i/Exemplify">
            <g id="Exemplify">
                <rect id="Rectangle-2" fill="url(#radialGradient-1)" fill-rule="nonzero" x="0" y="0" width="163" height="97" rx="6"></rect>
                <polyline id="Line-2" stroke="#FFFFFF" stroke-width="4" stroke-linecap="square" points="2 30 20.4627861 30 161 30"></polyline>
                <line x1="82" y1="45" x2="82" y2="85.0042519" id="Line-3" stroke="#FFFFFF" stroke-width="2" stroke-linecap="square"></line>
                <g id="Adverbs" transform="translate(24.000000, 6.000000)" fill="#FFFFFF" fill-rule="nonzero">
                    <g id="Exemplify">
                        <use xlink:href="#path-2"></use>
                        <use xlink:href="#path-2"></use>
                    </g>
                </g>
                <path d="M96.53125,62 L96.53125,58.7949219 L97.421875,58.7949219 C98.5039062,58.7949219 99.3378906,58.5566406 99.9238281,58.0800781 C100.509766,57.6035156 100.802734,56.9179688 100.802734,56.0234375 C100.802734,55.171875 100.536133,54.5273438 100.00293,54.0898438 C99.4697266,53.6523438 98.6679688,53.4335938 97.5976562,53.4335938 L97.5976562,53.4335938 L95.1308594,53.4335938 L95.1308594,62 L96.53125,62 Z M97.2753906,57.6171875 L96.53125,57.6171875 L96.53125,54.6054688 L97.5039062,54.6054688 C98.140625,54.6054688 98.609375,54.7265625 98.9101562,54.96875 C99.2109375,55.2109375 99.3613281,55.578125 99.3613281,56.0703125 C99.3613281,56.6015625 99.1933594,56.9921875 98.8574219,57.2421875 C98.5214844,57.4921875 97.9941406,57.6171875 97.2753906,57.6171875 L97.2753906,57.6171875 Z M103.744141,62 L103.744141,58.6132812 C103.744141,58.0390625 103.915039,57.5722656 104.256836,57.2128906 C104.598633,56.8535156 105.044922,56.6738281 105.595703,56.6738281 C105.806641,56.6738281 106.009766,56.6972656 106.205078,56.7441406 L106.205078,56.7441406 L106.339844,55.4609375 C106.160156,55.421875 105.931641,55.4023438 105.654297,55.4023438 C105.255859,55.4023438 104.883789,55.515625 104.538086,55.7421875 C104.192383,55.96875 103.912109,56.2753906 103.697266,56.6621094 L103.697266,56.6621094 L103.626953,56.6621094 L103.445312,55.5195312 L102.367188,55.5195312 L102.367188,62 L103.744141,62 Z M110.207031,62.1171875 C111.175781,62.1171875 111.931641,61.8203125 112.474609,61.2265625 C113.017578,60.6328125 113.289062,59.8066406 113.289062,58.7480469 C113.289062,57.7246094 113.015625,56.9111328 112.46875,56.3076172 C111.921875,55.7041016 111.179688,55.4023438 110.242188,55.4023438 C109.261719,55.4023438 108.501953,55.6972656 107.962891,56.2871094 C107.423828,56.8769531 107.154297,57.6972656 107.154297,58.7480469 C107.154297,59.4238281 107.279297,60.0175781 107.529297,60.5292969 C107.779297,61.0410156 108.136719,61.4335938 108.601562,61.7070312 C109.066406,61.9804688 109.601562,62.1171875 110.207031,62.1171875 Z M110.230469,60.9921875 C109.125,60.9921875 108.572266,60.2441406 108.572266,58.7480469 C108.572266,58.0332031 108.702148,57.484375 108.961914,57.1015625 C109.22168,56.71875 109.640625,56.5273438 110.21875,56.5273438 C111.320312,56.5273438 111.871094,57.2675781 111.871094,58.7480469 C111.871094,60.2441406 111.324219,60.9921875 110.230469,60.9921875 Z M117.835938,62 L120.308594,55.5195312 L118.84375,55.5195312 L117.525391,59.2871094 C117.287109,60.0292969 117.150391,60.5410156 117.115234,60.8222656 L117.115234,60.8222656 L117.068359,60.8222656 C117.021484,60.4316406 116.884766,59.9199219 116.658203,59.2871094 L116.658203,59.2871094 L115.339844,55.5195312 L113.886719,55.5195312 L116.347656,62 L117.835938,62 Z M121.990234,54.5585938 C122.232422,54.5585938 122.420898,54.4912109 122.555664,54.3564453 C122.69043,54.2216797 122.757812,54.0371094 122.757812,53.8027344 C122.757812,53.5566406 122.69043,53.3671875 122.555664,53.234375 C122.420898,53.1015625 122.232422,53.0351562 121.990234,53.0351562 C121.740234,53.0351562 121.547852,53.1015625 121.413086,53.234375 C121.27832,53.3671875 121.210938,53.5566406 121.210938,53.8027344 C121.210938,54.0371094 121.27832,54.2216797 121.413086,54.3564453 C121.547852,54.4912109 121.740234,54.5585938 121.990234,54.5585938 Z M122.669922,62 L122.669922,55.5195312 L121.292969,55.5195312 L121.292969,62 L122.669922,62 Z M126.824219,62.1171875 C127.675781,62.1171875 128.322266,61.7949219 128.763672,61.1503906 L128.763672,61.1503906 L128.828125,61.1503906 L129.068359,62 L130.146484,62 L130.146484,52.8828125 L128.763672,52.8828125 L128.763672,55.2441406 C128.763672,55.5136719 128.796875,55.8808594 128.863281,56.3457031 L128.863281,56.3457031 L128.792969,56.3457031 C128.347656,55.7167969 127.699219,55.4023438 126.847656,55.4023438 C126.035156,55.4023438 125.399414,55.6982422 124.94043,56.2900391 C124.481445,56.8818359 124.251953,57.7089844 124.251953,58.7714844 C124.251953,59.8300781 124.478516,60.6523438 124.931641,61.2382812 C125.384766,61.8242188 126.015625,62.1171875 126.824219,62.1171875 Z M127.193359,61.0039062 C126.685547,61.0039062 126.304688,60.8154297 126.050781,60.4384766 C125.796875,60.0615234 125.669922,59.5136719 125.669922,58.7949219 C125.669922,58.0683594 125.800781,57.5087891 126.0625,57.1162109 C126.324219,56.7236328 126.697266,56.5273438 127.181641,56.5273438 C127.748047,56.5273438 128.164062,56.6992188 128.429688,57.0429688 C128.695312,57.3867188 128.828125,57.9667969 128.828125,58.7832031 L128.828125,58.7832031 L128.828125,58.9765625 C128.820312,59.6914062 128.6875,60.2080078 128.429688,60.5263672 C128.171875,60.8447266 127.759766,61.0039062 127.193359,61.0039062 Z M134.945312,62.1171875 C135.386719,62.1171875 135.779297,62.0839844 136.123047,62.0175781 C136.466797,61.9511719 136.806641,61.8378906 137.142578,61.6777344 L137.142578,61.6777344 L137.142578,60.5585938 C136.763672,60.7265625 136.40918,60.8466797 136.079102,60.9189453 C135.749023,60.9912109 135.392578,61.0273438 135.009766,61.0273438 C134.427734,61.0273438 133.976562,60.8583984 133.65625,60.5205078 C133.335938,60.1826172 133.166016,59.6992188 133.146484,59.0703125 L133.146484,59.0703125 L137.464844,59.0703125 L137.464844,58.3261719 C137.464844,57.4160156 137.216797,56.7011719 136.720703,56.1816406 C136.224609,55.6621094 135.548828,55.4023438 134.693359,55.4023438 C133.771484,55.4023438 133.046875,55.7050781 132.519531,56.3105469 C131.992188,56.9160156 131.728516,57.7480469 131.728516,58.8066406 C131.728516,59.8378906 132.012695,60.6474609 132.581055,61.2353516 C133.149414,61.8232422 133.9375,62.1171875 134.945312,62.1171875 Z M136.111328,58.0742188 L133.169922,58.0742188 C133.220703,57.5429688 133.37793,57.1386719 133.641602,56.8613281 C133.905273,56.5839844 134.255859,56.4453125 134.693359,56.4453125 C135.130859,56.4453125 135.474609,56.5830078 135.724609,56.8583984 C135.974609,57.1337891 136.103516,57.5390625 136.111328,58.0742188 L136.111328,58.0742188 Z M97.8144531,74.1171875 C98.2558594,74.1171875 98.6484375,74.0839844 98.9921875,74.0175781 C99.3359375,73.9511719 99.6757812,73.8378906 100.011719,73.6777344 L100.011719,73.6777344 L100.011719,72.5585938 C99.6328125,72.7265625 99.2783203,72.8466797 98.9482422,72.9189453 C98.6181641,72.9912109 98.2617188,73.0273438 97.8789062,73.0273438 C97.296875,73.0273438 96.8457031,72.8583984 96.5253906,72.5205078 C96.2050781,72.1826172 96.0351562,71.6992188 96.015625,71.0703125 L96.015625,71.0703125 L100.333984,71.0703125 L100.333984,70.3261719 C100.333984,69.4160156 100.085938,68.7011719 99.5898438,68.1816406 C99.09375,67.6621094 98.4179688,67.4023438 97.5625,67.4023438 C96.640625,67.4023438 95.9160156,67.7050781 95.3886719,68.3105469 C94.8613281,68.9160156 94.5976562,69.7480469 94.5976562,70.8066406 C94.5976562,71.8378906 94.8818359,72.6474609 95.4501953,73.2353516 C96.0185547,73.8232422 96.8066406,74.1171875 97.8144531,74.1171875 Z M98.9804688,70.0742188 L96.0390625,70.0742188 C96.0898438,69.5429688 96.2470703,69.1386719 96.5107422,68.8613281 C96.7744141,68.5839844 97.125,68.4453125 97.5625,68.4453125 C98,68.4453125 98.34375,68.5830078 98.59375,68.8583984 C98.84375,69.1337891 98.9726562,69.5390625 98.9804688,70.0742188 L98.9804688,70.0742188 Z M102.619141,74 L104.212891,71.5742188 L105.8125,74 L107.371094,74 L105.080078,70.6894531 L107.259766,67.5195312 L105.701172,67.5195312 L104.212891,69.7871094 L102.736328,67.5195312 L101.166016,67.5195312 L103.339844,70.6894531 L101.060547,74 L102.619141,74 Z M110.078125,74.1171875 C110.574219,74.1171875 110.980469,74.0458984 111.296875,73.9033203 C111.613281,73.7607422 111.927734,73.4921875 112.240234,73.0976562 L112.240234,73.0976562 L112.287109,73.0976562 L112.5625,74 L113.546875,74 L113.546875,69.6347656 C113.546875,68.8652344 113.336914,68.3007812 112.916992,67.9414062 C112.49707,67.5820312 111.875,67.4023438 111.050781,67.4023438 C110.679688,67.4023438 110.285156,67.4501953 109.867188,67.5458984 C109.449219,67.6416016 109.064453,67.78125 108.712891,67.9648438 L108.712891,67.9648438 L109.158203,68.9492188 C109.439453,68.8164062 109.732422,68.7011719 110.037109,68.6035156 C110.341797,68.5058594 110.660156,68.4570312 110.992188,68.4570312 C111.398438,68.4570312 111.698242,68.5595703 111.891602,68.7646484 C112.084961,68.9697266 112.181641,69.2792969 112.181641,69.6933594 L112.181641,69.6933594 L112.181641,70.0390625 L111.0625,70.0742188 C110.046875,70.1054688 109.291016,70.2910156 108.794922,70.6308594 C108.298828,70.9707031 108.050781,71.4746094 108.050781,72.1425781 C108.050781,72.7714844 108.229492,73.2578125 108.586914,73.6015625 C108.944336,73.9453125 109.441406,74.1171875 110.078125,74.1171875 Z M110.511719,73.0625 C110.167969,73.0625 109.910156,72.9833984 109.738281,72.8251953 C109.566406,72.6669922 109.480469,72.4433594 109.480469,72.1542969 C109.480469,71.7558594 109.62793,71.4599609 109.922852,71.2666016 C110.217773,71.0732422 110.689453,70.9648438 111.337891,70.9414062 L111.337891,70.9414062 L112.169922,70.90625 L112.169922,71.46875 C112.169922,71.9726562 112.018555,72.3642578 111.71582,72.6435547 C111.413086,72.9228516 111.011719,73.0625 110.511719,73.0625 Z M116.845703,74 L116.845703,70.7714844 C116.845703,69.9667969 116.969727,69.3916016 117.217773,69.0458984 C117.46582,68.7001953 117.855469,68.5273438 118.386719,68.5273438 C118.785156,68.5273438 119.078125,68.6494141 119.265625,68.8935547 C119.453125,69.1376953 119.546875,69.5078125 119.546875,70.0039062 L119.546875,70.0039062 L119.546875,74 L120.929688,74 L120.929688,70.5664062 C120.929688,69.875 121.053711,69.3623047 121.301758,69.0283203 C121.549805,68.6943359 121.941406,68.5273438 122.476562,68.5273438 C122.875,68.5273438 123.168945,68.6494141 123.358398,68.8935547 C123.547852,69.1376953 123.642578,69.5078125 123.642578,70.0039062 L123.642578,70.0039062 L123.642578,74 L125.019531,74 L125.019531,69.7753906 C125.019531,68.9746094 124.842773,68.3789062 124.489258,67.9882812 C124.135742,67.5976562 123.572266,67.4023438 122.798828,67.4023438 C122.349609,67.4023438 121.951172,67.4921875 121.603516,67.671875 C121.255859,67.8515625 120.986328,68.1015625 120.794922,68.421875 L120.794922,68.421875 L120.701172,68.421875 C120.376953,67.7421875 119.716797,67.4023438 118.720703,67.4023438 C118.310547,67.4023438 117.93457,67.4863281 117.592773,67.6542969 C117.250977,67.8222656 116.990234,68.0605469 116.810547,68.3691406 L116.810547,68.3691406 L116.740234,68.3691406 L116.546875,67.5195312 L115.46875,67.5195312 L115.46875,74 L116.845703,74 Z M128.318359,76.8828125 L128.318359,74.2285156 C128.318359,74.1113281 128.291016,73.7792969 128.236328,73.2324219 L128.236328,73.2324219 L128.318359,73.2324219 C128.771484,73.8222656 129.408203,74.1171875 130.228516,74.1171875 C131.037109,74.1171875 131.670898,73.8203125 132.129883,73.2265625 C132.588867,72.6328125 132.818359,71.8066406 132.818359,70.7480469 C132.818359,69.6894531 132.592773,68.8671875 132.141602,68.28125 C131.69043,67.6953125 131.060547,67.4023438 130.251953,67.4023438 C129.392578,67.4023438 128.748047,67.7304688 128.318359,68.3867188 L128.318359,68.3867188 L128.248047,68.3867188 C128.150391,67.9296875 128.085938,67.640625 128.054688,67.5195312 L128.054688,67.5195312 L126.941406,67.5195312 L126.941406,76.8828125 L128.318359,76.8828125 Z M129.917969,72.9921875 C129.351562,72.9921875 128.943359,72.8154297 128.693359,72.4619141 C128.443359,72.1083984 128.318359,71.5371094 128.318359,70.7480469 L128.318359,70.7480469 L128.318359,70.5429688 C128.318359,69.8398438 128.444336,69.328125 128.696289,69.0078125 C128.948242,68.6875 129.347656,68.5273438 129.894531,68.5273438 C130.390625,68.5273438 130.766602,68.7138672 131.022461,69.0869141 C131.27832,69.4599609 131.40625,70.0097656 131.40625,70.7363281 C131.40625,71.4589844 131.277344,72.015625 131.019531,72.40625 C130.761719,72.796875 130.394531,72.9921875 129.917969,72.9921875 Z M135.794922,74 L135.794922,64.8828125 L134.417969,64.8828125 L134.417969,74 L135.794922,74 Z M140.59375,74.1171875 C141.035156,74.1171875 141.427734,74.0839844 141.771484,74.0175781 C142.115234,73.9511719 142.455078,73.8378906 142.791016,73.6777344 L142.791016,73.6777344 L142.791016,72.5585938 C142.412109,72.7265625 142.057617,72.8466797 141.727539,72.9189453 C141.397461,72.9912109 141.041016,73.0273438 140.658203,73.0273438 C140.076172,73.0273438 139.625,72.8583984 139.304688,72.5205078 C138.984375,72.1826172 138.814453,71.6992188 138.794922,71.0703125 L138.794922,71.0703125 L143.113281,71.0703125 L143.113281,70.3261719 C143.113281,69.4160156 142.865234,68.7011719 142.369141,68.1816406 C141.873047,67.6621094 141.197266,67.4023438 140.341797,67.4023438 C139.419922,67.4023438 138.695312,67.7050781 138.167969,68.3105469 C137.640625,68.9160156 137.376953,69.7480469 137.376953,70.8066406 C137.376953,71.8378906 137.661133,72.6474609 138.229492,73.2353516 C138.797852,73.8232422 139.585938,74.1171875 140.59375,74.1171875 Z M141.759766,70.0742188 L138.818359,70.0742188 C138.869141,69.5429688 139.026367,69.1386719 139.290039,68.8613281 C139.553711,68.5839844 139.904297,68.4453125 140.341797,68.4453125 C140.779297,68.4453125 141.123047,68.5830078 141.373047,68.8583984 C141.623047,69.1337891 141.751953,69.5390625 141.759766,70.0742188 L141.759766,70.0742188 Z M146.359375,74.1171875 C147.21875,74.1171875 147.878906,73.9482422 148.339844,73.6103516 C148.800781,73.2724609 149.03125,72.7871094 149.03125,72.1542969 C149.03125,71.8417969 148.972656,71.5732422 148.855469,71.3486328 C148.738281,71.1240234 148.558594,70.9257812 148.316406,70.7539062 C148.074219,70.5820312 147.685547,70.3925781 147.150391,70.1855469 C146.513672,69.9394531 146.100586,69.7460938 145.911133,69.6054688 C145.72168,69.4648438 145.626953,69.2929688 145.626953,69.0898438 C145.626953,68.6757812 145.990234,68.46875 146.716797,68.46875 C147.193359,68.46875 147.78125,68.6132812 148.480469,68.9023438 L148.480469,68.9023438 L148.925781,67.8652344 C148.246094,67.5566406 147.525391,67.4023438 146.763672,67.4023438 C145.994141,67.4023438 145.385742,67.5556641 144.938477,67.8623047 C144.491211,68.1689453 144.267578,68.5996094 144.267578,69.1542969 C144.267578,69.6152344 144.399414,69.9902344 144.663086,70.2792969 C144.926758,70.5683594 145.431641,70.8574219 146.177734,71.1464844 C146.560547,71.2949219 146.859375,71.4277344 147.074219,71.5449219 C147.289062,71.6621094 147.443359,71.7753906 147.537109,71.8847656 C147.630859,71.9941406 147.677734,72.1308594 147.677734,72.2949219 C147.677734,72.8066406 147.253906,73.0625 146.40625,73.0625 C145.75,73.0625 145.041016,72.8867188 144.279297,72.5351562 L144.279297,72.5351562 L144.279297,73.7246094 C144.802734,73.9863281 145.496094,74.1171875 146.359375,74.1171875 Z M151.181641,74.1699219 C151.462891,74.1699219 151.678711,74.0888672 151.829102,73.9267578 C151.979492,73.7646484 152.054688,73.5449219 152.054688,73.2675781 C152.054688,72.9941406 151.980469,72.7783203 151.832031,72.6201172 C151.683594,72.4619141 151.466797,72.3828125 151.181641,72.3828125 C150.900391,72.3828125 150.685547,72.4589844 150.537109,72.6113281 C150.388672,72.7636719 150.314453,72.9824219 150.314453,73.2675781 C150.314453,73.5488281 150.388672,73.7695312 150.537109,73.9296875 C150.685547,74.0898438 150.900391,74.1699219 151.181641,74.1699219 Z" id="Provideexamples." fill="#FFFFFF" fill-rule="nonzero"></path>
                <g id="Group-9" transform="translate(28.000000, 48.000000)">
                    <g id="Shape" transform="translate(1.000000, 10.000000)">
                        <g id="path-5-Clipped">
                            <g>
                                <mask id="mask-4" fill="white">
                                    <use xlink:href="#path-3"></use>
                                </mask>
                                <g id="path-2"></g>
                                <polygon id="path-5" stroke="#9B9B9B" stroke-width="2" fill="#F1C206" fill-rule="nonzero" mask="url(#mask-4)" points="0.494918325 18.6177907 26.9686389 18.6177907 18.6265699 0.278140415 11.4816152 10.5653578 7.8868421 5.86149698"></polygon>
                            </g>
                        </g>
                    </g>
                    <ellipse id="Oval" stroke="#9B9B9B" fill="#ECF0F1" fill-rule="nonzero" cx="8.5" cy="10" rx="2.5" ry="3"></ellipse>
                    <polygon id="Rectangle-path" stroke="#FFFFFF" stroke-width="5" points="0 0 30 0 30 32 0 32"></polygon>
                </g>
            </g>
        </g>
    </g>
</svg>