<?xml version="1.0" encoding="UTF-8"?>
<svg width="163px" height="97px" viewBox="0 0 163 97" version="1.1" xmlns="http://www.w3.org/2000/svg" xmlns:xlink="http://www.w3.org/1999/xlink">
    <!-- Generator: Sketch 62 (91390) - https://sketch.com -->
    <title>Explain</title>
    <desc>Created with Sketch.</desc>
    <defs>
        <radialGradient cx="26.6602155%" cy="59.9094438%" fx="26.6602155%" fy="59.9094438%" r="35.133316%" gradientTransform="translate(0.266602,0.599094),scale(0.595092,1.000000),rotate(-90.000000),translate(-0.266602,-0.599094)" id="radialGradient-1">
            <stop stop-color="#F9E30E" offset="0%"></stop>
            <stop stop-color="#F1C206" offset="100%"></stop>
            <stop stop-color="#F1C206" offset="100%"></stop>
        </radialGradient>
        <path d="M32.9169922,15 L32.9169922,13.0175781 L27.1748047,13.0175781 L27.1748047,8.53515625 L32.5556641,8.53515625 L32.5556641,6.58203125 L27.1748047,6.58203125 L27.1748047,2.6953125 L32.9169922,2.6953125 L32.9169922,0.72265625 L24.8408203,0.72265625 L24.8408203,15 L32.9169922,15 Z M36.9599609,15 L39.6162109,10.9570312 L42.2822266,15 L44.8798828,15 L41.0615234,9.48242188 L44.6943359,4.19921875 L42.0966797,4.19921875 L39.6162109,7.97851562 L37.1552734,4.19921875 L34.5380859,4.19921875 L38.1611328,9.48242188 L34.3623047,15 L36.9599609,15 Z M49.0693359,19.8046875 L49.0693359,15.3808594 C49.0693359,15.1855469 49.023763,14.6321615 48.9326172,13.7207031 L48.9326172,13.7207031 L49.0693359,13.7207031 C49.8245443,14.703776 50.8857422,15.1953125 52.2529297,15.1953125 C53.6005859,15.1953125 54.656901,14.7005208 55.421875,13.7109375 C56.186849,12.7213542 56.5693359,11.344401 56.5693359,9.58007812 C56.5693359,7.81575521 56.1933594,6.4453125 55.4414062,5.46875 C54.6894531,4.4921875 53.6396484,4.00390625 52.2919922,4.00390625 C50.8597005,4.00390625 49.7854818,4.55078125 49.0693359,5.64453125 L49.0693359,5.64453125 L48.9521484,5.64453125 C48.789388,4.8828125 48.6819661,4.40104167 48.6298828,4.19921875 L48.6298828,4.19921875 L46.7744141,4.19921875 L46.7744141,19.8046875 L49.0693359,19.8046875 Z M51.7353516,13.3203125 C50.7913411,13.3203125 50.1110026,13.0257161 49.6943359,12.4365234 C49.2776693,11.8473307 49.0693359,10.8951823 49.0693359,9.58007812 L49.0693359,9.58007812 L49.0693359,9.23828125 C49.0693359,8.06640625 49.2792969,7.21354167 49.6992188,6.6796875 C50.1191406,6.14583333 50.7848307,5.87890625 51.6962891,5.87890625 C52.523112,5.87890625 53.1497396,6.18977865 53.5761719,6.81152344 C54.0026042,7.43326823 54.2158203,8.34960938 54.2158203,9.56054688 C54.2158203,10.764974 54.0009766,11.6927083 53.5712891,12.34375 C53.1416016,12.9947917 52.5296224,13.3203125 51.7353516,13.3203125 Z M61.5302734,15 L61.5302734,-0.1953125 L59.2353516,-0.1953125 L59.2353516,15 L61.5302734,15 Z M67.4287109,15.1953125 C68.2555339,15.1953125 68.9326172,15.0764974 69.4599609,14.8388672 C69.9873047,14.601237 70.5113932,14.1536458 71.0322266,13.4960938 L71.0322266,13.4960938 L71.1103516,13.4960938 L71.5693359,15 L73.2099609,15 L73.2099609,7.72460938 C73.2099609,6.44205729 72.860026,5.50130208 72.1601562,4.90234375 C71.4602865,4.30338542 70.4235026,4.00390625 69.0498047,4.00390625 C68.4313151,4.00390625 67.773763,4.08365885 67.0771484,4.24316406 C66.3805339,4.40266927 65.7392578,4.63541667 65.1533203,4.94140625 L65.1533203,4.94140625 L65.8955078,6.58203125 C66.3642578,6.36067708 66.8525391,6.16861979 67.3603516,6.00585938 C67.8681641,5.84309896 68.398763,5.76171875 68.9521484,5.76171875 C69.6292318,5.76171875 70.1289062,5.93261719 70.4511719,6.27441406 C70.7734375,6.61621094 70.9345703,7.13216146 70.9345703,7.82226562 L70.9345703,7.82226562 L70.9345703,8.3984375 L69.0693359,8.45703125 C67.3766276,8.50911458 66.116862,8.81835938 65.2900391,9.38476562 C64.4632161,9.95117188 64.0498047,10.7910156 64.0498047,11.9042969 C64.0498047,12.952474 64.3476562,13.7630208 64.9433594,14.3359375 C65.5390625,14.9088542 66.367513,15.1953125 67.4287109,15.1953125 Z M68.1513672,13.4375 C67.5784505,13.4375 67.148763,13.3056641 66.8623047,13.0419922 C66.5758464,12.7783203 66.4326172,12.405599 66.4326172,11.9238281 C66.4326172,11.2597656 66.6783854,10.7666016 67.1699219,10.4443359 C67.6614583,10.1220703 68.4475911,9.94140625 69.5283203,9.90234375 L69.5283203,9.90234375 L70.9150391,9.84375 L70.9150391,10.78125 C70.9150391,11.6210938 70.6627604,12.273763 70.1582031,12.7392578 C69.6536458,13.2047526 68.9847005,13.4375 68.1513672,13.4375 Z M77.5751953,2.59765625 C77.9788411,2.59765625 78.2929688,2.48535156 78.5175781,2.26074219 C78.7421875,2.03613281 78.8544922,1.72851562 78.8544922,1.33789062 C78.8544922,0.927734375 78.7421875,0.611979167 78.5175781,0.390625 C78.2929688,0.169270833 77.9788411,0.05859375 77.5751953,0.05859375 C77.1585286,0.05859375 76.8378906,0.169270833 76.6132812,0.390625 C76.3886719,0.611979167 76.2763672,0.927734375 76.2763672,1.33789062 C76.2763672,1.72851562 76.3886719,2.03613281 76.6132812,2.26074219 C76.8378906,2.48535156 77.1585286,2.59765625 77.5751953,2.59765625 Z M78.7080078,15 L78.7080078,4.19921875 L76.4130859,4.19921875 L76.4130859,15 L78.7080078,15 Z M84.2841797,15 L84.2841797,9.61914062 C84.2841797,8.27148438 84.5087891,7.31119792 84.9580078,6.73828125 C85.4072266,6.16536458 86.116862,5.87890625 87.0869141,5.87890625 C87.8160807,5.87890625 88.3483073,6.08398438 88.6835938,6.49414062 C89.0188802,6.90429688 89.1865234,7.52604167 89.1865234,8.359375 L89.1865234,8.359375 L89.1865234,15 L91.4912109,15 L91.4912109,7.95898438 C91.4912109,5.32226562 90.195638,4.00390625 87.6044922,4.00390625 C86.8753255,4.00390625 86.211263,4.14388021 85.6123047,4.42382812 C85.0133464,4.70377604 84.5511068,5.10091146 84.2255859,5.61523438 L84.2255859,5.61523438 L84.1083984,5.61523438 L83.7861328,4.19921875 L81.9892578,4.19921875 L81.9892578,15 L84.2841797,15 Z" id="path-2"></path>
    </defs>
    <g id="Symbols" stroke="none" stroke-width="1" fill="none" fill-rule="evenodd">
        <g id="i/Explain">
            <g id="Explain">
                <rect id="Rectangle-2" fill="url(#radialGradient-1)" fill-rule="nonzero" x="0" y="0" width="163" height="97" rx="6"></rect>
                <polyline id="Line-2" stroke="#FFFFFF" stroke-width="4" stroke-linecap="square" points="2 30 20.4627861 30 161 30"></polyline>
                <line x1="73" y1="45" x2="73" y2="85.0042519" id="Line-3" stroke="#FFFFFF" stroke-width="2" stroke-linecap="square"></line>
                <g id="Adverbs" transform="translate(22.000000, 6.000000)" fill="#FFFFFF" fill-rule="nonzero">
                    <g id="Explain">
                        <use xlink:href="#path-2"></use>
                        <use xlink:href="#path-2"></use>
                    </g>
                </g>
                <path d="M81.6054688,55.1171875 C82.4570312,55.1171875 83.21875,54.9902344 83.890625,54.7363281 L83.890625,54.7363281 L83.890625,53.5351562 C83.5234375,53.6484375 83.1699219,53.7412109 82.8300781,53.8134766 C82.4902344,53.8857422 82.1386719,53.921875 81.7753906,53.921875 C80.9355469,53.921875 80.2939453,53.6523438 79.8505859,53.1132812 C79.4072266,52.5742188 79.1855469,51.7792969 79.1855469,50.7285156 C79.1855469,49.7246094 79.4160156,48.9375 79.8769531,48.3671875 C80.3378906,47.796875 80.9707031,47.5117188 81.7753906,47.5117188 C82.1308594,47.5117188 82.4697266,47.5634766 82.7919922,47.6669922 C83.1142578,47.7705078 83.4199219,47.890625 83.7089844,48.0273438 L83.7089844,48.0273438 L84.2128906,46.8613281 C83.4707031,46.4941406 82.6621094,46.3105469 81.7871094,46.3105469 C80.9550781,46.3105469 80.2304688,46.4882812 79.6132812,46.84375 C78.9960938,47.1992188 78.5244141,47.7109375 78.1982422,48.3789062 C77.8720703,49.046875 77.7089844,49.8261719 77.7089844,50.7167969 C77.7089844,52.1308594 78.0449219,53.2177734 78.7167969,53.9775391 C79.3886719,54.7373047 80.3515625,55.1171875 81.6054688,55.1171875 Z M88.2558594,55.1171875 C89.2246094,55.1171875 89.9804688,54.8203125 90.5234375,54.2265625 C91.0664062,53.6328125 91.3378906,52.8066406 91.3378906,51.7480469 C91.3378906,50.7246094 91.0644531,49.9111328 90.5175781,49.3076172 C89.9707031,48.7041016 89.2285156,48.4023438 88.2910156,48.4023438 C87.3105469,48.4023438 86.5507812,48.6972656 86.0117188,49.2871094 C85.4726562,49.8769531 85.203125,50.6972656 85.203125,51.7480469 C85.203125,52.4238281 85.328125,53.0175781 85.578125,53.5292969 C85.828125,54.0410156 86.1855469,54.4335938 86.6503906,54.7070312 C87.1152344,54.9804688 87.6503906,55.1171875 88.2558594,55.1171875 Z M88.2792969,53.9921875 C87.1738281,53.9921875 86.6210938,53.2441406 86.6210938,51.7480469 C86.6210938,51.0332031 86.7509766,50.484375 87.0107422,50.1015625 C87.2705078,49.71875 87.6894531,49.5273438 88.2675781,49.5273438 C89.3691406,49.5273438 89.9199219,50.2675781 89.9199219,51.7480469 C89.9199219,53.2441406 89.3730469,53.9921875 88.2792969,53.9921875 Z M94.296875,55 L94.296875,51.7714844 C94.296875,50.9667969 94.4208984,50.3916016 94.6689453,50.0458984 C94.9169922,49.7001953 95.3066406,49.5273438 95.8378906,49.5273438 C96.2363281,49.5273438 96.5292969,49.6494141 96.7167969,49.8935547 C96.9042969,50.1376953 96.9980469,50.5078125 96.9980469,51.0039062 L96.9980469,51.0039062 L96.9980469,55 L98.3808594,55 L98.3808594,51.5664062 C98.3808594,50.875 98.5048828,50.3623047 98.7529297,50.0283203 C99.0009766,49.6943359 99.3925781,49.5273438 99.9277344,49.5273438 C100.326172,49.5273438 100.620117,49.6494141 100.80957,49.8935547 C100.999023,50.1376953 101.09375,50.5078125 101.09375,51.0039062 L101.09375,51.0039062 L101.09375,55 L102.470703,55 L102.470703,50.7753906 C102.470703,49.9746094 102.293945,49.3789062 101.94043,48.9882812 C101.586914,48.5976562 101.023438,48.4023438 100.25,48.4023438 C99.8007812,48.4023438 99.4023438,48.4921875 99.0546875,48.671875 C98.7070312,48.8515625 98.4375,49.1015625 98.2460938,49.421875 L98.2460938,49.421875 L98.1523438,49.421875 C97.828125,48.7421875 97.1679688,48.4023438 96.171875,48.4023438 C95.7617188,48.4023438 95.3857422,48.4863281 95.0439453,48.6542969 C94.7021484,48.8222656 94.4414062,49.0605469 94.2617188,49.3691406 L94.2617188,49.3691406 L94.1914062,49.3691406 L93.9980469,48.5195312 L92.9199219,48.5195312 L92.9199219,55 L94.296875,55 Z M105.769531,55 L105.769531,51.7714844 C105.769531,50.9667969 105.893555,50.3916016 106.141602,50.0458984 C106.389648,49.7001953 106.779297,49.5273438 107.310547,49.5273438 C107.708984,49.5273438 108.001953,49.6494141 108.189453,49.8935547 C108.376953,50.1376953 108.470703,50.5078125 108.470703,51.0039062 L108.470703,51.0039062 L108.470703,55 L109.853516,55 L109.853516,51.5664062 C109.853516,50.875 109.977539,50.3623047 110.225586,50.0283203 C110.473633,49.6943359 110.865234,49.5273438 111.400391,49.5273438 C111.798828,49.5273438 112.092773,49.6494141 112.282227,49.8935547 C112.47168,50.1376953 112.566406,50.5078125 112.566406,51.0039062 L112.566406,51.0039062 L112.566406,55 L113.943359,55 L113.943359,50.7753906 C113.943359,49.9746094 113.766602,49.3789062 113.413086,48.9882812 C113.05957,48.5976562 112.496094,48.4023438 111.722656,48.4023438 C111.273438,48.4023438 110.875,48.4921875 110.527344,48.671875 C110.179688,48.8515625 109.910156,49.1015625 109.71875,49.421875 L109.71875,49.421875 L109.625,49.421875 C109.300781,48.7421875 108.640625,48.4023438 107.644531,48.4023438 C107.234375,48.4023438 106.858398,48.4863281 106.516602,48.6542969 C106.174805,48.8222656 105.914062,49.0605469 105.734375,49.3691406 L105.734375,49.3691406 L105.664062,49.3691406 L105.470703,48.5195312 L104.392578,48.5195312 L104.392578,55 L105.769531,55 Z M118.144531,55.1171875 C118.597656,55.1171875 119.000977,55.03125 119.354492,54.859375 C119.708008,54.6875 119.980469,54.4511719 120.171875,54.1503906 L120.171875,54.1503906 L120.242188,54.1503906 L120.435547,55 L121.519531,55 L121.519531,48.5195312 L120.136719,48.5195312 L120.136719,51.7480469 C120.136719,52.5605469 120.000977,53.1396484 119.729492,53.4853516 C119.458008,53.8310547 119.033203,54.0039062 118.455078,54.0039062 C118.021484,54.0039062 117.703125,53.8798828 117.5,53.6318359 C117.296875,53.3837891 117.195312,53.0117188 117.195312,52.515625 L117.195312,52.515625 L117.195312,48.5195312 L115.806641,48.5195312 L115.806641,52.7558594 C115.806641,53.5488281 116,54.140625 116.386719,54.53125 C116.773438,54.921875 117.359375,55.1171875 118.144531,55.1171875 Z M124.859375,55 L124.859375,51.7714844 C124.859375,50.9628906 124.994141,50.3867188 125.263672,50.0429688 C125.533203,49.6992188 125.958984,49.5273438 126.541016,49.5273438 C126.978516,49.5273438 127.297852,49.6503906 127.499023,49.8964844 C127.700195,50.1425781 127.800781,50.515625 127.800781,51.015625 L127.800781,51.015625 L127.800781,55 L129.183594,55 L129.183594,50.7753906 C129.183594,49.1933594 128.40625,48.4023438 126.851562,48.4023438 C126.414062,48.4023438 126.015625,48.4863281 125.65625,48.6542969 C125.296875,48.8222656 125.019531,49.0605469 124.824219,49.3691406 L124.824219,49.3691406 L124.753906,49.3691406 L124.560547,48.5195312 L123.482422,48.5195312 L123.482422,55 L124.859375,55 Z M131.796875,47.5585938 C132.039062,47.5585938 132.227539,47.4912109 132.362305,47.3564453 C132.49707,47.2216797 132.564453,47.0371094 132.564453,46.8027344 C132.564453,46.5566406 132.49707,46.3671875 132.362305,46.234375 C132.227539,46.1015625 132.039062,46.0351562 131.796875,46.0351562 C131.546875,46.0351562 131.354492,46.1015625 131.219727,46.234375 C131.084961,46.3671875 131.017578,46.5566406 131.017578,46.8027344 C131.017578,47.0371094 131.084961,47.2216797 131.219727,47.3564453 C131.354492,47.4912109 131.546875,47.5585938 131.796875,47.5585938 Z M132.476562,55 L132.476562,48.5195312 L131.099609,48.5195312 L131.099609,55 L132.476562,55 Z M137.058594,55.1171875 C137.457031,55.1171875 137.795898,55.0859375 138.075195,55.0234375 C138.354492,54.9609375 138.617188,54.8574219 138.863281,54.7128906 L138.863281,54.7128906 L138.863281,53.5117188 C138.316406,53.8164062 137.736328,53.96875 137.123047,53.96875 C136.583984,53.96875 136.174805,53.7861328 135.895508,53.4208984 C135.616211,53.0556641 135.476562,52.5097656 135.476562,51.7832031 C135.476562,50.2949219 136.037109,49.5507812 137.158203,49.5507812 C137.537109,49.5507812 138.017578,49.6640625 138.599609,49.890625 L138.599609,49.890625 L139.015625,48.7832031 C138.46875,48.5292969 137.853516,48.4023438 137.169922,48.4023438 C136.162109,48.4023438 135.391602,48.6953125 134.858398,49.28125 C134.325195,49.8671875 134.058594,50.7050781 134.058594,51.7949219 C134.058594,52.8652344 134.313477,53.6865234 134.823242,54.2587891 C135.333008,54.8310547 136.078125,55.1171875 137.058594,55.1171875 Z M141.957031,55.1171875 C142.453125,55.1171875 142.859375,55.0458984 143.175781,54.9033203 C143.492188,54.7607422 143.806641,54.4921875 144.119141,54.0976562 L144.119141,54.0976562 L144.166016,54.0976562 L144.441406,55 L145.425781,55 L145.425781,50.6347656 C145.425781,49.8652344 145.21582,49.3007812 144.795898,48.9414062 C144.375977,48.5820312 143.753906,48.4023438 142.929688,48.4023438 C142.558594,48.4023438 142.164062,48.4501953 141.746094,48.5458984 C141.328125,48.6416016 140.943359,48.78125 140.591797,48.9648438 L140.591797,48.9648438 L141.037109,49.9492188 C141.318359,49.8164062 141.611328,49.7011719 141.916016,49.6035156 C142.220703,49.5058594 142.539062,49.4570312 142.871094,49.4570312 C143.277344,49.4570312 143.577148,49.5595703 143.770508,49.7646484 C143.963867,49.9697266 144.060547,50.2792969 144.060547,50.6933594 L144.060547,50.6933594 L144.060547,51.0390625 L142.941406,51.0742188 C141.925781,51.1054688 141.169922,51.2910156 140.673828,51.6308594 C140.177734,51.9707031 139.929688,52.4746094 139.929688,53.1425781 C139.929688,53.7714844 140.108398,54.2578125 140.46582,54.6015625 C140.823242,54.9453125 141.320312,55.1171875 141.957031,55.1171875 Z M142.390625,54.0625 C142.046875,54.0625 141.789062,53.9833984 141.617188,53.8251953 C141.445312,53.6669922 141.359375,53.4433594 141.359375,53.1542969 C141.359375,52.7558594 141.506836,52.4599609 141.801758,52.2666016 C142.09668,52.0732422 142.568359,51.9648438 143.216797,51.9414062 L143.216797,51.9414062 L144.048828,51.90625 L144.048828,52.46875 C144.048828,52.9726562 143.897461,53.3642578 143.594727,53.6435547 C143.291992,53.9228516 142.890625,54.0625 142.390625,54.0625 Z M149.433594,55.1171875 C149.691406,55.1171875 149.94043,55.0947266 150.180664,55.0498047 C150.420898,55.0048828 150.617188,54.9492188 150.769531,54.8828125 L150.769531,54.8828125 L150.769531,53.8457031 C150.433594,53.9511719 150.097656,54.0039062 149.761719,54.0039062 C149.492188,54.0039062 149.274414,53.9248047 149.108398,53.7666016 C148.942383,53.6083984 148.859375,53.3632812 148.859375,53.03125 L148.859375,53.03125 L148.859375,49.5625 L150.705078,49.5625 L150.705078,48.5195312 L148.859375,48.5195312 L148.859375,47.078125 L148.009766,47.078125 L147.541016,48.4492188 L146.591797,48.953125 L146.591797,49.5625 L147.476562,49.5625 L147.476562,53.0546875 C147.476562,54.4296875 148.128906,55.1171875 149.433594,55.1171875 Z M154.894531,55.1171875 C155.335938,55.1171875 155.728516,55.0839844 156.072266,55.0175781 C156.416016,54.9511719 156.755859,54.8378906 157.091797,54.6777344 L157.091797,54.6777344 L157.091797,53.5585938 C156.712891,53.7265625 156.358398,53.8466797 156.02832,53.9189453 C155.698242,53.9912109 155.341797,54.0273438 154.958984,54.0273438 C154.376953,54.0273438 153.925781,53.8583984 153.605469,53.5205078 C153.285156,53.1826172 153.115234,52.6992188 153.095703,52.0703125 L153.095703,52.0703125 L157.414062,52.0703125 L157.414062,51.3261719 C157.414062,50.4160156 157.166016,49.7011719 156.669922,49.1816406 C156.173828,48.6621094 155.498047,48.4023438 154.642578,48.4023438 C153.720703,48.4023438 152.996094,48.7050781 152.46875,49.3105469 C151.941406,49.9160156 151.677734,50.7480469 151.677734,51.8066406 C151.677734,52.8378906 151.961914,53.6474609 152.530273,54.2353516 C153.098633,54.8232422 153.886719,55.1171875 154.894531,55.1171875 Z M156.060547,51.0742188 L153.119141,51.0742188 C153.169922,50.5429688 153.327148,50.1386719 153.59082,49.8613281 C153.854492,49.5839844 154.205078,49.4453125 154.642578,49.4453125 C155.080078,49.4453125 155.423828,49.5830078 155.673828,49.8583984 C155.923828,50.1337891 156.052734,50.5390625 156.060547,51.0742188 L156.060547,51.0742188 Z M80.0703125,67.1171875 C80.328125,67.1171875 80.5771484,67.0947266 80.8173828,67.0498047 C81.0576172,67.0048828 81.2539062,66.9492188 81.40625,66.8828125 L81.40625,66.8828125 L81.40625,65.8457031 C81.0703125,65.9511719 80.734375,66.0039062 80.3984375,66.0039062 C80.1289062,66.0039062 79.9111328,65.9248047 79.7451172,65.7666016 C79.5791016,65.6083984 79.4960938,65.3632812 79.4960938,65.03125 L79.4960938,65.03125 L79.4960938,61.5625 L81.3417969,61.5625 L81.3417969,60.5195312 L79.4960938,60.5195312 L79.4960938,59.078125 L78.6464844,59.078125 L78.1777344,60.4492188 L77.2285156,60.953125 L77.2285156,61.5625 L78.1132812,61.5625 L78.1132812,65.0546875 C78.1132812,66.4296875 78.765625,67.1171875 80.0703125,67.1171875 Z M84.078125,67 L84.078125,63.7832031 C84.078125,62.9707031 84.2138672,62.3916016 84.4853516,62.0458984 C84.7568359,61.7001953 85.1816406,61.5273438 85.7597656,61.5273438 C86.1972656,61.5273438 86.5166016,61.6503906 86.7177734,61.8964844 C86.9189453,62.1425781 87.0195312,62.515625 87.0195312,63.015625 L87.0195312,63.015625 L87.0195312,67 L88.4023438,67 L88.4023438,62.7753906 C88.4023438,61.1933594 87.6171875,60.4023438 86.046875,60.4023438 C85.6015625,60.4023438 85.2119141,60.4882812 84.8779297,60.6601562 C84.5439453,60.8320312 84.2832031,61.0742188 84.0957031,61.3867188 L84.0957031,61.3867188 L84.0078125,61.3867188 C84.0546875,60.9648438 84.078125,60.5683594 84.078125,60.1972656 L84.078125,60.1972656 L84.078125,57.8828125 L82.7011719,57.8828125 L82.7011719,67 L84.078125,67 Z M93.1484375,67.1171875 C93.5898438,67.1171875 93.9824219,67.0839844 94.3261719,67.0175781 C94.6699219,66.9511719 95.0097656,66.8378906 95.3457031,66.6777344 L95.3457031,66.6777344 L95.3457031,65.5585938 C94.9667969,65.7265625 94.6123047,65.8466797 94.2822266,65.9189453 C93.9521484,65.9912109 93.5957031,66.0273438 93.2128906,66.0273438 C92.6308594,66.0273438 92.1796875,65.8583984 91.859375,65.5205078 C91.5390625,65.1826172 91.3691406,64.6992188 91.3496094,64.0703125 L91.3496094,64.0703125 L95.6679688,64.0703125 L95.6679688,63.3261719 C95.6679688,62.4160156 95.4199219,61.7011719 94.9238281,61.1816406 C94.4277344,60.6621094 93.7519531,60.4023438 92.8964844,60.4023438 C91.9746094,60.4023438 91.25,60.7050781 90.7226562,61.3105469 C90.1953125,61.9160156 89.9316406,62.7480469 89.9316406,63.8066406 C89.9316406,64.8378906 90.2158203,65.6474609 90.7841797,66.2353516 C91.3525391,66.8232422 92.140625,67.1171875 93.1484375,67.1171875 Z M94.3144531,63.0742188 L91.3730469,63.0742188 C91.4238281,62.5429688 91.5810547,62.1386719 91.8447266,61.8613281 C92.1083984,61.5839844 92.4589844,61.4453125 92.8964844,61.4453125 C93.3339844,61.4453125 93.6777344,61.5830078 93.9277344,61.8583984 C94.1777344,62.1337891 94.3066406,62.5390625 94.3144531,63.0742188 L94.3144531,63.0742188 Z M80.8144531,79.1171875 C81.2558594,79.1171875 81.6484375,79.0839844 81.9921875,79.0175781 C82.3359375,78.9511719 82.6757812,78.8378906 83.0117188,78.6777344 L83.0117188,78.6777344 L83.0117188,77.5585938 C82.6328125,77.7265625 82.2783203,77.8466797 81.9482422,77.9189453 C81.6181641,77.9912109 81.2617188,78.0273438 80.8789062,78.0273438 C80.296875,78.0273438 79.8457031,77.8583984 79.5253906,77.5205078 C79.2050781,77.1826172 79.0351562,76.6992188 79.015625,76.0703125 L79.015625,76.0703125 L83.3339844,76.0703125 L83.3339844,75.3261719 C83.3339844,74.4160156 83.0859375,73.7011719 82.5898438,73.1816406 C82.09375,72.6621094 81.4179688,72.4023438 80.5625,72.4023438 C79.640625,72.4023438 78.9160156,72.7050781 78.3886719,73.3105469 C77.8613281,73.9160156 77.5976562,74.7480469 77.5976562,75.8066406 C77.5976562,76.8378906 77.8818359,77.6474609 78.4501953,78.2353516 C79.0185547,78.8232422 79.8066406,79.1171875 80.8144531,79.1171875 Z M81.9804688,75.0742188 L79.0390625,75.0742188 C79.0898438,74.5429688 79.2470703,74.1386719 79.5107422,73.8613281 C79.7744141,73.5839844 80.125,73.4453125 80.5625,73.4453125 C81,73.4453125 81.34375,73.5830078 81.59375,73.8583984 C81.84375,74.1337891 81.9726562,74.5390625 81.9804688,75.0742188 L81.9804688,75.0742188 Z M86.5800781,79.1171875 C87.4394531,79.1171875 88.0996094,78.9482422 88.5605469,78.6103516 C89.0214844,78.2724609 89.2519531,77.7871094 89.2519531,77.1542969 C89.2519531,76.8417969 89.1933594,76.5732422 89.0761719,76.3486328 C88.9589844,76.1240234 88.7792969,75.9257812 88.5371094,75.7539062 C88.2949219,75.5820312 87.90625,75.3925781 87.3710938,75.1855469 C86.734375,74.9394531 86.3212891,74.7460938 86.1318359,74.6054688 C85.9423828,74.4648438 85.8476562,74.2929688 85.8476562,74.0898438 C85.8476562,73.6757812 86.2109375,73.46875 86.9375,73.46875 C87.4140625,73.46875 88.0019531,73.6132812 88.7011719,73.9023438 L88.7011719,73.9023438 L89.1464844,72.8652344 C88.4667969,72.5566406 87.7460938,72.4023438 86.984375,72.4023438 C86.2148438,72.4023438 85.6064453,72.5556641 85.1591797,72.8623047 C84.7119141,73.1689453 84.4882812,73.5996094 84.4882812,74.1542969 C84.4882812,74.6152344 84.6201172,74.9902344 84.8837891,75.2792969 C85.1474609,75.5683594 85.6523438,75.8574219 86.3984375,76.1464844 C86.78125,76.2949219 87.0800781,76.4277344 87.2949219,76.5449219 C87.5097656,76.6621094 87.6640625,76.7753906 87.7578125,76.8847656 C87.8515625,76.9941406 87.8984375,77.1308594 87.8984375,77.2949219 C87.8984375,77.8066406 87.4746094,78.0625 86.6269531,78.0625 C85.9707031,78.0625 85.2617188,77.8867188 84.5,77.5351562 L84.5,77.5351562 L84.5,78.7246094 C85.0234375,78.9863281 85.7167969,79.1171875 86.5800781,79.1171875 Z M92.421875,79.1171875 C93.28125,79.1171875 93.9414062,78.9482422 94.4023438,78.6103516 C94.8632812,78.2724609 95.09375,77.7871094 95.09375,77.1542969 C95.09375,76.8417969 95.0351562,76.5732422 94.9179688,76.3486328 C94.8007812,76.1240234 94.6210938,75.9257812 94.3789062,75.7539062 C94.1367188,75.5820312 93.7480469,75.3925781 93.2128906,75.1855469 C92.5761719,74.9394531 92.1630859,74.7460938 91.9736328,74.6054688 C91.7841797,74.4648438 91.6894531,74.2929688 91.6894531,74.0898438 C91.6894531,73.6757812 92.0527344,73.46875 92.7792969,73.46875 C93.2558594,73.46875 93.84375,73.6132812 94.5429688,73.9023438 L94.5429688,73.9023438 L94.9882812,72.8652344 C94.3085938,72.5566406 93.5878906,72.4023438 92.8261719,72.4023438 C92.0566406,72.4023438 91.4482422,72.5556641 91.0009766,72.8623047 C90.5537109,73.1689453 90.3300781,73.5996094 90.3300781,74.1542969 C90.3300781,74.6152344 90.4619141,74.9902344 90.7255859,75.2792969 C90.9892578,75.5683594 91.4941406,75.8574219 92.2402344,76.1464844 C92.6230469,76.2949219 92.921875,76.4277344 93.1367188,76.5449219 C93.3515625,76.6621094 93.5058594,76.7753906 93.5996094,76.8847656 C93.6933594,76.9941406 93.7402344,77.1308594 93.7402344,77.2949219 C93.7402344,77.8066406 93.3164062,78.0625 92.46875,78.0625 C91.8125,78.0625 91.1035156,77.8867188 90.3417969,77.5351562 L90.3417969,77.5351562 L90.3417969,78.7246094 C90.8652344,78.9863281 91.5585938,79.1171875 92.421875,79.1171875 Z M99.4121094,79.1171875 C99.8535156,79.1171875 100.246094,79.0839844 100.589844,79.0175781 C100.933594,78.9511719 101.273438,78.8378906 101.609375,78.6777344 L101.609375,78.6777344 L101.609375,77.5585938 C101.230469,77.7265625 100.875977,77.8466797 100.545898,77.9189453 C100.21582,77.9912109 99.859375,78.0273438 99.4765625,78.0273438 C98.8945312,78.0273438 98.4433594,77.8583984 98.1230469,77.5205078 C97.8027344,77.1826172 97.6328125,76.6992188 97.6132812,76.0703125 L97.6132812,76.0703125 L101.931641,76.0703125 L101.931641,75.3261719 C101.931641,74.4160156 101.683594,73.7011719 101.1875,73.1816406 C100.691406,72.6621094 100.015625,72.4023438 99.1601562,72.4023438 C98.2382812,72.4023438 97.5136719,72.7050781 96.9863281,73.3105469 C96.4589844,73.9160156 96.1953125,74.7480469 96.1953125,75.8066406 C96.1953125,76.8378906 96.4794922,77.6474609 97.0478516,78.2353516 C97.6162109,78.8232422 98.4042969,79.1171875 99.4121094,79.1171875 Z M100.578125,75.0742188 L97.6367188,75.0742188 C97.6875,74.5429688 97.8447266,74.1386719 98.1083984,73.8613281 C98.3720703,73.5839844 98.7226562,73.4453125 99.1601562,73.4453125 C99.5976562,73.4453125 99.9414062,73.5830078 100.191406,73.8583984 C100.441406,74.1337891 100.570312,74.5390625 100.578125,75.0742188 L100.578125,75.0742188 Z M104.873047,79 L104.873047,75.7714844 C104.873047,74.9628906 105.007812,74.3867188 105.277344,74.0429688 C105.546875,73.6992188 105.972656,73.5273438 106.554688,73.5273438 C106.992188,73.5273438 107.311523,73.6503906 107.512695,73.8964844 C107.713867,74.1425781 107.814453,74.515625 107.814453,75.015625 L107.814453,75.015625 L107.814453,79 L109.197266,79 L109.197266,74.7753906 C109.197266,73.1933594 108.419922,72.4023438 106.865234,72.4023438 C106.427734,72.4023438 106.029297,72.4863281 105.669922,72.6542969 C105.310547,72.8222656 105.033203,73.0605469 104.837891,73.3691406 L104.837891,73.3691406 L104.767578,73.3691406 L104.574219,72.5195312 L103.496094,72.5195312 L103.496094,79 L104.873047,79 Z M113.199219,79.1171875 C113.457031,79.1171875 113.706055,79.0947266 113.946289,79.0498047 C114.186523,79.0048828 114.382812,78.9492188 114.535156,78.8828125 L114.535156,78.8828125 L114.535156,77.8457031 C114.199219,77.9511719 113.863281,78.0039062 113.527344,78.0039062 C113.257812,78.0039062 113.040039,77.9248047 112.874023,77.7666016 C112.708008,77.6083984 112.625,77.3632812 112.625,77.03125 L112.625,77.03125 L112.625,73.5625 L114.470703,73.5625 L114.470703,72.5195312 L112.625,72.5195312 L112.625,71.078125 L111.775391,71.078125 L111.306641,72.4492188 L110.357422,72.953125 L110.357422,73.5625 L111.242188,73.5625 L111.242188,77.0546875 C111.242188,78.4296875 111.894531,79.1171875 113.199219,79.1171875 Z M116.527344,71.5585938 C116.769531,71.5585938 116.958008,71.4912109 117.092773,71.3564453 C117.227539,71.2216797 117.294922,71.0371094 117.294922,70.8027344 C117.294922,70.5566406 117.227539,70.3671875 117.092773,70.234375 C116.958008,70.1015625 116.769531,70.0351562 116.527344,70.0351562 C116.277344,70.0351562 116.084961,70.1015625 115.950195,70.234375 C115.81543,70.3671875 115.748047,70.5566406 115.748047,70.8027344 C115.748047,71.0371094 115.81543,71.2216797 115.950195,71.3564453 C116.084961,71.4912109 116.277344,71.5585938 116.527344,71.5585938 Z M117.207031,79 L117.207031,72.5195312 L115.830078,72.5195312 L115.830078,79 L117.207031,79 Z M120.746094,79.1171875 C121.242188,79.1171875 121.648438,79.0458984 121.964844,78.9033203 C122.28125,78.7607422 122.595703,78.4921875 122.908203,78.0976562 L122.908203,78.0976562 L122.955078,78.0976562 L123.230469,79 L124.214844,79 L124.214844,74.6347656 C124.214844,73.8652344 124.004883,73.3007812 123.584961,72.9414062 C123.165039,72.5820312 122.542969,72.4023438 121.71875,72.4023438 C121.347656,72.4023438 120.953125,72.4501953 120.535156,72.5458984 C120.117188,72.6416016 119.732422,72.78125 119.380859,72.9648438 L119.380859,72.9648438 L119.826172,73.9492188 C120.107422,73.8164062 120.400391,73.7011719 120.705078,73.6035156 C121.009766,73.5058594 121.328125,73.4570312 121.660156,73.4570312 C122.066406,73.4570312 122.366211,73.5595703 122.55957,73.7646484 C122.75293,73.9697266 122.849609,74.2792969 122.849609,74.6933594 L122.849609,74.6933594 L122.849609,75.0390625 L121.730469,75.0742188 C120.714844,75.1054688 119.958984,75.2910156 119.462891,75.6308594 C118.966797,75.9707031 118.71875,76.4746094 118.71875,77.1425781 C118.71875,77.7714844 118.897461,78.2578125 119.254883,78.6015625 C119.612305,78.9453125 120.109375,79.1171875 120.746094,79.1171875 Z M121.179688,78.0625 C120.835938,78.0625 120.578125,77.9833984 120.40625,77.8251953 C120.234375,77.6669922 120.148438,77.4433594 120.148438,77.1542969 C120.148438,76.7558594 120.295898,76.4599609 120.59082,76.2666016 C120.885742,76.0732422 121.357422,75.9648438 122.005859,75.9414062 L122.005859,75.9414062 L122.837891,75.90625 L122.837891,76.46875 C122.837891,76.9726562 122.686523,77.3642578 122.383789,77.6435547 C122.081055,77.9228516 121.679688,78.0625 121.179688,78.0625 Z M127.513672,79 L127.513672,69.8828125 L126.136719,69.8828125 L126.136719,79 L127.513672,79 Z M131.164062,79.1171875 C132.023438,79.1171875 132.683594,78.9482422 133.144531,78.6103516 C133.605469,78.2724609 133.835938,77.7871094 133.835938,77.1542969 C133.835938,76.8417969 133.777344,76.5732422 133.660156,76.3486328 C133.542969,76.1240234 133.363281,75.9257812 133.121094,75.7539062 C132.878906,75.5820312 132.490234,75.3925781 131.955078,75.1855469 C131.318359,74.9394531 130.905273,74.7460938 130.71582,74.6054688 C130.526367,74.4648438 130.431641,74.2929688 130.431641,74.0898438 C130.431641,73.6757812 130.794922,73.46875 131.521484,73.46875 C131.998047,73.46875 132.585938,73.6132812 133.285156,73.9023438 L133.285156,73.9023438 L133.730469,72.8652344 C133.050781,72.5566406 132.330078,72.4023438 131.568359,72.4023438 C130.798828,72.4023438 130.19043,72.5556641 129.743164,72.8623047 C129.295898,73.1689453 129.072266,73.5996094 129.072266,74.1542969 C129.072266,74.6152344 129.204102,74.9902344 129.467773,75.2792969 C129.731445,75.5683594 130.236328,75.8574219 130.982422,76.1464844 C131.365234,76.2949219 131.664062,76.4277344 131.878906,76.5449219 C132.09375,76.6621094 132.248047,76.7753906 132.341797,76.8847656 C132.435547,76.9941406 132.482422,77.1308594 132.482422,77.2949219 C132.482422,77.8066406 132.058594,78.0625 131.210938,78.0625 C130.554688,78.0625 129.845703,77.8867188 129.083984,77.5351562 L129.083984,77.5351562 L129.083984,78.7246094 C129.607422,78.9863281 130.300781,79.1171875 131.164062,79.1171875 Z M135.986328,79.1699219 C136.267578,79.1699219 136.483398,79.0888672 136.633789,78.9267578 C136.78418,78.7646484 136.859375,78.5449219 136.859375,78.2675781 C136.859375,77.9941406 136.785156,77.7783203 136.636719,77.6201172 C136.488281,77.4619141 136.271484,77.3828125 135.986328,77.3828125 C135.705078,77.3828125 135.490234,77.4589844 135.341797,77.6113281 C135.193359,77.7636719 135.119141,77.9824219 135.119141,78.2675781 C135.119141,78.5488281 135.193359,78.7695312 135.341797,78.9296875 C135.490234,79.0898438 135.705078,79.1699219 135.986328,79.1699219 Z" id="Communicatetheessentials." fill="#FFFFFF" fill-rule="nonzero"></path>
                <g id="noun_248668_F5D327" transform="translate(20.000000, 45.000000)" fill-rule="nonzero">
                    <g id="Group">
                        <path d="M36.181548,35.6086957 C36.1024627,35.6086957 36.0233774,35.6086957 35.944292,35.5695652 L25.1491416,30.8347827 C18.5850575,34.6304348 10.3206383,33.6130434 4.90329176,28.2521739 C1.73987772,25.1217391 0,20.973913 0,16.5521739 C0,12.1304348 1.73987772,7.98260867 4.90329176,4.85217391 C8.06670581,1.72173913 12.2582294,0 16.7265517,0 C21.1553314,0.0782608718 25.346855,1.8 28.510269,4.89130434 C33.5321888,9.86086958 34.8370971,17.373913 31.7527684,23.7130434 L36.6956029,34.7869566 C36.7746882,35.0217391 36.7351455,35.2565217 36.5769748,35.4521739 C36.4978895,35.5695652 36.3397187,35.6086957 36.181548,35.6086957 Z M25.1095989,29.5826087 C25.1886842,29.5826087 25.2677696,29.5826087 25.346855,29.6217391 L35.0348105,33.8869566 L30.5664882,23.9478261 C30.4874028,23.7913043 30.4874028,23.5956522 30.5664882,23.4391304 C33.5321888,17.5304348 32.3854512,10.4086957 27.6403302,5.75217391 L27.6403302,5.75217391 C24.7537149,2.8173913 20.83899,1.25217391 16.687009,1.25217391 C12.5350282,1.25217391 8.65984592,2.85652174 5.73368794,5.75217391 C2.80752996,8.64782608 1.18628027,12.4826087 1.18628027,16.5913043 C1.18628027,20.7 2.80752996,24.5347827 5.73368794,27.4695652 C10.834693,32.4782609 18.6641428,33.4173913 24.7932575,29.7 C24.8723429,29.6217391 24.9909709,29.5826087 25.1095989,29.5826087 Z" id="Shape" stroke="#FFFFFF" fill="#FFFFFF"></path>
                        <g id="Shape" transform="translate(6.722255, 13.695652)">
                            <path d="M5.41734654,3.05217391 C5.41734654,4.53913043 4.1915236,5.71304348 2.7284446,5.71304348 C1.22582294,5.71304348 0.0395426755,4.5 0.0395426755,3.05217391 C0.0395426755,1.56521739 1.26536562,0.391304348 2.7284446,0.391304348 C4.23106628,0.391304348 5.41734654,1.60434783 5.41734654,3.05217391 Z" fill="#BDC3C7"></path>
                            <path d="M12.9699975,2.97391304 C12.9699975,4.46086957 11.7441747,5.63478261 10.2810957,5.63478261 C8.77847398,5.63478261 7.59219369,4.42173913 7.59219369,2.97391304 C7.59219369,1.48695652 8.81801664,0.313043478 10.2810957,0.313043478 C11.7441747,0.313043478 12.9699975,1.52608696 12.9699975,2.97391304 Z" fill="#9B9B9B"></path>
                            <path d="M20.4831059,2.97391304 C20.4831059,4.46086957 19.257283,5.63478261 17.7942039,5.63478261 C16.2915823,5.63478261 15.105302,4.42173913 15.105302,2.97391304 C15.105302,1.48695652 16.3311249,0.313043478 17.7942039,0.313043478 C19.257283,0.313043478 20.4831059,1.52608696 20.4831059,2.97391304 Z" fill="#BDC3C7"></path>
                        </g>
                    </g>
                </g>
            </g>
        </g>
    </g>
</svg>