<?xml version="1.0" encoding="UTF-8"?>
<svg width="163px" height="97px" viewBox="0 0 163 97" version="1.1" xmlns="http://www.w3.org/2000/svg" xmlns:xlink="http://www.w3.org/1999/xlink">
    <!-- Generator: Sketch 62 (91390) - https://sketch.com -->
    <title>Extract</title>
    <desc>Created with Sketch.</desc>
    <defs>
        <radialGradient cx="27.3275%" cy="49.999975%" fx="27.3275%" fy="49.999975%" r="47.5383503%" gradientTransform="translate(0.273275,0.500000),scale(0.586896,1.000000),rotate(90.000000),translate(-0.273275,-0.500000)" id="radialGradient-1">
            <stop stop-color="#31CEBB" offset="0%"></stop>
            <stop stop-color="#16A085" offset="100%"></stop>
        </radialGradient>
    </defs>
    <g id="Symbols" stroke="none" stroke-width="1" fill="none" fill-rule="evenodd">
        <g id="i/Extract">
            <g id="Extract">
                <g id="Group-9">
                    <g id="Group-28">
                        <g id="Group-2">
                            <g id="Group-3" transform="translate(0.000000, 0.451163)">
                                <rect id="Rectangle-2" fill="url(#radialGradient-1)" fill-rule="nonzero" x="0" y="0" width="163" height="95.6640325" rx="6"></rect>
                                <line x1="80.990625" y1="39.7273902" x2="80.990625" y2="85.4702845" id="Line-3" stroke="#FFFFFF" stroke-width="2" stroke-linecap="square"></line>
                            </g>
                            <path d="M58.3764974,20.3023256 L51.7944174,20.3023256 L51.7944174,7.41951308 L58.3764974,7.41951308 L58.3764974,9.19949128 L53.6966146,9.19949128 L53.6966146,12.706577 L58.0820149,12.706577 L58.0820149,14.4689317 L53.6966146,14.4689317 L53.6966146,18.5135356 L58.3764974,18.5135356 L58.3764974,20.3023256 Z M62.650472,15.3236737 L59.6976888,10.5565044 L61.8306966,10.5565044 L63.8363607,13.9666606 L65.8579427,10.5565044 L67.9750329,10.5565044 L65.0142904,15.3236737 L68.1262534,20.3023256 L66.0091634,20.3023256 L63.8363607,16.6542515 L61.6715169,20.3023256 L59.5544271,20.3023256 L62.650472,15.3236737 Z M72.9493976,18.8043241 C73.4057154,18.8043241 73.8620258,18.725019 74.3183429,18.5664062 L74.3183429,20.1260901 C74.1114083,20.2259574 73.8447851,20.3096684 73.5184653,20.3772257 C73.1921454,20.4447829 72.8538918,20.478561 72.5036945,20.478561 C70.7314851,20.478561 69.845394,19.4446567 69.845394,17.3768169 L69.845394,12.125 L68.6435869,12.125 L68.6435869,11.2085756 L69.9329427,10.4507631 L70.5696615,8.38880814 L71.7237144,8.38880814 L71.7237144,10.5565044 L74.2307943,10.5565044 L74.2307943,12.125 L71.7237144,12.125 L71.7237144,17.3415698 C71.7237144,17.8409061 71.8364655,18.2095282 72.0619713,18.4474473 C72.287477,18.6853664 72.5832826,18.8043241 72.9493976,18.8043241 Z M80.542269,10.3802689 C80.918996,10.3802689 81.2293935,10.4096412 81.4734704,10.4683866 L81.2904132,12.3981649 C81.0251124,12.3276704 80.7492037,12.2924237 80.4626789,12.2924237 C79.7145306,12.2924237 79.1083275,12.5626487 78.6440512,13.1031068 C78.1797749,13.6435649 77.9476398,14.3455626 77.9476398,15.2091206 L77.9476398,20.3023256 L76.0772786,20.3023256 L76.0772786,10.5565044 L77.5417318,10.5565044 L77.7884601,12.2748002 L77.8839679,12.2748002 C78.1757991,11.6932202 78.5564998,11.2320754 79.0260824,10.8913517 C79.4956651,10.5506281 80.0010554,10.3802689 80.542269,10.3802689 Z M88.286361,20.3023256 L87.9122882,18.9453125 L87.8486164,18.9453125 C87.4241352,19.5386415 86.9970072,19.9425104 86.5672204,20.1569313 C86.1374329,20.3713522 85.5856154,20.478561 84.9117516,20.478561 C84.0468709,20.478561 83.3716903,20.2200849 82.88619,19.703125 C82.4006891,19.1861651 82.1579427,18.4547952 82.1579427,17.5089934 C82.1579427,16.5044463 82.4948698,15.7466413 83.1687336,15.235556 C83.842598,14.7244706 84.8692963,14.4454338 86.248861,14.3984375 L87.7690269,14.3455669 L87.7690269,13.8256723 C87.7690269,13.2029705 87.6377046,12.7374198 87.3750572,12.4290062 C87.1124092,12.1205926 86.7051788,11.9663881 86.1533525,11.9663881 C85.7023417,11.9663881 85.2699075,12.0398188 84.8560382,12.1866824 C84.442169,12.333546 84.0442242,12.5068425 83.6621909,12.706577 L83.0573081,11.2261991 C83.5348492,10.9500955 84.0574843,10.7400837 84.6252275,10.5961574 C85.1929715,10.452231 85.7288713,10.3802689 86.2329427,10.3802689 C87.3525123,10.3802689 88.1974825,10.6504939 88.7678793,11.190952 C89.3382761,11.7314102 89.6234704,12.5802692 89.6234704,13.7375545 L89.6234704,20.3023256 L88.286361,20.3023256 Z M85.5007161,18.8924419 C86.1798862,18.8924419 86.7250709,18.68243 87.1362873,18.2624001 C87.5475037,17.8423701 87.7531086,17.2534558 87.7531086,16.4956395 L87.7531086,15.6497093 L86.6229331,15.7025799 C85.7421341,15.7378272 85.1014422,15.9008434 84.7008385,16.1916333 C84.300234,16.4824233 84.0999349,16.9274135 84.0999349,17.526617 C84.0999349,17.9613333 84.2166653,18.297646 84.4501302,18.535565 C84.6835951,18.7734841 85.033787,18.8924419 85.5007161,18.8924419 Z M95.783724,20.478561 C94.4519141,20.478561 93.4398064,20.0482571 92.7473715,19.1876362 C92.0549366,18.3270155 91.708724,17.0919109 91.708724,15.4822856 C91.708724,13.8432876 92.0708543,12.5832166 92.7951251,11.7020349 C93.5193966,10.8208531 94.5659924,10.3802689 95.9349445,10.3802689 C96.8634978,10.3802689 97.6991825,10.5711887 98.4420244,10.9530341 L97.8769367,12.6184593 C97.0863405,12.2777357 96.4337102,12.1073765 95.9190269,12.1073765 C94.3962,12.1073765 93.6347985,13.2264605 93.6347985,15.464662 C93.6347985,16.5573274 93.8244857,17.3782828 94.2038655,17.9275527 C94.5832459,18.4768227 95.1390427,18.7514535 95.8712726,18.7514535 C96.7043174,18.7514535 97.4922492,18.5223496 98.2350911,18.0641352 L98.2350911,19.8705487 C97.9008121,20.0879069 97.5439881,20.24358 97.1646077,20.3375727 C96.7852279,20.4315654 96.3249376,20.478561 95.783724,20.478561 Z M103.583529,18.8043241 C104.039846,18.8043241 104.496157,18.725019 104.952474,18.5664062 L104.952474,20.1260901 C104.745539,20.2259574 104.478916,20.3096684 104.152596,20.3772257 C103.826276,20.4447829 103.488023,20.478561 103.137826,20.478561 C101.365616,20.478561 100.479524,19.4446567 100.479524,17.3768169 L100.479524,12.125 L99.2777179,12.125 L99.2777179,11.2085756 L100.567074,10.4507631 L101.203792,8.38880814 L102.357845,8.38880814 L102.357845,10.5565044 L104.864925,10.5565044 L104.864925,12.125 L102.357845,12.125 L102.357845,17.3415698 C102.357845,17.8409061 102.470596,18.2095282 102.696102,18.4474473 C102.921607,18.6853664 103.217414,18.8043241 103.583529,18.8043241 Z" id="Extract" fill="#FFFFFF" fill-rule="nonzero"></path>
                        </g>
                        <g id="Group-8" transform="translate(18.000000, 40.375000)">
                            <path d="M6.78571424,40.9963768 C8.65953771,40.9963768 10.1785714,39.516159 10.1785714,37.6902175 C10.1785714,35.8642759 8.65953771,34.384058 6.78571424,34.384058 C4.91189084,34.384058 3.39285714,35.8642759 3.39285714,37.6902175 C3.39285714,39.516159 4.91189084,40.9963768 6.78571424,40.9963768 Z" id="Path" fill="#ECF0F1" fill-rule="nonzero"></path>
                            <line x1="56.3214286" y1="1.32246377" x2="56.3214286" y2="43.6413043" id="Line"></line>
                            <path d="M6.78571429,44.3025362 C3.03806758,44.3025362 0,41.3421004 0,37.6902174 C0,34.0383343 3.03806758,31.0778986 6.78571429,31.0778986 C10.533361,31.0778986 13.5714286,34.0383343 13.5714286,37.6902174 C13.5714286,41.3421004 10.533361,44.3025362 6.78571429,44.3025362 Z" id="Path" stroke="#979797" stroke-width="2" fill="#BDC3C7" fill-rule="nonzero"></path>
                            <path d="M40.0357144,40.9963768 C41.9095377,40.9963768 43.4285714,39.516159 43.4285714,37.6902175 C43.4285714,35.8642759 41.9095377,34.384058 40.0357144,34.384058 C38.1618909,34.384058 36.6428571,35.8642759 36.6428571,37.6902175 C36.6428571,39.516159 38.1618909,40.9963768 40.0357144,40.9963768 Z" id="Path" fill="#ECF0F1" fill-rule="nonzero"></path>
                            <path d="M40.0357143,44.3025362 C36.2880676,44.3025362 33.25,41.3421004 33.25,37.6902174 C33.25,34.0383343 36.2880676,31.0778986 40.0357143,31.0778986 C43.783361,31.0778986 46.8214286,34.0383343 46.8214286,37.6902174 C46.8214286,41.3421004 43.783361,44.3025362 40.0357143,44.3025362 Z" id="Path" stroke="#979797" stroke-width="2" fill="#BDC3C7" fill-rule="nonzero"></path>
                            <path d="M23.0714286,42.3188406 C24.945252,42.3188406 26.4642857,40.8386228 26.4642857,39.0126812 C26.4642857,37.1867396 24.945252,35.7065217 23.0714286,35.7065217 C21.1976051,35.7065217 19.6785714,37.1867396 19.6785714,39.0126812 C19.6785714,40.8386228 21.1976051,42.3188406 23.0714286,42.3188406 Z" id="Path" fill="#ECF0F1" fill-rule="nonzero"></path>
                            <path d="M23.0714286,45.625 C19.3237818,45.625 16.2857143,42.6645642 16.2857143,39.0126812 C16.2857143,35.3607981 19.3237818,32.4003623 23.0714286,32.4003623 C26.8190753,32.4003623 29.8571429,35.3607981 29.8571429,39.0126812 C29.8571429,42.6645642 26.8190753,45.625 23.0714286,45.625 Z" id="Path" stroke="#979797" stroke-width="2" fill="#BDC3C7" fill-rule="nonzero"></path>
                            <path d="M23.75,13.8858696 C26.7481171,13.8858696 29.1785714,11.5175208 29.1785714,8.59601456 C29.1785714,5.67450818 26.7481171,3.30615942 23.75,3.30615942 C20.7518829,3.30615942 18.3214286,5.67450818 18.3214286,8.59601456 C18.3214286,11.5175208 20.7518829,13.8858696 23.75,13.8858696 Z" id="Path" fill="#ECF0F1" fill-rule="nonzero"></path>
                            <path d="M23.75,17.192029 C18.8780595,17.192029 14.9285714,13.3434622 14.9285714,8.59601456 C14.9285714,3.84856681 18.8780596,0 23.75,0 C28.6219404,0 32.5714286,3.84856681 32.5714286,8.59601456 C32.5714286,13.3434622 28.6219405,17.192029 23.75,17.192029 Z" id="Path" stroke="#9B9B9B" stroke-width="2" fill="#ECF0F1" fill-rule="nonzero"></path>
                            <path d="M11.8662711,24.6885976 L11.8662711,24.6885976 L13.3357292,24.4388954 C14.0594827,24.3159089 14.7496544,24.7816357 14.8772719,25.4791252 C15.0048888,26.1766149 14.5216251,26.8417411 13.7978722,26.9647277 L9.16465638,27.7520423 C8.44090356,27.8750282 7.75073134,27.4093013 7.6231137,26.7118124 L6.80615281,22.246729 C6.67853592,21.54924 7.16179963,20.8841131 7.88555317,20.7611266 C8.60930599,20.6381407 9.29947841,21.1038676 9.42709524,21.8013571 L9.68620068,23.21749 L13.1863062,18.4002158 C13.6078381,17.8200516 14.4375829,17.6790551 15.0395925,18.0852902 C15.6416021,18.4915252 15.7879085,19.2911591 15.3663767,19.8713233 L11.8662711,24.6885976 Z" id="Path" fill="#ECF0F1" fill-rule="nonzero"></path>
                            <path d="M36.4566565,23.21749 L36.7157619,21.8013571 C36.8433787,21.1038676 37.5335512,20.6381407 38.257304,20.7611266 C38.9810575,20.8841131 39.4643212,21.54924 39.3367044,22.246729 L38.5197434,26.7118124 C38.3921258,27.4093013 37.7019536,27.8750282 36.9782008,27.7520423 L32.3449849,26.9647277 C31.6212321,26.8417411 31.1379683,26.1766149 31.2655852,25.4791252 C31.3932027,24.7816357 32.0833745,24.3159089 32.8071279,24.4388954 L34.276586,24.6885976 L30.7764805,19.8713233 C30.3549486,19.2911591 30.5012551,18.4915252 31.1032646,18.0852902 C31.7052743,17.6790551 32.5350191,17.8200516 32.9565509,18.4002158 L36.4566565,23.21749 Z" id="Path" fill="#ECF0F1" fill-rule="nonzero"></path>
                            <path d="M24.4285714,26.5627249 L25.5046405,25.5141519 C26.034638,24.9976981 26.8939334,24.9976981 27.4239309,25.5141519 C27.9539278,26.0306064 27.9539278,26.8679442 27.4239309,27.3843987 L24.0310738,30.6905582 C23.5010762,31.207012 22.6417809,31.207012 22.1117834,30.6905582 L18.7189262,27.3843987 C18.1889294,26.8679442 18.1889294,26.0306064 18.7189262,25.5141519 C19.2489237,24.9976981 20.1082191,24.9976981 20.6382166,25.5141519 L21.7142857,26.5627249 L21.7142857,20.4981884 C21.7142857,19.7678122 22.3218996,19.1757246 23.0714286,19.1757246 C23.8209575,19.1757246 24.4285714,19.7678122 24.4285714,20.4981884 L24.4285714,26.5627249 Z" id="Path" fill="#ECF0F1" fill-rule="nonzero"></path>
                        </g>
                    </g>
                    <path d="M89.53125,55 L89.53125,46.4335938 L88.1308594,46.4335938 L88.1308594,55 L89.53125,55 Z M93.8320312,55.1171875 C94.6835938,55.1171875 95.3300781,54.7949219 95.7714844,54.1503906 L95.7714844,54.1503906 L95.8359375,54.1503906 L96.0761719,55 L97.1542969,55 L97.1542969,45.8828125 L95.7714844,45.8828125 L95.7714844,48.2441406 C95.7714844,48.5136719 95.8046875,48.8808594 95.8710938,49.3457031 L95.8710938,49.3457031 L95.8007812,49.3457031 C95.3554688,48.7167969 94.7070312,48.4023438 93.8554688,48.4023438 C93.0429688,48.4023438 92.4072266,48.6982422 91.9482422,49.2900391 C91.4892578,49.8818359 91.2597656,50.7089844 91.2597656,51.7714844 C91.2597656,52.8300781 91.4863281,53.6523438 91.9394531,54.2382812 C92.3925781,54.8242188 93.0234375,55.1171875 93.8320312,55.1171875 Z M94.2011719,54.0039062 C93.6933594,54.0039062 93.3125,53.8154297 93.0585938,53.4384766 C92.8046875,53.0615234 92.6777344,52.5136719 92.6777344,51.7949219 C92.6777344,51.0683594 92.8085938,50.5087891 93.0703125,50.1162109 C93.3320312,49.7236328 93.7050781,49.5273438 94.1894531,49.5273438 C94.7558594,49.5273438 95.171875,49.6992188 95.4375,50.0429688 C95.703125,50.3867188 95.8359375,50.9667969 95.8359375,51.7832031 L95.8359375,51.7832031 L95.8359375,51.9765625 C95.828125,52.6914062 95.6953125,53.2080078 95.4375,53.5263672 C95.1796875,53.8447266 94.7675781,54.0039062 94.2011719,54.0039062 Z M101.953125,55.1171875 C102.394531,55.1171875 102.787109,55.0839844 103.130859,55.0175781 C103.474609,54.9511719 103.814453,54.8378906 104.150391,54.6777344 L104.150391,54.6777344 L104.150391,53.5585938 C103.771484,53.7265625 103.416992,53.8466797 103.086914,53.9189453 C102.756836,53.9912109 102.400391,54.0273438 102.017578,54.0273438 C101.435547,54.0273438 100.984375,53.8583984 100.664062,53.5205078 C100.34375,53.1826172 100.173828,52.6992188 100.154297,52.0703125 L100.154297,52.0703125 L104.472656,52.0703125 L104.472656,51.3261719 C104.472656,50.4160156 104.224609,49.7011719 103.728516,49.1816406 C103.232422,48.6621094 102.556641,48.4023438 101.701172,48.4023438 C100.779297,48.4023438 100.054688,48.7050781 99.5273438,49.3105469 C99,49.9160156 98.7363281,50.7480469 98.7363281,51.8066406 C98.7363281,52.8378906 99.0205078,53.6474609 99.5888672,54.2353516 C100.157227,54.8232422 100.945312,55.1171875 101.953125,55.1171875 Z M103.119141,51.0742188 L100.177734,51.0742188 C100.228516,50.5429688 100.385742,50.1386719 100.649414,49.8613281 C100.913086,49.5839844 101.263672,49.4453125 101.701172,49.4453125 C102.138672,49.4453125 102.482422,49.5830078 102.732422,49.8583984 C102.982422,50.1337891 103.111328,50.5390625 103.119141,51.0742188 L103.119141,51.0742188 Z M107.414062,55 L107.414062,51.7714844 C107.414062,50.9628906 107.548828,50.3867188 107.818359,50.0429688 C108.087891,49.6992188 108.513672,49.5273438 109.095703,49.5273438 C109.533203,49.5273438 109.852539,49.6503906 110.053711,49.8964844 C110.254883,50.1425781 110.355469,50.515625 110.355469,51.015625 L110.355469,51.015625 L110.355469,55 L111.738281,55 L111.738281,50.7753906 C111.738281,49.1933594 110.960938,48.4023438 109.40625,48.4023438 C108.96875,48.4023438 108.570312,48.4863281 108.210938,48.6542969 C107.851562,48.8222656 107.574219,49.0605469 107.378906,49.3691406 L107.378906,49.3691406 L107.308594,49.3691406 L107.115234,48.5195312 L106.037109,48.5195312 L106.037109,55 L107.414062,55 Z M115.740234,55.1171875 C115.998047,55.1171875 116.24707,55.0947266 116.487305,55.0498047 C116.727539,55.0048828 116.923828,54.9492188 117.076172,54.8828125 L117.076172,54.8828125 L117.076172,53.8457031 C116.740234,53.9511719 116.404297,54.0039062 116.068359,54.0039062 C115.798828,54.0039062 115.581055,53.9248047 115.415039,53.7666016 C115.249023,53.6083984 115.166016,53.3632812 115.166016,53.03125 L115.166016,53.03125 L115.166016,49.5625 L117.011719,49.5625 L117.011719,48.5195312 L115.166016,48.5195312 L115.166016,47.078125 L114.316406,47.078125 L113.847656,48.4492188 L112.898438,48.953125 L112.898438,49.5625 L113.783203,49.5625 L113.783203,53.0546875 C113.783203,54.4296875 114.435547,55.1171875 115.740234,55.1171875 Z M119.068359,47.5585938 C119.310547,47.5585938 119.499023,47.4912109 119.633789,47.3564453 C119.768555,47.2216797 119.835938,47.0371094 119.835938,46.8027344 C119.835938,46.5566406 119.768555,46.3671875 119.633789,46.234375 C119.499023,46.1015625 119.310547,46.0351562 119.068359,46.0351562 C118.818359,46.0351562 118.625977,46.1015625 118.491211,46.234375 C118.356445,46.3671875 118.289062,46.5566406 118.289062,46.8027344 C118.289062,47.0371094 118.356445,47.2216797 118.491211,47.3564453 C118.625977,47.4912109 118.818359,47.5585938 119.068359,47.5585938 Z M119.748047,55 L119.748047,48.5195312 L118.371094,48.5195312 L118.371094,55 L119.748047,55 Z M123.386719,55 L123.386719,49.5625 L124.96875,49.5625 L124.96875,48.5195312 L123.386719,48.5195312 L123.386719,48.0976562 C123.386719,47.7109375 123.458008,47.4208984 123.600586,47.2275391 C123.743164,47.0341797 123.970703,46.9375 124.283203,46.9375 C124.591797,46.9375 124.916016,46.9921875 125.255859,47.1015625 L125.255859,47.1015625 L125.619141,46.0585938 C125.150391,45.8984375 124.673828,45.8183594 124.189453,45.8183594 C123.451172,45.8183594 122.902344,46.0029297 122.542969,46.3720703 C122.183594,46.7412109 122.003906,47.3085938 122.003906,48.0742188 L122.003906,48.0742188 L122.003906,48.4960938 L120.9375,48.9179688 L120.9375,49.5625 L122.003906,49.5625 L122.003906,55 L123.386719,55 Z M126.228516,57.8828125 C127.404297,57.8828125 128.244141,57.2089844 128.748047,55.8613281 L128.748047,55.8613281 L131.519531,48.5195312 L130.03125,48.5195312 C129.132812,51.125 128.636719,52.5810547 128.542969,52.8876953 C128.449219,53.1943359 128.384766,53.4550781 128.349609,53.6699219 L128.349609,53.6699219 L128.302734,53.6699219 C128.236328,53.2089844 128.103516,52.7167969 127.904297,52.1933594 L127.904297,52.1933594 L126.585938,48.5195312 L125.085938,48.5195312 L127.6875,55 L127.447266,55.609375 C127.177734,56.3789062 126.710938,56.7636719 126.046875,56.7636719 C125.78125,56.7636719 125.544922,56.7402344 125.337891,56.6933594 L125.337891,56.6933594 L125.337891,57.7832031 C125.626953,57.8496094 125.923828,57.8828125 126.228516,57.8828125 Z M89.3613281,69.8828125 L89.3613281,67.2285156 C89.3613281,67.1113281 89.3339844,66.7792969 89.2792969,66.2324219 L89.2792969,66.2324219 L89.3613281,66.2324219 C89.8144531,66.8222656 90.4511719,67.1171875 91.2714844,67.1171875 C92.0800781,67.1171875 92.7138672,66.8203125 93.1728516,66.2265625 C93.6318359,65.6328125 93.8613281,64.8066406 93.8613281,63.7480469 C93.8613281,62.6894531 93.6357422,61.8671875 93.1845703,61.28125 C92.7333984,60.6953125 92.1035156,60.4023438 91.2949219,60.4023438 C90.4355469,60.4023438 89.7910156,60.7304688 89.3613281,61.3867188 L89.3613281,61.3867188 L89.2910156,61.3867188 C89.1933594,60.9296875 89.1289062,60.640625 89.0976562,60.5195312 L89.0976562,60.5195312 L87.984375,60.5195312 L87.984375,69.8828125 L89.3613281,69.8828125 Z M90.9609375,65.9921875 C90.3945312,65.9921875 89.9863281,65.8154297 89.7363281,65.4619141 C89.4863281,65.1083984 89.3613281,64.5371094 89.3613281,63.7480469 L89.3613281,63.7480469 L89.3613281,63.5429688 C89.3613281,62.8398438 89.4873047,62.328125 89.7392578,62.0078125 C89.9912109,61.6875 90.390625,61.5273438 90.9375,61.5273438 C91.4335938,61.5273438 91.8095703,61.7138672 92.0654297,62.0869141 C92.3212891,62.4599609 92.4492188,63.0097656 92.4492188,63.7363281 C92.4492188,64.4589844 92.3203125,65.015625 92.0625,65.40625 C91.8046875,65.796875 91.4375,65.9921875 90.9609375,65.9921875 Z M97.03125,67.1171875 C97.5273438,67.1171875 97.9335938,67.0458984 98.25,66.9033203 C98.5664062,66.7607422 98.8808594,66.4921875 99.1933594,66.0976562 L99.1933594,66.0976562 L99.2402344,66.0976562 L99.515625,67 L100.5,67 L100.5,62.6347656 C100.5,61.8652344 100.290039,61.3007812 99.8701172,60.9414062 C99.4501953,60.5820312 98.828125,60.4023438 98.0039062,60.4023438 C97.6328125,60.4023438 97.2382812,60.4501953 96.8203125,60.5458984 C96.4023438,60.6416016 96.0175781,60.78125 95.6660156,60.9648438 L95.6660156,60.9648438 L96.1113281,61.9492188 C96.3925781,61.8164062 96.6855469,61.7011719 96.9902344,61.6035156 C97.2949219,61.5058594 97.6132812,61.4570312 97.9453125,61.4570312 C98.3515625,61.4570312 98.6513672,61.5595703 98.8447266,61.7646484 C99.0380859,61.9697266 99.1347656,62.2792969 99.1347656,62.6933594 L99.1347656,62.6933594 L99.1347656,63.0390625 L98.015625,63.0742188 C97,63.1054688 96.2441406,63.2910156 95.7480469,63.6308594 C95.2519531,63.9707031 95.0039062,64.4746094 95.0039062,65.1425781 C95.0039062,65.7714844 95.1826172,66.2578125 95.5400391,66.6015625 C95.8974609,66.9453125 96.3945312,67.1171875 97.03125,67.1171875 Z M97.4648438,66.0625 C97.1210938,66.0625 96.8632812,65.9833984 96.6914062,65.8251953 C96.5195312,65.6669922 96.4335938,65.4433594 96.4335938,65.1542969 C96.4335938,64.7558594 96.5810547,64.4599609 96.8759766,64.2666016 C97.1708984,64.0732422 97.6425781,63.9648438 98.2910156,63.9414062 L98.2910156,63.9414062 L99.1230469,63.90625 L99.1230469,64.46875 C99.1230469,64.9726562 98.9716797,65.3642578 98.6689453,65.6435547 C98.3662109,65.9228516 97.9648438,66.0625 97.4648438,66.0625 Z M103.798828,67 L103.798828,63.6132812 C103.798828,63.0390625 103.969727,62.5722656 104.311523,62.2128906 C104.65332,61.8535156 105.099609,61.6738281 105.650391,61.6738281 C105.861328,61.6738281 106.064453,61.6972656 106.259766,61.7441406 L106.259766,61.7441406 L106.394531,60.4609375 C106.214844,60.421875 105.986328,60.4023438 105.708984,60.4023438 C105.310547,60.4023438 104.938477,60.515625 104.592773,60.7421875 C104.24707,60.96875 103.966797,61.2753906 103.751953,61.6621094 L103.751953,61.6621094 L103.681641,61.6621094 L103.5,60.5195312 L102.421875,60.5195312 L102.421875,67 L103.798828,67 Z M109.681641,67.1171875 C109.939453,67.1171875 110.188477,67.0947266 110.428711,67.0498047 C110.668945,67.0048828 110.865234,66.9492188 111.017578,66.8828125 L111.017578,66.8828125 L111.017578,65.8457031 C110.681641,65.9511719 110.345703,66.0039062 110.009766,66.0039062 C109.740234,66.0039062 109.522461,65.9248047 109.356445,65.7666016 C109.19043,65.6083984 109.107422,65.3632812 109.107422,65.03125 L109.107422,65.03125 L109.107422,61.5625 L110.953125,61.5625 L110.953125,60.5195312 L109.107422,60.5195312 L109.107422,59.078125 L108.257812,59.078125 L107.789062,60.4492188 L106.839844,60.953125 L106.839844,61.5625 L107.724609,61.5625 L107.724609,65.0546875 C107.724609,66.4296875 108.376953,67.1171875 109.681641,67.1171875 Z M113.994141,67.1171875 C114.853516,67.1171875 115.513672,66.9482422 115.974609,66.6103516 C116.435547,66.2724609 116.666016,65.7871094 116.666016,65.1542969 C116.666016,64.8417969 116.607422,64.5732422 116.490234,64.3486328 C116.373047,64.1240234 116.193359,63.9257812 115.951172,63.7539062 C115.708984,63.5820312 115.320312,63.3925781 114.785156,63.1855469 C114.148438,62.9394531 113.735352,62.7460938 113.545898,62.6054688 C113.356445,62.4648438 113.261719,62.2929688 113.261719,62.0898438 C113.261719,61.6757812 113.625,61.46875 114.351562,61.46875 C114.828125,61.46875 115.416016,61.6132812 116.115234,61.9023438 L116.115234,61.9023438 L116.560547,60.8652344 C115.880859,60.5566406 115.160156,60.4023438 114.398438,60.4023438 C113.628906,60.4023438 113.020508,60.5556641 112.573242,60.8623047 C112.125977,61.1689453 111.902344,61.5996094 111.902344,62.1542969 C111.902344,62.6152344 112.03418,62.9902344 112.297852,63.2792969 C112.561523,63.5683594 113.066406,63.8574219 113.8125,64.1464844 C114.195312,64.2949219 114.494141,64.4277344 114.708984,64.5449219 C114.923828,64.6621094 115.078125,64.7753906 115.171875,64.8847656 C115.265625,64.9941406 115.3125,65.1308594 115.3125,65.2949219 C115.3125,65.8066406 114.888672,66.0625 114.041016,66.0625 C113.384766,66.0625 112.675781,65.8867188 111.914062,65.5351562 L111.914062,65.5351562 L111.914062,66.7246094 C112.4375,66.9863281 113.130859,67.1171875 113.994141,67.1171875 Z M122.941406,67 L122.941406,61.5625 L124.523438,61.5625 L124.523438,60.5195312 L122.941406,60.5195312 L122.941406,60.0976562 C122.941406,59.7109375 123.012695,59.4208984 123.155273,59.2275391 C123.297852,59.0341797 123.525391,58.9375 123.837891,58.9375 C124.146484,58.9375 124.470703,58.9921875 124.810547,59.1015625 L124.810547,59.1015625 L125.173828,58.0585938 C124.705078,57.8984375 124.228516,57.8183594 123.744141,57.8183594 C123.005859,57.8183594 122.457031,58.0029297 122.097656,58.3720703 C121.738281,58.7412109 121.558594,59.3085938 121.558594,60.0742188 L121.558594,60.0742188 L121.558594,60.4960938 L120.492188,60.9179688 L120.492188,61.5625 L121.558594,61.5625 L121.558594,67 L122.941406,67 Z M127.001953,67 L127.001953,63.6132812 C127.001953,63.0390625 127.172852,62.5722656 127.514648,62.2128906 C127.856445,61.8535156 128.302734,61.6738281 128.853516,61.6738281 C129.064453,61.6738281 129.267578,61.6972656 129.462891,61.7441406 L129.462891,61.7441406 L129.597656,60.4609375 C129.417969,60.421875 129.189453,60.4023438 128.912109,60.4023438 C128.513672,60.4023438 128.141602,60.515625 127.795898,60.7421875 C127.450195,60.96875 127.169922,61.2753906 126.955078,61.6621094 L126.955078,61.6621094 L126.884766,61.6621094 L126.703125,60.5195312 L125.625,60.5195312 L125.625,67 L127.001953,67 Z M133.464844,67.1171875 C134.433594,67.1171875 135.189453,66.8203125 135.732422,66.2265625 C136.275391,65.6328125 136.546875,64.8066406 136.546875,63.7480469 C136.546875,62.7246094 136.273438,61.9111328 135.726562,61.3076172 C135.179688,60.7041016 134.4375,60.4023438 133.5,60.4023438 C132.519531,60.4023438 131.759766,60.6972656 131.220703,61.2871094 C130.681641,61.8769531 130.412109,62.6972656 130.412109,63.7480469 C130.412109,64.4238281 130.537109,65.0175781 130.787109,65.5292969 C131.037109,66.0410156 131.394531,66.4335938 131.859375,66.7070312 C132.324219,66.9804688 132.859375,67.1171875 133.464844,67.1171875 Z M133.488281,65.9921875 C132.382812,65.9921875 131.830078,65.2441406 131.830078,63.7480469 C131.830078,63.0332031 131.959961,62.484375 132.219727,62.1015625 C132.479492,61.71875 132.898438,61.5273438 133.476562,61.5273438 C134.578125,61.5273438 135.128906,62.2675781 135.128906,63.7480469 C135.128906,65.2441406 134.582031,65.9921875 133.488281,65.9921875 Z M139.505859,67 L139.505859,63.7714844 C139.505859,62.9667969 139.629883,62.3916016 139.87793,62.0458984 C140.125977,61.7001953 140.515625,61.5273438 141.046875,61.5273438 C141.445312,61.5273438 141.738281,61.6494141 141.925781,61.8935547 C142.113281,62.1376953 142.207031,62.5078125 142.207031,63.0039062 L142.207031,63.0039062 L142.207031,67 L143.589844,67 L143.589844,63.5664062 C143.589844,62.875 143.713867,62.3623047 143.961914,62.0283203 C144.209961,61.6943359 144.601562,61.5273438 145.136719,61.5273438 C145.535156,61.5273438 145.829102,61.6494141 146.018555,61.8935547 C146.208008,62.1376953 146.302734,62.5078125 146.302734,63.0039062 L146.302734,63.0039062 L146.302734,67 L147.679688,67 L147.679688,62.7753906 C147.679688,61.9746094 147.50293,61.3789062 147.149414,60.9882812 C146.795898,60.5976562 146.232422,60.4023438 145.458984,60.4023438 C145.009766,60.4023438 144.611328,60.4921875 144.263672,60.671875 C143.916016,60.8515625 143.646484,61.1015625 143.455078,61.421875 L143.455078,61.421875 L143.361328,61.421875 C143.037109,60.7421875 142.376953,60.4023438 141.380859,60.4023438 C140.970703,60.4023438 140.594727,60.4863281 140.25293,60.6542969 C139.911133,60.8222656 139.650391,61.0605469 139.470703,61.3691406 L139.470703,61.3691406 L139.400391,61.3691406 L139.207031,60.5195312 L138.128906,60.5195312 L138.128906,67 L139.505859,67 Z M90.0703125,79.1171875 C90.328125,79.1171875 90.5771484,79.0947266 90.8173828,79.0498047 C91.0576172,79.0048828 91.2539062,78.9492188 91.40625,78.8828125 L91.40625,78.8828125 L91.40625,77.8457031 C91.0703125,77.9511719 90.734375,78.0039062 90.3984375,78.0039062 C90.1289062,78.0039062 89.9111328,77.9248047 89.7451172,77.7666016 C89.5791016,77.6083984 89.4960938,77.3632812 89.4960938,77.03125 L89.4960938,77.03125 L89.4960938,73.5625 L91.3417969,73.5625 L91.3417969,72.5195312 L89.4960938,72.5195312 L89.4960938,71.078125 L88.6464844,71.078125 L88.1777344,72.4492188 L87.2285156,72.953125 L87.2285156,73.5625 L88.1132812,73.5625 L88.1132812,77.0546875 C88.1132812,78.4296875 88.765625,79.1171875 90.0703125,79.1171875 Z M94.078125,79 L94.078125,75.7832031 C94.078125,74.9707031 94.2138672,74.3916016 94.4853516,74.0458984 C94.7568359,73.7001953 95.1816406,73.5273438 95.7597656,73.5273438 C96.1972656,73.5273438 96.5166016,73.6503906 96.7177734,73.8964844 C96.9189453,74.1425781 97.0195312,74.515625 97.0195312,75.015625 L97.0195312,75.015625 L97.0195312,79 L98.4023438,79 L98.4023438,74.7753906 C98.4023438,73.1933594 97.6171875,72.4023438 96.046875,72.4023438 C95.6015625,72.4023438 95.2119141,72.4882812 94.8779297,72.6601562 C94.5439453,72.8320312 94.2832031,73.0742188 94.0957031,73.3867188 L94.0957031,73.3867188 L94.0078125,73.3867188 C94.0546875,72.9648438 94.078125,72.5683594 94.078125,72.1972656 L94.078125,72.1972656 L94.078125,69.8828125 L92.7011719,69.8828125 L92.7011719,79 L94.078125,79 Z M103.148438,79.1171875 C103.589844,79.1171875 103.982422,79.0839844 104.326172,79.0175781 C104.669922,78.9511719 105.009766,78.8378906 105.345703,78.6777344 L105.345703,78.6777344 L105.345703,77.5585938 C104.966797,77.7265625 104.612305,77.8466797 104.282227,77.9189453 C103.952148,77.9912109 103.595703,78.0273438 103.212891,78.0273438 C102.630859,78.0273438 102.179688,77.8583984 101.859375,77.5205078 C101.539062,77.1826172 101.369141,76.6992188 101.349609,76.0703125 L101.349609,76.0703125 L105.667969,76.0703125 L105.667969,75.3261719 C105.667969,74.4160156 105.419922,73.7011719 104.923828,73.1816406 C104.427734,72.6621094 103.751953,72.4023438 102.896484,72.4023438 C101.974609,72.4023438 101.25,72.7050781 100.722656,73.3105469 C100.195312,73.9160156 99.9316406,74.7480469 99.9316406,75.8066406 C99.9316406,76.8378906 100.21582,77.6474609 100.78418,78.2353516 C101.352539,78.8232422 102.140625,79.1171875 103.148438,79.1171875 Z M104.314453,75.0742188 L101.373047,75.0742188 C101.423828,74.5429688 101.581055,74.1386719 101.844727,73.8613281 C102.108398,73.5839844 102.458984,73.4453125 102.896484,73.4453125 C103.333984,73.4453125 103.677734,73.5830078 103.927734,73.8583984 C104.177734,74.1337891 104.306641,74.5390625 104.314453,75.0742188 L104.314453,75.0742188 Z M112.822266,79 L113.683594,75.9882812 C113.816406,75.546875 113.996094,74.7988281 114.222656,73.7441406 L114.222656,73.7441406 L114.275391,73.7441406 C114.541016,74.9121094 114.724609,75.65625 114.826172,75.9765625 L114.826172,75.9765625 L115.664062,79 L117.210938,79 L119.039062,72.5195312 L117.65625,72.5195312 L116.818359,75.7128906 C116.603516,76.5761719 116.466797,77.2480469 116.408203,77.7285156 L116.408203,77.7285156 L116.361328,77.7285156 C116.345703,77.5097656 116.293945,77.203125 116.206055,76.8085938 C116.118164,76.4140625 116.044922,76.1210938 115.986328,75.9296875 L115.986328,75.9296875 L115.03125,72.5195312 L113.519531,72.5195312 L112.535156,75.9296875 C112.476562,76.1132812 112.407227,76.3896484 112.327148,76.7587891 C112.24707,77.1279297 112.1875,77.4550781 112.148438,77.7402344 L112.148438,77.7402344 L112.113281,77.7402344 C112.035156,77.1777344 111.902344,76.5019531 111.714844,75.7128906 L111.714844,75.7128906 L110.888672,72.5195312 L109.482422,72.5195312 L111.298828,79 L112.822266,79 Z M121.529297,79 L121.529297,75.7832031 C121.529297,74.9707031 121.665039,74.3916016 121.936523,74.0458984 C122.208008,73.7001953 122.632812,73.5273438 123.210938,73.5273438 C123.648438,73.5273438 123.967773,73.6503906 124.168945,73.8964844 C124.370117,74.1425781 124.470703,74.515625 124.470703,75.015625 L124.470703,75.015625 L124.470703,79 L125.853516,79 L125.853516,74.7753906 C125.853516,73.1933594 125.068359,72.4023438 123.498047,72.4023438 C123.052734,72.4023438 122.663086,72.4882812 122.329102,72.6601562 C121.995117,72.8320312 121.734375,73.0742188 121.546875,73.3867188 L121.546875,73.3867188 L121.458984,73.3867188 C121.505859,72.9648438 121.529297,72.5683594 121.529297,72.1972656 L121.529297,72.1972656 L121.529297,69.8828125 L120.152344,69.8828125 L120.152344,79 L121.529297,79 Z M130.435547,79.1171875 C131.404297,79.1171875 132.160156,78.8203125 132.703125,78.2265625 C133.246094,77.6328125 133.517578,76.8066406 133.517578,75.7480469 C133.517578,74.7246094 133.244141,73.9111328 132.697266,73.3076172 C132.150391,72.7041016 131.408203,72.4023438 130.470703,72.4023438 C129.490234,72.4023438 128.730469,72.6972656 128.191406,73.2871094 C127.652344,73.8769531 127.382812,74.6972656 127.382812,75.7480469 C127.382812,76.4238281 127.507812,77.0175781 127.757812,77.5292969 C128.007812,78.0410156 128.365234,78.4335938 128.830078,78.7070312 C129.294922,78.9804688 129.830078,79.1171875 130.435547,79.1171875 Z M130.458984,77.9921875 C129.353516,77.9921875 128.800781,77.2441406 128.800781,75.7480469 C128.800781,75.0332031 128.930664,74.484375 129.19043,74.1015625 C129.450195,73.71875 129.869141,73.5273438 130.447266,73.5273438 C131.548828,73.5273438 132.099609,74.2675781 132.099609,75.7480469 C132.099609,77.2441406 131.552734,77.9921875 130.458984,77.9921875 Z M136.476562,79 L136.476562,69.8828125 L135.099609,69.8828125 L135.099609,79 L136.476562,79 Z M141.275391,79.1171875 C141.716797,79.1171875 142.109375,79.0839844 142.453125,79.0175781 C142.796875,78.9511719 143.136719,78.8378906 143.472656,78.6777344 L143.472656,78.6777344 L143.472656,77.5585938 C143.09375,77.7265625 142.739258,77.8466797 142.40918,77.9189453 C142.079102,77.9912109 141.722656,78.0273438 141.339844,78.0273438 C140.757812,78.0273438 140.306641,77.8583984 139.986328,77.5205078 C139.666016,77.1826172 139.496094,76.6992188 139.476562,76.0703125 L139.476562,76.0703125 L143.794922,76.0703125 L143.794922,75.3261719 C143.794922,74.4160156 143.546875,73.7011719 143.050781,73.1816406 C142.554688,72.6621094 141.878906,72.4023438 141.023438,72.4023438 C140.101562,72.4023438 139.376953,72.7050781 138.849609,73.3105469 C138.322266,73.9160156 138.058594,74.7480469 138.058594,75.8066406 C138.058594,76.8378906 138.342773,77.6474609 138.911133,78.2353516 C139.479492,78.8232422 140.267578,79.1171875 141.275391,79.1171875 Z M142.441406,75.0742188 L139.5,75.0742188 C139.550781,74.5429688 139.708008,74.1386719 139.97168,73.8613281 C140.235352,73.5839844 140.585938,73.4453125 141.023438,73.4453125 C141.460938,73.4453125 141.804688,73.5830078 142.054688,73.8583984 C142.304688,74.1337891 142.433594,74.5390625 142.441406,75.0742188 L142.441406,75.0742188 Z M146.021484,79.1699219 C146.302734,79.1699219 146.518555,79.0888672 146.668945,78.9267578 C146.819336,78.7646484 146.894531,78.5449219 146.894531,78.2675781 C146.894531,77.9941406 146.820312,77.7783203 146.671875,77.6201172 C146.523438,77.4619141 146.306641,77.3828125 146.021484,77.3828125 C145.740234,77.3828125 145.525391,77.4589844 145.376953,77.6113281 C145.228516,77.7636719 145.154297,77.9824219 145.154297,78.2675781 C145.154297,78.5488281 145.228516,78.7695312 145.376953,78.9296875 C145.525391,79.0898438 145.740234,79.1699219 146.021484,79.1699219 Z" id="Identifypartsfromthewhole." fill="#FFFFFF" fill-rule="nonzero"></path>
                </g>
                <line x1="2" y1="27.2083333" x2="161" y2="27.2083333" id="Line-2" stroke="#FFFFFF" stroke-width="4" stroke-linecap="square"></line>
            </g>
        </g>
    </g>
</svg>