<?xml version="1.0" encoding="UTF-8"?>
<svg width="163px" height="97px" viewBox="0 0 163 97" version="1.1" xmlns="http://www.w3.org/2000/svg" xmlns:xlink="http://www.w3.org/1999/xlink">
    <!-- Generator: Sketch 62 (91390) - https://sketch.com -->
    <title>Generate Questions</title>
    <desc>Created with Sketch.</desc>
    <defs>
        <radialGradient cx="26.0530847%" cy="62.3934409%" fx="26.0530847%" fy="62.3934409%" r="35.1006849%" gradientTransform="translate(0.260531,0.623934),scale(0.595092,1.000000),rotate(-90.000000),translate(-0.260531,-0.623934)" id="radialGradient-1">
            <stop stop-color="#F5836F" offset="0%"></stop>
            <stop stop-color="#E74C3C" offset="100%"></stop>
        </radialGradient>
        <path d="M6.3515625,17.15625 C7.0859375,17.15625 7.76953125,17.109375 8.40234375,17.015625 C9.03515625,16.921875 9.6953125,16.7630208 10.3828125,16.5390625 L10.3828125,16.5390625 L10.3828125,10.8046875 L6.1796875,10.8046875 L6.1796875,12.40625 L8.546875,12.40625 L8.546875,15.3515625 C7.859375,15.5026042 7.21354167,15.578125 6.609375,15.578125 C5.41145833,15.578125 4.49348958,15.2148438 3.85546875,14.4882812 C3.21744792,13.7617188 2.8984375,12.7005208 2.8984375,11.3046875 C2.8984375,9.9765625 3.25260417,8.9296875 3.9609375,8.1640625 C4.66927083,7.3984375 5.6328125,7.015625 6.8515625,7.015625 C7.77864583,7.015625 8.70572917,7.22916667 9.6328125,7.65625 L9.6328125,7.65625 L10.2890625,6.1015625 C9.22135417,5.64322917 8.09114583,5.4140625 6.8984375,5.4140625 C5.04427083,5.4140625 3.58854167,5.93359375 2.53125,6.97265625 C1.47395833,8.01171875 0.9453125,9.45052083 0.9453125,11.2890625 C0.9453125,13.1536458 1.4140625,14.5976562 2.3515625,15.6210938 C3.2890625,16.6445312 4.62239583,17.15625 6.3515625,17.15625 Z M16.703125,17.15625 C17.2916667,17.15625 17.8151042,17.1119792 18.2734375,17.0234375 C18.7317708,16.9348958 19.1848958,16.7838542 19.6328125,16.5703125 L19.6328125,16.5703125 L19.6328125,15.078125 C19.1276042,15.3020833 18.6549479,15.4622396 18.2148438,15.5585938 C17.7747396,15.6549479 17.2994792,15.703125 16.7890625,15.703125 C16.0130208,15.703125 15.4114583,15.4778646 14.984375,15.0273438 C14.5572917,14.5768229 14.3307292,13.9322917 14.3046875,13.09375 L14.3046875,13.09375 L20.0625,13.09375 L20.0625,12.1015625 C20.0625,10.8880208 19.7317708,9.93489583 19.0703125,9.2421875 C18.4088542,8.54947917 17.5078125,8.203125 16.3671875,8.203125 C15.1380208,8.203125 14.171875,8.60677083 13.46875,9.4140625 C12.765625,10.2213542 12.4140625,11.3307292 12.4140625,12.7421875 C12.4140625,14.1171875 12.7929688,15.1966146 13.5507812,15.9804688 C14.3085938,16.7643229 15.359375,17.15625 16.703125,17.15625 Z M18.2578125,11.765625 L14.3359375,11.765625 C14.4036458,11.0572917 14.6132812,10.5182292 14.9648438,10.1484375 C15.3164062,9.77864583 15.7838542,9.59375 16.3671875,9.59375 C16.9505208,9.59375 17.4088542,9.77734375 17.7421875,10.1445312 C18.0755208,10.5117188 18.2473958,11.0520833 18.2578125,11.765625 L18.2578125,11.765625 Z M23.984375,17 L23.984375,12.6953125 C23.984375,11.6171875 24.1640625,10.8489583 24.5234375,10.390625 C24.8828125,9.93229167 25.4505208,9.703125 26.2265625,9.703125 C26.8098958,9.703125 27.2356771,9.8671875 27.5039062,10.1953125 C27.7721354,10.5234375 27.90625,11.0208333 27.90625,11.6875 L27.90625,11.6875 L27.90625,17 L29.75,17 L29.75,11.3671875 C29.75,9.2578125 28.7135417,8.203125 26.640625,8.203125 C26.0572917,8.203125 25.5260417,8.31510417 25.046875,8.5390625 C24.5677083,8.76302083 24.1979167,9.08072917 23.9375,9.4921875 L23.9375,9.4921875 L23.84375,9.4921875 L23.5859375,8.359375 L22.1484375,8.359375 L22.1484375,17 L23.984375,17 Z M36.078125,17.15625 C36.6666667,17.15625 37.1901042,17.1119792 37.6484375,17.0234375 C38.1067708,16.9348958 38.5598958,16.7838542 39.0078125,16.5703125 L39.0078125,16.5703125 L39.0078125,15.078125 C38.5026042,15.3020833 38.0299479,15.4622396 37.5898438,15.5585938 C37.1497396,15.6549479 36.6744792,15.703125 36.1640625,15.703125 C35.3880208,15.703125 34.7864583,15.4778646 34.359375,15.0273438 C33.9322917,14.5768229 33.7057292,13.9322917 33.6796875,13.09375 L33.6796875,13.09375 L39.4375,13.09375 L39.4375,12.1015625 C39.4375,10.8880208 39.1067708,9.93489583 38.4453125,9.2421875 C37.7838542,8.54947917 36.8828125,8.203125 35.7421875,8.203125 C34.5130208,8.203125 33.546875,8.60677083 32.84375,9.4140625 C32.140625,10.2213542 31.7890625,11.3307292 31.7890625,12.7421875 C31.7890625,14.1171875 32.1679688,15.1966146 32.9257812,15.9804688 C33.6835938,16.7643229 34.734375,17.15625 36.078125,17.15625 Z M37.6328125,11.765625 L33.7109375,11.765625 C33.7786458,11.0572917 33.9882812,10.5182292 34.3398438,10.1484375 C34.6914062,9.77864583 35.1588542,9.59375 35.7421875,9.59375 C36.3255208,9.59375 36.7838542,9.77734375 37.1171875,10.1445312 C37.4505208,10.5117188 37.6223958,11.0520833 37.6328125,11.765625 L37.6328125,11.765625 Z M43.359375,17 L43.359375,12.484375 C43.359375,11.71875 43.5872396,11.0963542 44.0429688,10.6171875 C44.4986979,10.1380208 45.09375,9.8984375 45.828125,9.8984375 C46.109375,9.8984375 46.3802083,9.9296875 46.640625,9.9921875 L46.640625,9.9921875 L46.8203125,8.28125 C46.5807292,8.22916667 46.2760417,8.203125 45.90625,8.203125 C45.375,8.203125 44.8789062,8.35416667 44.4179688,8.65625 C43.9570312,8.95833333 43.5833333,9.3671875 43.296875,9.8828125 L43.296875,9.8828125 L43.203125,9.8828125 L42.9609375,8.359375 L41.5234375,8.359375 L41.5234375,17 L43.359375,17 Z M50.515625,17.15625 C51.1770833,17.15625 51.71875,17.0611979 52.140625,16.8710938 C52.5625,16.6809896 52.9817708,16.3229167 53.3984375,15.796875 L53.3984375,15.796875 L53.4609375,15.796875 L53.828125,17 L55.140625,17 L55.140625,11.1796875 C55.140625,10.1536458 54.8606771,9.40104167 54.3007812,8.921875 C53.7408854,8.44270833 52.9114583,8.203125 51.8125,8.203125 C51.3177083,8.203125 50.7916667,8.26692708 50.234375,8.39453125 C49.6770833,8.52213542 49.1640625,8.70833333 48.6953125,8.953125 L48.6953125,8.953125 L49.2890625,10.265625 C49.6640625,10.0885417 50.0546875,9.93489583 50.4609375,9.8046875 C50.8671875,9.67447917 51.2916667,9.609375 51.734375,9.609375 C52.2760417,9.609375 52.6757812,9.74609375 52.9335938,10.0195312 C53.1914062,10.2929688 53.3203125,10.7057292 53.3203125,11.2578125 L53.3203125,11.2578125 L53.3203125,11.71875 L51.828125,11.765625 C50.4739583,11.8072917 49.4661458,12.0546875 48.8046875,12.5078125 C48.1432292,12.9609375 47.8125,13.6328125 47.8125,14.5234375 C47.8125,15.3619792 48.0507812,16.0104167 48.5273438,16.46875 C49.0039062,16.9270833 49.6666667,17.15625 50.515625,17.15625 Z M51.09375,15.75 C50.6354167,15.75 50.2916667,15.6445312 50.0625,15.4335938 C49.8333333,15.2226562 49.71875,14.9244792 49.71875,14.5390625 C49.71875,14.0078125 49.9153646,13.6132812 50.3085938,13.3554688 C50.7018229,13.0976562 51.3307292,12.953125 52.1953125,12.921875 L52.1953125,12.921875 L53.3046875,12.875 L53.3046875,13.625 C53.3046875,14.296875 53.1028646,14.8190104 52.6992188,15.1914062 C52.2955729,15.5638021 51.7604167,15.75 51.09375,15.75 Z M60.484375,17.15625 C60.828125,17.15625 61.1601562,17.1263021 61.4804688,17.0664062 C61.8007812,17.0065104 62.0625,16.9322917 62.265625,16.84375 L62.265625,16.84375 L62.265625,15.4609375 C61.8177083,15.6015625 61.3697917,15.671875 60.921875,15.671875 C60.5625,15.671875 60.2721354,15.5664062 60.0507812,15.3554688 C59.8294271,15.1445312 59.71875,14.8177083 59.71875,14.375 L59.71875,14.375 L59.71875,9.75 L62.1796875,9.75 L62.1796875,8.359375 L59.71875,8.359375 L59.71875,6.4375 L58.5859375,6.4375 L57.9609375,8.265625 L56.6953125,8.9375 L56.6953125,9.75 L57.875,9.75 L57.875,14.40625 C57.875,16.2395833 58.7447917,17.15625 60.484375,17.15625 Z M67.765625,17.15625 C68.3541667,17.15625 68.8776042,17.1119792 69.3359375,17.0234375 C69.7942708,16.9348958 70.2473958,16.7838542 70.6953125,16.5703125 L70.6953125,16.5703125 L70.6953125,15.078125 C70.1901042,15.3020833 69.7174479,15.4622396 69.2773438,15.5585938 C68.8372396,15.6549479 68.3619792,15.703125 67.8515625,15.703125 C67.0755208,15.703125 66.4739583,15.4778646 66.046875,15.0273438 C65.6197917,14.5768229 65.3932292,13.9322917 65.3671875,13.09375 L65.3671875,13.09375 L71.125,13.09375 L71.125,12.1015625 C71.125,10.8880208 70.7942708,9.93489583 70.1328125,9.2421875 C69.4713542,8.54947917 68.5703125,8.203125 67.4296875,8.203125 C66.2005208,8.203125 65.234375,8.60677083 64.53125,9.4140625 C63.828125,10.2213542 63.4765625,11.3307292 63.4765625,12.7421875 C63.4765625,14.1171875 63.8554688,15.1966146 64.6132812,15.9804688 C65.3710938,16.7643229 66.421875,17.15625 67.765625,17.15625 Z M69.3203125,11.765625 L65.3984375,11.765625 C65.4661458,11.0572917 65.6757812,10.5182292 66.0273438,10.1484375 C66.3789062,9.77864583 66.8463542,9.59375 67.4296875,9.59375 C68.0130208,9.59375 68.4713542,9.77734375 68.8046875,10.1445312 C69.1380208,10.5117188 69.3098958,11.0520833 69.3203125,11.765625 L69.3203125,11.765625 Z M87.3359375,19.71875 L84.6015625,16.7734375 C85.6119792,16.3880208 86.3815104,15.7213542 86.9101562,14.7734375 C87.4388021,13.8255208 87.703125,12.6588542 87.703125,11.2734375 C87.703125,9.40885417 87.2395833,7.96354167 86.3125,6.9375 C85.3854167,5.91145833 84.0729167,5.3984375 82.375,5.3984375 C80.6510417,5.3984375 79.3242188,5.90364583 78.3945312,6.9140625 C77.4648438,7.92447917 77,9.37239583 77,11.2578125 C77,13.1432292 77.4622396,14.5976562 78.3867188,15.6210938 C79.3111979,16.6445312 80.6354167,17.15625 82.359375,17.15625 L82.359375,17.15625 L82.6640625,17.15625 L84.8203125,19.71875 L87.3359375,19.71875 Z M82.359375,15.5625 C81.2447917,15.5625 80.4036458,15.1992188 79.8359375,14.4726562 C79.2682292,13.7460938 78.984375,12.6796875 78.984375,11.2734375 C78.984375,9.87239583 79.2695312,8.80989583 79.8398438,8.0859375 C80.4101562,7.36197917 81.2552083,7 82.375,7 C83.484375,7 84.3190104,7.36197917 84.8789062,8.0859375 C85.4388021,8.80989583 85.71875,9.87239583 85.71875,11.2734375 C85.71875,12.6953125 85.4361979,13.765625 84.8710938,14.484375 C84.3059896,15.203125 83.46875,15.5625 82.359375,15.5625 Z M93,17.15625 C93.6041667,17.15625 94.1419271,17.0416667 94.6132812,16.8125 C95.0846354,16.5833333 95.4479167,16.2682292 95.703125,15.8671875 L95.703125,15.8671875 L95.796875,15.8671875 L96.0546875,17 L97.5,17 L97.5,8.359375 L95.65625,8.359375 L95.65625,12.6640625 C95.65625,13.7473958 95.4752604,14.5195312 95.1132812,14.9804688 C94.7513021,15.4414062 94.1848958,15.671875 93.4140625,15.671875 C92.8359375,15.671875 92.4114583,15.5065104 92.140625,15.1757812 C91.8697917,14.8450521 91.734375,14.3489583 91.734375,13.6875 L91.734375,13.6875 L91.734375,8.359375 L89.8828125,8.359375 L89.8828125,14.0078125 C89.8828125,15.0651042 90.140625,15.8541667 90.65625,16.375 C91.171875,16.8958333 91.953125,17.15625 93,17.15625 Z M103.890625,17.15625 C104.479167,17.15625 105.002604,17.1119792 105.460938,17.0234375 C105.919271,16.9348958 106.372396,16.7838542 106.820312,16.5703125 L106.820312,16.5703125 L106.820312,15.078125 C106.315104,15.3020833 105.842448,15.4622396 105.402344,15.5585938 C104.96224,15.6549479 104.486979,15.703125 103.976562,15.703125 C103.200521,15.703125 102.598958,15.4778646 102.171875,15.0273438 C101.744792,14.5768229 101.518229,13.9322917 101.492188,13.09375 L101.492188,13.09375 L107.25,13.09375 L107.25,12.1015625 C107.25,10.8880208 106.919271,9.93489583 106.257812,9.2421875 C105.596354,8.54947917 104.695312,8.203125 103.554688,8.203125 C102.325521,8.203125 101.359375,8.60677083 100.65625,9.4140625 C99.953125,10.2213542 99.6015625,11.3307292 99.6015625,12.7421875 C99.6015625,14.1171875 99.9804688,15.1966146 100.738281,15.9804688 C101.496094,16.7643229 102.546875,17.15625 103.890625,17.15625 Z M105.445312,11.765625 L101.523438,11.765625 C101.591146,11.0572917 101.800781,10.5182292 102.152344,10.1484375 C102.503906,9.77864583 102.971354,9.59375 103.554688,9.59375 C104.138021,9.59375 104.596354,9.77734375 104.929688,10.1445312 C105.263021,10.5117188 105.434896,11.0520833 105.445312,11.765625 L105.445312,11.765625 Z M111.578125,17.15625 C112.723958,17.15625 113.604167,16.9309896 114.21875,16.4804688 C114.833333,16.0299479 115.140625,15.3828125 115.140625,14.5390625 C115.140625,14.1223958 115.0625,13.7643229 114.90625,13.4648438 C114.75,13.1653646 114.510417,12.9010417 114.1875,12.671875 C113.864583,12.4427083 113.346354,12.1901042 112.632812,11.9140625 C111.783854,11.5859375 111.233073,11.328125 110.980469,11.140625 C110.727865,10.953125 110.601562,10.7239583 110.601562,10.453125 C110.601562,9.90104167 111.085938,9.625 112.054688,9.625 C112.690104,9.625 113.473958,9.81770833 114.40625,10.203125 L114.40625,10.203125 L115,8.8203125 C114.09375,8.40885417 113.132812,8.203125 112.117188,8.203125 C111.091146,8.203125 110.279948,8.40755208 109.683594,8.81640625 C109.08724,9.22526042 108.789062,9.79947917 108.789062,10.5390625 C108.789062,11.1536458 108.964844,11.6536458 109.316406,12.0390625 C109.667969,12.4244792 110.341146,12.8098958 111.335938,13.1953125 C111.846354,13.3932292 112.244792,13.5703125 112.53125,13.7265625 C112.817708,13.8828125 113.023438,14.0338542 113.148438,14.1796875 C113.273438,14.3255208 113.335938,14.5078125 113.335938,14.7265625 C113.335938,15.4088542 112.770833,15.75 111.640625,15.75 C110.765625,15.75 109.820312,15.515625 108.804688,15.046875 L108.804688,15.046875 L108.804688,16.6328125 C109.502604,16.9817708 110.427083,17.15625 111.578125,17.15625 Z M119.90625,17.15625 C120.25,17.15625 120.582031,17.1263021 120.902344,17.0664062 C121.222656,17.0065104 121.484375,16.9322917 121.6875,16.84375 L121.6875,16.84375 L121.6875,15.4609375 C121.239583,15.6015625 120.791667,15.671875 120.34375,15.671875 C119.984375,15.671875 119.69401,15.5664062 119.472656,15.3554688 C119.251302,15.1445312 119.140625,14.8177083 119.140625,14.375 L119.140625,14.375 L119.140625,9.75 L121.601562,9.75 L121.601562,8.359375 L119.140625,8.359375 L119.140625,6.4375 L118.007812,6.4375 L117.382812,8.265625 L116.117188,8.9375 L116.117188,9.75 L117.296875,9.75 L117.296875,14.40625 C117.296875,16.2395833 118.166667,17.15625 119.90625,17.15625 Z M124.34375,7.078125 C124.666667,7.078125 124.917969,6.98828125 125.097656,6.80859375 C125.277344,6.62890625 125.367188,6.3828125 125.367188,6.0703125 C125.367188,5.7421875 125.277344,5.48958333 125.097656,5.3125 C124.917969,5.13541667 124.666667,5.046875 124.34375,5.046875 C124.010417,5.046875 123.753906,5.13541667 123.574219,5.3125 C123.394531,5.48958333 123.304688,5.7421875 123.304688,6.0703125 C123.304688,6.3828125 123.394531,6.62890625 123.574219,6.80859375 C123.753906,6.98828125 124.010417,7.078125 124.34375,7.078125 Z M125.25,17 L125.25,8.359375 L123.414062,8.359375 L123.414062,17 L125.25,17 Z M131.429688,17.15625 C132.721354,17.15625 133.729167,16.7604167 134.453125,15.96875 C135.177083,15.1770833 135.539062,14.0755208 135.539062,12.6640625 C135.539062,11.2994792 135.174479,10.2148438 134.445312,9.41015625 C133.716146,8.60546875 132.726562,8.203125 131.476562,8.203125 C130.169271,8.203125 129.15625,8.59635417 128.4375,9.3828125 C127.71875,10.1692708 127.359375,11.2630208 127.359375,12.6640625 C127.359375,13.5651042 127.526042,14.3567708 127.859375,15.0390625 C128.192708,15.7213542 128.669271,16.2447917 129.289062,16.609375 C129.908854,16.9739583 130.622396,17.15625 131.429688,17.15625 Z M131.460938,15.65625 C129.986979,15.65625 129.25,14.6588542 129.25,12.6640625 C129.25,11.7109375 129.423177,10.9791667 129.769531,10.46875 C130.115885,9.95833333 130.674479,9.703125 131.445312,9.703125 C132.914062,9.703125 133.648438,10.6901042 133.648438,12.6640625 C133.648438,14.6588542 132.919271,15.65625 131.460938,15.65625 Z M139.484375,17 L139.484375,12.6953125 C139.484375,11.6171875 139.664062,10.8489583 140.023438,10.390625 C140.382812,9.93229167 140.950521,9.703125 141.726562,9.703125 C142.309896,9.703125 142.735677,9.8671875 143.003906,10.1953125 C143.272135,10.5234375 143.40625,11.0208333 143.40625,11.6875 L143.40625,11.6875 L143.40625,17 L145.25,17 L145.25,11.3671875 C145.25,9.2578125 144.213542,8.203125 142.140625,8.203125 C141.557292,8.203125 141.026042,8.31510417 140.546875,8.5390625 C140.067708,8.76302083 139.697917,9.08072917 139.4375,9.4921875 L139.4375,9.4921875 L139.34375,9.4921875 L139.085938,8.359375 L137.648438,8.359375 L137.648438,17 L139.484375,17 Z M150.046875,17.15625 C151.192708,17.15625 152.072917,16.9309896 152.6875,16.4804688 C153.302083,16.0299479 153.609375,15.3828125 153.609375,14.5390625 C153.609375,14.1223958 153.53125,13.7643229 153.375,13.4648438 C153.21875,13.1653646 152.979167,12.9010417 152.65625,12.671875 C152.333333,12.4427083 151.815104,12.1901042 151.101562,11.9140625 C150.252604,11.5859375 149.701823,11.328125 149.449219,11.140625 C149.196615,10.953125 149.070312,10.7239583 149.070312,10.453125 C149.070312,9.90104167 149.554688,9.625 150.523438,9.625 C151.158854,9.625 151.942708,9.81770833 152.875,10.203125 L152.875,10.203125 L153.46875,8.8203125 C152.5625,8.40885417 151.601562,8.203125 150.585938,8.203125 C149.559896,8.203125 148.748698,8.40755208 148.152344,8.81640625 C147.55599,9.22526042 147.257812,9.79947917 147.257812,10.5390625 C147.257812,11.1536458 147.433594,11.6536458 147.785156,12.0390625 C148.136719,12.4244792 148.809896,12.8098958 149.804688,13.1953125 C150.315104,13.3932292 150.713542,13.5703125 151,13.7265625 C151.286458,13.8828125 151.492188,14.0338542 151.617188,14.1796875 C151.742188,14.3255208 151.804688,14.5078125 151.804688,14.7265625 C151.804688,15.4088542 151.239583,15.75 150.109375,15.75 C149.234375,15.75 148.289062,15.515625 147.273438,15.046875 L147.273438,15.046875 L147.273438,16.6328125 C147.971354,16.9817708 148.895833,17.15625 150.046875,17.15625 Z" id="path-2"></path>
    </defs>
    <g id="Symbols" stroke="none" stroke-width="1" fill="none" fill-rule="evenodd">
        <g id="i/Generate-Questions">
            <g id="Generate-Questions">
                <path d="M6,0 L157,0 C160.313708,-6.08718376e-16 163,2.6862915 163,6 L163,91 C163,94.3137085 160.313708,97 157,97 L6,97 C2.6862915,97 4.05812251e-16,94.3137085 0,91 L0,6 C-4.05812251e-16,2.6862915 2.6862915,6.08718376e-16 6,0 Z" id="Rectangle-2" fill="url(#radialGradient-1)" fill-rule="nonzero"></path>
                <polyline id="Line-2" stroke="#FFFFFF" stroke-width="4" stroke-linecap="square" points="2 30 20.4627861 30 161 30"></polyline>
                <line x1="81" y1="45" x2="81" y2="85.0042519" id="Line-3" stroke="#FFFFFF" stroke-width="2" stroke-linecap="square"></line>
                <g id="Adverbs" transform="translate(5.000000, 3.000000)" fill="#FFFFFF" fill-rule="nonzero">
                    <g id="GenerateQuestions">
                        <use xlink:href="#path-2"></use>
                        <use xlink:href="#path-2"></use>
                    </g>
                </g>
                <path d="M98.6054688,51.1171875 C99.4570312,51.1171875 100.21875,50.9902344 100.890625,50.7363281 L100.890625,50.7363281 L100.890625,49.5351562 C100.523438,49.6484375 100.169922,49.7412109 99.8300781,49.8134766 C99.4902344,49.8857422 99.1386719,49.921875 98.7753906,49.921875 C97.9355469,49.921875 97.2939453,49.6523438 96.8505859,49.1132812 C96.4072266,48.5742188 96.1855469,47.7792969 96.1855469,46.7285156 C96.1855469,45.7246094 96.4160156,44.9375 96.8769531,44.3671875 C97.3378906,43.796875 97.9707031,43.5117188 98.7753906,43.5117188 C99.1308594,43.5117188 99.4697266,43.5634766 99.7919922,43.6669922 C100.114258,43.7705078 100.419922,43.890625 100.708984,44.0273438 L100.708984,44.0273438 L101.212891,42.8613281 C100.470703,42.4941406 99.6621094,42.3105469 98.7871094,42.3105469 C97.9550781,42.3105469 97.2304688,42.4882812 96.6132812,42.84375 C95.9960938,43.1992188 95.5244141,43.7109375 95.1982422,44.3789062 C94.8720703,45.046875 94.7089844,45.8261719 94.7089844,46.7167969 C94.7089844,48.1308594 95.0449219,49.2177734 95.7167969,49.9775391 C96.3886719,50.7373047 97.3515625,51.1171875 98.6054688,51.1171875 Z M103.966797,51 L103.966797,47.6132812 C103.966797,47.0390625 104.137695,46.5722656 104.479492,46.2128906 C104.821289,45.8535156 105.267578,45.6738281 105.818359,45.6738281 C106.029297,45.6738281 106.232422,45.6972656 106.427734,45.7441406 L106.427734,45.7441406 L106.5625,44.4609375 C106.382812,44.421875 106.154297,44.4023438 105.876953,44.4023438 C105.478516,44.4023438 105.106445,44.515625 104.760742,44.7421875 C104.415039,44.96875 104.134766,45.2753906 103.919922,45.6621094 L103.919922,45.6621094 L103.849609,45.6621094 L103.667969,44.5195312 L102.589844,44.5195312 L102.589844,51 L103.966797,51 Z M110.59375,51.1171875 C111.035156,51.1171875 111.427734,51.0839844 111.771484,51.0175781 C112.115234,50.9511719 112.455078,50.8378906 112.791016,50.6777344 L112.791016,50.6777344 L112.791016,49.5585938 C112.412109,49.7265625 112.057617,49.8466797 111.727539,49.9189453 C111.397461,49.9912109 111.041016,50.0273438 110.658203,50.0273438 C110.076172,50.0273438 109.625,49.8583984 109.304688,49.5205078 C108.984375,49.1826172 108.814453,48.6992188 108.794922,48.0703125 L108.794922,48.0703125 L113.113281,48.0703125 L113.113281,47.3261719 C113.113281,46.4160156 112.865234,45.7011719 112.369141,45.1816406 C111.873047,44.6621094 111.197266,44.4023438 110.341797,44.4023438 C109.419922,44.4023438 108.695312,44.7050781 108.167969,45.3105469 C107.640625,45.9160156 107.376953,46.7480469 107.376953,47.8066406 C107.376953,48.8378906 107.661133,49.6474609 108.229492,50.2353516 C108.797852,50.8232422 109.585938,51.1171875 110.59375,51.1171875 Z M111.759766,47.0742188 L108.818359,47.0742188 C108.869141,46.5429688 109.026367,46.1386719 109.290039,45.8613281 C109.553711,45.5839844 109.904297,45.4453125 110.341797,45.4453125 C110.779297,45.4453125 111.123047,45.5830078 111.373047,45.8583984 C111.623047,46.1337891 111.751953,46.5390625 111.759766,47.0742188 L111.759766,47.0742188 Z M116.248047,51.1171875 C116.744141,51.1171875 117.150391,51.0458984 117.466797,50.9033203 C117.783203,50.7607422 118.097656,50.4921875 118.410156,50.0976562 L118.410156,50.0976562 L118.457031,50.0976562 L118.732422,51 L119.716797,51 L119.716797,46.6347656 C119.716797,45.8652344 119.506836,45.3007812 119.086914,44.9414062 C118.666992,44.5820312 118.044922,44.4023438 117.220703,44.4023438 C116.849609,44.4023438 116.455078,44.4501953 116.037109,44.5458984 C115.619141,44.6416016 115.234375,44.78125 114.882812,44.9648438 L114.882812,44.9648438 L115.328125,45.9492188 C115.609375,45.8164062 115.902344,45.7011719 116.207031,45.6035156 C116.511719,45.5058594 116.830078,45.4570312 117.162109,45.4570312 C117.568359,45.4570312 117.868164,45.5595703 118.061523,45.7646484 C118.254883,45.9697266 118.351562,46.2792969 118.351562,46.6933594 L118.351562,46.6933594 L118.351562,47.0390625 L117.232422,47.0742188 C116.216797,47.1054688 115.460938,47.2910156 114.964844,47.6308594 C114.46875,47.9707031 114.220703,48.4746094 114.220703,49.1425781 C114.220703,49.7714844 114.399414,50.2578125 114.756836,50.6015625 C115.114258,50.9453125 115.611328,51.1171875 116.248047,51.1171875 Z M116.681641,50.0625 C116.337891,50.0625 116.080078,49.9833984 115.908203,49.8251953 C115.736328,49.6669922 115.650391,49.4433594 115.650391,49.1542969 C115.650391,48.7558594 115.797852,48.4599609 116.092773,48.2666016 C116.387695,48.0732422 116.859375,47.9648438 117.507812,47.9414062 L117.507812,47.9414062 L118.339844,47.90625 L118.339844,48.46875 C118.339844,48.9726562 118.188477,49.3642578 117.885742,49.6435547 C117.583008,49.9228516 117.181641,50.0625 116.681641,50.0625 Z M123.724609,51.1171875 C123.982422,51.1171875 124.231445,51.0947266 124.47168,51.0498047 C124.711914,51.0048828 124.908203,50.9492188 125.060547,50.8828125 L125.060547,50.8828125 L125.060547,49.8457031 C124.724609,49.9511719 124.388672,50.0039062 124.052734,50.0039062 C123.783203,50.0039062 123.56543,49.9248047 123.399414,49.7666016 C123.233398,49.6083984 123.150391,49.3632812 123.150391,49.03125 L123.150391,49.03125 L123.150391,45.5625 L124.996094,45.5625 L124.996094,44.5195312 L123.150391,44.5195312 L123.150391,43.078125 L122.300781,43.078125 L121.832031,44.4492188 L120.882812,44.953125 L120.882812,45.5625 L121.767578,45.5625 L121.767578,49.0546875 C121.767578,50.4296875 122.419922,51.1171875 123.724609,51.1171875 Z M129.185547,51.1171875 C129.626953,51.1171875 130.019531,51.0839844 130.363281,51.0175781 C130.707031,50.9511719 131.046875,50.8378906 131.382812,50.6777344 L131.382812,50.6777344 L131.382812,49.5585938 C131.003906,49.7265625 130.649414,49.8466797 130.319336,49.9189453 C129.989258,49.9912109 129.632812,50.0273438 129.25,50.0273438 C128.667969,50.0273438 128.216797,49.8583984 127.896484,49.5205078 C127.576172,49.1826172 127.40625,48.6992188 127.386719,48.0703125 L127.386719,48.0703125 L131.705078,48.0703125 L131.705078,47.3261719 C131.705078,46.4160156 131.457031,45.7011719 130.960938,45.1816406 C130.464844,44.6621094 129.789062,44.4023438 128.933594,44.4023438 C128.011719,44.4023438 127.287109,44.7050781 126.759766,45.3105469 C126.232422,45.9160156 125.96875,46.7480469 125.96875,47.8066406 C125.96875,48.8378906 126.25293,49.6474609 126.821289,50.2353516 C127.389648,50.8232422 128.177734,51.1171875 129.185547,51.1171875 Z M130.351562,47.0742188 L127.410156,47.0742188 C127.460938,46.5429688 127.618164,46.1386719 127.881836,45.8613281 C128.145508,45.5839844 128.496094,45.4453125 128.933594,45.4453125 C129.371094,45.4453125 129.714844,45.5830078 129.964844,45.8583984 C130.214844,46.1337891 130.34375,46.5390625 130.351562,47.0742188 L130.351562,47.0742188 Z M96.6542969,63 L96.6542969,57.5625 L98.2363281,57.5625 L98.2363281,56.5195312 L96.6542969,56.5195312 L96.6542969,56.0976562 C96.6542969,55.7109375 96.7255859,55.4208984 96.8681641,55.2275391 C97.0107422,55.0341797 97.2382812,54.9375 97.5507812,54.9375 C97.859375,54.9375 98.1835938,54.9921875 98.5234375,55.1015625 L98.5234375,55.1015625 L98.8867188,54.0585938 C98.4179688,53.8984375 97.9414062,53.8183594 97.4570312,53.8183594 C96.71875,53.8183594 96.1699219,54.0029297 95.8105469,54.3720703 C95.4511719,54.7412109 95.2714844,55.3085938 95.2714844,56.0742188 L95.2714844,56.0742188 L95.2714844,56.4960938 L94.2050781,56.9179688 L94.2050781,57.5625 L95.2714844,57.5625 L95.2714844,63 L96.6542969,63 Z M101.617188,63.1171875 C102.070312,63.1171875 102.473633,63.03125 102.827148,62.859375 C103.180664,62.6875 103.453125,62.4511719 103.644531,62.1503906 L103.644531,62.1503906 L103.714844,62.1503906 L103.908203,63 L104.992188,63 L104.992188,56.5195312 L103.609375,56.5195312 L103.609375,59.7480469 C103.609375,60.5605469 103.473633,61.1396484 103.202148,61.4853516 C102.930664,61.8310547 102.505859,62.0039062 101.927734,62.0039062 C101.494141,62.0039062 101.175781,61.8798828 100.972656,61.6318359 C100.769531,61.3837891 100.667969,61.0117188 100.667969,60.515625 L100.667969,60.515625 L100.667969,56.5195312 L99.2792969,56.5195312 L99.2792969,60.7558594 C99.2792969,61.5488281 99.4726562,62.140625 99.859375,62.53125 C100.246094,62.921875 100.832031,63.1171875 101.617188,63.1171875 Z M108.332031,63 L108.332031,59.6132812 C108.332031,59.0390625 108.50293,58.5722656 108.844727,58.2128906 C109.186523,57.8535156 109.632812,57.6738281 110.183594,57.6738281 C110.394531,57.6738281 110.597656,57.6972656 110.792969,57.7441406 L110.792969,57.7441406 L110.927734,56.4609375 C110.748047,56.421875 110.519531,56.4023438 110.242188,56.4023438 C109.84375,56.4023438 109.47168,56.515625 109.125977,56.7421875 C108.780273,56.96875 108.5,57.2753906 108.285156,57.6621094 L108.285156,57.6621094 L108.214844,57.6621094 L108.033203,56.5195312 L106.955078,56.5195312 L106.955078,63 L108.332031,63 Z M114.214844,63.1171875 C114.472656,63.1171875 114.72168,63.0947266 114.961914,63.0498047 C115.202148,63.0048828 115.398438,62.9492188 115.550781,62.8828125 L115.550781,62.8828125 L115.550781,61.8457031 C115.214844,61.9511719 114.878906,62.0039062 114.542969,62.0039062 C114.273438,62.0039062 114.055664,61.9248047 113.889648,61.7666016 C113.723633,61.6083984 113.640625,61.3632812 113.640625,61.03125 L113.640625,61.03125 L113.640625,57.5625 L115.486328,57.5625 L115.486328,56.5195312 L113.640625,56.5195312 L113.640625,55.078125 L112.791016,55.078125 L112.322266,56.4492188 L111.373047,56.953125 L111.373047,57.5625 L112.257812,57.5625 L112.257812,61.0546875 C112.257812,62.4296875 112.910156,63.1171875 114.214844,63.1171875 Z M118.222656,63 L118.222656,59.7832031 C118.222656,58.9707031 118.358398,58.3916016 118.629883,58.0458984 C118.901367,57.7001953 119.326172,57.5273438 119.904297,57.5273438 C120.341797,57.5273438 120.661133,57.6503906 120.862305,57.8964844 C121.063477,58.1425781 121.164062,58.515625 121.164062,59.015625 L121.164062,59.015625 L121.164062,63 L122.546875,63 L122.546875,58.7753906 C122.546875,57.1933594 121.761719,56.4023438 120.191406,56.4023438 C119.746094,56.4023438 119.356445,56.4882812 119.022461,56.6601562 C118.688477,56.8320312 118.427734,57.0742188 118.240234,57.3867188 L118.240234,57.3867188 L118.152344,57.3867188 C118.199219,56.9648438 118.222656,56.5683594 118.222656,56.1972656 L118.222656,56.1972656 L118.222656,53.8828125 L116.845703,53.8828125 L116.845703,63 L118.222656,63 Z M127.292969,63.1171875 C127.734375,63.1171875 128.126953,63.0839844 128.470703,63.0175781 C128.814453,62.9511719 129.154297,62.8378906 129.490234,62.6777344 L129.490234,62.6777344 L129.490234,61.5585938 C129.111328,61.7265625 128.756836,61.8466797 128.426758,61.9189453 C128.09668,61.9912109 127.740234,62.0273438 127.357422,62.0273438 C126.775391,62.0273438 126.324219,61.8583984 126.003906,61.5205078 C125.683594,61.1826172 125.513672,60.6992188 125.494141,60.0703125 L125.494141,60.0703125 L129.8125,60.0703125 L129.8125,59.3261719 C129.8125,58.4160156 129.564453,57.7011719 129.068359,57.1816406 C128.572266,56.6621094 127.896484,56.4023438 127.041016,56.4023438 C126.119141,56.4023438 125.394531,56.7050781 124.867188,57.3105469 C124.339844,57.9160156 124.076172,58.7480469 124.076172,59.8066406 C124.076172,60.8378906 124.360352,61.6474609 124.928711,62.2353516 C125.49707,62.8232422 126.285156,63.1171875 127.292969,63.1171875 Z M128.458984,59.0742188 L125.517578,59.0742188 C125.568359,58.5429688 125.725586,58.1386719 125.989258,57.8613281 C126.25293,57.5839844 126.603516,57.4453125 127.041016,57.4453125 C127.478516,57.4453125 127.822266,57.5830078 128.072266,57.8583984 C128.322266,58.1337891 128.451172,58.5390625 128.458984,59.0742188 L128.458984,59.0742188 Z M132.753906,63 L132.753906,59.6132812 C132.753906,59.0390625 132.924805,58.5722656 133.266602,58.2128906 C133.608398,57.8535156 134.054688,57.6738281 134.605469,57.6738281 C134.816406,57.6738281 135.019531,57.6972656 135.214844,57.7441406 L135.214844,57.7441406 L135.349609,56.4609375 C135.169922,56.421875 134.941406,56.4023438 134.664062,56.4023438 C134.265625,56.4023438 133.893555,56.515625 133.547852,56.7421875 C133.202148,56.96875 132.921875,57.2753906 132.707031,57.6621094 L132.707031,57.6621094 L132.636719,57.6621094 L132.455078,56.5195312 L131.376953,56.5195312 L131.376953,63 L132.753906,63 Z M96.3613281,75 L96.3613281,65.8828125 L94.984375,65.8828125 L94.984375,75 L96.3613281,75 Z M99.0273438,67.5585938 C99.2695312,67.5585938 99.4580078,67.4912109 99.5927734,67.3564453 C99.7275391,67.2216797 99.7949219,67.0371094 99.7949219,66.8027344 C99.7949219,66.5566406 99.7275391,66.3671875 99.5927734,66.234375 C99.4580078,66.1015625 99.2695312,66.0351562 99.0273438,66.0351562 C98.7773438,66.0351562 98.5849609,66.1015625 98.4501953,66.234375 C98.3154297,66.3671875 98.2480469,66.5566406 98.2480469,66.8027344 C98.2480469,67.0371094 98.3154297,67.2216797 98.4501953,67.3564453 C98.5849609,67.4912109 98.7773438,67.5585938 99.0273438,67.5585938 Z M99.7070312,75 L99.7070312,68.5195312 L98.3300781,68.5195312 L98.3300781,75 L99.7070312,75 Z M103.052734,75 L103.052734,71.7714844 C103.052734,70.9628906 103.1875,70.3867188 103.457031,70.0429688 C103.726562,69.6992188 104.152344,69.5273438 104.734375,69.5273438 C105.171875,69.5273438 105.491211,69.6503906 105.692383,69.8964844 C105.893555,70.1425781 105.994141,70.515625 105.994141,71.015625 L105.994141,71.015625 L105.994141,75 L107.376953,75 L107.376953,70.7753906 C107.376953,69.1933594 106.599609,68.4023438 105.044922,68.4023438 C104.607422,68.4023438 104.208984,68.4863281 103.849609,68.6542969 C103.490234,68.8222656 103.212891,69.0605469 103.017578,69.3691406 L103.017578,69.3691406 L102.947266,69.3691406 L102.753906,68.5195312 L101.675781,68.5195312 L101.675781,75 L103.052734,75 Z M112.123047,75.1171875 C112.564453,75.1171875 112.957031,75.0839844 113.300781,75.0175781 C113.644531,74.9511719 113.984375,74.8378906 114.320312,74.6777344 L114.320312,74.6777344 L114.320312,73.5585938 C113.941406,73.7265625 113.586914,73.8466797 113.256836,73.9189453 C112.926758,73.9912109 112.570312,74.0273438 112.1875,74.0273438 C111.605469,74.0273438 111.154297,73.8583984 110.833984,73.5205078 C110.513672,73.1826172 110.34375,72.6992188 110.324219,72.0703125 L110.324219,72.0703125 L114.642578,72.0703125 L114.642578,71.3261719 C114.642578,70.4160156 114.394531,69.7011719 113.898438,69.1816406 C113.402344,68.6621094 112.726562,68.4023438 111.871094,68.4023438 C110.949219,68.4023438 110.224609,68.7050781 109.697266,69.3105469 C109.169922,69.9160156 108.90625,70.7480469 108.90625,71.8066406 C108.90625,72.8378906 109.19043,73.6474609 109.758789,74.2353516 C110.327148,74.8232422 111.115234,75.1171875 112.123047,75.1171875 Z M113.289062,71.0742188 L110.347656,71.0742188 C110.398438,70.5429688 110.555664,70.1386719 110.819336,69.8613281 C111.083008,69.5839844 111.433594,69.4453125 111.871094,69.4453125 C112.308594,69.4453125 112.652344,69.5830078 112.902344,69.8583984 C113.152344,70.1337891 113.28125,70.5390625 113.289062,71.0742188 L113.289062,71.0742188 Z M117.888672,75.1171875 C118.748047,75.1171875 119.408203,74.9482422 119.869141,74.6103516 C120.330078,74.2724609 120.560547,73.7871094 120.560547,73.1542969 C120.560547,72.8417969 120.501953,72.5732422 120.384766,72.3486328 C120.267578,72.1240234 120.087891,71.9257812 119.845703,71.7539062 C119.603516,71.5820312 119.214844,71.3925781 118.679688,71.1855469 C118.042969,70.9394531 117.629883,70.7460938 117.44043,70.6054688 C117.250977,70.4648438 117.15625,70.2929688 117.15625,70.0898438 C117.15625,69.6757812 117.519531,69.46875 118.246094,69.46875 C118.722656,69.46875 119.310547,69.6132812 120.009766,69.9023438 L120.009766,69.9023438 L120.455078,68.8652344 C119.775391,68.5566406 119.054688,68.4023438 118.292969,68.4023438 C117.523438,68.4023438 116.915039,68.5556641 116.467773,68.8623047 C116.020508,69.1689453 115.796875,69.5996094 115.796875,70.1542969 C115.796875,70.6152344 115.928711,70.9902344 116.192383,71.2792969 C116.456055,71.5683594 116.960938,71.8574219 117.707031,72.1464844 C118.089844,72.2949219 118.388672,72.4277344 118.603516,72.5449219 C118.818359,72.6621094 118.972656,72.7753906 119.066406,72.8847656 C119.160156,72.9941406 119.207031,73.1308594 119.207031,73.2949219 C119.207031,73.8066406 118.783203,74.0625 117.935547,74.0625 C117.279297,74.0625 116.570312,73.8867188 115.808594,73.5351562 L115.808594,73.5351562 L115.808594,74.7246094 C116.332031,74.9863281 117.025391,75.1171875 117.888672,75.1171875 Z M127.832031,75.1171875 C128.800781,75.1171875 129.556641,74.8203125 130.099609,74.2265625 C130.642578,73.6328125 130.914062,72.8066406 130.914062,71.7480469 C130.914062,70.7246094 130.640625,69.9111328 130.09375,69.3076172 C129.546875,68.7041016 128.804688,68.4023438 127.867188,68.4023438 C126.886719,68.4023438 126.126953,68.6972656 125.587891,69.2871094 C125.048828,69.8769531 124.779297,70.6972656 124.779297,71.7480469 C124.779297,72.4238281 124.904297,73.0175781 125.154297,73.5292969 C125.404297,74.0410156 125.761719,74.4335938 126.226562,74.7070312 C126.691406,74.9804688 127.226562,75.1171875 127.832031,75.1171875 Z M127.855469,73.9921875 C126.75,73.9921875 126.197266,73.2441406 126.197266,71.7480469 C126.197266,71.0332031 126.327148,70.484375 126.586914,70.1015625 C126.84668,69.71875 127.265625,69.5273438 127.84375,69.5273438 C128.945312,69.5273438 129.496094,70.2675781 129.496094,71.7480469 C129.496094,73.2441406 128.949219,73.9921875 127.855469,73.9921875 Z M134.166016,75 L134.166016,69.5625 L135.748047,69.5625 L135.748047,68.5195312 L134.166016,68.5195312 L134.166016,68.0976562 C134.166016,67.7109375 134.237305,67.4208984 134.379883,67.2275391 C134.522461,67.0341797 134.75,66.9375 135.0625,66.9375 C135.371094,66.9375 135.695312,66.9921875 136.035156,67.1015625 L136.035156,67.1015625 L136.398438,66.0585938 C135.929688,65.8984375 135.453125,65.8183594 134.96875,65.8183594 C134.230469,65.8183594 133.681641,66.0029297 133.322266,66.3720703 C132.962891,66.7412109 132.783203,67.3085938 132.783203,68.0742188 L132.783203,68.0742188 L132.783203,68.4960938 L131.716797,68.9179688 L131.716797,69.5625 L132.783203,69.5625 L132.783203,75 L134.166016,75 Z M97.8144531,87.1171875 C98.2558594,87.1171875 98.6484375,87.0839844 98.9921875,87.0175781 C99.3359375,86.9511719 99.6757812,86.8378906 100.011719,86.6777344 L100.011719,86.6777344 L100.011719,85.5585938 C99.6328125,85.7265625 99.2783203,85.8466797 98.9482422,85.9189453 C98.6181641,85.9912109 98.2617188,86.0273438 97.8789062,86.0273438 C97.296875,86.0273438 96.8457031,85.8583984 96.5253906,85.5205078 C96.2050781,85.1826172 96.0351562,84.6992188 96.015625,84.0703125 L96.015625,84.0703125 L100.333984,84.0703125 L100.333984,83.3261719 C100.333984,82.4160156 100.085938,81.7011719 99.5898438,81.1816406 C99.09375,80.6621094 98.4179688,80.4023438 97.5625,80.4023438 C96.640625,80.4023438 95.9160156,80.7050781 95.3886719,81.3105469 C94.8613281,81.9160156 94.5976562,82.7480469 94.5976562,83.8066406 C94.5976562,84.8378906 94.8818359,85.6474609 95.4501953,86.2353516 C96.0185547,86.8232422 96.8066406,87.1171875 97.8144531,87.1171875 Z M98.9804688,83.0742188 L96.0390625,83.0742188 C96.0898438,82.5429688 96.2470703,82.1386719 96.5107422,81.8613281 C96.7744141,81.5839844 97.125,81.4453125 97.5625,81.4453125 C98,81.4453125 98.34375,81.5830078 98.59375,81.8583984 C98.84375,82.1337891 98.9726562,82.5390625 98.9804688,83.0742188 L98.9804688,83.0742188 Z M103.275391,87 L103.275391,83.7714844 C103.275391,82.9628906 103.410156,82.3867188 103.679688,82.0429688 C103.949219,81.6992188 104.375,81.5273438 104.957031,81.5273438 C105.394531,81.5273438 105.713867,81.6503906 105.915039,81.8964844 C106.116211,82.1425781 106.216797,82.515625 106.216797,83.015625 L106.216797,83.015625 L106.216797,87 L107.599609,87 L107.599609,82.7753906 C107.599609,81.1933594 106.822266,80.4023438 105.267578,80.4023438 C104.830078,80.4023438 104.431641,80.4863281 104.072266,80.6542969 C103.712891,80.8222656 103.435547,81.0605469 103.240234,81.3691406 L103.240234,81.3691406 L103.169922,81.3691406 L102.976562,80.5195312 L101.898438,80.5195312 L101.898438,87 L103.275391,87 Z M115.023438,89.8828125 L115.023438,80.5195312 L113.880859,80.5195312 L113.728516,81.3691406 L113.681641,81.3691406 C113.427734,81.0253906 113.139648,80.7783203 112.817383,80.6279297 C112.495117,80.4775391 112.130859,80.4023438 111.724609,80.4023438 C110.916016,80.4023438 110.28125,80.7001953 109.820312,81.2958984 C109.359375,81.8916016 109.128906,82.7167969 109.128906,83.7714844 C109.128906,84.8261719 109.355469,85.6474609 109.808594,86.2353516 C110.261719,86.8232422 110.888672,87.1171875 111.689453,87.1171875 C112.576172,87.1171875 113.222656,86.7949219 113.628906,86.1503906 L113.628906,86.1503906 L113.705078,86.1503906 C113.693359,86.2519531 113.679688,86.3984375 113.664062,86.5898438 C113.648438,86.78125 113.640625,86.9628906 113.640625,87.1347656 L113.640625,87.1347656 L113.640625,89.8828125 L115.023438,89.8828125 Z M112.082031,86.015625 C111.058594,86.015625 110.546875,85.2753906 110.546875,83.7949219 C110.546875,83.0644531 110.675781,82.5039062 110.933594,82.1132812 C111.191406,81.7226562 111.566406,81.5273438 112.058594,81.5273438 C112.636719,81.5273438 113.055664,81.703125 113.31543,82.0546875 C113.575195,82.40625 113.705078,82.9824219 113.705078,83.7832031 L113.705078,83.7832031 L113.705078,84 C113.705078,84.6757812 113.579102,85.1806641 113.327148,85.5146484 C113.075195,85.8486328 112.660156,86.015625 112.082031,86.015625 Z M119.271484,87.1171875 C119.724609,87.1171875 120.12793,87.03125 120.481445,86.859375 C120.834961,86.6875 121.107422,86.4511719 121.298828,86.1503906 L121.298828,86.1503906 L121.369141,86.1503906 L121.5625,87 L122.646484,87 L122.646484,80.5195312 L121.263672,80.5195312 L121.263672,83.7480469 C121.263672,84.5605469 121.12793,85.1396484 120.856445,85.4853516 C120.584961,85.8310547 120.160156,86.0039062 119.582031,86.0039062 C119.148438,86.0039062 118.830078,85.8798828 118.626953,85.6318359 C118.423828,85.3837891 118.322266,85.0117188 118.322266,84.515625 L118.322266,84.515625 L118.322266,80.5195312 L116.933594,80.5195312 L116.933594,84.7558594 C116.933594,85.5488281 117.126953,86.140625 117.513672,86.53125 C117.900391,86.921875 118.486328,87.1171875 119.271484,87.1171875 Z M125.306641,79.5585938 C125.548828,79.5585938 125.737305,79.4912109 125.87207,79.3564453 C126.006836,79.2216797 126.074219,79.0371094 126.074219,78.8027344 C126.074219,78.5566406 126.006836,78.3671875 125.87207,78.234375 C125.737305,78.1015625 125.548828,78.0351562 125.306641,78.0351562 C125.056641,78.0351562 124.864258,78.1015625 124.729492,78.234375 C124.594727,78.3671875 124.527344,78.5566406 124.527344,78.8027344 C124.527344,79.0371094 124.594727,79.2216797 124.729492,79.3564453 C124.864258,79.4912109 125.056641,79.5585938 125.306641,79.5585938 Z M125.986328,87 L125.986328,80.5195312 L124.609375,80.5195312 L124.609375,87 L125.986328,87 Z M129.332031,87 L129.332031,83.6132812 C129.332031,83.0390625 129.50293,82.5722656 129.844727,82.2128906 C130.186523,81.8535156 130.632812,81.6738281 131.183594,81.6738281 C131.394531,81.6738281 131.597656,81.6972656 131.792969,81.7441406 L131.792969,81.7441406 L131.927734,80.4609375 C131.748047,80.421875 131.519531,80.4023438 131.242188,80.4023438 C130.84375,80.4023438 130.47168,80.515625 130.125977,80.7421875 C129.780273,80.96875 129.5,81.2753906 129.285156,81.6621094 L129.285156,81.6621094 L129.214844,81.6621094 L129.033203,80.5195312 L127.955078,80.5195312 L127.955078,87 L129.332031,87 Z M133.287109,89.8828125 C134.462891,89.8828125 135.302734,89.2089844 135.806641,87.8613281 L135.806641,87.8613281 L138.578125,80.5195312 L137.089844,80.5195312 C136.191406,83.125 135.695312,84.5810547 135.601562,84.8876953 C135.507812,85.1943359 135.443359,85.4550781 135.408203,85.6699219 L135.408203,85.6699219 L135.361328,85.6699219 C135.294922,85.2089844 135.162109,84.7167969 134.962891,84.1933594 L134.962891,84.1933594 L133.644531,80.5195312 L132.144531,80.5195312 L134.746094,87 L134.505859,87.609375 C134.236328,88.3789062 133.769531,88.7636719 133.105469,88.7636719 C132.839844,88.7636719 132.603516,88.7402344 132.396484,88.6933594 L132.396484,88.6933594 L132.396484,89.7832031 C132.685547,89.8496094 132.982422,89.8828125 133.287109,89.8828125 Z M140.224609,87.1699219 C140.505859,87.1699219 140.72168,87.0888672 140.87207,86.9267578 C141.022461,86.7646484 141.097656,86.5449219 141.097656,86.2675781 C141.097656,85.9941406 141.023438,85.7783203 140.875,85.6201172 C140.726562,85.4619141 140.509766,85.3828125 140.224609,85.3828125 C139.943359,85.3828125 139.728516,85.4589844 139.580078,85.6113281 C139.431641,85.7636719 139.357422,85.9824219 139.357422,86.2675781 C139.357422,86.5488281 139.431641,86.7695312 139.580078,86.9296875 C139.728516,87.0898438 139.943359,87.1699219 140.224609,87.1699219 Z" id="Createfurtherlinesofenquiry." fill="#FFFFFF" fill-rule="nonzero"></path>
                <g id="Group-9" transform="translate(18.000000, 48.000000)" fill-rule="nonzero">
                    <path d="M33.6804154,24.0340305 C33.7496049,24.3518447 33.7623259,24.6782653 33.7180605,25 C35.9061866,23.7460121 39.157789,21.8672456 42,20.2410493 C41.3573474,19.6866391 40.4108815,19.5796909 39.6471763,19.9751861 L33.2663184,23.0769231 C33.4635071,23.3703238 33.6037218,23.6944037 33.6804154,24.0340305 Z M30.7864422,21.6811414 C31.354639,21.7109809 31.9032065,21.8872538 32.3722454,22.1907125 L37.9672602,19.5675293 C37.3859175,19.1876116 36.6352051,19.1236535 35.9908883,19.3991493 L29.9723652,21.6146756 L30.7864422,21.6811414 Z M28.1559853,18.8629918 C28.1559853,19.8859227 27.275347,20.7151719 26.1890247,20.7151719 C25.1027023,20.7151719 24.222064,19.8859227 24.222064,18.8629918 C24.222064,17.8400611 25.1027023,17.0108117 26.1890247,17.0108117 C27.275347,17.0108117 28.1559853,17.8400611 28.1559853,18.8629918 L28.1559853,18.8629918 Z M21.0975141,6.01293867 C21.5647512,6.22594845 22.1028276,6.25501513 22.5928683,6.09371735 C23.0829092,5.93241949 23.4845826,5.59403237 23.7091485,5.15331441 C24.1593026,4.26153893 25.1122223,3.69146117 26.1607908,3.68663596 C27.6379776,3.70978317 28.8464405,4.80135927 28.9324172,6.19018076 C28.9717608,7.33370821 28.2049313,8.36447976 27.0501581,8.72031192 C25.3772771,9.24174889 24.2422233,10.7078118 24.2267697,12.3670684 L24.2267697,13.4172279 C24.2779321,14.3989619 25.1381391,15.170197 26.1819662,15.170197 C27.2257933,15.170197 28.0860002,14.3989619 28.1371627,13.4172279 L28.1371627,12.3626374 C28.1371627,12.2828784 28.2689209,12.2208437 28.320683,12.2075505 C31.1110002,11.3321131 32.9544531,8.8293428 32.8475158,6.06168023 C32.7018204,2.6898159 29.7680337,0.0208753096 26.1843191,0 L26.1419682,0 C23.6009096,0.00800524494 21.2892433,1.38570823 20.1940299,3.54484225 C19.7256967,4.46136006 20.1342216,5.56187871 21.1069255,6.0040766 L21.0975141,6.01293867 Z" id="Shape" fill="#FFFFFF"></path>
                    <path d="M46.4030789,19.1325746 C46.8377781,19.5446606 47.051815,20.1070594 46.9893276,20.6729896 C46.9268402,21.2389198 46.594029,21.7522263 46.077755,22.0789402 L34.9114922,29.1709242 C33.0147465,30.3615145 30.7591511,30.9998234 28.4480727,31 L27.7735041,31 L10.2060159,29.9258494 L10.1151166,29.9258494 C9.72790237,29.9246997 9.35416083,29.7975592 9.06259828,29.5677994 C8.70050457,30.1789317 8.01175211,30.5760722 7.24461203,30.6160665 L3.10630122,30.7843071 C1.74976734,30.8682155 0.574290322,29.9453705 0.479789519,28.7222827 L0.0013721085,20.4396738 C-0.0205254807,19.8514009 0.220429347,19.279831 0.670170539,18.853215 C1.11991166,18.4265988 1.74077862,18.1806603 2.39345924,18.1705841 L6.53177005,18.0023436 C7.331565,17.9675875 8.09083293,18.3214211 8.52198656,18.9298233 C10.4356563,18.386277 14.0094345,17.3552647 20.004005,19.3612091 C21.8859854,19.9449194 23.8422925,20.3116321 25.8263451,20.4526154 L30.5626777,20.7675271 C31.5613365,20.8247475 32.3342576,21.5788748 32.3189235,22.4810692 C32.3035893,23.3832636 31.505402,24.1156796 30.5052676,24.1452786 L22.501344,24.2746943 C22.2321401,24.3069289 22.0354357,24.5200617 22.0491841,24.764618 C22.0629326,25.0091744 22.2825309,25.2032789 22.5539699,25.2108017 L22.5539699,25.2108017 L30.3713107,25.1762908 C31.3767049,25.1552171 32.3583217,24.896376 33.2178945,24.4256795 C33.2178945,24.4256795 40.1071055,20.6985054 43.6043369,18.7658966 C44.4889818,18.2798393 45.6295607,18.4144535 46.3456688,19.089436 L46.4030789,19.1325746 Z M6.08684187,27.6610736 C6.12190025,27.1424457 5.80376839,26.6566863 5.28316877,26.4339356 C4.76256907,26.211185 4.1440712,26.2961855 3.7207033,26.6486662 C3.29733547,27.001147 3.15413674,27.5503073 3.35895109,28.0359694 C3.56376538,28.5216312 4.07545293,28.8462431 4.65158956,28.8560127 C5.41360447,28.8827568 6.05575412,28.348126 6.08684187,27.6610736 Z" id="Path" fill="#BDC3C7"></path>
                </g>
            </g>
        </g>
    </g>
</svg>