<?xml version="1.0" encoding="UTF-8"?>
<svg width="163px" height="97px" viewBox="0 0 163 97" version="1.1" xmlns="http://www.w3.org/2000/svg" xmlns:xlink="http://www.w3.org/1999/xlink">
    <!-- Generator: Sketch 62 (91390) - https://sketch.com -->
    <title>Generalise</title>
    <desc>Created with Sketch.</desc>
    <defs>
        <radialGradient cx="26.0530847%" cy="62.3934409%" fx="26.0530847%" fy="62.3934409%" r="35.1006849%" gradientTransform="translate(0.260531,0.623934),scale(0.595092,1.000000),rotate(-90.000000),translate(-0.260531,-0.623934)" id="radialGradient-1">
            <stop stop-color="#F5836F" offset="0%"></stop>
            <stop stop-color="#E74C3C" offset="100%"></stop>
        </radialGradient>
        <path d="M10.0158691,18.1660156 C10.7961426,18.1660156 11.5224609,18.1162109 12.1948242,18.0166016 C12.8671875,17.9169922 13.5686035,17.7482096 14.2990723,17.5102539 L14.2990723,17.5102539 L14.2990723,11.4174805 L9.83325195,11.4174805 L9.83325195,13.1191406 L12.3483887,13.1191406 L12.3483887,16.2485352 C11.6179199,16.4090169 10.931722,16.4892578 10.2897949,16.4892578 C9.01700846,16.4892578 8.04166667,16.1032715 7.36376953,15.3312988 C6.6858724,14.5593262 6.34692383,13.4318034 6.34692383,11.9487305 C6.34692383,10.5375977 6.72322591,9.42529297 7.47583008,8.61181641 C8.22843424,7.79833984 9.25219727,7.39160156 10.5471191,7.39160156 C11.5321452,7.39160156 12.5171712,7.61848958 13.5021973,8.07226562 L13.5021973,8.07226562 L14.1994629,6.42041016 C13.0650228,5.93343099 11.8641764,5.68994141 10.5969238,5.68994141 C8.62687174,5.68994141 7.08015951,6.24194336 5.95678711,7.34594727 C4.83341471,8.44995117 4.27172852,9.97867839 4.27172852,11.9321289 C4.27172852,13.9132487 4.76977539,15.4475098 5.76586914,16.5349121 C6.76196289,17.6223145 8.17862956,18.1660156 10.0158691,18.1660156 Z M21.0144043,18.1660156 C21.6397298,18.1660156 22.1958822,18.1189779 22.6828613,18.0249023 C23.1698405,17.9308268 23.6512858,17.7703451 24.1271973,17.543457 L24.1271973,17.543457 L24.1271973,15.9580078 C23.5904134,16.1959635 23.0882161,16.3661296 22.6206055,16.4685059 C22.1529948,16.5708822 21.6480306,16.6220703 21.1057129,16.6220703 C20.2811686,16.6220703 19.6420085,16.3827311 19.1882324,15.9040527 C18.7344564,15.4253743 18.4937337,14.7405599 18.4660645,13.8496094 L18.4660645,13.8496094 L24.5837402,13.8496094 L24.5837402,12.7954102 C24.5837402,11.5060221 24.2323405,10.4933268 23.529541,9.75732422 C22.8267415,9.02132161 21.8693848,8.65332031 20.6574707,8.65332031 C19.3514811,8.65332031 18.3249512,9.08219401 17.5778809,9.93994141 C16.8308105,10.7976888 16.4572754,11.9763997 16.4572754,13.4760742 C16.4572754,14.9370117 16.8598633,16.083903 17.6650391,16.916748 C18.4702148,17.7495931 19.5866699,18.1660156 21.0144043,18.1660156 Z M22.6662598,12.4384766 L18.4992676,12.4384766 C18.5712077,11.6858724 18.7939453,11.1131185 19.1674805,10.7202148 C19.5410156,10.3273112 20.037679,10.1308594 20.6574707,10.1308594 C21.2772624,10.1308594 21.7642415,10.3259277 22.1184082,10.7160645 C22.4725749,11.1062012 22.6551921,11.6803385 22.6662598,12.4384766 L22.6662598,12.4384766 Z M28.7507324,18 L28.7507324,13.4262695 C28.7507324,12.2807617 28.9416504,11.4645182 29.3234863,10.9775391 C29.7053223,10.4905599 30.3085124,10.2470703 31.1330566,10.2470703 C31.7528483,10.2470703 32.2052409,10.4213867 32.4902344,10.7700195 C32.7752279,11.1186523 32.9177246,11.6471354 32.9177246,12.3554688 L32.9177246,12.3554688 L32.9177246,18 L34.876709,18 L34.876709,12.0151367 C34.876709,9.77392578 33.775472,8.65332031 31.572998,8.65332031 C30.9532064,8.65332031 30.3887533,8.77229818 29.8796387,9.01025391 C29.3705241,9.24820964 28.9776204,9.58577474 28.7009277,10.0229492 L28.7009277,10.0229492 L28.6013184,10.0229492 L28.3273926,8.81933594 L26.8000488,8.81933594 L26.8000488,18 L28.7507324,18 Z M41.6003418,18.1660156 C42.2256673,18.1660156 42.7818197,18.1189779 43.2687988,18.0249023 C43.755778,17.9308268 44.2372233,17.7703451 44.7131348,17.543457 L44.7131348,17.543457 L44.7131348,15.9580078 C44.1763509,16.1959635 43.6741536,16.3661296 43.206543,16.4685059 C42.7389323,16.5708822 42.2339681,16.6220703 41.6916504,16.6220703 C40.8671061,16.6220703 40.227946,16.3827311 39.7741699,15.9040527 C39.3203939,15.4253743 39.0796712,14.7405599 39.052002,13.8496094 L39.052002,13.8496094 L45.1696777,13.8496094 L45.1696777,12.7954102 C45.1696777,11.5060221 44.818278,10.4933268 44.1154785,9.75732422 C43.412679,9.02132161 42.4553223,8.65332031 41.2434082,8.65332031 C39.9374186,8.65332031 38.9108887,9.08219401 38.1638184,9.93994141 C37.416748,10.7976888 37.0432129,11.9763997 37.0432129,13.4760742 C37.0432129,14.9370117 37.4458008,16.083903 38.2509766,16.916748 C39.0561523,17.7495931 40.1726074,18.1660156 41.6003418,18.1660156 Z M43.2521973,12.4384766 L39.0852051,12.4384766 C39.1571452,11.6858724 39.3798828,11.1131185 39.753418,10.7202148 C40.1269531,10.3273112 40.6236165,10.1308594 41.2434082,10.1308594 C41.8631999,10.1308594 42.350179,10.3259277 42.7043457,10.7160645 C43.0585124,11.1062012 43.2411296,11.6803385 43.2521973,12.4384766 L43.2521973,12.4384766 Z M49.3366699,18 L49.3366699,13.2021484 C49.3366699,12.3886719 49.578776,11.7273763 50.0629883,11.2182617 C50.5472005,10.7091471 51.1794434,10.4545898 51.9597168,10.4545898 C52.2585449,10.4545898 52.5463053,10.487793 52.822998,10.5541992 L52.822998,10.5541992 L53.013916,8.73632812 C52.7593587,8.68098958 52.4356283,8.65332031 52.0427246,8.65332031 C51.4782715,8.65332031 50.9511719,8.81380208 50.4614258,9.13476562 C49.9716797,9.45572917 49.5746257,9.89013672 49.2702637,10.4379883 L49.2702637,10.4379883 L49.1706543,10.4379883 L48.9133301,8.81933594 L47.3859863,8.81933594 L47.3859863,18 L49.3366699,18 Z M56.9401855,18.1660156 C57.642985,18.1660156 58.2185059,18.0650228 58.666748,17.8630371 C59.1149902,17.6610514 59.5604655,17.280599 60.0031738,16.7216797 L60.0031738,16.7216797 L60.0695801,16.7216797 L60.4597168,18 L61.854248,18 L61.854248,11.815918 C61.854248,10.7257487 61.5568034,9.92610677 60.9619141,9.41699219 C60.3670247,8.9078776 59.4857585,8.65332031 58.3181152,8.65332031 C57.7923991,8.65332031 57.2334798,8.72111003 56.6413574,8.85668945 C56.049235,8.99226888 55.5041504,9.19010417 55.0061035,9.45019531 L55.0061035,9.45019531 L55.6369629,10.8447266 C56.0354004,10.6565755 56.4504395,10.4933268 56.8820801,10.3549805 C57.3137207,10.2166341 57.7647298,10.1474609 58.2351074,10.1474609 C58.8106283,10.1474609 59.2353516,10.2927246 59.5092773,10.583252 C59.7832031,10.8737793 59.920166,11.3123372 59.920166,11.8989258 L59.920166,11.8989258 L59.920166,12.3886719 L58.3347168,12.4384766 C56.8959147,12.4827474 55.8251139,12.7456055 55.1223145,13.2270508 C54.419515,13.7084961 54.0681152,14.4223633 54.0681152,15.3686523 C54.0681152,16.2596029 54.3212891,16.9485677 54.8276367,17.4355469 C55.3339844,17.922526 56.0381673,18.1660156 56.9401855,18.1660156 Z M57.5544434,16.671875 C57.0674642,16.671875 56.7022298,16.5598145 56.4587402,16.3356934 C56.2152507,16.1115723 56.0935059,15.7947591 56.0935059,15.3852539 C56.0935059,14.8208008 56.3024089,14.4016113 56.7202148,14.1276855 C57.1380208,13.8537598 57.8062337,13.7001953 58.7248535,13.6669922 L58.7248535,13.6669922 L59.9035645,13.6171875 L59.9035645,14.4140625 C59.9035645,15.1279297 59.6891276,15.6826986 59.2602539,16.0783691 C58.8313802,16.4740397 58.2627767,16.671875 57.5544434,16.671875 Z M66.5275879,18 L66.5275879,5.08398438 L64.5769043,5.08398438 L64.5769043,18 L66.5275879,18 Z M70.3044434,7.45800781 C70.6475423,7.45800781 70.9145508,7.36254883 71.1054688,7.17163086 C71.2963867,6.98071289 71.3918457,6.71923828 71.3918457,6.38720703 C71.3918457,6.03857422 71.2963867,5.77018229 71.1054688,5.58203125 C70.9145508,5.39388021 70.6475423,5.29980469 70.3044434,5.29980469 C69.9502767,5.29980469 69.6777344,5.39388021 69.4868164,5.58203125 C69.2958984,5.77018229 69.2004395,6.03857422 69.2004395,6.38720703 C69.2004395,6.71923828 69.2958984,6.98071289 69.4868164,7.17163086 C69.6777344,7.36254883 69.9502767,7.45800781 70.3044434,7.45800781 Z M71.267334,18 L71.267334,8.81933594 L69.3166504,8.81933594 L69.3166504,18 L71.267334,18 Z M76.4387207,18.1660156 C77.6561686,18.1660156 78.59139,17.9266764 79.2443848,17.447998 C79.8973796,16.9693197 80.223877,16.2817383 80.223877,15.3852539 C80.223877,14.9425456 80.1408691,14.5620931 79.9748535,14.2438965 C79.8088379,13.9256999 79.5542806,13.6448568 79.2111816,13.4013672 C78.8680827,13.1578776 78.3174642,12.8894857 77.5593262,12.5961914 C76.6573079,12.2475586 76.0721029,11.9736328 75.8037109,11.7744141 C75.535319,11.5751953 75.401123,11.3317057 75.401123,11.0439453 C75.401123,10.4573568 75.9157715,10.1640625 76.9450684,10.1640625 C77.6201986,10.1640625 78.4530436,10.3688151 79.4436035,10.7783203 L79.4436035,10.7783203 L80.0744629,9.30908203 C79.1115723,8.87190755 78.0905762,8.65332031 77.0114746,8.65332031 C75.9213053,8.65332031 75.0594076,8.87052409 74.4257812,9.30493164 C73.7921549,9.73933919 73.4753418,10.3494466 73.4753418,11.1352539 C73.4753418,11.7882487 73.6621094,12.3194987 74.0356445,12.7290039 C74.4091797,13.1385091 75.1244303,13.5480143 76.1813965,13.9575195 C76.7237142,14.167806 77.147054,14.355957 77.451416,14.5219727 C77.755778,14.6879883 77.9743652,14.8484701 78.1071777,15.003418 C78.2399902,15.1583659 78.3063965,15.3520508 78.3063965,15.5844727 C78.3063965,16.3094076 77.7059733,16.671875 76.505127,16.671875 C75.5754395,16.671875 74.5710449,16.4228516 73.4919434,15.9248047 L73.4919434,15.9248047 L73.4919434,17.6098633 C74.2334798,17.9806315 75.2157389,18.1660156 76.4387207,18.1660156 Z M86.3415527,18.1660156 C86.9668783,18.1660156 87.5230306,18.1189779 88.0100098,18.0249023 C88.4969889,17.9308268 88.9784342,17.7703451 89.4543457,17.543457 L89.4543457,17.543457 L89.4543457,15.9580078 C88.9175618,16.1959635 88.4153646,16.3661296 87.9477539,16.4685059 C87.4801432,16.5708822 86.975179,16.6220703 86.4328613,16.6220703 C85.6083171,16.6220703 84.9691569,16.3827311 84.5153809,15.9040527 C84.0616048,15.4253743 83.8208822,14.7405599 83.7932129,13.8496094 L83.7932129,13.8496094 L89.9108887,13.8496094 L89.9108887,12.7954102 C89.9108887,11.5060221 89.5594889,10.4933268 88.8566895,9.75732422 C88.15389,9.02132161 87.1965332,8.65332031 85.9846191,8.65332031 C84.6786296,8.65332031 83.6520996,9.08219401 82.9050293,9.93994141 C82.157959,10.7976888 81.7844238,11.9763997 81.7844238,13.4760742 C81.7844238,14.9370117 82.1870117,16.083903 82.9921875,16.916748 C83.7973633,17.7495931 84.9138184,18.1660156 86.3415527,18.1660156 Z M87.9934082,12.4384766 L83.826416,12.4384766 C83.8983561,11.6858724 84.1210938,11.1131185 84.4946289,10.7202148 C84.8681641,10.3273112 85.3648275,10.1308594 85.9846191,10.1308594 C86.6044108,10.1308594 87.09139,10.3259277 87.4455566,10.7160645 C87.7997233,11.1062012 87.9823405,11.6803385 87.9934082,12.4384766 L87.9934082,12.4384766 Z" id="path-2"></path>
    </defs>
    <g id="Symbols" stroke="none" stroke-width="1" fill="none" fill-rule="evenodd">
        <g id="i/Generalise">
            <g id="Generalise">
                <g>
                    <path d="M6,0 L157,0 C160.313708,-6.08718376e-16 163,2.6862915 163,6 L163,91 C163,94.3137085 160.313708,97 157,97 L6,97 C2.6862915,97 4.05812251e-16,94.3137085 0,91 L0,6 C-4.05812251e-16,2.6862915 2.6862915,6.08718376e-16 6,0 Z" id="Rectangle-2" fill="url(#radialGradient-1)" fill-rule="nonzero"></path>
                    <polyline id="Line-2" stroke="#FFFFFF" stroke-width="4" stroke-linecap="square" points="2 30 20.4627861 30 161 30"></polyline>
                    <line x1="81" y1="45" x2="81" y2="85.0042519" id="Line-3" stroke="#FFFFFF" stroke-width="2" stroke-linecap="square"></line>
                    <g id="Adverbs" transform="translate(34.000000, 2.000000)" fill="#FFFFFF" fill-rule="nonzero">
                        <g id="Generalise">
                            <use xlink:href="#path-2"></use>
                            <use xlink:href="#path-2"></use>
                        </g>
                    </g>
                    <path d="M92.4023438,51 L92.4023438,46.8339844 C92.4023438,45.9042969 92.3691406,44.9082031 92.3027344,43.8457031 L92.3027344,43.8457031 L92.3496094,43.8457031 L94.8339844,51 L96.0703125,51 L98.6425781,43.8574219 L98.6894531,43.8574219 C98.6738281,44.0019531 98.6552734,44.4160156 98.6337891,45.0996094 C98.6123047,45.7832031 98.6015625,46.3378906 98.6015625,46.7636719 L98.6015625,46.7636719 L98.6015625,51 L99.9492188,51 L99.9492188,42.4335938 L97.96875,42.4335938 L95.5195312,49.2480469 L95.484375,49.2480469 L93.1054688,42.4335938 L91.1308594,42.4335938 L91.1308594,51 L92.4023438,51 Z M103.628906,51.1171875 C104.125,51.1171875 104.53125,51.0458984 104.847656,50.9033203 C105.164062,50.7607422 105.478516,50.4921875 105.791016,50.0976562 L105.791016,50.0976562 L105.837891,50.0976562 L106.113281,51 L107.097656,51 L107.097656,46.6347656 C107.097656,45.8652344 106.887695,45.3007812 106.467773,44.9414062 C106.047852,44.5820312 105.425781,44.4023438 104.601562,44.4023438 C104.230469,44.4023438 103.835938,44.4501953 103.417969,44.5458984 C103,44.6416016 102.615234,44.78125 102.263672,44.9648438 L102.263672,44.9648438 L102.708984,45.9492188 C102.990234,45.8164062 103.283203,45.7011719 103.587891,45.6035156 C103.892578,45.5058594 104.210938,45.4570312 104.542969,45.4570312 C104.949219,45.4570312 105.249023,45.5595703 105.442383,45.7646484 C105.635742,45.9697266 105.732422,46.2792969 105.732422,46.6933594 L105.732422,46.6933594 L105.732422,47.0390625 L104.613281,47.0742188 C103.597656,47.1054688 102.841797,47.2910156 102.345703,47.6308594 C101.849609,47.9707031 101.601562,48.4746094 101.601562,49.1425781 C101.601562,49.7714844 101.780273,50.2578125 102.137695,50.6015625 C102.495117,50.9453125 102.992188,51.1171875 103.628906,51.1171875 Z M104.0625,50.0625 C103.71875,50.0625 103.460938,49.9833984 103.289062,49.8251953 C103.117188,49.6669922 103.03125,49.4433594 103.03125,49.1542969 C103.03125,48.7558594 103.178711,48.4599609 103.473633,48.2666016 C103.768555,48.0732422 104.240234,47.9648438 104.888672,47.9414062 L104.888672,47.9414062 L105.720703,47.90625 L105.720703,48.46875 C105.720703,48.9726562 105.569336,49.3642578 105.266602,49.6435547 C104.963867,49.9228516 104.5625,50.0625 104.0625,50.0625 Z M110.384766,51 L110.384766,48.7792969 L111.140625,48.1582031 L113.220703,51 L114.837891,51 L112.066406,47.3027344 L114.673828,44.5195312 L113.085938,44.5195312 L111.128906,46.6054688 L110.349609,47.578125 L110.314453,47.578125 L110.384766,46.3300781 L110.384766,41.8828125 L109.019531,41.8828125 L109.019531,51 L110.384766,51 Z M118.710938,51.1171875 C119.152344,51.1171875 119.544922,51.0839844 119.888672,51.0175781 C120.232422,50.9511719 120.572266,50.8378906 120.908203,50.6777344 L120.908203,50.6777344 L120.908203,49.5585938 C120.529297,49.7265625 120.174805,49.8466797 119.844727,49.9189453 C119.514648,49.9912109 119.158203,50.0273438 118.775391,50.0273438 C118.193359,50.0273438 117.742188,49.8583984 117.421875,49.5205078 C117.101562,49.1826172 116.931641,48.6992188 116.912109,48.0703125 L116.912109,48.0703125 L121.230469,48.0703125 L121.230469,47.3261719 C121.230469,46.4160156 120.982422,45.7011719 120.486328,45.1816406 C119.990234,44.6621094 119.314453,44.4023438 118.458984,44.4023438 C117.537109,44.4023438 116.8125,44.7050781 116.285156,45.3105469 C115.757812,45.9160156 115.494141,46.7480469 115.494141,47.8066406 C115.494141,48.8378906 115.77832,49.6474609 116.34668,50.2353516 C116.915039,50.8232422 117.703125,51.1171875 118.710938,51.1171875 Z M119.876953,47.0742188 L116.935547,47.0742188 C116.986328,46.5429688 117.143555,46.1386719 117.407227,45.8613281 C117.670898,45.5839844 118.021484,45.4453125 118.458984,45.4453125 C118.896484,45.4453125 119.240234,45.5830078 119.490234,45.8583984 C119.740234,46.1337891 119.869141,46.5390625 119.876953,47.0742188 L119.876953,47.0742188 Z M127.482422,51.1171875 C127.978516,51.1171875 128.384766,51.0458984 128.701172,50.9033203 C129.017578,50.7607422 129.332031,50.4921875 129.644531,50.0976562 L129.644531,50.0976562 L129.691406,50.0976562 L129.966797,51 L130.951172,51 L130.951172,46.6347656 C130.951172,45.8652344 130.741211,45.3007812 130.321289,44.9414062 C129.901367,44.5820312 129.279297,44.4023438 128.455078,44.4023438 C128.083984,44.4023438 127.689453,44.4501953 127.271484,44.5458984 C126.853516,44.6416016 126.46875,44.78125 126.117188,44.9648438 L126.117188,44.9648438 L126.5625,45.9492188 C126.84375,45.8164062 127.136719,45.7011719 127.441406,45.6035156 C127.746094,45.5058594 128.064453,45.4570312 128.396484,45.4570312 C128.802734,45.4570312 129.102539,45.5595703 129.295898,45.7646484 C129.489258,45.9697266 129.585938,46.2792969 129.585938,46.6933594 L129.585938,46.6933594 L129.585938,47.0390625 L128.466797,47.0742188 C127.451172,47.1054688 126.695312,47.2910156 126.199219,47.6308594 C125.703125,47.9707031 125.455078,48.4746094 125.455078,49.1425781 C125.455078,49.7714844 125.633789,50.2578125 125.991211,50.6015625 C126.348633,50.9453125 126.845703,51.1171875 127.482422,51.1171875 Z M127.916016,50.0625 C127.572266,50.0625 127.314453,49.9833984 127.142578,49.8251953 C126.970703,49.6669922 126.884766,49.4433594 126.884766,49.1542969 C126.884766,48.7558594 127.032227,48.4599609 127.327148,48.2666016 C127.62207,48.0732422 128.09375,47.9648438 128.742188,47.9414062 L128.742188,47.9414062 L129.574219,47.90625 L129.574219,48.46875 C129.574219,48.9726562 129.422852,49.3642578 129.120117,49.6435547 C128.817383,49.9228516 128.416016,50.0625 127.916016,50.0625 Z M93.4570312,63 L94.3183594,59.9882812 C94.4511719,59.546875 94.6308594,58.7988281 94.8574219,57.7441406 L94.8574219,57.7441406 L94.9101562,57.7441406 C95.1757812,58.9121094 95.359375,59.65625 95.4609375,59.9765625 L95.4609375,59.9765625 L96.2988281,63 L97.8457031,63 L99.6738281,56.5195312 L98.2910156,56.5195312 L97.453125,59.7128906 C97.2382812,60.5761719 97.1015625,61.2480469 97.0429688,61.7285156 L97.0429688,61.7285156 L96.9960938,61.7285156 C96.9804688,61.5097656 96.9287109,61.203125 96.8408203,60.8085938 C96.7529297,60.4140625 96.6796875,60.1210938 96.6210938,59.9296875 L96.6210938,59.9296875 L95.6660156,56.5195312 L94.1542969,56.5195312 L93.1699219,59.9296875 C93.1113281,60.1132812 93.0419922,60.3896484 92.9619141,60.7587891 C92.8818359,61.1279297 92.8222656,61.4550781 92.7832031,61.7402344 L92.7832031,61.7402344 L92.7480469,61.7402344 C92.6699219,61.1777344 92.5371094,60.5019531 92.3496094,59.7128906 L92.3496094,59.7128906 L91.5234375,56.5195312 L90.1171875,56.5195312 L91.9335938,63 L93.4570312,63 Z M101.484375,55.5585938 C101.726562,55.5585938 101.915039,55.4912109 102.049805,55.3564453 C102.18457,55.2216797 102.251953,55.0371094 102.251953,54.8027344 C102.251953,54.5566406 102.18457,54.3671875 102.049805,54.234375 C101.915039,54.1015625 101.726562,54.0351562 101.484375,54.0351562 C101.234375,54.0351562 101.041992,54.1015625 100.907227,54.234375 C100.772461,54.3671875 100.705078,54.5566406 100.705078,54.8027344 C100.705078,55.0371094 100.772461,55.2216797 100.907227,55.3564453 C101.041992,55.4912109 101.234375,55.5585938 101.484375,55.5585938 Z M102.164062,63 L102.164062,56.5195312 L100.787109,56.5195312 L100.787109,63 L102.164062,63 Z M106.318359,63.1171875 C107.169922,63.1171875 107.816406,62.7949219 108.257812,62.1503906 L108.257812,62.1503906 L108.322266,62.1503906 L108.5625,63 L109.640625,63 L109.640625,53.8828125 L108.257812,53.8828125 L108.257812,56.2441406 C108.257812,56.5136719 108.291016,56.8808594 108.357422,57.3457031 L108.357422,57.3457031 L108.287109,57.3457031 C107.841797,56.7167969 107.193359,56.4023438 106.341797,56.4023438 C105.529297,56.4023438 104.893555,56.6982422 104.43457,57.2900391 C103.975586,57.8818359 103.746094,58.7089844 103.746094,59.7714844 C103.746094,60.8300781 103.972656,61.6523438 104.425781,62.2382812 C104.878906,62.8242188 105.509766,63.1171875 106.318359,63.1171875 Z M106.6875,62.0039062 C106.179688,62.0039062 105.798828,61.8154297 105.544922,61.4384766 C105.291016,61.0615234 105.164062,60.5136719 105.164062,59.7949219 C105.164062,59.0683594 105.294922,58.5087891 105.556641,58.1162109 C105.818359,57.7236328 106.191406,57.5273438 106.675781,57.5273438 C107.242188,57.5273438 107.658203,57.6992188 107.923828,58.0429688 C108.189453,58.3867188 108.322266,58.9667969 108.322266,59.7832031 L108.322266,59.7832031 L108.322266,59.9765625 C108.314453,60.6914062 108.181641,61.2080078 107.923828,61.5263672 C107.666016,61.8447266 107.253906,62.0039062 106.6875,62.0039062 Z M114.439453,63.1171875 C114.880859,63.1171875 115.273438,63.0839844 115.617188,63.0175781 C115.960938,62.9511719 116.300781,62.8378906 116.636719,62.6777344 L116.636719,62.6777344 L116.636719,61.5585938 C116.257812,61.7265625 115.90332,61.8466797 115.573242,61.9189453 C115.243164,61.9912109 114.886719,62.0273438 114.503906,62.0273438 C113.921875,62.0273438 113.470703,61.8583984 113.150391,61.5205078 C112.830078,61.1826172 112.660156,60.6992188 112.640625,60.0703125 L112.640625,60.0703125 L116.958984,60.0703125 L116.958984,59.3261719 C116.958984,58.4160156 116.710938,57.7011719 116.214844,57.1816406 C115.71875,56.6621094 115.042969,56.4023438 114.1875,56.4023438 C113.265625,56.4023438 112.541016,56.7050781 112.013672,57.3105469 C111.486328,57.9160156 111.222656,58.7480469 111.222656,59.8066406 C111.222656,60.8378906 111.506836,61.6474609 112.075195,62.2353516 C112.643555,62.8232422 113.431641,63.1171875 114.439453,63.1171875 Z M115.605469,59.0742188 L112.664062,59.0742188 C112.714844,58.5429688 112.87207,58.1386719 113.135742,57.8613281 C113.399414,57.5839844 113.75,57.4453125 114.1875,57.4453125 C114.625,57.4453125 114.96875,57.5830078 115.21875,57.8583984 C115.46875,58.1337891 115.597656,58.5390625 115.605469,59.0742188 L115.605469,59.0742188 Z M119.900391,63 L119.900391,53.8828125 L118.523438,53.8828125 L118.523438,63 L119.900391,63 Z M122.027344,65.8828125 C123.203125,65.8828125 124.042969,65.2089844 124.546875,63.8613281 L124.546875,63.8613281 L127.318359,56.5195312 L125.830078,56.5195312 C124.931641,59.125 124.435547,60.5810547 124.341797,60.8876953 C124.248047,61.1943359 124.183594,61.4550781 124.148438,61.6699219 L124.148438,61.6699219 L124.101562,61.6699219 C124.035156,61.2089844 123.902344,60.7167969 123.703125,60.1933594 L123.703125,60.1933594 L122.384766,56.5195312 L120.884766,56.5195312 L123.486328,63 L123.246094,63.609375 C122.976562,64.3789062 122.509766,64.7636719 121.845703,64.7636719 C121.580078,64.7636719 121.34375,64.7402344 121.136719,64.6933594 L121.136719,64.6933594 L121.136719,65.7832031 C121.425781,65.8496094 121.722656,65.8828125 122.027344,65.8828125 Z M92.5546875,75.1171875 C93.0507812,75.1171875 93.4570312,75.0458984 93.7734375,74.9033203 C94.0898438,74.7607422 94.4042969,74.4921875 94.7167969,74.0976562 L94.7167969,74.0976562 L94.7636719,74.0976562 L95.0390625,75 L96.0234375,75 L96.0234375,70.6347656 C96.0234375,69.8652344 95.8134766,69.3007812 95.3935547,68.9414062 C94.9736328,68.5820312 94.3515625,68.4023438 93.5273438,68.4023438 C93.15625,68.4023438 92.7617188,68.4501953 92.34375,68.5458984 C91.9257812,68.6416016 91.5410156,68.78125 91.1894531,68.9648438 L91.1894531,68.9648438 L91.6347656,69.9492188 C91.9160156,69.8164062 92.2089844,69.7011719 92.5136719,69.6035156 C92.8183594,69.5058594 93.1367188,69.4570312 93.46875,69.4570312 C93.875,69.4570312 94.1748047,69.5595703 94.3681641,69.7646484 C94.5615234,69.9697266 94.6582031,70.2792969 94.6582031,70.6933594 L94.6582031,70.6933594 L94.6582031,71.0390625 L93.5390625,71.0742188 C92.5234375,71.1054688 91.7675781,71.2910156 91.2714844,71.6308594 C90.7753906,71.9707031 90.5273438,72.4746094 90.5273438,73.1425781 C90.5273438,73.7714844 90.7060547,74.2578125 91.0634766,74.6015625 C91.4208984,74.9453125 91.9179688,75.1171875 92.5546875,75.1171875 Z M92.9882812,74.0625 C92.6445312,74.0625 92.3867188,73.9833984 92.2148438,73.8251953 C92.0429688,73.6669922 91.9570312,73.4433594 91.9570312,73.1542969 C91.9570312,72.7558594 92.1044922,72.4599609 92.3994141,72.2666016 C92.6943359,72.0732422 93.1660156,71.9648438 93.8144531,71.9414062 L93.8144531,71.9414062 L94.6464844,71.90625 L94.6464844,72.46875 C94.6464844,72.9726562 94.4951172,73.3642578 94.1923828,73.6435547 C93.8896484,73.9228516 93.4882812,74.0625 92.9882812,74.0625 Z M99.3222656,77.8828125 L99.3222656,75.2285156 C99.3222656,75.1113281 99.2949219,74.7792969 99.2402344,74.2324219 L99.2402344,74.2324219 L99.3222656,74.2324219 C99.7753906,74.8222656 100.412109,75.1171875 101.232422,75.1171875 C102.041016,75.1171875 102.674805,74.8203125 103.133789,74.2265625 C103.592773,73.6328125 103.822266,72.8066406 103.822266,71.7480469 C103.822266,70.6894531 103.59668,69.8671875 103.145508,69.28125 C102.694336,68.6953125 102.064453,68.4023438 101.255859,68.4023438 C100.396484,68.4023438 99.7519531,68.7304688 99.3222656,69.3867188 L99.3222656,69.3867188 L99.2519531,69.3867188 C99.1542969,68.9296875 99.0898438,68.640625 99.0585938,68.5195312 L99.0585938,68.5195312 L97.9453125,68.5195312 L97.9453125,77.8828125 L99.3222656,77.8828125 Z M100.921875,73.9921875 C100.355469,73.9921875 99.9472656,73.8154297 99.6972656,73.4619141 C99.4472656,73.1083984 99.3222656,72.5371094 99.3222656,71.7480469 L99.3222656,71.7480469 L99.3222656,71.5429688 C99.3222656,70.8398438 99.4482422,70.328125 99.7001953,70.0078125 C99.9521484,69.6875 100.351562,69.5273438 100.898438,69.5273438 C101.394531,69.5273438 101.770508,69.7138672 102.026367,70.0869141 C102.282227,70.4599609 102.410156,71.0097656 102.410156,71.7363281 C102.410156,72.4589844 102.28125,73.015625 102.023438,73.40625 C101.765625,73.796875 101.398438,73.9921875 100.921875,73.9921875 Z M106.798828,77.8828125 L106.798828,75.2285156 C106.798828,75.1113281 106.771484,74.7792969 106.716797,74.2324219 L106.716797,74.2324219 L106.798828,74.2324219 C107.251953,74.8222656 107.888672,75.1171875 108.708984,75.1171875 C109.517578,75.1171875 110.151367,74.8203125 110.610352,74.2265625 C111.069336,73.6328125 111.298828,72.8066406 111.298828,71.7480469 C111.298828,70.6894531 111.073242,69.8671875 110.62207,69.28125 C110.170898,68.6953125 109.541016,68.4023438 108.732422,68.4023438 C107.873047,68.4023438 107.228516,68.7304688 106.798828,69.3867188 L106.798828,69.3867188 L106.728516,69.3867188 C106.630859,68.9296875 106.566406,68.640625 106.535156,68.5195312 L106.535156,68.5195312 L105.421875,68.5195312 L105.421875,77.8828125 L106.798828,77.8828125 Z M108.398438,73.9921875 C107.832031,73.9921875 107.423828,73.8154297 107.173828,73.4619141 C106.923828,73.1083984 106.798828,72.5371094 106.798828,71.7480469 L106.798828,71.7480469 L106.798828,71.5429688 C106.798828,70.8398438 106.924805,70.328125 107.176758,70.0078125 C107.428711,69.6875 107.828125,69.5273438 108.375,69.5273438 C108.871094,69.5273438 109.24707,69.7138672 109.50293,70.0869141 C109.758789,70.4599609 109.886719,71.0097656 109.886719,71.7363281 C109.886719,72.4589844 109.757812,73.015625 109.5,73.40625 C109.242188,73.796875 108.875,73.9921875 108.398438,73.9921875 Z M114.275391,75 L114.275391,65.8828125 L112.898438,65.8828125 L112.898438,75 L114.275391,75 Z M116.941406,67.5585938 C117.183594,67.5585938 117.37207,67.4912109 117.506836,67.3564453 C117.641602,67.2216797 117.708984,67.0371094 117.708984,66.8027344 C117.708984,66.5566406 117.641602,66.3671875 117.506836,66.234375 C117.37207,66.1015625 117.183594,66.0351562 116.941406,66.0351562 C116.691406,66.0351562 116.499023,66.1015625 116.364258,66.234375 C116.229492,66.3671875 116.162109,66.5566406 116.162109,66.8027344 C116.162109,67.0371094 116.229492,67.2216797 116.364258,67.3564453 C116.499023,67.4912109 116.691406,67.5585938 116.941406,67.5585938 Z M117.621094,75 L117.621094,68.5195312 L116.244141,68.5195312 L116.244141,75 L117.621094,75 Z M122.203125,75.1171875 C122.601562,75.1171875 122.94043,75.0859375 123.219727,75.0234375 C123.499023,74.9609375 123.761719,74.8574219 124.007812,74.7128906 L124.007812,74.7128906 L124.007812,73.5117188 C123.460938,73.8164062 122.880859,73.96875 122.267578,73.96875 C121.728516,73.96875 121.319336,73.7861328 121.040039,73.4208984 C120.760742,73.0556641 120.621094,72.5097656 120.621094,71.7832031 C120.621094,70.2949219 121.181641,69.5507812 122.302734,69.5507812 C122.681641,69.5507812 123.162109,69.6640625 123.744141,69.890625 L123.744141,69.890625 L124.160156,68.7832031 C123.613281,68.5292969 122.998047,68.4023438 122.314453,68.4023438 C121.306641,68.4023438 120.536133,68.6953125 120.00293,69.28125 C119.469727,69.8671875 119.203125,70.7050781 119.203125,71.7949219 C119.203125,72.8652344 119.458008,73.6865234 119.967773,74.2587891 C120.477539,74.8310547 121.222656,75.1171875 122.203125,75.1171875 Z M127.101562,75.1171875 C127.597656,75.1171875 128.003906,75.0458984 128.320312,74.9033203 C128.636719,74.7607422 128.951172,74.4921875 129.263672,74.0976562 L129.263672,74.0976562 L129.310547,74.0976562 L129.585938,75 L130.570312,75 L130.570312,70.6347656 C130.570312,69.8652344 130.360352,69.3007812 129.94043,68.9414062 C129.520508,68.5820312 128.898438,68.4023438 128.074219,68.4023438 C127.703125,68.4023438 127.308594,68.4501953 126.890625,68.5458984 C126.472656,68.6416016 126.087891,68.78125 125.736328,68.9648438 L125.736328,68.9648438 L126.181641,69.9492188 C126.462891,69.8164062 126.755859,69.7011719 127.060547,69.6035156 C127.365234,69.5058594 127.683594,69.4570312 128.015625,69.4570312 C128.421875,69.4570312 128.72168,69.5595703 128.915039,69.7646484 C129.108398,69.9697266 129.205078,70.2792969 129.205078,70.6933594 L129.205078,70.6933594 L129.205078,71.0390625 L128.085938,71.0742188 C127.070312,71.1054688 126.314453,71.2910156 125.818359,71.6308594 C125.322266,71.9707031 125.074219,72.4746094 125.074219,73.1425781 C125.074219,73.7714844 125.25293,74.2578125 125.610352,74.6015625 C125.967773,74.9453125 126.464844,75.1171875 127.101562,75.1171875 Z M127.535156,74.0625 C127.191406,74.0625 126.933594,73.9833984 126.761719,73.8251953 C126.589844,73.6669922 126.503906,73.4433594 126.503906,73.1542969 C126.503906,72.7558594 126.651367,72.4599609 126.946289,72.2666016 C127.241211,72.0732422 127.712891,71.9648438 128.361328,71.9414062 L128.361328,71.9414062 L129.193359,71.90625 L129.193359,72.46875 C129.193359,72.9726562 129.041992,73.3642578 128.739258,73.6435547 C128.436523,73.9228516 128.035156,74.0625 127.535156,74.0625 Z M135.779297,75.1171875 C136.591797,75.1171875 137.226562,74.8212891 137.683594,74.2294922 C138.140625,73.6376953 138.369141,72.8105469 138.369141,71.7480469 C138.369141,70.6894531 138.143555,69.8671875 137.692383,69.28125 C137.241211,68.6953125 136.611328,68.4023438 135.802734,68.4023438 C134.951172,68.4023438 134.306641,68.7246094 133.869141,69.3691406 L133.869141,69.3691406 L133.810547,69.3691406 C133.818359,69.2832031 133.830078,69.0820312 133.845703,68.765625 C133.861328,68.4492188 133.869141,68.2109375 133.869141,68.0507812 L133.869141,68.0507812 L133.869141,65.8828125 L132.492188,65.8828125 L132.492188,75 L133.523438,75 L133.775391,74.2324219 L133.869141,74.2324219 C134.322266,74.8222656 134.958984,75.1171875 135.779297,75.1171875 Z M135.46875,73.9921875 C134.902344,73.9921875 134.494141,73.8154297 134.244141,73.4619141 C133.994141,73.1083984 133.869141,72.5371094 133.869141,71.7480469 L133.869141,71.7480469 L133.869141,71.6542969 C133.876953,70.8886719 134.00293,70.3427734 134.24707,70.0166016 C134.491211,69.6904297 134.890625,69.5273438 135.445312,69.5273438 C136.453125,69.5273438 136.957031,70.2636719 136.957031,71.7363281 C136.957031,72.4667969 136.831055,73.0253906 136.579102,73.4121094 C136.327148,73.7988281 135.957031,73.9921875 135.46875,73.9921875 Z M141.345703,75 L141.345703,65.8828125 L139.96875,65.8828125 L139.96875,75 L141.345703,75 Z M146.144531,75.1171875 C146.585938,75.1171875 146.978516,75.0839844 147.322266,75.0175781 C147.666016,74.9511719 148.005859,74.8378906 148.341797,74.6777344 L148.341797,74.6777344 L148.341797,73.5585938 C147.962891,73.7265625 147.608398,73.8466797 147.27832,73.9189453 C146.948242,73.9912109 146.591797,74.0273438 146.208984,74.0273438 C145.626953,74.0273438 145.175781,73.8583984 144.855469,73.5205078 C144.535156,73.1826172 144.365234,72.6992188 144.345703,72.0703125 L144.345703,72.0703125 L148.664062,72.0703125 L148.664062,71.3261719 C148.664062,70.4160156 148.416016,69.7011719 147.919922,69.1816406 C147.423828,68.6621094 146.748047,68.4023438 145.892578,68.4023438 C144.970703,68.4023438 144.246094,68.7050781 143.71875,69.3105469 C143.191406,69.9160156 142.927734,70.7480469 142.927734,71.8066406 C142.927734,72.8378906 143.211914,73.6474609 143.780273,74.2353516 C144.348633,74.8232422 145.136719,75.1171875 146.144531,75.1171875 Z M147.310547,71.0742188 L144.369141,71.0742188 C144.419922,70.5429688 144.577148,70.1386719 144.84082,69.8613281 C145.104492,69.5839844 145.455078,69.4453125 145.892578,69.4453125 C146.330078,69.4453125 146.673828,69.5830078 146.923828,69.8583984 C147.173828,70.1337891 147.302734,70.5390625 147.310547,71.0742188 L147.310547,71.0742188 Z M92.6660156,87.1171875 C93.5253906,87.1171875 94.1855469,86.9482422 94.6464844,86.6103516 C95.1074219,86.2724609 95.3378906,85.7871094 95.3378906,85.1542969 C95.3378906,84.8417969 95.2792969,84.5732422 95.1621094,84.3486328 C95.0449219,84.1240234 94.8652344,83.9257812 94.6230469,83.7539062 C94.3808594,83.5820312 93.9921875,83.3925781 93.4570312,83.1855469 C92.8203125,82.9394531 92.4072266,82.7460938 92.2177734,82.6054688 C92.0283203,82.4648438 91.9335938,82.2929688 91.9335938,82.0898438 C91.9335938,81.6757812 92.296875,81.46875 93.0234375,81.46875 C93.5,81.46875 94.0878906,81.6132812 94.7871094,81.9023438 L94.7871094,81.9023438 L95.2324219,80.8652344 C94.5527344,80.5566406 93.8320312,80.4023438 93.0703125,80.4023438 C92.3007812,80.4023438 91.6923828,80.5556641 91.2451172,80.8623047 C90.7978516,81.1689453 90.5742188,81.5996094 90.5742188,82.1542969 C90.5742188,82.6152344 90.7060547,82.9902344 90.9697266,83.2792969 C91.2333984,83.5683594 91.7382812,83.8574219 92.484375,84.1464844 C92.8671875,84.2949219 93.1660156,84.4277344 93.3808594,84.5449219 C93.5957031,84.6621094 93.75,84.7753906 93.84375,84.8847656 C93.9375,84.9941406 93.984375,85.1308594 93.984375,85.2949219 C93.984375,85.8066406 93.5605469,86.0625 92.7128906,86.0625 C92.0566406,86.0625 91.3476562,85.8867188 90.5859375,85.5351562 L90.5859375,85.5351562 L90.5859375,86.7246094 C91.109375,86.9863281 91.8027344,87.1171875 92.6660156,87.1171875 Z M98.9121094,87.1171875 C99.1699219,87.1171875 99.4189453,87.0947266 99.6591797,87.0498047 C99.8994141,87.0048828 100.095703,86.9492188 100.248047,86.8828125 L100.248047,86.8828125 L100.248047,85.8457031 C99.9121094,85.9511719 99.5761719,86.0039062 99.2402344,86.0039062 C98.9707031,86.0039062 98.7529297,85.9248047 98.5869141,85.7666016 C98.4208984,85.6083984 98.3378906,85.3632812 98.3378906,85.03125 L98.3378906,85.03125 L98.3378906,81.5625 L100.183594,81.5625 L100.183594,80.5195312 L98.3378906,80.5195312 L98.3378906,79.078125 L97.4882812,79.078125 L97.0195312,80.4492188 L96.0703125,80.953125 L96.0703125,81.5625 L96.9550781,81.5625 L96.9550781,85.0546875 C96.9550781,86.4296875 97.6074219,87.1171875 98.9121094,87.1171875 Z M103.113281,87.1171875 C103.609375,87.1171875 104.015625,87.0458984 104.332031,86.9033203 C104.648438,86.7607422 104.962891,86.4921875 105.275391,86.0976562 L105.275391,86.0976562 L105.322266,86.0976562 L105.597656,87 L106.582031,87 L106.582031,82.6347656 C106.582031,81.8652344 106.37207,81.3007812 105.952148,80.9414062 C105.532227,80.5820312 104.910156,80.4023438 104.085938,80.4023438 C103.714844,80.4023438 103.320312,80.4501953 102.902344,80.5458984 C102.484375,80.6416016 102.099609,80.78125 101.748047,80.9648438 L101.748047,80.9648438 L102.193359,81.9492188 C102.474609,81.8164062 102.767578,81.7011719 103.072266,81.6035156 C103.376953,81.5058594 103.695312,81.4570312 104.027344,81.4570312 C104.433594,81.4570312 104.733398,81.5595703 104.926758,81.7646484 C105.120117,81.9697266 105.216797,82.2792969 105.216797,82.6933594 L105.216797,82.6933594 L105.216797,83.0390625 L104.097656,83.0742188 C103.082031,83.1054688 102.326172,83.2910156 101.830078,83.6308594 C101.333984,83.9707031 101.085938,84.4746094 101.085938,85.1425781 C101.085938,85.7714844 101.264648,86.2578125 101.62207,86.6015625 C101.979492,86.9453125 102.476562,87.1171875 103.113281,87.1171875 Z M103.546875,86.0625 C103.203125,86.0625 102.945312,85.9833984 102.773438,85.8251953 C102.601562,85.6669922 102.515625,85.4433594 102.515625,85.1542969 C102.515625,84.7558594 102.663086,84.4599609 102.958008,84.2666016 C103.25293,84.0732422 103.724609,83.9648438 104.373047,83.9414062 L104.373047,83.9414062 L105.205078,83.90625 L105.205078,84.46875 C105.205078,84.9726562 105.053711,85.3642578 104.750977,85.6435547 C104.448242,85.9228516 104.046875,86.0625 103.546875,86.0625 Z M110.589844,87.1171875 C110.847656,87.1171875 111.09668,87.0947266 111.336914,87.0498047 C111.577148,87.0048828 111.773438,86.9492188 111.925781,86.8828125 L111.925781,86.8828125 L111.925781,85.8457031 C111.589844,85.9511719 111.253906,86.0039062 110.917969,86.0039062 C110.648438,86.0039062 110.430664,85.9248047 110.264648,85.7666016 C110.098633,85.6083984 110.015625,85.3632812 110.015625,85.03125 L110.015625,85.03125 L110.015625,81.5625 L111.861328,81.5625 L111.861328,80.5195312 L110.015625,80.5195312 L110.015625,79.078125 L109.166016,79.078125 L108.697266,80.4492188 L107.748047,80.953125 L107.748047,81.5625 L108.632812,81.5625 L108.632812,85.0546875 C108.632812,86.4296875 109.285156,87.1171875 110.589844,87.1171875 Z M116.050781,87.1171875 C116.492188,87.1171875 116.884766,87.0839844 117.228516,87.0175781 C117.572266,86.9511719 117.912109,86.8378906 118.248047,86.6777344 L118.248047,86.6777344 L118.248047,85.5585938 C117.869141,85.7265625 117.514648,85.8466797 117.18457,85.9189453 C116.854492,85.9912109 116.498047,86.0273438 116.115234,86.0273438 C115.533203,86.0273438 115.082031,85.8583984 114.761719,85.5205078 C114.441406,85.1826172 114.271484,84.6992188 114.251953,84.0703125 L114.251953,84.0703125 L118.570312,84.0703125 L118.570312,83.3261719 C118.570312,82.4160156 118.322266,81.7011719 117.826172,81.1816406 C117.330078,80.6621094 116.654297,80.4023438 115.798828,80.4023438 C114.876953,80.4023438 114.152344,80.7050781 113.625,81.3105469 C113.097656,81.9160156 112.833984,82.7480469 112.833984,83.8066406 C112.833984,84.8378906 113.118164,85.6474609 113.686523,86.2353516 C114.254883,86.8232422 115.042969,87.1171875 116.050781,87.1171875 Z M117.216797,83.0742188 L114.275391,83.0742188 C114.326172,82.5429688 114.483398,82.1386719 114.74707,81.8613281 C115.010742,81.5839844 115.361328,81.4453125 115.798828,81.4453125 C116.236328,81.4453125 116.580078,81.5830078 116.830078,81.8583984 C117.080078,82.1337891 117.208984,82.5390625 117.216797,83.0742188 L117.216797,83.0742188 Z M121.511719,87 L121.511719,83.7714844 C121.511719,82.9667969 121.635742,82.3916016 121.883789,82.0458984 C122.131836,81.7001953 122.521484,81.5273438 123.052734,81.5273438 C123.451172,81.5273438 123.744141,81.6494141 123.931641,81.8935547 C124.119141,82.1376953 124.212891,82.5078125 124.212891,83.0039062 L124.212891,83.0039062 L124.212891,87 L125.595703,87 L125.595703,83.5664062 C125.595703,82.875 125.719727,82.3623047 125.967773,82.0283203 C126.21582,81.6943359 126.607422,81.5273438 127.142578,81.5273438 C127.541016,81.5273438 127.834961,81.6494141 128.024414,81.8935547 C128.213867,82.1376953 128.308594,82.5078125 128.308594,83.0039062 L128.308594,83.0039062 L128.308594,87 L129.685547,87 L129.685547,82.7753906 C129.685547,81.9746094 129.508789,81.3789062 129.155273,80.9882812 C128.801758,80.5976562 128.238281,80.4023438 127.464844,80.4023438 C127.015625,80.4023438 126.617188,80.4921875 126.269531,80.671875 C125.921875,80.8515625 125.652344,81.1015625 125.460938,81.421875 L125.460938,81.421875 L125.367188,81.421875 C125.042969,80.7421875 124.382812,80.4023438 123.386719,80.4023438 C122.976562,80.4023438 122.600586,80.4863281 122.258789,80.6542969 C121.916992,80.8222656 121.65625,81.0605469 121.476562,81.3691406 L121.476562,81.3691406 L121.40625,81.3691406 L121.212891,80.5195312 L120.134766,80.5195312 L120.134766,87 L121.511719,87 Z M134.4375,87.1171875 C134.878906,87.1171875 135.271484,87.0839844 135.615234,87.0175781 C135.958984,86.9511719 136.298828,86.8378906 136.634766,86.6777344 L136.634766,86.6777344 L136.634766,85.5585938 C136.255859,85.7265625 135.901367,85.8466797 135.571289,85.9189453 C135.241211,85.9912109 134.884766,86.0273438 134.501953,86.0273438 C133.919922,86.0273438 133.46875,85.8583984 133.148438,85.5205078 C132.828125,85.1826172 132.658203,84.6992188 132.638672,84.0703125 L132.638672,84.0703125 L136.957031,84.0703125 L136.957031,83.3261719 C136.957031,82.4160156 136.708984,81.7011719 136.212891,81.1816406 C135.716797,80.6621094 135.041016,80.4023438 134.185547,80.4023438 C133.263672,80.4023438 132.539062,80.7050781 132.011719,81.3105469 C131.484375,81.9160156 131.220703,82.7480469 131.220703,83.8066406 C131.220703,84.8378906 131.504883,85.6474609 132.073242,86.2353516 C132.641602,86.8232422 133.429688,87.1171875 134.4375,87.1171875 Z M135.603516,83.0742188 L132.662109,83.0742188 C132.712891,82.5429688 132.870117,82.1386719 133.133789,81.8613281 C133.397461,81.5839844 133.748047,81.4453125 134.185547,81.4453125 C134.623047,81.4453125 134.966797,81.5830078 135.216797,81.8583984 C135.466797,82.1337891 135.595703,82.5390625 135.603516,83.0742188 L135.603516,83.0742188 Z M139.898438,87 L139.898438,83.7714844 C139.898438,82.9628906 140.033203,82.3867188 140.302734,82.0429688 C140.572266,81.6992188 140.998047,81.5273438 141.580078,81.5273438 C142.017578,81.5273438 142.336914,81.6503906 142.538086,81.8964844 C142.739258,82.1425781 142.839844,82.515625 142.839844,83.015625 L142.839844,83.015625 L142.839844,87 L144.222656,87 L144.222656,82.7753906 C144.222656,81.1933594 143.445312,80.4023438 141.890625,80.4023438 C141.453125,80.4023438 141.054688,80.4863281 140.695312,80.6542969 C140.335938,80.8222656 140.058594,81.0605469 139.863281,81.3691406 L139.863281,81.3691406 L139.792969,81.3691406 L139.599609,80.5195312 L138.521484,80.5195312 L138.521484,87 L139.898438,87 Z M148.224609,87.1171875 C148.482422,87.1171875 148.731445,87.0947266 148.97168,87.0498047 C149.211914,87.0048828 149.408203,86.9492188 149.560547,86.8828125 L149.560547,86.8828125 L149.560547,85.8457031 C149.224609,85.9511719 148.888672,86.0039062 148.552734,86.0039062 C148.283203,86.0039062 148.06543,85.9248047 147.899414,85.7666016 C147.733398,85.6083984 147.650391,85.3632812 147.650391,85.03125 L147.650391,85.03125 L147.650391,81.5625 L149.496094,81.5625 L149.496094,80.5195312 L147.650391,80.5195312 L147.650391,79.078125 L146.800781,79.078125 L146.332031,80.4492188 L145.382812,80.953125 L145.382812,81.5625 L146.267578,81.5625 L146.267578,85.0546875 C146.267578,86.4296875 146.919922,87.1171875 148.224609,87.1171875 Z M151.517578,87.1699219 C151.798828,87.1699219 152.014648,87.0888672 152.165039,86.9267578 C152.31543,86.7646484 152.390625,86.5449219 152.390625,86.2675781 C152.390625,85.9941406 152.316406,85.7783203 152.167969,85.6201172 C152.019531,85.4619141 151.802734,85.3828125 151.517578,85.3828125 C151.236328,85.3828125 151.021484,85.4589844 150.873047,85.6113281 C150.724609,85.7636719 150.650391,85.9824219 150.650391,86.2675781 C150.650391,86.5488281 150.724609,86.7695312 150.873047,86.9296875 C151.021484,87.0898438 151.236328,87.1699219 151.517578,87.1699219 Z" id="Makeawidelyapplicablestatement." fill="#FFFFFF" fill-rule="nonzero"></path>
                    <g id="Group-9" transform="translate(28.000000, 46.000000)" fill-rule="nonzero">
                        <g id="Group" transform="translate(2.000000, 1.000000)" fill="#95A5A6">
                            <path d="M4.9512053,0.309248638 L4.9512053,4.47888969 L0.520979524,4.47888969 L4.9512053,0.309248638 Z M23.8058763,9.75333058 C23.450647,9.77354403 23.1388588,10.0126148 23.0072708,10.3656797 C22.8756828,10.7187444 22.9483259,11.1213257 23.1933369,11.3968399 L26.369994,15.1251893 L14.7459933,15.1251893 C14.7175188,15.1237619 14.6889973,15.1237619 14.6605227,15.1251893 C14.3333753,15.139404 14.0384208,15.339733 13.8875686,15.6501692 C13.7367165,15.9606053 13.7530825,16.3335786 13.9304575,16.6275784 C14.1078322,16.9215781 14.4190357,17.091553 14.7459933,17.0730125 L26.369994,17.0730125 L23.1933369,20.8013327 C22.9352791,21.0491824 22.8312946,21.4320338 22.925096,21.7889451 C23.0188973,22.1458565 23.2942205,22.4149436 23.6353262,22.4830888 C23.9764319,22.551234 24.3241764,22.4066215 24.5323762,22.1100432 L29.0908079,16.7534561 C29.4060042,16.3821941 29.4060042,15.8160076 29.0908079,15.4447456 L24.5323762,10.0881196 C24.350512,9.86424335 24.0831139,9.74101973 23.8058763,9.75333058 L23.8058763,9.75333058 Z" id="Shape"></path>
                        </g>
                        <path d="M8.13621727,0.244114449 L0.316248832,7.53555772 C0.116456591,7.71919346 0.00121795589,7.98488723 0,8.26470005 L0,34.0278267 C0,34.5647239 0.411924214,35 0.919996145,35 L22.0799117,35 C22.5879835,35 23,34.5647239 23,34.0278267 L23,20.4171039 C23.004596,20.0664992 22.8302783,19.7403861 22.5437033,19.5636379 C22.2571283,19.3868899 21.9026945,19.3868899 21.6161195,19.5636379 C21.3295446,19.7403861 21.1552267,20.0664992 21.1599151,20.4171039 L21.1599151,33.055604 L1.83999277,33.055604 L1.83999277,9.23689319 L8.739965,9.23689319 C9.24804415,9.23683948 9.65991085,8.80160503 9.65996114,8.26470005 L9.65996114,1.94544985 L21.1599151,1.94544985 L21.1599151,14.5839503 C21.1552267,14.934555 21.3295446,15.260668 21.6161195,15.4374162 C21.9026945,15.6141643 22.2571283,15.6141643 22.5437033,15.4374162 C22.8302783,15.260668 23.004596,14.934555 23,14.5839503 L23,0.97326165 C23,0.43635667 22.5879908,0.00112229287 22.0799117,0.00106858283 L8.739965,0.00106858283 C8.71123095,-0.000356194277 8.68244943,-0.000356194277 8.65371532,0.00106858283 C8.46132563,0.0225761843 8.28024644,0.107621025 8.13621727,0.244114449 Z" id="Path" fill="#ECF0F1"></path>
                    </g>
                </g>
            </g>
        </g>
    </g>
</svg>