<?xml version="1.0" encoding="UTF-8"?>
<svg width="163px" height="97px" viewBox="0 0 163 97" version="1.1" xmlns="http://www.w3.org/2000/svg" xmlns:xlink="http://www.w3.org/1999/xlink">
    <!-- Generator: Sketch 62 (91390) - https://sketch.com -->
    <title>Hypothesise</title>
    <desc>Created with Sketch.</desc>
    <defs>
        <radialGradient cx="26.0530847%" cy="62.3934409%" fx="26.0530847%" fy="62.3934409%" r="35.1006849%" gradientTransform="translate(0.260531,0.623934),scale(0.595092,1.000000),rotate(-90.000000),translate(-0.260531,-0.623934)" id="radialGradient-1">
            <stop stop-color="#F5836F" offset="0%"></stop>
            <stop stop-color="#E74C3C" offset="100%"></stop>
        </radialGradient>
        <path d="M21.4802246,18 L21.4802246,12.5297852 L27.0749512,12.5297852 L27.0749512,18 L29.0671387,18 L29.0671387,5.86425781 L27.0749512,5.86425781 L27.0749512,10.828125 L21.4802246,10.828125 L21.4802246,5.86425781 L19.4963379,5.86425781 L19.4963379,18 L21.4802246,18 Z M32.279541,22.0839844 C33.9452311,22.0839844 35.1350098,21.1293945 35.848877,19.2202148 L35.848877,19.2202148 L39.7751465,8.81933594 L37.666748,8.81933594 C36.3939616,12.5104167 35.6911621,14.5731608 35.5583496,15.0075684 C35.4255371,15.4419759 35.3342285,15.8113607 35.2844238,16.1157227 L35.2844238,16.1157227 L35.2180176,16.1157227 C35.1239421,15.4627279 34.935791,14.7654622 34.6535645,14.0239258 L34.6535645,14.0239258 L32.7858887,8.81933594 L30.6608887,8.81933594 L34.3464355,18 L34.0061035,18.8632812 C33.6242676,19.9534505 32.962972,20.4985352 32.0222168,20.4985352 C31.6459147,20.4985352 31.3111165,20.465332 31.0178223,20.3989258 L31.0178223,20.3989258 L31.0178223,21.9428711 C31.4273275,22.0369466 31.8479004,22.0839844 32.279541,22.0839844 Z M43.1203613,22.0839844 L43.1203613,18.3237305 C43.1203613,18.1577148 43.0816243,17.6873372 43.0041504,16.9125977 L43.0041504,16.9125977 L43.1203613,16.9125977 C43.7622884,17.7482096 44.6643066,18.1660156 45.826416,18.1660156 C46.9719238,18.1660156 47.8697917,17.7454427 48.5200195,16.9042969 C49.1702474,16.063151 49.4953613,14.8927409 49.4953613,13.3930664 C49.4953613,11.8933919 49.1757812,10.7285156 48.5366211,9.8984375 C47.8974609,9.06835938 47.005127,8.65332031 45.8596191,8.65332031 C44.6421712,8.65332031 43.7290853,9.11816406 43.1203613,10.0478516 L43.1203613,10.0478516 L43.020752,10.0478516 C42.8824056,9.40039062 42.791097,8.99088542 42.7468262,8.81933594 L42.7468262,8.81933594 L41.1696777,8.81933594 L41.1696777,22.0839844 L43.1203613,22.0839844 Z M45.3864746,16.5722656 C44.5840658,16.5722656 44.005778,16.3218587 43.6516113,15.8210449 C43.2974447,15.3202311 43.1203613,14.5109049 43.1203613,13.3930664 L43.1203613,13.3930664 L43.1203613,13.1025391 C43.1203613,12.1064453 43.2988281,11.3815104 43.6557617,10.9277344 C44.0126953,10.4739583 44.5785319,10.2470703 45.3532715,10.2470703 C46.056071,10.2470703 46.5887044,10.5113118 46.9511719,11.0397949 C47.3136393,11.568278 47.494873,12.347168 47.494873,13.3764648 C47.494873,14.4002279 47.3122559,15.1888021 46.9470215,15.7421875 C46.5817871,16.2955729 46.0616048,16.5722656 45.3864746,16.5722656 Z M55.5383301,18.1660156 C56.9107259,18.1660156 57.9815267,17.7454427 58.7507324,16.9042969 C59.5199382,16.063151 59.904541,14.8927409 59.904541,13.3930664 C59.904541,11.9431966 59.5171712,10.7907715 58.7424316,9.93579102 C57.9676921,9.08081055 56.9162598,8.65332031 55.5881348,8.65332031 C54.1991374,8.65332031 53.1228027,9.0711263 52.3591309,9.90673828 C51.595459,10.7423503 51.213623,11.9044596 51.213623,13.3930664 C51.213623,14.3504232 51.3907064,15.191569 51.744873,15.9165039 C52.0990397,16.6414388 52.6053874,17.1975911 53.263916,17.5849609 C53.9224447,17.9723307 54.6805827,18.1660156 55.5383301,18.1660156 Z M55.5715332,16.5722656 C54.0054525,16.5722656 53.2224121,15.5125326 53.2224121,13.3930664 C53.2224121,12.3803711 53.4064128,11.6028646 53.7744141,11.0605469 C54.1424154,10.5182292 54.7359212,10.2470703 55.5549316,10.2470703 C57.1154785,10.2470703 57.895752,11.2957357 57.895752,13.3930664 C57.895752,15.5125326 57.1210124,16.5722656 55.5715332,16.5722656 Z M65.1008301,18.1660156 C65.4660645,18.1660156 65.8188477,18.134196 66.1591797,18.0705566 C66.4995117,18.0069173 66.7775879,17.9280599 66.9934082,17.8339844 L66.9934082,17.8339844 L66.9934082,16.3647461 C66.5174967,16.5141602 66.0415853,16.5888672 65.5656738,16.5888672 C65.1838379,16.5888672 64.8753255,16.4768066 64.6401367,16.2526855 C64.4049479,16.0285645 64.2873535,15.6813151 64.2873535,15.2109375 L64.2873535,15.2109375 L64.2873535,10.296875 L66.9020996,10.296875 L66.9020996,8.81933594 L64.2873535,8.81933594 L64.2873535,6.77734375 L63.0837402,6.77734375 L62.4196777,8.71972656 L61.0749512,9.43359375 L61.0749512,10.296875 L62.3283691,10.296875 L62.3283691,15.2441406 C62.3283691,17.1920573 63.2525228,18.1660156 65.1008301,18.1660156 Z M70.7785645,18 L70.7785645,13.4428711 C70.7785645,12.2918294 70.9708659,11.4714355 71.3554688,10.9816895 C71.7400716,10.4919434 72.3418783,10.2470703 73.1608887,10.2470703 C73.7806803,10.2470703 74.2330729,10.4213867 74.5180664,10.7700195 C74.8030599,11.1186523 74.9455566,11.6471354 74.9455566,12.3554688 L74.9455566,12.3554688 L74.9455566,18 L76.904541,18 L76.904541,12.0151367 C76.904541,9.77392578 75.7922363,8.65332031 73.567627,8.65332031 C72.9367676,8.65332031 72.3847656,8.7750651 71.9116211,9.01855469 C71.4384766,9.26204427 71.0690918,9.60514323 70.8034668,10.0478516 L70.8034668,10.0478516 L70.6789551,10.0478516 C70.7453613,9.45019531 70.7785645,8.88850911 70.7785645,8.36279297 L70.7785645,8.36279297 L70.7785645,5.08398438 L68.8278809,5.08398438 L68.8278809,18 L70.7785645,18 Z M83.6281738,18.1660156 C84.2534993,18.1660156 84.8096517,18.1189779 85.2966309,18.0249023 C85.78361,17.9308268 86.2650553,17.7703451 86.7409668,17.543457 L86.7409668,17.543457 L86.7409668,15.9580078 C86.2041829,16.1959635 85.7019857,16.3661296 85.234375,16.4685059 C84.7667643,16.5708822 84.2618001,16.6220703 83.7194824,16.6220703 C82.8949382,16.6220703 82.255778,16.3827311 81.802002,15.9040527 C81.3482259,15.4253743 81.1075033,14.7405599 81.079834,13.8496094 L81.079834,13.8496094 L87.1975098,13.8496094 L87.1975098,12.7954102 C87.1975098,11.5060221 86.84611,10.4933268 86.1433105,9.75732422 C85.4405111,9.02132161 84.4831543,8.65332031 83.2712402,8.65332031 C81.9652507,8.65332031 80.9387207,9.08219401 80.1916504,9.93994141 C79.4445801,10.7976888 79.0710449,11.9763997 79.0710449,13.4760742 C79.0710449,14.9370117 79.4736328,16.083903 80.2788086,16.916748 C81.0839844,17.7495931 82.2004395,18.1660156 83.6281738,18.1660156 Z M85.2800293,12.4384766 L81.1130371,12.4384766 C81.1849772,11.6858724 81.4077148,11.1131185 81.78125,10.7202148 C82.1547852,10.3273112 82.6514486,10.1308594 83.2712402,10.1308594 C83.8910319,10.1308594 84.3780111,10.3259277 84.7321777,10.7160645 C85.0863444,11.1062012 85.2689616,11.6803385 85.2800293,12.4384766 L85.2800293,12.4384766 Z M91.7961426,18.1660156 C93.0135905,18.1660156 93.9488118,17.9266764 94.6018066,17.447998 C95.2548014,16.9693197 95.5812988,16.2817383 95.5812988,15.3852539 C95.5812988,14.9425456 95.498291,14.5620931 95.3322754,14.2438965 C95.1662598,13.9256999 94.9117025,13.6448568 94.5686035,13.4013672 C94.2255046,13.1578776 93.6748861,12.8894857 92.916748,12.5961914 C92.0147298,12.2475586 91.4295247,11.9736328 91.1611328,11.7744141 C90.8927409,11.5751953 90.7585449,11.3317057 90.7585449,11.0439453 C90.7585449,10.4573568 91.2731934,10.1640625 92.3024902,10.1640625 C92.9776204,10.1640625 93.8104655,10.3688151 94.8010254,10.7783203 L94.8010254,10.7783203 L95.4318848,9.30908203 C94.4689941,8.87190755 93.447998,8.65332031 92.3688965,8.65332031 C91.2787272,8.65332031 90.4168294,8.87052409 89.7832031,9.30493164 C89.1495768,9.73933919 88.8327637,10.3494466 88.8327637,11.1352539 C88.8327637,11.7882487 89.0195312,12.3194987 89.3930664,12.7290039 C89.7666016,13.1385091 90.4818522,13.5480143 91.5388184,13.9575195 C92.0811361,14.167806 92.5044759,14.355957 92.8088379,14.5219727 C93.1131999,14.6879883 93.3317871,14.8484701 93.4645996,15.003418 C93.5974121,15.1583659 93.6638184,15.3520508 93.6638184,15.5844727 C93.6638184,16.3094076 93.0633952,16.671875 91.8625488,16.671875 C90.9328613,16.671875 89.9284668,16.4228516 88.8493652,15.9248047 L88.8493652,15.9248047 L88.8493652,17.6098633 C89.5909017,17.9806315 90.5731608,18.1660156 91.7961426,18.1660156 Z M98.6774902,7.45800781 C99.0205892,7.45800781 99.2875977,7.36254883 99.4785156,7.17163086 C99.6694336,6.98071289 99.7648926,6.71923828 99.7648926,6.38720703 C99.7648926,6.03857422 99.6694336,5.77018229 99.4785156,5.58203125 C99.2875977,5.39388021 99.0205892,5.29980469 98.6774902,5.29980469 C98.3233236,5.29980469 98.0507812,5.39388021 97.8598633,5.58203125 C97.6689453,5.77018229 97.5734863,6.03857422 97.5734863,6.38720703 C97.5734863,6.71923828 97.6689453,6.98071289 97.8598633,7.17163086 C98.0507812,7.36254883 98.3233236,7.45800781 98.6774902,7.45800781 Z M99.6403809,18 L99.6403809,8.81933594 L97.6896973,8.81933594 L97.6896973,18 L99.6403809,18 Z M104.811768,18.1660156 C106.029215,18.1660156 106.964437,17.9266764 107.617432,17.447998 C108.270426,16.9693197 108.596924,16.2817383 108.596924,15.3852539 C108.596924,14.9425456 108.513916,14.5620931 108.3479,14.2438965 C108.181885,13.9256999 107.927327,13.6448568 107.584229,13.4013672 C107.24113,13.1578776 106.690511,12.8894857 105.932373,12.5961914 C105.030355,12.2475586 104.44515,11.9736328 104.176758,11.7744141 C103.908366,11.5751953 103.77417,11.3317057 103.77417,11.0439453 C103.77417,10.4573568 104.288818,10.1640625 105.318115,10.1640625 C105.993245,10.1640625 106.82609,10.3688151 107.81665,10.7783203 L107.81665,10.7783203 L108.44751,9.30908203 C107.484619,8.87190755 106.463623,8.65332031 105.384521,8.65332031 C104.294352,8.65332031 103.432454,8.87052409 102.798828,9.30493164 C102.165202,9.73933919 101.848389,10.3494466 101.848389,11.1352539 C101.848389,11.7882487 102.035156,12.3194987 102.408691,12.7290039 C102.782227,13.1385091 103.497477,13.5480143 104.554443,13.9575195 C105.096761,14.167806 105.520101,14.355957 105.824463,14.5219727 C106.128825,14.6879883 106.347412,14.8484701 106.480225,15.003418 C106.613037,15.1583659 106.679443,15.3520508 106.679443,15.5844727 C106.679443,16.3094076 106.07902,16.671875 104.878174,16.671875 C103.948486,16.671875 102.944092,16.4228516 101.86499,15.9248047 L101.86499,15.9248047 L101.86499,17.6098633 C102.606527,17.9806315 103.588786,18.1660156 104.811768,18.1660156 Z M114.7146,18.1660156 C115.339925,18.1660156 115.896077,18.1189779 116.383057,18.0249023 C116.870036,17.9308268 117.351481,17.7703451 117.827393,17.543457 L117.827393,17.543457 L117.827393,15.9580078 C117.290609,16.1959635 116.788411,16.3661296 116.320801,16.4685059 C115.85319,16.5708822 115.348226,16.6220703 114.805908,16.6220703 C113.981364,16.6220703 113.342204,16.3827311 112.888428,15.9040527 C112.434652,15.4253743 112.193929,14.7405599 112.16626,13.8496094 L112.16626,13.8496094 L118.283936,13.8496094 L118.283936,12.7954102 C118.283936,11.5060221 117.932536,10.4933268 117.229736,9.75732422 C116.526937,9.02132161 115.56958,8.65332031 114.357666,8.65332031 C113.051676,8.65332031 112.025146,9.08219401 111.278076,9.93994141 C110.531006,10.7976888 110.157471,11.9763997 110.157471,13.4760742 C110.157471,14.9370117 110.560059,16.083903 111.365234,16.916748 C112.17041,17.7495931 113.286865,18.1660156 114.7146,18.1660156 Z M116.366455,12.4384766 L112.199463,12.4384766 C112.271403,11.6858724 112.494141,11.1131185 112.867676,10.7202148 C113.241211,10.3273112 113.737874,10.1308594 114.357666,10.1308594 C114.977458,10.1308594 115.464437,10.3259277 115.818604,10.7160645 C116.17277,11.1062012 116.355387,11.6803385 116.366455,12.4384766 L116.366455,12.4384766 Z" id="path-2"></path>
    </defs>
    <g id="Symbols" stroke="none" stroke-width="1" fill="none" fill-rule="evenodd">
        <g id="i/Hypothesise">
            <g id="Hypothesise">
                <path d="M6,0 L157,0 C160.313708,-6.08718376e-16 163,2.6862915 163,6 L163,91 C163,94.3137085 160.313708,97 157,97 L6,97 C2.6862915,97 4.05812251e-16,94.3137085 0,91 L0,6 C-4.05812251e-16,2.6862915 2.6862915,6.08718376e-16 6,0 Z" id="Rectangle-2" fill="url(#radialGradient-1)" fill-rule="nonzero"></path>
                <g id="Group-10" transform="translate(56.000000, 58.000000)" fill="#9B9B9B" fill-rule="nonzero">
                    <path d="M5,2.57142857 C5,3.85714285 4.08333333,4.88571428 2.91666666,5.1 L2.91666666,5.57142857 C2.91666666,5.82857142 2.75,6 2.5,6 C2.25,6 2.08333333,5.82857142 2.08333333,5.57142857 L2.08333333,4.71428571 C2.08333333,4.45714285 2.25,4.28571428 2.5,4.28571428 C3.41666667,4.28571428 4.16666667,3.51428571 4.16666667,2.57142857 C4.16666667,1.62857143 3.41666667,0.857142858 2.5,0.857142858 C1.58333333,0.857142858 0.833333337,1.62857143 0.833333337,2.57142857 C0.833333337,2.82857143 0.666666666,3 0.416666667,3 C0.166666667,3 0,2.82857143 0,2.57142857 C0,1.15714286 1.125,0 2.5,0 C3.875,0 5,1.15714286 5,2.57142857 Z" id="Path" stroke="#9B9B9B" stroke-width="1.8"></path>
                    <path d="M4,8 C4,8.54999999 3.55,9 3,9 C2.45,9 2,8.54999999 2,8 C2,7.45000001 2.45,7 3,7 C3.55,7 4,7.45000001 4,8 Z" id="Path"></path>
                </g>
                <g id="noun_967160_E74C3C" transform="translate(23.000000, 40.000000)" fill-rule="nonzero">
                    <g id="Group">
                        <path d="M1.12711321,10.1775 L8.68426415,10.1775 C9.30777356,10.1775 9.81137733,9.6885 9.81137733,9.08474998 L9.81137733,1.75875 C9.81137733,1.155 9.30777356,0.666 8.68426415,0.666 L1.12711321,0.666 C0.504377359,0.666 0,1.155 0,1.75875 L0,9.08474998 C0,9.6885 0.504377359,10.1775 1.12711321,10.1775 Z M2.25422641,2.8515 L7.55637733,2.8515 L7.55637733,7.992 L2.25422641,7.992 L2.25422641,2.8515 L2.25422641,2.8515 Z" id="Shape" fill="#BDC3C7"></path>
                        <path d="M8.68581133,35.2965 L1.12866038,35.2965 C0.505924528,35.2965 0.00154716981,35.7855 0.00154716981,36.38925 L0.00154716981,43.716 C0.00154716981,44.31975 0.505924528,44.80875 1.12866038,44.80875 L8.68581133,44.80875 C9.30932074,44.80875 9.81292452,44.31975 9.81292452,43.716 L9.81292452,36.38925 C9.81292452,35.7855 9.30854718,35.2965 8.68581133,35.2965 Z M7.55869815,42.6225 L2.25654717,42.6225 L2.25654717,37.482 L7.55869815,37.482 L7.55869815,42.6225 Z" id="Shape" fill="#9B9B9B"></path>
                        <path d="M13.3234528,6.4935 L34.8074528,6.4935 L34.8074528,12.31425 L32.9539434,10.5165 C32.5137736,10.08975 31.8005283,10.08975 31.3595849,10.5165 C30.9194151,10.9425 30.9194151,11.63475 31.3595849,12.06225 L35.1346793,15.723 C35.2391132,15.825 35.3636604,15.9075 35.5036793,15.963 L35.5052264,15.96375 C35.5717547,15.99075 35.6413773,16.011 35.7140944,16.02525 L35.7140944,16.02525 C35.7860377,16.0395 35.8595283,16.047 35.9353396,16.047 C36.2486415,16.047 36.5317736,15.9225 36.7352264,15.723 L40.5110944,12.06225 C40.9504906,11.6355 40.9504906,10.94325 40.5110944,10.5165 C40.0709245,10.08975 39.3576793,10.08975 38.9167359,10.5165 L37.0624528,12.315 L37.0624528,5.40075 C37.0624528,4.797 36.558849,4.308 35.9353396,4.308 L13.3234528,4.308 C12.6999434,4.308 12.1963396,4.797 12.1963396,5.40075 C12.1963396,6.0045 12.6999434,6.4935 13.3234528,6.4935 Z" id="Shape" fill="#FFFFFF"></path>
                        <path d="M5.70518868,12.34875 C5.494,12.144 5.207,12.0285 4.90762264,12.0285 C4.60824528,12.0285 4.32201887,12.14325 4.11160377,12.34875 L0.33264151,16.0125 C-0.107528302,16.43925 -0.107528302,17.13075 0.33264151,17.55825 C0.552339623,17.772 0.840886793,17.8785 1.12866038,17.8785 C1.41720755,17.8785 1.70575472,17.772 1.92545283,17.55825 L3.77973585,15.7605 L3.77973585,32.77125 C3.77973585,33.375 4.28411321,33.864 4.90684906,33.864 C5.53035849,33.864 6.03396227,33.375 6.03396227,32.77125 L6.03396227,15.75975 L7.8874717,17.5575 C8.32764148,17.98425 9.04088681,17.98425 9.48183022,17.5575 C9.922,17.1315 9.922,16.43925 9.48183022,16.01175 L5.70518868,12.34875 Z" id="Shape" fill="#FFFFFF"></path>
                        <path d="M35.9345661,29.40675 C35.3110566,29.40675 34.8074528,29.89575 34.8074528,30.4995 L34.8074528,38.95875 L16.0433773,38.95875 L17.8968868,37.16175 C18.3370566,36.73575 18.3370566,36.0435 17.8968868,35.616 C17.456717,35.19 16.7434717,35.19 16.3033019,35.616 L12.5251132,39.279 L12.5251132,39.27975 C12.4206793,39.381 12.3379056,39.50175 12.2806604,39.636 C12.2783396,39.64275 12.2775661,39.6495 12.2744717,39.65475 C12.2257359,39.777 12.1955661,39.90975 12.1947924,40.04925 L12.1947924,40.053 C12.1947924,40.194 12.2249623,40.32675 12.2752453,40.4505 C12.2775661,40.45575 12.2783396,40.46175 12.2798868,40.46625 C12.3379056,40.6035 12.423,40.72575 12.5289811,40.82775 L16.3033019,44.487 C16.523,44.70075 16.8115472,44.80725 17.0993207,44.80725 C17.3878679,44.80725 17.6764151,44.70075 17.8961132,44.487 C18.336283,44.061 18.336283,43.36875 17.8961132,42.94125 L16.0426038,41.14425 L35.9330189,41.14425 C36.5565283,41.14425 37.0601356,40.65525 37.0601356,40.0515 L37.0601356,30.4995 C37.0616793,29.89575 36.5580755,29.40675 35.9345661,29.40675 Z" id="Shape" fill="#FFFFFF"></path>
                    </g>
                </g>
                <polyline id="Line-2" stroke="#FFFFFF" stroke-width="4" stroke-linecap="square" points="2 30 20.4627861 30 161 30"></polyline>
                <line x1="81" y1="45" x2="81" y2="85.0042519" id="Line-3" stroke="#FFFFFF" stroke-width="2" stroke-linecap="square"></line>
                <g id="Adverbs" transform="translate(14.000000, 2.000000)" fill="#FFFFFF" fill-rule="nonzero">
                    <g id="Hypothesise">
                        <use xlink:href="#path-2"></use>
                        <use xlink:href="#path-2"></use>
                    </g>
                </g>
                <path d="M98.8261719,51 L100.244141,45.9140625 C100.302734,45.71875 100.375977,45.421875 100.463867,45.0234375 C100.551758,44.625 100.615234,44.3007812 100.654297,44.0507812 C100.673828,44.2148438 100.730469,44.5068359 100.824219,44.9267578 C100.917969,45.3466797 100.996094,45.6679688 101.058594,45.890625 L101.058594,45.890625 L102.511719,51 L104.035156,51 L106.267578,42.4335938 L104.849609,42.4335938 L103.630859,47.4140625 C103.408203,48.2773438 103.267578,48.9882812 103.208984,49.546875 C103.056641,48.6210938 102.912109,47.9257812 102.775391,47.4609375 L102.775391,47.4609375 L101.345703,42.4335938 L99.9570312,42.4335938 L98.5625,47.4375 C98.4921875,47.6914062 98.4140625,48.0234375 98.328125,48.4335938 C98.2421875,48.84375 98.1777344,49.2148438 98.1347656,49.546875 C98.0527344,48.9335938 97.9160156,48.2265625 97.7246094,47.4257812 L97.7246094,47.4257812 L96.5,42.4335938 L95.0703125,42.4335938 L96.1953125,46.7109375 L97.3027344,51 L98.8261719,51 Z M108.710938,51 L108.710938,47.7832031 C108.710938,46.9707031 108.84668,46.3916016 109.118164,46.0458984 C109.389648,45.7001953 109.814453,45.5273438 110.392578,45.5273438 C110.830078,45.5273438 111.149414,45.6503906 111.350586,45.8964844 C111.551758,46.1425781 111.652344,46.515625 111.652344,47.015625 L111.652344,47.015625 L111.652344,51 L113.035156,51 L113.035156,46.7753906 C113.035156,45.1933594 112.25,44.4023438 110.679688,44.4023438 C110.234375,44.4023438 109.844727,44.4882812 109.510742,44.6601562 C109.176758,44.8320312 108.916016,45.0742188 108.728516,45.3867188 L108.728516,45.3867188 L108.640625,45.3867188 C108.6875,44.9648438 108.710938,44.5683594 108.710938,44.1972656 L108.710938,44.1972656 L108.710938,41.8828125 L107.333984,41.8828125 L107.333984,51 L108.710938,51 Z M116.521484,51.1171875 C117.017578,51.1171875 117.423828,51.0458984 117.740234,50.9033203 C118.056641,50.7607422 118.371094,50.4921875 118.683594,50.0976562 L118.683594,50.0976562 L118.730469,50.0976562 L119.005859,51 L119.990234,51 L119.990234,46.6347656 C119.990234,45.8652344 119.780273,45.3007812 119.360352,44.9414062 C118.94043,44.5820312 118.318359,44.4023438 117.494141,44.4023438 C117.123047,44.4023438 116.728516,44.4501953 116.310547,44.5458984 C115.892578,44.6416016 115.507812,44.78125 115.15625,44.9648438 L115.15625,44.9648438 L115.601562,45.9492188 C115.882812,45.8164062 116.175781,45.7011719 116.480469,45.6035156 C116.785156,45.5058594 117.103516,45.4570312 117.435547,45.4570312 C117.841797,45.4570312 118.141602,45.5595703 118.334961,45.7646484 C118.52832,45.9697266 118.625,46.2792969 118.625,46.6933594 L118.625,46.6933594 L118.625,47.0390625 L117.505859,47.0742188 C116.490234,47.1054688 115.734375,47.2910156 115.238281,47.6308594 C114.742188,47.9707031 114.494141,48.4746094 114.494141,49.1425781 C114.494141,49.7714844 114.672852,50.2578125 115.030273,50.6015625 C115.387695,50.9453125 115.884766,51.1171875 116.521484,51.1171875 Z M116.955078,50.0625 C116.611328,50.0625 116.353516,49.9833984 116.181641,49.8251953 C116.009766,49.6669922 115.923828,49.4433594 115.923828,49.1542969 C115.923828,48.7558594 116.071289,48.4599609 116.366211,48.2666016 C116.661133,48.0732422 117.132812,47.9648438 117.78125,47.9414062 L117.78125,47.9414062 L118.613281,47.90625 L118.613281,48.46875 C118.613281,48.9726562 118.461914,49.3642578 118.15918,49.6435547 C117.856445,49.9228516 117.455078,50.0625 116.955078,50.0625 Z M123.998047,51.1171875 C124.255859,51.1171875 124.504883,51.0947266 124.745117,51.0498047 C124.985352,51.0048828 125.181641,50.9492188 125.333984,50.8828125 L125.333984,50.8828125 L125.333984,49.8457031 C124.998047,49.9511719 124.662109,50.0039062 124.326172,50.0039062 C124.056641,50.0039062 123.838867,49.9248047 123.672852,49.7666016 C123.506836,49.6083984 123.423828,49.3632812 123.423828,49.03125 L123.423828,49.03125 L123.423828,45.5625 L125.269531,45.5625 L125.269531,44.5195312 L123.423828,44.5195312 L123.423828,43.078125 L122.574219,43.078125 L122.105469,44.4492188 L121.15625,44.953125 L121.15625,45.5625 L122.041016,45.5625 L122.041016,49.0546875 C122.041016,50.4296875 122.693359,51.1171875 123.998047,51.1171875 Z M98.4570312,63 L99.3183594,59.9882812 C99.4511719,59.546875 99.6308594,58.7988281 99.8574219,57.7441406 L99.8574219,57.7441406 L99.9101562,57.7441406 C100.175781,58.9121094 100.359375,59.65625 100.460938,59.9765625 L100.460938,59.9765625 L101.298828,63 L102.845703,63 L104.673828,56.5195312 L103.291016,56.5195312 L102.453125,59.7128906 C102.238281,60.5761719 102.101562,61.2480469 102.042969,61.7285156 L102.042969,61.7285156 L101.996094,61.7285156 C101.980469,61.5097656 101.928711,61.203125 101.84082,60.8085938 C101.75293,60.4140625 101.679688,60.1210938 101.621094,59.9296875 L101.621094,59.9296875 L100.666016,56.5195312 L99.1542969,56.5195312 L98.1699219,59.9296875 C98.1113281,60.1132812 98.0419922,60.3896484 97.9619141,60.7587891 C97.8818359,61.1279297 97.8222656,61.4550781 97.7832031,61.7402344 L97.7832031,61.7402344 L97.7480469,61.7402344 C97.6699219,61.1777344 97.5371094,60.5019531 97.3496094,59.7128906 L97.3496094,59.7128906 L96.5234375,56.5195312 L95.1171875,56.5195312 L96.9335938,63 L98.4570312,63 Z M108.453125,63.1171875 C109.421875,63.1171875 110.177734,62.8203125 110.720703,62.2265625 C111.263672,61.6328125 111.535156,60.8066406 111.535156,59.7480469 C111.535156,58.7246094 111.261719,57.9111328 110.714844,57.3076172 C110.167969,56.7041016 109.425781,56.4023438 108.488281,56.4023438 C107.507812,56.4023438 106.748047,56.6972656 106.208984,57.2871094 C105.669922,57.8769531 105.400391,58.6972656 105.400391,59.7480469 C105.400391,60.4238281 105.525391,61.0175781 105.775391,61.5292969 C106.025391,62.0410156 106.382812,62.4335938 106.847656,62.7070312 C107.3125,62.9804688 107.847656,63.1171875 108.453125,63.1171875 Z M108.476562,61.9921875 C107.371094,61.9921875 106.818359,61.2441406 106.818359,59.7480469 C106.818359,59.0332031 106.948242,58.484375 107.208008,58.1015625 C107.467773,57.71875 107.886719,57.5273438 108.464844,57.5273438 C109.566406,57.5273438 110.117188,58.2675781 110.117188,59.7480469 C110.117188,61.2441406 109.570312,61.9921875 108.476562,61.9921875 Z M115.396484,63.1171875 C115.849609,63.1171875 116.25293,63.03125 116.606445,62.859375 C116.959961,62.6875 117.232422,62.4511719 117.423828,62.1503906 L117.423828,62.1503906 L117.494141,62.1503906 L117.6875,63 L118.771484,63 L118.771484,56.5195312 L117.388672,56.5195312 L117.388672,59.7480469 C117.388672,60.5605469 117.25293,61.1396484 116.981445,61.4853516 C116.709961,61.8310547 116.285156,62.0039062 115.707031,62.0039062 C115.273438,62.0039062 114.955078,61.8798828 114.751953,61.6318359 C114.548828,61.3837891 114.447266,61.0117188 114.447266,60.515625 L114.447266,60.515625 L114.447266,56.5195312 L113.058594,56.5195312 L113.058594,60.7558594 C113.058594,61.5488281 113.251953,62.140625 113.638672,62.53125 C114.025391,62.921875 114.611328,63.1171875 115.396484,63.1171875 Z M122.111328,63 L122.111328,53.8828125 L120.734375,53.8828125 L120.734375,63 L122.111328,63 Z M126.265625,63.1171875 C127.117188,63.1171875 127.763672,62.7949219 128.205078,62.1503906 L128.205078,62.1503906 L128.269531,62.1503906 L128.509766,63 L129.587891,63 L129.587891,53.8828125 L128.205078,53.8828125 L128.205078,56.2441406 C128.205078,56.5136719 128.238281,56.8808594 128.304688,57.3457031 L128.304688,57.3457031 L128.234375,57.3457031 C127.789062,56.7167969 127.140625,56.4023438 126.289062,56.4023438 C125.476562,56.4023438 124.84082,56.6982422 124.381836,57.2900391 C123.922852,57.8818359 123.693359,58.7089844 123.693359,59.7714844 C123.693359,60.8300781 123.919922,61.6523438 124.373047,62.2382812 C124.826172,62.8242188 125.457031,63.1171875 126.265625,63.1171875 Z M126.634766,62.0039062 C126.126953,62.0039062 125.746094,61.8154297 125.492188,61.4384766 C125.238281,61.0615234 125.111328,60.5136719 125.111328,59.7949219 C125.111328,59.0683594 125.242188,58.5087891 125.503906,58.1162109 C125.765625,57.7236328 126.138672,57.5273438 126.623047,57.5273438 C127.189453,57.5273438 127.605469,57.6992188 127.871094,58.0429688 C128.136719,58.3867188 128.269531,58.9667969 128.269531,59.7832031 L128.269531,59.7832031 L128.269531,59.9765625 C128.261719,60.6914062 128.128906,61.2080078 127.871094,61.5263672 C127.613281,61.8447266 127.201172,62.0039062 126.634766,62.0039062 Z M97.3613281,75 L97.3613281,71.7832031 C97.3613281,70.9707031 97.4970703,70.3916016 97.7685547,70.0458984 C98.0400391,69.7001953 98.4648438,69.5273438 99.0429688,69.5273438 C99.4804688,69.5273438 99.7998047,69.6503906 100.000977,69.8964844 C100.202148,70.1425781 100.302734,70.515625 100.302734,71.015625 L100.302734,71.015625 L100.302734,75 L101.685547,75 L101.685547,70.7753906 C101.685547,69.1933594 100.900391,68.4023438 99.3300781,68.4023438 C98.8847656,68.4023438 98.4951172,68.4882812 98.1611328,68.6601562 C97.8271484,68.8320312 97.5664062,69.0742188 97.3789062,69.3867188 L97.3789062,69.3867188 L97.2910156,69.3867188 C97.3378906,68.9648438 97.3613281,68.5683594 97.3613281,68.1972656 L97.3613281,68.1972656 L97.3613281,65.8828125 L95.984375,65.8828125 L95.984375,75 L97.3613281,75 Z M105.171875,75.1171875 C105.667969,75.1171875 106.074219,75.0458984 106.390625,74.9033203 C106.707031,74.7607422 107.021484,74.4921875 107.333984,74.0976562 L107.333984,74.0976562 L107.380859,74.0976562 L107.65625,75 L108.640625,75 L108.640625,70.6347656 C108.640625,69.8652344 108.430664,69.3007812 108.010742,68.9414062 C107.59082,68.5820312 106.96875,68.4023438 106.144531,68.4023438 C105.773438,68.4023438 105.378906,68.4501953 104.960938,68.5458984 C104.542969,68.6416016 104.158203,68.78125 103.806641,68.9648438 L103.806641,68.9648438 L104.251953,69.9492188 C104.533203,69.8164062 104.826172,69.7011719 105.130859,69.6035156 C105.435547,69.5058594 105.753906,69.4570312 106.085938,69.4570312 C106.492188,69.4570312 106.791992,69.5595703 106.985352,69.7646484 C107.178711,69.9697266 107.275391,70.2792969 107.275391,70.6933594 L107.275391,70.6933594 L107.275391,71.0390625 L106.15625,71.0742188 C105.140625,71.1054688 104.384766,71.2910156 103.888672,71.6308594 C103.392578,71.9707031 103.144531,72.4746094 103.144531,73.1425781 C103.144531,73.7714844 103.323242,74.2578125 103.680664,74.6015625 C104.038086,74.9453125 104.535156,75.1171875 105.171875,75.1171875 Z M105.605469,74.0625 C105.261719,74.0625 105.003906,73.9833984 104.832031,73.8251953 C104.660156,73.6669922 104.574219,73.4433594 104.574219,73.1542969 C104.574219,72.7558594 104.72168,72.4599609 105.016602,72.2666016 C105.311523,72.0732422 105.783203,71.9648438 106.431641,71.9414062 L106.431641,71.9414062 L107.263672,71.90625 L107.263672,72.46875 C107.263672,72.9726562 107.112305,73.3642578 106.80957,73.6435547 C106.506836,73.9228516 106.105469,74.0625 105.605469,74.0625 Z M111.939453,77.8828125 L111.939453,75.2285156 C111.939453,75.1113281 111.912109,74.7792969 111.857422,74.2324219 L111.857422,74.2324219 L111.939453,74.2324219 C112.392578,74.8222656 113.029297,75.1171875 113.849609,75.1171875 C114.658203,75.1171875 115.291992,74.8203125 115.750977,74.2265625 C116.209961,73.6328125 116.439453,72.8066406 116.439453,71.7480469 C116.439453,70.6894531 116.213867,69.8671875 115.762695,69.28125 C115.311523,68.6953125 114.681641,68.4023438 113.873047,68.4023438 C113.013672,68.4023438 112.369141,68.7304688 111.939453,69.3867188 L111.939453,69.3867188 L111.869141,69.3867188 C111.771484,68.9296875 111.707031,68.640625 111.675781,68.5195312 L111.675781,68.5195312 L110.5625,68.5195312 L110.5625,77.8828125 L111.939453,77.8828125 Z M113.539062,73.9921875 C112.972656,73.9921875 112.564453,73.8154297 112.314453,73.4619141 C112.064453,73.1083984 111.939453,72.5371094 111.939453,71.7480469 L111.939453,71.7480469 L111.939453,71.5429688 C111.939453,70.8398438 112.06543,70.328125 112.317383,70.0078125 C112.569336,69.6875 112.96875,69.5273438 113.515625,69.5273438 C114.011719,69.5273438 114.387695,69.7138672 114.643555,70.0869141 C114.899414,70.4599609 115.027344,71.0097656 115.027344,71.7363281 C115.027344,72.4589844 114.898438,73.015625 114.640625,73.40625 C114.382812,73.796875 114.015625,73.9921875 113.539062,73.9921875 Z M119.416016,77.8828125 L119.416016,75.2285156 C119.416016,75.1113281 119.388672,74.7792969 119.333984,74.2324219 L119.333984,74.2324219 L119.416016,74.2324219 C119.869141,74.8222656 120.505859,75.1171875 121.326172,75.1171875 C122.134766,75.1171875 122.768555,74.8203125 123.227539,74.2265625 C123.686523,73.6328125 123.916016,72.8066406 123.916016,71.7480469 C123.916016,70.6894531 123.69043,69.8671875 123.239258,69.28125 C122.788086,68.6953125 122.158203,68.4023438 121.349609,68.4023438 C120.490234,68.4023438 119.845703,68.7304688 119.416016,69.3867188 L119.416016,69.3867188 L119.345703,69.3867188 C119.248047,68.9296875 119.183594,68.640625 119.152344,68.5195312 L119.152344,68.5195312 L118.039062,68.5195312 L118.039062,77.8828125 L119.416016,77.8828125 Z M121.015625,73.9921875 C120.449219,73.9921875 120.041016,73.8154297 119.791016,73.4619141 C119.541016,73.1083984 119.416016,72.5371094 119.416016,71.7480469 L119.416016,71.7480469 L119.416016,71.5429688 C119.416016,70.8398438 119.541992,70.328125 119.793945,70.0078125 C120.045898,69.6875 120.445312,69.5273438 120.992188,69.5273438 C121.488281,69.5273438 121.864258,69.7138672 122.120117,70.0869141 C122.375977,70.4599609 122.503906,71.0097656 122.503906,71.7363281 C122.503906,72.4589844 122.375,73.015625 122.117188,73.40625 C121.859375,73.796875 121.492188,73.9921875 121.015625,73.9921875 Z M128.345703,75.1171875 C128.787109,75.1171875 129.179688,75.0839844 129.523438,75.0175781 C129.867188,74.9511719 130.207031,74.8378906 130.542969,74.6777344 L130.542969,74.6777344 L130.542969,73.5585938 C130.164062,73.7265625 129.80957,73.8466797 129.479492,73.9189453 C129.149414,73.9912109 128.792969,74.0273438 128.410156,74.0273438 C127.828125,74.0273438 127.376953,73.8583984 127.056641,73.5205078 C126.736328,73.1826172 126.566406,72.6992188 126.546875,72.0703125 L126.546875,72.0703125 L130.865234,72.0703125 L130.865234,71.3261719 C130.865234,70.4160156 130.617188,69.7011719 130.121094,69.1816406 C129.625,68.6621094 128.949219,68.4023438 128.09375,68.4023438 C127.171875,68.4023438 126.447266,68.7050781 125.919922,69.3105469 C125.392578,69.9160156 125.128906,70.7480469 125.128906,71.8066406 C125.128906,72.8378906 125.413086,73.6474609 125.981445,74.2353516 C126.549805,74.8232422 127.337891,75.1171875 128.345703,75.1171875 Z M129.511719,71.0742188 L126.570312,71.0742188 C126.621094,70.5429688 126.77832,70.1386719 127.041992,69.8613281 C127.305664,69.5839844 127.65625,69.4453125 128.09375,69.4453125 C128.53125,69.4453125 128.875,69.5830078 129.125,69.8583984 C129.375,70.1337891 129.503906,70.5390625 129.511719,71.0742188 L129.511719,71.0742188 Z M133.806641,75 L133.806641,71.7714844 C133.806641,70.9628906 133.941406,70.3867188 134.210938,70.0429688 C134.480469,69.6992188 134.90625,69.5273438 135.488281,69.5273438 C135.925781,69.5273438 136.245117,69.6503906 136.446289,69.8964844 C136.647461,70.1425781 136.748047,70.515625 136.748047,71.015625 L136.748047,71.015625 L136.748047,75 L138.130859,75 L138.130859,70.7753906 C138.130859,69.1933594 137.353516,68.4023438 135.798828,68.4023438 C135.361328,68.4023438 134.962891,68.4863281 134.603516,68.6542969 C134.244141,68.8222656 133.966797,69.0605469 133.771484,69.3691406 L133.771484,69.3691406 L133.701172,69.3691406 L133.507812,68.5195312 L132.429688,68.5195312 L132.429688,75 L133.806641,75 Z M96.6816406,79.5585938 C96.9238281,79.5585938 97.1123047,79.4912109 97.2470703,79.3564453 C97.3818359,79.2216797 97.4492188,79.0371094 97.4492188,78.8027344 C97.4492188,78.5566406 97.3818359,78.3671875 97.2470703,78.234375 C97.1123047,78.1015625 96.9238281,78.0351562 96.6816406,78.0351562 C96.4316406,78.0351562 96.2392578,78.1015625 96.1044922,78.234375 C95.9697266,78.3671875 95.9023438,78.5566406 95.9023438,78.8027344 C95.9023438,79.0371094 95.9697266,79.2216797 96.1044922,79.3564453 C96.2392578,79.4912109 96.4316406,79.5585938 96.6816406,79.5585938 Z M97.3613281,87 L97.3613281,80.5195312 L95.984375,80.5195312 L95.984375,87 L97.3613281,87 Z M101,87 L101,81.5625 L102.582031,81.5625 L102.582031,80.5195312 L101,80.5195312 L101,80.0976562 C101,79.7109375 101.071289,79.4208984 101.213867,79.2275391 C101.356445,79.0341797 101.583984,78.9375 101.896484,78.9375 C102.205078,78.9375 102.529297,78.9921875 102.869141,79.1015625 L102.869141,79.1015625 L103.232422,78.0585938 C102.763672,77.8984375 102.287109,77.8183594 101.802734,77.8183594 C101.064453,77.8183594 100.515625,78.0029297 100.15625,78.3720703 C99.796875,78.7412109 99.6171875,79.3085938 99.6171875,80.0742188 L99.6171875,80.0742188 L99.6171875,80.4960938 L98.5507812,80.9179688 L98.5507812,81.5625 L99.6171875,81.5625 L99.6171875,87 L101,87 Z M104.345703,87.1699219 C104.626953,87.1699219 104.842773,87.0888672 104.993164,86.9267578 C105.143555,86.7646484 105.21875,86.5449219 105.21875,86.2675781 C105.21875,85.9941406 105.144531,85.7783203 104.996094,85.6201172 C104.847656,85.4619141 104.630859,85.3828125 104.345703,85.3828125 C104.064453,85.3828125 103.849609,85.4589844 103.701172,85.6113281 C103.552734,85.7636719 103.478516,85.9824219 103.478516,86.2675781 C103.478516,86.5488281 103.552734,86.7695312 103.701172,86.9296875 C103.849609,87.0898438 104.064453,87.1699219 104.345703,87.1699219 Z M107.609375,87.1699219 C107.890625,87.1699219 108.106445,87.0888672 108.256836,86.9267578 C108.407227,86.7646484 108.482422,86.5449219 108.482422,86.2675781 C108.482422,85.9941406 108.408203,85.7783203 108.259766,85.6201172 C108.111328,85.4619141 107.894531,85.3828125 107.609375,85.3828125 C107.328125,85.3828125 107.113281,85.4589844 106.964844,85.6113281 C106.816406,85.7636719 106.742188,85.9824219 106.742188,86.2675781 C106.742188,86.5488281 106.816406,86.7695312 106.964844,86.9296875 C107.113281,87.0898438 107.328125,87.1699219 107.609375,87.1699219 Z M110.873047,87.1699219 C111.154297,87.1699219 111.370117,87.0888672 111.520508,86.9267578 C111.670898,86.7646484 111.746094,86.5449219 111.746094,86.2675781 C111.746094,85.9941406 111.671875,85.7783203 111.523438,85.6201172 C111.375,85.4619141 111.158203,85.3828125 110.873047,85.3828125 C110.591797,85.3828125 110.376953,85.4589844 110.228516,85.6113281 C110.080078,85.7636719 110.005859,85.9824219 110.005859,86.2675781 C110.005859,86.5488281 110.080078,86.7695312 110.228516,86.9296875 C110.376953,87.0898438 110.591797,87.1699219 110.873047,87.1699219 Z M115.332031,84.3984375 L115.332031,84.1347656 C115.332031,83.8183594 115.393555,83.5664062 115.516602,83.3789062 C115.639648,83.1914062 115.882812,82.9550781 116.246094,82.6699219 C116.671875,82.3378906 116.97168,82.0683594 117.145508,81.8613281 C117.319336,81.6542969 117.449219,81.4365234 117.535156,81.2080078 C117.621094,80.9794922 117.664062,80.71875 117.664062,80.4257812 C117.664062,79.765625 117.439453,79.2480469 116.990234,78.8730469 C116.541016,78.4980469 115.933594,78.3105469 115.167969,78.3105469 C114.261719,78.3105469 113.412109,78.53125 112.619141,78.9726562 L112.619141,78.9726562 L113.111328,80.0039062 C113.412109,79.8554688 113.720703,79.7285156 114.037109,79.6230469 C114.353516,79.5175781 114.697266,79.4648438 115.068359,79.4648438 C115.478516,79.4648438 115.792969,79.5527344 116.011719,79.7285156 C116.230469,79.9042969 116.339844,80.15625 116.339844,80.484375 C116.339844,80.765625 116.272461,81.0078125 116.137695,81.2109375 C116.00293,81.4140625 115.703125,81.6992188 115.238281,82.0664062 C114.847656,82.3710938 114.574219,82.6660156 114.417969,82.9511719 C114.261719,83.2363281 114.183594,83.59375 114.183594,84.0234375 L114.183594,84.0234375 L114.183594,84.3984375 L115.332031,84.3984375 Z M114.804688,87.1699219 C115.082031,87.1699219 115.295898,87.0888672 115.446289,86.9267578 C115.59668,86.7646484 115.671875,86.5449219 115.671875,86.2675781 C115.671875,85.9863281 115.597656,85.7685547 115.449219,85.6142578 C115.300781,85.4599609 115.085938,85.3828125 114.804688,85.3828125 C114.230469,85.3828125 113.943359,85.6777344 113.943359,86.2675781 C113.943359,86.5527344 114.017578,86.7744141 114.166016,86.9326172 C114.314453,87.0908203 114.527344,87.1699219 114.804688,87.1699219 Z" id="Whatwouldhappenif…?" fill="#FFFFFF" fill-rule="nonzero"></path>
            </g>
        </g>
    </g>
</svg>