<?xml version="1.0" encoding="UTF-8"?>
<svg width="163px" height="97px" viewBox="0 0 163 97" version="1.1" xmlns="http://www.w3.org/2000/svg" xmlns:xlink="http://www.w3.org/1999/xlink">
    <!-- Generator: Sketch 62 (91390) - https://sketch.com -->
    <title>Identify</title>
    <desc>Created with Sketch.</desc>
    <defs>
        <radialGradient cx="29.3815106%" cy="60.2791013%" fx="29.3815106%" fy="60.2791013%" r="39.7208987%" gradientTransform="translate(0.293815,0.602791),scale(0.586896,1.000000),rotate(90.000000),translate(-0.293815,-0.602791)" id="radialGradient-1">
            <stop stop-color="#31CEBB" offset="0%"></stop>
            <stop stop-color="#16A085" offset="100%"></stop>
        </radialGradient>
        <path d="M3.796875,16 L3.796875,3.15039062 L1.69628906,3.15039062 L1.69628906,16 L3.796875,16 Z M10.2480469,16.1757812 C11.5253906,16.1757812 12.4951172,15.6923828 13.1572266,14.7255859 L13.1572266,14.7255859 L13.2539062,14.7255859 L13.6142578,16 L15.2314453,16 L15.2314453,2.32421875 L13.1572266,2.32421875 L13.1572266,5.86621094 C13.1572266,6.27050781 13.2070312,6.82128906 13.3066406,7.51855469 L13.3066406,7.51855469 L13.2011719,7.51855469 C12.5332031,6.57519531 11.5605469,6.10351562 10.2832031,6.10351562 C9.06445312,6.10351562 8.11083984,6.54736328 7.42236328,7.43505859 C6.73388672,8.32275391 6.38964844,9.56347656 6.38964844,11.1572266 C6.38964844,12.7451172 6.72949219,13.9785156 7.40917969,14.8574219 C8.08886719,15.7363281 9.03515625,16.1757812 10.2480469,16.1757812 Z M10.8017578,14.5058594 C10.0400391,14.5058594 9.46875,14.2231445 9.08789062,13.6577148 C8.70703125,13.0922852 8.51660156,12.2705078 8.51660156,11.1923828 C8.51660156,10.1025391 8.71289062,9.26318359 9.10546875,8.67431641 C9.49804688,8.08544922 10.0576172,7.79101562 10.7841797,7.79101562 C11.6337891,7.79101562 12.2578125,8.04882812 12.65625,8.56445312 C13.0546875,9.08007812 13.2539062,9.95019531 13.2539062,11.1748047 L13.2539062,11.1748047 L13.2539062,11.4648438 C13.2421875,12.5371094 13.0429688,13.3120117 12.65625,13.7895508 C12.2695312,14.2670898 11.6513672,14.5058594 10.8017578,14.5058594 Z M22.4296875,16.1757812 C23.0917969,16.1757812 23.6806641,16.1259766 24.1962891,16.0263672 C24.7119141,15.9267578 25.2216797,15.7568359 25.7255859,15.5166016 L25.7255859,15.5166016 L25.7255859,13.8378906 C25.1572266,14.0898438 24.6254883,14.2700195 24.1303711,14.378418 C23.6352539,14.4868164 23.1005859,14.5410156 22.5263672,14.5410156 C21.6533203,14.5410156 20.9765625,14.2875977 20.4960938,13.7807617 C20.015625,13.2739258 19.7607422,12.5488281 19.7314453,11.6054688 L19.7314453,11.6054688 L26.2089844,11.6054688 L26.2089844,10.4892578 C26.2089844,9.12402344 25.8369141,8.05175781 25.0927734,7.27246094 C24.3486328,6.49316406 23.3349609,6.10351562 22.0517578,6.10351562 C20.6689453,6.10351562 19.5820312,6.55761719 18.7910156,7.46582031 C18,8.37402344 17.6044922,9.62207031 17.6044922,11.2099609 C17.6044922,12.7568359 18.0307617,13.9711914 18.8833008,14.8530273 C19.7358398,15.7348633 20.9179688,16.1757812 22.4296875,16.1757812 Z M24.1787109,10.1113281 L19.7666016,10.1113281 C19.8427734,9.31445312 20.0786133,8.70800781 20.4741211,8.29199219 C20.8696289,7.87597656 21.3955078,7.66796875 22.0517578,7.66796875 C22.7080078,7.66796875 23.2236328,7.87451172 23.5986328,8.28759766 C23.9736328,8.70068359 24.1669922,9.30859375 24.1787109,10.1113281 L24.1787109,10.1113281 Z M30.6210938,16 L30.6210938,11.1572266 C30.6210938,9.94433594 30.8232422,9.08007812 31.2275391,8.56445312 C31.6318359,8.04882812 32.2705078,7.79101562 33.1435547,7.79101562 C33.7998047,7.79101562 34.2788086,7.97558594 34.5805664,8.34472656 C34.8823242,8.71386719 35.0332031,9.2734375 35.0332031,10.0234375 L35.0332031,10.0234375 L35.0332031,16 L37.1074219,16 L37.1074219,9.66308594 C37.1074219,7.29003906 35.9414062,6.10351562 33.609375,6.10351562 C32.953125,6.10351562 32.3554688,6.22949219 31.8164062,6.48144531 C31.2773438,6.73339844 30.8613281,7.09082031 30.5683594,7.55371094 L30.5683594,7.55371094 L30.4628906,7.55371094 L30.1728516,6.27929688 L28.5556641,6.27929688 L28.5556641,16 L30.6210938,16 Z M43.1103516,16.1757812 C43.4970703,16.1757812 43.8706055,16.1420898 44.230957,16.074707 C44.5913086,16.0073242 44.8857422,15.9238281 45.1142578,15.8242188 L45.1142578,15.8242188 L45.1142578,14.2685547 C44.6103516,14.4267578 44.1064453,14.5058594 43.6025391,14.5058594 C43.1982422,14.5058594 42.871582,14.387207 42.6225586,14.1499023 C42.3735352,13.9125977 42.2490234,13.5449219 42.2490234,13.046875 L42.2490234,13.046875 L42.2490234,7.84375 L45.0175781,7.84375 L45.0175781,6.27929688 L42.2490234,6.27929688 L42.2490234,4.1171875 L40.9746094,4.1171875 L40.2714844,6.17382812 L38.8476562,6.9296875 L38.8476562,7.84375 L40.1748047,7.84375 L40.1748047,13.0820312 C40.1748047,15.1445312 41.1533203,16.1757812 43.1103516,16.1757812 Z M48.1025391,4.83789062 C48.4658203,4.83789062 48.7485352,4.73681641 48.9506836,4.53466797 C49.152832,4.33251953 49.2539062,4.05566406 49.2539062,3.70410156 C49.2539062,3.33496094 49.152832,3.05078125 48.9506836,2.8515625 C48.7485352,2.65234375 48.4658203,2.55273438 48.1025391,2.55273438 C47.7275391,2.55273438 47.4389648,2.65234375 47.2368164,2.8515625 C47.034668,3.05078125 46.9335938,3.33496094 46.9335938,3.70410156 C46.9335938,4.05566406 47.034668,4.33251953 47.2368164,4.53466797 C47.4389648,4.73681641 47.7275391,4.83789062 48.1025391,4.83789062 Z M49.1220703,16 L49.1220703,6.27929688 L47.0566406,6.27929688 L47.0566406,16 L49.1220703,16 Z M54.5800781,16 L54.5800781,7.84375 L56.953125,7.84375 L56.953125,6.27929688 L54.5800781,6.27929688 L54.5800781,5.64648438 C54.5800781,5.06640625 54.6870117,4.63134766 54.9008789,4.34130859 C55.1147461,4.05126953 55.4560547,3.90625 55.9248047,3.90625 C56.3876953,3.90625 56.8740234,3.98828125 57.3837891,4.15234375 L57.3837891,4.15234375 L57.9287109,2.58789062 C57.2255859,2.34765625 56.5107422,2.22753906 55.7841797,2.22753906 C54.6767578,2.22753906 53.8535156,2.50439453 53.3144531,3.05810547 C52.7753906,3.61181641 52.5058594,4.46289062 52.5058594,5.61132812 L52.5058594,5.61132812 L52.5058594,6.24414062 L50.90625,6.87695312 L50.90625,7.84375 L52.5058594,7.84375 L52.5058594,16 L54.5800781,16 Z M58.8427734,20.3242188 C60.6064453,20.3242188 61.8662109,19.3134766 62.6220703,17.2919922 L62.6220703,17.2919922 L66.7792969,6.27929688 L64.546875,6.27929688 C63.1992188,10.1875 62.4550781,12.371582 62.3144531,12.831543 C62.1738281,13.2915039 62.0771484,13.6826172 62.0244141,14.0048828 L62.0244141,14.0048828 L61.9541016,14.0048828 C61.8544922,13.3134766 61.6552734,12.5751953 61.3564453,11.7900391 L61.3564453,11.7900391 L59.3789062,6.27929688 L57.1289062,6.27929688 L61.03125,16 L60.6708984,16.9140625 C60.2666016,18.0683594 59.5664062,18.6455078 58.5703125,18.6455078 C58.171875,18.6455078 57.8173828,18.6103516 57.5068359,18.5400391 L57.5068359,18.5400391 L57.5068359,20.1748047 C57.9404297,20.2744141 58.3857422,20.3242188 58.8427734,20.3242188 Z" id="path-2"></path>
    </defs>
    <g id="Symbols" stroke="none" stroke-width="1" fill="none" fill-rule="evenodd">
        <g id="i/Identify">
            <g id="Identify">
                <g id="Group-4">
                    <g id="Group-27">
                        <g id="Group-26">
                            <g id="Identify">
                                <g id="Group-5">
                                    <g>
                                        <g>
                                            <g id="Group-2">
                                                <g id="Group-3" transform="translate(0.000000, 0.451163)">
                                                    <rect id="Rectangle-2" fill="url(#radialGradient-1)" x="0" y="0" width="163" height="95.6640325" rx="6"></rect>
                                                    <line x1="73.5197917" y1="41.9832041" x2="73.5197917" y2="87.7260982" id="Line-3" stroke="#FFFFFF" stroke-width="2" stroke-linecap="square"></line>
                                                </g>
                                                <path d="M30.5059028,48.7005168 C29.4119162,48.7005168 28.525,49.682463 28.525,50.8936664 C28.525,52.1049429 29.4119162,53.086816 30.5059028,53.086816 C31.5998894,53.086816 32.4868056,52.1049429 32.4868056,50.8936664 C32.4868056,49.682463 31.5998894,48.7005168 30.5059028,48.7005168 Z M38.4295139,50.1626165 L38.4295139,51.6247163 L56.2576389,51.6247163 L56.2576389,50.1626165 L38.4295139,50.1626165 Z M30.5059028,60.3972928 C29.4119162,60.3972928 28.525,61.379239 28.525,62.5904424 C28.525,63.8017189 29.4119162,64.783592 30.5059028,64.783592 C31.5998894,64.783592 32.4868056,63.8017189 32.4868056,62.5904424 C32.4868056,61.379239 31.5998894,60.3972928 30.5059028,60.3972928 Z M38.4295139,61.8593925 L38.4295139,63.3214923 L56.2576389,63.3214923 L56.2576389,61.8593925 L38.4295139,61.8593925 Z M30.5059028,72.0941638 C29.4119162,72.0941638 28.525,73.07611 28.525,74.2873134 C28.525,75.49859 29.4119162,76.4804631 30.5059028,76.4804631 C31.5998894,76.4804631 32.4868056,75.49859 32.4868056,74.2873134 C32.4868056,73.07611 31.5998894,72.0941638 30.5059028,72.0941638 Z M38.4295139,73.5562636 L38.4295139,75.0183633 L56.2576389,75.0183633 L56.2576389,73.5562636 L38.4295139,73.5562636 Z" id="Shape" fill="#FFFFFF" fill-rule="nonzero"></path>
                                                <g id="noun_641016_FFFFFF" transform="translate(27.166667, 44.940827)"></g>
                                            </g>
                                        </g>
                                    </g>
                                </g>
                            </g>
                        </g>
                    </g>
                    <path d="M88.6713867,54 L88.6713867,52.6987305 L84.7421875,52.6987305 L84.7421875,44.7197266 L83.2250977,44.7197266 L83.2250977,54 L88.6713867,54 Z M90.8676758,45.9384766 C91.1300456,45.9384766 91.3342285,45.8654785 91.4802246,45.7194824 C91.6262207,45.5734863 91.6992188,45.3735352 91.6992188,45.1196289 C91.6992188,44.8530273 91.6262207,44.6477865 91.4802246,44.5039062 C91.3342285,44.360026 91.1300456,44.2880859 90.8676758,44.2880859 C90.5968424,44.2880859 90.3884277,44.360026 90.2424316,44.5039062 C90.0964355,44.6477865 90.0234375,44.8530273 90.0234375,45.1196289 C90.0234375,45.3735352 90.0964355,45.5734863 90.2424316,45.7194824 C90.3884277,45.8654785 90.5968424,45.9384766 90.8676758,45.9384766 Z M91.6040039,54 L91.6040039,46.9794922 L90.1123047,46.9794922 L90.1123047,54 L91.6040039,54 Z M95.5585938,54.1269531 C96.4895833,54.1269531 97.2047526,53.943929 97.7041016,53.5778809 C98.2034505,53.2118327 98.453125,52.6860352 98.453125,52.0004883 C98.453125,51.6619466 98.3896484,51.3710124 98.2626953,51.1276855 C98.1357422,50.8843587 97.9410807,50.6695964 97.6787109,50.4833984 C97.4163411,50.2972005 96.9952799,50.0919596 96.4155273,49.8676758 C95.7257487,49.6010742 95.2782389,49.3916016 95.072998,49.2392578 C94.8677572,49.0869141 94.7651367,48.9007161 94.7651367,48.6806641 C94.7651367,48.2320964 95.1586914,48.0078125 95.9458008,48.0078125 C96.4620768,48.0078125 97.0989583,48.164388 97.8564453,48.4775391 L97.8564453,48.4775391 L98.3388672,47.3540039 C97.6025391,47.019694 96.8217773,46.8525391 95.996582,46.8525391 C95.1629232,46.8525391 94.5038249,47.0186361 94.0192871,47.3508301 C93.5347493,47.6830241 93.2924805,48.1495768 93.2924805,48.7504883 C93.2924805,49.2498372 93.4353027,49.6560872 93.7209473,49.9692383 C94.0065918,50.2823893 94.5535482,50.5955404 95.3618164,50.9086914 C95.7765299,51.0694987 96.1002604,51.2133789 96.3330078,51.340332 C96.5657552,51.4672852 96.7329102,51.5900065 96.8344727,51.7084961 C96.9360352,51.8269857 96.9868164,51.9750977 96.9868164,52.152832 C96.9868164,52.707194 96.5276693,52.984375 95.609375,52.984375 C94.8984375,52.984375 94.1303711,52.7939453 93.3051758,52.4130859 L93.3051758,52.4130859 L93.3051758,53.7016602 C93.8722331,53.9851888 94.6233724,54.1269531 95.5585938,54.1269531 Z M102.325195,54.1269531 C102.604492,54.1269531 102.874268,54.1026204 103.134521,54.0539551 C103.394775,54.0052897 103.607422,53.944987 103.772461,53.8730469 L103.772461,53.8730469 L103.772461,52.7495117 C103.408529,52.8637695 103.044596,52.9208984 102.680664,52.9208984 C102.388672,52.9208984 102.152751,52.8352051 101.9729,52.6638184 C101.79305,52.4924316 101.703125,52.226888 101.703125,51.8671875 L101.703125,51.8671875 L101.703125,48.109375 L103.702637,48.109375 L103.702637,46.9794922 L101.703125,46.9794922 L101.703125,45.4179688 L100.782715,45.4179688 L100.274902,46.9033203 L99.246582,47.4492188 L99.246582,48.109375 L100.205078,48.109375 L100.205078,51.8925781 C100.205078,53.3821615 100.911784,54.1269531 102.325195,54.1269531 Z M110.812012,54.1269531 C111.091309,54.1269531 111.361084,54.1026204 111.621338,54.0539551 C111.881592,54.0052897 112.094238,53.944987 112.259277,53.8730469 L112.259277,53.8730469 L112.259277,52.7495117 C111.895345,52.8637695 111.531413,52.9208984 111.16748,52.9208984 C110.875488,52.9208984 110.639567,52.8352051 110.459717,52.6638184 C110.279867,52.4924316 110.189941,52.226888 110.189941,51.8671875 L110.189941,51.8671875 L110.189941,48.109375 L112.189453,48.109375 L112.189453,46.9794922 L110.189941,46.9794922 L110.189941,45.4179688 L109.269531,45.4179688 L108.761719,46.9033203 L107.733398,47.4492188 L107.733398,48.109375 L108.691895,48.109375 L108.691895,51.8925781 C108.691895,53.3821615 109.3986,54.1269531 110.812012,54.1269531 Z M115.153809,54 L115.153809,50.5151367 C115.153809,49.6349284 115.300863,49.0075684 115.594971,48.6330566 C115.889079,48.2585449 116.349284,48.0712891 116.975586,48.0712891 C117.449544,48.0712891 117.795492,48.2045898 118.013428,48.4711914 C118.231364,48.737793 118.340332,49.1419271 118.340332,49.6835938 L118.340332,49.6835938 L118.340332,54 L119.838379,54 L119.838379,49.4233398 C119.838379,47.7094727 118.987793,46.8525391 117.286621,46.8525391 C116.804199,46.8525391 116.38208,46.945638 116.020264,47.1318359 C115.658447,47.3180339 115.375977,47.5804036 115.172852,47.9189453 L115.172852,47.9189453 L115.077637,47.9189453 C115.128418,47.4619141 115.153809,47.0323893 115.153809,46.6303711 L115.153809,46.6303711 L115.153809,44.1230469 L113.662109,44.1230469 L113.662109,54 L115.153809,54 Z M124.97998,54.1269531 C125.458171,54.1269531 125.883464,54.0909831 126.255859,54.019043 C126.628255,53.9471029 126.996419,53.8243815 127.360352,53.6508789 L127.360352,53.6508789 L127.360352,52.4384766 C126.94987,52.6204427 126.565837,52.7505697 126.208252,52.8288574 C125.850667,52.9071452 125.464518,52.9462891 125.049805,52.9462891 C124.419271,52.9462891 123.930501,52.763265 123.583496,52.3972168 C123.236491,52.0311686 123.052409,51.507487 123.03125,50.8261719 L123.03125,50.8261719 L127.709473,50.8261719 L127.709473,50.0200195 C127.709473,49.0340169 127.440755,48.2596029 126.90332,47.6967773 C126.365885,47.1339518 125.633789,46.8525391 124.707031,46.8525391 C123.708333,46.8525391 122.92334,47.1805013 122.352051,47.8364258 C121.780762,48.4923503 121.495117,49.3937174 121.495117,50.5405273 C121.495117,51.6577148 121.802979,52.5347493 122.418701,53.1716309 C123.034424,53.8085124 123.888184,54.1269531 124.97998,54.1269531 Z M126.243164,49.7470703 L123.056641,49.7470703 C123.111654,49.1715495 123.281982,48.7335612 123.567627,48.4331055 C123.853271,48.1326497 124.233073,47.9824219 124.707031,47.9824219 C125.18099,47.9824219 125.553385,48.1315918 125.824219,48.4299316 C126.095052,48.7282715 126.234701,49.1673177 126.243164,49.7470703 L126.243164,49.7470703 Z M83.8217773,57.9384766 C84.0841471,57.9384766 84.2883301,57.8654785 84.4343262,57.7194824 C84.5803223,57.5734863 84.6533203,57.3735352 84.6533203,57.1196289 C84.6533203,56.8530273 84.5803223,56.6477865 84.4343262,56.5039062 C84.2883301,56.360026 84.0841471,56.2880859 83.8217773,56.2880859 C83.550944,56.2880859 83.3425293,56.360026 83.1965332,56.5039062 C83.0505371,56.6477865 82.9775391,56.8530273 82.9775391,57.1196289 C82.9775391,57.3735352 83.0505371,57.5734863 83.1965332,57.7194824 C83.3425293,57.8654785 83.550944,57.9384766 83.8217773,57.9384766 Z M84.5581055,66 L84.5581055,58.9794922 L83.0664062,58.9794922 L83.0664062,66 L84.5581055,66 Z M88.1826172,66 L88.1826172,62.5024414 C88.1826172,61.6264648 88.3286133,61.0022786 88.6206055,60.6298828 C88.9125977,60.257487 89.3738607,60.0712891 90.0043945,60.0712891 C90.4783529,60.0712891 90.8243001,60.2045898 91.0422363,60.4711914 C91.2601725,60.737793 91.3691406,61.1419271 91.3691406,61.6835938 L91.3691406,61.6835938 L91.3691406,66 L92.8671875,66 L92.8671875,61.4233398 C92.8671875,59.7094727 92.0250651,58.8525391 90.3408203,58.8525391 C89.866862,58.8525391 89.4352214,58.9435221 89.0458984,59.1254883 C88.6565755,59.3074544 88.3561198,59.5655924 88.1445312,59.8999023 L88.1445312,59.8999023 L88.0683594,59.8999023 L87.8588867,58.9794922 L86.690918,58.9794922 L86.690918,66 L88.1826172,66 Z M96.7519531,66 L96.7519531,60.109375 L98.4658203,60.109375 L98.4658203,58.9794922 L96.7519531,58.9794922 L96.7519531,58.5224609 C96.7519531,58.1035156 96.8291829,57.7893066 96.9836426,57.579834 C97.1381022,57.3703613 97.3846029,57.265625 97.7231445,57.265625 C98.0574544,57.265625 98.4086914,57.3248698 98.7768555,57.4433594 L98.7768555,57.4433594 L99.1704102,56.3134766 C98.6625977,56.139974 98.1463216,56.0532227 97.621582,56.0532227 C96.8217773,56.0532227 96.2272135,56.2531738 95.8378906,56.6530762 C95.4485677,57.0529785 95.2539062,57.6676432 95.2539062,58.4970703 L95.2539062,58.4970703 L95.2539062,58.9541016 L94.0986328,59.4111328 L94.0986328,60.109375 L95.2539062,60.109375 L95.2539062,66 L96.7519531,66 Z M102.547363,66.1269531 C103.596842,66.1269531 104.41569,65.8053385 105.003906,65.1621094 C105.592122,64.5188802 105.88623,63.6238607 105.88623,62.4770508 C105.88623,61.3683268 105.590007,60.4870605 104.997559,59.833252 C104.405111,59.1794434 103.601074,58.8525391 102.585449,58.8525391 C101.523275,58.8525391 100.700195,59.1720378 100.116211,59.8110352 C99.5322266,60.4500326 99.2402344,61.3387044 99.2402344,62.4770508 C99.2402344,63.2091471 99.375651,63.8523763 99.6464844,64.4067383 C99.9173177,64.9611003 100.304525,65.3863932 100.808105,65.6826172 C101.311686,65.9788411 101.891439,66.1269531 102.547363,66.1269531 Z M102.572754,64.9082031 C101.375163,64.9082031 100.776367,64.097819 100.776367,62.4770508 C100.776367,61.7026367 100.917074,61.1080729 101.198486,60.6933594 C101.479899,60.2786458 101.933757,60.0712891 102.560059,60.0712891 C103.753418,60.0712891 104.350098,60.8732096 104.350098,62.4770508 C104.350098,64.097819 103.75765,64.9082031 102.572754,64.9082031 Z M109.091797,66 L109.091797,62.3310547 C109.091797,61.7089844 109.276937,61.2032878 109.647217,60.8139648 C110.017497,60.4246419 110.500977,60.2299805 111.097656,60.2299805 C111.326172,60.2299805 111.546224,60.2553711 111.757812,60.3061523 L111.757812,60.3061523 L111.903809,58.9160156 C111.709147,58.8736979 111.461589,58.8525391 111.161133,58.8525391 C110.729492,58.8525391 110.326416,58.9752604 109.951904,59.2207031 C109.577393,59.4661458 109.273763,59.7983398 109.041016,60.2172852 L109.041016,60.2172852 L108.964844,60.2172852 L108.768066,58.9794922 L107.600098,58.9794922 L107.600098,66 L109.091797,66 Z M114.696777,66 L114.696777,62.5024414 C114.696777,61.6306966 114.831136,61.0075684 115.099854,60.6330566 C115.368571,60.2585449 115.79069,60.0712891 116.366211,60.0712891 C116.797852,60.0712891 117.115234,60.2035319 117.318359,60.4680176 C117.521484,60.7325033 117.623047,61.1334635 117.623047,61.6708984 L117.623047,61.6708984 L117.623047,66 L119.121094,66 L119.121094,62.2802734 C119.121094,61.53125 119.255452,60.9758301 119.52417,60.6140137 C119.792887,60.2521973 120.217122,60.0712891 120.796875,60.0712891 C121.228516,60.0712891 121.546956,60.2035319 121.752197,60.4680176 C121.957438,60.7325033 122.060059,61.1334635 122.060059,61.6708984 L122.060059,61.6708984 L122.060059,66 L123.551758,66 L123.551758,61.4233398 C123.551758,60.5558268 123.36027,59.9104818 122.977295,59.4873047 C122.59432,59.0641276 121.983887,58.8525391 121.145996,58.8525391 C120.659342,58.8525391 120.227702,58.9498698 119.851074,59.1445312 C119.474447,59.3391927 119.182454,59.610026 118.975098,59.9570312 L118.975098,59.9570312 L118.873535,59.9570312 C118.522298,59.2207031 117.807129,58.8525391 116.728027,58.8525391 C116.283691,58.8525391 115.876383,58.9435221 115.506104,59.1254883 C115.135824,59.3074544 114.853353,59.5655924 114.658691,59.8999023 L114.658691,59.8999023 L114.58252,59.8999023 L114.373047,58.9794922 L113.205078,58.9794922 L113.205078,66 L114.696777,66 Z M127.334961,66.1269531 C127.872396,66.1269531 128.3125,66.0497233 128.655273,65.8952637 C128.998047,65.740804 129.338704,65.4498698 129.677246,65.0224609 L129.677246,65.0224609 L129.728027,65.0224609 L130.026367,66 L131.092773,66 L131.092773,61.2709961 C131.092773,60.4373372 130.865316,59.8258464 130.4104,59.4365234 C129.955485,59.0472005 129.281576,58.8525391 128.388672,58.8525391 C127.986654,58.8525391 127.559245,58.9043783 127.106445,59.0080566 C126.653646,59.111735 126.236816,59.2630208 125.855957,59.4619141 L125.855957,59.4619141 L126.338379,60.5283203 C126.643066,60.3844401 126.960449,60.2596029 127.290527,60.1538086 C127.620605,60.0480143 127.965495,59.9951172 128.325195,59.9951172 C128.765299,59.9951172 129.090088,60.1062012 129.299561,60.3283691 C129.509033,60.5505371 129.61377,60.8859049 129.61377,61.3344727 L129.61377,61.3344727 L129.61377,61.7089844 L128.401367,61.7470703 C127.301107,61.7809245 126.482259,61.9819336 125.944824,62.3500977 C125.407389,62.7182617 125.138672,63.2641602 125.138672,63.987793 C125.138672,64.6691081 125.332275,65.1959635 125.719482,65.5683594 C126.106689,65.9407552 126.645182,66.1269531 127.334961,66.1269531 Z M127.804688,64.984375 C127.432292,64.984375 127.152995,64.8986816 126.966797,64.7272949 C126.780599,64.5559082 126.6875,64.3136393 126.6875,64.0004883 C126.6875,63.5688477 126.847249,63.248291 127.166748,63.0388184 C127.486247,62.8293457 127.997233,62.7119141 128.699707,62.6865234 L128.699707,62.6865234 L129.601074,62.6484375 L129.601074,63.2578125 C129.601074,63.8037109 129.437093,64.227946 129.109131,64.5305176 C128.781169,64.8330892 128.346354,64.984375 127.804688,64.984375 Z M135.43457,66.1269531 C135.713867,66.1269531 135.983643,66.1026204 136.243896,66.0539551 C136.50415,66.0052897 136.716797,65.944987 136.881836,65.8730469 L136.881836,65.8730469 L136.881836,64.7495117 C136.517904,64.8637695 136.153971,64.9208984 135.790039,64.9208984 C135.498047,64.9208984 135.262126,64.8352051 135.082275,64.6638184 C134.902425,64.4924316 134.8125,64.226888 134.8125,63.8671875 L134.8125,63.8671875 L134.8125,60.109375 L136.812012,60.109375 L136.812012,58.9794922 L134.8125,58.9794922 L134.8125,57.4179688 L133.89209,57.4179688 L133.384277,58.9033203 L132.355957,59.4492188 L132.355957,60.109375 L133.314453,60.109375 L133.314453,63.8925781 C133.314453,65.3821615 134.021159,66.1269531 135.43457,66.1269531 Z M139.040039,57.9384766 C139.302409,57.9384766 139.506592,57.8654785 139.652588,57.7194824 C139.798584,57.5734863 139.871582,57.3735352 139.871582,57.1196289 C139.871582,56.8530273 139.798584,56.6477865 139.652588,56.5039062 C139.506592,56.360026 139.302409,56.2880859 139.040039,56.2880859 C138.769206,56.2880859 138.560791,56.360026 138.414795,56.5039062 C138.268799,56.6477865 138.195801,56.8530273 138.195801,57.1196289 C138.195801,57.3735352 138.268799,57.5734863 138.414795,57.7194824 C138.560791,57.8654785 138.769206,57.9384766 139.040039,57.9384766 Z M139.776367,66 L139.776367,58.9794922 L138.284668,58.9794922 L138.284668,66 L139.776367,66 Z M144.797363,66.1269531 C145.846842,66.1269531 146.66569,65.8053385 147.253906,65.1621094 C147.842122,64.5188802 148.13623,63.6238607 148.13623,62.4770508 C148.13623,61.3683268 147.840007,60.4870605 147.247559,59.833252 C146.655111,59.1794434 145.851074,58.8525391 144.835449,58.8525391 C143.773275,58.8525391 142.950195,59.1720378 142.366211,59.8110352 C141.782227,60.4500326 141.490234,61.3387044 141.490234,62.4770508 C141.490234,63.2091471 141.625651,63.8523763 141.896484,64.4067383 C142.167318,64.9611003 142.554525,65.3863932 143.058105,65.6826172 C143.561686,65.9788411 144.141439,66.1269531 144.797363,66.1269531 Z M144.822754,64.9082031 C143.625163,64.9082031 143.026367,64.097819 143.026367,62.4770508 C143.026367,61.7026367 143.167074,61.1080729 143.448486,60.6933594 C143.729899,60.2786458 144.183757,60.0712891 144.810059,60.0712891 C146.003418,60.0712891 146.600098,60.8732096 146.600098,62.4770508 C146.600098,64.097819 146.00765,64.9082031 144.822754,64.9082031 Z M151.341797,66 L151.341797,62.5024414 C151.341797,61.6264648 151.487793,61.0022786 151.779785,60.6298828 C152.071777,60.257487 152.53304,60.0712891 153.163574,60.0712891 C153.637533,60.0712891 153.98348,60.2045898 154.201416,60.4711914 C154.419352,60.737793 154.52832,61.1419271 154.52832,61.6835938 L154.52832,61.6835938 L154.52832,66 L156.026367,66 L156.026367,61.4233398 C156.026367,59.7094727 155.184245,58.8525391 153.5,58.8525391 C153.026042,58.8525391 152.594401,58.9435221 152.205078,59.1254883 C151.815755,59.3074544 151.515299,59.5655924 151.303711,59.8999023 L151.303711,59.8999023 L151.227539,59.8999023 L151.018066,58.9794922 L149.850098,58.9794922 L149.850098,66 L151.341797,66 Z M85.3261719,78.1269531 C85.6054688,78.1269531 85.8752441,78.1026204 86.135498,78.0539551 C86.395752,78.0052897 86.6083984,77.944987 86.7734375,77.8730469 L86.7734375,77.8730469 L86.7734375,76.7495117 C86.4095052,76.8637695 86.0455729,76.9208984 85.6816406,76.9208984 C85.3896484,76.9208984 85.1537272,76.8352051 84.973877,76.6638184 C84.7940267,76.4924316 84.7041016,76.226888 84.7041016,75.8671875 L84.7041016,75.8671875 L84.7041016,72.109375 L86.7036133,72.109375 L86.7036133,70.9794922 L84.7041016,70.9794922 L84.7041016,69.4179688 L83.7836914,69.4179688 L83.2758789,70.9033203 L82.2475586,71.4492188 L82.2475586,72.109375 L83.2060547,72.109375 L83.2060547,75.8925781 C83.2060547,77.3821615 83.9127604,78.1269531 85.3261719,78.1269531 Z M91.0644531,78.1269531 C92.1139323,78.1269531 92.9327799,77.8053385 93.5209961,77.1621094 C94.1092122,76.5188802 94.4033203,75.6238607 94.4033203,74.4770508 C94.4033203,73.3683268 94.1070964,72.4870605 93.5146484,71.833252 C92.9222005,71.1794434 92.1181641,70.8525391 91.1025391,70.8525391 C90.0403646,70.8525391 89.2172852,71.1720378 88.6333008,71.8110352 C88.0493164,72.4500326 87.7573242,73.3387044 87.7573242,74.4770508 C87.7573242,75.2091471 87.8927409,75.8523763 88.1635742,76.4067383 C88.4344076,76.9611003 88.8216146,77.3863932 89.3251953,77.6826172 C89.828776,77.9788411 90.4085286,78.1269531 91.0644531,78.1269531 Z M91.0898438,76.9082031 C89.8922526,76.9082031 89.293457,76.097819 89.293457,74.4770508 C89.293457,73.7026367 89.4341634,73.1080729 89.7155762,72.6933594 C89.9969889,72.2786458 90.4508464,72.0712891 91.0771484,72.0712891 C92.2705078,72.0712891 92.8671875,72.8732096 92.8671875,74.4770508 C92.8671875,76.097819 92.2747396,76.9082031 91.0898438,76.9082031 Z M103.055176,78.1269531 C103.935384,78.1269531 104.623047,77.8063965 105.118164,77.1652832 C105.613281,76.5241699 105.86084,75.6280924 105.86084,74.4770508 C105.86084,73.3302409 105.616455,72.4394531 105.127686,71.8046875 C104.638916,71.1699219 103.956543,70.8525391 103.080566,70.8525391 C102.15804,70.8525391 101.459798,71.2016602 100.98584,71.8999023 L100.98584,71.8999023 L100.922363,71.8999023 C100.930827,71.8068034 100.943522,71.5888672 100.960449,71.2460938 C100.977376,70.9033203 100.98584,70.6451823 100.98584,70.4716797 L100.98584,70.4716797 L100.98584,68.1230469 L99.4941406,68.1230469 L99.4941406,78 L100.611328,78 L100.884277,77.168457 L100.98584,77.168457 C101.476725,77.8074544 102.166504,78.1269531 103.055176,78.1269531 Z M102.71875,76.9082031 C102.105143,76.9082031 101.662923,76.7167155 101.39209,76.3337402 C101.121257,75.950765 100.98584,75.3318685 100.98584,74.4770508 L100.98584,74.4770508 L100.98584,74.3754883 C100.994303,73.5460612 101.130778,72.9546712 101.395264,72.6013184 C101.659749,72.2479655 102.092448,72.0712891 102.693359,72.0712891 C103.785156,72.0712891 104.331055,72.8689779 104.331055,74.4643555 C104.331055,75.2556966 104.19458,75.8608398 103.921631,76.2797852 C103.648682,76.6987305 103.247721,76.9082031 102.71875,76.9082031 Z M110.659668,78.1269531 C111.137858,78.1269531 111.563151,78.0909831 111.935547,78.019043 C112.307943,77.9471029 112.676107,77.8243815 113.040039,77.6508789 L113.040039,77.6508789 L113.040039,76.4384766 C112.629557,76.6204427 112.245524,76.7505697 111.887939,76.8288574 C111.530355,76.9071452 111.144206,76.9462891 110.729492,76.9462891 C110.098958,76.9462891 109.610189,76.763265 109.263184,76.3972168 C108.916178,76.0311686 108.732096,75.507487 108.710938,74.8261719 L108.710938,74.8261719 L113.38916,74.8261719 L113.38916,74.0200195 C113.38916,73.0340169 113.120443,72.2596029 112.583008,71.6967773 C112.045573,71.1339518 111.313477,70.8525391 110.386719,70.8525391 C109.388021,70.8525391 108.603027,71.1805013 108.031738,71.8364258 C107.460449,72.4923503 107.174805,73.3937174 107.174805,74.5405273 C107.174805,75.6577148 107.482666,76.5347493 108.098389,77.1716309 C108.714111,77.8085124 109.567871,78.1269531 110.659668,78.1269531 Z M111.922852,73.7470703 L108.736328,73.7470703 C108.791341,73.1715495 108.96167,72.7335612 109.247314,72.4331055 C109.532959,72.1326497 109.91276,71.9824219 110.386719,71.9824219 C110.860677,71.9824219 111.233073,72.1315918 111.503906,72.4299316 C111.77474,72.7282715 111.914388,73.1673177 111.922852,73.7470703 L111.922852,73.7470703 Z M120.930176,78.1269531 C121.421061,78.1269531 121.857992,78.0338542 122.240967,77.8476562 C122.623942,77.6614583 122.919108,77.4054362 123.126465,77.0795898 L123.126465,77.0795898 L123.202637,77.0795898 L123.412109,78 L124.586426,78 L124.586426,70.9794922 L123.088379,70.9794922 L123.088379,74.4770508 C123.088379,75.3572591 122.941325,75.9846191 122.647217,76.3591309 C122.353109,76.7336426 121.892904,76.9208984 121.266602,76.9208984 C120.796875,76.9208984 120.451986,76.7865397 120.231934,76.5178223 C120.011882,76.2491048 119.901855,75.8460286 119.901855,75.3085938 L119.901855,75.3085938 L119.901855,70.9794922 L118.397461,70.9794922 L118.397461,75.5688477 C118.397461,76.4278971 118.606934,77.0690104 119.025879,77.4921875 C119.444824,77.9153646 120.07959,78.1269531 120.930176,78.1269531 Z M128.534668,78.1269531 C129.465658,78.1269531 130.180827,77.943929 130.680176,77.5778809 C131.179525,77.2118327 131.429199,76.6860352 131.429199,76.0004883 C131.429199,75.6619466 131.365723,75.3710124 131.23877,75.1276855 C131.111816,74.8843587 130.917155,74.6695964 130.654785,74.4833984 C130.392415,74.2972005 129.971354,74.0919596 129.391602,73.8676758 C128.701823,73.6010742 128.254313,73.3916016 128.049072,73.2392578 C127.843831,73.0869141 127.741211,72.9007161 127.741211,72.6806641 C127.741211,72.2320964 128.134766,72.0078125 128.921875,72.0078125 C129.438151,72.0078125 130.075033,72.164388 130.83252,72.4775391 L130.83252,72.4775391 L131.314941,71.3540039 C130.578613,71.019694 129.797852,70.8525391 128.972656,70.8525391 C128.138997,70.8525391 127.479899,71.0186361 126.995361,71.3508301 C126.510824,71.6830241 126.268555,72.1495768 126.268555,72.7504883 C126.268555,73.2498372 126.411377,73.6560872 126.697021,73.9692383 C126.982666,74.2823893 127.529622,74.5955404 128.337891,74.9086914 C128.752604,75.0694987 129.076335,75.2133789 129.309082,75.340332 C129.541829,75.4672852 129.708984,75.5900065 129.810547,75.7084961 C129.912109,75.8269857 129.962891,75.9750977 129.962891,76.152832 C129.962891,76.707194 129.503743,76.984375 128.585449,76.984375 C127.874512,76.984375 127.106445,76.7939453 126.28125,76.4130859 L126.28125,76.4130859 L126.28125,77.7016602 C126.848307,77.9851888 127.599447,78.1269531 128.534668,78.1269531 Z M136.107422,78.1269531 C136.585612,78.1269531 137.010905,78.0909831 137.383301,78.019043 C137.755697,77.9471029 138.123861,77.8243815 138.487793,77.6508789 L138.487793,77.6508789 L138.487793,76.4384766 C138.077311,76.6204427 137.693278,76.7505697 137.335693,76.8288574 C136.978109,76.9071452 136.59196,76.9462891 136.177246,76.9462891 C135.546712,76.9462891 135.057943,76.763265 134.710938,76.3972168 C134.363932,76.0311686 134.17985,75.507487 134.158691,74.8261719 L134.158691,74.8261719 L138.836914,74.8261719 L138.836914,74.0200195 C138.836914,73.0340169 138.568197,72.2596029 138.030762,71.6967773 C137.493327,71.1339518 136.76123,70.8525391 135.834473,70.8525391 C134.835775,70.8525391 134.050781,71.1805013 133.479492,71.8364258 C132.908203,72.4923503 132.622559,73.3937174 132.622559,74.5405273 C132.622559,75.6577148 132.93042,76.5347493 133.546143,77.1716309 C134.161865,77.8085124 135.015625,78.1269531 136.107422,78.1269531 Z M137.370605,73.7470703 L134.184082,73.7470703 C134.239095,73.1715495 134.409424,72.7335612 134.695068,72.4331055 C134.980713,72.1326497 135.360514,71.9824219 135.834473,71.9824219 C136.308431,71.9824219 136.680827,72.1315918 136.95166,72.4299316 C137.222493,72.7282715 137.362142,73.1673177 137.370605,73.7470703 L137.370605,73.7470703 Z M142.899414,78.1269531 C143.82194,78.1269531 144.522298,77.777832 145.000488,77.0795898 L145.000488,77.0795898 L145.070312,77.0795898 L145.330566,78 L146.498535,78 L146.498535,68.1230469 L145.000488,68.1230469 L145.000488,70.6811523 C145.000488,70.9731445 145.036458,71.370931 145.108398,71.8745117 L145.108398,71.8745117 L145.032227,71.8745117 C144.549805,71.1931966 143.847331,70.8525391 142.924805,70.8525391 C142.044596,70.8525391 141.355876,71.1730957 140.858643,71.814209 C140.36141,72.4553223 140.112793,73.3513997 140.112793,74.5024414 C140.112793,75.6492513 140.358236,76.5400391 140.849121,77.1748047 C141.340007,77.8095703 142.023438,78.1269531 142.899414,78.1269531 Z M143.299316,76.9208984 C142.749186,76.9208984 142.336589,76.7167155 142.061523,76.3083496 C141.786458,75.8999837 141.648926,75.3064779 141.648926,74.527832 C141.648926,73.7407227 141.79069,73.1345215 142.074219,72.7092285 C142.357747,72.2839355 142.761882,72.0712891 143.286621,72.0712891 C143.900228,72.0712891 144.350911,72.257487 144.638672,72.6298828 C144.926432,73.0022786 145.070312,73.6306966 145.070312,74.5151367 L145.070312,74.5151367 L145.070312,74.7246094 C145.061849,75.4990234 144.917969,76.0586751 144.638672,76.4035645 C144.359375,76.7484538 143.912923,76.9208984 143.299316,76.9208984 Z M149.348633,78.184082 C149.65332,78.184082 149.887126,78.0962728 150.050049,77.9206543 C150.212972,77.7450358 150.294434,77.5069987 150.294434,77.206543 C150.294434,76.910319 150.21403,76.6765137 150.053223,76.505127 C149.892415,76.3337402 149.657552,76.2480469 149.348633,76.2480469 C149.043945,76.2480469 148.811198,76.3305664 148.650391,76.4956055 C148.489583,76.6606445 148.40918,76.8976237 148.40918,77.206543 C148.40918,77.5112305 148.489583,77.7503255 148.650391,77.9238281 C148.811198,78.0973307 149.043945,78.184082 149.348633,78.184082 Z" id="Listtheinformationtobeused." fill="#FFFFFF" fill-rule="nonzero"></path>
                    <g id="Group" transform="translate(46.000000, 4.000000)" fill="#FFFFFF" fill-rule="nonzero">
                        <g id="Identify">
                            <use xlink:href="#path-2"></use>
                            <use xlink:href="#path-2"></use>
                        </g>
                    </g>
                </g>
                <line x1="2" y1="28.25" x2="161" y2="28.25" id="Line-2" stroke="#FFFFFF" stroke-width="4" stroke-linecap="square"></line>
            </g>
        </g>
    </g>
</svg>