<?xml version="1.0" encoding="UTF-8"?>
<svg width="163px" height="97px" viewBox="0 0 163 97" version="1.1" xmlns="http://www.w3.org/2000/svg" xmlns:xlink="http://www.w3.org/1999/xlink">
    <!-- Generator: Sketch 62 (91390) - https://sketch.com -->
    <title>Imagine</title>
    <desc>Created with Sketch.</desc>
    <defs>
        <radialGradient cx="26.0530847%" cy="62.3934409%" fx="26.0530847%" fy="62.3934409%" r="35.1006849%" gradientTransform="translate(0.260531,0.623934),scale(0.595092,1.000000),rotate(-90.000000),translate(-0.260531,-0.623934)" id="radialGradient-1">
            <stop stop-color="#F5836F" offset="0%"></stop>
            <stop stop-color="#E74C3C" offset="100%"></stop>
        </radialGradient>
        <path d="M3.5859375,18 L3.5859375,5.86425781 L1.60205078,5.86425781 L1.60205078,18 L3.5859375,18 Z M8.53320312,18 L8.53320312,13.4262695 C8.53320312,12.2862956 8.70890299,11.4714355 9.06030273,10.9816895 C9.41170247,10.4919434 9.96370443,10.2470703 10.7163086,10.2470703 C11.2807617,10.2470703 11.6958008,10.4200033 11.9614258,10.7658691 C12.2270508,11.111735 12.3598633,11.6360677 12.3598633,12.3388672 L12.3598633,12.3388672 L12.3598633,18 L14.3188477,18 L14.3188477,13.1357422 C14.3188477,12.15625 14.4945475,11.4299316 14.8459473,10.9567871 C15.197347,10.4836426 15.7521159,10.2470703 16.5102539,10.2470703 C17.074707,10.2470703 17.4911296,10.4200033 17.7595215,10.7658691 C18.0279134,11.111735 18.1621094,11.6360677 18.1621094,12.3388672 L18.1621094,12.3388672 L18.1621094,18 L20.112793,18 L20.112793,12.0151367 C20.112793,10.8806966 19.8623861,10.0367839 19.3615723,9.48339844 C18.8607585,8.93001302 18.0625,8.65332031 16.9667969,8.65332031 C16.3304036,8.65332031 15.7659505,8.78059896 15.2734375,9.03515625 C14.7809245,9.28971354 14.3990885,9.64388021 14.1279297,10.0976562 L14.1279297,10.0976562 L13.9951172,10.0976562 C13.5358073,9.13476562 12.6005859,8.65332031 11.1894531,8.65332031 C10.6083984,8.65332031 10.075765,8.77229818 9.59155273,9.01025391 C9.10734049,9.24820964 8.73795573,9.58577474 8.48339844,10.0229492 L8.48339844,10.0229492 L8.38378906,10.0229492 L8.10986328,8.81933594 L6.58251953,8.81933594 L6.58251953,18 L8.53320312,18 Z M25.0600586,18.1660156 C25.7628581,18.1660156 26.3383789,18.0650228 26.7866211,17.8630371 C27.2348633,17.6610514 27.6803385,17.280599 28.1230469,16.7216797 L28.1230469,16.7216797 L28.1894531,16.7216797 L28.5795898,18 L29.9741211,18 L29.9741211,11.815918 C29.9741211,10.7257487 29.6766764,9.92610677 29.0817871,9.41699219 C28.4868978,8.9078776 27.6056315,8.65332031 26.4379883,8.65332031 C25.9122721,8.65332031 25.3533529,8.72111003 24.7612305,8.85668945 C24.1691081,8.99226888 23.6240234,9.19010417 23.1259766,9.45019531 L23.1259766,9.45019531 L23.7568359,10.8447266 C24.1552734,10.6565755 24.5703125,10.4933268 25.0019531,10.3549805 C25.4335938,10.2166341 25.8846029,10.1474609 26.3549805,10.1474609 C26.9305013,10.1474609 27.3552246,10.2927246 27.6291504,10.583252 C27.9030762,10.8737793 28.0400391,11.3123372 28.0400391,11.8989258 L28.0400391,11.8989258 L28.0400391,12.3886719 L26.4545898,12.4384766 C25.0157878,12.4827474 23.944987,12.7456055 23.2421875,13.2270508 C22.539388,13.7084961 22.1879883,14.4223633 22.1879883,15.3686523 C22.1879883,16.2596029 22.4411621,16.9485677 22.9475098,17.4355469 C23.4538574,17.922526 24.1580404,18.1660156 25.0600586,18.1660156 Z M25.6743164,16.671875 C25.1873372,16.671875 24.8221029,16.5598145 24.5786133,16.3356934 C24.3351237,16.1115723 24.2133789,15.7947591 24.2133789,15.3852539 C24.2133789,14.8208008 24.4222819,14.4016113 24.8400879,14.1276855 C25.2578939,13.8537598 25.9261068,13.7001953 26.8447266,13.6669922 L26.8447266,13.6669922 L28.0234375,13.6171875 L28.0234375,14.4140625 C28.0234375,15.1279297 27.8090007,15.6826986 27.380127,16.0783691 C26.9512533,16.4740397 26.3826497,16.671875 25.6743164,16.671875 Z M35.3447266,22.0839844 C36.9661458,22.0839844 38.2057292,21.8017578 39.0634766,21.2373047 C39.921224,20.6728516 40.3500977,19.8704427 40.3500977,18.8300781 C40.3500977,18.0166016 40.0872396,17.394043 39.5615234,16.9624023 C39.0358073,16.5307617 38.2666016,16.3149414 37.2539062,16.3149414 L37.2539062,16.3149414 L35.6518555,16.3149414 C35.1261393,16.3149414 34.7650553,16.2623698 34.5686035,16.1572266 C34.3721517,16.0520833 34.2739258,15.8943685 34.2739258,15.684082 C34.2739258,15.3354492 34.4842122,15.0310872 34.9047852,14.7709961 C35.1427409,14.8152669 35.4083659,14.8374023 35.7016602,14.8374023 C36.847168,14.8374023 37.7464193,14.5662435 38.3994141,14.0239258 C39.0524089,13.4816081 39.3789062,12.7373047 39.3789062,11.7910156 C39.3789062,11.4755859 39.3318685,11.1767578 39.237793,10.8945312 C39.1437174,10.6123047 39.0247396,10.374349 38.8808594,10.1806641 L38.8808594,10.1806641 L40.449707,9.89013672 L40.449707,8.81933594 L37.2705078,8.81933594 C37.1266276,8.78059896 36.9121908,8.74324544 36.6271973,8.70727539 C36.3422038,8.67130534 36.0696615,8.65332031 35.8095703,8.65332031 C34.6474609,8.65332031 33.75236,8.92724609 33.1242676,9.47509766 C32.4961751,10.0229492 32.1821289,10.7949219 32.1821289,11.7910156 C32.1821289,12.4108073 32.3301595,12.9517415 32.6262207,13.4138184 C32.9222819,13.8758952 33.3082682,14.2093099 33.7841797,14.4140625 C33.4023438,14.6464844 33.1145833,14.8816732 32.9208984,15.1196289 C32.7272135,15.3575846 32.6303711,15.648112 32.6303711,15.9912109 C32.6303711,16.2623698 32.7147624,16.5210775 32.8835449,16.767334 C33.0523275,17.0135905 33.2667643,17.1920573 33.5268555,17.3027344 C32.8849284,17.4521484 32.385498,17.7191569 32.0285645,18.1037598 C31.6716309,18.4883626 31.4931641,18.9628906 31.4931641,19.5273438 C31.4931641,20.3463542 31.8224284,20.9772135 32.480957,21.4199219 C33.1394857,21.8626302 34.0940755,22.0839844 35.3447266,22.0839844 Z M35.7929688,13.5839844 C35.2395833,13.5839844 34.81486,13.4290365 34.5187988,13.1191406 C34.2227376,12.8092448 34.074707,12.3665365 34.074707,11.7910156 C34.074707,11.1767578 34.2199707,10.7091471 34.510498,10.3881836 C34.8010254,10.0672201 35.2285156,9.90673828 35.7929688,9.90673828 C36.3629557,9.90673828 36.787679,10.0686035 37.0671387,10.392334 C37.3465983,10.7160645 37.4863281,11.1767578 37.4863281,11.7744141 C37.4863281,12.9807943 36.921875,13.5839844 35.7929688,13.5839844 Z M35.402832,20.7392578 C34.7166341,20.7392578 34.1840007,20.6258138 33.8049316,20.3989258 C33.4258626,20.1720378 33.2363281,19.8483073 33.2363281,19.4277344 C33.2363281,18.9794922 33.4009603,18.6239421 33.7302246,18.361084 C34.0594889,18.0982259 34.5035807,17.9667969 35.0625,17.9667969 L35.0625,17.9667969 L36.5400391,17.9667969 C37.3147786,17.9667969 37.8446452,18.0511882 38.1296387,18.2199707 C38.4146322,18.3887533 38.5571289,18.6723633 38.5571289,19.0708008 C38.5571289,19.5743815 38.2970378,19.9783529 37.7768555,20.2827148 C37.2566732,20.5870768 36.465332,20.7392578 35.402832,20.7392578 Z M43.1391602,7.45800781 C43.4822591,7.45800781 43.7492676,7.36254883 43.9401855,7.17163086 C44.1311035,6.98071289 44.2265625,6.71923828 44.2265625,6.38720703 C44.2265625,6.03857422 44.1311035,5.77018229 43.9401855,5.58203125 C43.7492676,5.39388021 43.4822591,5.29980469 43.1391602,5.29980469 C42.7849935,5.29980469 42.5124512,5.39388021 42.3215332,5.58203125 C42.1306152,5.77018229 42.0351562,6.03857422 42.0351562,6.38720703 C42.0351562,6.71923828 42.1306152,6.98071289 42.3215332,7.17163086 C42.5124512,7.36254883 42.7849935,7.45800781 43.1391602,7.45800781 Z M44.1020508,18 L44.1020508,8.81933594 L42.1513672,8.81933594 L42.1513672,18 L44.1020508,18 Z M48.8417969,18 L48.8417969,13.4262695 C48.8417969,12.2807617 49.0327148,11.4645182 49.4145508,10.9775391 C49.7963867,10.4905599 50.3995768,10.2470703 51.2241211,10.2470703 C51.8439128,10.2470703 52.2963053,10.4213867 52.5812988,10.7700195 C52.8662923,11.1186523 53.0087891,11.6471354 53.0087891,12.3554688 L53.0087891,12.3554688 L53.0087891,18 L54.9677734,18 L54.9677734,12.0151367 C54.9677734,9.77392578 53.8665365,8.65332031 51.6640625,8.65332031 C51.0442708,8.65332031 50.4798177,8.77229818 49.9707031,9.01025391 C49.4615885,9.24820964 49.0686849,9.58577474 48.7919922,10.0229492 L48.7919922,10.0229492 L48.6923828,10.0229492 L48.418457,8.81933594 L46.8911133,8.81933594 L46.8911133,18 L48.8417969,18 Z M61.6914062,18.1660156 C62.3167318,18.1660156 62.8728841,18.1189779 63.3598633,18.0249023 C63.8468424,17.9308268 64.3282878,17.7703451 64.8041992,17.543457 L64.8041992,17.543457 L64.8041992,15.9580078 C64.2674154,16.1959635 63.7652181,16.3661296 63.2976074,16.4685059 C62.8299967,16.5708822 62.3250326,16.6220703 61.7827148,16.6220703 C60.9581706,16.6220703 60.3190104,16.3827311 59.8652344,15.9040527 C59.4114583,15.4253743 59.1707357,14.7405599 59.1430664,13.8496094 L59.1430664,13.8496094 L65.2607422,13.8496094 L65.2607422,12.7954102 C65.2607422,11.5060221 64.9093424,10.4933268 64.206543,9.75732422 C63.5037435,9.02132161 62.5463867,8.65332031 61.3344727,8.65332031 C60.0284831,8.65332031 59.0019531,9.08219401 58.2548828,9.93994141 C57.5078125,10.7976888 57.1342773,11.9763997 57.1342773,13.4760742 C57.1342773,14.9370117 57.5368652,16.083903 58.342041,16.916748 C59.1472168,17.7495931 60.2636719,18.1660156 61.6914062,18.1660156 Z M63.3432617,12.4384766 L59.1762695,12.4384766 C59.2482096,11.6858724 59.4709473,11.1131185 59.8444824,10.7202148 C60.2180176,10.3273112 60.714681,10.1308594 61.3344727,10.1308594 C61.9542643,10.1308594 62.4412435,10.3259277 62.7954102,10.7160645 C63.1495768,11.1062012 63.332194,11.6803385 63.3432617,12.4384766 L63.3432617,12.4384766 Z" id="path-2"></path>
    </defs>
    <g id="Symbols" stroke="none" stroke-width="1" fill="none" fill-rule="evenodd">
        <g id="i/Imagine">
            <g id="Imagine">
                <path d="M6,0 L157,0 C160.313708,-6.08718376e-16 163,2.6862915 163,6 L163,91 C163,94.3137085 160.313708,97 157,97 L6,97 C2.6862915,97 4.05812251e-16,94.3137085 0,91 L0,6 C-4.05812251e-16,2.6862915 2.6862915,6.08718376e-16 6,0 Z" id="Rectangle-2" fill="url(#radialGradient-1)" fill-rule="nonzero"></path>
                <g id="Group-10" transform="translate(22.000000, 45.000000)" fill-rule="nonzero">
                    <path d="M39.7977339,22 L35.2027631,22 C35.0904482,22 35,22.0444281 35,22.0996564 L35,22.9003436 C35,22.9553265 35.0904482,23 35.2027631,23 L39.7977339,23 C39.9095518,23 40,22.9550811 40,22.9003436 L40,22.0996564 C40,22.0446735 39.9090548,22 39.7977339,22 Z" id="Shape" fill="#BDC3C7"></path>
                    <path d="M4.79725702,22 L0.202246031,22 C0.0909362029,22 0,22.0444281 0,22.0996564 L0,22.9003436 C0,22.9553265 0.090439255,23 0.202246031,23 L4.79725702,23 C4.90956074,23 5,22.9550811 5,22.9003436 L5,22.0996564 C5,22.0446735 4.90956074,22 4.79725702,22 Z" id="Shape" fill="#BDC3C7"></path>
                    <path d="M35.0722771,15.9739598 L38.9022646,13.7354727 C38.9955157,13.6807692 39.028034,13.5597438 38.9735181,13.465828 L38.1935568,12.0987242 C38.1399972,12.0043244 38.0209229,11.9718896 37.9271935,12.026593 L34.0972061,14.2650802 C34.0044332,14.3197837 33.9723931,14.440325 34.0259527,14.5347249 L34.805914,15.9013445 C34.8604299,15.9957444 34.9799826,16.0276951 35.0722771,15.9739598 Z" id="Shape" fill="#9B9B9B"></path>
                    <path d="M31.9012873,3.80581548 L30.5348263,3.02627146 C30.4404374,2.97222949 30.3194261,3.00427214 30.2642447,3.09753044 L28.0265017,6.92781757 C27.9718045,7.02107585 28.0047196,7.14015964 28.0981404,7.19420157 L29.4650854,7.97374564 C29.5585062,8.02778757 29.6795177,7.995745 29.7346989,7.9020085 L31.9734101,4.07219953 C32.0281071,3.97894123 31.9956761,3.85985754 31.9012873,3.80581548 Z" id="Shape" fill="#BDC3C7"></path>
                    <path d="M19.0996564,5 L19.9003436,5 C19.9555719,5 20,4.90907281 20,4.79727712 L20,0.202225999 C20,0.0909271929 19.9553264,0 19.9003436,0 L19.0996564,0 C19.0446735,0 19,0.0909271929 19,0.202225999 L19,4.797774 C19,4.90956969 19.0444281,5 19.0996564,5 Z" id="Shape" fill="#9B9B9B"></path>
                    <path d="M9.53465846,7.97404258 L10.9018424,7.19441872 C10.9952795,7.14037122 11.0282004,7.0212753 10.9734937,6.92800737 L8.7353594,3.09732784 C8.6801686,3.00405999 8.55962007,2.97249237 8.46521473,3.02606166 L7.09851494,3.80568555 C7.00410954,3.85973305 6.97215689,3.97882893 7.02637947,4.07209689 L9.26499793,7.90277637 C9.31970466,7.99556594 9.4407372,8.02761187 9.53465846,7.97404258 Z" id="Shape" fill="#BDC3C7"></path>
                    <path d="M4.90247401,14.2649584 L1.07236288,12.0265916 C0.978630536,11.9718911 0.859552336,12.0043242 0.805991014,12.0987189 L0.0264828074,13.4657491 C-0.0280349269,13.5601439 0.00448443193,13.6806789 0.097738425,13.7353794 L3.92784966,15.9737461 C4.02014724,16.0279626 4.13970379,15.9955295 4.19374328,15.9011347 L4.97372974,14.5345887 C5.02776921,14.4401938 4.99572811,14.3191749 4.90247401,14.2649584 Z" id="Shape" fill="#9B9B9B"></path>
                    <path d="M20.0002265,7 C13.3728976,7 8,12.4047988 8,19.071477 C8,25.5162211 14.1937822,29.0462019 14.6064896,32.6295015 C14.630047,32.8332067 14.7931366,33.0004548 14.9974517,33 L25.0030013,33 C25.2073163,33 25.3704061,32.8336625 25.3939634,32.6295015 C25.8062178,29.0462019 32,25.5162211 32,19.071477 C32,12.4043431 26.6275553,7 20.0002265,7 Z" id="Shape" fill="#FFFFFF"></path>
                    <path d="M24.6215533,33 L14.3784467,33 C14.1692807,33 14,33.2150009 14,33.4800707 L14,35.5205184 C14,35.7855881 14.1692807,36 14.3784467,36 L24.6215533,36 C24.8307193,36 25,35.7855881 25,35.5205184 L25,33.4800707 C25,33.21559 24.8307193,33 24.6215533,33 Z" id="Shape" fill="#BDC3C7"></path>
                    <path d="M14.1991262,37.0004906 C13.9826191,37.0004906 13.9355732,37.1226492 14.0930329,37.2732624 L16.665674,39.7272281 C16.8240938,39.8778413 17.1274917,40 17.3435186,40 L21.6573369,40 C21.873364,40 22.1767618,39.8778413 22.3347016,39.7267374 L24.9073426,37.2727718 C25.0643222,37.1221586 25.0172763,37 24.8007693,37 L14.1991262,37 L14.1991262,37.0004906 Z" id="Shape" fill="#9B9B9B"></path>
                </g>
                <polyline id="Line-2" stroke="#FFFFFF" stroke-width="4" stroke-linecap="square" points="2 30 20.4627861 30 161 30"></polyline>
                <line x1="81" y1="45" x2="81" y2="85.0042519" id="Line-3" stroke="#FFFFFF" stroke-width="2" stroke-linecap="square"></line>
                <g id="Adverbs" transform="translate(46.000000, 2.000000)" fill="#FFFFFF" fill-rule="nonzero">
                    <g id="Imagine">
                        <use xlink:href="#path-2"></use>
                        <use xlink:href="#path-2"></use>
                    </g>
                </g>
                <path d="M94.6054688,56.1171875 C95.4570312,56.1171875 96.21875,55.9902344 96.890625,55.7363281 L96.890625,55.7363281 L96.890625,54.5351562 C96.5234375,54.6484375 96.1699219,54.7412109 95.8300781,54.8134766 C95.4902344,54.8857422 95.1386719,54.921875 94.7753906,54.921875 C93.9355469,54.921875 93.2939453,54.6523438 92.8505859,54.1132812 C92.4072266,53.5742188 92.1855469,52.7792969 92.1855469,51.7285156 C92.1855469,50.7246094 92.4160156,49.9375 92.8769531,49.3671875 C93.3378906,48.796875 93.9707031,48.5117188 94.7753906,48.5117188 C95.1308594,48.5117188 95.4697266,48.5634766 95.7919922,48.6669922 C96.1142578,48.7705078 96.4199219,48.890625 96.7089844,49.0273438 L96.7089844,49.0273438 L97.2128906,47.8613281 C96.4707031,47.4941406 95.6621094,47.3105469 94.7871094,47.3105469 C93.9550781,47.3105469 93.2304688,47.4882812 92.6132812,47.84375 C91.9960938,48.1992188 91.5244141,48.7109375 91.1982422,49.3789062 C90.8720703,50.046875 90.7089844,50.8261719 90.7089844,51.7167969 C90.7089844,53.1308594 91.0449219,54.2177734 91.7167969,54.9775391 C92.3886719,55.7373047 93.3515625,56.1171875 94.6054688,56.1171875 Z M99.9667969,56 L99.9667969,52.6132812 C99.9667969,52.0390625 100.137695,51.5722656 100.479492,51.2128906 C100.821289,50.8535156 101.267578,50.6738281 101.818359,50.6738281 C102.029297,50.6738281 102.232422,50.6972656 102.427734,50.7441406 L102.427734,50.7441406 L102.5625,49.4609375 C102.382812,49.421875 102.154297,49.4023438 101.876953,49.4023438 C101.478516,49.4023438 101.106445,49.515625 100.760742,49.7421875 C100.415039,49.96875 100.134766,50.2753906 99.9199219,50.6621094 L99.9199219,50.6621094 L99.8496094,50.6621094 L99.6679688,49.5195312 L98.5898438,49.5195312 L98.5898438,56 L99.9667969,56 Z M106.59375,56.1171875 C107.035156,56.1171875 107.427734,56.0839844 107.771484,56.0175781 C108.115234,55.9511719 108.455078,55.8378906 108.791016,55.6777344 L108.791016,55.6777344 L108.791016,54.5585938 C108.412109,54.7265625 108.057617,54.8466797 107.727539,54.9189453 C107.397461,54.9912109 107.041016,55.0273438 106.658203,55.0273438 C106.076172,55.0273438 105.625,54.8583984 105.304688,54.5205078 C104.984375,54.1826172 104.814453,53.6992188 104.794922,53.0703125 L104.794922,53.0703125 L109.113281,53.0703125 L109.113281,52.3261719 C109.113281,51.4160156 108.865234,50.7011719 108.369141,50.1816406 C107.873047,49.6621094 107.197266,49.4023438 106.341797,49.4023438 C105.419922,49.4023438 104.695312,49.7050781 104.167969,50.3105469 C103.640625,50.9160156 103.376953,51.7480469 103.376953,52.8066406 C103.376953,53.8378906 103.661133,54.6474609 104.229492,55.2353516 C104.797852,55.8232422 105.585938,56.1171875 106.59375,56.1171875 Z M107.759766,52.0742188 L104.818359,52.0742188 C104.869141,51.5429688 105.026367,51.1386719 105.290039,50.8613281 C105.553711,50.5839844 105.904297,50.4453125 106.341797,50.4453125 C106.779297,50.4453125 107.123047,50.5830078 107.373047,50.8583984 C107.623047,51.1337891 107.751953,51.5390625 107.759766,52.0742188 L107.759766,52.0742188 Z M112.248047,56.1171875 C112.744141,56.1171875 113.150391,56.0458984 113.466797,55.9033203 C113.783203,55.7607422 114.097656,55.4921875 114.410156,55.0976562 L114.410156,55.0976562 L114.457031,55.0976562 L114.732422,56 L115.716797,56 L115.716797,51.6347656 C115.716797,50.8652344 115.506836,50.3007812 115.086914,49.9414062 C114.666992,49.5820312 114.044922,49.4023438 113.220703,49.4023438 C112.849609,49.4023438 112.455078,49.4501953 112.037109,49.5458984 C111.619141,49.6416016 111.234375,49.78125 110.882812,49.9648438 L110.882812,49.9648438 L111.328125,50.9492188 C111.609375,50.8164062 111.902344,50.7011719 112.207031,50.6035156 C112.511719,50.5058594 112.830078,50.4570312 113.162109,50.4570312 C113.568359,50.4570312 113.868164,50.5595703 114.061523,50.7646484 C114.254883,50.9697266 114.351562,51.2792969 114.351562,51.6933594 L114.351562,51.6933594 L114.351562,52.0390625 L113.232422,52.0742188 C112.216797,52.1054688 111.460938,52.2910156 110.964844,52.6308594 C110.46875,52.9707031 110.220703,53.4746094 110.220703,54.1425781 C110.220703,54.7714844 110.399414,55.2578125 110.756836,55.6015625 C111.114258,55.9453125 111.611328,56.1171875 112.248047,56.1171875 Z M112.681641,55.0625 C112.337891,55.0625 112.080078,54.9833984 111.908203,54.8251953 C111.736328,54.6669922 111.650391,54.4433594 111.650391,54.1542969 C111.650391,53.7558594 111.797852,53.4599609 112.092773,53.2666016 C112.387695,53.0732422 112.859375,52.9648438 113.507812,52.9414062 L113.507812,52.9414062 L114.339844,52.90625 L114.339844,53.46875 C114.339844,53.9726562 114.188477,54.3642578 113.885742,54.6435547 C113.583008,54.9228516 113.181641,55.0625 112.681641,55.0625 Z M119.724609,56.1171875 C119.982422,56.1171875 120.231445,56.0947266 120.47168,56.0498047 C120.711914,56.0048828 120.908203,55.9492188 121.060547,55.8828125 L121.060547,55.8828125 L121.060547,54.8457031 C120.724609,54.9511719 120.388672,55.0039062 120.052734,55.0039062 C119.783203,55.0039062 119.56543,54.9248047 119.399414,54.7666016 C119.233398,54.6083984 119.150391,54.3632812 119.150391,54.03125 L119.150391,54.03125 L119.150391,50.5625 L120.996094,50.5625 L120.996094,49.5195312 L119.150391,49.5195312 L119.150391,48.078125 L118.300781,48.078125 L117.832031,49.4492188 L116.882812,49.953125 L116.882812,50.5625 L117.767578,50.5625 L117.767578,54.0546875 C117.767578,55.4296875 118.419922,56.1171875 119.724609,56.1171875 Z M125.185547,56.1171875 C125.626953,56.1171875 126.019531,56.0839844 126.363281,56.0175781 C126.707031,55.9511719 127.046875,55.8378906 127.382812,55.6777344 L127.382812,55.6777344 L127.382812,54.5585938 C127.003906,54.7265625 126.649414,54.8466797 126.319336,54.9189453 C125.989258,54.9912109 125.632812,55.0273438 125.25,55.0273438 C124.667969,55.0273438 124.216797,54.8583984 123.896484,54.5205078 C123.576172,54.1826172 123.40625,53.6992188 123.386719,53.0703125 L123.386719,53.0703125 L127.705078,53.0703125 L127.705078,52.3261719 C127.705078,51.4160156 127.457031,50.7011719 126.960938,50.1816406 C126.464844,49.6621094 125.789062,49.4023438 124.933594,49.4023438 C124.011719,49.4023438 123.287109,49.7050781 122.759766,50.3105469 C122.232422,50.9160156 121.96875,51.7480469 121.96875,52.8066406 C121.96875,53.8378906 122.25293,54.6474609 122.821289,55.2353516 C123.389648,55.8232422 124.177734,56.1171875 125.185547,56.1171875 Z M126.351562,52.0742188 L123.410156,52.0742188 C123.460938,51.5429688 123.618164,51.1386719 123.881836,50.8613281 C124.145508,50.5839844 124.496094,50.4453125 124.933594,50.4453125 C125.371094,50.4453125 125.714844,50.5830078 125.964844,50.8583984 C126.214844,51.1337891 126.34375,51.5390625 126.351562,52.0742188 L126.351562,52.0742188 Z M92.6660156,68.1171875 C93.5253906,68.1171875 94.1855469,67.9482422 94.6464844,67.6103516 C95.1074219,67.2724609 95.3378906,66.7871094 95.3378906,66.1542969 C95.3378906,65.8417969 95.2792969,65.5732422 95.1621094,65.3486328 C95.0449219,65.1240234 94.8652344,64.9257812 94.6230469,64.7539062 C94.3808594,64.5820312 93.9921875,64.3925781 93.4570312,64.1855469 C92.8203125,63.9394531 92.4072266,63.7460938 92.2177734,63.6054688 C92.0283203,63.4648438 91.9335938,63.2929688 91.9335938,63.0898438 C91.9335938,62.6757812 92.296875,62.46875 93.0234375,62.46875 C93.5,62.46875 94.0878906,62.6132812 94.7871094,62.9023438 L94.7871094,62.9023438 L95.2324219,61.8652344 C94.5527344,61.5566406 93.8320312,61.4023438 93.0703125,61.4023438 C92.3007812,61.4023438 91.6923828,61.5556641 91.2451172,61.8623047 C90.7978516,62.1689453 90.5742188,62.5996094 90.5742188,63.1542969 C90.5742188,63.6152344 90.7060547,63.9902344 90.9697266,64.2792969 C91.2333984,64.5683594 91.7382812,64.8574219 92.484375,65.1464844 C92.8671875,65.2949219 93.1660156,65.4277344 93.3808594,65.5449219 C93.5957031,65.6621094 93.75,65.7753906 93.84375,65.8847656 C93.9375,65.9941406 93.984375,66.1308594 93.984375,66.2949219 C93.984375,66.8066406 93.5605469,67.0625 92.7128906,67.0625 C92.0566406,67.0625 91.3476562,66.8867188 90.5859375,66.5351562 L90.5859375,66.5351562 L90.5859375,67.7246094 C91.109375,67.9863281 91.8027344,68.1171875 92.6660156,68.1171875 Z M99.4921875,68.1171875 C100.460938,68.1171875 101.216797,67.8203125 101.759766,67.2265625 C102.302734,66.6328125 102.574219,65.8066406 102.574219,64.7480469 C102.574219,63.7246094 102.300781,62.9111328 101.753906,62.3076172 C101.207031,61.7041016 100.464844,61.4023438 99.5273438,61.4023438 C98.546875,61.4023438 97.7871094,61.6972656 97.2480469,62.2871094 C96.7089844,62.8769531 96.4394531,63.6972656 96.4394531,64.7480469 C96.4394531,65.4238281 96.5644531,66.0175781 96.8144531,66.5292969 C97.0644531,67.0410156 97.421875,67.4335938 97.8867188,67.7070312 C98.3515625,67.9804688 98.8867188,68.1171875 99.4921875,68.1171875 Z M99.515625,66.9921875 C98.4101562,66.9921875 97.8574219,66.2441406 97.8574219,64.7480469 C97.8574219,64.0332031 97.9873047,63.484375 98.2470703,63.1015625 C98.5068359,62.71875 98.9257812,62.5273438 99.5039062,62.5273438 C100.605469,62.5273438 101.15625,63.2675781 101.15625,64.7480469 C101.15625,66.2441406 100.609375,66.9921875 99.515625,66.9921875 Z M105.533203,68 L105.533203,64.7714844 C105.533203,63.9667969 105.657227,63.3916016 105.905273,63.0458984 C106.15332,62.7001953 106.542969,62.5273438 107.074219,62.5273438 C107.472656,62.5273438 107.765625,62.6494141 107.953125,62.8935547 C108.140625,63.1376953 108.234375,63.5078125 108.234375,64.0039062 L108.234375,64.0039062 L108.234375,68 L109.617188,68 L109.617188,64.5664062 C109.617188,63.875 109.741211,63.3623047 109.989258,63.0283203 C110.237305,62.6943359 110.628906,62.5273438 111.164062,62.5273438 C111.5625,62.5273438 111.856445,62.6494141 112.045898,62.8935547 C112.235352,63.1376953 112.330078,63.5078125 112.330078,64.0039062 L112.330078,64.0039062 L112.330078,68 L113.707031,68 L113.707031,63.7753906 C113.707031,62.9746094 113.530273,62.3789062 113.176758,61.9882812 C112.823242,61.5976562 112.259766,61.4023438 111.486328,61.4023438 C111.037109,61.4023438 110.638672,61.4921875 110.291016,61.671875 C109.943359,61.8515625 109.673828,62.1015625 109.482422,62.421875 L109.482422,62.421875 L109.388672,62.421875 C109.064453,61.7421875 108.404297,61.4023438 107.408203,61.4023438 C106.998047,61.4023438 106.62207,61.4863281 106.280273,61.6542969 C105.938477,61.8222656 105.677734,62.0605469 105.498047,62.3691406 L105.498047,62.3691406 L105.427734,62.3691406 L105.234375,61.5195312 L104.15625,61.5195312 L104.15625,68 L105.533203,68 Z M118.458984,68.1171875 C118.900391,68.1171875 119.292969,68.0839844 119.636719,68.0175781 C119.980469,67.9511719 120.320312,67.8378906 120.65625,67.6777344 L120.65625,67.6777344 L120.65625,66.5585938 C120.277344,66.7265625 119.922852,66.8466797 119.592773,66.9189453 C119.262695,66.9912109 118.90625,67.0273438 118.523438,67.0273438 C117.941406,67.0273438 117.490234,66.8583984 117.169922,66.5205078 C116.849609,66.1826172 116.679688,65.6992188 116.660156,65.0703125 L116.660156,65.0703125 L120.978516,65.0703125 L120.978516,64.3261719 C120.978516,63.4160156 120.730469,62.7011719 120.234375,62.1816406 C119.738281,61.6621094 119.0625,61.4023438 118.207031,61.4023438 C117.285156,61.4023438 116.560547,61.7050781 116.033203,62.3105469 C115.505859,62.9160156 115.242188,63.7480469 115.242188,64.8066406 C115.242188,65.8378906 115.526367,66.6474609 116.094727,67.2353516 C116.663086,67.8232422 117.451172,68.1171875 118.458984,68.1171875 Z M119.625,64.0742188 L116.683594,64.0742188 C116.734375,63.5429688 116.891602,63.1386719 117.155273,62.8613281 C117.418945,62.5839844 117.769531,62.4453125 118.207031,62.4453125 C118.644531,62.4453125 118.988281,62.5830078 119.238281,62.8583984 C119.488281,63.1337891 119.617188,63.5390625 119.625,64.0742188 L119.625,64.0742188 Z M124.628906,68.1171875 C124.886719,68.1171875 125.135742,68.0947266 125.375977,68.0498047 C125.616211,68.0048828 125.8125,67.9492188 125.964844,67.8828125 L125.964844,67.8828125 L125.964844,66.8457031 C125.628906,66.9511719 125.292969,67.0039062 124.957031,67.0039062 C124.6875,67.0039062 124.469727,66.9248047 124.303711,66.7666016 C124.137695,66.6083984 124.054688,66.3632812 124.054688,66.03125 L124.054688,66.03125 L124.054688,62.5625 L125.900391,62.5625 L125.900391,61.5195312 L124.054688,61.5195312 L124.054688,60.078125 L123.205078,60.078125 L122.736328,61.4492188 L121.787109,61.953125 L121.787109,62.5625 L122.671875,62.5625 L122.671875,66.0546875 C122.671875,67.4296875 123.324219,68.1171875 124.628906,68.1171875 Z M128.636719,68 L128.636719,64.7832031 C128.636719,63.9707031 128.772461,63.3916016 129.043945,63.0458984 C129.31543,62.7001953 129.740234,62.5273438 130.318359,62.5273438 C130.755859,62.5273438 131.075195,62.6503906 131.276367,62.8964844 C131.477539,63.1425781 131.578125,63.515625 131.578125,64.015625 L131.578125,64.015625 L131.578125,68 L132.960938,68 L132.960938,63.7753906 C132.960938,62.1933594 132.175781,61.4023438 130.605469,61.4023438 C130.160156,61.4023438 129.770508,61.4882812 129.436523,61.6601562 C129.102539,61.8320312 128.841797,62.0742188 128.654297,62.3867188 L128.654297,62.3867188 L128.566406,62.3867188 C128.613281,61.9648438 128.636719,61.5683594 128.636719,61.1972656 L128.636719,61.1972656 L128.636719,58.8828125 L127.259766,58.8828125 L127.259766,68 L128.636719,68 Z M135.574219,60.5585938 C135.816406,60.5585938 136.004883,60.4912109 136.139648,60.3564453 C136.274414,60.2216797 136.341797,60.0371094 136.341797,59.8027344 C136.341797,59.5566406 136.274414,59.3671875 136.139648,59.234375 C136.004883,59.1015625 135.816406,59.0351562 135.574219,59.0351562 C135.324219,59.0351562 135.131836,59.1015625 134.99707,59.234375 C134.862305,59.3671875 134.794922,59.5566406 134.794922,59.8027344 C134.794922,60.0371094 134.862305,60.2216797 134.99707,60.3564453 C135.131836,60.4912109 135.324219,60.5585938 135.574219,60.5585938 Z M136.253906,68 L136.253906,61.5195312 L134.876953,61.5195312 L134.876953,68 L136.253906,68 Z M139.599609,68 L139.599609,64.7714844 C139.599609,63.9628906 139.734375,63.3867188 140.003906,63.0429688 C140.273438,62.6992188 140.699219,62.5273438 141.28125,62.5273438 C141.71875,62.5273438 142.038086,62.6503906 142.239258,62.8964844 C142.44043,63.1425781 142.541016,63.515625 142.541016,64.015625 L142.541016,64.015625 L142.541016,68 L143.923828,68 L143.923828,63.7753906 C143.923828,62.1933594 143.146484,61.4023438 141.591797,61.4023438 C141.154297,61.4023438 140.755859,61.4863281 140.396484,61.6542969 C140.037109,61.8222656 139.759766,62.0605469 139.564453,62.3691406 L139.564453,62.3691406 L139.494141,62.3691406 L139.300781,61.5195312 L138.222656,61.5195312 L138.222656,68 L139.599609,68 Z M147.708984,70.8828125 C148.853516,70.8828125 149.728516,70.6835938 150.333984,70.2851562 C150.939453,69.8867188 151.242188,69.3203125 151.242188,68.5859375 C151.242188,68.0117188 151.056641,67.5722656 150.685547,67.2675781 C150.314453,66.9628906 149.771484,66.8105469 149.056641,66.8105469 L149.056641,66.8105469 L147.925781,66.8105469 C147.554688,66.8105469 147.299805,66.7734375 147.161133,66.6992188 C147.022461,66.625 146.953125,66.5136719 146.953125,66.3652344 C146.953125,66.1191406 147.101562,65.9042969 147.398438,65.7207031 C147.566406,65.7519531 147.753906,65.7675781 147.960938,65.7675781 C148.769531,65.7675781 149.404297,65.5761719 149.865234,65.1933594 C150.326172,64.8105469 150.556641,64.2851562 150.556641,63.6171875 C150.556641,63.3945312 150.523438,63.1835938 150.457031,62.984375 C150.390625,62.7851562 150.306641,62.6171875 150.205078,62.4804688 L150.205078,62.4804688 L151.3125,62.2753906 L151.3125,61.5195312 L149.068359,61.5195312 C148.966797,61.4921875 148.81543,61.4658203 148.614258,61.4404297 C148.413086,61.4150391 148.220703,61.4023438 148.037109,61.4023438 C147.216797,61.4023438 146.584961,61.5957031 146.141602,61.9824219 C145.698242,62.3691406 145.476562,62.9140625 145.476562,63.6171875 C145.476562,64.0546875 145.581055,64.4365234 145.790039,64.7626953 C145.999023,65.0888672 146.271484,65.3242188 146.607422,65.46875 C146.337891,65.6328125 146.134766,65.7988281 145.998047,65.9667969 C145.861328,66.1347656 145.792969,66.3398438 145.792969,66.5820312 C145.792969,66.7734375 145.852539,66.9560547 145.97168,67.1298828 C146.09082,67.3037109 146.242188,67.4296875 146.425781,67.5078125 C145.972656,67.6132812 145.620117,67.8017578 145.368164,68.0732422 C145.116211,68.3447266 144.990234,68.6796875 144.990234,69.078125 C144.990234,69.65625 145.222656,70.1015625 145.6875,70.4140625 C146.152344,70.7265625 146.826172,70.8828125 147.708984,70.8828125 Z M148.025391,64.8828125 C147.634766,64.8828125 147.334961,64.7734375 147.125977,64.5546875 C146.916992,64.3359375 146.8125,64.0234375 146.8125,63.6171875 C146.8125,63.1835938 146.915039,62.8535156 147.120117,62.6269531 C147.325195,62.4003906 147.626953,62.2871094 148.025391,62.2871094 C148.427734,62.2871094 148.727539,62.4013672 148.924805,62.6298828 C149.12207,62.8583984 149.220703,63.1835938 149.220703,63.6054688 C149.220703,64.4570312 148.822266,64.8828125 148.025391,64.8828125 Z M147.75,69.9335938 C147.265625,69.9335938 146.889648,69.8535156 146.62207,69.6933594 C146.354492,69.5332031 146.220703,69.3046875 146.220703,69.0078125 C146.220703,68.6914062 146.336914,68.4404297 146.569336,68.2548828 C146.801758,68.0693359 147.115234,67.9765625 147.509766,67.9765625 L147.509766,67.9765625 L148.552734,67.9765625 C149.099609,67.9765625 149.473633,68.0361328 149.674805,68.1552734 C149.875977,68.2744141 149.976562,68.4746094 149.976562,68.7558594 C149.976562,69.1113281 149.792969,69.3964844 149.425781,69.6113281 C149.058594,69.8261719 148.5,69.9335938 147.75,69.9335938 Z M92.3613281,80 L92.3613281,76.7714844 C92.3613281,75.9628906 92.4960938,75.3867188 92.765625,75.0429688 C93.0351562,74.6992188 93.4609375,74.5273438 94.0429688,74.5273438 C94.4804688,74.5273438 94.7998047,74.6503906 95.0009766,74.8964844 C95.2021484,75.1425781 95.3027344,75.515625 95.3027344,76.015625 L95.3027344,76.015625 L95.3027344,80 L96.6855469,80 L96.6855469,75.7753906 C96.6855469,74.1933594 95.9082031,73.4023438 94.3535156,73.4023438 C93.9160156,73.4023438 93.5175781,73.4863281 93.1582031,73.6542969 C92.7988281,73.8222656 92.5214844,74.0605469 92.3261719,74.3691406 L92.3261719,74.3691406 L92.2558594,74.3691406 L92.0625,73.5195312 L90.984375,73.5195312 L90.984375,80 L92.3613281,80 Z M101.431641,80.1171875 C101.873047,80.1171875 102.265625,80.0839844 102.609375,80.0175781 C102.953125,79.9511719 103.292969,79.8378906 103.628906,79.6777344 L103.628906,79.6777344 L103.628906,78.5585938 C103.25,78.7265625 102.895508,78.8466797 102.56543,78.9189453 C102.235352,78.9912109 101.878906,79.0273438 101.496094,79.0273438 C100.914062,79.0273438 100.462891,78.8583984 100.142578,78.5205078 C99.8222656,78.1826172 99.6523438,77.6992188 99.6328125,77.0703125 L99.6328125,77.0703125 L103.951172,77.0703125 L103.951172,76.3261719 C103.951172,75.4160156 103.703125,74.7011719 103.207031,74.1816406 C102.710938,73.6621094 102.035156,73.4023438 101.179688,73.4023438 C100.257812,73.4023438 99.5332031,73.7050781 99.0058594,74.3105469 C98.4785156,74.9160156 98.2148438,75.7480469 98.2148438,76.8066406 C98.2148438,77.8378906 98.4990234,78.6474609 99.0673828,79.2353516 C99.6357422,79.8232422 100.423828,80.1171875 101.431641,80.1171875 Z M102.597656,76.0742188 L99.65625,76.0742188 C99.7070312,75.5429688 99.8642578,75.1386719 100.12793,74.8613281 C100.391602,74.5839844 100.742188,74.4453125 101.179688,74.4453125 C101.617188,74.4453125 101.960938,74.5830078 102.210938,74.8583984 C102.460938,75.1337891 102.589844,75.5390625 102.597656,76.0742188 L102.597656,76.0742188 Z M107.988281,80 L108.849609,76.9882812 C108.982422,76.546875 109.162109,75.7988281 109.388672,74.7441406 L109.388672,74.7441406 L109.441406,74.7441406 C109.707031,75.9121094 109.890625,76.65625 109.992188,76.9765625 L109.992188,76.9765625 L110.830078,80 L112.376953,80 L114.205078,73.5195312 L112.822266,73.5195312 L111.984375,76.7128906 C111.769531,77.5761719 111.632812,78.2480469 111.574219,78.7285156 L111.574219,78.7285156 L111.527344,78.7285156 C111.511719,78.5097656 111.459961,78.203125 111.37207,77.8085938 C111.28418,77.4140625 111.210938,77.1210938 111.152344,76.9296875 L111.152344,76.9296875 L110.197266,73.5195312 L108.685547,73.5195312 L107.701172,76.9296875 C107.642578,77.1132812 107.573242,77.3896484 107.493164,77.7587891 C107.413086,78.1279297 107.353516,78.4550781 107.314453,78.7402344 L107.314453,78.7402344 L107.279297,78.7402344 C107.201172,78.1777344 107.068359,77.5019531 106.880859,76.7128906 L106.880859,76.7128906 L106.054688,73.5195312 L104.648438,73.5195312 L106.464844,80 L107.988281,80 Z M115.980469,80.1699219 C116.261719,80.1699219 116.477539,80.0888672 116.62793,79.9267578 C116.77832,79.7646484 116.853516,79.5449219 116.853516,79.2675781 C116.853516,78.9941406 116.779297,78.7783203 116.630859,78.6201172 C116.482422,78.4619141 116.265625,78.3828125 115.980469,78.3828125 C115.699219,78.3828125 115.484375,78.4589844 115.335938,78.6113281 C115.1875,78.7636719 115.113281,78.9824219 115.113281,79.2675781 C115.113281,79.5488281 115.1875,79.7695312 115.335938,79.9296875 C115.484375,80.0898438 115.699219,80.1699219 115.980469,80.1699219 Z" id="Createsomethingnew." fill="#FFFFFF" fill-rule="nonzero"></path>
            </g>
        </g>
    </g>
</svg>