<?xml version="1.0" encoding="UTF-8"?>
<svg width="163px" height="97px" viewBox="0 0 163 97" version="1.1" xmlns="http://www.w3.org/2000/svg" xmlns:xlink="http://www.w3.org/1999/xlink">
    <!-- Generator: Sketch 62 (91390) - https://sketch.com -->
    <title>Infer</title>
    <desc>Created with Sketch.</desc>
    <defs>
        <radialGradient cx="26.0530847%" cy="62.3934409%" fx="26.0530847%" fy="62.3934409%" r="35.1006849%" gradientTransform="translate(0.260531,0.623934),scale(0.595092,1.000000),rotate(-90.000000),translate(-0.260531,-0.623934)" id="radialGradient-1">
            <stop stop-color="#F5836F" offset="0%"></stop>
            <stop stop-color="#E74C3C" offset="100%"></stop>
        </radialGradient>
        <path d="M3.5859375,18 L3.5859375,5.86425781 L1.60205078,5.86425781 L1.60205078,18 L3.5859375,18 Z M8.53320312,18 L8.53320312,13.4262695 C8.53320312,12.2807617 8.72412109,11.4645182 9.10595703,10.9775391 C9.48779297,10.4905599 10.0909831,10.2470703 10.9155273,10.2470703 C11.535319,10.2470703 11.9877116,10.4213867 12.2727051,10.7700195 C12.5576986,11.1186523 12.7001953,11.6471354 12.7001953,12.3554688 L12.7001953,12.3554688 L12.7001953,18 L14.6591797,18 L14.6591797,12.0151367 C14.6591797,9.77392578 13.5579427,8.65332031 11.3554688,8.65332031 C10.7356771,8.65332031 10.171224,8.77229818 9.66210938,9.01025391 C9.15299479,9.24820964 8.76009115,9.58577474 8.48339844,10.0229492 L8.48339844,10.0229492 L8.38378906,10.0229492 L8.10986328,8.81933594 L6.58251953,8.81933594 L6.58251953,18 L8.53320312,18 Z M19.7392578,18 L19.7392578,10.296875 L21.9804688,10.296875 L21.9804688,8.81933594 L19.7392578,8.81933594 L19.7392578,8.22167969 C19.7392578,7.67382812 19.8402507,7.26293945 20.0422363,6.98901367 C20.244222,6.71508789 20.566569,6.578125 21.0092773,6.578125 C21.4464518,6.578125 21.9057617,6.65559896 22.387207,6.81054688 L22.387207,6.81054688 L22.9018555,5.33300781 C22.237793,5.10611979 21.5626628,4.99267578 20.8764648,4.99267578 C19.8305664,4.99267578 19.0530599,5.25415039 18.5439453,5.77709961 C18.0348307,6.30004883 17.7802734,7.10384115 17.7802734,8.18847656 L17.7802734,8.18847656 L17.7802734,8.78613281 L16.2695312,9.38378906 L16.2695312,10.296875 L17.7802734,10.296875 L17.7802734,18 L19.7392578,18 Z M27.550293,18.1660156 C28.1756185,18.1660156 28.7317708,18.1189779 29.21875,18.0249023 C29.7057292,17.9308268 30.1871745,17.7703451 30.6630859,17.543457 L30.6630859,17.543457 L30.6630859,15.9580078 C30.1263021,16.1959635 29.6241048,16.3661296 29.1564941,16.4685059 C28.6888835,16.5708822 28.1839193,16.6220703 27.6416016,16.6220703 C26.8170573,16.6220703 26.1778971,16.3827311 25.7241211,15.9040527 C25.2703451,15.4253743 25.0296224,14.7405599 25.0019531,13.8496094 L25.0019531,13.8496094 L31.1196289,13.8496094 L31.1196289,12.7954102 C31.1196289,11.5060221 30.7682292,10.4933268 30.0654297,9.75732422 C29.3626302,9.02132161 28.4052734,8.65332031 27.1933594,8.65332031 C25.8873698,8.65332031 24.8608398,9.08219401 24.1137695,9.93994141 C23.3666992,10.7976888 22.9931641,11.9763997 22.9931641,13.4760742 C22.9931641,14.9370117 23.395752,16.083903 24.2009277,16.916748 C25.0061035,17.7495931 26.1225586,18.1660156 27.550293,18.1660156 Z M29.2021484,12.4384766 L25.0351562,12.4384766 C25.1070964,11.6858724 25.329834,11.1131185 25.7033691,10.7202148 C26.0769043,10.3273112 26.5735677,10.1308594 27.1933594,10.1308594 C27.813151,10.1308594 28.3001302,10.3259277 28.6542969,10.7160645 C29.0084635,11.1062012 29.1910807,11.6803385 29.2021484,12.4384766 L29.2021484,12.4384766 Z M35.2866211,18 L35.2866211,13.2021484 C35.2866211,12.3886719 35.5287272,11.7273763 36.0129395,11.2182617 C36.4971517,10.7091471 37.1293945,10.4545898 37.909668,10.4545898 C38.2084961,10.4545898 38.4962565,10.487793 38.7729492,10.5541992 L38.7729492,10.5541992 L38.9638672,8.73632812 C38.7093099,8.68098958 38.3855794,8.65332031 37.9926758,8.65332031 C37.4282227,8.65332031 36.901123,8.81380208 36.411377,9.13476562 C35.9216309,9.45572917 35.5245768,9.89013672 35.2202148,10.4379883 L35.2202148,10.4379883 L35.1206055,10.4379883 L34.8632812,8.81933594 L33.3359375,8.81933594 L33.3359375,18 L35.2866211,18 Z" id="path-2"></path>
    </defs>
    <g id="Symbols" stroke="none" stroke-width="1" fill="none" fill-rule="evenodd">
        <g id="i/Infer">
            <g id="Infer">
                <path d="M6,0 L157,0 C160.313708,-6.08718376e-16 163,2.6862915 163,6 L163,91 C163,94.3137085 160.313708,97 157,97 L6,97 C2.6862915,97 4.05812251e-16,94.3137085 0,91 L0,6 C-4.05812251e-16,2.6862915 2.6862915,6.08718376e-16 6,0 Z" id="Rectangle-2" fill="url(#radialGradient-1)" fill-rule="nonzero"></path>
                <g id="noun_275364_E74C3C" transform="translate(18.000000, 45.000000)" fill-rule="nonzero">
                    <g id="Group">
                        <path d="M25.3123595,31.7514888 L22,31.7514888 L22,28.9425103 C22,27.3875401 20.7640449,26.1335319 19.2314606,26.1335319 L13.8921348,26.1335319 L13.8921348,19.9638113 L13.3977528,19.9638113 L13.3977528,26.1335319 L8.05842695,26.1335319 C6.5258427,26.1335319 5.28988764,27.3875401 5.28988764,28.9425103 L5.28988764,31.7514888 L1.92808989,31.7514888 C0.840449443,31.7514888 0,32.6543747 0,33.7077416 C0,34.7611086 0.889887638,35.6639945 1.92808989,35.6639945 L9.09662919,35.6639945 C10.1842697,35.6639945 11.0247191,34.7611086 11.0247191,33.7077416 C11.0247191,32.6543747 10.1348314,31.7514888 9.09662919,31.7514888 L5.78426967,31.7514888 L5.78426967,28.9425103 C5.78426967,27.6885021 6.8224719,26.6351351 8.05842695,26.6351351 L19.2314606,26.6351351 C20.4674157,26.6351351 21.505618,27.6885021 21.505618,28.9425103 L21.505618,31.7514888 L18.1932584,31.7514888 C17.105618,31.7514888 16.2651686,32.6543747 16.2651686,33.7077416 C16.2651686,34.7611086 17.1550562,35.6639945 18.1932584,35.6639945 L25.3123595,35.6639945 C26.4,35.6639945 27.2404494,34.7611086 27.2404494,33.7077416 C27.2404494,32.6543747 26.4,31.7514888 25.3123595,31.7514888 Z" id="Shape" fill="#9B9B9B"></path>
                        <path d="M24.6202247,18.0075584 C24.6202247,17.0545121 25.3617978,16.3021072 26.3011236,16.3021072 L33.4202247,16.3021072 C34.3595506,16.3021072 35.1011236,17.0545121 35.1011236,18.0075584 C35.1011236,18.9606047 34.3595506,19.7130096 33.4202247,19.7130096 L26.3011236,19.7130096 C25.3617978,19.7130096 24.6202247,18.9606047 24.6202247,18.0075584 Z M41.5775281,35.4131929 L34.4089887,35.4131929 C33.4696629,35.4131929 32.7280899,34.6607879 32.7280899,33.7077416 C32.7280899,32.7546954 33.4696629,32.0022904 34.4089887,32.0022904 L41.5775281,32.0022904 C42.516854,32.0022904 43.258427,32.7546954 43.258427,33.7077416 C43.258427,34.6607879 42.516854,35.4131929 41.5775281,35.4131929 Z" id="Shape" fill="#BDC3C7"></path>
                        <path d="M41.5775281,31.5006871 L38.2651686,31.5006871 L38.2651686,28.9425103 C38.2651686,27.3875401 37.0292135,26.1335319 35.4966292,26.1335319 L32.4314606,26.1335319 C31.1955056,26.1335319 30.1573033,25.0801649 30.1573033,23.8261567 L30.1573033,20.2647732 L33.4696629,20.2647732 C34.6561798,20.2647732 35.6449438,19.2615667 35.6449438,18.0577187 C35.6449438,16.8538708 34.6561798,15.8506642 33.4696629,15.8506642 L30.1573033,15.8506642 L30.1573033,12.9915254 C30.1573033,11.4365552 28.9213483,10.182547 27.388764,10.182547 L22,10.182547 L22,4.26362803 L25.3123595,4.26362803 C26.4,4.26362803 27.2404494,3.3607421 27.2404494,2.30737517 C27.2404494,1.25400825 26.3505618,0.351122308 25.3123595,0.351122308 L18.1932584,0.351122308 C17.105618,0.351122308 16.2651686,1.25400825 16.2651686,2.30737517 C16.2651686,3.3607421 17.1550562,4.26362803 18.1932584,4.26362803 L21.505618,4.26362803 L21.505618,10.1323866 L16.1662921,10.1323866 C14.6337079,10.1323866 13.3977528,11.3863949 13.3977528,12.9413651 L13.3977528,16.0513055 L10.0853933,16.0513055 C8.99775282,16.0513055 8.15730333,16.9541915 8.15730333,18.0075584 C8.15730333,19.1110856 9.04719098,19.9638113 10.0853933,19.9638113 L17.2539326,19.9638113 C18.341573,19.9638113 19.1820225,19.0609254 19.1820225,18.0075584 C19.1820225,16.9040311 18.2921348,16.0513055 17.2539326,16.0513055 L13.941573,16.0513055 L13.941573,12.9413651 C13.941573,11.6873569 14.9797753,10.63399 16.2157303,10.63399 L27.388764,10.63399 C28.6247191,10.63399 29.6629213,11.6873569 29.6629213,12.9413651 L29.6629213,15.8005039 L26.3505618,15.8005039 C25.1640449,15.8005039 24.1752809,16.8037105 24.1752809,18.0075584 C24.1752809,19.2114063 25.1640449,20.2146129 26.3505618,20.2146129 L29.6629213,20.2146129 L29.6629213,23.7759963 C29.6629213,25.3309665 30.8988764,26.5849749 32.4314606,26.5849749 L35.4966292,26.5849749 C36.7325843,26.5849749 37.7707865,27.6383417 37.7707865,28.89235 L37.7707865,31.4505268 L34.458427,31.4505268 C33.2719101,31.4505268 32.283146,32.4537334 32.283146,33.6575813 C32.283146,34.8614292 33.2719101,35.8646358 34.458427,35.8646358 L41.6269663,35.8646358 C42.8134832,35.8646358 43.8022472,34.8614292 43.8022472,33.6575813 C43.8022472,32.4537334 42.7640449,31.5006871 41.5775281,31.5006871 Z" id="Path" fill="#FFFFFF"></path>
                    </g>
                </g>
                <polyline id="Line-2" stroke="#FFFFFF" stroke-width="4" stroke-linecap="square" points="2 30 20.4627861 30 161 30"></polyline>
                <line x1="81" y1="45" x2="81" y2="85.0042519" id="Line-3" stroke="#FFFFFF" stroke-width="2" stroke-linecap="square"></line>
                <g id="Adverbs" transform="translate(59.000000, 3.000000)" fill="#FFFFFF" fill-rule="nonzero">
                    <g id="Infer">
                        <use xlink:href="#path-2"></use>
                        <use xlink:href="#path-2"></use>
                    </g>
                </g>
                <path d="M95.9765625,51 L95.9765625,49.8105469 L92.53125,49.8105469 L92.53125,47.1210938 L95.7597656,47.1210938 L95.7597656,45.9492188 L92.53125,45.9492188 L92.53125,43.6171875 L95.9765625,43.6171875 L95.9765625,42.4335938 L91.1308594,42.4335938 L91.1308594,51 L95.9765625,51 Z M99.8671875,51.1171875 C100.71875,51.1171875 101.365234,50.7949219 101.806641,50.1503906 L101.806641,50.1503906 L101.871094,50.1503906 L102.111328,51 L103.189453,51 L103.189453,41.8828125 L101.806641,41.8828125 L101.806641,44.2441406 C101.806641,44.5136719 101.839844,44.8808594 101.90625,45.3457031 L101.90625,45.3457031 L101.835938,45.3457031 C101.390625,44.7167969 100.742188,44.4023438 99.890625,44.4023438 C99.078125,44.4023438 98.4423828,44.6982422 97.9833984,45.2900391 C97.5244141,45.8818359 97.2949219,46.7089844 97.2949219,47.7714844 C97.2949219,48.8300781 97.5214844,49.6523438 97.9746094,50.2382812 C98.4277344,50.8242188 99.0585938,51.1171875 99.8671875,51.1171875 Z M100.236328,50.0039062 C99.7285156,50.0039062 99.3476562,49.8154297 99.09375,49.4384766 C98.8398438,49.0615234 98.7128906,48.5136719 98.7128906,47.7949219 C98.7128906,47.0683594 98.84375,46.5087891 99.1054688,46.1162109 C99.3671875,45.7236328 99.7402344,45.5273438 100.224609,45.5273438 C100.791016,45.5273438 101.207031,45.6992188 101.472656,46.0429688 C101.738281,46.3867188 101.871094,46.9667969 101.871094,47.7832031 L101.871094,47.7832031 L101.871094,47.9765625 C101.863281,48.6914062 101.730469,49.2080078 101.472656,49.5263672 C101.214844,49.8447266 100.802734,50.0039062 100.236328,50.0039062 Z M107.4375,51.1171875 C107.890625,51.1171875 108.293945,51.03125 108.647461,50.859375 C109.000977,50.6875 109.273438,50.4511719 109.464844,50.1503906 L109.464844,50.1503906 L109.535156,50.1503906 L109.728516,51 L110.8125,51 L110.8125,44.5195312 L109.429688,44.5195312 L109.429688,47.7480469 C109.429688,48.5605469 109.293945,49.1396484 109.022461,49.4853516 C108.750977,49.8310547 108.326172,50.0039062 107.748047,50.0039062 C107.314453,50.0039062 106.996094,49.8798828 106.792969,49.6318359 C106.589844,49.3837891 106.488281,49.0117188 106.488281,48.515625 L106.488281,48.515625 L106.488281,44.5195312 L105.099609,44.5195312 L105.099609,48.7558594 C105.099609,49.5488281 105.292969,50.140625 105.679688,50.53125 C106.066406,50.921875 106.652344,51.1171875 107.4375,51.1171875 Z M115.388672,51.1171875 C115.787109,51.1171875 116.125977,51.0859375 116.405273,51.0234375 C116.68457,50.9609375 116.947266,50.8574219 117.193359,50.7128906 L117.193359,50.7128906 L117.193359,49.5117188 C116.646484,49.8164062 116.066406,49.96875 115.453125,49.96875 C114.914062,49.96875 114.504883,49.7861328 114.225586,49.4208984 C113.946289,49.0556641 113.806641,48.5097656 113.806641,47.7832031 C113.806641,46.2949219 114.367188,45.5507812 115.488281,45.5507812 C115.867188,45.5507812 116.347656,45.6640625 116.929688,45.890625 L116.929688,45.890625 L117.345703,44.7832031 C116.798828,44.5292969 116.183594,44.4023438 115.5,44.4023438 C114.492188,44.4023438 113.72168,44.6953125 113.188477,45.28125 C112.655273,45.8671875 112.388672,46.7050781 112.388672,47.7949219 C112.388672,48.8652344 112.643555,49.6865234 113.15332,50.2587891 C113.663086,50.8310547 114.408203,51.1171875 115.388672,51.1171875 Z M120.287109,51.1171875 C120.783203,51.1171875 121.189453,51.0458984 121.505859,50.9033203 C121.822266,50.7607422 122.136719,50.4921875 122.449219,50.0976562 L122.449219,50.0976562 L122.496094,50.0976562 L122.771484,51 L123.755859,51 L123.755859,46.6347656 C123.755859,45.8652344 123.545898,45.3007812 123.125977,44.9414062 C122.706055,44.5820312 122.083984,44.4023438 121.259766,44.4023438 C120.888672,44.4023438 120.494141,44.4501953 120.076172,44.5458984 C119.658203,44.6416016 119.273438,44.78125 118.921875,44.9648438 L118.921875,44.9648438 L119.367188,45.9492188 C119.648438,45.8164062 119.941406,45.7011719 120.246094,45.6035156 C120.550781,45.5058594 120.869141,45.4570312 121.201172,45.4570312 C121.607422,45.4570312 121.907227,45.5595703 122.100586,45.7646484 C122.293945,45.9697266 122.390625,46.2792969 122.390625,46.6933594 L122.390625,46.6933594 L122.390625,47.0390625 L121.271484,47.0742188 C120.255859,47.1054688 119.5,47.2910156 119.003906,47.6308594 C118.507812,47.9707031 118.259766,48.4746094 118.259766,49.1425781 C118.259766,49.7714844 118.438477,50.2578125 118.795898,50.6015625 C119.15332,50.9453125 119.650391,51.1171875 120.287109,51.1171875 Z M120.720703,50.0625 C120.376953,50.0625 120.119141,49.9833984 119.947266,49.8251953 C119.775391,49.6669922 119.689453,49.4433594 119.689453,49.1542969 C119.689453,48.7558594 119.836914,48.4599609 120.131836,48.2666016 C120.426758,48.0732422 120.898438,47.9648438 121.546875,47.9414062 L121.546875,47.9414062 L122.378906,47.90625 L122.378906,48.46875 C122.378906,48.9726562 122.227539,49.3642578 121.924805,49.6435547 C121.62207,49.9228516 121.220703,50.0625 120.720703,50.0625 Z M127.763672,51.1171875 C128.021484,51.1171875 128.270508,51.0947266 128.510742,51.0498047 C128.750977,51.0048828 128.947266,50.9492188 129.099609,50.8828125 L129.099609,50.8828125 L129.099609,49.8457031 C128.763672,49.9511719 128.427734,50.0039062 128.091797,50.0039062 C127.822266,50.0039062 127.604492,49.9248047 127.438477,49.7666016 C127.272461,49.6083984 127.189453,49.3632812 127.189453,49.03125 L127.189453,49.03125 L127.189453,45.5625 L129.035156,45.5625 L129.035156,44.5195312 L127.189453,44.5195312 L127.189453,43.078125 L126.339844,43.078125 L125.871094,44.4492188 L124.921875,44.953125 L124.921875,45.5625 L125.806641,45.5625 L125.806641,49.0546875 C125.806641,50.4296875 126.458984,51.1171875 127.763672,51.1171875 Z M133.224609,51.1171875 C133.666016,51.1171875 134.058594,51.0839844 134.402344,51.0175781 C134.746094,50.9511719 135.085938,50.8378906 135.421875,50.6777344 L135.421875,50.6777344 L135.421875,49.5585938 C135.042969,49.7265625 134.688477,49.8466797 134.358398,49.9189453 C134.02832,49.9912109 133.671875,50.0273438 133.289062,50.0273438 C132.707031,50.0273438 132.255859,49.8583984 131.935547,49.5205078 C131.615234,49.1826172 131.445312,48.6992188 131.425781,48.0703125 L131.425781,48.0703125 L135.744141,48.0703125 L135.744141,47.3261719 C135.744141,46.4160156 135.496094,45.7011719 135,45.1816406 C134.503906,44.6621094 133.828125,44.4023438 132.972656,44.4023438 C132.050781,44.4023438 131.326172,44.7050781 130.798828,45.3105469 C130.271484,45.9160156 130.007812,46.7480469 130.007812,47.8066406 C130.007812,48.8378906 130.291992,49.6474609 130.860352,50.2353516 C131.428711,50.8232422 132.216797,51.1171875 133.224609,51.1171875 Z M134.390625,47.0742188 L131.449219,47.0742188 C131.5,46.5429688 131.657227,46.1386719 131.920898,45.8613281 C132.18457,45.5839844 132.535156,45.4453125 132.972656,45.4453125 C133.410156,45.4453125 133.753906,45.5830078 134.003906,45.8583984 C134.253906,46.1337891 134.382812,46.5390625 134.390625,47.0742188 L134.390625,47.0742188 Z M139.494141,51.1171875 C140.345703,51.1171875 140.992188,50.7949219 141.433594,50.1503906 L141.433594,50.1503906 L141.498047,50.1503906 L141.738281,51 L142.816406,51 L142.816406,41.8828125 L141.433594,41.8828125 L141.433594,44.2441406 C141.433594,44.5136719 141.466797,44.8808594 141.533203,45.3457031 L141.533203,45.3457031 L141.462891,45.3457031 C141.017578,44.7167969 140.369141,44.4023438 139.517578,44.4023438 C138.705078,44.4023438 138.069336,44.6982422 137.610352,45.2900391 C137.151367,45.8818359 136.921875,46.7089844 136.921875,47.7714844 C136.921875,48.8300781 137.148438,49.6523438 137.601562,50.2382812 C138.054688,50.8242188 138.685547,51.1171875 139.494141,51.1171875 Z M139.863281,50.0039062 C139.355469,50.0039062 138.974609,49.8154297 138.720703,49.4384766 C138.466797,49.0615234 138.339844,48.5136719 138.339844,47.7949219 C138.339844,47.0683594 138.470703,46.5087891 138.732422,46.1162109 C138.994141,45.7236328 139.367188,45.5273438 139.851562,45.5273438 C140.417969,45.5273438 140.833984,45.6992188 141.099609,46.0429688 C141.365234,46.3867188 141.498047,46.9667969 141.498047,47.7832031 L141.498047,47.7832031 L141.498047,47.9765625 C141.490234,48.6914062 141.357422,49.2080078 141.099609,49.5263672 C140.841797,49.8447266 140.429688,50.0039062 139.863281,50.0039062 Z M92.8535156,65.8828125 C93.9980469,65.8828125 94.8730469,65.6835938 95.4785156,65.2851562 C96.0839844,64.8867188 96.3867188,64.3203125 96.3867188,63.5859375 C96.3867188,63.0117188 96.2011719,62.5722656 95.8300781,62.2675781 C95.4589844,61.9628906 94.9160156,61.8105469 94.2011719,61.8105469 L94.2011719,61.8105469 L93.0703125,61.8105469 C92.6992188,61.8105469 92.4443359,61.7734375 92.3056641,61.6992188 C92.1669922,61.625 92.0976562,61.5136719 92.0976562,61.3652344 C92.0976562,61.1191406 92.2460938,60.9042969 92.5429688,60.7207031 C92.7109375,60.7519531 92.8984375,60.7675781 93.1054688,60.7675781 C93.9140625,60.7675781 94.5488281,60.5761719 95.0097656,60.1933594 C95.4707031,59.8105469 95.7011719,59.2851562 95.7011719,58.6171875 C95.7011719,58.3945312 95.6679688,58.1835938 95.6015625,57.984375 C95.5351562,57.7851562 95.4511719,57.6171875 95.3496094,57.4804688 L95.3496094,57.4804688 L96.4570312,57.2753906 L96.4570312,56.5195312 L94.2128906,56.5195312 C94.1113281,56.4921875 93.9599609,56.4658203 93.7587891,56.4404297 C93.5576172,56.4150391 93.3652344,56.4023438 93.1816406,56.4023438 C92.3613281,56.4023438 91.7294922,56.5957031 91.2861328,56.9824219 C90.8427734,57.3691406 90.6210938,57.9140625 90.6210938,58.6171875 C90.6210938,59.0546875 90.7255859,59.4365234 90.9345703,59.7626953 C91.1435547,60.0888672 91.4160156,60.3242188 91.7519531,60.46875 C91.4824219,60.6328125 91.2792969,60.7988281 91.1425781,60.9667969 C91.0058594,61.1347656 90.9375,61.3398438 90.9375,61.5820312 C90.9375,61.7734375 90.9970703,61.9560547 91.1162109,62.1298828 C91.2353516,62.3037109 91.3867188,62.4296875 91.5703125,62.5078125 C91.1171875,62.6132812 90.7646484,62.8017578 90.5126953,63.0732422 C90.2607422,63.3447266 90.1347656,63.6796875 90.1347656,64.078125 C90.1347656,64.65625 90.3671875,65.1015625 90.8320312,65.4140625 C91.296875,65.7265625 91.9707031,65.8828125 92.8535156,65.8828125 Z M93.1699219,59.8828125 C92.7792969,59.8828125 92.4794922,59.7734375 92.2705078,59.5546875 C92.0615234,59.3359375 91.9570312,59.0234375 91.9570312,58.6171875 C91.9570312,58.1835938 92.0595703,57.8535156 92.2646484,57.6269531 C92.4697266,57.4003906 92.7714844,57.2871094 93.1699219,57.2871094 C93.5722656,57.2871094 93.8720703,57.4013672 94.0693359,57.6298828 C94.2666016,57.8583984 94.3652344,58.1835938 94.3652344,58.6054688 C94.3652344,59.4570312 93.9667969,59.8828125 93.1699219,59.8828125 Z M92.8945312,64.9335938 C92.4101562,64.9335938 92.0341797,64.8535156 91.7666016,64.6933594 C91.4990234,64.5332031 91.3652344,64.3046875 91.3652344,64.0078125 C91.3652344,63.6914062 91.4814453,63.4404297 91.7138672,63.2548828 C91.9462891,63.0693359 92.2597656,62.9765625 92.6542969,62.9765625 L92.6542969,62.9765625 L93.6972656,62.9765625 C94.2441406,62.9765625 94.6181641,63.0361328 94.8193359,63.1552734 C95.0205078,63.2744141 95.1210938,63.4746094 95.1210938,63.7558594 C95.1210938,64.1113281 94.9375,64.3964844 94.5703125,64.6113281 C94.203125,64.8261719 93.6445312,64.9335938 92.8945312,64.9335938 Z M99.9375,63.1171875 C100.390625,63.1171875 100.793945,63.03125 101.147461,62.859375 C101.500977,62.6875 101.773438,62.4511719 101.964844,62.1503906 L101.964844,62.1503906 L102.035156,62.1503906 L102.228516,63 L103.3125,63 L103.3125,56.5195312 L101.929688,56.5195312 L101.929688,59.7480469 C101.929688,60.5605469 101.793945,61.1396484 101.522461,61.4853516 C101.250977,61.8310547 100.826172,62.0039062 100.248047,62.0039062 C99.8144531,62.0039062 99.4960938,61.8798828 99.2929688,61.6318359 C99.0898438,61.3837891 98.9882812,61.0117188 98.9882812,60.515625 L98.9882812,60.515625 L98.9882812,56.5195312 L97.5996094,56.5195312 L97.5996094,60.7558594 C97.5996094,61.5488281 97.7929688,62.140625 98.1796875,62.53125 C98.5664062,62.921875 99.1523438,63.1171875 99.9375,63.1171875 Z M108.105469,63.1171875 C108.546875,63.1171875 108.939453,63.0839844 109.283203,63.0175781 C109.626953,62.9511719 109.966797,62.8378906 110.302734,62.6777344 L110.302734,62.6777344 L110.302734,61.5585938 C109.923828,61.7265625 109.569336,61.8466797 109.239258,61.9189453 C108.90918,61.9912109 108.552734,62.0273438 108.169922,62.0273438 C107.587891,62.0273438 107.136719,61.8583984 106.816406,61.5205078 C106.496094,61.1826172 106.326172,60.6992188 106.306641,60.0703125 L106.306641,60.0703125 L110.625,60.0703125 L110.625,59.3261719 C110.625,58.4160156 110.376953,57.7011719 109.880859,57.1816406 C109.384766,56.6621094 108.708984,56.4023438 107.853516,56.4023438 C106.931641,56.4023438 106.207031,56.7050781 105.679688,57.3105469 C105.152344,57.9160156 104.888672,58.7480469 104.888672,59.8066406 C104.888672,60.8378906 105.172852,61.6474609 105.741211,62.2353516 C106.30957,62.8232422 107.097656,63.1171875 108.105469,63.1171875 Z M109.271484,59.0742188 L106.330078,59.0742188 C106.380859,58.5429688 106.538086,58.1386719 106.801758,57.8613281 C107.06543,57.5839844 107.416016,57.4453125 107.853516,57.4453125 C108.291016,57.4453125 108.634766,57.5830078 108.884766,57.8583984 C109.134766,58.1337891 109.263672,58.5390625 109.271484,59.0742188 L109.271484,59.0742188 Z M113.871094,63.1171875 C114.730469,63.1171875 115.390625,62.9482422 115.851562,62.6103516 C116.3125,62.2724609 116.542969,61.7871094 116.542969,61.1542969 C116.542969,60.8417969 116.484375,60.5732422 116.367188,60.3486328 C116.25,60.1240234 116.070312,59.9257812 115.828125,59.7539062 C115.585938,59.5820312 115.197266,59.3925781 114.662109,59.1855469 C114.025391,58.9394531 113.612305,58.7460938 113.422852,58.6054688 C113.233398,58.4648438 113.138672,58.2929688 113.138672,58.0898438 C113.138672,57.6757812 113.501953,57.46875 114.228516,57.46875 C114.705078,57.46875 115.292969,57.6132812 115.992188,57.9023438 L115.992188,57.9023438 L116.4375,56.8652344 C115.757812,56.5566406 115.037109,56.4023438 114.275391,56.4023438 C113.505859,56.4023438 112.897461,56.5556641 112.450195,56.8623047 C112.00293,57.1689453 111.779297,57.5996094 111.779297,58.1542969 C111.779297,58.6152344 111.911133,58.9902344 112.174805,59.2792969 C112.438477,59.5683594 112.943359,59.8574219 113.689453,60.1464844 C114.072266,60.2949219 114.371094,60.4277344 114.585938,60.5449219 C114.800781,60.6621094 114.955078,60.7753906 115.048828,60.8847656 C115.142578,60.9941406 115.189453,61.1308594 115.189453,61.2949219 C115.189453,61.8066406 114.765625,62.0625 113.917969,62.0625 C113.261719,62.0625 112.552734,61.8867188 111.791016,61.5351562 L111.791016,61.5351562 L111.791016,62.7246094 C112.314453,62.9863281 113.007812,63.1171875 113.871094,63.1171875 Z M119.712891,63.1171875 C120.572266,63.1171875 121.232422,62.9482422 121.693359,62.6103516 C122.154297,62.2724609 122.384766,61.7871094 122.384766,61.1542969 C122.384766,60.8417969 122.326172,60.5732422 122.208984,60.3486328 C122.091797,60.1240234 121.912109,59.9257812 121.669922,59.7539062 C121.427734,59.5820312 121.039062,59.3925781 120.503906,59.1855469 C119.867188,58.9394531 119.454102,58.7460938 119.264648,58.6054688 C119.075195,58.4648438 118.980469,58.2929688 118.980469,58.0898438 C118.980469,57.6757812 119.34375,57.46875 120.070312,57.46875 C120.546875,57.46875 121.134766,57.6132812 121.833984,57.9023438 L121.833984,57.9023438 L122.279297,56.8652344 C121.599609,56.5566406 120.878906,56.4023438 120.117188,56.4023438 C119.347656,56.4023438 118.739258,56.5556641 118.291992,56.8623047 C117.844727,57.1689453 117.621094,57.5996094 117.621094,58.1542969 C117.621094,58.6152344 117.75293,58.9902344 118.016602,59.2792969 C118.280273,59.5683594 118.785156,59.8574219 119.53125,60.1464844 C119.914062,60.2949219 120.212891,60.4277344 120.427734,60.5449219 C120.642578,60.6621094 120.796875,60.7753906 120.890625,60.8847656 C120.984375,60.9941406 121.03125,61.1308594 121.03125,61.2949219 C121.03125,61.8066406 120.607422,62.0625 119.759766,62.0625 C119.103516,62.0625 118.394531,61.8867188 117.632812,61.5351562 L117.632812,61.5351562 L117.632812,62.7246094 C118.15625,62.9863281 118.849609,63.1171875 119.712891,63.1171875 Z M92.6542969,75 L92.6542969,69.5625 L94.2363281,69.5625 L94.2363281,68.5195312 L92.6542969,68.5195312 L92.6542969,68.0976562 C92.6542969,67.7109375 92.7255859,67.4208984 92.8681641,67.2275391 C93.0107422,67.0341797 93.2382812,66.9375 93.5507812,66.9375 C93.859375,66.9375 94.1835938,66.9921875 94.5234375,67.1015625 L94.5234375,67.1015625 L94.8867188,66.0585938 C94.4179688,65.8984375 93.9414062,65.8183594 93.4570312,65.8183594 C92.71875,65.8183594 92.1699219,66.0029297 91.8105469,66.3720703 C91.4511719,66.7412109 91.2714844,67.3085938 91.2714844,68.0742188 L91.2714844,68.0742188 L91.2714844,68.4960938 L90.2050781,68.9179688 L90.2050781,69.5625 L91.2714844,69.5625 L91.2714844,75 L92.6542969,75 Z M96.7148438,75 L96.7148438,71.6132812 C96.7148438,71.0390625 96.8857422,70.5722656 97.2275391,70.2128906 C97.5693359,69.8535156 98.015625,69.6738281 98.5664062,69.6738281 C98.7773438,69.6738281 98.9804688,69.6972656 99.1757812,69.7441406 L99.1757812,69.7441406 L99.3105469,68.4609375 C99.1308594,68.421875 98.9023438,68.4023438 98.625,68.4023438 C98.2265625,68.4023438 97.8544922,68.515625 97.5087891,68.7421875 C97.1630859,68.96875 96.8828125,69.2753906 96.6679688,69.6621094 L96.6679688,69.6621094 L96.5976562,69.6621094 L96.4160156,68.5195312 L95.3378906,68.5195312 L95.3378906,75 L96.7148438,75 Z M103.177734,75.1171875 C104.146484,75.1171875 104.902344,74.8203125 105.445312,74.2265625 C105.988281,73.6328125 106.259766,72.8066406 106.259766,71.7480469 C106.259766,70.7246094 105.986328,69.9111328 105.439453,69.3076172 C104.892578,68.7041016 104.150391,68.4023438 103.212891,68.4023438 C102.232422,68.4023438 101.472656,68.6972656 100.933594,69.2871094 C100.394531,69.8769531 100.125,70.6972656 100.125,71.7480469 C100.125,72.4238281 100.25,73.0175781 100.5,73.5292969 C100.75,74.0410156 101.107422,74.4335938 101.572266,74.7070312 C102.037109,74.9804688 102.572266,75.1171875 103.177734,75.1171875 Z M103.201172,73.9921875 C102.095703,73.9921875 101.542969,73.2441406 101.542969,71.7480469 C101.542969,71.0332031 101.672852,70.484375 101.932617,70.1015625 C102.192383,69.71875 102.611328,69.5273438 103.189453,69.5273438 C104.291016,69.5273438 104.841797,70.2675781 104.841797,71.7480469 C104.841797,73.2441406 104.294922,73.9921875 103.201172,73.9921875 Z M109.21875,75 L109.21875,71.7714844 C109.21875,70.9667969 109.342773,70.3916016 109.59082,70.0458984 C109.838867,69.7001953 110.228516,69.5273438 110.759766,69.5273438 C111.158203,69.5273438 111.451172,69.6494141 111.638672,69.8935547 C111.826172,70.1376953 111.919922,70.5078125 111.919922,71.0039062 L111.919922,71.0039062 L111.919922,75 L113.302734,75 L113.302734,71.5664062 C113.302734,70.875 113.426758,70.3623047 113.674805,70.0283203 C113.922852,69.6943359 114.314453,69.5273438 114.849609,69.5273438 C115.248047,69.5273438 115.541992,69.6494141 115.731445,69.8935547 C115.920898,70.1376953 116.015625,70.5078125 116.015625,71.0039062 L116.015625,71.0039062 L116.015625,75 L117.392578,75 L117.392578,70.7753906 C117.392578,69.9746094 117.21582,69.3789062 116.862305,68.9882812 C116.508789,68.5976562 115.945312,68.4023438 115.171875,68.4023438 C114.722656,68.4023438 114.324219,68.4921875 113.976562,68.671875 C113.628906,68.8515625 113.359375,69.1015625 113.167969,69.421875 L113.167969,69.421875 L113.074219,69.421875 C112.75,68.7421875 112.089844,68.4023438 111.09375,68.4023438 C110.683594,68.4023438 110.307617,68.4863281 109.96582,68.6542969 C109.624023,68.8222656 109.363281,69.0605469 109.183594,69.3691406 L109.183594,69.3691406 L109.113281,69.3691406 L108.919922,68.5195312 L107.841797,68.5195312 L107.841797,75 L109.21875,75 Z M92.3613281,87 L92.3613281,83.6132812 C92.3613281,83.0390625 92.5322266,82.5722656 92.8740234,82.2128906 C93.2158203,81.8535156 93.6621094,81.6738281 94.2128906,81.6738281 C94.4238281,81.6738281 94.6269531,81.6972656 94.8222656,81.7441406 L94.8222656,81.7441406 L94.9570312,80.4609375 C94.7773438,80.421875 94.5488281,80.4023438 94.2714844,80.4023438 C93.8730469,80.4023438 93.5009766,80.515625 93.1552734,80.7421875 C92.8095703,80.96875 92.5292969,81.2753906 92.3144531,81.6621094 L92.3144531,81.6621094 L92.2441406,81.6621094 L92.0625,80.5195312 L90.984375,80.5195312 L90.984375,87 L92.3613281,87 Z M98.9882812,87.1171875 C99.4296875,87.1171875 99.8222656,87.0839844 100.166016,87.0175781 C100.509766,86.9511719 100.849609,86.8378906 101.185547,86.6777344 L101.185547,86.6777344 L101.185547,85.5585938 C100.806641,85.7265625 100.452148,85.8466797 100.12207,85.9189453 C99.7919922,85.9912109 99.4355469,86.0273438 99.0527344,86.0273438 C98.4707031,86.0273438 98.0195312,85.8583984 97.6992188,85.5205078 C97.3789062,85.1826172 97.2089844,84.6992188 97.1894531,84.0703125 L97.1894531,84.0703125 L101.507812,84.0703125 L101.507812,83.3261719 C101.507812,82.4160156 101.259766,81.7011719 100.763672,81.1816406 C100.267578,80.6621094 99.5917969,80.4023438 98.7363281,80.4023438 C97.8144531,80.4023438 97.0898438,80.7050781 96.5625,81.3105469 C96.0351562,81.9160156 95.7714844,82.7480469 95.7714844,83.8066406 C95.7714844,84.8378906 96.0556641,85.6474609 96.6240234,86.2353516 C97.1923828,86.8232422 97.9804688,87.1171875 98.9882812,87.1171875 Z M100.154297,83.0742188 L97.2128906,83.0742188 C97.2636719,82.5429688 97.4208984,82.1386719 97.6845703,81.8613281 C97.9482422,81.5839844 98.2988281,81.4453125 98.7363281,81.4453125 C99.1738281,81.4453125 99.5175781,81.5830078 99.7675781,81.8583984 C100.017578,82.1337891 100.146484,82.5390625 100.154297,83.0742188 L100.154297,83.0742188 Z M104.642578,87.1171875 C105.138672,87.1171875 105.544922,87.0458984 105.861328,86.9033203 C106.177734,86.7607422 106.492188,86.4921875 106.804688,86.0976562 L106.804688,86.0976562 L106.851562,86.0976562 L107.126953,87 L108.111328,87 L108.111328,82.6347656 C108.111328,81.8652344 107.901367,81.3007812 107.481445,80.9414062 C107.061523,80.5820312 106.439453,80.4023438 105.615234,80.4023438 C105.244141,80.4023438 104.849609,80.4501953 104.431641,80.5458984 C104.013672,80.6416016 103.628906,80.78125 103.277344,80.9648438 L103.277344,80.9648438 L103.722656,81.9492188 C104.003906,81.8164062 104.296875,81.7011719 104.601562,81.6035156 C104.90625,81.5058594 105.224609,81.4570312 105.556641,81.4570312 C105.962891,81.4570312 106.262695,81.5595703 106.456055,81.7646484 C106.649414,81.9697266 106.746094,82.2792969 106.746094,82.6933594 L106.746094,82.6933594 L106.746094,83.0390625 L105.626953,83.0742188 C104.611328,83.1054688 103.855469,83.2910156 103.359375,83.6308594 C102.863281,83.9707031 102.615234,84.4746094 102.615234,85.1425781 C102.615234,85.7714844 102.793945,86.2578125 103.151367,86.6015625 C103.508789,86.9453125 104.005859,87.1171875 104.642578,87.1171875 Z M105.076172,86.0625 C104.732422,86.0625 104.474609,85.9833984 104.302734,85.8251953 C104.130859,85.6669922 104.044922,85.4433594 104.044922,85.1542969 C104.044922,84.7558594 104.192383,84.4599609 104.487305,84.2666016 C104.782227,84.0732422 105.253906,83.9648438 105.902344,83.9414062 L105.902344,83.9414062 L106.734375,83.90625 L106.734375,84.46875 C106.734375,84.9726562 106.583008,85.3642578 106.280273,85.6435547 C105.977539,85.9228516 105.576172,86.0625 105.076172,86.0625 Z M111.714844,87.1171875 C112.574219,87.1171875 113.234375,86.9482422 113.695312,86.6103516 C114.15625,86.2724609 114.386719,85.7871094 114.386719,85.1542969 C114.386719,84.8417969 114.328125,84.5732422 114.210938,84.3486328 C114.09375,84.1240234 113.914062,83.9257812 113.671875,83.7539062 C113.429688,83.5820312 113.041016,83.3925781 112.505859,83.1855469 C111.869141,82.9394531 111.456055,82.7460938 111.266602,82.6054688 C111.077148,82.4648438 110.982422,82.2929688 110.982422,82.0898438 C110.982422,81.6757812 111.345703,81.46875 112.072266,81.46875 C112.548828,81.46875 113.136719,81.6132812 113.835938,81.9023438 L113.835938,81.9023438 L114.28125,80.8652344 C113.601562,80.5566406 112.880859,80.4023438 112.119141,80.4023438 C111.349609,80.4023438 110.741211,80.5556641 110.293945,80.8623047 C109.84668,81.1689453 109.623047,81.5996094 109.623047,82.1542969 C109.623047,82.6152344 109.754883,82.9902344 110.018555,83.2792969 C110.282227,83.5683594 110.787109,83.8574219 111.533203,84.1464844 C111.916016,84.2949219 112.214844,84.4277344 112.429688,84.5449219 C112.644531,84.6621094 112.798828,84.7753906 112.892578,84.8847656 C112.986328,84.9941406 113.033203,85.1308594 113.033203,85.2949219 C113.033203,85.8066406 112.609375,86.0625 111.761719,86.0625 C111.105469,86.0625 110.396484,85.8867188 109.634766,85.5351562 L109.634766,85.5351562 L109.634766,86.7246094 C110.158203,86.9863281 110.851562,87.1171875 111.714844,87.1171875 Z M118.541016,87.1171875 C119.509766,87.1171875 120.265625,86.8203125 120.808594,86.2265625 C121.351562,85.6328125 121.623047,84.8066406 121.623047,83.7480469 C121.623047,82.7246094 121.349609,81.9111328 120.802734,81.3076172 C120.255859,80.7041016 119.513672,80.4023438 118.576172,80.4023438 C117.595703,80.4023438 116.835938,80.6972656 116.296875,81.2871094 C115.757812,81.8769531 115.488281,82.6972656 115.488281,83.7480469 C115.488281,84.4238281 115.613281,85.0175781 115.863281,85.5292969 C116.113281,86.0410156 116.470703,86.4335938 116.935547,86.7070312 C117.400391,86.9804688 117.935547,87.1171875 118.541016,87.1171875 Z M118.564453,85.9921875 C117.458984,85.9921875 116.90625,85.2441406 116.90625,83.7480469 C116.90625,83.0332031 117.036133,82.484375 117.295898,82.1015625 C117.555664,81.71875 117.974609,81.5273438 118.552734,81.5273438 C119.654297,81.5273438 120.205078,82.2675781 120.205078,83.7480469 C120.205078,85.2441406 119.658203,85.9921875 118.564453,85.9921875 Z M124.582031,87 L124.582031,83.7714844 C124.582031,82.9628906 124.716797,82.3867188 124.986328,82.0429688 C125.255859,81.6992188 125.681641,81.5273438 126.263672,81.5273438 C126.701172,81.5273438 127.020508,81.6503906 127.22168,81.8964844 C127.422852,82.1425781 127.523438,82.515625 127.523438,83.015625 L127.523438,83.015625 L127.523438,87 L128.90625,87 L128.90625,82.7753906 C128.90625,81.1933594 128.128906,80.4023438 126.574219,80.4023438 C126.136719,80.4023438 125.738281,80.4863281 125.378906,80.6542969 C125.019531,80.8222656 124.742188,81.0605469 124.546875,81.3691406 L124.546875,81.3691406 L124.476562,81.3691406 L124.283203,80.5195312 L123.205078,80.5195312 L123.205078,87 L124.582031,87 Z M131.519531,79.5585938 C131.761719,79.5585938 131.950195,79.4912109 132.084961,79.3564453 C132.219727,79.2216797 132.287109,79.0371094 132.287109,78.8027344 C132.287109,78.5566406 132.219727,78.3671875 132.084961,78.234375 C131.950195,78.1015625 131.761719,78.0351562 131.519531,78.0351562 C131.269531,78.0351562 131.077148,78.1015625 130.942383,78.234375 C130.807617,78.3671875 130.740234,78.5566406 130.740234,78.8027344 C130.740234,79.0371094 130.807617,79.2216797 130.942383,79.3564453 C131.077148,79.4912109 131.269531,79.5585938 131.519531,79.5585938 Z M132.199219,87 L132.199219,80.5195312 L130.822266,80.5195312 L130.822266,87 L132.199219,87 Z M135.544922,87 L135.544922,83.7714844 C135.544922,82.9628906 135.679688,82.3867188 135.949219,82.0429688 C136.21875,81.6992188 136.644531,81.5273438 137.226562,81.5273438 C137.664062,81.5273438 137.983398,81.6503906 138.18457,81.8964844 C138.385742,82.1425781 138.486328,82.515625 138.486328,83.015625 L138.486328,83.015625 L138.486328,87 L139.869141,87 L139.869141,82.7753906 C139.869141,81.1933594 139.091797,80.4023438 137.537109,80.4023438 C137.099609,80.4023438 136.701172,80.4863281 136.341797,80.6542969 C135.982422,80.8222656 135.705078,81.0605469 135.509766,81.3691406 L135.509766,81.3691406 L135.439453,81.3691406 L135.246094,80.5195312 L134.167969,80.5195312 L134.167969,87 L135.544922,87 Z M143.654297,89.8828125 C144.798828,89.8828125 145.673828,89.6835938 146.279297,89.2851562 C146.884766,88.8867188 147.1875,88.3203125 147.1875,87.5859375 C147.1875,87.0117188 147.001953,86.5722656 146.630859,86.2675781 C146.259766,85.9628906 145.716797,85.8105469 145.001953,85.8105469 L145.001953,85.8105469 L143.871094,85.8105469 C143.5,85.8105469 143.245117,85.7734375 143.106445,85.6992188 C142.967773,85.625 142.898438,85.5136719 142.898438,85.3652344 C142.898438,85.1191406 143.046875,84.9042969 143.34375,84.7207031 C143.511719,84.7519531 143.699219,84.7675781 143.90625,84.7675781 C144.714844,84.7675781 145.349609,84.5761719 145.810547,84.1933594 C146.271484,83.8105469 146.501953,83.2851562 146.501953,82.6171875 C146.501953,82.3945312 146.46875,82.1835938 146.402344,81.984375 C146.335938,81.7851562 146.251953,81.6171875 146.150391,81.4804688 L146.150391,81.4804688 L147.257812,81.2753906 L147.257812,80.5195312 L145.013672,80.5195312 C144.912109,80.4921875 144.760742,80.4658203 144.55957,80.4404297 C144.358398,80.4150391 144.166016,80.4023438 143.982422,80.4023438 C143.162109,80.4023438 142.530273,80.5957031 142.086914,80.9824219 C141.643555,81.3691406 141.421875,81.9140625 141.421875,82.6171875 C141.421875,83.0546875 141.526367,83.4365234 141.735352,83.7626953 C141.944336,84.0888672 142.216797,84.3242188 142.552734,84.46875 C142.283203,84.6328125 142.080078,84.7988281 141.943359,84.9667969 C141.806641,85.1347656 141.738281,85.3398438 141.738281,85.5820312 C141.738281,85.7734375 141.797852,85.9560547 141.916992,86.1298828 C142.036133,86.3037109 142.1875,86.4296875 142.371094,86.5078125 C141.917969,86.6132812 141.56543,86.8017578 141.313477,87.0732422 C141.061523,87.3447266 140.935547,87.6796875 140.935547,88.078125 C140.935547,88.65625 141.167969,89.1015625 141.632812,89.4140625 C142.097656,89.7265625 142.771484,89.8828125 143.654297,89.8828125 Z M143.970703,83.8828125 C143.580078,83.8828125 143.280273,83.7734375 143.071289,83.5546875 C142.862305,83.3359375 142.757812,83.0234375 142.757812,82.6171875 C142.757812,82.1835938 142.860352,81.8535156 143.06543,81.6269531 C143.270508,81.4003906 143.572266,81.2871094 143.970703,81.2871094 C144.373047,81.2871094 144.672852,81.4013672 144.870117,81.6298828 C145.067383,81.8583984 145.166016,82.1835938 145.166016,82.6054688 C145.166016,83.4570312 144.767578,83.8828125 143.970703,83.8828125 Z M143.695312,88.9335938 C143.210938,88.9335938 142.834961,88.8535156 142.567383,88.6933594 C142.299805,88.5332031 142.166016,88.3046875 142.166016,88.0078125 C142.166016,87.6914062 142.282227,87.4404297 142.514648,87.2548828 C142.74707,87.0693359 143.060547,86.9765625 143.455078,86.9765625 L143.455078,86.9765625 L144.498047,86.9765625 C145.044922,86.9765625 145.418945,87.0361328 145.620117,87.1552734 C145.821289,87.2744141 145.921875,87.4746094 145.921875,87.7558594 C145.921875,88.1113281 145.738281,88.3964844 145.371094,88.6113281 C145.003906,88.8261719 144.445312,88.9335938 143.695312,88.9335938 Z M149.121094,87.1699219 C149.402344,87.1699219 149.618164,87.0888672 149.768555,86.9267578 C149.918945,86.7646484 149.994141,86.5449219 149.994141,86.2675781 C149.994141,85.9941406 149.919922,85.7783203 149.771484,85.6201172 C149.623047,85.4619141 149.40625,85.3828125 149.121094,85.3828125 C148.839844,85.3828125 148.625,85.4589844 148.476562,85.6113281 C148.328125,85.7636719 148.253906,85.9824219 148.253906,86.2675781 C148.253906,86.5488281 148.328125,86.7695312 148.476562,86.9296875 C148.625,87.0898438 148.839844,87.1699219 149.121094,87.1699219 Z" id="Educatedguessfromreasoning." fill="#FFFFFF" fill-rule="nonzero"></path>
            </g>
        </g>
    </g>
</svg>