<?xml version="1.0" encoding="UTF-8"?>
<svg width="163px" height="97px" viewBox="0 0 163 97" version="1.1" xmlns="http://www.w3.org/2000/svg" xmlns:xlink="http://www.w3.org/1999/xlink">
    <!-- Generator: Sketch 62 (91390) - https://sketch.com -->
    <title>Integrate</title>
    <desc>Created with Sketch.</desc>
    <defs>
        <radialGradient cx="26.0530847%" cy="62.3934409%" fx="26.0530847%" fy="62.3934409%" r="35.1006849%" gradientTransform="translate(0.260531,0.623934),scale(0.595092,1.000000),rotate(-90.000000),translate(-0.260531,-0.623934)" id="radialGradient-1">
            <stop stop-color="#F5836F" offset="0%"></stop>
            <stop stop-color="#E74C3C" offset="100%"></stop>
        </radialGradient>
        <path d="M3.5859375,18 L3.5859375,5.86425781 L1.60205078,5.86425781 L1.60205078,18 L3.5859375,18 Z M8.53320312,18 L8.53320312,13.4262695 C8.53320312,12.2807617 8.72412109,11.4645182 9.10595703,10.9775391 C9.48779297,10.4905599 10.0909831,10.2470703 10.9155273,10.2470703 C11.535319,10.2470703 11.9877116,10.4213867 12.2727051,10.7700195 C12.5576986,11.1186523 12.7001953,11.6471354 12.7001953,12.3554688 L12.7001953,12.3554688 L12.7001953,18 L14.6591797,18 L14.6591797,12.0151367 C14.6591797,9.77392578 13.5579427,8.65332031 11.3554688,8.65332031 C10.7356771,8.65332031 10.171224,8.77229818 9.66210938,9.01025391 C9.15299479,9.24820964 8.76009115,9.58577474 8.48339844,10.0229492 L8.48339844,10.0229492 L8.38378906,10.0229492 L8.10986328,8.81933594 L6.58251953,8.81933594 L6.58251953,18 L8.53320312,18 Z M20.3286133,18.1660156 C20.6938477,18.1660156 21.0466309,18.134196 21.3869629,18.0705566 C21.7272949,18.0069173 22.0053711,17.9280599 22.2211914,17.8339844 L22.2211914,17.8339844 L22.2211914,16.3647461 C21.7452799,16.5141602 21.2693685,16.5888672 20.793457,16.5888672 C20.4116211,16.5888672 20.1031087,16.4768066 19.8679199,16.2526855 C19.6327311,16.0285645 19.5151367,15.6813151 19.5151367,15.2109375 L19.5151367,15.2109375 L19.5151367,10.296875 L22.1298828,10.296875 L22.1298828,8.81933594 L19.5151367,8.81933594 L19.5151367,6.77734375 L18.3115234,6.77734375 L17.6474609,8.71972656 L16.3027344,9.43359375 L16.3027344,10.296875 L17.5561523,10.296875 L17.5561523,15.2441406 C17.5561523,17.1920573 18.480306,18.1660156 20.3286133,18.1660156 Z M28.0649414,18.1660156 C28.6902669,18.1660156 29.2464193,18.1189779 29.7333984,18.0249023 C30.2203776,17.9308268 30.7018229,17.7703451 31.1777344,17.543457 L31.1777344,17.543457 L31.1777344,15.9580078 C30.6409505,16.1959635 30.1387533,16.3661296 29.6711426,16.4685059 C29.2035319,16.5708822 28.6985677,16.6220703 28.15625,16.6220703 C27.3317057,16.6220703 26.6925456,16.3827311 26.2387695,15.9040527 C25.7849935,15.4253743 25.5442708,14.7405599 25.5166016,13.8496094 L25.5166016,13.8496094 L31.6342773,13.8496094 L31.6342773,12.7954102 C31.6342773,11.5060221 31.2828776,10.4933268 30.5800781,9.75732422 C29.8772786,9.02132161 28.9199219,8.65332031 27.7080078,8.65332031 C26.4020182,8.65332031 25.3754883,9.08219401 24.628418,9.93994141 C23.8813477,10.7976888 23.5078125,11.9763997 23.5078125,13.4760742 C23.5078125,14.9370117 23.9104004,16.083903 24.7155762,16.916748 C25.520752,17.7495931 26.637207,18.1660156 28.0649414,18.1660156 Z M29.7167969,12.4384766 L25.5498047,12.4384766 C25.6217448,11.6858724 25.8444824,11.1131185 26.2180176,10.7202148 C26.5915527,10.3273112 27.0882161,10.1308594 27.7080078,10.1308594 C28.3277995,10.1308594 28.8147786,10.3259277 29.1689453,10.7160645 C29.523112,11.1062012 29.7057292,11.6803385 29.7167969,12.4384766 L29.7167969,12.4384766 Z M36.4985352,22.0839844 C38.1199544,22.0839844 39.3595378,21.8017578 40.2172852,21.2373047 C41.0750326,20.6728516 41.5039062,19.8704427 41.5039062,18.8300781 C41.5039062,18.0166016 41.2410482,17.394043 40.715332,16.9624023 C40.1896159,16.5307617 39.4204102,16.3149414 38.4077148,16.3149414 L38.4077148,16.3149414 L36.8056641,16.3149414 C36.2799479,16.3149414 35.9188639,16.2623698 35.7224121,16.1572266 C35.5259603,16.0520833 35.4277344,15.8943685 35.4277344,15.684082 C35.4277344,15.3354492 35.6380208,15.0310872 36.0585938,14.7709961 C36.2965495,14.8152669 36.5621745,14.8374023 36.8554688,14.8374023 C38.0009766,14.8374023 38.9002279,14.5662435 39.5532227,14.0239258 C40.2062174,13.4816081 40.5327148,12.7373047 40.5327148,11.7910156 C40.5327148,11.4755859 40.4856771,11.1767578 40.3916016,10.8945312 C40.297526,10.6123047 40.1785482,10.374349 40.034668,10.1806641 L40.034668,10.1806641 L41.6035156,9.89013672 L41.6035156,8.81933594 L38.4243164,8.81933594 C38.2804362,8.78059896 38.0659993,8.74324544 37.7810059,8.70727539 C37.4960124,8.67130534 37.2234701,8.65332031 36.9633789,8.65332031 C35.8012695,8.65332031 34.9061686,8.92724609 34.2780762,9.47509766 C33.6499837,10.0229492 33.3359375,10.7949219 33.3359375,11.7910156 C33.3359375,12.4108073 33.4839681,12.9517415 33.7800293,13.4138184 C34.0760905,13.8758952 34.4620768,14.2093099 34.9379883,14.4140625 C34.5561523,14.6464844 34.2683919,14.8816732 34.074707,15.1196289 C33.8810221,15.3575846 33.7841797,15.648112 33.7841797,15.9912109 C33.7841797,16.2623698 33.868571,16.5210775 34.0373535,16.767334 C34.2061361,17.0135905 34.4205729,17.1920573 34.6806641,17.3027344 C34.038737,17.4521484 33.5393066,17.7191569 33.182373,18.1037598 C32.8254395,18.4883626 32.6469727,18.9628906 32.6469727,19.5273438 C32.6469727,20.3463542 32.976237,20.9772135 33.6347656,21.4199219 C34.2932943,21.8626302 35.2478841,22.0839844 36.4985352,22.0839844 Z M36.9467773,13.5839844 C36.3933919,13.5839844 35.9686686,13.4290365 35.6726074,13.1191406 C35.3765462,12.8092448 35.2285156,12.3665365 35.2285156,11.7910156 C35.2285156,11.1767578 35.3737793,10.7091471 35.6643066,10.3881836 C35.954834,10.0672201 36.3823242,9.90673828 36.9467773,9.90673828 C37.5167643,9.90673828 37.9414876,10.0686035 38.2209473,10.392334 C38.5004069,10.7160645 38.6401367,11.1767578 38.6401367,11.7744141 C38.6401367,12.9807943 38.0756836,13.5839844 36.9467773,13.5839844 Z M36.5566406,20.7392578 C35.8704427,20.7392578 35.3378092,20.6258138 34.9587402,20.3989258 C34.5796712,20.1720378 34.3901367,19.8483073 34.3901367,19.4277344 C34.3901367,18.9794922 34.5547689,18.6239421 34.8840332,18.361084 C35.2132975,18.0982259 35.6573893,17.9667969 36.2163086,17.9667969 L36.2163086,17.9667969 L37.6938477,17.9667969 C38.4685872,17.9667969 38.9984538,18.0511882 39.2834473,18.2199707 C39.5684408,18.3887533 39.7109375,18.6723633 39.7109375,19.0708008 C39.7109375,19.5743815 39.4508464,19.9783529 38.9306641,20.2827148 C38.4104818,20.5870768 37.6191406,20.7392578 36.5566406,20.7392578 Z M45.2558594,18 L45.2558594,13.2021484 C45.2558594,12.3886719 45.4979655,11.7273763 45.9821777,11.2182617 C46.46639,10.7091471 47.0986328,10.4545898 47.8789062,10.4545898 C48.1777344,10.4545898 48.4654948,10.487793 48.7421875,10.5541992 L48.7421875,10.5541992 L48.9331055,8.73632812 C48.6785482,8.68098958 48.3548177,8.65332031 47.9619141,8.65332031 C47.3974609,8.65332031 46.8703613,8.81380208 46.3806152,9.13476562 C45.8908691,9.45572917 45.4938151,9.89013672 45.1894531,10.4379883 L45.1894531,10.4379883 L45.0898438,10.4379883 L44.8325195,8.81933594 L43.3051758,8.81933594 L43.3051758,18 L45.2558594,18 Z M52.859375,18.1660156 C53.5621745,18.1660156 54.1376953,18.0650228 54.5859375,17.8630371 C55.0341797,17.6610514 55.4796549,17.280599 55.9223633,16.7216797 L55.9223633,16.7216797 L55.9887695,16.7216797 L56.3789062,18 L57.7734375,18 L57.7734375,11.815918 C57.7734375,10.7257487 57.4759928,9.92610677 56.8811035,9.41699219 C56.2862142,8.9078776 55.4049479,8.65332031 54.2373047,8.65332031 C53.7115885,8.65332031 53.1526693,8.72111003 52.5605469,8.85668945 C51.9684245,8.99226888 51.4233398,9.19010417 50.925293,9.45019531 L50.925293,9.45019531 L51.5561523,10.8447266 C51.9545898,10.6565755 52.3696289,10.4933268 52.8012695,10.3549805 C53.2329102,10.2166341 53.6839193,10.1474609 54.1542969,10.1474609 C54.7298177,10.1474609 55.154541,10.2927246 55.4284668,10.583252 C55.7023926,10.8737793 55.8393555,11.3123372 55.8393555,11.8989258 L55.8393555,11.8989258 L55.8393555,12.3886719 L54.2539062,12.4384766 C52.8151042,12.4827474 51.7443034,12.7456055 51.0415039,13.2270508 C50.3387044,13.7084961 49.9873047,14.4223633 49.9873047,15.3686523 C49.9873047,16.2596029 50.2404785,16.9485677 50.7468262,17.4355469 C51.2531738,17.922526 51.9573568,18.1660156 52.859375,18.1660156 Z M53.4736328,16.671875 C52.9866536,16.671875 52.6214193,16.5598145 52.3779297,16.3356934 C52.1344401,16.1115723 52.0126953,15.7947591 52.0126953,15.3852539 C52.0126953,14.8208008 52.2215983,14.4016113 52.6394043,14.1276855 C53.0572103,13.8537598 53.7254232,13.7001953 54.644043,13.6669922 L54.644043,13.6669922 L55.8227539,13.6171875 L55.8227539,14.4140625 C55.8227539,15.1279297 55.6083171,15.6826986 55.1794434,16.0783691 C54.7505697,16.4740397 54.1819661,16.671875 53.4736328,16.671875 Z M63.4511719,18.1660156 C63.8164062,18.1660156 64.1691895,18.134196 64.5095215,18.0705566 C64.8498535,18.0069173 65.1279297,17.9280599 65.34375,17.8339844 L65.34375,17.8339844 L65.34375,16.3647461 C64.8678385,16.5141602 64.3919271,16.5888672 63.9160156,16.5888672 C63.5341797,16.5888672 63.2256673,16.4768066 62.9904785,16.2526855 C62.7552897,16.0285645 62.6376953,15.6813151 62.6376953,15.2109375 L62.6376953,15.2109375 L62.6376953,10.296875 L65.2524414,10.296875 L65.2524414,8.81933594 L62.6376953,8.81933594 L62.6376953,6.77734375 L61.434082,6.77734375 L60.7700195,8.71972656 L59.425293,9.43359375 L59.425293,10.296875 L60.6787109,10.296875 L60.6787109,15.2441406 C60.6787109,17.1920573 61.6028646,18.1660156 63.4511719,18.1660156 Z M71.1875,18.1660156 C71.8128255,18.1660156 72.3689779,18.1189779 72.855957,18.0249023 C73.3429362,17.9308268 73.8243815,17.7703451 74.300293,17.543457 L74.300293,17.543457 L74.300293,15.9580078 C73.7635091,16.1959635 73.2613118,16.3661296 72.7937012,16.4685059 C72.3260905,16.5708822 71.8211263,16.6220703 71.2788086,16.6220703 C70.4542643,16.6220703 69.8151042,16.3827311 69.3613281,15.9040527 C68.9075521,15.4253743 68.6668294,14.7405599 68.6391602,13.8496094 L68.6391602,13.8496094 L74.7568359,13.8496094 L74.7568359,12.7954102 C74.7568359,11.5060221 74.4054362,10.4933268 73.7026367,9.75732422 C72.9998372,9.02132161 72.0424805,8.65332031 70.8305664,8.65332031 C69.5245768,8.65332031 68.4980469,9.08219401 67.7509766,9.93994141 C67.0039062,10.7976888 66.6303711,11.9763997 66.6303711,13.4760742 C66.6303711,14.9370117 67.032959,16.083903 67.8381348,16.916748 C68.6433105,17.7495931 69.7597656,18.1660156 71.1875,18.1660156 Z M72.8393555,12.4384766 L68.6723633,12.4384766 C68.7443034,11.6858724 68.967041,11.1131185 69.3405762,10.7202148 C69.7141113,10.3273112 70.2107747,10.1308594 70.8305664,10.1308594 C71.4503581,10.1308594 71.9373372,10.3259277 72.2915039,10.7160645 C72.6456706,11.1062012 72.8282878,11.6803385 72.8393555,12.4384766 L72.8393555,12.4384766 Z" id="path-2"></path>
    </defs>
    <g id="Symbols" stroke="none" stroke-width="1" fill="none" fill-rule="evenodd">
        <g id="i/Integrate">
            <g id="Integrate">
                <path d="M6,0 L157,0 C160.313708,-6.08718376e-16 163,2.6862915 163,6 L163,91 C163,94.3137085 160.313708,97 157,97 L6,97 C2.6862915,97 4.05812251e-16,94.3137085 0,91 L0,6 C-4.05812251e-16,2.6862915 2.6862915,6.08718376e-16 6,0 Z" id="Rectangle-2" fill="url(#radialGradient-1)" fill-rule="nonzero"></path>
                <g id="Group-16" transform="translate(22.000000, 47.000000)" fill-rule="nonzero">
                    <path d="M26.325,0.5 L26.325,4.5 L0.675,4.5 L0.675,0.5 L26.325,0.5 L26.325,0.5 Z M27,0 L0,0 L0,5 L27,5 L27,0 L27,0 Z" id="Shape" stroke="#979797" fill="#9B9B9B"></path>
                    <polygon id="Rectangle-path" fill="#FFFFFF" points="15 7 42 7 42 12 15 12"></polygon>
                    <path d="M32.325,13.5 L32.325,17.5 L6.675,17.5 L6.675,13.5 L32.325,13.5 L32.325,13.5 Z M33,13 L6,13 L6,18 L33,18 L33,13 L33,13 Z" id="Shape" stroke="#979797" fill="#9B9B9B"></path>
                    <path d="M34.325,28.5 L34.325,32.5 L8.675,32.5 L8.675,28.5 L34.325,28.5 L34.325,28.5 Z M35,28 L8,28 L8,33 L35,33 L35,28 L35,28 Z" id="Shape" stroke="#979797" fill="#BDC3C7"></path>
                    <polygon id="Rectangle-path" fill="#FFFFFF" points="9 20 36 20 36 25 9 25"></polygon>
                </g>
                <polyline id="Line-2" stroke="#FFFFFF" stroke-width="4" stroke-linecap="square" points="2 30 20.4627861 30 161 30"></polyline>
                <line x1="81" y1="45" x2="81" y2="85.0042519" id="Line-3" stroke="#FFFFFF" stroke-width="2" stroke-linecap="square"></line>
                <g id="Adverbs" transform="translate(44.000000, 3.000000)" fill="#FFFFFF" fill-rule="nonzero">
                    <g id="Integrate">
                        <use xlink:href="#path-2"></use>
                        <use xlink:href="#path-2"></use>
                    </g>
                </g>
                <path d="M89.53125,51 L89.53125,42.4335938 L88.1308594,42.4335938 L88.1308594,51 L89.53125,51 Z M93.0234375,51 L93.0234375,47.7714844 C93.0234375,46.9628906 93.1582031,46.3867188 93.4277344,46.0429688 C93.6972656,45.6992188 94.1230469,45.5273438 94.7050781,45.5273438 C95.1425781,45.5273438 95.4619141,45.6503906 95.6630859,45.8964844 C95.8642578,46.1425781 95.9648438,46.515625 95.9648438,47.015625 L95.9648438,47.015625 L95.9648438,51 L97.3476562,51 L97.3476562,46.7753906 C97.3476562,45.1933594 96.5703125,44.4023438 95.015625,44.4023438 C94.578125,44.4023438 94.1796875,44.4863281 93.8203125,44.6542969 C93.4609375,44.8222656 93.1835938,45.0605469 92.9882812,45.3691406 L92.9882812,45.3691406 L92.9179688,45.3691406 L92.7246094,44.5195312 L91.6464844,44.5195312 L91.6464844,51 L93.0234375,51 Z M101.876953,51.1171875 C102.275391,51.1171875 102.614258,51.0859375 102.893555,51.0234375 C103.172852,50.9609375 103.435547,50.8574219 103.681641,50.7128906 L103.681641,50.7128906 L103.681641,49.5117188 C103.134766,49.8164062 102.554688,49.96875 101.941406,49.96875 C101.402344,49.96875 100.993164,49.7861328 100.713867,49.4208984 C100.43457,49.0556641 100.294922,48.5097656 100.294922,47.7832031 C100.294922,46.2949219 100.855469,45.5507812 101.976562,45.5507812 C102.355469,45.5507812 102.835938,45.6640625 103.417969,45.890625 L103.417969,45.890625 L103.833984,44.7832031 C103.287109,44.5292969 102.671875,44.4023438 101.988281,44.4023438 C100.980469,44.4023438 100.209961,44.6953125 99.6767578,45.28125 C99.1435547,45.8671875 98.8769531,46.7050781 98.8769531,47.7949219 C98.8769531,48.8652344 99.1318359,49.6865234 99.6416016,50.2587891 C100.151367,50.8310547 100.896484,51.1171875 101.876953,51.1171875 Z M107.871094,51.1171875 C108.839844,51.1171875 109.595703,50.8203125 110.138672,50.2265625 C110.681641,49.6328125 110.953125,48.8066406 110.953125,47.7480469 C110.953125,46.7246094 110.679688,45.9111328 110.132812,45.3076172 C109.585938,44.7041016 108.84375,44.4023438 107.90625,44.4023438 C106.925781,44.4023438 106.166016,44.6972656 105.626953,45.2871094 C105.087891,45.8769531 104.818359,46.6972656 104.818359,47.7480469 C104.818359,48.4238281 104.943359,49.0175781 105.193359,49.5292969 C105.443359,50.0410156 105.800781,50.4335938 106.265625,50.7070312 C106.730469,50.9804688 107.265625,51.1171875 107.871094,51.1171875 Z M107.894531,49.9921875 C106.789062,49.9921875 106.236328,49.2441406 106.236328,47.7480469 C106.236328,47.0332031 106.366211,46.484375 106.625977,46.1015625 C106.885742,45.71875 107.304688,45.5273438 107.882812,45.5273438 C108.984375,45.5273438 109.535156,46.2675781 109.535156,47.7480469 C109.535156,49.2441406 108.988281,49.9921875 107.894531,49.9921875 Z M113.912109,51 L113.912109,47.6132812 C113.912109,47.0390625 114.083008,46.5722656 114.424805,46.2128906 C114.766602,45.8535156 115.212891,45.6738281 115.763672,45.6738281 C115.974609,45.6738281 116.177734,45.6972656 116.373047,45.7441406 L116.373047,45.7441406 L116.507812,44.4609375 C116.328125,44.421875 116.099609,44.4023438 115.822266,44.4023438 C115.423828,44.4023438 115.051758,44.515625 114.706055,44.7421875 C114.360352,44.96875 114.080078,45.2753906 113.865234,45.6621094 L113.865234,45.6621094 L113.794922,45.6621094 L113.613281,44.5195312 L112.535156,44.5195312 L112.535156,51 L113.912109,51 Z M119.085938,53.8828125 L119.085938,51.2285156 C119.085938,51.1113281 119.058594,50.7792969 119.003906,50.2324219 L119.003906,50.2324219 L119.085938,50.2324219 C119.539062,50.8222656 120.175781,51.1171875 120.996094,51.1171875 C121.804688,51.1171875 122.438477,50.8203125 122.897461,50.2265625 C123.356445,49.6328125 123.585938,48.8066406 123.585938,47.7480469 C123.585938,46.6894531 123.360352,45.8671875 122.90918,45.28125 C122.458008,44.6953125 121.828125,44.4023438 121.019531,44.4023438 C120.160156,44.4023438 119.515625,44.7304688 119.085938,45.3867188 L119.085938,45.3867188 L119.015625,45.3867188 C118.917969,44.9296875 118.853516,44.640625 118.822266,44.5195312 L118.822266,44.5195312 L117.708984,44.5195312 L117.708984,53.8828125 L119.085938,53.8828125 Z M120.685547,49.9921875 C120.119141,49.9921875 119.710938,49.8154297 119.460938,49.4619141 C119.210938,49.1083984 119.085938,48.5371094 119.085938,47.7480469 L119.085938,47.7480469 L119.085938,47.5429688 C119.085938,46.8398438 119.211914,46.328125 119.463867,46.0078125 C119.71582,45.6875 120.115234,45.5273438 120.662109,45.5273438 C121.158203,45.5273438 121.53418,45.7138672 121.790039,46.0869141 C122.045898,46.4599609 122.173828,47.0097656 122.173828,47.7363281 C122.173828,48.4589844 122.044922,49.015625 121.787109,49.40625 C121.529297,49.796875 121.162109,49.9921875 120.685547,49.9921875 Z M127.851562,51.1171875 C128.820312,51.1171875 129.576172,50.8203125 130.119141,50.2265625 C130.662109,49.6328125 130.933594,48.8066406 130.933594,47.7480469 C130.933594,46.7246094 130.660156,45.9111328 130.113281,45.3076172 C129.566406,44.7041016 128.824219,44.4023438 127.886719,44.4023438 C126.90625,44.4023438 126.146484,44.6972656 125.607422,45.2871094 C125.068359,45.8769531 124.798828,46.6972656 124.798828,47.7480469 C124.798828,48.4238281 124.923828,49.0175781 125.173828,49.5292969 C125.423828,50.0410156 125.78125,50.4335938 126.246094,50.7070312 C126.710938,50.9804688 127.246094,51.1171875 127.851562,51.1171875 Z M127.875,49.9921875 C126.769531,49.9921875 126.216797,49.2441406 126.216797,47.7480469 C126.216797,47.0332031 126.34668,46.484375 126.606445,46.1015625 C126.866211,45.71875 127.285156,45.5273438 127.863281,45.5273438 C128.964844,45.5273438 129.515625,46.2675781 129.515625,47.7480469 C129.515625,49.2441406 128.96875,49.9921875 127.875,49.9921875 Z M133.892578,51 L133.892578,47.6132812 C133.892578,47.0390625 134.063477,46.5722656 134.405273,46.2128906 C134.74707,45.8535156 135.193359,45.6738281 135.744141,45.6738281 C135.955078,45.6738281 136.158203,45.6972656 136.353516,45.7441406 L136.353516,45.7441406 L136.488281,44.4609375 C136.308594,44.421875 136.080078,44.4023438 135.802734,44.4023438 C135.404297,44.4023438 135.032227,44.515625 134.686523,44.7421875 C134.34082,44.96875 134.060547,45.2753906 133.845703,45.6621094 L133.845703,45.6621094 L133.775391,45.6621094 L133.59375,44.5195312 L132.515625,44.5195312 L132.515625,51 L133.892578,51 Z M139.259766,51.1171875 C139.755859,51.1171875 140.162109,51.0458984 140.478516,50.9033203 C140.794922,50.7607422 141.109375,50.4921875 141.421875,50.0976562 L141.421875,50.0976562 L141.46875,50.0976562 L141.744141,51 L142.728516,51 L142.728516,46.6347656 C142.728516,45.8652344 142.518555,45.3007812 142.098633,44.9414062 C141.678711,44.5820312 141.056641,44.4023438 140.232422,44.4023438 C139.861328,44.4023438 139.466797,44.4501953 139.048828,44.5458984 C138.630859,44.6416016 138.246094,44.78125 137.894531,44.9648438 L137.894531,44.9648438 L138.339844,45.9492188 C138.621094,45.8164062 138.914062,45.7011719 139.21875,45.6035156 C139.523438,45.5058594 139.841797,45.4570312 140.173828,45.4570312 C140.580078,45.4570312 140.879883,45.5595703 141.073242,45.7646484 C141.266602,45.9697266 141.363281,46.2792969 141.363281,46.6933594 L141.363281,46.6933594 L141.363281,47.0390625 L140.244141,47.0742188 C139.228516,47.1054688 138.472656,47.2910156 137.976562,47.6308594 C137.480469,47.9707031 137.232422,48.4746094 137.232422,49.1425781 C137.232422,49.7714844 137.411133,50.2578125 137.768555,50.6015625 C138.125977,50.9453125 138.623047,51.1171875 139.259766,51.1171875 Z M139.693359,50.0625 C139.349609,50.0625 139.091797,49.9833984 138.919922,49.8251953 C138.748047,49.6669922 138.662109,49.4433594 138.662109,49.1542969 C138.662109,48.7558594 138.80957,48.4599609 139.104492,48.2666016 C139.399414,48.0732422 139.871094,47.9648438 140.519531,47.9414062 L140.519531,47.9414062 L141.351562,47.90625 L141.351562,48.46875 C141.351562,48.9726562 141.200195,49.3642578 140.897461,49.6435547 C140.594727,49.9228516 140.193359,50.0625 139.693359,50.0625 Z M146.736328,51.1171875 C146.994141,51.1171875 147.243164,51.0947266 147.483398,51.0498047 C147.723633,51.0048828 147.919922,50.9492188 148.072266,50.8828125 L148.072266,50.8828125 L148.072266,49.8457031 C147.736328,49.9511719 147.400391,50.0039062 147.064453,50.0039062 C146.794922,50.0039062 146.577148,49.9248047 146.411133,49.7666016 C146.245117,49.6083984 146.162109,49.3632812 146.162109,49.03125 L146.162109,49.03125 L146.162109,45.5625 L148.007812,45.5625 L148.007812,44.5195312 L146.162109,44.5195312 L146.162109,43.078125 L145.3125,43.078125 L144.84375,44.4492188 L143.894531,44.953125 L143.894531,45.5625 L144.779297,45.5625 L144.779297,49.0546875 C144.779297,50.4296875 145.431641,51.1171875 146.736328,51.1171875 Z M152.197266,51.1171875 C152.638672,51.1171875 153.03125,51.0839844 153.375,51.0175781 C153.71875,50.9511719 154.058594,50.8378906 154.394531,50.6777344 L154.394531,50.6777344 L154.394531,49.5585938 C154.015625,49.7265625 153.661133,49.8466797 153.331055,49.9189453 C153.000977,49.9912109 152.644531,50.0273438 152.261719,50.0273438 C151.679688,50.0273438 151.228516,49.8583984 150.908203,49.5205078 C150.587891,49.1826172 150.417969,48.6992188 150.398438,48.0703125 L150.398438,48.0703125 L154.716797,48.0703125 L154.716797,47.3261719 C154.716797,46.4160156 154.46875,45.7011719 153.972656,45.1816406 C153.476562,44.6621094 152.800781,44.4023438 151.945312,44.4023438 C151.023438,44.4023438 150.298828,44.7050781 149.771484,45.3105469 C149.244141,45.9160156 148.980469,46.7480469 148.980469,47.8066406 C148.980469,48.8378906 149.264648,49.6474609 149.833008,50.2353516 C150.401367,50.8232422 151.189453,51.1171875 152.197266,51.1171875 Z M153.363281,47.0742188 L150.421875,47.0742188 C150.472656,46.5429688 150.629883,46.1386719 150.893555,45.8613281 C151.157227,45.5839844 151.507812,45.4453125 151.945312,45.4453125 C152.382812,45.4453125 152.726562,45.5830078 152.976562,45.8583984 C153.226562,46.1337891 153.355469,46.5390625 153.363281,47.0742188 L153.363281,47.0742188 Z M90.6503906,63.1171875 C91.6191406,63.1171875 92.375,62.8203125 92.9179688,62.2265625 C93.4609375,61.6328125 93.7324219,60.8066406 93.7324219,59.7480469 C93.7324219,58.7246094 93.4589844,57.9111328 92.9121094,57.3076172 C92.3652344,56.7041016 91.6230469,56.4023438 90.6855469,56.4023438 C89.7050781,56.4023438 88.9453125,56.6972656 88.40625,57.2871094 C87.8671875,57.8769531 87.5976562,58.6972656 87.5976562,59.7480469 C87.5976562,60.4238281 87.7226562,61.0175781 87.9726562,61.5292969 C88.2226562,62.0410156 88.5800781,62.4335938 89.0449219,62.7070312 C89.5097656,62.9804688 90.0449219,63.1171875 90.6503906,63.1171875 Z M90.6738281,61.9921875 C89.5683594,61.9921875 89.015625,61.2441406 89.015625,59.7480469 C89.015625,59.0332031 89.1455078,58.484375 89.4052734,58.1015625 C89.6650391,57.71875 90.0839844,57.5273438 90.6621094,57.5273438 C91.7636719,57.5273438 92.3144531,58.2675781 92.3144531,59.7480469 C92.3144531,61.2441406 91.7675781,61.9921875 90.6738281,61.9921875 Z M97.4003906,63.1171875 C97.6582031,63.1171875 97.9072266,63.0947266 98.1474609,63.0498047 C98.3876953,63.0048828 98.5839844,62.9492188 98.7363281,62.8828125 L98.7363281,62.8828125 L98.7363281,61.8457031 C98.4003906,61.9511719 98.0644531,62.0039062 97.7285156,62.0039062 C97.4589844,62.0039062 97.2412109,61.9248047 97.0751953,61.7666016 C96.9091797,61.6083984 96.8261719,61.3632812 96.8261719,61.03125 L96.8261719,61.03125 L96.8261719,57.5625 L98.671875,57.5625 L98.671875,56.5195312 L96.8261719,56.5195312 L96.8261719,55.078125 L95.9765625,55.078125 L95.5078125,56.4492188 L94.5585938,56.953125 L94.5585938,57.5625 L95.4433594,57.5625 L95.4433594,61.0546875 C95.4433594,62.4296875 96.0957031,63.1171875 97.4003906,63.1171875 Z M101.408203,63 L101.408203,59.7832031 C101.408203,58.9707031 101.543945,58.3916016 101.81543,58.0458984 C102.086914,57.7001953 102.511719,57.5273438 103.089844,57.5273438 C103.527344,57.5273438 103.84668,57.6503906 104.047852,57.8964844 C104.249023,58.1425781 104.349609,58.515625 104.349609,59.015625 L104.349609,59.015625 L104.349609,63 L105.732422,63 L105.732422,58.7753906 C105.732422,57.1933594 104.947266,56.4023438 103.376953,56.4023438 C102.931641,56.4023438 102.541992,56.4882812 102.208008,56.6601562 C101.874023,56.8320312 101.613281,57.0742188 101.425781,57.3867188 L101.425781,57.3867188 L101.337891,57.3867188 C101.384766,56.9648438 101.408203,56.5683594 101.408203,56.1972656 L101.408203,56.1972656 L101.408203,53.8828125 L100.03125,53.8828125 L100.03125,63 L101.408203,63 Z M110.478516,63.1171875 C110.919922,63.1171875 111.3125,63.0839844 111.65625,63.0175781 C112,62.9511719 112.339844,62.8378906 112.675781,62.6777344 L112.675781,62.6777344 L112.675781,61.5585938 C112.296875,61.7265625 111.942383,61.8466797 111.612305,61.9189453 C111.282227,61.9912109 110.925781,62.0273438 110.542969,62.0273438 C109.960938,62.0273438 109.509766,61.8583984 109.189453,61.5205078 C108.869141,61.1826172 108.699219,60.6992188 108.679688,60.0703125 L108.679688,60.0703125 L112.998047,60.0703125 L112.998047,59.3261719 C112.998047,58.4160156 112.75,57.7011719 112.253906,57.1816406 C111.757812,56.6621094 111.082031,56.4023438 110.226562,56.4023438 C109.304688,56.4023438 108.580078,56.7050781 108.052734,57.3105469 C107.525391,57.9160156 107.261719,58.7480469 107.261719,59.8066406 C107.261719,60.8378906 107.545898,61.6474609 108.114258,62.2353516 C108.682617,62.8232422 109.470703,63.1171875 110.478516,63.1171875 Z M111.644531,59.0742188 L108.703125,59.0742188 C108.753906,58.5429688 108.911133,58.1386719 109.174805,57.8613281 C109.438477,57.5839844 109.789062,57.4453125 110.226562,57.4453125 C110.664062,57.4453125 111.007812,57.5830078 111.257812,57.8583984 C111.507812,58.1337891 111.636719,58.5390625 111.644531,59.0742188 L111.644531,59.0742188 Z M115.939453,63 L115.939453,59.6132812 C115.939453,59.0390625 116.110352,58.5722656 116.452148,58.2128906 C116.793945,57.8535156 117.240234,57.6738281 117.791016,57.6738281 C118.001953,57.6738281 118.205078,57.6972656 118.400391,57.7441406 L118.400391,57.7441406 L118.535156,56.4609375 C118.355469,56.421875 118.126953,56.4023438 117.849609,56.4023438 C117.451172,56.4023438 117.079102,56.515625 116.733398,56.7421875 C116.387695,56.96875 116.107422,57.2753906 115.892578,57.6621094 L115.892578,57.6621094 L115.822266,57.6621094 L115.640625,56.5195312 L114.5625,56.5195312 L114.5625,63 L115.939453,63 Z M121.417969,63.1171875 C122.277344,63.1171875 122.9375,62.9482422 123.398438,62.6103516 C123.859375,62.2724609 124.089844,61.7871094 124.089844,61.1542969 C124.089844,60.8417969 124.03125,60.5732422 123.914062,60.3486328 C123.796875,60.1240234 123.617188,59.9257812 123.375,59.7539062 C123.132812,59.5820312 122.744141,59.3925781 122.208984,59.1855469 C121.572266,58.9394531 121.15918,58.7460938 120.969727,58.6054688 C120.780273,58.4648438 120.685547,58.2929688 120.685547,58.0898438 C120.685547,57.6757812 121.048828,57.46875 121.775391,57.46875 C122.251953,57.46875 122.839844,57.6132812 123.539062,57.9023438 L123.539062,57.9023438 L123.984375,56.8652344 C123.304688,56.5566406 122.583984,56.4023438 121.822266,56.4023438 C121.052734,56.4023438 120.444336,56.5556641 119.99707,56.8623047 C119.549805,57.1689453 119.326172,57.5996094 119.326172,58.1542969 C119.326172,58.6152344 119.458008,58.9902344 119.72168,59.2792969 C119.985352,59.5683594 120.490234,59.8574219 121.236328,60.1464844 C121.619141,60.2949219 121.917969,60.4277344 122.132812,60.5449219 C122.347656,60.6621094 122.501953,60.7753906 122.595703,60.8847656 C122.689453,60.9941406 122.736328,61.1308594 122.736328,61.2949219 C122.736328,61.8066406 122.3125,62.0625 121.464844,62.0625 C120.808594,62.0625 120.099609,61.8867188 119.337891,61.5351562 L119.337891,61.5351562 L119.337891,62.7246094 C119.861328,62.9863281 120.554688,63.1171875 121.417969,63.1171875 Z M129.392578,55.5585938 C129.634766,55.5585938 129.823242,55.4912109 129.958008,55.3564453 C130.092773,55.2216797 130.160156,55.0371094 130.160156,54.8027344 C130.160156,54.5566406 130.092773,54.3671875 129.958008,54.234375 C129.823242,54.1015625 129.634766,54.0351562 129.392578,54.0351562 C129.142578,54.0351562 128.950195,54.1015625 128.81543,54.234375 C128.680664,54.3671875 128.613281,54.5566406 128.613281,54.8027344 C128.613281,55.0371094 128.680664,55.2216797 128.81543,55.3564453 C128.950195,55.4912109 129.142578,55.5585938 129.392578,55.5585938 Z M130.072266,63 L130.072266,56.5195312 L128.695312,56.5195312 L128.695312,63 L130.072266,63 Z M134.226562,63.1171875 C135.078125,63.1171875 135.724609,62.7949219 136.166016,62.1503906 L136.166016,62.1503906 L136.230469,62.1503906 L136.470703,63 L137.548828,63 L137.548828,53.8828125 L136.166016,53.8828125 L136.166016,56.2441406 C136.166016,56.5136719 136.199219,56.8808594 136.265625,57.3457031 L136.265625,57.3457031 L136.195312,57.3457031 C135.75,56.7167969 135.101562,56.4023438 134.25,56.4023438 C133.4375,56.4023438 132.801758,56.6982422 132.342773,57.2900391 C131.883789,57.8818359 131.654297,58.7089844 131.654297,59.7714844 C131.654297,60.8300781 131.880859,61.6523438 132.333984,62.2382812 C132.787109,62.8242188 133.417969,63.1171875 134.226562,63.1171875 Z M134.595703,62.0039062 C134.087891,62.0039062 133.707031,61.8154297 133.453125,61.4384766 C133.199219,61.0615234 133.072266,60.5136719 133.072266,59.7949219 C133.072266,59.0683594 133.203125,58.5087891 133.464844,58.1162109 C133.726562,57.7236328 134.099609,57.5273438 134.583984,57.5273438 C135.150391,57.5273438 135.566406,57.6992188 135.832031,58.0429688 C136.097656,58.3867188 136.230469,58.9667969 136.230469,59.7832031 L136.230469,59.7832031 L136.230469,59.9765625 C136.222656,60.6914062 136.089844,61.2080078 135.832031,61.5263672 C135.574219,61.8447266 135.162109,62.0039062 134.595703,62.0039062 Z M142.347656,63.1171875 C142.789062,63.1171875 143.181641,63.0839844 143.525391,63.0175781 C143.869141,62.9511719 144.208984,62.8378906 144.544922,62.6777344 L144.544922,62.6777344 L144.544922,61.5585938 C144.166016,61.7265625 143.811523,61.8466797 143.481445,61.9189453 C143.151367,61.9912109 142.794922,62.0273438 142.412109,62.0273438 C141.830078,62.0273438 141.378906,61.8583984 141.058594,61.5205078 C140.738281,61.1826172 140.568359,60.6992188 140.548828,60.0703125 L140.548828,60.0703125 L144.867188,60.0703125 L144.867188,59.3261719 C144.867188,58.4160156 144.619141,57.7011719 144.123047,57.1816406 C143.626953,56.6621094 142.951172,56.4023438 142.095703,56.4023438 C141.173828,56.4023438 140.449219,56.7050781 139.921875,57.3105469 C139.394531,57.9160156 139.130859,58.7480469 139.130859,59.8066406 C139.130859,60.8378906 139.415039,61.6474609 139.983398,62.2353516 C140.551758,62.8232422 141.339844,63.1171875 142.347656,63.1171875 Z M143.513672,59.0742188 L140.572266,59.0742188 C140.623047,58.5429688 140.780273,58.1386719 141.043945,57.8613281 C141.307617,57.5839844 141.658203,57.4453125 142.095703,57.4453125 C142.533203,57.4453125 142.876953,57.5830078 143.126953,57.8583984 C143.376953,58.1337891 143.505859,58.5390625 143.513672,59.0742188 L143.513672,59.0742188 Z M148.001953,63.1171875 C148.498047,63.1171875 148.904297,63.0458984 149.220703,62.9033203 C149.537109,62.7607422 149.851562,62.4921875 150.164062,62.0976562 L150.164062,62.0976562 L150.210938,62.0976562 L150.486328,63 L151.470703,63 L151.470703,58.6347656 C151.470703,57.8652344 151.260742,57.3007812 150.84082,56.9414062 C150.420898,56.5820312 149.798828,56.4023438 148.974609,56.4023438 C148.603516,56.4023438 148.208984,56.4501953 147.791016,56.5458984 C147.373047,56.6416016 146.988281,56.78125 146.636719,56.9648438 L146.636719,56.9648438 L147.082031,57.9492188 C147.363281,57.8164062 147.65625,57.7011719 147.960938,57.6035156 C148.265625,57.5058594 148.583984,57.4570312 148.916016,57.4570312 C149.322266,57.4570312 149.62207,57.5595703 149.81543,57.7646484 C150.008789,57.9697266 150.105469,58.2792969 150.105469,58.6933594 L150.105469,58.6933594 L150.105469,59.0390625 L148.986328,59.0742188 C147.970703,59.1054688 147.214844,59.2910156 146.71875,59.6308594 C146.222656,59.9707031 145.974609,60.4746094 145.974609,61.1425781 C145.974609,61.7714844 146.15332,62.2578125 146.510742,62.6015625 C146.868164,62.9453125 147.365234,63.1171875 148.001953,63.1171875 Z M148.435547,62.0625 C148.091797,62.0625 147.833984,61.9833984 147.662109,61.8251953 C147.490234,61.6669922 147.404297,61.4433594 147.404297,61.1542969 C147.404297,60.7558594 147.551758,60.4599609 147.84668,60.2666016 C148.141602,60.0732422 148.613281,59.9648438 149.261719,59.9414062 L149.261719,59.9414062 L150.09375,59.90625 L150.09375,60.46875 C150.09375,60.9726562 149.942383,61.3642578 149.639648,61.6435547 C149.336914,61.9228516 148.935547,62.0625 148.435547,62.0625 Z M155.074219,63.1171875 C155.933594,63.1171875 156.59375,62.9482422 157.054688,62.6103516 C157.515625,62.2724609 157.746094,61.7871094 157.746094,61.1542969 C157.746094,60.8417969 157.6875,60.5732422 157.570312,60.3486328 C157.453125,60.1240234 157.273438,59.9257812 157.03125,59.7539062 C156.789062,59.5820312 156.400391,59.3925781 155.865234,59.1855469 C155.228516,58.9394531 154.81543,58.7460938 154.625977,58.6054688 C154.436523,58.4648438 154.341797,58.2929688 154.341797,58.0898438 C154.341797,57.6757812 154.705078,57.46875 155.431641,57.46875 C155.908203,57.46875 156.496094,57.6132812 157.195312,57.9023438 L157.195312,57.9023438 L157.640625,56.8652344 C156.960938,56.5566406 156.240234,56.4023438 155.478516,56.4023438 C154.708984,56.4023438 154.100586,56.5556641 153.65332,56.8623047 C153.206055,57.1689453 152.982422,57.5996094 152.982422,58.1542969 C152.982422,58.6152344 153.114258,58.9902344 153.37793,59.2792969 C153.641602,59.5683594 154.146484,59.8574219 154.892578,60.1464844 C155.275391,60.2949219 155.574219,60.4277344 155.789062,60.5449219 C156.003906,60.6621094 156.158203,60.7753906 156.251953,60.8847656 C156.345703,60.9941406 156.392578,61.1308594 156.392578,61.2949219 C156.392578,61.8066406 155.96875,62.0625 155.121094,62.0625 C154.464844,62.0625 153.755859,61.8867188 152.994141,61.5351562 L152.994141,61.5351562 L152.994141,62.7246094 C153.517578,62.9863281 154.210938,63.1171875 155.074219,63.1171875 Z M90.6503906,75.1171875 C91.6191406,75.1171875 92.375,74.8203125 92.9179688,74.2265625 C93.4609375,73.6328125 93.7324219,72.8066406 93.7324219,71.7480469 C93.7324219,70.7246094 93.4589844,69.9111328 92.9121094,69.3076172 C92.3652344,68.7041016 91.6230469,68.4023438 90.6855469,68.4023438 C89.7050781,68.4023438 88.9453125,68.6972656 88.40625,69.2871094 C87.8671875,69.8769531 87.5976562,70.6972656 87.5976562,71.7480469 C87.5976562,72.4238281 87.7226562,73.0175781 87.9726562,73.5292969 C88.2226562,74.0410156 88.5800781,74.4335938 89.0449219,74.7070312 C89.5097656,74.9804688 90.0449219,75.1171875 90.6503906,75.1171875 Z M90.6738281,73.9921875 C89.5683594,73.9921875 89.015625,73.2441406 89.015625,71.7480469 C89.015625,71.0332031 89.1455078,70.484375 89.4052734,70.1015625 C89.6650391,69.71875 90.0839844,69.5273438 90.6621094,69.5273438 C91.7636719,69.5273438 92.3144531,70.2675781 92.3144531,71.7480469 C92.3144531,73.2441406 91.7675781,73.9921875 90.6738281,73.9921875 Z M96.6914062,75 L96.6914062,71.6132812 C96.6914062,71.0390625 96.8623047,70.5722656 97.2041016,70.2128906 C97.5458984,69.8535156 97.9921875,69.6738281 98.5429688,69.6738281 C98.7539062,69.6738281 98.9570312,69.6972656 99.1523438,69.7441406 L99.1523438,69.7441406 L99.2871094,68.4609375 C99.1074219,68.421875 98.8789062,68.4023438 98.6015625,68.4023438 C98.203125,68.4023438 97.8310547,68.515625 97.4853516,68.7421875 C97.1396484,68.96875 96.859375,69.2753906 96.6445312,69.6621094 L96.6445312,69.6621094 L96.5742188,69.6621094 L96.3925781,68.5195312 L95.3144531,68.5195312 L95.3144531,75 L96.6914062,75 Z M104.982422,75 L104.982422,71.7714844 C104.982422,70.9628906 105.117188,70.3867188 105.386719,70.0429688 C105.65625,69.6992188 106.082031,69.5273438 106.664062,69.5273438 C107.101562,69.5273438 107.420898,69.6503906 107.62207,69.8964844 C107.823242,70.1425781 107.923828,70.515625 107.923828,71.015625 L107.923828,71.015625 L107.923828,75 L109.306641,75 L109.306641,70.7753906 C109.306641,69.1933594 108.529297,68.4023438 106.974609,68.4023438 C106.537109,68.4023438 106.138672,68.4863281 105.779297,68.6542969 C105.419922,68.8222656 105.142578,69.0605469 104.947266,69.3691406 L104.947266,69.3691406 L104.876953,69.3691406 L104.683594,68.5195312 L103.605469,68.5195312 L103.605469,75 L104.982422,75 Z M114.052734,75.1171875 C114.494141,75.1171875 114.886719,75.0839844 115.230469,75.0175781 C115.574219,74.9511719 115.914062,74.8378906 116.25,74.6777344 L116.25,74.6777344 L116.25,73.5585938 C115.871094,73.7265625 115.516602,73.8466797 115.186523,73.9189453 C114.856445,73.9912109 114.5,74.0273438 114.117188,74.0273438 C113.535156,74.0273438 113.083984,73.8583984 112.763672,73.5205078 C112.443359,73.1826172 112.273438,72.6992188 112.253906,72.0703125 L112.253906,72.0703125 L116.572266,72.0703125 L116.572266,71.3261719 C116.572266,70.4160156 116.324219,69.7011719 115.828125,69.1816406 C115.332031,68.6621094 114.65625,68.4023438 113.800781,68.4023438 C112.878906,68.4023438 112.154297,68.7050781 111.626953,69.3105469 C111.099609,69.9160156 110.835938,70.7480469 110.835938,71.8066406 C110.835938,72.8378906 111.120117,73.6474609 111.688477,74.2353516 C112.256836,74.8232422 113.044922,75.1171875 114.052734,75.1171875 Z M115.21875,71.0742188 L112.277344,71.0742188 C112.328125,70.5429688 112.485352,70.1386719 112.749023,69.8613281 C113.012695,69.5839844 113.363281,69.4453125 113.800781,69.4453125 C114.238281,69.4453125 114.582031,69.5830078 114.832031,69.8583984 C115.082031,70.1337891 115.210938,70.5390625 115.21875,71.0742188 L115.21875,71.0742188 Z M120.609375,75 L121.470703,71.9882812 C121.603516,71.546875 121.783203,70.7988281 122.009766,69.7441406 L122.009766,69.7441406 L122.0625,69.7441406 C122.328125,70.9121094 122.511719,71.65625 122.613281,71.9765625 L122.613281,71.9765625 L123.451172,75 L124.998047,75 L126.826172,68.5195312 L125.443359,68.5195312 L124.605469,71.7128906 C124.390625,72.5761719 124.253906,73.2480469 124.195312,73.7285156 L124.195312,73.7285156 L124.148438,73.7285156 C124.132812,73.5097656 124.081055,73.203125 123.993164,72.8085938 C123.905273,72.4140625 123.832031,72.1210938 123.773438,71.9296875 L123.773438,71.9296875 L122.818359,68.5195312 L121.306641,68.5195312 L120.322266,71.9296875 C120.263672,72.1132812 120.194336,72.3896484 120.114258,72.7587891 C120.03418,73.1279297 119.974609,73.4550781 119.935547,73.7402344 L119.935547,73.7402344 L119.900391,73.7402344 C119.822266,73.1777344 119.689453,72.5019531 119.501953,71.7128906 L119.501953,71.7128906 L118.675781,68.5195312 L117.269531,68.5195312 L119.085938,75 L120.609375,75 Z M88.6816406,79.5585938 C88.9238281,79.5585938 89.1123047,79.4912109 89.2470703,79.3564453 C89.3818359,79.2216797 89.4492188,79.0371094 89.4492188,78.8027344 C89.4492188,78.5566406 89.3818359,78.3671875 89.2470703,78.234375 C89.1123047,78.1015625 88.9238281,78.0351562 88.6816406,78.0351562 C88.4316406,78.0351562 88.2392578,78.1015625 88.1044922,78.234375 C87.9697266,78.3671875 87.9023438,78.5566406 87.9023438,78.8027344 C87.9023438,79.0371094 87.9697266,79.2216797 88.1044922,79.3564453 C88.2392578,79.4912109 88.4316406,79.5585938 88.6816406,79.5585938 Z M89.3613281,87 L89.3613281,80.5195312 L87.984375,80.5195312 L87.984375,87 L89.3613281,87 Z M92.7070312,87 L92.7070312,83.7714844 C92.7070312,82.9628906 92.8417969,82.3867188 93.1113281,82.0429688 C93.3808594,81.6992188 93.8066406,81.5273438 94.3886719,81.5273438 C94.8261719,81.5273438 95.1455078,81.6503906 95.3466797,81.8964844 C95.5478516,82.1425781 95.6484375,82.515625 95.6484375,83.015625 L95.6484375,83.015625 L95.6484375,87 L97.03125,87 L97.03125,82.7753906 C97.03125,81.1933594 96.2539062,80.4023438 94.6992188,80.4023438 C94.2617188,80.4023438 93.8632812,80.4863281 93.5039062,80.6542969 C93.1445312,80.8222656 92.8671875,81.0605469 92.671875,81.3691406 L92.671875,81.3691406 L92.6015625,81.3691406 L92.4082031,80.5195312 L91.3300781,80.5195312 L91.3300781,87 L92.7070312,87 Z M100.617188,87 L100.617188,81.5625 L102.199219,81.5625 L102.199219,80.5195312 L100.617188,80.5195312 L100.617188,80.0976562 C100.617188,79.7109375 100.688477,79.4208984 100.831055,79.2275391 C100.973633,79.0341797 101.201172,78.9375 101.513672,78.9375 C101.822266,78.9375 102.146484,78.9921875 102.486328,79.1015625 L102.486328,79.1015625 L102.849609,78.0585938 C102.380859,77.8984375 101.904297,77.8183594 101.419922,77.8183594 C100.681641,77.8183594 100.132812,78.0029297 99.7734375,78.3720703 C99.4140625,78.7412109 99.234375,79.3085938 99.234375,80.0742188 L99.234375,80.0742188 L99.234375,80.4960938 L98.1679688,80.9179688 L98.1679688,81.5625 L99.234375,81.5625 L99.234375,87 L100.617188,87 Z M105.966797,87.1171875 C106.935547,87.1171875 107.691406,86.8203125 108.234375,86.2265625 C108.777344,85.6328125 109.048828,84.8066406 109.048828,83.7480469 C109.048828,82.7246094 108.775391,81.9111328 108.228516,81.3076172 C107.681641,80.7041016 106.939453,80.4023438 106.001953,80.4023438 C105.021484,80.4023438 104.261719,80.6972656 103.722656,81.2871094 C103.183594,81.8769531 102.914062,82.6972656 102.914062,83.7480469 C102.914062,84.4238281 103.039062,85.0175781 103.289062,85.5292969 C103.539062,86.0410156 103.896484,86.4335938 104.361328,86.7070312 C104.826172,86.9804688 105.361328,87.1171875 105.966797,87.1171875 Z M105.990234,85.9921875 C104.884766,85.9921875 104.332031,85.2441406 104.332031,83.7480469 C104.332031,83.0332031 104.461914,82.484375 104.72168,82.1015625 C104.981445,81.71875 105.400391,81.5273438 105.978516,81.5273438 C107.080078,81.5273438 107.630859,82.2675781 107.630859,83.7480469 C107.630859,85.2441406 107.083984,85.9921875 105.990234,85.9921875 Z M112.007812,87 L112.007812,83.6132812 C112.007812,83.0390625 112.178711,82.5722656 112.520508,82.2128906 C112.862305,81.8535156 113.308594,81.6738281 113.859375,81.6738281 C114.070312,81.6738281 114.273438,81.6972656 114.46875,81.7441406 L114.46875,81.7441406 L114.603516,80.4609375 C114.423828,80.421875 114.195312,80.4023438 113.917969,80.4023438 C113.519531,80.4023438 113.147461,80.515625 112.801758,80.7421875 C112.456055,80.96875 112.175781,81.2753906 111.960938,81.6621094 L111.960938,81.6621094 L111.890625,81.6621094 L111.708984,80.5195312 L110.630859,80.5195312 L110.630859,87 L112.007812,87 Z M117.181641,87 L117.181641,83.7714844 C117.181641,82.9667969 117.305664,82.3916016 117.553711,82.0458984 C117.801758,81.7001953 118.191406,81.5273438 118.722656,81.5273438 C119.121094,81.5273438 119.414062,81.6494141 119.601562,81.8935547 C119.789062,82.1376953 119.882812,82.5078125 119.882812,83.0039062 L119.882812,83.0039062 L119.882812,87 L121.265625,87 L121.265625,83.5664062 C121.265625,82.875 121.389648,82.3623047 121.637695,82.0283203 C121.885742,81.6943359 122.277344,81.5273438 122.8125,81.5273438 C123.210938,81.5273438 123.504883,81.6494141 123.694336,81.8935547 C123.883789,82.1376953 123.978516,82.5078125 123.978516,83.0039062 L123.978516,83.0039062 L123.978516,87 L125.355469,87 L125.355469,82.7753906 C125.355469,81.9746094 125.178711,81.3789062 124.825195,80.9882812 C124.47168,80.5976562 123.908203,80.4023438 123.134766,80.4023438 C122.685547,80.4023438 122.287109,80.4921875 121.939453,80.671875 C121.591797,80.8515625 121.322266,81.1015625 121.130859,81.421875 L121.130859,81.421875 L121.037109,81.421875 C120.712891,80.7421875 120.052734,80.4023438 119.056641,80.4023438 C118.646484,80.4023438 118.270508,80.4863281 117.928711,80.6542969 C117.586914,80.8222656 117.326172,81.0605469 117.146484,81.3691406 L117.146484,81.3691406 L117.076172,81.3691406 L116.882812,80.5195312 L115.804688,80.5195312 L115.804688,87 L117.181641,87 Z M128.847656,87.1171875 C129.34375,87.1171875 129.75,87.0458984 130.066406,86.9033203 C130.382812,86.7607422 130.697266,86.4921875 131.009766,86.0976562 L131.009766,86.0976562 L131.056641,86.0976562 L131.332031,87 L132.316406,87 L132.316406,82.6347656 C132.316406,81.8652344 132.106445,81.3007812 131.686523,80.9414062 C131.266602,80.5820312 130.644531,80.4023438 129.820312,80.4023438 C129.449219,80.4023438 129.054688,80.4501953 128.636719,80.5458984 C128.21875,80.6416016 127.833984,80.78125 127.482422,80.9648438 L127.482422,80.9648438 L127.927734,81.9492188 C128.208984,81.8164062 128.501953,81.7011719 128.806641,81.6035156 C129.111328,81.5058594 129.429688,81.4570312 129.761719,81.4570312 C130.167969,81.4570312 130.467773,81.5595703 130.661133,81.7646484 C130.854492,81.9697266 130.951172,82.2792969 130.951172,82.6933594 L130.951172,82.6933594 L130.951172,83.0390625 L129.832031,83.0742188 C128.816406,83.1054688 128.060547,83.2910156 127.564453,83.6308594 C127.068359,83.9707031 126.820312,84.4746094 126.820312,85.1425781 C126.820312,85.7714844 126.999023,86.2578125 127.356445,86.6015625 C127.713867,86.9453125 128.210938,87.1171875 128.847656,87.1171875 Z M129.28125,86.0625 C128.9375,86.0625 128.679688,85.9833984 128.507812,85.8251953 C128.335938,85.6669922 128.25,85.4433594 128.25,85.1542969 C128.25,84.7558594 128.397461,84.4599609 128.692383,84.2666016 C128.987305,84.0732422 129.458984,83.9648438 130.107422,83.9414062 L130.107422,83.9414062 L130.939453,83.90625 L130.939453,84.46875 C130.939453,84.9726562 130.788086,85.3642578 130.485352,85.6435547 C130.182617,85.9228516 129.78125,86.0625 129.28125,86.0625 Z M136.324219,87.1171875 C136.582031,87.1171875 136.831055,87.0947266 137.071289,87.0498047 C137.311523,87.0048828 137.507812,86.9492188 137.660156,86.8828125 L137.660156,86.8828125 L137.660156,85.8457031 C137.324219,85.9511719 136.988281,86.0039062 136.652344,86.0039062 C136.382812,86.0039062 136.165039,85.9248047 135.999023,85.7666016 C135.833008,85.6083984 135.75,85.3632812 135.75,85.03125 L135.75,85.03125 L135.75,81.5625 L137.595703,81.5625 L137.595703,80.5195312 L135.75,80.5195312 L135.75,79.078125 L134.900391,79.078125 L134.431641,80.4492188 L133.482422,80.953125 L133.482422,81.5625 L134.367188,81.5625 L134.367188,85.0546875 C134.367188,86.4296875 135.019531,87.1171875 136.324219,87.1171875 Z M139.652344,79.5585938 C139.894531,79.5585938 140.083008,79.4912109 140.217773,79.3564453 C140.352539,79.2216797 140.419922,79.0371094 140.419922,78.8027344 C140.419922,78.5566406 140.352539,78.3671875 140.217773,78.234375 C140.083008,78.1015625 139.894531,78.0351562 139.652344,78.0351562 C139.402344,78.0351562 139.209961,78.1015625 139.075195,78.234375 C138.94043,78.3671875 138.873047,78.5566406 138.873047,78.8027344 C138.873047,79.0371094 138.94043,79.2216797 139.075195,79.3564453 C139.209961,79.4912109 139.402344,79.5585938 139.652344,79.5585938 Z M140.332031,87 L140.332031,80.5195312 L138.955078,80.5195312 L138.955078,87 L140.332031,87 Z M144.966797,87.1171875 C145.935547,87.1171875 146.691406,86.8203125 147.234375,86.2265625 C147.777344,85.6328125 148.048828,84.8066406 148.048828,83.7480469 C148.048828,82.7246094 147.775391,81.9111328 147.228516,81.3076172 C146.681641,80.7041016 145.939453,80.4023438 145.001953,80.4023438 C144.021484,80.4023438 143.261719,80.6972656 142.722656,81.2871094 C142.183594,81.8769531 141.914062,82.6972656 141.914062,83.7480469 C141.914062,84.4238281 142.039062,85.0175781 142.289062,85.5292969 C142.539062,86.0410156 142.896484,86.4335938 143.361328,86.7070312 C143.826172,86.9804688 144.361328,87.1171875 144.966797,87.1171875 Z M144.990234,85.9921875 C143.884766,85.9921875 143.332031,85.2441406 143.332031,83.7480469 C143.332031,83.0332031 143.461914,82.484375 143.72168,82.1015625 C143.981445,81.71875 144.400391,81.5273438 144.978516,81.5273438 C146.080078,81.5273438 146.630859,82.2675781 146.630859,83.7480469 C146.630859,85.2441406 146.083984,85.9921875 144.990234,85.9921875 Z M151.007812,87 L151.007812,83.7714844 C151.007812,82.9628906 151.142578,82.3867188 151.412109,82.0429688 C151.681641,81.6992188 152.107422,81.5273438 152.689453,81.5273438 C153.126953,81.5273438 153.446289,81.6503906 153.647461,81.8964844 C153.848633,82.1425781 153.949219,82.515625 153.949219,83.015625 L153.949219,83.015625 L153.949219,87 L155.332031,87 L155.332031,82.7753906 C155.332031,81.1933594 154.554688,80.4023438 153,80.4023438 C152.5625,80.4023438 152.164062,80.4863281 151.804688,80.6542969 C151.445312,80.8222656 151.167969,81.0605469 150.972656,81.3691406 L150.972656,81.3691406 L150.902344,81.3691406 L150.708984,80.5195312 L149.630859,80.5195312 L149.630859,87 L151.007812,87 Z M157.910156,87.1699219 C158.191406,87.1699219 158.407227,87.0888672 158.557617,86.9267578 C158.708008,86.7646484 158.783203,86.5449219 158.783203,86.2675781 C158.783203,85.9941406 158.708984,85.7783203 158.560547,85.6201172 C158.412109,85.4619141 158.195312,85.3828125 157.910156,85.3828125 C157.628906,85.3828125 157.414062,85.4589844 157.265625,85.6113281 C157.117188,85.7636719 157.042969,85.9824219 157.042969,86.2675781 C157.042969,86.5488281 157.117188,86.7695312 157.265625,86.9296875 C157.414062,87.0898438 157.628906,87.1699219 157.910156,87.1699219 Z" id="Incorporateothersideasornewinformation." fill="#FFFFFF" fill-rule="nonzero"></path>
            </g>
        </g>
    </g>
</svg>