<?xml version="1.0" encoding="UTF-8"?>
<svg width="163px" height="97px" viewBox="0 0 163 97" version="1.1" xmlns="http://www.w3.org/2000/svg" xmlns:xlink="http://www.w3.org/1999/xlink">
    <!-- Generator: Sketch 62 (91390) - https://sketch.com -->
    <title>Judge</title>
    <desc>Created with Sketch.</desc>
    <defs>
        <radialGradient cx="26.0530847%" cy="62.3934409%" fx="26.0530847%" fy="62.3934409%" r="35.1006849%" gradientTransform="translate(0.260531,0.623934),scale(0.595092,1.000000),rotate(-90.000000),translate(-0.260531,-0.623934)" id="radialGradient-1">
            <stop stop-color="#F5836F" offset="0%"></stop>
            <stop stop-color="#E74C3C" offset="100%"></stop>
        </radialGradient>
        <path d="M0.06640625,21.3867188 C1.20084635,21.3867188 2.06274414,21.0588379 2.65209961,20.4030762 C3.24145508,19.7473145 3.53613281,18.7996419 3.53613281,17.5600586 L3.53613281,17.5600586 L3.53613281,5.86425781 L1.54394531,5.86425781 L1.54394531,17.6264648 C1.54394531,18.9988607 1.0016276,19.6850586 -0.0830078125,19.6850586 C-0.426106771,19.6850586 -0.830078125,19.6269531 -1.29492188,19.5107422 L-1.29492188,19.5107422 L-1.29492188,21.1791992 C-0.9296875,21.3175456 -0.475911458,21.3867188 0.06640625,21.3867188 Z M9.70361328,18.1660156 C10.3455404,18.1660156 10.9169108,18.0442708 11.4177246,17.8007812 C11.9185384,17.5572917 12.3045247,17.2224935 12.5756836,16.7963867 L12.5756836,16.7963867 L12.675293,16.7963867 L12.9492188,18 L14.4848633,18 L14.4848633,8.81933594 L12.5258789,8.81933594 L12.5258789,13.3930664 C12.5258789,14.5441081 12.3335775,15.364502 11.9489746,15.854248 C11.5643717,16.3439941 10.9625651,16.5888672 10.1435547,16.5888672 C9.52929688,16.5888672 9.07828776,16.4131673 8.79052734,16.0617676 C8.50276693,15.7103678 8.35888672,15.1832682 8.35888672,14.4804688 L8.35888672,14.4804688 L8.35888672,8.81933594 L6.39160156,8.81933594 L6.39160156,14.8208008 C6.39160156,15.9441732 6.66552734,16.7825521 7.21337891,17.3359375 C7.76123047,17.8893229 8.59130859,18.1660156 9.70361328,18.1660156 Z M20.3618164,18.1660156 C21.5681966,18.1660156 22.4840495,17.7094727 23.109375,16.7963867 L23.109375,16.7963867 L23.2006836,16.7963867 L23.5410156,18 L25.0683594,18 L25.0683594,5.08398438 L23.109375,5.08398438 L23.109375,8.42919922 C23.109375,8.81103516 23.1564128,9.33121745 23.2504883,9.98974609 L23.2504883,9.98974609 L23.1508789,9.98974609 C22.5200195,9.09879557 21.6013997,8.65332031 20.3950195,8.65332031 C19.2439779,8.65332031 18.3433431,9.07250977 17.6931152,9.91088867 C17.0428874,10.7492676 16.7177734,11.9210612 16.7177734,13.4262695 C16.7177734,14.925944 17.038737,16.0908203 17.6806641,16.9208984 C18.3225911,17.7509766 19.2163086,18.1660156 20.3618164,18.1660156 Z M20.8847656,16.5888672 C20.1653646,16.5888672 19.6258138,16.3218587 19.2661133,15.7878418 C18.9064128,15.2538249 18.7265625,14.4777018 18.7265625,13.4594727 C18.7265625,12.4301758 18.9119466,11.6374512 19.2827148,11.0812988 C19.6534831,10.5251465 20.1819661,10.2470703 20.8681641,10.2470703 C21.6705729,10.2470703 22.2599284,10.4905599 22.6362305,10.9775391 C23.0125326,11.4645182 23.2006836,12.2862956 23.2006836,13.4428711 L23.2006836,13.4428711 L23.2006836,13.7167969 C23.1896159,14.7294922 23.0014648,15.4613444 22.6362305,15.9123535 C22.2709961,16.3633626 21.6871745,16.5888672 20.8847656,16.5888672 Z M30.5053711,22.0839844 C32.1267904,22.0839844 33.3663737,21.8017578 34.2241211,21.2373047 C35.0818685,20.6728516 35.5107422,19.8704427 35.5107422,18.8300781 C35.5107422,18.0166016 35.2478841,17.394043 34.722168,16.9624023 C34.1964518,16.5307617 33.4272461,16.3149414 32.4145508,16.3149414 L32.4145508,16.3149414 L30.8125,16.3149414 C30.2867839,16.3149414 29.9256999,16.2623698 29.729248,16.1572266 C29.5327962,16.0520833 29.4345703,15.8943685 29.4345703,15.684082 C29.4345703,15.3354492 29.6448568,15.0310872 30.0654297,14.7709961 C30.3033854,14.8152669 30.5690104,14.8374023 30.8623047,14.8374023 C32.0078125,14.8374023 32.9070638,14.5662435 33.5600586,14.0239258 C34.2130534,13.4816081 34.5395508,12.7373047 34.5395508,11.7910156 C34.5395508,11.4755859 34.492513,11.1767578 34.3984375,10.8945312 C34.304362,10.6123047 34.1853841,10.374349 34.0415039,10.1806641 L34.0415039,10.1806641 L35.6103516,9.89013672 L35.6103516,8.81933594 L32.4311523,8.81933594 C32.2872721,8.78059896 32.0728353,8.74324544 31.7878418,8.70727539 C31.5028483,8.67130534 31.230306,8.65332031 30.9702148,8.65332031 C29.8081055,8.65332031 28.9130046,8.92724609 28.2849121,9.47509766 C27.6568197,10.0229492 27.3427734,10.7949219 27.3427734,11.7910156 C27.3427734,12.4108073 27.490804,12.9517415 27.7868652,13.4138184 C28.0829264,13.8758952 28.4689128,14.2093099 28.9448242,14.4140625 C28.5629883,14.6464844 28.2752279,14.8816732 28.081543,15.1196289 C27.8878581,15.3575846 27.7910156,15.648112 27.7910156,15.9912109 C27.7910156,16.2623698 27.8754069,16.5210775 28.0441895,16.767334 C28.212972,17.0135905 28.4274089,17.1920573 28.6875,17.3027344 C28.0455729,17.4521484 27.5461426,17.7191569 27.189209,18.1037598 C26.8322754,18.4883626 26.6538086,18.9628906 26.6538086,19.5273438 C26.6538086,20.3463542 26.9830729,20.9772135 27.6416016,21.4199219 C28.3001302,21.8626302 29.2547201,22.0839844 30.5053711,22.0839844 Z M30.9536133,13.5839844 C30.4002279,13.5839844 29.9755046,13.4290365 29.6794434,13.1191406 C29.3833822,12.8092448 29.2353516,12.3665365 29.2353516,11.7910156 C29.2353516,11.1767578 29.3806152,10.7091471 29.6711426,10.3881836 C29.9616699,10.0672201 30.3891602,9.90673828 30.9536133,9.90673828 C31.5236003,9.90673828 31.9483236,10.0686035 32.2277832,10.392334 C32.5072428,10.7160645 32.6469727,11.1767578 32.6469727,11.7744141 C32.6469727,12.9807943 32.0825195,13.5839844 30.9536133,13.5839844 Z M30.5634766,20.7392578 C29.8772786,20.7392578 29.3446452,20.6258138 28.9655762,20.3989258 C28.5865072,20.1720378 28.3969727,19.8483073 28.3969727,19.4277344 C28.3969727,18.9794922 28.5616048,18.6239421 28.8908691,18.361084 C29.2201335,18.0982259 29.6642253,17.9667969 30.2231445,17.9667969 L30.2231445,17.9667969 L31.7006836,17.9667969 C32.4754232,17.9667969 33.0052897,18.0511882 33.2902832,18.2199707 C33.5752767,18.3887533 33.7177734,18.6723633 33.7177734,19.0708008 C33.7177734,19.5743815 33.4576823,19.9783529 32.9375,20.2827148 C32.4173177,20.5870768 31.6259766,20.7392578 30.5634766,20.7392578 Z M41.3212891,18.1660156 C41.9466146,18.1660156 42.5027669,18.1189779 42.9897461,18.0249023 C43.4767253,17.9308268 43.9581706,17.7703451 44.434082,17.543457 L44.434082,17.543457 L44.434082,15.9580078 C43.8972982,16.1959635 43.3951009,16.3661296 42.9274902,16.4685059 C42.4598796,16.5708822 41.9549154,16.6220703 41.4125977,16.6220703 C40.5880534,16.6220703 39.9488932,16.3827311 39.4951172,15.9040527 C39.0413411,15.4253743 38.8006185,14.7405599 38.7729492,13.8496094 L38.7729492,13.8496094 L44.890625,13.8496094 L44.890625,12.7954102 C44.890625,11.5060221 44.5392253,10.4933268 43.8364258,9.75732422 C43.1336263,9.02132161 42.1762695,8.65332031 40.9643555,8.65332031 C39.6583659,8.65332031 38.6318359,9.08219401 37.8847656,9.93994141 C37.1376953,10.7976888 36.7641602,11.9763997 36.7641602,13.4760742 C36.7641602,14.9370117 37.166748,16.083903 37.9719238,16.916748 C38.7770996,17.7495931 39.8935547,18.1660156 41.3212891,18.1660156 Z M42.9731445,12.4384766 L38.8061523,12.4384766 C38.8780924,11.6858724 39.1008301,11.1131185 39.4743652,10.7202148 C39.8479004,10.3273112 40.3445638,10.1308594 40.9643555,10.1308594 C41.5841471,10.1308594 42.0711263,10.3259277 42.425293,10.7160645 C42.7794596,11.1062012 42.9620768,11.6803385 42.9731445,12.4384766 L42.9731445,12.4384766 Z" id="path-2"></path>
    </defs>
    <g id="Symbols" stroke="none" stroke-width="1" fill="none" fill-rule="evenodd">
        <g id="i/Judge">
            <g id="Judge">
                <path d="M6,0 L157,0 C160.313708,-6.08718376e-16 163,2.6862915 163,6 L163,91 C163,94.3137085 160.313708,97 157,97 L6,97 C2.6862915,97 4.05812251e-16,94.3137085 0,91 L0,6 C-4.05812251e-16,2.6862915 2.6862915,6.08718376e-16 6,0 Z" id="Rectangle-2" fill="url(#radialGradient-1)" fill-rule="nonzero"></path>
                <g id="noun_1056091_E74C3C" transform="translate(24.000000, 43.000000)" fill-rule="nonzero">
                    <g id="Group">
                        <path d="M25.7424687,28.868 C26.2150626,28.308 26.493059,27.608 26.493059,26.824 C26.493059,25.088 25.0752773,23.66 23.3238998,23.66 C21.5725224,23.66 20.1547406,25.088 20.1547406,26.824 C20.1547406,27.608 20.432737,28.336 20.9053309,28.868 C19.6543471,28.868 18.5423614,29.54 17.9029695,30.548 C17.2635778,29.54 16.1793918,28.896 14.9006082,28.868 C15.3732022,28.308 15.6511986,27.608 15.6511986,26.824 C15.6511986,25.088 14.2334168,23.66 12.4820394,23.66 C10.7306619,23.66 9.31288016,25.088 9.31288016,26.824 C9.31288016,27.608 9.59087655,28.336 10.0634705,28.868 C8.11749555,28.896 6.50511624,30.492 6.50511624,32.452 L6.50511624,38.22 C6.50511624,39.172 7.25570662,39.928 8.2008945,39.928 C8.39549194,39.928 8.61788908,39.9 8.78468698,39.816 L8.78468698,41.44 C8.78468698,41.748 9.03488372,42 9.34067976,42 C9.64647585,42 9.89667264,41.748 9.89667264,41.44 L9.89667264,38.22 L9.89667264,33.264 L9.89667264,33.264 C9.89667264,32.956 9.64647585,32.704 9.34067976,32.704 C9.03488372,32.704 8.78468698,32.956 8.78468698,33.264 L8.78468698,38.22 C8.78468698,38.556 8.53449019,38.808 8.2008945,38.808 C7.86729876,38.808 7.61710196,38.556 7.61710196,38.22 L7.61710196,32.452 C7.61710196,31.108 8.72908768,29.988 10.0912701,29.988 L14.8728086,29.988 C16.234991,29.988 17.3469768,31.08 17.3469768,32.452 L17.3469768,38.136 C17.3469768,38.5 17.0411807,38.78 16.6797853,38.78 C16.3183899,38.78 16.012594,38.472 16.012594,38.136 L16.012594,33.236 C16.012594,32.928 15.7623972,32.676 15.4566011,32.676 C15.150805,32.676 14.9006082,32.928 14.9006082,33.236 L14.9006082,33.236 L14.9006082,38.136 L14.9006082,41.44 C14.9006082,41.748 15.150805,42 15.4566011,42 C15.7623972,42 16.012594,41.748 16.012594,41.44 L16.012594,39.788 C16.2071914,39.872 16.4295886,39.928 16.6797853,39.928 C17.1523792,39.928 17.5693738,39.76 17.8751699,39.452 C18.180966,39.732 18.5979607,39.928 19.0427549,39.928 C19.2373525,39.928 19.4597495,39.9 19.6265474,39.816 L19.6265474,41.44 C19.6265474,41.748 19.8767442,42 20.1825403,42 C20.4883363,42 20.7385331,41.748 20.7385331,41.44 L20.7385331,38.22 L20.7385331,33.264 L20.7385331,33.264 C20.7385331,32.956 20.4883363,32.704 20.1825403,32.704 C19.8767442,32.704 19.6265474,32.956 19.6265474,33.264 L19.6265474,38.22 C19.6265474,38.556 19.348551,38.808 19.0427549,38.808 C18.7369588,38.808 18.4589624,38.556 18.4589624,38.22 L18.4589624,38.136 L18.4589624,32.452 C18.4589624,31.108 19.5709481,29.988 20.9331306,29.988 L25.714669,29.988 C27.0768515,29.988 28.1888372,31.08 28.1888372,32.452 L28.1888372,38.136 C28.1888372,38.5 27.8830412,38.78 27.5216458,38.78 C27.1602505,38.78 26.8544544,38.472 26.8544544,38.136 L26.8544544,33.236 C26.8544544,32.928 26.6042576,32.676 26.2984616,32.676 C25.9926655,32.676 25.7424687,32.928 25.7424687,33.236 L25.7424687,33.236 L25.7424687,38.136 L25.7424687,41.44 C25.7424687,41.748 25.9926655,42 26.2984616,42 C26.6042576,42 26.8544544,41.748 26.8544544,41.44 L26.8544544,39.788 C27.0490519,39.872 27.271449,39.928 27.5216458,39.928 C28.4946333,39.928 29.3008229,39.144 29.3008229,38.164 L29.3008229,32.48 C29.3008229,30.492 27.7162433,28.896 25.7424687,28.868 Z M12.5376387,28.868 C11.3978533,28.868 10.4804651,27.944 10.4804651,26.824 C10.4804651,25.704 11.3978533,24.78 12.5376387,24.78 C13.677424,24.78 14.5948122,25.704 14.5948122,26.824 C14.5948122,27.944 13.677424,28.868 12.5376387,28.868 Z M23.3516995,28.868 C22.2119141,28.868 21.2945259,27.944 21.2945259,26.824 C21.2945259,25.704 22.2119141,24.78 23.3516995,24.78 C24.4914848,24.78 25.408873,25.704 25.408873,26.824 C25.408873,27.944 24.4636851,28.868 23.3516995,28.868 Z" id="Shape" fill="#BDC3C7"></path>
                        <path d="M27.4104473,0 L8.45109124,0 C3.83635063,0 0.0833989264,3.78 0.0833989264,8.42799998 C0.0833989264,13.076 3.83635063,16.856 8.45109124,16.856 L10.3414669,16.856 L12.0094455,21.588 C12.0928443,21.812 12.2874419,21.952 12.5376387,21.952 C12.7878354,21.952 12.9824329,21.812 13.0658318,21.588 L14.7338103,16.856 L21.1555277,16.856 L22.8235063,21.588 C22.9069052,21.812 23.1015027,21.952 23.3516995,21.952 C23.6018963,21.952 23.7964937,21.812 23.8798927,21.588 L25.5478712,16.856 L27.4382468,16.856 C32.0529875,16.856 35.8059392,13.076 35.8059392,8.42799998 C35.7781395,3.78 32.0251878,0 27.4104473,0 Z M27.4104473,15.736 L25.1308766,15.736 C24.9084794,15.736 24.6860823,15.876 24.6026834,16.1 L23.3516995,19.712 L22.072916,16.1 C21.989517,15.876 21.7949195,15.736 21.5447227,15.736 L14.3168157,15.736 C14.0944186,15.736 13.8720215,15.876 13.7886225,16.1 L12.509839,19.712 L11.2310555,16.1 C11.1476565,15.876 10.9530591,15.736 10.7028623,15.736 L8.42329159,15.736 C4.42014311,15.736 1.16758497,12.46 1.16758497,8.42799998 C1.19538462,4.396 4.44794275,1.12 8.45109124,1.12 L27.4104473,1.12 C31.4135957,1.12 34.6661538,4.396 34.6661538,8.42799998 C34.6661538,12.46 31.4135957,15.736 27.4104473,15.736 Z" id="Shape" fill="#FFFFFF"></path>
                        <path d="M16.624186,6.888 C16.4295886,6.77600002 16.1793918,6.72 15.9569947,6.72 L15.9569947,6.72 L13.4272272,6.72 C13.5384258,6.02000002 13.5940251,5.292 13.5662254,4.564 L13.5662254,4.508 C13.5384258,4.06 13.3716279,3.64 13.0380322,3.304 C12.7322361,2.968 12.2596422,2.828 11.8426476,2.94 C11.7036494,2.968 11.5646511,3.024 11.4534526,3.108 C11.1198569,3.304 10.8974598,3.696 10.8974598,4.088 L10.8974598,4.592 C10.8974598,4.984 10.8140608,5.348 10.6750626,5.712 C10.5360644,6.07599998 10.3136673,6.384 10.0356708,6.66399998 L9.6186762,6.99999998 C9.5074776,6.91599998 9.39627906,6.83199998 9.22948121,6.83199998 L7.03330948,6.83199998 C6.72751344,6.83199998 6.47731665,7.08399998 6.47731665,7.392 L6.47731665,13.384 C6.47731665,13.692 6.72751344,13.944 7.03330948,13.944 L9.22948121,13.944 C9.53527731,13.944 9.75767439,13.72 9.7854741,13.412 C10.0912701,13.496 10.4248658,13.524 10.7306619,13.524 L14.5114132,13.524 C15.0952057,13.524 15.6233989,13.3 16.0403935,12.88 C16.3183899,12.6 16.5407871,12.236 16.624186,11.816 C17.402576,8.42799998 17.402576,8.232 17.402576,8.12000002 C17.402576,7.644 17.09678,7.14 16.624186,6.888 Z M8.67348832,8.20400002 L8.67348832,12.684 L8.67348832,12.88 L7.58930231,12.88 L7.58930231,7.98 L8.67348832,7.98 L8.67348832,8.20400002 Z M15.54,11.62 C15.4844007,11.816 15.4010018,11.984 15.2620036,12.124 C15.0674061,12.32 14.8172093,12.432 14.5392129,12.432 L10.7584615,12.432 C10.4248658,12.432 10.1190698,12.376 9.81327369,12.292 L9.81327369,8.42799998 L10.8140608,7.41999998 C11.2032558,7.056 11.4812522,6.60800002 11.6758497,6.10400002 C11.8704472,5.6 11.9816458,5.096 11.9816458,4.564 L11.9816458,4.06 C11.9816458,4.06 11.9816458,4.032 12.0094455,4.032 C12.0372451,4.032 12.0372451,4.004 12.0650447,4.004 C12.120644,4.004 12.1762433,4.032 12.2318426,4.088 C12.3430412,4.2 12.4264401,4.368 12.4264401,4.564 L12.4264401,4.62 C12.4542397,5.32 12.3986404,6.02000002 12.2874419,6.72 L12.2040429,7.19600002 C12.1762433,7.36400002 12.2040429,7.53200002 12.3152415,7.644 C12.4264401,7.78400002 12.5654383,7.83999998 12.7322361,7.83999998 L12.7322361,7.83999998 L15.9569947,7.83999998 L15.9569947,7.83999998 C16.012594,7.83999998 16.0681932,7.83999998 16.1237925,7.896 C16.234991,7.95200002 16.2905903,8.064 16.2905903,8.17599998 C16.2627907,8.28800002 16.0681932,9.29600002 15.54,11.62 Z" id="Shape" fill="#BDC3C7"></path>
                        <path d="M28.8004294,2.884 L26.6042576,2.884 C26.2984616,2.884 26.0760644,3.108 26.0482647,3.416 C25.7424687,3.332 25.408873,3.304 25.1030769,3.304 L21.3501252,3.304 C20.7663328,3.304 20.2381396,3.528 19.8211449,3.948 C19.5431485,4.228 19.3207513,4.592 19.2373525,5.012 C18.4589624,8.4 18.4589624,8.59599998 18.4589624,8.70800002 C18.4589624,9.24 18.7369588,9.744 19.2373525,9.996 C19.4319499,10.108 19.6821467,10.164 19.9045438,10.164 L19.9045438,10.164 L22.4343113,10.164 C22.3231127,10.864 22.2675134,11.592 22.2953131,12.32 L22.2953131,12.376 C22.3231127,12.824 22.4899106,13.244 22.8235063,13.58 C23.0737031,13.832 23.4072988,13.972 23.7686941,13.972 C23.852093,13.972 23.935492,13.972 24.0466905,13.944 C24.1856888,13.916 24.3246869,13.86 24.4358855,13.776 C24.7694812,13.58 24.9918784,13.188 24.9918784,12.796 L24.9918784,12.292 C24.9918784,11.9 25.0752773,11.536 25.2142755,11.172 C25.3532737,10.808 25.5756709,10.5 25.8536672,10.22 L26.2428623,9.828 C26.3540608,9.912 26.4652594,9.996 26.6320572,9.996 L28.828229,9.996 C29.134025,9.996 29.3842218,9.744 29.3842218,9.43599998 L29.3842218,3.444 C29.3564222,3.136 29.134025,2.884 28.8004294,2.884 Z M26.0760644,8.42799998 L25.0752773,9.43599998 C24.7138819,9.80000002 24.4080859,10.248 24.2134883,10.752 C24.0188909,11.256 23.9076923,11.76 23.9076923,12.292 L23.9076923,12.796 C23.9076923,12.796 23.9076923,12.824 23.8798927,12.824 C23.852093,12.824 23.852093,12.852 23.8242934,12.852 C23.7686941,12.852 23.7130948,12.824 23.6574956,12.768 C23.5462969,12.656 23.462898,12.488 23.462898,12.292 L23.462898,12.236 C23.4350984,11.536 23.4906977,10.836 23.6018963,10.136 L23.6852952,9.66 C23.7130948,9.492 23.6852952,9.324 23.5740966,9.21200002 C23.462898,9.072 23.3238998,9.01599998 23.157102,9.01599998 L23.157102,9.01599998 L19.9323435,9.01599998 L19.9323435,9.01599998 C19.8767442,9.01599998 19.8211449,9.01599998 19.7655456,8.96000002 C19.6543471,8.904 19.5987478,8.79200002 19.5987478,8.67999998 C19.5987478,8.51199998 19.8211449,7.53200002 20.3493381,5.208 C20.4049374,5.012 20.4883363,4.844 20.6273345,4.704 C20.8219321,4.508 21.0721288,4.396 21.3501252,4.396 L25.1308766,4.396 C25.4644723,4.396 25.7702684,4.452 26.0760644,4.536 L26.0760644,8.42799998 L26.0760644,8.42799998 Z M28.2444365,8.87600002 L27.1602505,8.87600002 L27.1602505,8.652 L27.1602505,4.2 L27.1602505,4.004 L28.2444365,4.004 L28.2444365,8.87600002 Z" id="Shape" fill="#9B9B9B"></path>
                    </g>
                </g>
                <polyline id="Line-2" stroke="#FFFFFF" stroke-width="4" stroke-linecap="square" points="2 30 20.4627861 30 161 30"></polyline>
                <line x1="81" y1="45" x2="81" y2="85.0042519" id="Line-3" stroke="#FFFFFF" stroke-width="2" stroke-linecap="square"></line>
                <g id="Adverbs" transform="translate(57.000000, 3.000000)" fill="#FFFFFF" fill-rule="nonzero">
                    <g id="Judge">
                        <use xlink:href="#path-2"></use>
                        <use xlink:href="#path-2"></use>
                    </g>
                </g>
                <path d="M92.5195312,51 L92.5195312,47.484375 L95.7480469,47.484375 L95.7480469,46.2949219 L92.5195312,46.2949219 L92.5195312,43.6171875 L95.9648438,43.6171875 L95.9648438,42.4335938 L91.1308594,42.4335938 L91.1308594,51 L92.5195312,51 Z M100.037109,51.1171875 C101.005859,51.1171875 101.761719,50.8203125 102.304688,50.2265625 C102.847656,49.6328125 103.119141,48.8066406 103.119141,47.7480469 C103.119141,46.7246094 102.845703,45.9111328 102.298828,45.3076172 C101.751953,44.7041016 101.009766,44.4023438 100.072266,44.4023438 C99.0917969,44.4023438 98.3320312,44.6972656 97.7929688,45.2871094 C97.2539062,45.8769531 96.984375,46.6972656 96.984375,47.7480469 C96.984375,48.4238281 97.109375,49.0175781 97.359375,49.5292969 C97.609375,50.0410156 97.9667969,50.4335938 98.4316406,50.7070312 C98.8964844,50.9804688 99.4316406,51.1171875 100.037109,51.1171875 Z M100.060547,49.9921875 C98.9550781,49.9921875 98.4023438,49.2441406 98.4023438,47.7480469 C98.4023438,47.0332031 98.5322266,46.484375 98.7919922,46.1015625 C99.0517578,45.71875 99.4707031,45.5273438 100.048828,45.5273438 C101.150391,45.5273438 101.701172,46.2675781 101.701172,47.7480469 C101.701172,49.2441406 101.154297,49.9921875 100.060547,49.9921875 Z M106.078125,51 L106.078125,47.6132812 C106.078125,47.0390625 106.249023,46.5722656 106.59082,46.2128906 C106.932617,45.8535156 107.378906,45.6738281 107.929688,45.6738281 C108.140625,45.6738281 108.34375,45.6972656 108.539062,45.7441406 L108.539062,45.7441406 L108.673828,44.4609375 C108.494141,44.421875 108.265625,44.4023438 107.988281,44.4023438 C107.589844,44.4023438 107.217773,44.515625 106.87207,44.7421875 C106.526367,44.96875 106.246094,45.2753906 106.03125,45.6621094 L106.03125,45.6621094 L105.960938,45.6621094 L105.779297,44.5195312 L104.701172,44.5195312 L104.701172,51 L106.078125,51 Z M111.251953,51 L111.251953,47.7714844 C111.251953,46.9667969 111.375977,46.3916016 111.624023,46.0458984 C111.87207,45.7001953 112.261719,45.5273438 112.792969,45.5273438 C113.191406,45.5273438 113.484375,45.6494141 113.671875,45.8935547 C113.859375,46.1376953 113.953125,46.5078125 113.953125,47.0039062 L113.953125,47.0039062 L113.953125,51 L115.335938,51 L115.335938,47.5664062 C115.335938,46.875 115.459961,46.3623047 115.708008,46.0283203 C115.956055,45.6943359 116.347656,45.5273438 116.882812,45.5273438 C117.28125,45.5273438 117.575195,45.6494141 117.764648,45.8935547 C117.954102,46.1376953 118.048828,46.5078125 118.048828,47.0039062 L118.048828,47.0039062 L118.048828,51 L119.425781,51 L119.425781,46.7753906 C119.425781,45.9746094 119.249023,45.3789062 118.895508,44.9882812 C118.541992,44.5976562 117.978516,44.4023438 117.205078,44.4023438 C116.755859,44.4023438 116.357422,44.4921875 116.009766,44.671875 C115.662109,44.8515625 115.392578,45.1015625 115.201172,45.421875 L115.201172,45.421875 L115.107422,45.421875 C114.783203,44.7421875 114.123047,44.4023438 113.126953,44.4023438 C112.716797,44.4023438 112.34082,44.4863281 111.999023,44.6542969 C111.657227,44.8222656 111.396484,45.0605469 111.216797,45.3691406 L111.216797,45.3691406 L111.146484,45.3691406 L110.953125,44.5195312 L109.875,44.5195312 L109.875,51 L111.251953,51 Z M126.035156,51.1171875 C126.53125,51.1171875 126.9375,51.0458984 127.253906,50.9033203 C127.570312,50.7607422 127.884766,50.4921875 128.197266,50.0976562 L128.197266,50.0976562 L128.244141,50.0976562 L128.519531,51 L129.503906,51 L129.503906,46.6347656 C129.503906,45.8652344 129.293945,45.3007812 128.874023,44.9414062 C128.454102,44.5820312 127.832031,44.4023438 127.007812,44.4023438 C126.636719,44.4023438 126.242188,44.4501953 125.824219,44.5458984 C125.40625,44.6416016 125.021484,44.78125 124.669922,44.9648438 L124.669922,44.9648438 L125.115234,45.9492188 C125.396484,45.8164062 125.689453,45.7011719 125.994141,45.6035156 C126.298828,45.5058594 126.617188,45.4570312 126.949219,45.4570312 C127.355469,45.4570312 127.655273,45.5595703 127.848633,45.7646484 C128.041992,45.9697266 128.138672,46.2792969 128.138672,46.6933594 L128.138672,46.6933594 L128.138672,47.0390625 L127.019531,47.0742188 C126.003906,47.1054688 125.248047,47.2910156 124.751953,47.6308594 C124.255859,47.9707031 124.007812,48.4746094 124.007812,49.1425781 C124.007812,49.7714844 124.186523,50.2578125 124.543945,50.6015625 C124.901367,50.9453125 125.398438,51.1171875 126.035156,51.1171875 Z M126.46875,50.0625 C126.125,50.0625 125.867188,49.9833984 125.695312,49.8251953 C125.523438,49.6669922 125.4375,49.4433594 125.4375,49.1542969 C125.4375,48.7558594 125.584961,48.4599609 125.879883,48.2666016 C126.174805,48.0732422 126.646484,47.9648438 127.294922,47.9414062 L127.294922,47.9414062 L128.126953,47.90625 L128.126953,48.46875 C128.126953,48.9726562 127.975586,49.3642578 127.672852,49.6435547 C127.370117,49.9228516 126.96875,50.0625 126.46875,50.0625 Z M132.802734,51 L132.802734,47.7714844 C132.802734,46.9628906 132.9375,46.3867188 133.207031,46.0429688 C133.476562,45.6992188 133.902344,45.5273438 134.484375,45.5273438 C134.921875,45.5273438 135.241211,45.6503906 135.442383,45.8964844 C135.643555,46.1425781 135.744141,46.515625 135.744141,47.015625 L135.744141,47.015625 L135.744141,51 L137.126953,51 L137.126953,46.7753906 C137.126953,45.1933594 136.349609,44.4023438 134.794922,44.4023438 C134.357422,44.4023438 133.958984,44.4863281 133.599609,44.6542969 C133.240234,44.8222656 132.962891,45.0605469 132.767578,45.3691406 L132.767578,45.3691406 L132.697266,45.3691406 L132.503906,44.5195312 L131.425781,44.5195312 L131.425781,51 L132.802734,51 Z M93.6503906,63.1171875 C94.6191406,63.1171875 95.375,62.8203125 95.9179688,62.2265625 C96.4609375,61.6328125 96.7324219,60.8066406 96.7324219,59.7480469 C96.7324219,58.7246094 96.4589844,57.9111328 95.9121094,57.3076172 C95.3652344,56.7041016 94.6230469,56.4023438 93.6855469,56.4023438 C92.7050781,56.4023438 91.9453125,56.6972656 91.40625,57.2871094 C90.8671875,57.8769531 90.5976562,58.6972656 90.5976562,59.7480469 C90.5976562,60.4238281 90.7226562,61.0175781 90.9726562,61.5292969 C91.2226562,62.0410156 91.5800781,62.4335938 92.0449219,62.7070312 C92.5097656,62.9804688 93.0449219,63.1171875 93.6503906,63.1171875 Z M93.6738281,61.9921875 C92.5683594,61.9921875 92.015625,61.2441406 92.015625,59.7480469 C92.015625,59.0332031 92.1455078,58.484375 92.4052734,58.1015625 C92.6650391,57.71875 93.0839844,57.5273438 93.6621094,57.5273438 C94.7636719,57.5273438 95.3144531,58.2675781 95.3144531,59.7480469 C95.3144531,61.2441406 94.7675781,61.9921875 93.6738281,61.9921875 Z M99.6914062,65.8828125 L99.6914062,63.2285156 C99.6914062,63.1113281 99.6640625,62.7792969 99.609375,62.2324219 L99.609375,62.2324219 L99.6914062,62.2324219 C100.144531,62.8222656 100.78125,63.1171875 101.601562,63.1171875 C102.410156,63.1171875 103.043945,62.8203125 103.50293,62.2265625 C103.961914,61.6328125 104.191406,60.8066406 104.191406,59.7480469 C104.191406,58.6894531 103.96582,57.8671875 103.514648,57.28125 C103.063477,56.6953125 102.433594,56.4023438 101.625,56.4023438 C100.765625,56.4023438 100.121094,56.7304688 99.6914062,57.3867188 L99.6914062,57.3867188 L99.6210938,57.3867188 C99.5234375,56.9296875 99.4589844,56.640625 99.4277344,56.5195312 L99.4277344,56.5195312 L98.3144531,56.5195312 L98.3144531,65.8828125 L99.6914062,65.8828125 Z M101.291016,61.9921875 C100.724609,61.9921875 100.316406,61.8154297 100.066406,61.4619141 C99.8164062,61.1083984 99.6914062,60.5371094 99.6914062,59.7480469 L99.6914062,59.7480469 L99.6914062,59.5429688 C99.6914062,58.8398438 99.8173828,58.328125 100.069336,58.0078125 C100.321289,57.6875 100.720703,57.5273438 101.267578,57.5273438 C101.763672,57.5273438 102.139648,57.7138672 102.395508,58.0869141 C102.651367,58.4599609 102.779297,59.0097656 102.779297,59.7363281 C102.779297,60.4589844 102.650391,61.015625 102.392578,61.40625 C102.134766,61.796875 101.767578,61.9921875 101.291016,61.9921875 Z M106.488281,55.5585938 C106.730469,55.5585938 106.918945,55.4912109 107.053711,55.3564453 C107.188477,55.2216797 107.255859,55.0371094 107.255859,54.8027344 C107.255859,54.5566406 107.188477,54.3671875 107.053711,54.234375 C106.918945,54.1015625 106.730469,54.0351562 106.488281,54.0351562 C106.238281,54.0351562 106.045898,54.1015625 105.911133,54.234375 C105.776367,54.3671875 105.708984,54.5566406 105.708984,54.8027344 C105.708984,55.0371094 105.776367,55.2216797 105.911133,55.3564453 C106.045898,55.4912109 106.238281,55.5585938 106.488281,55.5585938 Z M107.167969,63 L107.167969,56.5195312 L105.791016,56.5195312 L105.791016,63 L107.167969,63 Z M110.513672,63 L110.513672,59.7714844 C110.513672,58.9628906 110.648438,58.3867188 110.917969,58.0429688 C111.1875,57.6992188 111.613281,57.5273438 112.195312,57.5273438 C112.632812,57.5273438 112.952148,57.6503906 113.15332,57.8964844 C113.354492,58.1425781 113.455078,58.515625 113.455078,59.015625 L113.455078,59.015625 L113.455078,63 L114.837891,63 L114.837891,58.7753906 C114.837891,57.1933594 114.060547,56.4023438 112.505859,56.4023438 C112.068359,56.4023438 111.669922,56.4863281 111.310547,56.6542969 C110.951172,56.8222656 110.673828,57.0605469 110.478516,57.3691406 L110.478516,57.3691406 L110.408203,57.3691406 L110.214844,56.5195312 L109.136719,56.5195312 L109.136719,63 L110.513672,63 Z M117.451172,55.5585938 C117.693359,55.5585938 117.881836,55.4912109 118.016602,55.3564453 C118.151367,55.2216797 118.21875,55.0371094 118.21875,54.8027344 C118.21875,54.5566406 118.151367,54.3671875 118.016602,54.234375 C117.881836,54.1015625 117.693359,54.0351562 117.451172,54.0351562 C117.201172,54.0351562 117.008789,54.1015625 116.874023,54.234375 C116.739258,54.3671875 116.671875,54.5566406 116.671875,54.8027344 C116.671875,55.0371094 116.739258,55.2216797 116.874023,55.3564453 C117.008789,55.4912109 117.201172,55.5585938 117.451172,55.5585938 Z M118.130859,63 L118.130859,56.5195312 L116.753906,56.5195312 L116.753906,63 L118.130859,63 Z M122.765625,63.1171875 C123.734375,63.1171875 124.490234,62.8203125 125.033203,62.2265625 C125.576172,61.6328125 125.847656,60.8066406 125.847656,59.7480469 C125.847656,58.7246094 125.574219,57.9111328 125.027344,57.3076172 C124.480469,56.7041016 123.738281,56.4023438 122.800781,56.4023438 C121.820312,56.4023438 121.060547,56.6972656 120.521484,57.2871094 C119.982422,57.8769531 119.712891,58.6972656 119.712891,59.7480469 C119.712891,60.4238281 119.837891,61.0175781 120.087891,61.5292969 C120.337891,62.0410156 120.695312,62.4335938 121.160156,62.7070312 C121.625,62.9804688 122.160156,63.1171875 122.765625,63.1171875 Z M122.789062,61.9921875 C121.683594,61.9921875 121.130859,61.2441406 121.130859,59.7480469 C121.130859,59.0332031 121.260742,58.484375 121.520508,58.1015625 C121.780273,57.71875 122.199219,57.5273438 122.777344,57.5273438 C123.878906,57.5273438 124.429688,58.2675781 124.429688,59.7480469 C124.429688,61.2441406 123.882812,61.9921875 122.789062,61.9921875 Z M128.806641,63 L128.806641,59.7714844 C128.806641,58.9628906 128.941406,58.3867188 129.210938,58.0429688 C129.480469,57.6992188 129.90625,57.5273438 130.488281,57.5273438 C130.925781,57.5273438 131.245117,57.6503906 131.446289,57.8964844 C131.647461,58.1425781 131.748047,58.515625 131.748047,59.015625 L131.748047,59.015625 L131.748047,63 L133.130859,63 L133.130859,58.7753906 C133.130859,57.1933594 132.353516,56.4023438 130.798828,56.4023438 C130.361328,56.4023438 129.962891,56.4863281 129.603516,56.6542969 C129.244141,56.8222656 128.966797,57.0605469 128.771484,57.3691406 L128.771484,57.3691406 L128.701172,57.3691406 L128.507812,56.5195312 L127.429688,56.5195312 L127.429688,63 L128.806641,63 Z M140.830078,63.1171875 C141.798828,63.1171875 142.554688,62.8203125 143.097656,62.2265625 C143.640625,61.6328125 143.912109,60.8066406 143.912109,59.7480469 C143.912109,58.7246094 143.638672,57.9111328 143.091797,57.3076172 C142.544922,56.7041016 141.802734,56.4023438 140.865234,56.4023438 C139.884766,56.4023438 139.125,56.6972656 138.585938,57.2871094 C138.046875,57.8769531 137.777344,58.6972656 137.777344,59.7480469 C137.777344,60.4238281 137.902344,61.0175781 138.152344,61.5292969 C138.402344,62.0410156 138.759766,62.4335938 139.224609,62.7070312 C139.689453,62.9804688 140.224609,63.1171875 140.830078,63.1171875 Z M140.853516,61.9921875 C139.748047,61.9921875 139.195312,61.2441406 139.195312,59.7480469 C139.195312,59.0332031 139.325195,58.484375 139.584961,58.1015625 C139.844727,57.71875 140.263672,57.5273438 140.841797,57.5273438 C141.943359,57.5273438 142.494141,58.2675781 142.494141,59.7480469 C142.494141,61.2441406 141.947266,61.9921875 140.853516,61.9921875 Z M146.871094,63 L146.871094,59.6132812 C146.871094,59.0390625 147.041992,58.5722656 147.383789,58.2128906 C147.725586,57.8535156 148.171875,57.6738281 148.722656,57.6738281 C148.933594,57.6738281 149.136719,57.6972656 149.332031,57.7441406 L149.332031,57.7441406 L149.466797,56.4609375 C149.287109,56.421875 149.058594,56.4023438 148.78125,56.4023438 C148.382812,56.4023438 148.010742,56.515625 147.665039,56.7421875 C147.319336,56.96875 147.039062,57.2753906 146.824219,57.6621094 L146.824219,57.6621094 L146.753906,57.6621094 L146.572266,56.5195312 L145.494141,56.5195312 L145.494141,63 L146.871094,63 Z M93.5976562,75.1171875 C93.9960938,75.1171875 94.3349609,75.0859375 94.6142578,75.0234375 C94.8935547,74.9609375 95.15625,74.8574219 95.4023438,74.7128906 L95.4023438,74.7128906 L95.4023438,73.5117188 C94.8554688,73.8164062 94.2753906,73.96875 93.6621094,73.96875 C93.1230469,73.96875 92.7138672,73.7861328 92.4345703,73.4208984 C92.1552734,73.0556641 92.015625,72.5097656 92.015625,71.7832031 C92.015625,70.2949219 92.5761719,69.5507812 93.6972656,69.5507812 C94.0761719,69.5507812 94.5566406,69.6640625 95.1386719,69.890625 L95.1386719,69.890625 L95.5546875,68.7832031 C95.0078125,68.5292969 94.3925781,68.4023438 93.7089844,68.4023438 C92.7011719,68.4023438 91.9306641,68.6953125 91.3974609,69.28125 C90.8642578,69.8671875 90.5976562,70.7050781 90.5976562,71.7949219 C90.5976562,72.8652344 90.8525391,73.6865234 91.3623047,74.2587891 C91.8720703,74.8310547 92.6171875,75.1171875 93.5976562,75.1171875 Z M99.5917969,75.1171875 C100.560547,75.1171875 101.316406,74.8203125 101.859375,74.2265625 C102.402344,73.6328125 102.673828,72.8066406 102.673828,71.7480469 C102.673828,70.7246094 102.400391,69.9111328 101.853516,69.3076172 C101.306641,68.7041016 100.564453,68.4023438 99.6269531,68.4023438 C98.6464844,68.4023438 97.8867188,68.6972656 97.3476562,69.2871094 C96.8085938,69.8769531 96.5390625,70.6972656 96.5390625,71.7480469 C96.5390625,72.4238281 96.6640625,73.0175781 96.9140625,73.5292969 C97.1640625,74.0410156 97.5214844,74.4335938 97.9863281,74.7070312 C98.4511719,74.9804688 98.9863281,75.1171875 99.5917969,75.1171875 Z M99.6152344,73.9921875 C98.5097656,73.9921875 97.9570312,73.2441406 97.9570312,71.7480469 C97.9570312,71.0332031 98.0869141,70.484375 98.3466797,70.1015625 C98.6064453,69.71875 99.0253906,69.5273438 99.6035156,69.5273438 C100.705078,69.5273438 101.255859,70.2675781 101.255859,71.7480469 C101.255859,73.2441406 100.708984,73.9921875 99.6152344,73.9921875 Z M105.632812,75 L105.632812,71.7714844 C105.632812,70.9628906 105.767578,70.3867188 106.037109,70.0429688 C106.306641,69.6992188 106.732422,69.5273438 107.314453,69.5273438 C107.751953,69.5273438 108.071289,69.6503906 108.272461,69.8964844 C108.473633,70.1425781 108.574219,70.515625 108.574219,71.015625 L108.574219,71.015625 L108.574219,75 L109.957031,75 L109.957031,70.7753906 C109.957031,69.1933594 109.179688,68.4023438 107.625,68.4023438 C107.1875,68.4023438 106.789062,68.4863281 106.429688,68.6542969 C106.070312,68.8222656 105.792969,69.0605469 105.597656,69.3691406 L105.597656,69.3691406 L105.527344,69.3691406 L105.333984,68.5195312 L104.255859,68.5195312 L104.255859,75 L105.632812,75 Z M113.554688,75.1171875 C114.414062,75.1171875 115.074219,74.9482422 115.535156,74.6103516 C115.996094,74.2724609 116.226562,73.7871094 116.226562,73.1542969 C116.226562,72.8417969 116.167969,72.5732422 116.050781,72.3486328 C115.933594,72.1240234 115.753906,71.9257812 115.511719,71.7539062 C115.269531,71.5820312 114.880859,71.3925781 114.345703,71.1855469 C113.708984,70.9394531 113.295898,70.7460938 113.106445,70.6054688 C112.916992,70.4648438 112.822266,70.2929688 112.822266,70.0898438 C112.822266,69.6757812 113.185547,69.46875 113.912109,69.46875 C114.388672,69.46875 114.976562,69.6132812 115.675781,69.9023438 L115.675781,69.9023438 L116.121094,68.8652344 C115.441406,68.5566406 114.720703,68.4023438 113.958984,68.4023438 C113.189453,68.4023438 112.581055,68.5556641 112.133789,68.8623047 C111.686523,69.1689453 111.462891,69.5996094 111.462891,70.1542969 C111.462891,70.6152344 111.594727,70.9902344 111.858398,71.2792969 C112.12207,71.5683594 112.626953,71.8574219 113.373047,72.1464844 C113.755859,72.2949219 114.054688,72.4277344 114.269531,72.5449219 C114.484375,72.6621094 114.638672,72.7753906 114.732422,72.8847656 C114.826172,72.9941406 114.873047,73.1308594 114.873047,73.2949219 C114.873047,73.8066406 114.449219,74.0625 113.601562,74.0625 C112.945312,74.0625 112.236328,73.8867188 111.474609,73.5351562 L111.474609,73.5351562 L111.474609,74.7246094 C111.998047,74.9863281 112.691406,75.1171875 113.554688,75.1171875 Z M118.412109,67.5585938 C118.654297,67.5585938 118.842773,67.4912109 118.977539,67.3564453 C119.112305,67.2216797 119.179688,67.0371094 119.179688,66.8027344 C119.179688,66.5566406 119.112305,66.3671875 118.977539,66.234375 C118.842773,66.1015625 118.654297,66.0351562 118.412109,66.0351562 C118.162109,66.0351562 117.969727,66.1015625 117.834961,66.234375 C117.700195,66.3671875 117.632812,66.5566406 117.632812,66.8027344 C117.632812,67.0371094 117.700195,67.2216797 117.834961,67.3564453 C117.969727,67.4912109 118.162109,67.5585938 118.412109,67.5585938 Z M119.091797,75 L119.091797,68.5195312 L117.714844,68.5195312 L117.714844,75 L119.091797,75 Z M123.246094,75.1171875 C124.097656,75.1171875 124.744141,74.7949219 125.185547,74.1503906 L125.185547,74.1503906 L125.25,74.1503906 L125.490234,75 L126.568359,75 L126.568359,65.8828125 L125.185547,65.8828125 L125.185547,68.2441406 C125.185547,68.5136719 125.21875,68.8808594 125.285156,69.3457031 L125.285156,69.3457031 L125.214844,69.3457031 C124.769531,68.7167969 124.121094,68.4023438 123.269531,68.4023438 C122.457031,68.4023438 121.821289,68.6982422 121.362305,69.2900391 C120.90332,69.8818359 120.673828,70.7089844 120.673828,71.7714844 C120.673828,72.8300781 120.900391,73.6523438 121.353516,74.2382812 C121.806641,74.8242188 122.4375,75.1171875 123.246094,75.1171875 Z M123.615234,74.0039062 C123.107422,74.0039062 122.726562,73.8154297 122.472656,73.4384766 C122.21875,73.0615234 122.091797,72.5136719 122.091797,71.7949219 C122.091797,71.0683594 122.222656,70.5087891 122.484375,70.1162109 C122.746094,69.7236328 123.119141,69.5273438 123.603516,69.5273438 C124.169922,69.5273438 124.585938,69.6992188 124.851562,70.0429688 C125.117188,70.3867188 125.25,70.9667969 125.25,71.7832031 L125.25,71.7832031 L125.25,71.9765625 C125.242188,72.6914062 125.109375,73.2080078 124.851562,73.5263672 C124.59375,73.8447266 124.181641,74.0039062 123.615234,74.0039062 Z M131.367188,75.1171875 C131.808594,75.1171875 132.201172,75.0839844 132.544922,75.0175781 C132.888672,74.9511719 133.228516,74.8378906 133.564453,74.6777344 L133.564453,74.6777344 L133.564453,73.5585938 C133.185547,73.7265625 132.831055,73.8466797 132.500977,73.9189453 C132.170898,73.9912109 131.814453,74.0273438 131.431641,74.0273438 C130.849609,74.0273438 130.398438,73.8583984 130.078125,73.5205078 C129.757812,73.1826172 129.587891,72.6992188 129.568359,72.0703125 L129.568359,72.0703125 L133.886719,72.0703125 L133.886719,71.3261719 C133.886719,70.4160156 133.638672,69.7011719 133.142578,69.1816406 C132.646484,68.6621094 131.970703,68.4023438 131.115234,68.4023438 C130.193359,68.4023438 129.46875,68.7050781 128.941406,69.3105469 C128.414062,69.9160156 128.150391,70.7480469 128.150391,71.8066406 C128.150391,72.8378906 128.43457,73.6474609 129.00293,74.2353516 C129.571289,74.8232422 130.359375,75.1171875 131.367188,75.1171875 Z M132.533203,71.0742188 L129.591797,71.0742188 C129.642578,70.5429688 129.799805,70.1386719 130.063477,69.8613281 C130.327148,69.5839844 130.677734,69.4453125 131.115234,69.4453125 C131.552734,69.4453125 131.896484,69.5830078 132.146484,69.8583984 C132.396484,70.1337891 132.525391,70.5390625 132.533203,71.0742188 L132.533203,71.0742188 Z M136.828125,75 L136.828125,71.6132812 C136.828125,71.0390625 136.999023,70.5722656 137.34082,70.2128906 C137.682617,69.8535156 138.128906,69.6738281 138.679688,69.6738281 C138.890625,69.6738281 139.09375,69.6972656 139.289062,69.7441406 L139.289062,69.7441406 L139.423828,68.4609375 C139.244141,68.421875 139.015625,68.4023438 138.738281,68.4023438 C138.339844,68.4023438 137.967773,68.515625 137.62207,68.7421875 C137.276367,68.96875 136.996094,69.2753906 136.78125,69.6621094 L136.78125,69.6621094 L136.710938,69.6621094 L136.529297,68.5195312 L135.451172,68.5195312 L135.451172,75 L136.828125,75 Z M143.455078,75.1171875 C143.896484,75.1171875 144.289062,75.0839844 144.632812,75.0175781 C144.976562,74.9511719 145.316406,74.8378906 145.652344,74.6777344 L145.652344,74.6777344 L145.652344,73.5585938 C145.273438,73.7265625 144.918945,73.8466797 144.588867,73.9189453 C144.258789,73.9912109 143.902344,74.0273438 143.519531,74.0273438 C142.9375,74.0273438 142.486328,73.8583984 142.166016,73.5205078 C141.845703,73.1826172 141.675781,72.6992188 141.65625,72.0703125 L141.65625,72.0703125 L145.974609,72.0703125 L145.974609,71.3261719 C145.974609,70.4160156 145.726562,69.7011719 145.230469,69.1816406 C144.734375,68.6621094 144.058594,68.4023438 143.203125,68.4023438 C142.28125,68.4023438 141.556641,68.7050781 141.029297,69.3105469 C140.501953,69.9160156 140.238281,70.7480469 140.238281,71.8066406 C140.238281,72.8378906 140.522461,73.6474609 141.09082,74.2353516 C141.65918,74.8232422 142.447266,75.1171875 143.455078,75.1171875 Z M144.621094,71.0742188 L141.679688,71.0742188 C141.730469,70.5429688 141.887695,70.1386719 142.151367,69.8613281 C142.415039,69.5839844 142.765625,69.4453125 143.203125,69.4453125 C143.640625,69.4453125 143.984375,69.5830078 144.234375,69.8583984 C144.484375,70.1337891 144.613281,70.5390625 144.621094,71.0742188 L144.621094,71.0742188 Z M149.724609,75.1171875 C150.576172,75.1171875 151.222656,74.7949219 151.664062,74.1503906 L151.664062,74.1503906 L151.728516,74.1503906 L151.96875,75 L153.046875,75 L153.046875,65.8828125 L151.664062,65.8828125 L151.664062,68.2441406 C151.664062,68.5136719 151.697266,68.8808594 151.763672,69.3457031 L151.763672,69.3457031 L151.693359,69.3457031 C151.248047,68.7167969 150.599609,68.4023438 149.748047,68.4023438 C148.935547,68.4023438 148.299805,68.6982422 147.84082,69.2900391 C147.381836,69.8818359 147.152344,70.7089844 147.152344,71.7714844 C147.152344,72.8300781 147.378906,73.6523438 147.832031,74.2382812 C148.285156,74.8242188 148.916016,75.1171875 149.724609,75.1171875 Z M150.09375,74.0039062 C149.585938,74.0039062 149.205078,73.8154297 148.951172,73.4384766 C148.697266,73.0615234 148.570312,72.5136719 148.570312,71.7949219 C148.570312,71.0683594 148.701172,70.5087891 148.962891,70.1162109 C149.224609,69.7236328 149.597656,69.5273438 150.082031,69.5273438 C150.648438,69.5273438 151.064453,69.6992188 151.330078,70.0429688 C151.595703,70.3867188 151.728516,70.9667969 151.728516,71.7832031 L151.728516,71.7832031 L151.728516,71.9765625 C151.720703,72.6914062 151.587891,73.2080078 151.330078,73.5263672 C151.072266,73.8447266 150.660156,74.0039062 150.09375,74.0039062 Z M93.1699219,87.1171875 C94.0214844,87.1171875 94.6679688,86.7949219 95.109375,86.1503906 L95.109375,86.1503906 L95.1738281,86.1503906 L95.4140625,87 L96.4921875,87 L96.4921875,77.8828125 L95.109375,77.8828125 L95.109375,80.2441406 C95.109375,80.5136719 95.1425781,80.8808594 95.2089844,81.3457031 L95.2089844,81.3457031 L95.1386719,81.3457031 C94.6933594,80.7167969 94.0449219,80.4023438 93.1933594,80.4023438 C92.3808594,80.4023438 91.7451172,80.6982422 91.2861328,81.2900391 C90.8271484,81.8818359 90.5976562,82.7089844 90.5976562,83.7714844 C90.5976562,84.8300781 90.8242188,85.6523438 91.2773438,86.2382812 C91.7304688,86.8242188 92.3613281,87.1171875 93.1699219,87.1171875 Z M93.5390625,86.0039062 C93.03125,86.0039062 92.6503906,85.8154297 92.3964844,85.4384766 C92.1425781,85.0615234 92.015625,84.5136719 92.015625,83.7949219 C92.015625,83.0683594 92.1464844,82.5087891 92.4082031,82.1162109 C92.6699219,81.7236328 93.0429688,81.5273438 93.5273438,81.5273438 C94.09375,81.5273438 94.5097656,81.6992188 94.7753906,82.0429688 C95.0410156,82.3867188 95.1738281,82.9667969 95.1738281,83.7832031 L95.1738281,83.7832031 L95.1738281,83.9765625 C95.1660156,84.6914062 95.0332031,85.2080078 94.7753906,85.5263672 C94.5175781,85.8447266 94.1054688,86.0039062 93.5390625,86.0039062 Z M101.291016,87.1171875 C101.732422,87.1171875 102.125,87.0839844 102.46875,87.0175781 C102.8125,86.9511719 103.152344,86.8378906 103.488281,86.6777344 L103.488281,86.6777344 L103.488281,85.5585938 C103.109375,85.7265625 102.754883,85.8466797 102.424805,85.9189453 C102.094727,85.9912109 101.738281,86.0273438 101.355469,86.0273438 C100.773438,86.0273438 100.322266,85.8583984 100.001953,85.5205078 C99.6816406,85.1826172 99.5117188,84.6992188 99.4921875,84.0703125 L99.4921875,84.0703125 L103.810547,84.0703125 L103.810547,83.3261719 C103.810547,82.4160156 103.5625,81.7011719 103.066406,81.1816406 C102.570312,80.6621094 101.894531,80.4023438 101.039062,80.4023438 C100.117188,80.4023438 99.3925781,80.7050781 98.8652344,81.3105469 C98.3378906,81.9160156 98.0742188,82.7480469 98.0742188,83.8066406 C98.0742188,84.8378906 98.3583984,85.6474609 98.9267578,86.2353516 C99.4951172,86.8232422 100.283203,87.1171875 101.291016,87.1171875 Z M102.457031,83.0742188 L99.515625,83.0742188 C99.5664062,82.5429688 99.7236328,82.1386719 99.9873047,81.8613281 C100.250977,81.5839844 100.601562,81.4453125 101.039062,81.4453125 C101.476562,81.4453125 101.820312,81.5830078 102.070312,81.8583984 C102.320312,82.1337891 102.449219,82.5390625 102.457031,83.0742188 L102.457031,83.0742188 Z M107.988281,87.1171875 C108.386719,87.1171875 108.725586,87.0859375 109.004883,87.0234375 C109.28418,86.9609375 109.546875,86.8574219 109.792969,86.7128906 L109.792969,86.7128906 L109.792969,85.5117188 C109.246094,85.8164062 108.666016,85.96875 108.052734,85.96875 C107.513672,85.96875 107.104492,85.7861328 106.825195,85.4208984 C106.545898,85.0556641 106.40625,84.5097656 106.40625,83.7832031 C106.40625,82.2949219 106.966797,81.5507812 108.087891,81.5507812 C108.466797,81.5507812 108.947266,81.6640625 109.529297,81.890625 L109.529297,81.890625 L109.945312,80.7832031 C109.398438,80.5292969 108.783203,80.4023438 108.099609,80.4023438 C107.091797,80.4023438 106.321289,80.6953125 105.788086,81.28125 C105.254883,81.8671875 104.988281,82.7050781 104.988281,83.7949219 C104.988281,84.8652344 105.243164,85.6865234 105.75293,86.2587891 C106.262695,86.8310547 107.007812,87.1171875 107.988281,87.1171875 Z M112.013672,79.5585938 C112.255859,79.5585938 112.444336,79.4912109 112.579102,79.3564453 C112.713867,79.2216797 112.78125,79.0371094 112.78125,78.8027344 C112.78125,78.5566406 112.713867,78.3671875 112.579102,78.234375 C112.444336,78.1015625 112.255859,78.0351562 112.013672,78.0351562 C111.763672,78.0351562 111.571289,78.1015625 111.436523,78.234375 C111.301758,78.3671875 111.234375,78.5566406 111.234375,78.8027344 C111.234375,79.0371094 111.301758,79.2216797 111.436523,79.3564453 C111.571289,79.4912109 111.763672,79.5585938 112.013672,79.5585938 Z M112.693359,87 L112.693359,80.5195312 L111.316406,80.5195312 L111.316406,87 L112.693359,87 Z M116.34375,87.1171875 C117.203125,87.1171875 117.863281,86.9482422 118.324219,86.6103516 C118.785156,86.2724609 119.015625,85.7871094 119.015625,85.1542969 C119.015625,84.8417969 118.957031,84.5732422 118.839844,84.3486328 C118.722656,84.1240234 118.542969,83.9257812 118.300781,83.7539062 C118.058594,83.5820312 117.669922,83.3925781 117.134766,83.1855469 C116.498047,82.9394531 116.084961,82.7460938 115.895508,82.6054688 C115.706055,82.4648438 115.611328,82.2929688 115.611328,82.0898438 C115.611328,81.6757812 115.974609,81.46875 116.701172,81.46875 C117.177734,81.46875 117.765625,81.6132812 118.464844,81.9023438 L118.464844,81.9023438 L118.910156,80.8652344 C118.230469,80.5566406 117.509766,80.4023438 116.748047,80.4023438 C115.978516,80.4023438 115.370117,80.5556641 114.922852,80.8623047 C114.475586,81.1689453 114.251953,81.5996094 114.251953,82.1542969 C114.251953,82.6152344 114.383789,82.9902344 114.647461,83.2792969 C114.911133,83.5683594 115.416016,83.8574219 116.162109,84.1464844 C116.544922,84.2949219 116.84375,84.4277344 117.058594,84.5449219 C117.273438,84.6621094 117.427734,84.7753906 117.521484,84.8847656 C117.615234,84.9941406 117.662109,85.1308594 117.662109,85.2949219 C117.662109,85.8066406 117.238281,86.0625 116.390625,86.0625 C115.734375,86.0625 115.025391,85.8867188 114.263672,85.5351562 L114.263672,85.5351562 L114.263672,86.7246094 C114.787109,86.9863281 115.480469,87.1171875 116.34375,87.1171875 Z M121.201172,79.5585938 C121.443359,79.5585938 121.631836,79.4912109 121.766602,79.3564453 C121.901367,79.2216797 121.96875,79.0371094 121.96875,78.8027344 C121.96875,78.5566406 121.901367,78.3671875 121.766602,78.234375 C121.631836,78.1015625 121.443359,78.0351562 121.201172,78.0351562 C120.951172,78.0351562 120.758789,78.1015625 120.624023,78.234375 C120.489258,78.3671875 120.421875,78.5566406 120.421875,78.8027344 C120.421875,79.0371094 120.489258,79.2216797 120.624023,79.3564453 C120.758789,79.4912109 120.951172,79.5585938 121.201172,79.5585938 Z M121.880859,87 L121.880859,80.5195312 L120.503906,80.5195312 L120.503906,87 L121.880859,87 Z M126.515625,87.1171875 C127.484375,87.1171875 128.240234,86.8203125 128.783203,86.2265625 C129.326172,85.6328125 129.597656,84.8066406 129.597656,83.7480469 C129.597656,82.7246094 129.324219,81.9111328 128.777344,81.3076172 C128.230469,80.7041016 127.488281,80.4023438 126.550781,80.4023438 C125.570312,80.4023438 124.810547,80.6972656 124.271484,81.2871094 C123.732422,81.8769531 123.462891,82.6972656 123.462891,83.7480469 C123.462891,84.4238281 123.587891,85.0175781 123.837891,85.5292969 C124.087891,86.0410156 124.445312,86.4335938 124.910156,86.7070312 C125.375,86.9804688 125.910156,87.1171875 126.515625,87.1171875 Z M126.539062,85.9921875 C125.433594,85.9921875 124.880859,85.2441406 124.880859,83.7480469 C124.880859,83.0332031 125.010742,82.484375 125.270508,82.1015625 C125.530273,81.71875 125.949219,81.5273438 126.527344,81.5273438 C127.628906,81.5273438 128.179688,82.2675781 128.179688,83.7480469 C128.179688,85.2441406 127.632812,85.9921875 126.539062,85.9921875 Z M132.556641,87 L132.556641,83.7714844 C132.556641,82.9628906 132.691406,82.3867188 132.960938,82.0429688 C133.230469,81.6992188 133.65625,81.5273438 134.238281,81.5273438 C134.675781,81.5273438 134.995117,81.6503906 135.196289,81.8964844 C135.397461,82.1425781 135.498047,82.515625 135.498047,83.015625 L135.498047,83.015625 L135.498047,87 L136.880859,87 L136.880859,82.7753906 C136.880859,81.1933594 136.103516,80.4023438 134.548828,80.4023438 C134.111328,80.4023438 133.712891,80.4863281 133.353516,80.6542969 C132.994141,80.8222656 132.716797,81.0605469 132.521484,81.3691406 L132.521484,81.3691406 L132.451172,81.3691406 L132.257812,80.5195312 L131.179688,80.5195312 L131.179688,87 L132.556641,87 Z M139.458984,87.1699219 C139.740234,87.1699219 139.956055,87.0888672 140.106445,86.9267578 C140.256836,86.7646484 140.332031,86.5449219 140.332031,86.2675781 C140.332031,85.9941406 140.257812,85.7783203 140.109375,85.6201172 C139.960938,85.4619141 139.744141,85.3828125 139.458984,85.3828125 C139.177734,85.3828125 138.962891,85.4589844 138.814453,85.6113281 C138.666016,85.7636719 138.591797,85.9824219 138.591797,86.2675781 C138.591797,86.5488281 138.666016,86.7695312 138.814453,86.9296875 C138.962891,87.0898438 139.177734,87.1699219 139.458984,87.1699219 Z" id="Formanopinionorconsidereddecision." fill="#FFFFFF" fill-rule="nonzero"></path>
            </g>
        </g>
    </g>
</svg>