<?xml version="1.0" encoding="UTF-8"?>
<svg width="165px" height="97px" viewBox="0 0 165 97" version="1.1" xmlns="http://www.w3.org/2000/svg" xmlns:xlink="http://www.w3.org/1999/xlink">
    <!-- Generator: Sketch 62 (91390) - https://sketch.com -->
    <title>Match</title>
    <desc>Created with Sketch.</desc>
    <defs>
        <radialGradient cx="21.9955002%" cy="49.9999908%" fx="21.9955002%" fy="49.9999908%" r="50.0192718%" gradientTransform="translate(0.219955,0.500000),scale(0.591481,1.000000),rotate(91.590539),translate(-0.219955,-0.500000)" id="radialGradient-1">
            <stop stop-color="#80C3F3" offset="0%"></stop>
            <stop stop-color="#4A90E2" offset="100%"></stop>
        </radialGradient>
        <path d="M56.0039062,21 L56.0039062,14.0566406 C56.0039062,12.5071615 55.9485677,10.8470052 55.8378906,9.07617188 L55.8378906,9.07617188 L55.9160156,9.07617188 L60.0566406,21 L62.1171875,21 L66.4042969,9.09570312 L66.4824219,9.09570312 C66.4563802,9.33658854 66.4254557,10.0266927 66.3896484,11.1660156 C66.3538411,12.3053385 66.3359375,13.2298177 66.3359375,13.9394531 L66.3359375,13.9394531 L66.3359375,21 L68.5820312,21 L68.5820312,6.72265625 L65.28125,6.72265625 L61.1992188,18.0800781 L61.140625,18.0800781 L57.1757812,6.72265625 L53.8847656,6.72265625 L53.8847656,21 L56.0039062,21 Z M74.7148438,21.1953125 C75.5416667,21.1953125 76.21875,21.0764974 76.7460938,20.8388672 C77.2734375,20.601237 77.797526,20.1536458 78.3183594,19.4960938 L78.3183594,19.4960938 L78.3964844,19.4960938 L78.8554688,21 L80.4960938,21 L80.4960938,13.7246094 C80.4960938,12.4420573 80.1461589,11.5013021 79.4462891,10.9023438 C78.7464193,10.3033854 77.7096354,10.0039062 76.3359375,10.0039062 C75.7174479,10.0039062 75.0598958,10.0836589 74.3632812,10.2431641 C73.6666667,10.4026693 73.0253906,10.6354167 72.4394531,10.9414062 L72.4394531,10.9414062 L73.1816406,12.5820312 C73.6503906,12.3606771 74.1386719,12.1686198 74.6464844,12.0058594 C75.1542969,11.843099 75.6848958,11.7617188 76.2382812,11.7617188 C76.9153646,11.7617188 77.4150391,11.9326172 77.7373047,12.2744141 C78.0595703,12.6162109 78.2207031,13.1321615 78.2207031,13.8222656 L78.2207031,13.8222656 L78.2207031,14.3984375 L76.3554688,14.4570312 C74.6627604,14.5091146 73.4029948,14.8183594 72.5761719,15.3847656 C71.749349,15.9511719 71.3359375,16.7910156 71.3359375,17.9042969 C71.3359375,18.952474 71.6337891,19.7630208 72.2294922,20.3359375 C72.8251953,20.9088542 73.6536458,21.1953125 74.7148438,21.1953125 Z M75.4375,19.4375 C74.8645833,19.4375 74.4348958,19.3056641 74.1484375,19.0419922 C73.8619792,18.7783203 73.71875,18.405599 73.71875,17.9238281 C73.71875,17.2597656 73.9645182,16.7666016 74.4560547,16.4443359 C74.9475911,16.1220703 75.733724,15.9414062 76.8144531,15.9023438 L76.8144531,15.9023438 L78.2011719,15.84375 L78.2011719,16.78125 C78.2011719,17.6210938 77.9488932,18.273763 77.4443359,18.7392578 C76.9397786,19.2047526 76.2708333,19.4375 75.4375,19.4375 Z M87.1757812,21.1953125 C87.6054688,21.1953125 88.0205078,21.1578776 88.4208984,21.0830078 C88.8212891,21.008138 89.1484375,20.9153646 89.4023438,20.8046875 L89.4023438,20.8046875 L89.4023438,19.0761719 C88.8424479,19.2519531 88.2825521,19.3398438 87.7226562,19.3398438 C87.2734375,19.3398438 86.9104818,19.2080078 86.6337891,18.9443359 C86.3570964,18.6806641 86.21875,18.2721354 86.21875,17.71875 L86.21875,17.71875 L86.21875,11.9375 L89.2949219,11.9375 L89.2949219,10.1992188 L86.21875,10.1992188 L86.21875,7.796875 L84.8027344,7.796875 L84.0214844,10.0820312 L82.4394531,10.921875 L82.4394531,11.9375 L83.9140625,11.9375 L83.9140625,17.7578125 C83.9140625,20.0494792 85.0013021,21.1953125 87.1757812,21.1953125 Z M95.9160156,21.1953125 C96.5800781,21.1953125 97.1448568,21.1432292 97.6103516,21.0390625 C98.0758464,20.9348958 98.5136719,20.7623698 98.9238281,20.5214844 L98.9238281,20.5214844 L98.9238281,18.5195312 C98.0123698,19.0273438 97.0455729,19.28125 96.0234375,19.28125 C95.125,19.28125 94.4430339,18.976888 93.9775391,18.3681641 C93.5120443,17.7594401 93.2792969,16.8496094 93.2792969,15.6386719 C93.2792969,13.1582031 94.2135417,11.9179688 96.0820312,11.9179688 C96.7135417,11.9179688 97.5143229,12.1067708 98.484375,12.484375 L98.484375,12.484375 L99.1777344,10.6386719 C98.266276,10.2154948 97.2408854,10.0039062 96.1015625,10.0039062 C94.421875,10.0039062 93.1376953,10.4921875 92.2490234,11.46875 C91.3603516,12.4453125 90.9160156,13.8417969 90.9160156,15.6582031 C90.9160156,17.4420573 91.3408203,18.8108724 92.1904297,19.7646484 C93.0400391,20.7184245 94.281901,21.1953125 95.9160156,21.1953125 Z M103.757812,21 L103.757812,15.6386719 C103.757812,14.2845052 103.984049,13.3193359 104.436523,12.7431641 C104.888997,12.1669922 105.597005,11.8789062 106.560547,11.8789062 C107.289714,11.8789062 107.82194,12.0839844 108.157227,12.4941406 C108.492513,12.9042969 108.660156,13.5260417 108.660156,14.359375 L108.660156,14.359375 L108.660156,21 L110.964844,21 L110.964844,13.9589844 C110.964844,11.3222656 109.65625,10.0039062 107.039062,10.0039062 C106.296875,10.0039062 105.647461,10.1471354 105.09082,10.4335938 C104.53418,10.7200521 104.099609,11.1236979 103.787109,11.6445312 L103.787109,11.6445312 L103.640625,11.6445312 C103.71875,10.9414062 103.757812,10.280599 103.757812,9.66210938 L103.757812,9.66210938 L103.757812,5.8046875 L101.462891,5.8046875 L101.462891,21 L103.757812,21 Z" id="path-2"></path>
    </defs>
    <g id="Symbols" stroke="none" stroke-width="1" fill="none" fill-rule="evenodd">
        <g id="i/Match" transform="translate(1.000000, 0.000000)">
            <g id="Match">
                <g>
                    <g id="Group-10">
                        <g id="Group-9">
                            <g id="Group-7">
                                <g id="Group-6">
                                    <g id="Group-2" fill="url(#radialGradient-1)" fill-rule="nonzero">
                                        <g id="Group-3">
                                            <g id="blue-icon">
                                                <rect id="Rectangle-2" x="0" y="0" width="162.995772" height="96.408907" rx="6"></rect>
                                            </g>
                                        </g>
                                    </g>
                                    <line x1="2" y1="28" x2="161" y2="27" id="Line-2" stroke="#FFFFFF" stroke-width="4" stroke-linecap="square"></line>
                                    <line x1="80.990625" y1="39.40625" x2="80.990625" y2="85.5065102" id="Line-3" stroke="#FFFFFF" stroke-width="2" stroke-linecap="square"></line>
                                </g>
                            </g>
                        </g>
                    </g>
                    <g id="noun_107313_3498DB" transform="translate(18.016667, 40.648438)" fill-rule="nonzero">
                        <g id="Group">
                            <path d="M28.9979933,7.17351151 C28.9979933,3.31304781 25.9284552,0.171805896 22.1550403,0.171805896 C18.3816255,0.171805896 15.3116063,3.31255553 15.3116063,7.17351151 C15.3116063,11.0344676 18.3816255,14.1752171 22.1550403,14.1752171 C25.9284552,14.1752171 28.9979933,11.0344676 28.9979933,7.17351151 Z M16.0337656,7.17351151 C16.0337656,3.72016378 18.7799918,0.910226658 22.1555215,0.910226658 C25.531051,0.910226658 28.2767962,3.72016378 28.2767962,7.17351151 C28.2767962,10.6273516 25.531051,13.4367964 22.1555215,13.4367964 C18.7799918,13.4367964 16.0337656,10.6273516 16.0337656,7.17351151 Z" id="Shape" stroke="#979797" fill="#9B9B9B"></path>
                            <path d="M30.4567455,34.178051 C30.4567455,38.0385147 33.5267647,41.1797566 37.3001796,41.1797566 C41.0735944,41.1797566 44.1426513,38.0385147 44.1426513,34.178051 C44.1426513,33.9742468 43.9809954,33.8088406 43.7818122,33.8088406 L30.8175846,33.8088406 C30.6184014,33.8088406 30.4567455,33.9742468 30.4567455,34.178051 Z M43.4108696,34.5472614 C43.2232333,37.8297878 40.5539861,40.4413358 37.3001796,40.4413358 C34.046373,40.4413358 31.3761635,37.8297878 31.1890084,34.5472614 L43.4108696,34.5472614 Z" id="Shape" stroke="#FFFFFF" fill="#FFFFFF"></path>
                            <path d="M13.8057045,34.178051 C13.8057045,33.9742468 13.6440485,33.8088406 13.4448653,33.8088406 L0.481118816,33.8088406 C0.281935626,33.8088406 0.120279704,33.9742468 0.120279704,34.178051 C0.120279704,38.0385147 3.19029887,41.1797566 6.96419483,41.1797566 C10.7366475,41.1792643 13.8057045,38.0385147 13.8057045,34.178051 Z M0.852061425,34.5472614 L13.0744038,34.5472614 C12.8867675,37.8297878 10.2175203,40.4413358 6.96419483,40.4413358 C3.70990719,40.4408435 1.03969776,37.8297878 0.852061425,34.5472614 Z" id="Shape" stroke="#FFFFFF" fill="#FFFFFF"></path>
                            <path d="M40.2672392,29.0652256 L39.7567722,28.5424237 L37.6605375,30.6867976 L37.6605375,25.290911 C37.6605375,22.9274723 35.7812874,21.0041324 33.4709549,21.0041324 L27.3102284,21.0041324 C25.4309783,21.0041324 23.8428051,19.8605647 23.8428051,18.5072856 L23.8428051,15.6412285 L23.1211269,15.6412285 L23.1211269,18.5072856 C23.1211269,20.2913102 25.000377,21.7425531 27.3102284,21.7425531 L33.4709549,21.7425531 C35.3834022,21.7425531 36.9388592,23.3340959 36.9388592,25.290911 L36.9388592,30.6882744 L34.8426246,28.5424237 L34.3321576,29.0652256 L37.0447055,31.8407031 C37.1125432,31.9101146 37.2039558,31.9494971 37.2996984,31.9494971 C37.3954411,31.9494971 37.4873347,31.9101146 37.5546914,31.8407031 L40.2672392,29.0652256 Z" id="Shape" stroke="#FFFFFF" fill="#FFFFFF"></path>
                            <path d="M9.93173575,29.0652256 L9.42078753,28.5424237 L7.32503398,30.6867976 L7.32503398,25.290911 C7.32503398,23.3340959 8.88000997,21.7425531 10.7924573,21.7425531 L16.9517404,21.7425531 C19.262554,21.7425531 21.1418042,20.2913102 21.1418042,18.5072856 L21.1418042,15.6412285 L20.4201259,15.6412285 L20.4201259,18.5072856 C20.4201259,19.861057 18.8319527,21.0041324 16.9517404,21.0041324 L10.791495,21.0041324 C8.4816436,21.0041324 6.6023935,22.92698 6.6023935,25.290911 L6.6023935,30.6882744 L4.50760218,28.542916 L3.99617288,29.0662102 L6.70920188,31.8426722 C6.77800187,31.9120838 6.86797111,31.9514662 6.96371371,31.9514662 C7.05945638,31.9514662 7.15279337,31.9120838 7.21870677,31.8426722 L9.93173575,29.0652256 Z" id="Shape" stroke="#FFFFFF" fill="#FFFFFF"></path>
                        </g>
                    </g>
                </g>
                <path d="M91.53125,54 L91.53125,45.4335938 L90.1308594,45.4335938 L90.1308594,54 L91.53125,54 Z M95.8320312,54.1171875 C96.6835938,54.1171875 97.3300781,53.7949219 97.7714844,53.1503906 L97.7714844,53.1503906 L97.8359375,53.1503906 L98.0761719,54 L99.1542969,54 L99.1542969,44.8828125 L97.7714844,44.8828125 L97.7714844,47.2441406 C97.7714844,47.5136719 97.8046875,47.8808594 97.8710938,48.3457031 L97.8710938,48.3457031 L97.8007812,48.3457031 C97.3554688,47.7167969 96.7070312,47.4023438 95.8554688,47.4023438 C95.0429688,47.4023438 94.4072266,47.6982422 93.9482422,48.2900391 C93.4892578,48.8818359 93.2597656,49.7089844 93.2597656,50.7714844 C93.2597656,51.8300781 93.4863281,52.6523438 93.9394531,53.2382812 C94.3925781,53.8242188 95.0234375,54.1171875 95.8320312,54.1171875 Z M96.2011719,53.0039062 C95.6933594,53.0039062 95.3125,52.8154297 95.0585938,52.4384766 C94.8046875,52.0615234 94.6777344,51.5136719 94.6777344,50.7949219 C94.6777344,50.0683594 94.8085938,49.5087891 95.0703125,49.1162109 C95.3320312,48.7236328 95.7050781,48.5273438 96.1894531,48.5273438 C96.7558594,48.5273438 97.171875,48.6992188 97.4375,49.0429688 C97.703125,49.3867188 97.8359375,49.9667969 97.8359375,50.7832031 L97.8359375,50.7832031 L97.8359375,50.9765625 C97.828125,51.6914062 97.6953125,52.2080078 97.4375,52.5263672 C97.1796875,52.8447266 96.7675781,53.0039062 96.2011719,53.0039062 Z M103.953125,54.1171875 C104.394531,54.1171875 104.787109,54.0839844 105.130859,54.0175781 C105.474609,53.9511719 105.814453,53.8378906 106.150391,53.6777344 L106.150391,53.6777344 L106.150391,52.5585938 C105.771484,52.7265625 105.416992,52.8466797 105.086914,52.9189453 C104.756836,52.9912109 104.400391,53.0273438 104.017578,53.0273438 C103.435547,53.0273438 102.984375,52.8583984 102.664062,52.5205078 C102.34375,52.1826172 102.173828,51.6992188 102.154297,51.0703125 L102.154297,51.0703125 L106.472656,51.0703125 L106.472656,50.3261719 C106.472656,49.4160156 106.224609,48.7011719 105.728516,48.1816406 C105.232422,47.6621094 104.556641,47.4023438 103.701172,47.4023438 C102.779297,47.4023438 102.054688,47.7050781 101.527344,48.3105469 C101,48.9160156 100.736328,49.7480469 100.736328,50.8066406 C100.736328,51.8378906 101.020508,52.6474609 101.588867,53.2353516 C102.157227,53.8232422 102.945312,54.1171875 103.953125,54.1171875 Z M105.119141,50.0742188 L102.177734,50.0742188 C102.228516,49.5429688 102.385742,49.1386719 102.649414,48.8613281 C102.913086,48.5839844 103.263672,48.4453125 103.701172,48.4453125 C104.138672,48.4453125 104.482422,48.5830078 104.732422,48.8583984 C104.982422,49.1337891 105.111328,49.5390625 105.119141,50.0742188 L105.119141,50.0742188 Z M109.414062,54 L109.414062,50.7714844 C109.414062,49.9628906 109.548828,49.3867188 109.818359,49.0429688 C110.087891,48.6992188 110.513672,48.5273438 111.095703,48.5273438 C111.533203,48.5273438 111.852539,48.6503906 112.053711,48.8964844 C112.254883,49.1425781 112.355469,49.515625 112.355469,50.015625 L112.355469,50.015625 L112.355469,54 L113.738281,54 L113.738281,49.7753906 C113.738281,48.1933594 112.960938,47.4023438 111.40625,47.4023438 C110.96875,47.4023438 110.570312,47.4863281 110.210938,47.6542969 C109.851562,47.8222656 109.574219,48.0605469 109.378906,48.3691406 L109.378906,48.3691406 L109.308594,48.3691406 L109.115234,47.5195312 L108.037109,47.5195312 L108.037109,54 L109.414062,54 Z M117.740234,54.1171875 C117.998047,54.1171875 118.24707,54.0947266 118.487305,54.0498047 C118.727539,54.0048828 118.923828,53.9492188 119.076172,53.8828125 L119.076172,53.8828125 L119.076172,52.8457031 C118.740234,52.9511719 118.404297,53.0039062 118.068359,53.0039062 C117.798828,53.0039062 117.581055,52.9248047 117.415039,52.7666016 C117.249023,52.6083984 117.166016,52.3632812 117.166016,52.03125 L117.166016,52.03125 L117.166016,48.5625 L119.011719,48.5625 L119.011719,47.5195312 L117.166016,47.5195312 L117.166016,46.078125 L116.316406,46.078125 L115.847656,47.4492188 L114.898438,47.953125 L114.898438,48.5625 L115.783203,48.5625 L115.783203,52.0546875 C115.783203,53.4296875 116.435547,54.1171875 117.740234,54.1171875 Z M121.068359,46.5585938 C121.310547,46.5585938 121.499023,46.4912109 121.633789,46.3564453 C121.768555,46.2216797 121.835938,46.0371094 121.835938,45.8027344 C121.835938,45.5566406 121.768555,45.3671875 121.633789,45.234375 C121.499023,45.1015625 121.310547,45.0351562 121.068359,45.0351562 C120.818359,45.0351562 120.625977,45.1015625 120.491211,45.234375 C120.356445,45.3671875 120.289062,45.5566406 120.289062,45.8027344 C120.289062,46.0371094 120.356445,46.2216797 120.491211,46.3564453 C120.625977,46.4912109 120.818359,46.5585938 121.068359,46.5585938 Z M121.748047,54 L121.748047,47.5195312 L120.371094,47.5195312 L120.371094,54 L121.748047,54 Z M125.386719,54 L125.386719,48.5625 L126.96875,48.5625 L126.96875,47.5195312 L125.386719,47.5195312 L125.386719,47.0976562 C125.386719,46.7109375 125.458008,46.4208984 125.600586,46.2275391 C125.743164,46.0341797 125.970703,45.9375 126.283203,45.9375 C126.591797,45.9375 126.916016,45.9921875 127.255859,46.1015625 L127.255859,46.1015625 L127.619141,45.0585938 C127.150391,44.8984375 126.673828,44.8183594 126.189453,44.8183594 C125.451172,44.8183594 124.902344,45.0029297 124.542969,45.3720703 C124.183594,45.7412109 124.003906,46.3085938 124.003906,47.0742188 L124.003906,47.0742188 L124.003906,47.4960938 L122.9375,47.9179688 L122.9375,48.5625 L124.003906,48.5625 L124.003906,54 L125.386719,54 Z M128.228516,56.8828125 C129.404297,56.8828125 130.244141,56.2089844 130.748047,54.8613281 L130.748047,54.8613281 L133.519531,47.5195312 L132.03125,47.5195312 C131.132812,50.125 130.636719,51.5810547 130.542969,51.8876953 C130.449219,52.1943359 130.384766,52.4550781 130.349609,52.6699219 L130.349609,52.6699219 L130.302734,52.6699219 C130.236328,52.2089844 130.103516,51.7167969 129.904297,51.1933594 L129.904297,51.1933594 L128.585938,47.5195312 L127.085938,47.5195312 L129.6875,54 L129.447266,54.609375 C129.177734,55.3789062 128.710938,55.7636719 128.046875,55.7636719 C127.78125,55.7636719 127.544922,55.7402344 127.337891,55.6933594 L127.337891,55.6933594 L127.337891,56.7832031 C127.626953,56.8496094 127.923828,56.8828125 128.228516,56.8828125 Z M91.3613281,68.8828125 L91.3613281,66.2285156 C91.3613281,66.1113281 91.3339844,65.7792969 91.2792969,65.2324219 L91.2792969,65.2324219 L91.3613281,65.2324219 C91.8144531,65.8222656 92.4511719,66.1171875 93.2714844,66.1171875 C94.0800781,66.1171875 94.7138672,65.8203125 95.1728516,65.2265625 C95.6318359,64.6328125 95.8613281,63.8066406 95.8613281,62.7480469 C95.8613281,61.6894531 95.6357422,60.8671875 95.1845703,60.28125 C94.7333984,59.6953125 94.1035156,59.4023438 93.2949219,59.4023438 C92.4355469,59.4023438 91.7910156,59.7304688 91.3613281,60.3867188 L91.3613281,60.3867188 L91.2910156,60.3867188 C91.1933594,59.9296875 91.1289062,59.640625 91.0976562,59.5195312 L91.0976562,59.5195312 L89.984375,59.5195312 L89.984375,68.8828125 L91.3613281,68.8828125 Z M92.9609375,64.9921875 C92.3945312,64.9921875 91.9863281,64.8154297 91.7363281,64.4619141 C91.4863281,64.1083984 91.3613281,63.5371094 91.3613281,62.7480469 L91.3613281,62.7480469 L91.3613281,62.5429688 C91.3613281,61.8398438 91.4873047,61.328125 91.7392578,61.0078125 C91.9912109,60.6875 92.390625,60.5273438 92.9375,60.5273438 C93.4335938,60.5273438 93.8095703,60.7138672 94.0654297,61.0869141 C94.3212891,61.4599609 94.4492188,62.0097656 94.4492188,62.7363281 C94.4492188,63.4589844 94.3203125,64.015625 94.0625,64.40625 C93.8046875,64.796875 93.4375,64.9921875 92.9609375,64.9921875 Z M99.03125,66.1171875 C99.5273438,66.1171875 99.9335938,66.0458984 100.25,65.9033203 C100.566406,65.7607422 100.880859,65.4921875 101.193359,65.0976562 L101.193359,65.0976562 L101.240234,65.0976562 L101.515625,66 L102.5,66 L102.5,61.6347656 C102.5,60.8652344 102.290039,60.3007812 101.870117,59.9414062 C101.450195,59.5820312 100.828125,59.4023438 100.003906,59.4023438 C99.6328125,59.4023438 99.2382812,59.4501953 98.8203125,59.5458984 C98.4023438,59.6416016 98.0175781,59.78125 97.6660156,59.9648438 L97.6660156,59.9648438 L98.1113281,60.9492188 C98.3925781,60.8164062 98.6855469,60.7011719 98.9902344,60.6035156 C99.2949219,60.5058594 99.6132812,60.4570312 99.9453125,60.4570312 C100.351562,60.4570312 100.651367,60.5595703 100.844727,60.7646484 C101.038086,60.9697266 101.134766,61.2792969 101.134766,61.6933594 L101.134766,61.6933594 L101.134766,62.0390625 L100.015625,62.0742188 C99,62.1054688 98.2441406,62.2910156 97.7480469,62.6308594 C97.2519531,62.9707031 97.0039062,63.4746094 97.0039062,64.1425781 C97.0039062,64.7714844 97.1826172,65.2578125 97.5400391,65.6015625 C97.8974609,65.9453125 98.3945312,66.1171875 99.03125,66.1171875 Z M99.4648438,65.0625 C99.1210938,65.0625 98.8632812,64.9833984 98.6914062,64.8251953 C98.5195312,64.6669922 98.4335938,64.4433594 98.4335938,64.1542969 C98.4335938,63.7558594 98.5810547,63.4599609 98.8759766,63.2666016 C99.1708984,63.0732422 99.6425781,62.9648438 100.291016,62.9414062 L100.291016,62.9414062 L101.123047,62.90625 L101.123047,63.46875 C101.123047,63.9726562 100.97168,64.3642578 100.668945,64.6435547 C100.366211,64.9228516 99.9648438,65.0625 99.4648438,65.0625 Z M105.119141,58.5585938 C105.361328,58.5585938 105.549805,58.4912109 105.68457,58.3564453 C105.819336,58.2216797 105.886719,58.0371094 105.886719,57.8027344 C105.886719,57.5566406 105.819336,57.3671875 105.68457,57.234375 C105.549805,57.1015625 105.361328,57.0351562 105.119141,57.0351562 C104.869141,57.0351562 104.676758,57.1015625 104.541992,57.234375 C104.407227,57.3671875 104.339844,57.5566406 104.339844,57.8027344 C104.339844,58.0371094 104.407227,58.2216797 104.541992,58.3564453 C104.676758,58.4912109 104.869141,58.5585938 105.119141,58.5585938 Z M105.798828,66 L105.798828,59.5195312 L104.421875,59.5195312 L104.421875,66 L105.798828,66 Z M109.144531,66 L109.144531,62.6132812 C109.144531,62.0390625 109.31543,61.5722656 109.657227,61.2128906 C109.999023,60.8535156 110.445312,60.6738281 110.996094,60.6738281 C111.207031,60.6738281 111.410156,60.6972656 111.605469,60.7441406 L111.605469,60.7441406 L111.740234,59.4609375 C111.560547,59.421875 111.332031,59.4023438 111.054688,59.4023438 C110.65625,59.4023438 110.28418,59.515625 109.938477,59.7421875 C109.592773,59.96875 109.3125,60.2753906 109.097656,60.6621094 L109.097656,60.6621094 L109.027344,60.6621094 L108.845703,59.5195312 L107.767578,59.5195312 L107.767578,66 L109.144531,66 Z M114.623047,66.1171875 C115.482422,66.1171875 116.142578,65.9482422 116.603516,65.6103516 C117.064453,65.2724609 117.294922,64.7871094 117.294922,64.1542969 C117.294922,63.8417969 117.236328,63.5732422 117.119141,63.3486328 C117.001953,63.1240234 116.822266,62.9257812 116.580078,62.7539062 C116.337891,62.5820312 115.949219,62.3925781 115.414062,62.1855469 C114.777344,61.9394531 114.364258,61.7460938 114.174805,61.6054688 C113.985352,61.4648438 113.890625,61.2929688 113.890625,61.0898438 C113.890625,60.6757812 114.253906,60.46875 114.980469,60.46875 C115.457031,60.46875 116.044922,60.6132812 116.744141,60.9023438 L116.744141,60.9023438 L117.189453,59.8652344 C116.509766,59.5566406 115.789062,59.4023438 115.027344,59.4023438 C114.257812,59.4023438 113.649414,59.5556641 113.202148,59.8623047 C112.754883,60.1689453 112.53125,60.5996094 112.53125,61.1542969 C112.53125,61.6152344 112.663086,61.9902344 112.926758,62.2792969 C113.19043,62.5683594 113.695312,62.8574219 114.441406,63.1464844 C114.824219,63.2949219 115.123047,63.4277344 115.337891,63.5449219 C115.552734,63.6621094 115.707031,63.7753906 115.800781,63.8847656 C115.894531,63.9941406 115.941406,64.1308594 115.941406,64.2949219 C115.941406,64.8066406 115.517578,65.0625 114.669922,65.0625 C114.013672,65.0625 113.304688,64.8867188 112.542969,64.5351562 L112.542969,64.5351562 L112.542969,65.7246094 C113.066406,65.9863281 113.759766,66.1171875 114.623047,66.1171875 Z M123.986328,66.1171875 C124.244141,66.1171875 124.493164,66.0947266 124.733398,66.0498047 C124.973633,66.0048828 125.169922,65.9492188 125.322266,65.8828125 L125.322266,65.8828125 L125.322266,64.8457031 C124.986328,64.9511719 124.650391,65.0039062 124.314453,65.0039062 C124.044922,65.0039062 123.827148,64.9248047 123.661133,64.7666016 C123.495117,64.6083984 123.412109,64.3632812 123.412109,64.03125 L123.412109,64.03125 L123.412109,60.5625 L125.257812,60.5625 L125.257812,59.5195312 L123.412109,59.5195312 L123.412109,58.078125 L122.5625,58.078125 L122.09375,59.4492188 L121.144531,59.953125 L121.144531,60.5625 L122.029297,60.5625 L122.029297,64.0546875 C122.029297,65.4296875 122.681641,66.1171875 123.986328,66.1171875 Z M127.994141,66 L127.994141,62.7832031 C127.994141,61.9707031 128.129883,61.3916016 128.401367,61.0458984 C128.672852,60.7001953 129.097656,60.5273438 129.675781,60.5273438 C130.113281,60.5273438 130.432617,60.6503906 130.633789,60.8964844 C130.834961,61.1425781 130.935547,61.515625 130.935547,62.015625 L130.935547,62.015625 L130.935547,66 L132.318359,66 L132.318359,61.7753906 C132.318359,60.1933594 131.533203,59.4023438 129.962891,59.4023438 C129.517578,59.4023438 129.12793,59.4882812 128.793945,59.6601562 C128.459961,59.8320312 128.199219,60.0742188 128.011719,60.3867188 L128.011719,60.3867188 L127.923828,60.3867188 C127.970703,59.9648438 127.994141,59.5683594 127.994141,59.1972656 L127.994141,59.1972656 L127.994141,56.8828125 L126.617188,56.8828125 L126.617188,66 L127.994141,66 Z M135.804688,66.1171875 C136.300781,66.1171875 136.707031,66.0458984 137.023438,65.9033203 C137.339844,65.7607422 137.654297,65.4921875 137.966797,65.0976562 L137.966797,65.0976562 L138.013672,65.0976562 L138.289062,66 L139.273438,66 L139.273438,61.6347656 C139.273438,60.8652344 139.063477,60.3007812 138.643555,59.9414062 C138.223633,59.5820312 137.601562,59.4023438 136.777344,59.4023438 C136.40625,59.4023438 136.011719,59.4501953 135.59375,59.5458984 C135.175781,59.6416016 134.791016,59.78125 134.439453,59.9648438 L134.439453,59.9648438 L134.884766,60.9492188 C135.166016,60.8164062 135.458984,60.7011719 135.763672,60.6035156 C136.068359,60.5058594 136.386719,60.4570312 136.71875,60.4570312 C137.125,60.4570312 137.424805,60.5595703 137.618164,60.7646484 C137.811523,60.9697266 137.908203,61.2792969 137.908203,61.6933594 L137.908203,61.6933594 L137.908203,62.0390625 L136.789062,62.0742188 C135.773438,62.1054688 135.017578,62.2910156 134.521484,62.6308594 C134.025391,62.9707031 133.777344,63.4746094 133.777344,64.1425781 C133.777344,64.7714844 133.956055,65.2578125 134.313477,65.6015625 C134.670898,65.9453125 135.167969,66.1171875 135.804688,66.1171875 Z M136.238281,65.0625 C135.894531,65.0625 135.636719,64.9833984 135.464844,64.8251953 C135.292969,64.6669922 135.207031,64.4433594 135.207031,64.1542969 C135.207031,63.7558594 135.354492,63.4599609 135.649414,63.2666016 C135.944336,63.0732422 136.416016,62.9648438 137.064453,62.9414062 L137.064453,62.9414062 L137.896484,62.90625 L137.896484,63.46875 C137.896484,63.9726562 137.745117,64.3642578 137.442383,64.6435547 C137.139648,64.9228516 136.738281,65.0625 136.238281,65.0625 Z M143.28125,66.1171875 C143.539062,66.1171875 143.788086,66.0947266 144.02832,66.0498047 C144.268555,66.0048828 144.464844,65.9492188 144.617188,65.8828125 L144.617188,65.8828125 L144.617188,64.8457031 C144.28125,64.9511719 143.945312,65.0039062 143.609375,65.0039062 C143.339844,65.0039062 143.12207,64.9248047 142.956055,64.7666016 C142.790039,64.6083984 142.707031,64.3632812 142.707031,64.03125 L142.707031,64.03125 L142.707031,60.5625 L144.552734,60.5625 L144.552734,59.5195312 L142.707031,59.5195312 L142.707031,58.078125 L141.857422,58.078125 L141.388672,59.4492188 L140.439453,59.953125 L140.439453,60.5625 L141.324219,60.5625 L141.324219,64.0546875 C141.324219,65.4296875 141.976562,66.1171875 143.28125,66.1171875 Z M91.8535156,80.8828125 C92.9980469,80.8828125 93.8730469,80.6835938 94.4785156,80.2851562 C95.0839844,79.8867188 95.3867188,79.3203125 95.3867188,78.5859375 C95.3867188,78.0117188 95.2011719,77.5722656 94.8300781,77.2675781 C94.4589844,76.9628906 93.9160156,76.8105469 93.2011719,76.8105469 L93.2011719,76.8105469 L92.0703125,76.8105469 C91.6992188,76.8105469 91.4443359,76.7734375 91.3056641,76.6992188 C91.1669922,76.625 91.0976562,76.5136719 91.0976562,76.3652344 C91.0976562,76.1191406 91.2460938,75.9042969 91.5429688,75.7207031 C91.7109375,75.7519531 91.8984375,75.7675781 92.1054688,75.7675781 C92.9140625,75.7675781 93.5488281,75.5761719 94.0097656,75.1933594 C94.4707031,74.8105469 94.7011719,74.2851562 94.7011719,73.6171875 C94.7011719,73.3945312 94.6679688,73.1835938 94.6015625,72.984375 C94.5351562,72.7851562 94.4511719,72.6171875 94.3496094,72.4804688 L94.3496094,72.4804688 L95.4570312,72.2753906 L95.4570312,71.5195312 L93.2128906,71.5195312 C93.1113281,71.4921875 92.9599609,71.4658203 92.7587891,71.4404297 C92.5576172,71.4150391 92.3652344,71.4023438 92.1816406,71.4023438 C91.3613281,71.4023438 90.7294922,71.5957031 90.2861328,71.9824219 C89.8427734,72.3691406 89.6210938,72.9140625 89.6210938,73.6171875 C89.6210938,74.0546875 89.7255859,74.4365234 89.9345703,74.7626953 C90.1435547,75.0888672 90.4160156,75.3242188 90.7519531,75.46875 C90.4824219,75.6328125 90.2792969,75.7988281 90.1425781,75.9667969 C90.0058594,76.1347656 89.9375,76.3398438 89.9375,76.5820312 C89.9375,76.7734375 89.9970703,76.9560547 90.1162109,77.1298828 C90.2353516,77.3037109 90.3867188,77.4296875 90.5703125,77.5078125 C90.1171875,77.6132812 89.7646484,77.8017578 89.5126953,78.0732422 C89.2607422,78.3447266 89.1347656,78.6796875 89.1347656,79.078125 C89.1347656,79.65625 89.3671875,80.1015625 89.8320312,80.4140625 C90.296875,80.7265625 90.9707031,80.8828125 91.8535156,80.8828125 Z M92.1699219,74.8828125 C91.7792969,74.8828125 91.4794922,74.7734375 91.2705078,74.5546875 C91.0615234,74.3359375 90.9570312,74.0234375 90.9570312,73.6171875 C90.9570312,73.1835938 91.0595703,72.8535156 91.2646484,72.6269531 C91.4697266,72.4003906 91.7714844,72.2871094 92.1699219,72.2871094 C92.5722656,72.2871094 92.8720703,72.4013672 93.0693359,72.6298828 C93.2666016,72.8583984 93.3652344,73.1835938 93.3652344,73.6054688 C93.3652344,74.4570312 92.9667969,74.8828125 92.1699219,74.8828125 Z M91.8945312,79.9335938 C91.4101562,79.9335938 91.0341797,79.8535156 90.7666016,79.6933594 C90.4990234,79.5332031 90.3652344,79.3046875 90.3652344,79.0078125 C90.3652344,78.6914062 90.4814453,78.4404297 90.7138672,78.2548828 C90.9462891,78.0693359 91.2597656,77.9765625 91.6542969,77.9765625 L91.6542969,77.9765625 L92.6972656,77.9765625 C93.2441406,77.9765625 93.6181641,78.0361328 93.8193359,78.1552734 C94.0205078,78.2744141 94.1210938,78.4746094 94.1210938,78.7558594 C94.1210938,79.1113281 93.9375,79.3964844 93.5703125,79.6113281 C93.203125,79.8261719 92.6445312,79.9335938 91.8945312,79.9335938 Z M99.3242188,78.1171875 C100.292969,78.1171875 101.048828,77.8203125 101.591797,77.2265625 C102.134766,76.6328125 102.40625,75.8066406 102.40625,74.7480469 C102.40625,73.7246094 102.132812,72.9111328 101.585938,72.3076172 C101.039062,71.7041016 100.296875,71.4023438 99.359375,71.4023438 C98.3789062,71.4023438 97.6191406,71.6972656 97.0800781,72.2871094 C96.5410156,72.8769531 96.2714844,73.6972656 96.2714844,74.7480469 C96.2714844,75.4238281 96.3964844,76.0175781 96.6464844,76.5292969 C96.8964844,77.0410156 97.2539062,77.4335938 97.71875,77.7070312 C98.1835938,77.9804688 98.71875,78.1171875 99.3242188,78.1171875 Z M99.3476562,76.9921875 C98.2421875,76.9921875 97.6894531,76.2441406 97.6894531,74.7480469 C97.6894531,74.0332031 97.8193359,73.484375 98.0791016,73.1015625 C98.3388672,72.71875 98.7578125,72.5273438 99.3359375,72.5273438 C100.4375,72.5273438 100.988281,73.2675781 100.988281,74.7480469 C100.988281,76.2441406 100.441406,76.9921875 99.3476562,76.9921875 Z M109.191406,78.1171875 C109.449219,78.1171875 109.698242,78.0947266 109.938477,78.0498047 C110.178711,78.0048828 110.375,77.9492188 110.527344,77.8828125 L110.527344,77.8828125 L110.527344,76.8457031 C110.191406,76.9511719 109.855469,77.0039062 109.519531,77.0039062 C109.25,77.0039062 109.032227,76.9248047 108.866211,76.7666016 C108.700195,76.6083984 108.617188,76.3632812 108.617188,76.03125 L108.617188,76.03125 L108.617188,72.5625 L110.462891,72.5625 L110.462891,71.5195312 L108.617188,71.5195312 L108.617188,70.078125 L107.767578,70.078125 L107.298828,71.4492188 L106.349609,71.953125 L106.349609,72.5625 L107.234375,72.5625 L107.234375,76.0546875 C107.234375,77.4296875 107.886719,78.1171875 109.191406,78.1171875 Z M114.488281,78.1171875 C115.457031,78.1171875 116.212891,77.8203125 116.755859,77.2265625 C117.298828,76.6328125 117.570312,75.8066406 117.570312,74.7480469 C117.570312,73.7246094 117.296875,72.9111328 116.75,72.3076172 C116.203125,71.7041016 115.460938,71.4023438 114.523438,71.4023438 C113.542969,71.4023438 112.783203,71.6972656 112.244141,72.2871094 C111.705078,72.8769531 111.435547,73.6972656 111.435547,74.7480469 C111.435547,75.4238281 111.560547,76.0175781 111.810547,76.5292969 C112.060547,77.0410156 112.417969,77.4335938 112.882812,77.7070312 C113.347656,77.9804688 113.882812,78.1171875 114.488281,78.1171875 Z M114.511719,76.9921875 C113.40625,76.9921875 112.853516,76.2441406 112.853516,74.7480469 C112.853516,74.0332031 112.983398,73.484375 113.243164,73.1015625 C113.50293,72.71875 113.921875,72.5273438 114.5,72.5273438 C115.601562,72.5273438 116.152344,73.2675781 116.152344,74.7480469 C116.152344,76.2441406 115.605469,76.9921875 114.511719,76.9921875 Z M121.021484,80.8828125 C122.166016,80.8828125 123.041016,80.6835938 123.646484,80.2851562 C124.251953,79.8867188 124.554688,79.3203125 124.554688,78.5859375 C124.554688,78.0117188 124.369141,77.5722656 123.998047,77.2675781 C123.626953,76.9628906 123.083984,76.8105469 122.369141,76.8105469 L122.369141,76.8105469 L121.238281,76.8105469 C120.867188,76.8105469 120.612305,76.7734375 120.473633,76.6992188 C120.334961,76.625 120.265625,76.5136719 120.265625,76.3652344 C120.265625,76.1191406 120.414062,75.9042969 120.710938,75.7207031 C120.878906,75.7519531 121.066406,75.7675781 121.273438,75.7675781 C122.082031,75.7675781 122.716797,75.5761719 123.177734,75.1933594 C123.638672,74.8105469 123.869141,74.2851562 123.869141,73.6171875 C123.869141,73.3945312 123.835938,73.1835938 123.769531,72.984375 C123.703125,72.7851562 123.619141,72.6171875 123.517578,72.4804688 L123.517578,72.4804688 L124.625,72.2753906 L124.625,71.5195312 L122.380859,71.5195312 C122.279297,71.4921875 122.12793,71.4658203 121.926758,71.4404297 C121.725586,71.4150391 121.533203,71.4023438 121.349609,71.4023438 C120.529297,71.4023438 119.897461,71.5957031 119.454102,71.9824219 C119.010742,72.3691406 118.789062,72.9140625 118.789062,73.6171875 C118.789062,74.0546875 118.893555,74.4365234 119.102539,74.7626953 C119.311523,75.0888672 119.583984,75.3242188 119.919922,75.46875 C119.650391,75.6328125 119.447266,75.7988281 119.310547,75.9667969 C119.173828,76.1347656 119.105469,76.3398438 119.105469,76.5820312 C119.105469,76.7734375 119.165039,76.9560547 119.28418,77.1298828 C119.40332,77.3037109 119.554688,77.4296875 119.738281,77.5078125 C119.285156,77.6132812 118.932617,77.8017578 118.680664,78.0732422 C118.428711,78.3447266 118.302734,78.6796875 118.302734,79.078125 C118.302734,79.65625 118.535156,80.1015625 119,80.4140625 C119.464844,80.7265625 120.138672,80.8828125 121.021484,80.8828125 Z M121.337891,74.8828125 C120.947266,74.8828125 120.647461,74.7734375 120.438477,74.5546875 C120.229492,74.3359375 120.125,74.0234375 120.125,73.6171875 C120.125,73.1835938 120.227539,72.8535156 120.432617,72.6269531 C120.637695,72.4003906 120.939453,72.2871094 121.337891,72.2871094 C121.740234,72.2871094 122.040039,72.4013672 122.237305,72.6298828 C122.43457,72.8583984 122.533203,73.1835938 122.533203,73.6054688 C122.533203,74.4570312 122.134766,74.8828125 121.337891,74.8828125 Z M121.0625,79.9335938 C120.578125,79.9335938 120.202148,79.8535156 119.93457,79.6933594 C119.666992,79.5332031 119.533203,79.3046875 119.533203,79.0078125 C119.533203,78.6914062 119.649414,78.4404297 119.881836,78.2548828 C120.114258,78.0693359 120.427734,77.9765625 120.822266,77.9765625 L120.822266,77.9765625 L121.865234,77.9765625 C122.412109,77.9765625 122.786133,78.0361328 122.987305,78.1552734 C123.188477,78.2744141 123.289062,78.4746094 123.289062,78.7558594 C123.289062,79.1113281 123.105469,79.3964844 122.738281,79.6113281 C122.371094,79.8261719 121.8125,79.9335938 121.0625,79.9335938 Z M128.65625,78.1171875 C129.097656,78.1171875 129.490234,78.0839844 129.833984,78.0175781 C130.177734,77.9511719 130.517578,77.8378906 130.853516,77.6777344 L130.853516,77.6777344 L130.853516,76.5585938 C130.474609,76.7265625 130.120117,76.8466797 129.790039,76.9189453 C129.459961,76.9912109 129.103516,77.0273438 128.720703,77.0273438 C128.138672,77.0273438 127.6875,76.8583984 127.367188,76.5205078 C127.046875,76.1826172 126.876953,75.6992188 126.857422,75.0703125 L126.857422,75.0703125 L131.175781,75.0703125 L131.175781,74.3261719 C131.175781,73.4160156 130.927734,72.7011719 130.431641,72.1816406 C129.935547,71.6621094 129.259766,71.4023438 128.404297,71.4023438 C127.482422,71.4023438 126.757812,71.7050781 126.230469,72.3105469 C125.703125,72.9160156 125.439453,73.7480469 125.439453,74.8066406 C125.439453,75.8378906 125.723633,76.6474609 126.291992,77.2353516 C126.860352,77.8232422 127.648438,78.1171875 128.65625,78.1171875 Z M129.822266,74.0742188 L126.880859,74.0742188 C126.931641,73.5429688 127.088867,73.1386719 127.352539,72.8613281 C127.616211,72.5839844 127.966797,72.4453125 128.404297,72.4453125 C128.841797,72.4453125 129.185547,72.5830078 129.435547,72.8583984 C129.685547,73.1337891 129.814453,73.5390625 129.822266,74.0742188 L129.822266,74.0742188 Z M134.826172,78.1171875 C135.083984,78.1171875 135.333008,78.0947266 135.573242,78.0498047 C135.813477,78.0048828 136.009766,77.9492188 136.162109,77.8828125 L136.162109,77.8828125 L136.162109,76.8457031 C135.826172,76.9511719 135.490234,77.0039062 135.154297,77.0039062 C134.884766,77.0039062 134.666992,76.9248047 134.500977,76.7666016 C134.334961,76.6083984 134.251953,76.3632812 134.251953,76.03125 L134.251953,76.03125 L134.251953,72.5625 L136.097656,72.5625 L136.097656,71.5195312 L134.251953,71.5195312 L134.251953,70.078125 L133.402344,70.078125 L132.933594,71.4492188 L131.984375,71.953125 L131.984375,72.5625 L132.869141,72.5625 L132.869141,76.0546875 C132.869141,77.4296875 133.521484,78.1171875 134.826172,78.1171875 Z M138.833984,78 L138.833984,74.7832031 C138.833984,73.9707031 138.969727,73.3916016 139.241211,73.0458984 C139.512695,72.7001953 139.9375,72.5273438 140.515625,72.5273438 C140.953125,72.5273438 141.272461,72.6503906 141.473633,72.8964844 C141.674805,73.1425781 141.775391,73.515625 141.775391,74.015625 L141.775391,74.015625 L141.775391,78 L143.158203,78 L143.158203,73.7753906 C143.158203,72.1933594 142.373047,71.4023438 140.802734,71.4023438 C140.357422,71.4023438 139.967773,71.4882812 139.633789,71.6601562 C139.299805,71.8320312 139.039062,72.0742188 138.851562,72.3867188 L138.851562,72.3867188 L138.763672,72.3867188 C138.810547,71.9648438 138.833984,71.5683594 138.833984,71.1972656 L138.833984,71.1972656 L138.833984,68.8828125 L137.457031,68.8828125 L137.457031,78 L138.833984,78 Z M147.904297,78.1171875 C148.345703,78.1171875 148.738281,78.0839844 149.082031,78.0175781 C149.425781,77.9511719 149.765625,77.8378906 150.101562,77.6777344 L150.101562,77.6777344 L150.101562,76.5585938 C149.722656,76.7265625 149.368164,76.8466797 149.038086,76.9189453 C148.708008,76.9912109 148.351562,77.0273438 147.96875,77.0273438 C147.386719,77.0273438 146.935547,76.8583984 146.615234,76.5205078 C146.294922,76.1826172 146.125,75.6992188 146.105469,75.0703125 L146.105469,75.0703125 L150.423828,75.0703125 L150.423828,74.3261719 C150.423828,73.4160156 150.175781,72.7011719 149.679688,72.1816406 C149.183594,71.6621094 148.507812,71.4023438 147.652344,71.4023438 C146.730469,71.4023438 146.005859,71.7050781 145.478516,72.3105469 C144.951172,72.9160156 144.6875,73.7480469 144.6875,74.8066406 C144.6875,75.8378906 144.97168,76.6474609 145.540039,77.2353516 C146.108398,77.8232422 146.896484,78.1171875 147.904297,78.1171875 Z M149.070312,74.0742188 L146.128906,74.0742188 C146.179688,73.5429688 146.336914,73.1386719 146.600586,72.8613281 C146.864258,72.5839844 147.214844,72.4453125 147.652344,72.4453125 C148.089844,72.4453125 148.433594,72.5830078 148.683594,72.8583984 C148.933594,73.1337891 149.0625,73.5390625 149.070312,74.0742188 L149.070312,74.0742188 Z M153.365234,78 L153.365234,74.6132812 C153.365234,74.0390625 153.536133,73.5722656 153.87793,73.2128906 C154.219727,72.8535156 154.666016,72.6738281 155.216797,72.6738281 C155.427734,72.6738281 155.630859,72.6972656 155.826172,72.7441406 L155.826172,72.7441406 L155.960938,71.4609375 C155.78125,71.421875 155.552734,71.4023438 155.275391,71.4023438 C154.876953,71.4023438 154.504883,71.515625 154.15918,71.7421875 C153.813477,71.96875 153.533203,72.2753906 153.318359,72.6621094 L153.318359,72.6621094 L153.248047,72.6621094 L153.066406,71.5195312 L151.988281,71.5195312 L151.988281,78 L153.365234,78 Z M157.824219,78.1699219 C158.105469,78.1699219 158.321289,78.0888672 158.47168,77.9267578 C158.62207,77.7646484 158.697266,77.5449219 158.697266,77.2675781 C158.697266,76.9941406 158.623047,76.7783203 158.474609,76.6201172 C158.326172,76.4619141 158.109375,76.3828125 157.824219,76.3828125 C157.542969,76.3828125 157.328125,76.4589844 157.179688,76.6113281 C157.03125,76.7636719 156.957031,76.9824219 156.957031,77.2675781 C156.957031,77.5488281 157.03125,77.7695312 157.179688,77.9296875 C157.328125,78.0898438 157.542969,78.1699219 157.824219,78.1699219 Z" id="Identifypairsthatgotogether." fill="#FFFFFF" fill-rule="nonzero"></path>
                <g fill-rule="nonzero" fill="#FFFFFF">
                    <use xlink:href="#path-2"></use>
                    <use xlink:href="#path-2"></use>
                </g>
            </g>
        </g>
    </g>
</svg>