<?xml version="1.0" encoding="UTF-8"?>
<svg width="163px" height="97px" viewBox="0 0 163 97" version="1.1" xmlns="http://www.w3.org/2000/svg" xmlns:xlink="http://www.w3.org/1999/xlink">
    <!-- Generator: Sketch 62 (91390) - https://sketch.com -->
    <title>New Perspective</title>
    <desc>Created with Sketch.</desc>
    <defs>
        <radialGradient cx="26.0530847%" cy="62.3934409%" fx="26.0530847%" fy="62.3934409%" r="35.1006849%" gradientTransform="translate(0.260531,0.623934),scale(0.595092,1.000000),rotate(-90.000000),translate(-0.260531,-0.623934)" id="radialGradient-1">
            <stop stop-color="#F5836F" offset="0%"></stop>
            <stop stop-color="#E74C3C" offset="100%"></stop>
        </radialGradient>
        <path d="M17.4033203,20 L17.4033203,13.6914062 C17.4033203,12.8391927 17.3645833,11.8984375 17.2871094,10.8691406 L17.2871094,10.8691406 L17.2456055,10.3295898 L17.3120117,10.3295898 L23.2802734,20 L25.7124023,20 L25.7124023,7.86425781 L23.8945312,7.86425781 L23.8945312,14.2226562 C23.8945312,14.6708984 23.9111328,15.2948405 23.9443359,16.0944824 C23.9775391,16.8941243 23.9996745,17.3575846 24.0107422,17.4848633 L24.0107422,17.4848633 L23.9609375,17.4848633 L18.0092773,7.86425781 L15.6020508,7.86425781 L15.6020508,20 L17.4033203,20 Z M32.7182617,20.1660156 C33.3435872,20.1660156 33.8997396,20.1189779 34.3867188,20.0249023 C34.8736979,19.9308268 35.3551432,19.7703451 35.8310547,19.543457 L35.8310547,19.543457 L35.8310547,17.9580078 C35.2942708,18.1959635 34.7920736,18.3661296 34.3244629,18.4685059 C33.8568522,18.5708822 33.351888,18.6220703 32.8095703,18.6220703 C31.985026,18.6220703 31.3458659,18.3827311 30.8920898,17.9040527 C30.4383138,17.4253743 30.1975911,16.7405599 30.1699219,15.8496094 L30.1699219,15.8496094 L36.2875977,15.8496094 L36.2875977,14.7954102 C36.2875977,13.5060221 35.9361979,12.4933268 35.2333984,11.7573242 C34.530599,11.0213216 33.5732422,10.6533203 32.3613281,10.6533203 C31.0553385,10.6533203 30.0288086,11.082194 29.2817383,11.9399414 C28.534668,12.7976888 28.1611328,13.9763997 28.1611328,15.4760742 C28.1611328,16.9370117 28.5637207,18.083903 29.3688965,18.916748 C30.1740723,19.7495931 31.2905273,20.1660156 32.7182617,20.1660156 Z M34.3701172,14.4384766 L30.203125,14.4384766 C30.2750651,13.6858724 30.4978027,13.1131185 30.8713379,12.7202148 C31.244873,12.3273112 31.7415365,12.1308594 32.3613281,12.1308594 C32.9811198,12.1308594 33.468099,12.3259277 33.8222656,12.7160645 C34.1764323,13.1062012 34.3590495,13.6803385 34.3701172,14.4384766 L34.3701172,14.4384766 Z M42.0068359,20 L43.2270508,15.7333984 C43.4152018,15.1080729 43.6697591,14.0483398 43.9907227,12.5541992 L43.9907227,12.5541992 L44.0654297,12.5541992 C44.4417318,14.2088216 44.7018229,15.2630208 44.8457031,15.7167969 L44.8457031,15.7167969 L46.0327148,20 L48.2241211,20 L50.8139648,10.8193359 L48.8549805,10.8193359 L47.6679688,15.3432617 C47.3636068,16.5662435 47.1699219,17.5180664 47.0869141,18.1987305 L47.0869141,18.1987305 L47.0205078,18.1987305 C46.9983724,17.8888346 46.9250488,17.4544271 46.8005371,16.8955078 C46.6760254,16.3365885 46.5722656,15.9215495 46.4892578,15.6503906 L46.4892578,15.6503906 L45.1362305,10.8193359 L42.9946289,10.8193359 L41.6000977,15.6503906 C41.5170898,15.9104818 41.4188639,16.302002 41.3054199,16.8249512 C41.1919759,17.3479004 41.1075846,17.8113607 41.0522461,18.215332 L41.0522461,18.215332 L41.0024414,18.215332 C40.8917643,17.418457 40.7036133,16.4611003 40.4379883,15.3432617 L40.4379883,15.3432617 L39.2675781,10.8193359 L37.2753906,10.8193359 L39.8486328,20 L42.0068359,20 Z M58.9985352,20 L58.9985352,15.4594727 L60.2602539,15.4594727 C61.7931315,15.4594727 62.9746094,15.1219076 63.8046875,14.4467773 C64.6347656,13.7716471 65.0498047,12.8004557 65.0498047,11.5332031 C65.0498047,10.3268229 64.6721191,9.41373698 63.916748,8.79394531 C63.161377,8.17415365 62.0255534,7.86425781 60.5092773,7.86425781 L60.5092773,7.86425781 L57.0146484,7.86425781 L57.0146484,20 L58.9985352,20 Z M60.0527344,13.7910156 L58.9985352,13.7910156 L58.9985352,9.52441406 L60.3764648,9.52441406 C61.2784831,9.52441406 61.9425456,9.69596354 62.3686523,10.0390625 C62.7947591,10.3821615 63.0078125,10.9023438 63.0078125,11.5996094 C63.0078125,12.3522135 62.7698568,12.905599 62.2939453,13.2597656 C61.8180339,13.6139323 61.0709635,13.7910156 60.0527344,13.7910156 L60.0527344,13.7910156 Z M71.2753906,20.1660156 C71.9007161,20.1660156 72.4568685,20.1189779 72.9438477,20.0249023 C73.4308268,19.9308268 73.9122721,19.7703451 74.3881836,19.543457 L74.3881836,19.543457 L74.3881836,17.9580078 C73.8513997,18.1959635 73.3492025,18.3661296 72.8815918,18.4685059 C72.4139811,18.5708822 71.9090169,18.6220703 71.3666992,18.6220703 C70.5421549,18.6220703 69.9029948,18.3827311 69.4492188,17.9040527 C68.9954427,17.4253743 68.7547201,16.7405599 68.7270508,15.8496094 L68.7270508,15.8496094 L74.8447266,15.8496094 L74.8447266,14.7954102 C74.8447266,13.5060221 74.4933268,12.4933268 73.7905273,11.7573242 C73.0877279,11.0213216 72.1303711,10.6533203 70.918457,10.6533203 C69.6124674,10.6533203 68.5859375,11.082194 67.8388672,11.9399414 C67.0917969,12.7976888 66.7182617,13.9763997 66.7182617,15.4760742 C66.7182617,16.9370117 67.1208496,18.083903 67.9260254,18.916748 C68.7312012,19.7495931 69.8476562,20.1660156 71.2753906,20.1660156 Z M72.9272461,14.4384766 L68.7602539,14.4384766 C68.832194,13.6858724 69.0549316,13.1131185 69.4284668,12.7202148 C69.802002,12.3273112 70.2986654,12.1308594 70.918457,12.1308594 C71.5382487,12.1308594 72.0252279,12.3259277 72.3793945,12.7160645 C72.7335612,13.1062012 72.9161784,13.6803385 72.9272461,14.4384766 L72.9272461,14.4384766 Z M79.0117188,20 L79.0117188,15.2021484 C79.0117188,14.3886719 79.2538249,13.7273763 79.7380371,13.2182617 C80.2222493,12.7091471 80.8544922,12.4545898 81.6347656,12.4545898 C81.9335938,12.4545898 82.2213542,12.487793 82.4980469,12.5541992 L82.4980469,12.5541992 L82.6889648,10.7363281 C82.4344076,10.6809896 82.1106771,10.6533203 81.7177734,10.6533203 C81.1533203,10.6533203 80.6262207,10.8138021 80.1364746,11.1347656 C79.6467285,11.4557292 79.2496745,11.8901367 78.9453125,12.4379883 L78.9453125,12.4379883 L78.8457031,12.4379883 L78.5883789,10.8193359 L77.0610352,10.8193359 L77.0610352,20 L79.0117188,20 Z M86.7729492,20.1660156 C87.9903971,20.1660156 88.9256185,19.9266764 89.5786133,19.447998 C90.2316081,18.9693197 90.5581055,18.2817383 90.5581055,17.3852539 C90.5581055,16.9425456 90.4750977,16.5620931 90.309082,16.2438965 C90.1430664,15.9256999 89.8885091,15.6448568 89.5454102,15.4013672 C89.2023112,15.1578776 88.6516927,14.8894857 87.8935547,14.5961914 C86.9915365,14.2475586 86.4063314,13.9736328 86.1379395,13.7744141 C85.8695475,13.5751953 85.7353516,13.3317057 85.7353516,13.0439453 C85.7353516,12.4573568 86.25,12.1640625 87.2792969,12.1640625 C87.9544271,12.1640625 88.7872721,12.3688151 89.777832,12.7783203 L89.777832,12.7783203 L90.4086914,11.309082 C89.4458008,10.8719076 88.4248047,10.6533203 87.3457031,10.6533203 C86.2555339,10.6533203 85.3936361,10.8705241 84.7600098,11.3049316 C84.1263835,11.7393392 83.8095703,12.3494466 83.8095703,13.1352539 C83.8095703,13.7882487 83.9963379,14.3194987 84.369873,14.7290039 C84.7434082,15.1385091 85.4586589,15.5480143 86.515625,15.9575195 C87.0579427,16.167806 87.4812826,16.355957 87.7856445,16.5219727 C88.0900065,16.6879883 88.3085938,16.8484701 88.4414062,17.003418 C88.5742188,17.1583659 88.640625,17.3520508 88.640625,17.5844727 C88.640625,18.3094076 88.0402018,18.671875 86.8393555,18.671875 C85.909668,18.671875 84.9052734,18.4228516 83.8261719,17.9248047 L83.8261719,17.9248047 L83.8261719,19.6098633 C84.5677083,19.9806315 85.5499674,20.1660156 86.7729492,20.1660156 Z M94.6171875,24.0839844 L94.6171875,20.3237305 C94.6171875,20.1577148 94.5784505,19.6873372 94.5009766,18.9125977 L94.5009766,18.9125977 L94.6171875,18.9125977 C95.2591146,19.7482096 96.1611328,20.1660156 97.3232422,20.1660156 C98.46875,20.1660156 99.3666178,19.7454427 100.016846,18.9042969 C100.667074,18.063151 100.992188,16.8927409 100.992188,15.3930664 C100.992188,13.8933919 100.672607,12.7285156 100.033447,11.8984375 C99.3942871,11.0683594 98.5019531,10.6533203 97.3564453,10.6533203 C96.1389974,10.6533203 95.2259115,11.1181641 94.6171875,12.0478516 L94.6171875,12.0478516 L94.5175781,12.0478516 C94.3792318,11.4003906 94.2879232,10.9908854 94.2436523,10.8193359 L94.2436523,10.8193359 L92.6665039,10.8193359 L92.6665039,24.0839844 L94.6171875,24.0839844 Z M96.8833008,18.5722656 C96.0808919,18.5722656 95.5026042,18.3218587 95.1484375,17.8210449 C94.7942708,17.3202311 94.6171875,16.5109049 94.6171875,15.3930664 L94.6171875,15.3930664 L94.6171875,15.1025391 C94.6171875,14.1064453 94.7956543,13.3815104 95.1525879,12.9277344 C95.5095215,12.4739583 96.0753581,12.2470703 96.8500977,12.2470703 C97.5528971,12.2470703 98.0855306,12.5113118 98.447998,13.0397949 C98.8104655,13.568278 98.9916992,14.347168 98.9916992,15.3764648 C98.9916992,16.4002279 98.809082,17.1888021 98.4438477,17.7421875 C98.0786133,18.2955729 97.558431,18.5722656 96.8833008,18.5722656 Z M107.267578,20.1660156 C107.892904,20.1660156 108.449056,20.1189779 108.936035,20.0249023 C109.423014,19.9308268 109.90446,19.7703451 110.380371,19.543457 L110.380371,19.543457 L110.380371,17.9580078 C109.843587,18.1959635 109.34139,18.3661296 108.873779,18.4685059 C108.406169,18.5708822 107.901204,18.6220703 107.358887,18.6220703 C106.534342,18.6220703 105.895182,18.3827311 105.441406,17.9040527 C104.98763,17.4253743 104.746908,16.7405599 104.719238,15.8496094 L104.719238,15.8496094 L110.836914,15.8496094 L110.836914,14.7954102 C110.836914,13.5060221 110.485514,12.4933268 109.782715,11.7573242 C109.079915,11.0213216 108.122559,10.6533203 106.910645,10.6533203 C105.604655,10.6533203 104.578125,11.082194 103.831055,11.9399414 C103.083984,12.7976888 102.710449,13.9763997 102.710449,15.4760742 C102.710449,16.9370117 103.113037,18.083903 103.918213,18.916748 C104.723389,19.7495931 105.839844,20.1660156 107.267578,20.1660156 Z M108.919434,14.4384766 L104.752441,14.4384766 C104.824382,13.6858724 105.047119,13.1131185 105.420654,12.7202148 C105.794189,12.3273112 106.290853,12.1308594 106.910645,12.1308594 C107.530436,12.1308594 108.017415,12.3259277 108.371582,12.7160645 C108.725749,13.1062012 108.908366,13.6803385 108.919434,14.4384766 L108.919434,14.4384766 Z M116.755371,20.1660156 C117.319824,20.1660156 117.799886,20.1217448 118.195557,20.0332031 C118.591227,19.9446615 118.963379,19.7980143 119.312012,19.5932617 L119.312012,19.5932617 L119.312012,17.8916016 C118.537272,18.3232422 117.715495,18.5390625 116.84668,18.5390625 C116.083008,18.5390625 115.503337,18.2803548 115.107666,17.7629395 C114.711995,17.2455241 114.51416,16.472168 114.51416,15.4428711 C114.51416,13.3344727 115.308268,12.2802734 116.896484,12.2802734 C117.433268,12.2802734 118.113932,12.4407552 118.938477,12.7617188 L118.938477,12.7617188 L119.527832,11.1928711 C118.753092,10.8331706 117.88151,10.6533203 116.913086,10.6533203 C115.485352,10.6533203 114.393799,11.0683594 113.638428,11.8984375 C112.883057,12.7285156 112.505371,13.9155273 112.505371,15.4594727 C112.505371,16.9757487 112.866455,18.1392415 113.588623,18.9499512 C114.310791,19.7606608 115.366374,20.1660156 116.755371,20.1660156 Z M124.425293,20.1660156 C124.790527,20.1660156 125.143311,20.134196 125.483643,20.0705566 C125.823975,20.0069173 126.102051,19.9280599 126.317871,19.8339844 L126.317871,19.8339844 L126.317871,18.3647461 C125.84196,18.5141602 125.366048,18.5888672 124.890137,18.5888672 C124.508301,18.5888672 124.199788,18.4768066 123.9646,18.2526855 C123.729411,18.0285645 123.611816,17.6813151 123.611816,17.2109375 L123.611816,17.2109375 L123.611816,12.296875 L126.226562,12.296875 L126.226562,10.8193359 L123.611816,10.8193359 L123.611816,8.77734375 L122.408203,8.77734375 L121.744141,10.7197266 L120.399414,11.4335938 L120.399414,12.296875 L121.652832,12.296875 L121.652832,17.2441406 C121.652832,19.1920573 122.576986,20.1660156 124.425293,20.1660156 Z M129.140137,9.45800781 C129.483236,9.45800781 129.750244,9.36254883 129.941162,9.17163086 C130.13208,8.98071289 130.227539,8.71923828 130.227539,8.38720703 C130.227539,8.03857422 130.13208,7.77018229 129.941162,7.58203125 C129.750244,7.39388021 129.483236,7.29980469 129.140137,7.29980469 C128.78597,7.29980469 128.513428,7.39388021 128.32251,7.58203125 C128.131592,7.77018229 128.036133,8.03857422 128.036133,8.38720703 C128.036133,8.71923828 128.131592,8.98071289 128.32251,9.17163086 C128.513428,9.36254883 128.78597,9.45800781 129.140137,9.45800781 Z M130.103027,20 L130.103027,10.8193359 L128.152344,10.8193359 L128.152344,20 L130.103027,20 Z M137.092285,20 L140.595215,10.8193359 L138.52002,10.8193359 L136.652344,16.1567383 C136.314779,17.2081706 136.121094,17.9331055 136.071289,18.331543 L136.071289,18.331543 L136.004883,18.331543 C135.938477,17.7781576 135.744792,17.0532227 135.423828,16.1567383 L135.423828,16.1567383 L133.556152,10.8193359 L131.497559,10.8193359 L134.983887,20 L137.092285,20 Z M145.999023,20.1660156 C146.624349,20.1660156 147.180501,20.1189779 147.66748,20.0249023 C148.15446,19.9308268 148.635905,19.7703451 149.111816,19.543457 L149.111816,19.543457 L149.111816,17.9580078 C148.575033,18.1959635 148.072835,18.3661296 147.605225,18.4685059 C147.137614,18.5708822 146.63265,18.6220703 146.090332,18.6220703 C145.265788,18.6220703 144.626628,18.3827311 144.172852,17.9040527 C143.719076,17.4253743 143.478353,16.7405599 143.450684,15.8496094 L143.450684,15.8496094 L149.568359,15.8496094 L149.568359,14.7954102 C149.568359,13.5060221 149.21696,12.4933268 148.51416,11.7573242 C147.811361,11.0213216 146.854004,10.6533203 145.64209,10.6533203 C144.3361,10.6533203 143.30957,11.082194 142.5625,11.9399414 C141.81543,12.7976888 141.441895,13.9763997 141.441895,15.4760742 C141.441895,16.9370117 141.844482,18.083903 142.649658,18.916748 C143.454834,19.7495931 144.571289,20.1660156 145.999023,20.1660156 Z M147.650879,14.4384766 L143.483887,14.4384766 C143.555827,13.6858724 143.778564,13.1131185 144.1521,12.7202148 C144.525635,12.3273112 145.022298,12.1308594 145.64209,12.1308594 C146.261882,12.1308594 146.748861,12.3259277 147.103027,12.7160645 C147.457194,13.1062012 147.639811,13.6803385 147.650879,14.4384766 L147.650879,14.4384766 Z" id="path-2"></path>
    </defs>
    <g id="Symbols" stroke="none" stroke-width="1" fill="none" fill-rule="evenodd">
        <g id="i/New-Perspective">
            <g id="New-Perspective">
                <path d="M6,0 L157,0 C160.313708,-6.08718376e-16 163,2.6862915 163,6 L163,91 C163,94.3137085 160.313708,97 157,97 L6,97 C2.6862915,97 4.05812251e-16,94.3137085 0,91 L0,6 C-4.05812251e-16,2.6862915 2.6862915,6.08718376e-16 6,0 Z" id="Rectangle-2" fill="url(#radialGradient-1)" fill-rule="nonzero"></path>
                <g id="Group" transform="translate(20.000000, 49.000000)" fill-rule="nonzero">
                    <path d="M32.3595506,1.02427142 C32.6578652,1.02427142 32.8914607,1.28443636 32.8626404,1.58557216 L30.5666292,25.8147127 C30.5418539,26.0774383 30.3239326,26.2781955 30.0635393,26.2781955 L15.6741573,26.2781955 C15.4152809,26.2781955 15.1983708,26.079999 15.171573,25.819834 L12.6434831,1.59018139 C12.6116292,1.28802131 12.8457304,1.02427142 13.1460674,1.02427142 L32.3595506,1.02427142 Z M31.8028652,2.04854284 L13.707809,2.04854284 L16.1292135,25.2539241 L29.6039326,25.2539241 L31.8028652,2.04854284 Z" id="Shape" fill="#FFFFFF"></path>
                    <polygon id="Shape" fill="#FFFFFF" points="15.7899439 12.8033928 16.9837078 24.2475774 28.6301124 24.2475774 29.7131461 12.815684"></polygon>
                    <path d="M39.212191,12.8033928 C36.1688764,12.8566549 33.6787078,15.2442316 33.5239888,18.336507 L33.5123596,18.336507 L32.0870225,22.9073182 L33.5123596,22.9073182 L33.5123596,23.8696212 L33.518427,23.8696212 L33.5356179,23.9966309 L35.6779213,23.2361094 C35.8058427,23.1910414 35.9453932,23.2591555 35.9903932,23.3882137 C36.0348876,23.517784 35.9676404,23.6591334 35.8402247,23.7042014 L33.6402809,24.4852084 C34.0159551,25.6088341 34.8937078,26.1225063 36.0060674,26.2751227 L36.1248876,26.268977 L36.1248876,28.6811362 L43.7253371,28.6811362 L43.7253371,22.185719 C44.4989326,21.1384015 44.8462922,19.9056908 44.9125281,18.5772108 C44.9125281,15.3881417 42.3606742,12.8033928 39.212191,12.8033928 Z M35.3654494,18.9336572 C35.7830899,18.9336572 36.1218539,19.2767881 36.1218539,19.6998123 C36.1218539,20.1233485 35.7830899,20.4664795 35.3654494,20.4664795 C34.947809,20.4664795 34.6090449,20.1233485 34.6090449,19.6998123 C34.6090449,19.2767881 34.947809,18.9336572 35.3654494,18.9336572 Z" id="Shape" fill="#9B9B9B"></path>
                    <path d="M5.70033709,0 C8.74365171,0.0537742497 11.2343258,2.4408388 11.3885393,5.53311421 L11.4001686,5.53311421 L12.8255057,10.1039254 L11.4001686,10.1039254 L11.4001686,10.932561 L9.01365171,11.4160171 C8.88117972,11.4426482 8.79522471,11.5732428 8.82151686,11.7079345 C8.84831462,11.842114 8.97724717,11.9291772 9.10971905,11.9025461 L11.3425281,11.4498181 C11.1741573,12.7045506 10.0107304,13.3201377 8.90646067,13.4717299 L8.78764045,13.4655843 L8.78764045,15.8777434 L1.18769663,15.8777434 L1.18769663,9.38232624 C0.413595506,8.33500874 0.0662359552,7.10229804 0,5.77381801 C0,2.58526107 2.55185393,0 5.70033709,0 Z M9.54707866,6.13026444 C9.12943821,6.13026444 8.79067417,6.4733954 8.79067417,6.8964195 C8.79067417,7.3199557 9.12943821,7.66308665 9.54707866,7.66308665 C9.96522471,7.66308665 10.3034831,7.3199557 10.3034831,6.8964195 C10.3034831,6.4733954 9.96522471,6.13026444 9.54707866,6.13026444 Z" id="Shape" fill="#BDC3C7"></path>
                </g>
                <line x1="81" y1="45" x2="81" y2="85.0042519" id="Line-3" stroke="#FFFFFF" stroke-width="2" stroke-linecap="square"></line>
                <g id="NewPerspective" fill-rule="nonzero" fill="#FFFFFF">
                    <use xlink:href="#path-2"></use>
                    <use xlink:href="#path-2"></use>
                </g>
                <path d="M94.4648438,51 L97.4648438,42.4335938 L96.0117188,42.4335938 L94.2246094,47.7363281 C94.1582031,47.9238281 94.0722656,48.2128906 93.9667969,48.6035156 C93.8613281,48.9941406 93.7832031,49.3378906 93.7324219,49.6347656 C93.7011719,49.4394531 93.6328125,49.1416016 93.5273438,48.7412109 C93.421875,48.3408203 93.3222656,48.0136719 93.2285156,47.7597656 L93.2285156,47.7597656 L91.4414062,42.4335938 L90,42.4335938 L92.9882812,51 L94.4648438,51 Z M99.1464844,43.5585938 C99.3886719,43.5585938 99.5771484,43.4912109 99.7119141,43.3564453 C99.8466797,43.2216797 99.9140625,43.0371094 99.9140625,42.8027344 C99.9140625,42.5566406 99.8466797,42.3671875 99.7119141,42.234375 C99.5771484,42.1015625 99.3886719,42.0351562 99.1464844,42.0351562 C98.8964844,42.0351562 98.7041016,42.1015625 98.5693359,42.234375 C98.4345703,42.3671875 98.3671875,42.5566406 98.3671875,42.8027344 C98.3671875,43.0371094 98.4345703,43.2216797 98.5693359,43.3564453 C98.7041016,43.4912109 98.8964844,43.5585938 99.1464844,43.5585938 Z M99.8261719,51 L99.8261719,44.5195312 L98.4492188,44.5195312 L98.4492188,51 L99.8261719,51 Z M104.625,51.1171875 C105.066406,51.1171875 105.458984,51.0839844 105.802734,51.0175781 C106.146484,50.9511719 106.486328,50.8378906 106.822266,50.6777344 L106.822266,50.6777344 L106.822266,49.5585938 C106.443359,49.7265625 106.088867,49.8466797 105.758789,49.9189453 C105.428711,49.9912109 105.072266,50.0273438 104.689453,50.0273438 C104.107422,50.0273438 103.65625,49.8583984 103.335938,49.5205078 C103.015625,49.1826172 102.845703,48.6992188 102.826172,48.0703125 L102.826172,48.0703125 L107.144531,48.0703125 L107.144531,47.3261719 C107.144531,46.4160156 106.896484,45.7011719 106.400391,45.1816406 C105.904297,44.6621094 105.228516,44.4023438 104.373047,44.4023438 C103.451172,44.4023438 102.726562,44.7050781 102.199219,45.3105469 C101.671875,45.9160156 101.408203,46.7480469 101.408203,47.8066406 C101.408203,48.8378906 101.692383,49.6474609 102.260742,50.2353516 C102.829102,50.8232422 103.617188,51.1171875 104.625,51.1171875 Z M105.791016,47.0742188 L102.849609,47.0742188 C102.900391,46.5429688 103.057617,46.1386719 103.321289,45.8613281 C103.584961,45.5839844 103.935547,45.4453125 104.373047,45.4453125 C104.810547,45.4453125 105.154297,45.5830078 105.404297,45.8583984 C105.654297,46.1337891 105.783203,46.5390625 105.791016,47.0742188 L105.791016,47.0742188 Z M111.181641,51 L112.042969,47.9882812 C112.175781,47.546875 112.355469,46.7988281 112.582031,45.7441406 L112.582031,45.7441406 L112.634766,45.7441406 C112.900391,46.9121094 113.083984,47.65625 113.185547,47.9765625 L113.185547,47.9765625 L114.023438,51 L115.570312,51 L117.398438,44.5195312 L116.015625,44.5195312 L115.177734,47.7128906 C114.962891,48.5761719 114.826172,49.2480469 114.767578,49.7285156 L114.767578,49.7285156 L114.720703,49.7285156 C114.705078,49.5097656 114.65332,49.203125 114.56543,48.8085938 C114.477539,48.4140625 114.404297,48.1210938 114.345703,47.9296875 L114.345703,47.9296875 L113.390625,44.5195312 L111.878906,44.5195312 L110.894531,47.9296875 C110.835938,48.1132812 110.766602,48.3896484 110.686523,48.7587891 C110.606445,49.1279297 110.546875,49.4550781 110.507812,49.7402344 L110.507812,49.7402344 L110.472656,49.7402344 C110.394531,49.1777344 110.261719,48.5019531 110.074219,47.7128906 L110.074219,47.7128906 L109.248047,44.5195312 L107.841797,44.5195312 L109.658203,51 L111.181641,51 Z M123.298828,51 L123.298828,45.5625 L124.880859,45.5625 L124.880859,44.5195312 L123.298828,44.5195312 L123.298828,44.0976562 C123.298828,43.7109375 123.370117,43.4208984 123.512695,43.2275391 C123.655273,43.0341797 123.882812,42.9375 124.195312,42.9375 C124.503906,42.9375 124.828125,42.9921875 125.167969,43.1015625 L125.167969,43.1015625 L125.53125,42.0585938 C125.0625,41.8984375 124.585938,41.8183594 124.101562,41.8183594 C123.363281,41.8183594 122.814453,42.0029297 122.455078,42.3720703 C122.095703,42.7412109 121.916016,43.3085938 121.916016,44.0742188 L121.916016,44.0742188 L121.916016,44.4960938 L120.849609,44.9179688 L120.849609,45.5625 L121.916016,45.5625 L121.916016,51 L123.298828,51 Z M127.359375,51 L127.359375,47.6132812 C127.359375,47.0390625 127.530273,46.5722656 127.87207,46.2128906 C128.213867,45.8535156 128.660156,45.6738281 129.210938,45.6738281 C129.421875,45.6738281 129.625,45.6972656 129.820312,45.7441406 L129.820312,45.7441406 L129.955078,44.4609375 C129.775391,44.421875 129.546875,44.4023438 129.269531,44.4023438 C128.871094,44.4023438 128.499023,44.515625 128.15332,44.7421875 C127.807617,44.96875 127.527344,45.2753906 127.3125,45.6621094 L127.3125,45.6621094 L127.242188,45.6621094 L127.060547,44.5195312 L125.982422,44.5195312 L125.982422,51 L127.359375,51 Z M133.822266,51.1171875 C134.791016,51.1171875 135.546875,50.8203125 136.089844,50.2265625 C136.632812,49.6328125 136.904297,48.8066406 136.904297,47.7480469 C136.904297,46.7246094 136.630859,45.9111328 136.083984,45.3076172 C135.537109,44.7041016 134.794922,44.4023438 133.857422,44.4023438 C132.876953,44.4023438 132.117188,44.6972656 131.578125,45.2871094 C131.039062,45.8769531 130.769531,46.6972656 130.769531,47.7480469 C130.769531,48.4238281 130.894531,49.0175781 131.144531,49.5292969 C131.394531,50.0410156 131.751953,50.4335938 132.216797,50.7070312 C132.681641,50.9804688 133.216797,51.1171875 133.822266,51.1171875 Z M133.845703,49.9921875 C132.740234,49.9921875 132.1875,49.2441406 132.1875,47.7480469 C132.1875,47.0332031 132.317383,46.484375 132.577148,46.1015625 C132.836914,45.71875 133.255859,45.5273438 133.833984,45.5273438 C134.935547,45.5273438 135.486328,46.2675781 135.486328,47.7480469 C135.486328,49.2441406 134.939453,49.9921875 133.845703,49.9921875 Z M139.863281,51 L139.863281,47.7714844 C139.863281,46.9667969 139.987305,46.3916016 140.235352,46.0458984 C140.483398,45.7001953 140.873047,45.5273438 141.404297,45.5273438 C141.802734,45.5273438 142.095703,45.6494141 142.283203,45.8935547 C142.470703,46.1376953 142.564453,46.5078125 142.564453,47.0039062 L142.564453,47.0039062 L142.564453,51 L143.947266,51 L143.947266,47.5664062 C143.947266,46.875 144.071289,46.3623047 144.319336,46.0283203 C144.567383,45.6943359 144.958984,45.5273438 145.494141,45.5273438 C145.892578,45.5273438 146.186523,45.6494141 146.375977,45.8935547 C146.56543,46.1376953 146.660156,46.5078125 146.660156,47.0039062 L146.660156,47.0039062 L146.660156,51 L148.037109,51 L148.037109,46.7753906 C148.037109,45.9746094 147.860352,45.3789062 147.506836,44.9882812 C147.15332,44.5976562 146.589844,44.4023438 145.816406,44.4023438 C145.367188,44.4023438 144.96875,44.4921875 144.621094,44.671875 C144.273438,44.8515625 144.003906,45.1015625 143.8125,45.421875 L143.8125,45.421875 L143.71875,45.421875 C143.394531,44.7421875 142.734375,44.4023438 141.738281,44.4023438 C141.328125,44.4023438 140.952148,44.4863281 140.610352,44.6542969 C140.268555,44.8222656 140.007812,45.0605469 139.828125,45.3691406 L139.828125,45.3691406 L139.757812,45.3691406 L139.564453,44.5195312 L138.486328,44.5195312 L138.486328,51 L139.863281,51 Z M92.5546875,63.1171875 C93.0507812,63.1171875 93.4570312,63.0458984 93.7734375,62.9033203 C94.0898438,62.7607422 94.4042969,62.4921875 94.7167969,62.0976562 L94.7167969,62.0976562 L94.7636719,62.0976562 L95.0390625,63 L96.0234375,63 L96.0234375,58.6347656 C96.0234375,57.8652344 95.8134766,57.3007812 95.3935547,56.9414062 C94.9736328,56.5820312 94.3515625,56.4023438 93.5273438,56.4023438 C93.15625,56.4023438 92.7617188,56.4501953 92.34375,56.5458984 C91.9257812,56.6416016 91.5410156,56.78125 91.1894531,56.9648438 L91.1894531,56.9648438 L91.6347656,57.9492188 C91.9160156,57.8164062 92.2089844,57.7011719 92.5136719,57.6035156 C92.8183594,57.5058594 93.1367188,57.4570312 93.46875,57.4570312 C93.875,57.4570312 94.1748047,57.5595703 94.3681641,57.7646484 C94.5615234,57.9697266 94.6582031,58.2792969 94.6582031,58.6933594 L94.6582031,58.6933594 L94.6582031,59.0390625 L93.5390625,59.0742188 C92.5234375,59.1054688 91.7675781,59.2910156 91.2714844,59.6308594 C90.7753906,59.9707031 90.5273438,60.4746094 90.5273438,61.1425781 C90.5273438,61.7714844 90.7060547,62.2578125 91.0634766,62.6015625 C91.4208984,62.9453125 91.9179688,63.1171875 92.5546875,63.1171875 Z M92.9882812,62.0625 C92.6445312,62.0625 92.3867188,61.9833984 92.2148438,61.8251953 C92.0429688,61.6669922 91.9570312,61.4433594 91.9570312,61.1542969 C91.9570312,60.7558594 92.1044922,60.4599609 92.3994141,60.2666016 C92.6943359,60.0732422 93.1660156,59.9648438 93.8144531,59.9414062 L93.8144531,59.9414062 L94.6464844,59.90625 L94.6464844,60.46875 C94.6464844,60.9726562 94.4951172,61.3642578 94.1923828,61.6435547 C93.8896484,61.9228516 93.4882812,62.0625 92.9882812,62.0625 Z M103.248047,63.1171875 C104.099609,63.1171875 104.746094,62.7949219 105.1875,62.1503906 L105.1875,62.1503906 L105.251953,62.1503906 L105.492188,63 L106.570312,63 L106.570312,53.8828125 L105.1875,53.8828125 L105.1875,56.2441406 C105.1875,56.5136719 105.220703,56.8808594 105.287109,57.3457031 L105.287109,57.3457031 L105.216797,57.3457031 C104.771484,56.7167969 104.123047,56.4023438 103.271484,56.4023438 C102.458984,56.4023438 101.823242,56.6982422 101.364258,57.2900391 C100.905273,57.8818359 100.675781,58.7089844 100.675781,59.7714844 C100.675781,60.8300781 100.902344,61.6523438 101.355469,62.2382812 C101.808594,62.8242188 102.439453,63.1171875 103.248047,63.1171875 Z M103.617188,62.0039062 C103.109375,62.0039062 102.728516,61.8154297 102.474609,61.4384766 C102.220703,61.0615234 102.09375,60.5136719 102.09375,59.7949219 C102.09375,59.0683594 102.224609,58.5087891 102.486328,58.1162109 C102.748047,57.7236328 103.121094,57.5273438 103.605469,57.5273438 C104.171875,57.5273438 104.587891,57.6992188 104.853516,58.0429688 C105.119141,58.3867188 105.251953,58.9667969 105.251953,59.7832031 L105.251953,59.7832031 L105.251953,59.9765625 C105.244141,60.6914062 105.111328,61.2080078 104.853516,61.5263672 C104.595703,61.8447266 104.183594,62.0039062 103.617188,62.0039062 Z M109.236328,55.5585938 C109.478516,55.5585938 109.666992,55.4912109 109.801758,55.3564453 C109.936523,55.2216797 110.003906,55.0371094 110.003906,54.8027344 C110.003906,54.5566406 109.936523,54.3671875 109.801758,54.234375 C109.666992,54.1015625 109.478516,54.0351562 109.236328,54.0351562 C108.986328,54.0351562 108.793945,54.1015625 108.65918,54.234375 C108.524414,54.3671875 108.457031,54.5566406 108.457031,54.8027344 C108.457031,55.0371094 108.524414,55.2216797 108.65918,55.3564453 C108.793945,55.4912109 108.986328,55.5585938 109.236328,55.5585938 Z M109.916016,63 L109.916016,56.5195312 L108.539062,56.5195312 L108.539062,63 L109.916016,63 Z M113.554688,63 L113.554688,57.5625 L115.136719,57.5625 L115.136719,56.5195312 L113.554688,56.5195312 L113.554688,56.0976562 C113.554688,55.7109375 113.625977,55.4208984 113.768555,55.2275391 C113.911133,55.0341797 114.138672,54.9375 114.451172,54.9375 C114.759766,54.9375 115.083984,54.9921875 115.423828,55.1015625 L115.423828,55.1015625 L115.787109,54.0585938 C115.318359,53.8984375 114.841797,53.8183594 114.357422,53.8183594 C113.619141,53.8183594 113.070312,54.0029297 112.710938,54.3720703 C112.351562,54.7412109 112.171875,55.3085938 112.171875,56.0742188 L112.171875,56.0742188 L112.171875,56.4960938 L111.105469,56.9179688 L111.105469,57.5625 L112.171875,57.5625 L112.171875,63 L113.554688,63 Z M117.908203,63 L117.908203,57.5625 L119.490234,57.5625 L119.490234,56.5195312 L117.908203,56.5195312 L117.908203,56.0976562 C117.908203,55.7109375 117.979492,55.4208984 118.12207,55.2275391 C118.264648,55.0341797 118.492188,54.9375 118.804688,54.9375 C119.113281,54.9375 119.4375,54.9921875 119.777344,55.1015625 L119.777344,55.1015625 L120.140625,54.0585938 C119.671875,53.8984375 119.195312,53.8183594 118.710938,53.8183594 C117.972656,53.8183594 117.423828,54.0029297 117.064453,54.3720703 C116.705078,54.7412109 116.525391,55.3085938 116.525391,56.0742188 L116.525391,56.0742188 L116.525391,56.4960938 L115.458984,56.9179688 L115.458984,57.5625 L116.525391,57.5625 L116.525391,63 L117.908203,63 Z M123.427734,63.1171875 C123.869141,63.1171875 124.261719,63.0839844 124.605469,63.0175781 C124.949219,62.9511719 125.289062,62.8378906 125.625,62.6777344 L125.625,62.6777344 L125.625,61.5585938 C125.246094,61.7265625 124.891602,61.8466797 124.561523,61.9189453 C124.231445,61.9912109 123.875,62.0273438 123.492188,62.0273438 C122.910156,62.0273438 122.458984,61.8583984 122.138672,61.5205078 C121.818359,61.1826172 121.648438,60.6992188 121.628906,60.0703125 L121.628906,60.0703125 L125.947266,60.0703125 L125.947266,59.3261719 C125.947266,58.4160156 125.699219,57.7011719 125.203125,57.1816406 C124.707031,56.6621094 124.03125,56.4023438 123.175781,56.4023438 C122.253906,56.4023438 121.529297,56.7050781 121.001953,57.3105469 C120.474609,57.9160156 120.210938,58.7480469 120.210938,59.8066406 C120.210938,60.8378906 120.495117,61.6474609 121.063477,62.2353516 C121.631836,62.8232422 122.419922,63.1171875 123.427734,63.1171875 Z M124.59375,59.0742188 L121.652344,59.0742188 C121.703125,58.5429688 121.860352,58.1386719 122.124023,57.8613281 C122.387695,57.5839844 122.738281,57.4453125 123.175781,57.4453125 C123.613281,57.4453125 123.957031,57.5830078 124.207031,57.8583984 C124.457031,58.1337891 124.585938,58.5390625 124.59375,59.0742188 L124.59375,59.0742188 Z M128.888672,63 L128.888672,59.6132812 C128.888672,59.0390625 129.05957,58.5722656 129.401367,58.2128906 C129.743164,57.8535156 130.189453,57.6738281 130.740234,57.6738281 C130.951172,57.6738281 131.154297,57.6972656 131.349609,57.7441406 L131.349609,57.7441406 L131.484375,56.4609375 C131.304688,56.421875 131.076172,56.4023438 130.798828,56.4023438 C130.400391,56.4023438 130.02832,56.515625 129.682617,56.7421875 C129.336914,56.96875 129.056641,57.2753906 128.841797,57.6621094 L128.841797,57.6621094 L128.771484,57.6621094 L128.589844,56.5195312 L127.511719,56.5195312 L127.511719,63 L128.888672,63 Z M135.515625,63.1171875 C135.957031,63.1171875 136.349609,63.0839844 136.693359,63.0175781 C137.037109,62.9511719 137.376953,62.8378906 137.712891,62.6777344 L137.712891,62.6777344 L137.712891,61.5585938 C137.333984,61.7265625 136.979492,61.8466797 136.649414,61.9189453 C136.319336,61.9912109 135.962891,62.0273438 135.580078,62.0273438 C134.998047,62.0273438 134.546875,61.8583984 134.226562,61.5205078 C133.90625,61.1826172 133.736328,60.6992188 133.716797,60.0703125 L133.716797,60.0703125 L138.035156,60.0703125 L138.035156,59.3261719 C138.035156,58.4160156 137.787109,57.7011719 137.291016,57.1816406 C136.794922,56.6621094 136.119141,56.4023438 135.263672,56.4023438 C134.341797,56.4023438 133.617188,56.7050781 133.089844,57.3105469 C132.5625,57.9160156 132.298828,58.7480469 132.298828,59.8066406 C132.298828,60.8378906 132.583008,61.6474609 133.151367,62.2353516 C133.719727,62.8232422 134.507812,63.1171875 135.515625,63.1171875 Z M136.681641,59.0742188 L133.740234,59.0742188 C133.791016,58.5429688 133.948242,58.1386719 134.211914,57.8613281 C134.475586,57.5839844 134.826172,57.4453125 135.263672,57.4453125 C135.701172,57.4453125 136.044922,57.5830078 136.294922,57.8583984 C136.544922,58.1337891 136.673828,58.5390625 136.681641,59.0742188 L136.681641,59.0742188 Z M140.976562,63 L140.976562,59.7714844 C140.976562,58.9628906 141.111328,58.3867188 141.380859,58.0429688 C141.650391,57.6992188 142.076172,57.5273438 142.658203,57.5273438 C143.095703,57.5273438 143.415039,57.6503906 143.616211,57.8964844 C143.817383,58.1425781 143.917969,58.515625 143.917969,59.015625 L143.917969,59.015625 L143.917969,63 L145.300781,63 L145.300781,58.7753906 C145.300781,57.1933594 144.523438,56.4023438 142.96875,56.4023438 C142.53125,56.4023438 142.132812,56.4863281 141.773438,56.6542969 C141.414062,56.8222656 141.136719,57.0605469 140.941406,57.3691406 L140.941406,57.3691406 L140.871094,57.3691406 L140.677734,56.5195312 L139.599609,56.5195312 L139.599609,63 L140.976562,63 Z M149.302734,63.1171875 C149.560547,63.1171875 149.80957,63.0947266 150.049805,63.0498047 C150.290039,63.0048828 150.486328,62.9492188 150.638672,62.8828125 L150.638672,62.8828125 L150.638672,61.8457031 C150.302734,61.9511719 149.966797,62.0039062 149.630859,62.0039062 C149.361328,62.0039062 149.143555,61.9248047 148.977539,61.7666016 C148.811523,61.6083984 148.728516,61.3632812 148.728516,61.03125 L148.728516,61.03125 L148.728516,57.5625 L150.574219,57.5625 L150.574219,56.5195312 L148.728516,56.5195312 L148.728516,55.078125 L147.878906,55.078125 L147.410156,56.4492188 L146.460938,56.953125 L146.460938,57.5625 L147.345703,57.5625 L147.345703,61.0546875 C147.345703,62.4296875 147.998047,63.1171875 149.302734,63.1171875 Z M92.3613281,77.8828125 L92.3613281,75.2285156 C92.3613281,75.1113281 92.3339844,74.7792969 92.2792969,74.2324219 L92.2792969,74.2324219 L92.3613281,74.2324219 C92.8144531,74.8222656 93.4511719,75.1171875 94.2714844,75.1171875 C95.0800781,75.1171875 95.7138672,74.8203125 96.1728516,74.2265625 C96.6318359,73.6328125 96.8613281,72.8066406 96.8613281,71.7480469 C96.8613281,70.6894531 96.6357422,69.8671875 96.1845703,69.28125 C95.7333984,68.6953125 95.1035156,68.4023438 94.2949219,68.4023438 C93.4355469,68.4023438 92.7910156,68.7304688 92.3613281,69.3867188 L92.3613281,69.3867188 L92.2910156,69.3867188 C92.1933594,68.9296875 92.1289062,68.640625 92.0976562,68.5195312 L92.0976562,68.5195312 L90.984375,68.5195312 L90.984375,77.8828125 L92.3613281,77.8828125 Z M93.9609375,73.9921875 C93.3945312,73.9921875 92.9863281,73.8154297 92.7363281,73.4619141 C92.4863281,73.1083984 92.3613281,72.5371094 92.3613281,71.7480469 L92.3613281,71.7480469 L92.3613281,71.5429688 C92.3613281,70.8398438 92.4873047,70.328125 92.7392578,70.0078125 C92.9912109,69.6875 93.390625,69.5273438 93.9375,69.5273438 C94.4335938,69.5273438 94.8095703,69.7138672 95.0654297,70.0869141 C95.3212891,70.4599609 95.4492188,71.0097656 95.4492188,71.7363281 C95.4492188,72.4589844 95.3203125,73.015625 95.0625,73.40625 C94.8046875,73.796875 94.4375,73.9921875 93.9609375,73.9921875 Z M101.126953,75.1171875 C102.095703,75.1171875 102.851562,74.8203125 103.394531,74.2265625 C103.9375,73.6328125 104.208984,72.8066406 104.208984,71.7480469 C104.208984,70.7246094 103.935547,69.9111328 103.388672,69.3076172 C102.841797,68.7041016 102.099609,68.4023438 101.162109,68.4023438 C100.181641,68.4023438 99.421875,68.6972656 98.8828125,69.2871094 C98.34375,69.8769531 98.0742188,70.6972656 98.0742188,71.7480469 C98.0742188,72.4238281 98.1992188,73.0175781 98.4492188,73.5292969 C98.6992188,74.0410156 99.0566406,74.4335938 99.5214844,74.7070312 C99.9863281,74.9804688 100.521484,75.1171875 101.126953,75.1171875 Z M101.150391,73.9921875 C100.044922,73.9921875 99.4921875,73.2441406 99.4921875,71.7480469 C99.4921875,71.0332031 99.6220703,70.484375 99.8818359,70.1015625 C100.141602,69.71875 100.560547,69.5273438 101.138672,69.5273438 C102.240234,69.5273438 102.791016,70.2675781 102.791016,71.7480469 C102.791016,73.2441406 102.244141,73.9921875 101.150391,73.9921875 Z M106.488281,67.5585938 C106.730469,67.5585938 106.918945,67.4912109 107.053711,67.3564453 C107.188477,67.2216797 107.255859,67.0371094 107.255859,66.8027344 C107.255859,66.5566406 107.188477,66.3671875 107.053711,66.234375 C106.918945,66.1015625 106.730469,66.0351562 106.488281,66.0351562 C106.238281,66.0351562 106.045898,66.1015625 105.911133,66.234375 C105.776367,66.3671875 105.708984,66.5566406 105.708984,66.8027344 C105.708984,67.0371094 105.776367,67.2216797 105.911133,67.3564453 C106.045898,67.4912109 106.238281,67.5585938 106.488281,67.5585938 Z M107.167969,75 L107.167969,68.5195312 L105.791016,68.5195312 L105.791016,75 L107.167969,75 Z M110.513672,75 L110.513672,71.7714844 C110.513672,70.9628906 110.648438,70.3867188 110.917969,70.0429688 C111.1875,69.6992188 111.613281,69.5273438 112.195312,69.5273438 C112.632812,69.5273438 112.952148,69.6503906 113.15332,69.8964844 C113.354492,70.1425781 113.455078,70.515625 113.455078,71.015625 L113.455078,71.015625 L113.455078,75 L114.837891,75 L114.837891,70.7753906 C114.837891,69.1933594 114.060547,68.4023438 112.505859,68.4023438 C112.068359,68.4023438 111.669922,68.4863281 111.310547,68.6542969 C110.951172,68.8222656 110.673828,69.0605469 110.478516,69.3691406 L110.478516,69.3691406 L110.408203,69.3691406 L110.214844,68.5195312 L109.136719,68.5195312 L109.136719,75 L110.513672,75 Z M118.839844,75.1171875 C119.097656,75.1171875 119.34668,75.0947266 119.586914,75.0498047 C119.827148,75.0048828 120.023438,74.9492188 120.175781,74.8828125 L120.175781,74.8828125 L120.175781,73.8457031 C119.839844,73.9511719 119.503906,74.0039062 119.167969,74.0039062 C118.898438,74.0039062 118.680664,73.9248047 118.514648,73.7666016 C118.348633,73.6083984 118.265625,73.3632812 118.265625,73.03125 L118.265625,73.03125 L118.265625,69.5625 L120.111328,69.5625 L120.111328,68.5195312 L118.265625,68.5195312 L118.265625,67.078125 L117.416016,67.078125 L116.947266,68.4492188 L115.998047,68.953125 L115.998047,69.5625 L116.882812,69.5625 L116.882812,73.0546875 C116.882812,74.4296875 117.535156,75.1171875 118.839844,75.1171875 Z M127.253906,75.1171875 C128.222656,75.1171875 128.978516,74.8203125 129.521484,74.2265625 C130.064453,73.6328125 130.335938,72.8066406 130.335938,71.7480469 C130.335938,70.7246094 130.0625,69.9111328 129.515625,69.3076172 C128.96875,68.7041016 128.226562,68.4023438 127.289062,68.4023438 C126.308594,68.4023438 125.548828,68.6972656 125.009766,69.2871094 C124.470703,69.8769531 124.201172,70.6972656 124.201172,71.7480469 C124.201172,72.4238281 124.326172,73.0175781 124.576172,73.5292969 C124.826172,74.0410156 125.183594,74.4335938 125.648438,74.7070312 C126.113281,74.9804688 126.648438,75.1171875 127.253906,75.1171875 Z M127.277344,73.9921875 C126.171875,73.9921875 125.619141,73.2441406 125.619141,71.7480469 C125.619141,71.0332031 125.749023,70.484375 126.008789,70.1015625 C126.268555,69.71875 126.6875,69.5273438 127.265625,69.5273438 C128.367188,69.5273438 128.917969,70.2675781 128.917969,71.7480469 C128.917969,73.2441406 128.371094,73.9921875 127.277344,73.9921875 Z M133.587891,75 L133.587891,69.5625 L135.169922,69.5625 L135.169922,68.5195312 L133.587891,68.5195312 L133.587891,68.0976562 C133.587891,67.7109375 133.65918,67.4208984 133.801758,67.2275391 C133.944336,67.0341797 134.171875,66.9375 134.484375,66.9375 C134.792969,66.9375 135.117188,66.9921875 135.457031,67.1015625 L135.457031,67.1015625 L135.820312,66.0585938 C135.351562,65.8984375 134.875,65.8183594 134.390625,65.8183594 C133.652344,65.8183594 133.103516,66.0029297 132.744141,66.3720703 C132.384766,66.7412109 132.205078,67.3085938 132.205078,68.0742188 L132.205078,68.0742188 L132.205078,68.4960938 L131.138672,68.9179688 L131.138672,69.5625 L132.205078,69.5625 L132.205078,75 L133.587891,75 Z M93.9492188,87 L96.421875,80.5195312 L94.9570312,80.5195312 L93.6386719,84.2871094 C93.4003906,85.0292969 93.2636719,85.5410156 93.2285156,85.8222656 L93.2285156,85.8222656 L93.1816406,85.8222656 C93.1347656,85.4316406 92.9980469,84.9199219 92.7714844,84.2871094 L92.7714844,84.2871094 L91.453125,80.5195312 L90,80.5195312 L92.4609375,87 L93.9492188,87 Z M98.1035156,79.5585938 C98.3457031,79.5585938 98.5341797,79.4912109 98.6689453,79.3564453 C98.8037109,79.2216797 98.8710938,79.0371094 98.8710938,78.8027344 C98.8710938,78.5566406 98.8037109,78.3671875 98.6689453,78.234375 C98.5341797,78.1015625 98.3457031,78.0351562 98.1035156,78.0351562 C97.8535156,78.0351562 97.6611328,78.1015625 97.5263672,78.234375 C97.3916016,78.3671875 97.3242188,78.5566406 97.3242188,78.8027344 C97.3242188,79.0371094 97.3916016,79.2216797 97.5263672,79.3564453 C97.6611328,79.4912109 97.8535156,79.5585938 98.1035156,79.5585938 Z M98.7832031,87 L98.7832031,80.5195312 L97.40625,80.5195312 L97.40625,87 L98.7832031,87 Z M103.582031,87.1171875 C104.023438,87.1171875 104.416016,87.0839844 104.759766,87.0175781 C105.103516,86.9511719 105.443359,86.8378906 105.779297,86.6777344 L105.779297,86.6777344 L105.779297,85.5585938 C105.400391,85.7265625 105.045898,85.8466797 104.71582,85.9189453 C104.385742,85.9912109 104.029297,86.0273438 103.646484,86.0273438 C103.064453,86.0273438 102.613281,85.8583984 102.292969,85.5205078 C101.972656,85.1826172 101.802734,84.6992188 101.783203,84.0703125 L101.783203,84.0703125 L106.101562,84.0703125 L106.101562,83.3261719 C106.101562,82.4160156 105.853516,81.7011719 105.357422,81.1816406 C104.861328,80.6621094 104.185547,80.4023438 103.330078,80.4023438 C102.408203,80.4023438 101.683594,80.7050781 101.15625,81.3105469 C100.628906,81.9160156 100.365234,82.7480469 100.365234,83.8066406 C100.365234,84.8378906 100.649414,85.6474609 101.217773,86.2353516 C101.786133,86.8232422 102.574219,87.1171875 103.582031,87.1171875 Z M104.748047,83.0742188 L101.806641,83.0742188 C101.857422,82.5429688 102.014648,82.1386719 102.27832,81.8613281 C102.541992,81.5839844 102.892578,81.4453125 103.330078,81.4453125 C103.767578,81.4453125 104.111328,81.5830078 104.361328,81.8583984 C104.611328,82.1337891 104.740234,82.5390625 104.748047,83.0742188 L104.748047,83.0742188 Z M110.138672,87 L111,83.9882812 C111.132812,83.546875 111.3125,82.7988281 111.539062,81.7441406 L111.539062,81.7441406 L111.591797,81.7441406 C111.857422,82.9121094 112.041016,83.65625 112.142578,83.9765625 L112.142578,83.9765625 L112.980469,87 L114.527344,87 L116.355469,80.5195312 L114.972656,80.5195312 L114.134766,83.7128906 C113.919922,84.5761719 113.783203,85.2480469 113.724609,85.7285156 L113.724609,85.7285156 L113.677734,85.7285156 C113.662109,85.5097656 113.610352,85.203125 113.522461,84.8085938 C113.43457,84.4140625 113.361328,84.1210938 113.302734,83.9296875 L113.302734,83.9296875 L112.347656,80.5195312 L110.835938,80.5195312 L109.851562,83.9296875 C109.792969,84.1132812 109.723633,84.3896484 109.643555,84.7587891 C109.563477,85.1279297 109.503906,85.4550781 109.464844,85.7402344 L109.464844,85.7402344 L109.429688,85.7402344 C109.351562,85.1777344 109.21875,84.5019531 109.03125,83.7128906 L109.03125,83.7128906 L108.205078,80.5195312 L106.798828,80.5195312 L108.615234,87 L110.138672,87 Z M118.130859,87.1699219 C118.412109,87.1699219 118.62793,87.0888672 118.77832,86.9267578 C118.928711,86.7646484 119.003906,86.5449219 119.003906,86.2675781 C119.003906,85.9941406 118.929688,85.7783203 118.78125,85.6201172 C118.632812,85.4619141 118.416016,85.3828125 118.130859,85.3828125 C117.849609,85.3828125 117.634766,85.4589844 117.486328,85.6113281 C117.337891,85.7636719 117.263672,85.9824219 117.263672,86.2675781 C117.263672,86.5488281 117.337891,86.7695312 117.486328,86.9296875 C117.634766,87.0898438 117.849609,87.1699219 118.130859,87.1699219 Z" id="Viewfromadiferentpointofview." fill="#FFFFFF" fill-rule="nonzero"></path>
                <polyline id="Line-2" stroke="#FFFFFF" stroke-width="4" stroke-linecap="square" points="2 30 20.4627861 30 161 30"></polyline>
            </g>
        </g>
    </g>
</svg>