<?xml version="1.0" encoding="UTF-8"?>
<svg width="163px" height="98px" viewBox="0 0 163 98" version="1.1" xmlns="http://www.w3.org/2000/svg" xmlns:xlink="http://www.w3.org/1999/xlink">
    <!-- Generator: Sketch 62 (91390) - https://sketch.com -->
    <title>Prepositions</title>
    <desc>Created with Sketch.</desc>
    <defs>
        <radialGradient cx="26.9203086%" cy="60.7926827%" fx="26.9203086%" fy="60.7926827%" r="48.1480443%" gradientTransform="translate(0.269203,0.607927),scale(0.595092,1.000000),rotate(143.900900),translate(-0.269203,-0.607927)" id="radialGradient-1">
            <stop stop-color="#FAD961" offset="0%"></stop>
            <stop stop-color="#F76B1C" offset="100%"></stop>
        </radialGradient>
        <path d="M4.21875,21 L4.21875,15.6582031 L5.703125,15.6582031 C7.50651042,15.6582031 8.89648438,15.2610677 9.87304688,14.4667969 C10.8496094,13.672526 11.3378906,12.5299479 11.3378906,11.0390625 C11.3378906,9.61979167 10.8935547,8.54557292 10.0048828,7.81640625 C9.11621094,7.08723958 7.77994792,6.72265625 5.99609375,6.72265625 L5.99609375,6.72265625 L1.88476562,6.72265625 L1.88476562,21 L4.21875,21 Z M5.45898438,13.6953125 L4.21875,13.6953125 L4.21875,8.67578125 L5.83984375,8.67578125 C6.90104167,8.67578125 7.68229167,8.87760417 8.18359375,9.28125 C8.68489583,9.68489583 8.93554688,10.296875 8.93554688,11.1171875 C8.93554688,12.0026042 8.65559896,12.6536458 8.09570312,13.0703125 C7.53580729,13.4869792 6.65690104,13.6953125 5.45898438,13.6953125 L5.45898438,13.6953125 Z M16.2402344,21 L16.2402344,15.3554688 C16.2402344,14.3984375 16.5250651,13.6204427 17.0947266,13.0214844 C17.664388,12.422526 18.4082031,12.1230469 19.3261719,12.1230469 C19.6777344,12.1230469 20.016276,12.1621094 20.3417969,12.2402344 L20.3417969,12.2402344 L20.5664062,10.1015625 C20.2669271,10.0364583 19.8860677,10.0039062 19.4238281,10.0039062 C18.7597656,10.0039062 18.1396484,10.1927083 17.5634766,10.5703125 C16.9873047,10.9479167 16.5201823,11.4589844 16.1621094,12.1035156 L16.1621094,12.1035156 L16.0449219,12.1035156 L15.7421875,10.1992188 L13.9453125,10.1992188 L13.9453125,21 L16.2402344,21 Z M27.2851562,21.1953125 C28.0208333,21.1953125 28.6751302,21.139974 29.2480469,21.0292969 C29.8209635,20.9186198 30.3873698,20.7298177 30.9472656,20.4628906 L30.9472656,20.4628906 L30.9472656,18.5976562 C30.3157552,18.8776042 29.7249349,19.0777995 29.1748047,19.1982422 C28.6246745,19.3186849 28.030599,19.3789062 27.3925781,19.3789062 C26.422526,19.3789062 25.6705729,19.0973307 25.1367188,18.5341797 C24.6028646,17.9710286 24.3196615,17.1653646 24.2871094,16.1171875 L24.2871094,16.1171875 L31.484375,16.1171875 L31.484375,14.8769531 C31.484375,13.360026 31.0709635,12.1686198 30.2441406,11.3027344 C29.4173177,10.436849 28.2910156,10.0039062 26.8652344,10.0039062 C25.328776,10.0039062 24.1210938,10.5084635 23.2421875,11.5175781 C22.3632812,12.5266927 21.9238281,13.9134115 21.9238281,15.6777344 C21.9238281,17.3964844 22.3974609,18.7457682 23.3447266,19.7255859 C24.2919922,20.7054036 25.6054688,21.1953125 27.2851562,21.1953125 Z M29.2285156,14.4570312 L24.3261719,14.4570312 C24.4108073,13.5716146 24.6728516,12.8977865 25.1123047,12.4355469 C25.5517578,11.9733073 26.1360677,11.7421875 26.8652344,11.7421875 C27.594401,11.7421875 28.1673177,11.9716797 28.5839844,12.4306641 C29.000651,12.8896484 29.2154948,13.5651042 29.2285156,14.4570312 L29.2285156,14.4570312 Z M36.3867188,25.8046875 L36.3867188,21.3808594 C36.3867188,21.1855469 36.3411458,20.6321615 36.25,19.7207031 L36.25,19.7207031 L36.3867188,19.7207031 C37.1419271,20.703776 38.203125,21.1953125 39.5703125,21.1953125 C40.9179688,21.1953125 41.9742839,20.7005208 42.7392578,19.7109375 C43.5042318,18.7213542 43.8867188,17.344401 43.8867188,15.5800781 C43.8867188,13.8157552 43.5107422,12.4453125 42.7587891,11.46875 C42.0068359,10.4921875 40.9570312,10.0039062 39.609375,10.0039062 C38.1770833,10.0039062 37.1028646,10.5507812 36.3867188,11.6445312 L36.3867188,11.6445312 L36.2695312,11.6445312 C36.1067708,10.8828125 35.999349,10.4010417 35.9472656,10.1992188 L35.9472656,10.1992188 L34.0917969,10.1992188 L34.0917969,25.8046875 L36.3867188,25.8046875 Z M39.0527344,19.3203125 C38.108724,19.3203125 37.4283854,19.0257161 37.0117188,18.4365234 C36.5950521,17.8473307 36.3867188,16.8951823 36.3867188,15.5800781 L36.3867188,15.5800781 L36.3867188,15.2382812 C36.3867188,14.0664062 36.5966797,13.2135417 37.0166016,12.6796875 C37.4365234,12.1458333 38.1022135,11.8789062 39.0136719,11.8789062 C39.8404948,11.8789062 40.4671224,12.1897786 40.8935547,12.8115234 C41.319987,13.4332682 41.5332031,14.3496094 41.5332031,15.5605469 C41.5332031,16.764974 41.3183594,17.6927083 40.8886719,18.34375 C40.4589844,18.9947917 39.8470052,19.3203125 39.0527344,19.3203125 Z M50.9960938,21.1953125 C52.6106771,21.1953125 53.8704427,20.7005208 54.7753906,19.7109375 C55.6803385,18.7213542 56.1328125,17.344401 56.1328125,15.5800781 C56.1328125,13.874349 55.6770833,12.5185547 54.765625,11.5126953 C53.8541667,10.5068359 52.6171875,10.0039062 51.0546875,10.0039062 C49.4205729,10.0039062 48.1542969,10.4954427 47.2558594,11.4785156 C46.3574219,12.4615885 45.9082031,13.828776 45.9082031,15.5800781 C45.9082031,16.7063802 46.1165365,17.6959635 46.5332031,18.5488281 C46.9498698,19.4016927 47.5455729,20.0559896 48.3203125,20.5117188 C49.0950521,20.9674479 49.9869792,21.1953125 50.9960938,21.1953125 Z M51.0351562,19.3203125 C49.1927083,19.3203125 48.2714844,18.0735677 48.2714844,15.5800781 C48.2714844,14.3886719 48.4879557,13.4739583 48.9208984,12.8359375 C49.3538411,12.1979167 50.0520833,11.8789062 51.015625,11.8789062 C52.8515625,11.8789062 53.7695312,13.1126302 53.7695312,15.5800781 C53.7695312,18.0735677 52.8580729,19.3203125 51.0351562,19.3203125 Z M61.5722656,21.1953125 C63.0045573,21.1953125 64.1048177,20.913737 64.8730469,20.3505859 C65.641276,19.7874349 66.0253906,18.9785156 66.0253906,17.9238281 C66.0253906,17.4029948 65.9277344,16.9554036 65.7324219,16.5810547 C65.5371094,16.2067057 65.2376302,15.8763021 64.8339844,15.5898438 C64.4303385,15.3033854 63.7825521,14.9876302 62.890625,14.6425781 C61.8294271,14.2324219 61.1409505,13.9101562 60.8251953,13.6757812 C60.5094401,13.4414062 60.3515625,13.1549479 60.3515625,12.8164062 C60.3515625,12.1263021 60.9570312,11.78125 62.1679688,11.78125 C62.9622396,11.78125 63.9420573,12.0221354 65.1074219,12.5039062 L65.1074219,12.5039062 L65.8496094,10.7753906 C64.7167969,10.2610677 63.515625,10.0039062 62.2460938,10.0039062 C60.9635417,10.0039062 59.9495443,10.2594401 59.2041016,10.7705078 C58.4586589,11.2815755 58.0859375,11.999349 58.0859375,12.9238281 C58.0859375,13.6920573 58.3056641,14.3170573 58.7451172,14.7988281 C59.1845703,15.280599 60.0260417,15.7623698 61.2695312,16.2441406 C61.9075521,16.4915365 62.405599,16.7128906 62.7636719,16.9082031 C63.1217448,17.1035156 63.3789062,17.2923177 63.5351562,17.4746094 C63.6914062,17.656901 63.7695312,17.8847656 63.7695312,18.1582031 C63.7695312,19.0110677 63.063151,19.4375 61.6503906,19.4375 C60.5566406,19.4375 59.375,19.1445312 58.1054688,18.5585938 L58.1054688,18.5585938 L58.1054688,20.5410156 C58.9778646,20.9772135 60.1334635,21.1953125 61.5722656,21.1953125 Z M69.6679688,8.59765625 C70.0716146,8.59765625 70.3857422,8.48535156 70.6103516,8.26074219 C70.8349609,8.03613281 70.9472656,7.72851562 70.9472656,7.33789062 C70.9472656,6.92773438 70.8349609,6.61197917 70.6103516,6.390625 C70.3857422,6.16927083 70.0716146,6.05859375 69.6679688,6.05859375 C69.2513021,6.05859375 68.9306641,6.16927083 68.7060547,6.390625 C68.4814453,6.61197917 68.3691406,6.92773438 68.3691406,7.33789062 C68.3691406,7.72851562 68.4814453,8.03613281 68.7060547,8.26074219 C68.9306641,8.48535156 69.2513021,8.59765625 69.6679688,8.59765625 Z M70.8007812,21 L70.8007812,10.1992188 L68.5058594,10.1992188 L68.5058594,21 L70.8007812,21 Z M77.5585938,21.1953125 C77.9882812,21.1953125 78.4033203,21.1578776 78.8037109,21.0830078 C79.2041016,21.008138 79.53125,20.9153646 79.7851562,20.8046875 L79.7851562,20.8046875 L79.7851562,19.0761719 C79.2252604,19.2519531 78.6653646,19.3398438 78.1054688,19.3398438 C77.65625,19.3398438 77.2932943,19.2080078 77.0166016,18.9443359 C76.7399089,18.6806641 76.6015625,18.2721354 76.6015625,17.71875 L76.6015625,17.71875 L76.6015625,11.9375 L79.6777344,11.9375 L79.6777344,10.1992188 L76.6015625,10.1992188 L76.6015625,7.796875 L75.1855469,7.796875 L74.4042969,10.0820312 L72.8222656,10.921875 L72.8222656,11.9375 L74.296875,11.9375 L74.296875,17.7578125 C74.296875,20.0494792 75.3841146,21.1953125 77.5585938,21.1953125 Z M83.1054688,8.59765625 C83.5091146,8.59765625 83.8232422,8.48535156 84.0478516,8.26074219 C84.2724609,8.03613281 84.3847656,7.72851562 84.3847656,7.33789062 C84.3847656,6.92773438 84.2724609,6.61197917 84.0478516,6.390625 C83.8232422,6.16927083 83.5091146,6.05859375 83.1054688,6.05859375 C82.6888021,6.05859375 82.3681641,6.16927083 82.1435547,6.390625 C81.9189453,6.61197917 81.8066406,6.92773438 81.8066406,7.33789062 C81.8066406,7.72851562 81.9189453,8.03613281 82.1435547,8.26074219 C82.3681641,8.48535156 82.6888021,8.59765625 83.1054688,8.59765625 Z M84.2382812,21 L84.2382812,10.1992188 L81.9433594,10.1992188 L81.9433594,21 L84.2382812,21 Z M91.9628906,21.1953125 C93.577474,21.1953125 94.8372396,20.7005208 95.7421875,19.7109375 C96.6471354,18.7213542 97.0996094,17.344401 97.0996094,15.5800781 C97.0996094,13.874349 96.6438802,12.5185547 95.7324219,11.5126953 C94.8209635,10.5068359 93.5839844,10.0039062 92.0214844,10.0039062 C90.3873698,10.0039062 89.1210938,10.4954427 88.2226562,11.4785156 C87.3242188,12.4615885 86.875,13.828776 86.875,15.5800781 C86.875,16.7063802 87.0833333,17.6959635 87.5,18.5488281 C87.9166667,19.4016927 88.5123698,20.0559896 89.2871094,20.5117188 C90.061849,20.9674479 90.953776,21.1953125 91.9628906,21.1953125 Z M92.0019531,19.3203125 C90.1595052,19.3203125 89.2382812,18.0735677 89.2382812,15.5800781 C89.2382812,14.3886719 89.4547526,13.4739583 89.8876953,12.8359375 C90.320638,12.1979167 91.0188802,11.8789062 91.9824219,11.8789062 C93.8183594,11.8789062 94.7363281,13.1126302 94.7363281,15.5800781 C94.7363281,18.0735677 93.8248698,19.3203125 92.0019531,19.3203125 Z M102.03125,21 L102.03125,15.6191406 C102.03125,14.2714844 102.255859,13.3111979 102.705078,12.7382812 C103.154297,12.1653646 103.863932,11.8789062 104.833984,11.8789062 C105.563151,11.8789062 106.095378,12.0839844 106.430664,12.4941406 C106.765951,12.9042969 106.933594,13.5260417 106.933594,14.359375 L106.933594,14.359375 L106.933594,21 L109.238281,21 L109.238281,13.9589844 C109.238281,11.3222656 107.942708,10.0039062 105.351562,10.0039062 C104.622396,10.0039062 103.958333,10.1438802 103.359375,10.4238281 C102.760417,10.703776 102.298177,11.1009115 101.972656,11.6152344 L101.972656,11.6152344 L101.855469,11.6152344 L101.533203,10.1992188 L99.7363281,10.1992188 L99.7363281,21 L102.03125,21 Z M115.234375,21.1953125 C116.666667,21.1953125 117.766927,20.913737 118.535156,20.3505859 C119.303385,19.7874349 119.6875,18.9785156 119.6875,17.9238281 C119.6875,17.4029948 119.589844,16.9554036 119.394531,16.5810547 C119.199219,16.2067057 118.89974,15.8763021 118.496094,15.5898438 C118.092448,15.3033854 117.444661,14.9876302 116.552734,14.6425781 C115.491536,14.2324219 114.80306,13.9101562 114.487305,13.6757812 C114.171549,13.4414062 114.013672,13.1549479 114.013672,12.8164062 C114.013672,12.1263021 114.619141,11.78125 115.830078,11.78125 C116.624349,11.78125 117.604167,12.0221354 118.769531,12.5039062 L118.769531,12.5039062 L119.511719,10.7753906 C118.378906,10.2610677 117.177734,10.0039062 115.908203,10.0039062 C114.625651,10.0039062 113.611654,10.2594401 112.866211,10.7705078 C112.120768,11.2815755 111.748047,11.999349 111.748047,12.9238281 C111.748047,13.6920573 111.967773,14.3170573 112.407227,14.7988281 C112.84668,15.280599 113.688151,15.7623698 114.931641,16.2441406 C115.569661,16.4915365 116.067708,16.7128906 116.425781,16.9082031 C116.783854,17.1035156 117.041016,17.2923177 117.197266,17.4746094 C117.353516,17.656901 117.431641,17.8847656 117.431641,18.1582031 C117.431641,19.0110677 116.72526,19.4375 115.3125,19.4375 C114.21875,19.4375 113.037109,19.1445312 111.767578,18.5585938 L111.767578,18.5585938 L111.767578,20.5410156 C112.639974,20.9772135 113.795573,21.1953125 115.234375,21.1953125 Z" id="path-2"></path>
    </defs>
    <g id="Symbols" stroke="none" stroke-width="1" fill="none" fill-rule="evenodd">
        <g id="i/Prepositions">
            <g id="Prepositions">
                <g id="Group-22">
                    <g id="Group-21">
                        <line x1="79" y1="43" x2="79" y2="88.7428943" id="Line-3" stroke="#FFFFFF" stroke-width="2" stroke-linecap="square"></line>
                        <g id="Identify" fill="url(#radialGradient-1)" fill-rule="nonzero">
                            <g id="Group-5">
                                <g id="Group-2">
                                    <g id="Group-3" transform="translate(0.000000, 0.600000)">
                                        <path d="M6,0 L157,0 C160.313708,-6.08718376e-16 163,2.6862915 163,6 L163,91 C163,94.3137085 160.313708,97 157,97 L6,97 C2.6862915,97 4.05812251e-16,94.3137085 0,91 L0,6 C-4.05812251e-16,2.6862915 2.6862915,6.08718376e-16 6,0 Z" id="Rectangle-2"></path>
                                    </g>
                                </g>
                            </g>
                        </g>
                        <line x1="2" y1="32.25" x2="161" y2="32.25" id="Line-2" stroke="#FFFFFF" stroke-width="4" stroke-linecap="square"></line>
                        <line x1="82" y1="42" x2="82" y2="87.7428943" id="Line-3" stroke="#FFFFFF" stroke-width="2" stroke-linecap="square"></line>
                        <path d="M94.8261719,51 L96.2441406,45.9140625 C96.3027344,45.71875 96.3759766,45.421875 96.4638672,45.0234375 C96.5517578,44.625 96.6152344,44.3007812 96.6542969,44.0507812 C96.6738281,44.2148438 96.7304688,44.5068359 96.8242188,44.9267578 C96.9179688,45.3466797 96.9960938,45.6679688 97.0585938,45.890625 L97.0585938,45.890625 L98.5117188,51 L100.035156,51 L102.267578,42.4335938 L100.849609,42.4335938 L99.6308594,47.4140625 C99.4082031,48.2773438 99.2675781,48.9882812 99.2089844,49.546875 C99.0566406,48.6210938 98.9121094,47.9257812 98.7753906,47.4609375 L98.7753906,47.4609375 L97.3457031,42.4335938 L95.9570312,42.4335938 L94.5625,47.4375 C94.4921875,47.6914062 94.4140625,48.0234375 94.328125,48.4335938 C94.2421875,48.84375 94.1777344,49.2148438 94.1347656,49.546875 C94.0527344,48.9335938 93.9160156,48.2265625 93.7246094,47.4257812 L93.7246094,47.4257812 L92.5,42.4335938 L91.0703125,42.4335938 L92.1953125,46.7109375 L93.3027344,51 L94.8261719,51 Z M104.710938,51 L104.710938,47.7832031 C104.710938,46.9707031 104.84668,46.3916016 105.118164,46.0458984 C105.389648,45.7001953 105.814453,45.5273438 106.392578,45.5273438 C106.830078,45.5273438 107.149414,45.6503906 107.350586,45.8964844 C107.551758,46.1425781 107.652344,46.515625 107.652344,47.015625 L107.652344,47.015625 L107.652344,51 L109.035156,51 L109.035156,46.7753906 C109.035156,45.1933594 108.25,44.4023438 106.679688,44.4023438 C106.234375,44.4023438 105.844727,44.4882812 105.510742,44.6601562 C105.176758,44.8320312 104.916016,45.0742188 104.728516,45.3867188 L104.728516,45.3867188 L104.640625,45.3867188 C104.6875,44.9648438 104.710938,44.5683594 104.710938,44.1972656 L104.710938,44.1972656 L104.710938,41.8828125 L103.333984,41.8828125 L103.333984,51 L104.710938,51 Z M113.78125,51.1171875 C114.222656,51.1171875 114.615234,51.0839844 114.958984,51.0175781 C115.302734,50.9511719 115.642578,50.8378906 115.978516,50.6777344 L115.978516,50.6777344 L115.978516,49.5585938 C115.599609,49.7265625 115.245117,49.8466797 114.915039,49.9189453 C114.584961,49.9912109 114.228516,50.0273438 113.845703,50.0273438 C113.263672,50.0273438 112.8125,49.8583984 112.492188,49.5205078 C112.171875,49.1826172 112.001953,48.6992188 111.982422,48.0703125 L111.982422,48.0703125 L116.300781,48.0703125 L116.300781,47.3261719 C116.300781,46.4160156 116.052734,45.7011719 115.556641,45.1816406 C115.060547,44.6621094 114.384766,44.4023438 113.529297,44.4023438 C112.607422,44.4023438 111.882812,44.7050781 111.355469,45.3105469 C110.828125,45.9160156 110.564453,46.7480469 110.564453,47.8066406 C110.564453,48.8378906 110.848633,49.6474609 111.416992,50.2353516 C111.985352,50.8232422 112.773438,51.1171875 113.78125,51.1171875 Z M114.947266,47.0742188 L112.005859,47.0742188 C112.056641,46.5429688 112.213867,46.1386719 112.477539,45.8613281 C112.741211,45.5839844 113.091797,45.4453125 113.529297,45.4453125 C113.966797,45.4453125 114.310547,45.5830078 114.560547,45.8583984 C114.810547,46.1337891 114.939453,46.5390625 114.947266,47.0742188 L114.947266,47.0742188 Z M119.242188,51 L119.242188,47.6132812 C119.242188,47.0390625 119.413086,46.5722656 119.754883,46.2128906 C120.09668,45.8535156 120.542969,45.6738281 121.09375,45.6738281 C121.304688,45.6738281 121.507812,45.6972656 121.703125,45.7441406 L121.703125,45.7441406 L121.837891,44.4609375 C121.658203,44.421875 121.429688,44.4023438 121.152344,44.4023438 C120.753906,44.4023438 120.381836,44.515625 120.036133,44.7421875 C119.69043,44.96875 119.410156,45.2753906 119.195312,45.6621094 L119.195312,45.6621094 L119.125,45.6621094 L118.943359,44.5195312 L117.865234,44.5195312 L117.865234,51 L119.242188,51 Z M125.869141,51.1171875 C126.310547,51.1171875 126.703125,51.0839844 127.046875,51.0175781 C127.390625,50.9511719 127.730469,50.8378906 128.066406,50.6777344 L128.066406,50.6777344 L128.066406,49.5585938 C127.6875,49.7265625 127.333008,49.8466797 127.00293,49.9189453 C126.672852,49.9912109 126.316406,50.0273438 125.933594,50.0273438 C125.351562,50.0273438 124.900391,49.8583984 124.580078,49.5205078 C124.259766,49.1826172 124.089844,48.6992188 124.070312,48.0703125 L124.070312,48.0703125 L128.388672,48.0703125 L128.388672,47.3261719 C128.388672,46.4160156 128.140625,45.7011719 127.644531,45.1816406 C127.148438,44.6621094 126.472656,44.4023438 125.617188,44.4023438 C124.695312,44.4023438 123.970703,44.7050781 123.443359,45.3105469 C122.916016,45.9160156 122.652344,46.7480469 122.652344,47.8066406 C122.652344,48.8378906 122.936523,49.6474609 123.504883,50.2353516 C124.073242,50.8232422 124.861328,51.1171875 125.869141,51.1171875 Z M127.035156,47.0742188 L124.09375,47.0742188 C124.144531,46.5429688 124.301758,46.1386719 124.56543,45.8613281 C124.829102,45.5839844 125.179688,45.4453125 125.617188,45.4453125 C126.054688,45.4453125 126.398438,45.5830078 126.648438,45.8583984 C126.898438,46.1337891 127.027344,46.5390625 127.035156,47.0742188 L127.035156,47.0742188 Z M135.736328,51.1171875 C136.705078,51.1171875 137.460938,50.8203125 138.003906,50.2265625 C138.546875,49.6328125 138.818359,48.8066406 138.818359,47.7480469 C138.818359,46.7246094 138.544922,45.9111328 137.998047,45.3076172 C137.451172,44.7041016 136.708984,44.4023438 135.771484,44.4023438 C134.791016,44.4023438 134.03125,44.6972656 133.492188,45.2871094 C132.953125,45.8769531 132.683594,46.6972656 132.683594,47.7480469 C132.683594,48.4238281 132.808594,49.0175781 133.058594,49.5292969 C133.308594,50.0410156 133.666016,50.4335938 134.130859,50.7070312 C134.595703,50.9804688 135.130859,51.1171875 135.736328,51.1171875 Z M135.759766,49.9921875 C134.654297,49.9921875 134.101562,49.2441406 134.101562,47.7480469 C134.101562,47.0332031 134.231445,46.484375 134.491211,46.1015625 C134.750977,45.71875 135.169922,45.5273438 135.748047,45.5273438 C136.849609,45.5273438 137.400391,46.2675781 137.400391,47.7480469 C137.400391,49.2441406 136.853516,49.9921875 135.759766,49.9921875 Z M141.777344,51 L141.777344,47.6132812 C141.777344,47.0390625 141.948242,46.5722656 142.290039,46.2128906 C142.631836,45.8535156 143.078125,45.6738281 143.628906,45.6738281 C143.839844,45.6738281 144.042969,45.6972656 144.238281,45.7441406 L144.238281,45.7441406 L144.373047,44.4609375 C144.193359,44.421875 143.964844,44.4023438 143.6875,44.4023438 C143.289062,44.4023438 142.916992,44.515625 142.571289,44.7421875 C142.225586,44.96875 141.945312,45.2753906 141.730469,45.6621094 L141.730469,45.6621094 L141.660156,45.6621094 L141.478516,44.5195312 L140.400391,44.5195312 L140.400391,51 L141.777344,51 Z M94.4570312,63 L95.3183594,59.9882812 C95.4511719,59.546875 95.6308594,58.7988281 95.8574219,57.7441406 L95.8574219,57.7441406 L95.9101562,57.7441406 C96.1757812,58.9121094 96.359375,59.65625 96.4609375,59.9765625 L96.4609375,59.9765625 L97.2988281,63 L98.8457031,63 L100.673828,56.5195312 L99.2910156,56.5195312 L98.453125,59.7128906 C98.2382812,60.5761719 98.1015625,61.2480469 98.0429688,61.7285156 L98.0429688,61.7285156 L97.9960938,61.7285156 C97.9804688,61.5097656 97.9287109,61.203125 97.8408203,60.8085938 C97.7529297,60.4140625 97.6796875,60.1210938 97.6210938,59.9296875 L97.6210938,59.9296875 L96.6660156,56.5195312 L95.1542969,56.5195312 L94.1699219,59.9296875 C94.1113281,60.1132812 94.0419922,60.3896484 93.9619141,60.7587891 C93.8818359,61.1279297 93.8222656,61.4550781 93.7832031,61.7402344 L93.7832031,61.7402344 L93.7480469,61.7402344 C93.6699219,61.1777344 93.5371094,60.5019531 93.3496094,59.7128906 L93.3496094,59.7128906 L92.5234375,56.5195312 L91.1171875,56.5195312 L92.9335938,63 L94.4570312,63 Z M103.164062,63 L103.164062,59.7832031 C103.164062,58.9707031 103.299805,58.3916016 103.571289,58.0458984 C103.842773,57.7001953 104.267578,57.5273438 104.845703,57.5273438 C105.283203,57.5273438 105.602539,57.6503906 105.803711,57.8964844 C106.004883,58.1425781 106.105469,58.515625 106.105469,59.015625 L106.105469,59.015625 L106.105469,63 L107.488281,63 L107.488281,58.7753906 C107.488281,57.1933594 106.703125,56.4023438 105.132812,56.4023438 C104.6875,56.4023438 104.297852,56.4882812 103.963867,56.6601562 C103.629883,56.8320312 103.369141,57.0742188 103.181641,57.3867188 L103.181641,57.3867188 L103.09375,57.3867188 C103.140625,56.9648438 103.164062,56.5683594 103.164062,56.1972656 L103.164062,56.1972656 L103.164062,53.8828125 L101.787109,53.8828125 L101.787109,63 L103.164062,63 Z M112.234375,63.1171875 C112.675781,63.1171875 113.068359,63.0839844 113.412109,63.0175781 C113.755859,62.9511719 114.095703,62.8378906 114.431641,62.6777344 L114.431641,62.6777344 L114.431641,61.5585938 C114.052734,61.7265625 113.698242,61.8466797 113.368164,61.9189453 C113.038086,61.9912109 112.681641,62.0273438 112.298828,62.0273438 C111.716797,62.0273438 111.265625,61.8583984 110.945312,61.5205078 C110.625,61.1826172 110.455078,60.6992188 110.435547,60.0703125 L110.435547,60.0703125 L114.753906,60.0703125 L114.753906,59.3261719 C114.753906,58.4160156 114.505859,57.7011719 114.009766,57.1816406 C113.513672,56.6621094 112.837891,56.4023438 111.982422,56.4023438 C111.060547,56.4023438 110.335938,56.7050781 109.808594,57.3105469 C109.28125,57.9160156 109.017578,58.7480469 109.017578,59.8066406 C109.017578,60.8378906 109.301758,61.6474609 109.870117,62.2353516 C110.438477,62.8232422 111.226562,63.1171875 112.234375,63.1171875 Z M113.400391,59.0742188 L110.458984,59.0742188 C110.509766,58.5429688 110.666992,58.1386719 110.930664,57.8613281 C111.194336,57.5839844 111.544922,57.4453125 111.982422,57.4453125 C112.419922,57.4453125 112.763672,57.5830078 113.013672,57.8583984 C113.263672,58.1337891 113.392578,58.5390625 113.400391,59.0742188 L113.400391,59.0742188 Z M117.695312,63 L117.695312,59.7714844 C117.695312,58.9628906 117.830078,58.3867188 118.099609,58.0429688 C118.369141,57.6992188 118.794922,57.5273438 119.376953,57.5273438 C119.814453,57.5273438 120.133789,57.6503906 120.334961,57.8964844 C120.536133,58.1425781 120.636719,58.515625 120.636719,59.015625 L120.636719,59.015625 L120.636719,63 L122.019531,63 L122.019531,58.7753906 C122.019531,57.1933594 121.242188,56.4023438 119.6875,56.4023438 C119.25,56.4023438 118.851562,56.4863281 118.492188,56.6542969 C118.132812,56.8222656 117.855469,57.0605469 117.660156,57.3691406 L117.660156,57.3691406 L117.589844,57.3691406 L117.396484,56.5195312 L116.318359,56.5195312 L116.318359,63 L117.695312,63 Z M93.6660156,75.1171875 C94.5253906,75.1171875 95.1855469,74.9482422 95.6464844,74.6103516 C96.1074219,74.2724609 96.3378906,73.7871094 96.3378906,73.1542969 C96.3378906,72.8417969 96.2792969,72.5732422 96.1621094,72.3486328 C96.0449219,72.1240234 95.8652344,71.9257812 95.6230469,71.7539062 C95.3808594,71.5820312 94.9921875,71.3925781 94.4570312,71.1855469 C93.8203125,70.9394531 93.4072266,70.7460938 93.2177734,70.6054688 C93.0283203,70.4648438 92.9335938,70.2929688 92.9335938,70.0898438 C92.9335938,69.6757812 93.296875,69.46875 94.0234375,69.46875 C94.5,69.46875 95.0878906,69.6132812 95.7871094,69.9023438 L95.7871094,69.9023438 L96.2324219,68.8652344 C95.5527344,68.5566406 94.8320312,68.4023438 94.0703125,68.4023438 C93.3007812,68.4023438 92.6923828,68.5556641 92.2451172,68.8623047 C91.7978516,69.1689453 91.5742188,69.5996094 91.5742188,70.1542969 C91.5742188,70.6152344 91.7060547,70.9902344 91.9697266,71.2792969 C92.2333984,71.5683594 92.7382812,71.8574219 93.484375,72.1464844 C93.8671875,72.2949219 94.1660156,72.4277344 94.3808594,72.5449219 C94.5957031,72.6621094 94.75,72.7753906 94.84375,72.8847656 C94.9375,72.9941406 94.984375,73.1308594 94.984375,73.2949219 C94.984375,73.8066406 94.5605469,74.0625 93.7128906,74.0625 C93.0566406,74.0625 92.3476562,73.8867188 91.5859375,73.5351562 L91.5859375,73.5351562 L91.5859375,74.7246094 C92.109375,74.9863281 92.8027344,75.1171875 93.6660156,75.1171875 Z M100.492188,75.1171875 C101.460938,75.1171875 102.216797,74.8203125 102.759766,74.2265625 C103.302734,73.6328125 103.574219,72.8066406 103.574219,71.7480469 C103.574219,70.7246094 103.300781,69.9111328 102.753906,69.3076172 C102.207031,68.7041016 101.464844,68.4023438 100.527344,68.4023438 C99.546875,68.4023438 98.7871094,68.6972656 98.2480469,69.2871094 C97.7089844,69.8769531 97.4394531,70.6972656 97.4394531,71.7480469 C97.4394531,72.4238281 97.5644531,73.0175781 97.8144531,73.5292969 C98.0644531,74.0410156 98.421875,74.4335938 98.8867188,74.7070312 C99.3515625,74.9804688 99.8867188,75.1171875 100.492188,75.1171875 Z M100.515625,73.9921875 C99.4101562,73.9921875 98.8574219,73.2441406 98.8574219,71.7480469 C98.8574219,71.0332031 98.9873047,70.484375 99.2470703,70.1015625 C99.5068359,69.71875 99.9257812,69.5273438 100.503906,69.5273438 C101.605469,69.5273438 102.15625,70.2675781 102.15625,71.7480469 C102.15625,73.2441406 101.609375,73.9921875 100.515625,73.9921875 Z M106.533203,75 L106.533203,71.7714844 C106.533203,70.9667969 106.657227,70.3916016 106.905273,70.0458984 C107.15332,69.7001953 107.542969,69.5273438 108.074219,69.5273438 C108.472656,69.5273438 108.765625,69.6494141 108.953125,69.8935547 C109.140625,70.1376953 109.234375,70.5078125 109.234375,71.0039062 L109.234375,71.0039062 L109.234375,75 L110.617188,75 L110.617188,71.5664062 C110.617188,70.875 110.741211,70.3623047 110.989258,70.0283203 C111.237305,69.6943359 111.628906,69.5273438 112.164062,69.5273438 C112.5625,69.5273438 112.856445,69.6494141 113.045898,69.8935547 C113.235352,70.1376953 113.330078,70.5078125 113.330078,71.0039062 L113.330078,71.0039062 L113.330078,75 L114.707031,75 L114.707031,70.7753906 C114.707031,69.9746094 114.530273,69.3789062 114.176758,68.9882812 C113.823242,68.5976562 113.259766,68.4023438 112.486328,68.4023438 C112.037109,68.4023438 111.638672,68.4921875 111.291016,68.671875 C110.943359,68.8515625 110.673828,69.1015625 110.482422,69.421875 L110.482422,69.421875 L110.388672,69.421875 C110.064453,68.7421875 109.404297,68.4023438 108.408203,68.4023438 C107.998047,68.4023438 107.62207,68.4863281 107.280273,68.6542969 C106.938477,68.8222656 106.677734,69.0605469 106.498047,69.3691406 L106.498047,69.3691406 L106.427734,69.3691406 L106.234375,68.5195312 L105.15625,68.5195312 L105.15625,75 L106.533203,75 Z M119.458984,75.1171875 C119.900391,75.1171875 120.292969,75.0839844 120.636719,75.0175781 C120.980469,74.9511719 121.320312,74.8378906 121.65625,74.6777344 L121.65625,74.6777344 L121.65625,73.5585938 C121.277344,73.7265625 120.922852,73.8466797 120.592773,73.9189453 C120.262695,73.9912109 119.90625,74.0273438 119.523438,74.0273438 C118.941406,74.0273438 118.490234,73.8583984 118.169922,73.5205078 C117.849609,73.1826172 117.679688,72.6992188 117.660156,72.0703125 L117.660156,72.0703125 L121.978516,72.0703125 L121.978516,71.3261719 C121.978516,70.4160156 121.730469,69.7011719 121.234375,69.1816406 C120.738281,68.6621094 120.0625,68.4023438 119.207031,68.4023438 C118.285156,68.4023438 117.560547,68.7050781 117.033203,69.3105469 C116.505859,69.9160156 116.242188,70.7480469 116.242188,71.8066406 C116.242188,72.8378906 116.526367,73.6474609 117.094727,74.2353516 C117.663086,74.8232422 118.451172,75.1171875 119.458984,75.1171875 Z M120.625,71.0742188 L117.683594,71.0742188 C117.734375,70.5429688 117.891602,70.1386719 118.155273,69.8613281 C118.418945,69.5839844 118.769531,69.4453125 119.207031,69.4453125 C119.644531,69.4453125 119.988281,69.5830078 120.238281,69.8583984 C120.488281,70.1337891 120.617188,70.5390625 120.625,71.0742188 L120.625,71.0742188 Z M125.628906,75.1171875 C125.886719,75.1171875 126.135742,75.0947266 126.375977,75.0498047 C126.616211,75.0048828 126.8125,74.9492188 126.964844,74.8828125 L126.964844,74.8828125 L126.964844,73.8457031 C126.628906,73.9511719 126.292969,74.0039062 125.957031,74.0039062 C125.6875,74.0039062 125.469727,73.9248047 125.303711,73.7666016 C125.137695,73.6083984 125.054688,73.3632812 125.054688,73.03125 L125.054688,73.03125 L125.054688,69.5625 L126.900391,69.5625 L126.900391,68.5195312 L125.054688,68.5195312 L125.054688,67.078125 L124.205078,67.078125 L123.736328,68.4492188 L122.787109,68.953125 L122.787109,69.5625 L123.671875,69.5625 L123.671875,73.0546875 C123.671875,74.4296875 124.324219,75.1171875 125.628906,75.1171875 Z M129.636719,75 L129.636719,71.7832031 C129.636719,70.9707031 129.772461,70.3916016 130.043945,70.0458984 C130.31543,69.7001953 130.740234,69.5273438 131.318359,69.5273438 C131.755859,69.5273438 132.075195,69.6503906 132.276367,69.8964844 C132.477539,70.1425781 132.578125,70.515625 132.578125,71.015625 L132.578125,71.015625 L132.578125,75 L133.960938,75 L133.960938,70.7753906 C133.960938,69.1933594 133.175781,68.4023438 131.605469,68.4023438 C131.160156,68.4023438 130.770508,68.4882812 130.436523,68.6601562 C130.102539,68.8320312 129.841797,69.0742188 129.654297,69.3867188 L129.654297,69.3867188 L129.566406,69.3867188 C129.613281,68.9648438 129.636719,68.5683594 129.636719,68.1972656 L129.636719,68.1972656 L129.636719,65.8828125 L128.259766,65.8828125 L128.259766,75 L129.636719,75 Z M136.574219,67.5585938 C136.816406,67.5585938 137.004883,67.4912109 137.139648,67.3564453 C137.274414,67.2216797 137.341797,67.0371094 137.341797,66.8027344 C137.341797,66.5566406 137.274414,66.3671875 137.139648,66.234375 C137.004883,66.1015625 136.816406,66.0351562 136.574219,66.0351562 C136.324219,66.0351562 136.131836,66.1015625 135.99707,66.234375 C135.862305,66.3671875 135.794922,66.5566406 135.794922,66.8027344 C135.794922,67.0371094 135.862305,67.2216797 135.99707,67.3564453 C136.131836,67.4912109 136.324219,67.5585938 136.574219,67.5585938 Z M137.253906,75 L137.253906,68.5195312 L135.876953,68.5195312 L135.876953,75 L137.253906,75 Z M140.599609,75 L140.599609,71.7714844 C140.599609,70.9628906 140.734375,70.3867188 141.003906,70.0429688 C141.273438,69.6992188 141.699219,69.5273438 142.28125,69.5273438 C142.71875,69.5273438 143.038086,69.6503906 143.239258,69.8964844 C143.44043,70.1425781 143.541016,70.515625 143.541016,71.015625 L143.541016,71.015625 L143.541016,75 L144.923828,75 L144.923828,70.7753906 C144.923828,69.1933594 144.146484,68.4023438 142.591797,68.4023438 C142.154297,68.4023438 141.755859,68.4863281 141.396484,68.6542969 C141.037109,68.8222656 140.759766,69.0605469 140.564453,69.3691406 L140.564453,69.3691406 L140.494141,69.3691406 L140.300781,68.5195312 L139.222656,68.5195312 L139.222656,75 L140.599609,75 Z M148.708984,77.8828125 C149.853516,77.8828125 150.728516,77.6835938 151.333984,77.2851562 C151.939453,76.8867188 152.242188,76.3203125 152.242188,75.5859375 C152.242188,75.0117188 152.056641,74.5722656 151.685547,74.2675781 C151.314453,73.9628906 150.771484,73.8105469 150.056641,73.8105469 L150.056641,73.8105469 L148.925781,73.8105469 C148.554688,73.8105469 148.299805,73.7734375 148.161133,73.6992188 C148.022461,73.625 147.953125,73.5136719 147.953125,73.3652344 C147.953125,73.1191406 148.101562,72.9042969 148.398438,72.7207031 C148.566406,72.7519531 148.753906,72.7675781 148.960938,72.7675781 C149.769531,72.7675781 150.404297,72.5761719 150.865234,72.1933594 C151.326172,71.8105469 151.556641,71.2851562 151.556641,70.6171875 C151.556641,70.3945312 151.523438,70.1835938 151.457031,69.984375 C151.390625,69.7851562 151.306641,69.6171875 151.205078,69.4804688 L151.205078,69.4804688 L152.3125,69.2753906 L152.3125,68.5195312 L150.068359,68.5195312 C149.966797,68.4921875 149.81543,68.4658203 149.614258,68.4404297 C149.413086,68.4150391 149.220703,68.4023438 149.037109,68.4023438 C148.216797,68.4023438 147.584961,68.5957031 147.141602,68.9824219 C146.698242,69.3691406 146.476562,69.9140625 146.476562,70.6171875 C146.476562,71.0546875 146.581055,71.4365234 146.790039,71.7626953 C146.999023,72.0888672 147.271484,72.3242188 147.607422,72.46875 C147.337891,72.6328125 147.134766,72.7988281 146.998047,72.9667969 C146.861328,73.1347656 146.792969,73.3398438 146.792969,73.5820312 C146.792969,73.7734375 146.852539,73.9560547 146.97168,74.1298828 C147.09082,74.3037109 147.242188,74.4296875 147.425781,74.5078125 C146.972656,74.6132812 146.620117,74.8017578 146.368164,75.0732422 C146.116211,75.3447266 145.990234,75.6796875 145.990234,76.078125 C145.990234,76.65625 146.222656,77.1015625 146.6875,77.4140625 C147.152344,77.7265625 147.826172,77.8828125 148.708984,77.8828125 Z M149.025391,71.8828125 C148.634766,71.8828125 148.334961,71.7734375 148.125977,71.5546875 C147.916992,71.3359375 147.8125,71.0234375 147.8125,70.6171875 C147.8125,70.1835938 147.915039,69.8535156 148.120117,69.6269531 C148.325195,69.4003906 148.626953,69.2871094 149.025391,69.2871094 C149.427734,69.2871094 149.727539,69.4013672 149.924805,69.6298828 C150.12207,69.8583984 150.220703,70.1835938 150.220703,70.6054688 C150.220703,71.4570312 149.822266,71.8828125 149.025391,71.8828125 Z M148.75,76.9335938 C148.265625,76.9335938 147.889648,76.8535156 147.62207,76.6933594 C147.354492,76.5332031 147.220703,76.3046875 147.220703,76.0078125 C147.220703,75.6914062 147.336914,75.4404297 147.569336,75.2548828 C147.801758,75.0693359 148.115234,74.9765625 148.509766,74.9765625 L148.509766,74.9765625 L149.552734,74.9765625 C150.099609,74.9765625 150.473633,75.0361328 150.674805,75.1552734 C150.875977,75.2744141 150.976562,75.4746094 150.976562,75.7558594 C150.976562,76.1113281 150.792969,76.3964844 150.425781,76.6113281 C150.058594,76.8261719 149.5,76.9335938 148.75,76.9335938 Z M93.3613281,87 L93.3613281,83.7832031 C93.3613281,82.9707031 93.4970703,82.3916016 93.7685547,82.0458984 C94.0400391,81.7001953 94.4648438,81.5273438 95.0429688,81.5273438 C95.4804688,81.5273438 95.7998047,81.6503906 96.0009766,81.8964844 C96.2021484,82.1425781 96.3027344,82.515625 96.3027344,83.015625 L96.3027344,83.015625 L96.3027344,87 L97.6855469,87 L97.6855469,82.7753906 C97.6855469,81.1933594 96.9003906,80.4023438 95.3300781,80.4023438 C94.8847656,80.4023438 94.4951172,80.4882812 94.1611328,80.6601562 C93.8271484,80.8320312 93.5664062,81.0742188 93.3789062,81.3867188 L93.3789062,81.3867188 L93.2910156,81.3867188 C93.3378906,80.9648438 93.3613281,80.5683594 93.3613281,80.1972656 L93.3613281,80.1972656 L93.3613281,77.8828125 L91.984375,77.8828125 L91.984375,87 L93.3613281,87 Z M101.171875,87.1171875 C101.667969,87.1171875 102.074219,87.0458984 102.390625,86.9033203 C102.707031,86.7607422 103.021484,86.4921875 103.333984,86.0976562 L103.333984,86.0976562 L103.380859,86.0976562 L103.65625,87 L104.640625,87 L104.640625,82.6347656 C104.640625,81.8652344 104.430664,81.3007812 104.010742,80.9414062 C103.59082,80.5820312 102.96875,80.4023438 102.144531,80.4023438 C101.773438,80.4023438 101.378906,80.4501953 100.960938,80.5458984 C100.542969,80.6416016 100.158203,80.78125 99.8066406,80.9648438 L99.8066406,80.9648438 L100.251953,81.9492188 C100.533203,81.8164062 100.826172,81.7011719 101.130859,81.6035156 C101.435547,81.5058594 101.753906,81.4570312 102.085938,81.4570312 C102.492188,81.4570312 102.791992,81.5595703 102.985352,81.7646484 C103.178711,81.9697266 103.275391,82.2792969 103.275391,82.6933594 L103.275391,82.6933594 L103.275391,83.0390625 L102.15625,83.0742188 C101.140625,83.1054688 100.384766,83.2910156 99.8886719,83.6308594 C99.3925781,83.9707031 99.1445312,84.4746094 99.1445312,85.1425781 C99.1445312,85.7714844 99.3232422,86.2578125 99.6806641,86.6015625 C100.038086,86.9453125 100.535156,87.1171875 101.171875,87.1171875 Z M101.605469,86.0625 C101.261719,86.0625 101.003906,85.9833984 100.832031,85.8251953 C100.660156,85.6669922 100.574219,85.4433594 100.574219,85.1542969 C100.574219,84.7558594 100.72168,84.4599609 101.016602,84.2666016 C101.311523,84.0732422 101.783203,83.9648438 102.431641,83.9414062 L102.431641,83.9414062 L103.263672,83.90625 L103.263672,84.46875 C103.263672,84.9726562 103.112305,85.3642578 102.80957,85.6435547 C102.506836,85.9228516 102.105469,86.0625 101.605469,86.0625 Z M107.939453,89.8828125 L107.939453,87.2285156 C107.939453,87.1113281 107.912109,86.7792969 107.857422,86.2324219 L107.857422,86.2324219 L107.939453,86.2324219 C108.392578,86.8222656 109.029297,87.1171875 109.849609,87.1171875 C110.658203,87.1171875 111.291992,86.8203125 111.750977,86.2265625 C112.209961,85.6328125 112.439453,84.8066406 112.439453,83.7480469 C112.439453,82.6894531 112.213867,81.8671875 111.762695,81.28125 C111.311523,80.6953125 110.681641,80.4023438 109.873047,80.4023438 C109.013672,80.4023438 108.369141,80.7304688 107.939453,81.3867188 L107.939453,81.3867188 L107.869141,81.3867188 C107.771484,80.9296875 107.707031,80.640625 107.675781,80.5195312 L107.675781,80.5195312 L106.5625,80.5195312 L106.5625,89.8828125 L107.939453,89.8828125 Z M109.539062,85.9921875 C108.972656,85.9921875 108.564453,85.8154297 108.314453,85.4619141 C108.064453,85.1083984 107.939453,84.5371094 107.939453,83.7480469 L107.939453,83.7480469 L107.939453,83.5429688 C107.939453,82.8398438 108.06543,82.328125 108.317383,82.0078125 C108.569336,81.6875 108.96875,81.5273438 109.515625,81.5273438 C110.011719,81.5273438 110.387695,81.7138672 110.643555,82.0869141 C110.899414,82.4599609 111.027344,83.0097656 111.027344,83.7363281 C111.027344,84.4589844 110.898438,85.015625 110.640625,85.40625 C110.382812,85.796875 110.015625,85.9921875 109.539062,85.9921875 Z M115.416016,89.8828125 L115.416016,87.2285156 C115.416016,87.1113281 115.388672,86.7792969 115.333984,86.2324219 L115.333984,86.2324219 L115.416016,86.2324219 C115.869141,86.8222656 116.505859,87.1171875 117.326172,87.1171875 C118.134766,87.1171875 118.768555,86.8203125 119.227539,86.2265625 C119.686523,85.6328125 119.916016,84.8066406 119.916016,83.7480469 C119.916016,82.6894531 119.69043,81.8671875 119.239258,81.28125 C118.788086,80.6953125 118.158203,80.4023438 117.349609,80.4023438 C116.490234,80.4023438 115.845703,80.7304688 115.416016,81.3867188 L115.416016,81.3867188 L115.345703,81.3867188 C115.248047,80.9296875 115.183594,80.640625 115.152344,80.5195312 L115.152344,80.5195312 L114.039062,80.5195312 L114.039062,89.8828125 L115.416016,89.8828125 Z M117.015625,85.9921875 C116.449219,85.9921875 116.041016,85.8154297 115.791016,85.4619141 C115.541016,85.1083984 115.416016,84.5371094 115.416016,83.7480469 L115.416016,83.7480469 L115.416016,83.5429688 C115.416016,82.8398438 115.541992,82.328125 115.793945,82.0078125 C116.045898,81.6875 116.445312,81.5273438 116.992188,81.5273438 C117.488281,81.5273438 117.864258,81.7138672 118.120117,82.0869141 C118.375977,82.4599609 118.503906,83.0097656 118.503906,83.7363281 C118.503906,84.4589844 118.375,85.015625 118.117188,85.40625 C117.859375,85.796875 117.492188,85.9921875 117.015625,85.9921875 Z M124.345703,87.1171875 C124.787109,87.1171875 125.179688,87.0839844 125.523438,87.0175781 C125.867188,86.9511719 126.207031,86.8378906 126.542969,86.6777344 L126.542969,86.6777344 L126.542969,85.5585938 C126.164062,85.7265625 125.80957,85.8466797 125.479492,85.9189453 C125.149414,85.9912109 124.792969,86.0273438 124.410156,86.0273438 C123.828125,86.0273438 123.376953,85.8583984 123.056641,85.5205078 C122.736328,85.1826172 122.566406,84.6992188 122.546875,84.0703125 L122.546875,84.0703125 L126.865234,84.0703125 L126.865234,83.3261719 C126.865234,82.4160156 126.617188,81.7011719 126.121094,81.1816406 C125.625,80.6621094 124.949219,80.4023438 124.09375,80.4023438 C123.171875,80.4023438 122.447266,80.7050781 121.919922,81.3105469 C121.392578,81.9160156 121.128906,82.7480469 121.128906,83.8066406 C121.128906,84.8378906 121.413086,85.6474609 121.981445,86.2353516 C122.549805,86.8232422 123.337891,87.1171875 124.345703,87.1171875 Z M125.511719,83.0742188 L122.570312,83.0742188 C122.621094,82.5429688 122.77832,82.1386719 123.041992,81.8613281 C123.305664,81.5839844 123.65625,81.4453125 124.09375,81.4453125 C124.53125,81.4453125 124.875,81.5830078 125.125,81.8583984 C125.375,82.1337891 125.503906,82.5390625 125.511719,83.0742188 L125.511719,83.0742188 Z M129.806641,87 L129.806641,83.7714844 C129.806641,82.9628906 129.941406,82.3867188 130.210938,82.0429688 C130.480469,81.6992188 130.90625,81.5273438 131.488281,81.5273438 C131.925781,81.5273438 132.245117,81.6503906 132.446289,81.8964844 C132.647461,82.1425781 132.748047,82.515625 132.748047,83.015625 L132.748047,83.015625 L132.748047,87 L134.130859,87 L134.130859,82.7753906 C134.130859,81.1933594 133.353516,80.4023438 131.798828,80.4023438 C131.361328,80.4023438 130.962891,80.4863281 130.603516,80.6542969 C130.244141,80.8222656 129.966797,81.0605469 129.771484,81.3691406 L129.771484,81.3691406 L129.701172,81.3691406 L129.507812,80.5195312 L128.429688,80.5195312 L128.429688,87 L129.806641,87 Z M137.728516,87.1171875 C138.587891,87.1171875 139.248047,86.9482422 139.708984,86.6103516 C140.169922,86.2724609 140.400391,85.7871094 140.400391,85.1542969 C140.400391,84.8417969 140.341797,84.5732422 140.224609,84.3486328 C140.107422,84.1240234 139.927734,83.9257812 139.685547,83.7539062 C139.443359,83.5820312 139.054688,83.3925781 138.519531,83.1855469 C137.882812,82.9394531 137.469727,82.7460938 137.280273,82.6054688 C137.09082,82.4648438 136.996094,82.2929688 136.996094,82.0898438 C136.996094,81.6757812 137.359375,81.46875 138.085938,81.46875 C138.5625,81.46875 139.150391,81.6132812 139.849609,81.9023438 L139.849609,81.9023438 L140.294922,80.8652344 C139.615234,80.5566406 138.894531,80.4023438 138.132812,80.4023438 C137.363281,80.4023438 136.754883,80.5556641 136.307617,80.8623047 C135.860352,81.1689453 135.636719,81.5996094 135.636719,82.1542969 C135.636719,82.6152344 135.768555,82.9902344 136.032227,83.2792969 C136.295898,83.5683594 136.800781,83.8574219 137.546875,84.1464844 C137.929688,84.2949219 138.228516,84.4277344 138.443359,84.5449219 C138.658203,84.6621094 138.8125,84.7753906 138.90625,84.8847656 C139,84.9941406 139.046875,85.1308594 139.046875,85.2949219 C139.046875,85.8066406 138.623047,86.0625 137.775391,86.0625 C137.119141,86.0625 136.410156,85.8867188 135.648438,85.5351562 L135.648438,85.5351562 L135.648438,86.7246094 C136.171875,86.9863281 136.865234,87.1171875 137.728516,87.1171875 Z M142.550781,87.1699219 C142.832031,87.1699219 143.047852,87.0888672 143.198242,86.9267578 C143.348633,86.7646484 143.423828,86.5449219 143.423828,86.2675781 C143.423828,85.9941406 143.349609,85.7783203 143.201172,85.6201172 C143.052734,85.4619141 142.835938,85.3828125 142.550781,85.3828125 C142.269531,85.3828125 142.054688,85.4589844 141.90625,85.6113281 C141.757812,85.7636719 141.683594,85.9824219 141.683594,86.2675781 C141.683594,86.5488281 141.757812,86.7695312 141.90625,86.9296875 C142.054688,87.0898438 142.269531,87.1699219 142.550781,87.1699219 Z" id="Whereorwhensomethinghappens." fill="#FFFFFF" fill-rule="nonzero"></path>
                        <g id="Adverbs" transform="translate(21.000000, 2.000000)" fill-rule="nonzero">
                            <g id="Prepositions">
                                <use fill="#000000" xlink:href="#path-2"></use>
                                <use fill="#FFFFFF" xlink:href="#path-2"></use>
                            </g>
                        </g>
                        <g id="noun_846018_ffffff" transform="translate(26.000000, 52.000000)" fill="#FFFFFF" fill-rule="nonzero">
                            <path d="M1.03044086,0.00151212228 C0.451600553,0.0612151426 0.0130135561,0.542997689 0.016012461,1.11572462 L0.016012461,16.7146996 C0.0103513309,17.1165247 0.224886627,17.4902822 0.577582303,17.6928531 C0.930277977,17.895424 1.36649088,17.895424 1.71918656,17.6928531 C2.07188223,17.4902822 2.28641753,17.1165247 2.28064268,16.7146996 L2.28064268,2.22993712 L32.8516156,2.22993712 C33.2599485,2.23561993 33.6397594,2.02450387 33.8456112,1.6774294 C34.0514629,1.33035493 34.0514629,0.90109432 33.8456112,0.55401985 C33.6397594,0.206945382 33.2599485,-0.00417068409 32.8516156,0.00151212228 L1.14838443,0.00151212228 C1.1090966,-0.000504040759 1.06972869,-0.000504040759 1.03044086,0.00151212228 Z M32.8398212,4.43508747 C32.5374558,4.43821413 32.2488956,4.56015675 32.0384286,4.77380973 C31.8279616,4.98746272 31.7130725,5.27507678 31.7193573,5.57257462 L31.7193573,20.0573371 L10.2064504,20.0573371 C9.97078788,20.0538637 9.73989667,20.1228385 9.5459665,20.2546456 L6.05483686,22.7035918 L6.05483686,21.1715496 C6.05477435,20.5562125 5.54788167,20.0573987 4.92257859,20.0573371 L1.14838443,20.0573371 C0.740051438,20.0516543 0.360240559,20.2627704 0.154388811,20.6098448 C-0.0514629371,20.9569193 -0.0514629371,21.3861799 0.154388811,21.7332544 C0.360240559,22.0803289 0.740051438,22.2914449 1.14838443,22.2857621 L3.79032036,22.2857621 L3.79032036,24.8855913 C3.79028969,25.303495 4.02787397,25.6862851 4.40570277,25.8770808 C4.78353158,26.0678766 5.23808173,26.0345999 5.58306259,25.790889 L10.5720755,22.2857621 L32.8516156,22.2857621 C33.4769186,22.2857006 33.9841188,21.7868867 33.9841188,21.1715496 L33.9841188,5.57257462 C33.9902444,5.27105102 33.8721453,4.97986279 33.6565502,4.76551655 C33.440955,4.55117028 33.1462775,4.43197312 32.8398212,4.43508747 Z M7.56451454,7.44120182 C5.49349569,7.44120182 3.80211472,9.10562731 3.80211472,11.1436371 C3.80211472,13.1816506 5.49349569,14.8460724 7.56451454,14.8460724 C9.63553339,14.8460724 11.3269143,13.1816506 11.3269143,11.1436371 C11.3269143,9.10562731 9.63553339,7.44120182 7.56451454,7.44120182 Z M17,7.44120182 C14.9289811,7.44120182 13.2376002,9.10562731 13.2376002,11.1436371 C13.2376002,13.1816506 14.9289811,14.8460724 17,14.8460724 C19.0710188,14.8460724 20.7623998,13.1816506 20.7623998,11.1436371 C20.7623998,9.10562731 19.0710188,7.44120182 17,7.44120182 Z M26.4354854,7.44120182 C24.3644666,7.44120182 22.6730856,9.10562731 22.6730856,11.1436371 C22.6730856,13.1816506 24.3644666,14.8460724 26.4354854,14.8460724 C28.5065043,14.8460724 30.1978853,13.1816506 30.1978853,11.1436371 C30.1978853,9.10562731 28.5065043,7.44120182 26.4354854,7.44120182 Z M7.56451454,9.64641408 C8.41169808,9.64641408 9.08598655,10.3099573 9.08598655,11.1436371 C9.08598655,11.9773206 8.41169808,12.6408602 7.56451454,12.6408602 C6.71733137,12.6408602 6.04304249,11.9773206 6.04304249,11.1436371 C6.04304249,10.3099573 6.71733137,9.64641408 7.56451454,9.64641408 Z M17,9.64641408 C17.8471835,9.64641408 18.521472,10.3099573 18.521472,11.1436371 C18.521472,11.9773206 17.8471835,12.6408602 17,12.6408602 C16.1528168,12.6408602 15.478528,11.9773206 15.478528,11.1436371 C15.478528,10.3099573 16.1528168,9.64641408 17,9.64641408 Z M26.4354854,9.64641408 C27.2826686,9.64641408 27.9569575,10.3099573 27.9569575,11.1436371 C27.9569575,11.9773206 27.2826686,12.6408602 26.4354854,12.6408602 C25.5883019,12.6408602 24.9140134,11.9773206 24.9140134,11.1436371 C24.9140134,10.3099573 25.5883019,9.64641408 26.4354854,9.64641408 Z" id="Shape"></path>
                        </g>
                    </g>
                </g>
            </g>
        </g>
    </g>
</svg>