<?xml version="1.0" encoding="UTF-8"?>
<svg width="163px" height="96px" viewBox="0 0 163 96" version="1.1" xmlns="http://www.w3.org/2000/svg" xmlns:xlink="http://www.w3.org/1999/xlink">
    <!-- Generator: Sketch 62 (91390) - https://sketch.com -->
    <title>Rank</title>
    <desc>Created with Sketch.</desc>
    <defs>
        <radialGradient cx="26.5298003%" cy="49.99998%" fx="26.5298003%" fy="49.99998%" r="50.0194374%" gradientTransform="translate(0.265298,0.500000),scale(0.588957,1.000000),rotate(91.597354),translate(-0.265298,-0.500000)" id="radialGradient-1">
            <stop stop-color="#80C3F3" offset="0%"></stop>
            <stop stop-color="#4A90E2" offset="100%"></stop>
        </radialGradient>
        <path d="M63.796875,18 L63.796875,12.8671875 L65.8710938,12.8671875 L68.9472656,18 L71.3378906,18 L67.7080078,12.3134766 C69.3720703,11.6337891 70.2041016,10.4941406 70.2041016,8.89453125 C70.2041016,7.640625 69.8056641,6.703125 69.0087891,6.08203125 C68.2119141,5.4609375 66.984375,5.15039062 65.3261719,5.15039062 L65.3261719,5.15039062 L61.6962891,5.15039062 L61.6962891,18 L63.796875,18 Z M65.2558594,11.1269531 L63.796875,11.1269531 L63.796875,6.92578125 L65.1855469,6.92578125 C66.140625,6.92578125 66.8554688,7.08398438 67.3300781,7.40039062 C67.8046875,7.71679688 68.0419922,8.23828125 68.0419922,8.96484375 C68.0419922,9.6796875 67.8222656,10.21875 67.3828125,10.5820312 C66.9433594,10.9453125 66.234375,11.1269531 65.2558594,11.1269531 L65.2558594,11.1269531 Z M75.3369141,18.1757812 C76.0810547,18.1757812 76.6904297,18.0688477 77.1650391,17.8549805 C77.6396484,17.6411133 78.1113281,17.2382812 78.5800781,16.6464844 L78.5800781,16.6464844 L78.6503906,16.6464844 L79.0634766,18 L80.5400391,18 L80.5400391,11.4521484 C80.5400391,10.2978516 80.2250977,9.45117188 79.5952148,8.91210938 C78.965332,8.37304688 78.0322266,8.10351562 76.7958984,8.10351562 C76.2392578,8.10351562 75.6474609,8.17529297 75.0205078,8.31884766 C74.3935547,8.46240234 73.8164062,8.671875 73.2890625,8.94726562 L73.2890625,8.94726562 L73.9570312,10.4238281 C74.3789062,10.2246094 74.8183594,10.0517578 75.2753906,9.90527344 C75.7324219,9.75878906 76.2099609,9.68554688 76.7080078,9.68554688 C77.3173828,9.68554688 77.7670898,9.83935547 78.0571289,10.1469727 C78.347168,10.4545898 78.4921875,10.9189453 78.4921875,11.5400391 L78.4921875,11.5400391 L78.4921875,12.0585938 L76.8134766,12.1113281 C75.2900391,12.1582031 74.15625,12.4365234 73.4121094,12.9462891 C72.6679688,13.4560547 72.2958984,14.2119141 72.2958984,15.2138672 C72.2958984,16.1572266 72.5639648,16.8867188 73.1000977,17.4023438 C73.6362305,17.9179688 74.3818359,18.1757812 75.3369141,18.1757812 Z M75.9873047,16.59375 C75.4716797,16.59375 75.0849609,16.4750977 74.8271484,16.237793 C74.5693359,16.0004883 74.4404297,15.6650391 74.4404297,15.2314453 C74.4404297,14.6337891 74.6616211,14.1899414 75.1040039,13.8999023 C75.5463867,13.6098633 76.2539062,13.4472656 77.2265625,13.4121094 L77.2265625,13.4121094 L78.4746094,13.359375 L78.4746094,14.203125 C78.4746094,14.9589844 78.2475586,15.5463867 77.793457,15.965332 C77.3393555,16.3842773 76.7373047,16.59375 75.9873047,16.59375 Z M85.4882812,18 L85.4882812,13.1572266 C85.4882812,11.9443359 85.6904297,11.0800781 86.0947266,10.5644531 C86.4990234,10.0488281 87.1376953,9.79101562 88.0107422,9.79101562 C88.6669922,9.79101562 89.1459961,9.97558594 89.4477539,10.3447266 C89.7495117,10.7138672 89.9003906,11.2734375 89.9003906,12.0234375 L89.9003906,12.0234375 L89.9003906,18 L91.9746094,18 L91.9746094,11.6630859 C91.9746094,9.29003906 90.8085938,8.10351562 88.4765625,8.10351562 C87.8203125,8.10351562 87.2226562,8.22949219 86.6835938,8.48144531 C86.1445312,8.73339844 85.7285156,9.09082031 85.4355469,9.55371094 L85.4355469,9.55371094 L85.3300781,9.55371094 L85.0400391,8.27929688 L83.4228516,8.27929688 L83.4228516,18 L85.4882812,18 Z M96.8964844,18 L96.8964844,14.6689453 L98.0302734,13.7373047 L101.150391,18 L103.576172,18 L99.4189453,12.4541016 L103.330078,8.27929688 L100.948242,8.27929688 L98.0126953,11.4082031 L96.84375,12.8671875 L96.7910156,12.8671875 L96.8964844,10.9951172 L96.8964844,4.32421875 L94.8486328,4.32421875 L94.8486328,18 L96.8964844,18 Z" id="path-2"></path>
    </defs>
    <g id="Symbols" stroke="none" stroke-width="1" fill="none" fill-rule="evenodd">
        <g id="i/Rank">
            <g id="Rank">
                <g id="Group-7">
                    <g id="Rank">
                        <g id="Group-7">
                            <g id="Group-6">
                                <g id="Group-2" fill="url(#radialGradient-1)" fill-rule="nonzero">
                                    <g id="Group-3">
                                        <g id="blue-icon">
                                            <rect id="Rectangle-2" x="0" y="0" width="163" height="96" rx="6"></rect>
                                        </g>
                                    </g>
                                </g>
                                <line x1="2" y1="27.7937466" x2="161" y2="27.7937466" id="Line-2" stroke="#FFFFFF" stroke-width="4" stroke-linecap="square"></line>
                                <line x1="80.8208333" y1="38.7165354" x2="80.8208333" y2="85.3070866" id="Line-3" stroke="#FFFFFF" stroke-width="2" stroke-linecap="square"></line>
                            </g>
                        </g>
                        <g id="noun_1134618_3498DB" transform="translate(16.979167, 41.771654)" fill-rule="nonzero">
                            <path d="M6.26923076,37.951356 C6.26923076,38.9222047 6.9760865,39.7165354 7.83653844,39.7165354 L12.5384615,39.7165354 C13.402048,39.7165354 14.1057692,38.9222047 14.1057692,37.951356 L14.1057692,11.4736658 L20.375,11.4736658 L10.1875,0 L0,11.4736658 L6.26923076,11.4736658 L6.26923076,37.951356 Z" id="Path" fill="#FFFFFF"></path>
                            <path d="M41.1997965,28.2598425 C42.0714457,28.2598425 42.7875,27.4865157 42.7875,26.5413387 L42.7875,23.1043306 C42.7875,22.1591535 42.0714457,21.3858268 41.1997965,21.3858268 L24.0002035,21.3858268 C23.1253789,21.3858268 22.4125,22.1591535 22.4125,23.1043306 L22.4125,26.5413387 C22.4125,27.4865157 23.1269666,28.2598425 24.0002035,28.2598425 L41.1997965,28.2598425 Z" id="Path" fill="#BDC3C7"></path>
                            <path d="M24.0255208,31.3149606 C23.1367464,31.3149606 22.4125,32.0882874 22.4125,33.0334645 L22.4125,36.4704725 C22.4125,37.4156496 23.1367464,38.1889764 24.0255208,38.1889764 L46.6078125,38.1889764 C47.493361,38.1889764 48.2208333,37.4156496 48.2208333,36.4704725 L48.2208333,33.0334645 C48.2208333,32.0882874 47.493361,31.3149606 46.6078125,31.3149606 L24.0255208,31.3149606 Z" id="Path" fill="#FFFFFF"></path>
                            <path d="M35.7532167,17.5669291 C36.6321382,17.5669291 37.3541667,16.7936024 37.3541667,15.8484253 L37.3541667,12.4114172 C37.3541667,11.4662402 36.6321382,10.6929134 35.7532167,10.6929134 L24.01345,10.6929134 C23.1313265,10.6929134 22.4125,11.4662402 22.4125,12.4114172 L22.4125,15.8484253 C22.4125,16.7936024 23.1329275,17.5669291 24.01345,17.5669291 L35.7532167,17.5669291 Z" id="Path" fill="#FFFFFF"></path>
                            <path d="M22.4125,1.71850394 C22.4125,0.773326772 23.1347781,0 24.0211373,0 L30.9913627,0 C31.8745047,0 32.6,0.773326772 32.6,1.71850394 L32.6,5.15551182 C32.6,6.10068898 31.8745047,6.87401575 30.9913627,6.87401575 L24.0211373,6.87401575 C23.1363867,6.87401575 22.4125,6.10068898 22.4125,5.15551182 L22.4125,1.71850394 Z" id="Path" fill="#BDC3C7"></path>
                        </g>
                    </g>
                    <g id="Rank" fill-rule="nonzero" fill="#FFFFFF">
                        <use xlink:href="#path-2"></use>
                        <use xlink:href="#path-2"></use>
                    </g>
                </g>
                <path d="M94.7285156,54.1171875 C96.0058594,54.1171875 96.9931641,53.7304688 97.6904297,52.9570312 C98.3876953,52.1835938 98.7363281,51.0996094 98.7363281,49.7050781 C98.7363281,48.3066406 98.3886719,47.2226562 97.6933594,46.453125 C96.9980469,45.6835938 96.0136719,45.2988281 94.7402344,45.2988281 C93.4472656,45.2988281 92.4521484,45.6777344 91.7548828,46.4355469 C91.0576172,47.1933594 90.7089844,48.2792969 90.7089844,49.6933594 C90.7089844,51.1074219 91.0556641,52.1982422 91.7490234,52.9658203 C92.4423828,53.7333984 93.4355469,54.1171875 94.7285156,54.1171875 Z M94.7285156,52.921875 C93.8925781,52.921875 93.2617188,52.6494141 92.8359375,52.1044922 C92.4101562,51.5595703 92.1972656,50.7597656 92.1972656,49.7050781 C92.1972656,48.6542969 92.4111328,47.8574219 92.8388672,47.3144531 C93.2666016,46.7714844 93.9003906,46.5 94.7402344,46.5 C95.5722656,46.5 96.1982422,46.7714844 96.6181641,47.3144531 C97.0380859,47.8574219 97.2480469,48.6542969 97.2480469,49.7050781 C97.2480469,50.7714844 97.0361328,51.5742188 96.6123047,52.1132812 C96.1884766,52.6523438 95.5605469,52.921875 94.7285156,52.921875 Z M101.806641,54 L101.806641,50.6132812 C101.806641,50.0390625 101.977539,49.5722656 102.319336,49.2128906 C102.661133,48.8535156 103.107422,48.6738281 103.658203,48.6738281 C103.869141,48.6738281 104.072266,48.6972656 104.267578,48.7441406 L104.267578,48.7441406 L104.402344,47.4609375 C104.222656,47.421875 103.994141,47.4023438 103.716797,47.4023438 C103.318359,47.4023438 102.946289,47.515625 102.600586,47.7421875 C102.254883,47.96875 101.974609,48.2753906 101.759766,48.6621094 L101.759766,48.6621094 L101.689453,48.6621094 L101.507812,47.5195312 L100.429688,47.5195312 L100.429688,54 L101.806641,54 Z M107.789062,54.1171875 C108.640625,54.1171875 109.287109,53.7949219 109.728516,53.1503906 L109.728516,53.1503906 L109.792969,53.1503906 L110.033203,54 L111.111328,54 L111.111328,44.8828125 L109.728516,44.8828125 L109.728516,47.2441406 C109.728516,47.5136719 109.761719,47.8808594 109.828125,48.3457031 L109.828125,48.3457031 L109.757812,48.3457031 C109.3125,47.7167969 108.664062,47.4023438 107.8125,47.4023438 C107,47.4023438 106.364258,47.6982422 105.905273,48.2900391 C105.446289,48.8818359 105.216797,49.7089844 105.216797,50.7714844 C105.216797,51.8300781 105.443359,52.6523438 105.896484,53.2382812 C106.349609,53.8242188 106.980469,54.1171875 107.789062,54.1171875 Z M108.158203,53.0039062 C107.650391,53.0039062 107.269531,52.8154297 107.015625,52.4384766 C106.761719,52.0615234 106.634766,51.5136719 106.634766,50.7949219 C106.634766,50.0683594 106.765625,49.5087891 107.027344,49.1162109 C107.289062,48.7236328 107.662109,48.5273438 108.146484,48.5273438 C108.712891,48.5273438 109.128906,48.6992188 109.394531,49.0429688 C109.660156,49.3867188 109.792969,49.9667969 109.792969,50.7832031 L109.792969,50.7832031 L109.792969,50.9765625 C109.785156,51.6914062 109.652344,52.2080078 109.394531,52.5263672 C109.136719,52.8447266 108.724609,53.0039062 108.158203,53.0039062 Z M115.910156,54.1171875 C116.351562,54.1171875 116.744141,54.0839844 117.087891,54.0175781 C117.431641,53.9511719 117.771484,53.8378906 118.107422,53.6777344 L118.107422,53.6777344 L118.107422,52.5585938 C117.728516,52.7265625 117.374023,52.8466797 117.043945,52.9189453 C116.713867,52.9912109 116.357422,53.0273438 115.974609,53.0273438 C115.392578,53.0273438 114.941406,52.8583984 114.621094,52.5205078 C114.300781,52.1826172 114.130859,51.6992188 114.111328,51.0703125 L114.111328,51.0703125 L118.429688,51.0703125 L118.429688,50.3261719 C118.429688,49.4160156 118.181641,48.7011719 117.685547,48.1816406 C117.189453,47.6621094 116.513672,47.4023438 115.658203,47.4023438 C114.736328,47.4023438 114.011719,47.7050781 113.484375,48.3105469 C112.957031,48.9160156 112.693359,49.7480469 112.693359,50.8066406 C112.693359,51.8378906 112.977539,52.6474609 113.545898,53.2353516 C114.114258,53.8232422 114.902344,54.1171875 115.910156,54.1171875 Z M117.076172,50.0742188 L114.134766,50.0742188 C114.185547,49.5429688 114.342773,49.1386719 114.606445,48.8613281 C114.870117,48.5839844 115.220703,48.4453125 115.658203,48.4453125 C116.095703,48.4453125 116.439453,48.5830078 116.689453,48.8583984 C116.939453,49.1337891 117.068359,49.5390625 117.076172,50.0742188 L117.076172,50.0742188 Z M121.371094,54 L121.371094,50.6132812 C121.371094,50.0390625 121.541992,49.5722656 121.883789,49.2128906 C122.225586,48.8535156 122.671875,48.6738281 123.222656,48.6738281 C123.433594,48.6738281 123.636719,48.6972656 123.832031,48.7441406 L123.832031,48.7441406 L123.966797,47.4609375 C123.787109,47.421875 123.558594,47.4023438 123.28125,47.4023438 C122.882812,47.4023438 122.510742,47.515625 122.165039,47.7421875 C121.819336,47.96875 121.539062,48.2753906 121.324219,48.6621094 L121.324219,48.6621094 L121.253906,48.6621094 L121.072266,47.5195312 L119.994141,47.5195312 L119.994141,54 L121.371094,54 Z M131.572266,54.1171875 C132.384766,54.1171875 133.019531,53.8212891 133.476562,53.2294922 C133.933594,52.6376953 134.162109,51.8105469 134.162109,50.7480469 C134.162109,49.6894531 133.936523,48.8671875 133.485352,48.28125 C133.03418,47.6953125 132.404297,47.4023438 131.595703,47.4023438 C130.744141,47.4023438 130.099609,47.7246094 129.662109,48.3691406 L129.662109,48.3691406 L129.603516,48.3691406 C129.611328,48.2832031 129.623047,48.0820312 129.638672,47.765625 C129.654297,47.4492188 129.662109,47.2109375 129.662109,47.0507812 L129.662109,47.0507812 L129.662109,44.8828125 L128.285156,44.8828125 L128.285156,54 L129.316406,54 L129.568359,53.2324219 L129.662109,53.2324219 C130.115234,53.8222656 130.751953,54.1171875 131.572266,54.1171875 Z M131.261719,52.9921875 C130.695312,52.9921875 130.287109,52.8154297 130.037109,52.4619141 C129.787109,52.1083984 129.662109,51.5371094 129.662109,50.7480469 L129.662109,50.7480469 L129.662109,50.6542969 C129.669922,49.8886719 129.795898,49.3427734 130.040039,49.0166016 C130.28418,48.6904297 130.683594,48.5273438 131.238281,48.5273438 C132.246094,48.5273438 132.75,49.2636719 132.75,50.7363281 C132.75,51.4667969 132.624023,52.0253906 132.37207,52.4121094 C132.120117,52.7988281 131.75,52.9921875 131.261719,52.9921875 Z M135.919922,56.8828125 C137.095703,56.8828125 137.935547,56.2089844 138.439453,54.8613281 L138.439453,54.8613281 L141.210938,47.5195312 L139.722656,47.5195312 C138.824219,50.125 138.328125,51.5810547 138.234375,51.8876953 C138.140625,52.1943359 138.076172,52.4550781 138.041016,52.6699219 L138.041016,52.6699219 L137.994141,52.6699219 C137.927734,52.2089844 137.794922,51.7167969 137.595703,51.1933594 L137.595703,51.1933594 L136.277344,47.5195312 L134.777344,47.5195312 L137.378906,54 L137.138672,54.609375 C136.869141,55.3789062 136.402344,55.7636719 135.738281,55.7636719 C135.472656,55.7636719 135.236328,55.7402344 135.029297,55.6933594 L135.029297,55.6933594 L135.029297,56.7832031 C135.318359,56.8496094 135.615234,56.8828125 135.919922,56.8828125 Z M92.5546875,66.1171875 C93.0507812,66.1171875 93.4570312,66.0458984 93.7734375,65.9033203 C94.0898438,65.7607422 94.4042969,65.4921875 94.7167969,65.0976562 L94.7167969,65.0976562 L94.7636719,65.0976562 L95.0390625,66 L96.0234375,66 L96.0234375,61.6347656 C96.0234375,60.8652344 95.8134766,60.3007812 95.3935547,59.9414062 C94.9736328,59.5820312 94.3515625,59.4023438 93.5273438,59.4023438 C93.15625,59.4023438 92.7617188,59.4501953 92.34375,59.5458984 C91.9257812,59.6416016 91.5410156,59.78125 91.1894531,59.9648438 L91.1894531,59.9648438 L91.6347656,60.9492188 C91.9160156,60.8164062 92.2089844,60.7011719 92.5136719,60.6035156 C92.8183594,60.5058594 93.1367188,60.4570312 93.46875,60.4570312 C93.875,60.4570312 94.1748047,60.5595703 94.3681641,60.7646484 C94.5615234,60.9697266 94.6582031,61.2792969 94.6582031,61.6933594 L94.6582031,61.6933594 L94.6582031,62.0390625 L93.5390625,62.0742188 C92.5234375,62.1054688 91.7675781,62.2910156 91.2714844,62.6308594 C90.7753906,62.9707031 90.5273438,63.4746094 90.5273438,64.1425781 C90.5273438,64.7714844 90.7060547,65.2578125 91.0634766,65.6015625 C91.4208984,65.9453125 91.9179688,66.1171875 92.5546875,66.1171875 Z M92.9882812,65.0625 C92.6445312,65.0625 92.3867188,64.9833984 92.2148438,64.8251953 C92.0429688,64.6669922 91.9570312,64.4433594 91.9570312,64.1542969 C91.9570312,63.7558594 92.1044922,63.4599609 92.3994141,63.2666016 C92.6943359,63.0732422 93.1660156,62.9648438 93.8144531,62.9414062 L93.8144531,62.9414062 L94.6464844,62.90625 L94.6464844,63.46875 C94.6464844,63.9726562 94.4951172,64.3642578 94.1923828,64.6435547 C93.8896484,64.9228516 93.4882812,65.0625 92.9882812,65.0625 Z M99.3222656,66 L99.3222656,62.7714844 C99.3222656,61.9628906 99.4570312,61.3867188 99.7265625,61.0429688 C99.9960938,60.6992188 100.421875,60.5273438 101.003906,60.5273438 C101.441406,60.5273438 101.760742,60.6503906 101.961914,60.8964844 C102.163086,61.1425781 102.263672,61.515625 102.263672,62.015625 L102.263672,62.015625 L102.263672,66 L103.646484,66 L103.646484,61.7753906 C103.646484,60.1933594 102.869141,59.4023438 101.314453,59.4023438 C100.876953,59.4023438 100.478516,59.4863281 100.119141,59.6542969 C99.7597656,59.8222656 99.4824219,60.0605469 99.2871094,60.3691406 L99.2871094,60.3691406 L99.2167969,60.3691406 L99.0234375,59.5195312 L97.9453125,59.5195312 L97.9453125,66 L99.3222656,66 Z M110.25,66.1171875 C110.746094,66.1171875 111.152344,66.0458984 111.46875,65.9033203 C111.785156,65.7607422 112.099609,65.4921875 112.412109,65.0976562 L112.412109,65.0976562 L112.458984,65.0976562 L112.734375,66 L113.71875,66 L113.71875,61.6347656 C113.71875,60.8652344 113.508789,60.3007812 113.088867,59.9414062 C112.668945,59.5820312 112.046875,59.4023438 111.222656,59.4023438 C110.851562,59.4023438 110.457031,59.4501953 110.039062,59.5458984 C109.621094,59.6416016 109.236328,59.78125 108.884766,59.9648438 L108.884766,59.9648438 L109.330078,60.9492188 C109.611328,60.8164062 109.904297,60.7011719 110.208984,60.6035156 C110.513672,60.5058594 110.832031,60.4570312 111.164062,60.4570312 C111.570312,60.4570312 111.870117,60.5595703 112.063477,60.7646484 C112.256836,60.9697266 112.353516,61.2792969 112.353516,61.6933594 L112.353516,61.6933594 L112.353516,62.0390625 L111.234375,62.0742188 C110.21875,62.1054688 109.462891,62.2910156 108.966797,62.6308594 C108.470703,62.9707031 108.222656,63.4746094 108.222656,64.1425781 C108.222656,64.7714844 108.401367,65.2578125 108.758789,65.6015625 C109.116211,65.9453125 109.613281,66.1171875 110.25,66.1171875 Z M110.683594,65.0625 C110.339844,65.0625 110.082031,64.9833984 109.910156,64.8251953 C109.738281,64.6669922 109.652344,64.4433594 109.652344,64.1542969 C109.652344,63.7558594 109.799805,63.4599609 110.094727,63.2666016 C110.389648,63.0732422 110.861328,62.9648438 111.509766,62.9414062 L111.509766,62.9414062 L112.341797,62.90625 L112.341797,63.46875 C112.341797,63.9726562 112.19043,64.3642578 111.887695,64.6435547 C111.584961,64.9228516 111.183594,65.0625 110.683594,65.0625 Z M117.509766,68.8828125 C118.654297,68.8828125 119.529297,68.6835938 120.134766,68.2851562 C120.740234,67.8867188 121.042969,67.3203125 121.042969,66.5859375 C121.042969,66.0117188 120.857422,65.5722656 120.486328,65.2675781 C120.115234,64.9628906 119.572266,64.8105469 118.857422,64.8105469 L118.857422,64.8105469 L117.726562,64.8105469 C117.355469,64.8105469 117.100586,64.7734375 116.961914,64.6992188 C116.823242,64.625 116.753906,64.5136719 116.753906,64.3652344 C116.753906,64.1191406 116.902344,63.9042969 117.199219,63.7207031 C117.367188,63.7519531 117.554688,63.7675781 117.761719,63.7675781 C118.570312,63.7675781 119.205078,63.5761719 119.666016,63.1933594 C120.126953,62.8105469 120.357422,62.2851562 120.357422,61.6171875 C120.357422,61.3945312 120.324219,61.1835938 120.257812,60.984375 C120.191406,60.7851562 120.107422,60.6171875 120.005859,60.4804688 L120.005859,60.4804688 L121.113281,60.2753906 L121.113281,59.5195312 L118.869141,59.5195312 C118.767578,59.4921875 118.616211,59.4658203 118.415039,59.4404297 C118.213867,59.4150391 118.021484,59.4023438 117.837891,59.4023438 C117.017578,59.4023438 116.385742,59.5957031 115.942383,59.9824219 C115.499023,60.3691406 115.277344,60.9140625 115.277344,61.6171875 C115.277344,62.0546875 115.381836,62.4365234 115.59082,62.7626953 C115.799805,63.0888672 116.072266,63.3242188 116.408203,63.46875 C116.138672,63.6328125 115.935547,63.7988281 115.798828,63.9667969 C115.662109,64.1347656 115.59375,64.3398438 115.59375,64.5820312 C115.59375,64.7734375 115.65332,64.9560547 115.772461,65.1298828 C115.891602,65.3037109 116.042969,65.4296875 116.226562,65.5078125 C115.773438,65.6132812 115.420898,65.8017578 115.168945,66.0732422 C114.916992,66.3447266 114.791016,66.6796875 114.791016,67.078125 C114.791016,67.65625 115.023438,68.1015625 115.488281,68.4140625 C115.953125,68.7265625 116.626953,68.8828125 117.509766,68.8828125 Z M117.826172,62.8828125 C117.435547,62.8828125 117.135742,62.7734375 116.926758,62.5546875 C116.717773,62.3359375 116.613281,62.0234375 116.613281,61.6171875 C116.613281,61.1835938 116.71582,60.8535156 116.920898,60.6269531 C117.125977,60.4003906 117.427734,60.2871094 117.826172,60.2871094 C118.228516,60.2871094 118.52832,60.4013672 118.725586,60.6298828 C118.922852,60.8583984 119.021484,61.1835938 119.021484,61.6054688 C119.021484,62.4570312 118.623047,62.8828125 117.826172,62.8828125 Z M117.550781,67.9335938 C117.066406,67.9335938 116.69043,67.8535156 116.422852,67.6933594 C116.155273,67.5332031 116.021484,67.3046875 116.021484,67.0078125 C116.021484,66.6914062 116.137695,66.4404297 116.370117,66.2548828 C116.602539,66.0693359 116.916016,65.9765625 117.310547,65.9765625 L117.310547,65.9765625 L118.353516,65.9765625 C118.900391,65.9765625 119.274414,66.0361328 119.475586,66.1552734 C119.676758,66.2744141 119.777344,66.4746094 119.777344,66.7558594 C119.777344,67.1113281 119.59375,67.3964844 119.226562,67.6113281 C118.859375,67.8261719 118.300781,67.9335938 117.550781,67.9335938 Z M123.691406,66 L123.691406,62.6132812 C123.691406,62.0390625 123.862305,61.5722656 124.204102,61.2128906 C124.545898,60.8535156 124.992188,60.6738281 125.542969,60.6738281 C125.753906,60.6738281 125.957031,60.6972656 126.152344,60.7441406 L126.152344,60.7441406 L126.287109,59.4609375 C126.107422,59.421875 125.878906,59.4023438 125.601562,59.4023438 C125.203125,59.4023438 124.831055,59.515625 124.485352,59.7421875 C124.139648,59.96875 123.859375,60.2753906 123.644531,60.6621094 L123.644531,60.6621094 L123.574219,60.6621094 L123.392578,59.5195312 L122.314453,59.5195312 L122.314453,66 L123.691406,66 Z M130.318359,66.1171875 C130.759766,66.1171875 131.152344,66.0839844 131.496094,66.0175781 C131.839844,65.9511719 132.179688,65.8378906 132.515625,65.6777344 L132.515625,65.6777344 L132.515625,64.5585938 C132.136719,64.7265625 131.782227,64.8466797 131.452148,64.9189453 C131.12207,64.9912109 130.765625,65.0273438 130.382812,65.0273438 C129.800781,65.0273438 129.349609,64.8583984 129.029297,64.5205078 C128.708984,64.1826172 128.539062,63.6992188 128.519531,63.0703125 L128.519531,63.0703125 L132.837891,63.0703125 L132.837891,62.3261719 C132.837891,61.4160156 132.589844,60.7011719 132.09375,60.1816406 C131.597656,59.6621094 130.921875,59.4023438 130.066406,59.4023438 C129.144531,59.4023438 128.419922,59.7050781 127.892578,60.3105469 C127.365234,60.9160156 127.101562,61.7480469 127.101562,62.8066406 C127.101562,63.8378906 127.385742,64.6474609 127.954102,65.2353516 C128.522461,65.8232422 129.310547,66.1171875 130.318359,66.1171875 Z M131.484375,62.0742188 L128.542969,62.0742188 C128.59375,61.5429688 128.750977,61.1386719 129.014648,60.8613281 C129.27832,60.5839844 129.628906,60.4453125 130.066406,60.4453125 C130.503906,60.4453125 130.847656,60.5830078 131.097656,60.8583984 C131.347656,61.1337891 131.476562,61.5390625 131.484375,62.0742188 L131.484375,62.0742188 Z M137.232422,66.1171875 C137.673828,66.1171875 138.066406,66.0839844 138.410156,66.0175781 C138.753906,65.9511719 139.09375,65.8378906 139.429688,65.6777344 L139.429688,65.6777344 L139.429688,64.5585938 C139.050781,64.7265625 138.696289,64.8466797 138.366211,64.9189453 C138.036133,64.9912109 137.679688,65.0273438 137.296875,65.0273438 C136.714844,65.0273438 136.263672,64.8583984 135.943359,64.5205078 C135.623047,64.1826172 135.453125,63.6992188 135.433594,63.0703125 L135.433594,63.0703125 L139.751953,63.0703125 L139.751953,62.3261719 C139.751953,61.4160156 139.503906,60.7011719 139.007812,60.1816406 C138.511719,59.6621094 137.835938,59.4023438 136.980469,59.4023438 C136.058594,59.4023438 135.333984,59.7050781 134.806641,60.3105469 C134.279297,60.9160156 134.015625,61.7480469 134.015625,62.8066406 C134.015625,63.8378906 134.299805,64.6474609 134.868164,65.2353516 C135.436523,65.8232422 136.224609,66.1171875 137.232422,66.1171875 Z M138.398438,62.0742188 L135.457031,62.0742188 C135.507812,61.5429688 135.665039,61.1386719 135.928711,60.8613281 C136.192383,60.5839844 136.542969,60.4453125 136.980469,60.4453125 C137.417969,60.4453125 137.761719,60.5830078 138.011719,60.8583984 C138.261719,61.1337891 138.390625,61.5390625 138.398438,62.0742188 L138.398438,62.0742188 Z M143.501953,66.1171875 C144.353516,66.1171875 145,65.7949219 145.441406,65.1503906 L145.441406,65.1503906 L145.505859,65.1503906 L145.746094,66 L146.824219,66 L146.824219,56.8828125 L145.441406,56.8828125 L145.441406,59.2441406 C145.441406,59.5136719 145.474609,59.8808594 145.541016,60.3457031 L145.541016,60.3457031 L145.470703,60.3457031 C145.025391,59.7167969 144.376953,59.4023438 143.525391,59.4023438 C142.712891,59.4023438 142.077148,59.6982422 141.618164,60.2900391 C141.15918,60.8818359 140.929688,61.7089844 140.929688,62.7714844 C140.929688,63.8300781 141.15625,64.6523438 141.609375,65.2382812 C142.0625,65.8242188 142.693359,66.1171875 143.501953,66.1171875 Z M143.871094,65.0039062 C143.363281,65.0039062 142.982422,64.8154297 142.728516,64.4384766 C142.474609,64.0615234 142.347656,63.5136719 142.347656,62.7949219 C142.347656,62.0683594 142.478516,61.5087891 142.740234,61.1162109 C143.001953,60.7236328 143.375,60.5273438 143.859375,60.5273438 C144.425781,60.5273438 144.841797,60.6992188 145.107422,61.0429688 C145.373047,61.3867188 145.505859,61.9667969 145.505859,62.7832031 L145.505859,62.7832031 L145.505859,62.9765625 C145.498047,63.6914062 145.365234,64.2080078 145.107422,64.5263672 C144.849609,64.8447266 144.4375,65.0039062 143.871094,65.0039062 Z M93.9492188,78 L96.421875,71.5195312 L94.9570312,71.5195312 L93.6386719,75.2871094 C93.4003906,76.0292969 93.2636719,76.5410156 93.2285156,76.8222656 L93.2285156,76.8222656 L93.1816406,76.8222656 C93.1347656,76.4316406 92.9980469,75.9199219 92.7714844,75.2871094 L92.7714844,75.2871094 L91.453125,71.5195312 L90,71.5195312 L92.4609375,78 L93.9492188,78 Z M98.9765625,78.1171875 C99.4726562,78.1171875 99.8789062,78.0458984 100.195312,77.9033203 C100.511719,77.7607422 100.826172,77.4921875 101.138672,77.0976562 L101.138672,77.0976562 L101.185547,77.0976562 L101.460938,78 L102.445312,78 L102.445312,73.6347656 C102.445312,72.8652344 102.235352,72.3007812 101.81543,71.9414062 C101.395508,71.5820312 100.773438,71.4023438 99.9492188,71.4023438 C99.578125,71.4023438 99.1835938,71.4501953 98.765625,71.5458984 C98.3476562,71.6416016 97.9628906,71.78125 97.6113281,71.9648438 L97.6113281,71.9648438 L98.0566406,72.9492188 C98.3378906,72.8164062 98.6308594,72.7011719 98.9355469,72.6035156 C99.2402344,72.5058594 99.5585938,72.4570312 99.890625,72.4570312 C100.296875,72.4570312 100.59668,72.5595703 100.790039,72.7646484 C100.983398,72.9697266 101.080078,73.2792969 101.080078,73.6933594 L101.080078,73.6933594 L101.080078,74.0390625 L99.9609375,74.0742188 C98.9453125,74.1054688 98.1894531,74.2910156 97.6933594,74.6308594 C97.1972656,74.9707031 96.9492188,75.4746094 96.9492188,76.1425781 C96.9492188,76.7714844 97.1279297,77.2578125 97.4853516,77.6015625 C97.8427734,77.9453125 98.3398438,78.1171875 98.9765625,78.1171875 Z M99.4101562,77.0625 C99.0664062,77.0625 98.8085938,76.9833984 98.6367188,76.8251953 C98.4648438,76.6669922 98.3789062,76.4433594 98.3789062,76.1542969 C98.3789062,75.7558594 98.5263672,75.4599609 98.8212891,75.2666016 C99.1162109,75.0732422 99.5878906,74.9648438 100.236328,74.9414062 L100.236328,74.9414062 L101.068359,74.90625 L101.068359,75.46875 C101.068359,75.9726562 100.916992,76.3642578 100.614258,76.6435547 C100.311523,76.9228516 99.9101562,77.0625 99.4101562,77.0625 Z M105.744141,78 L105.744141,68.8828125 L104.367188,68.8828125 L104.367188,78 L105.744141,78 Z M109.992188,78.1171875 C110.445312,78.1171875 110.848633,78.03125 111.202148,77.859375 C111.555664,77.6875 111.828125,77.4511719 112.019531,77.1503906 L112.019531,77.1503906 L112.089844,77.1503906 L112.283203,78 L113.367188,78 L113.367188,71.5195312 L111.984375,71.5195312 L111.984375,74.7480469 C111.984375,75.5605469 111.848633,76.1396484 111.577148,76.4853516 C111.305664,76.8310547 110.880859,77.0039062 110.302734,77.0039062 C109.869141,77.0039062 109.550781,76.8798828 109.347656,76.6318359 C109.144531,76.3837891 109.042969,76.0117188 109.042969,75.515625 L109.042969,75.515625 L109.042969,71.5195312 L107.654297,71.5195312 L107.654297,75.7558594 C107.654297,76.5488281 107.847656,77.140625 108.234375,77.53125 C108.621094,77.921875 109.207031,78.1171875 109.992188,78.1171875 Z M118.160156,78.1171875 C118.601562,78.1171875 118.994141,78.0839844 119.337891,78.0175781 C119.681641,77.9511719 120.021484,77.8378906 120.357422,77.6777344 L120.357422,77.6777344 L120.357422,76.5585938 C119.978516,76.7265625 119.624023,76.8466797 119.293945,76.9189453 C118.963867,76.9912109 118.607422,77.0273438 118.224609,77.0273438 C117.642578,77.0273438 117.191406,76.8583984 116.871094,76.5205078 C116.550781,76.1826172 116.380859,75.6992188 116.361328,75.0703125 L116.361328,75.0703125 L120.679688,75.0703125 L120.679688,74.3261719 C120.679688,73.4160156 120.431641,72.7011719 119.935547,72.1816406 C119.439453,71.6621094 118.763672,71.4023438 117.908203,71.4023438 C116.986328,71.4023438 116.261719,71.7050781 115.734375,72.3105469 C115.207031,72.9160156 114.943359,73.7480469 114.943359,74.8066406 C114.943359,75.8378906 115.227539,76.6474609 115.795898,77.2353516 C116.364258,77.8232422 117.152344,78.1171875 118.160156,78.1171875 Z M119.326172,74.0742188 L116.384766,74.0742188 C116.435547,73.5429688 116.592773,73.1386719 116.856445,72.8613281 C117.120117,72.5839844 117.470703,72.4453125 117.908203,72.4453125 C118.345703,72.4453125 118.689453,72.5830078 118.939453,72.8583984 C119.189453,73.1337891 119.318359,73.5390625 119.326172,74.0742188 L119.326172,74.0742188 Z M122.90625,78.1699219 C123.1875,78.1699219 123.40332,78.0888672 123.553711,77.9267578 C123.704102,77.7646484 123.779297,77.5449219 123.779297,77.2675781 C123.779297,76.9941406 123.705078,76.7783203 123.556641,76.6201172 C123.408203,76.4619141 123.191406,76.3828125 122.90625,76.3828125 C122.625,76.3828125 122.410156,76.4589844 122.261719,76.6113281 C122.113281,76.7636719 122.039062,76.9824219 122.039062,77.2675781 C122.039062,77.5488281 122.113281,77.7695312 122.261719,77.9296875 C122.410156,78.0898438 122.625,78.1699219 122.90625,78.1699219 Z" id="Orderbyanagreedvalue." fill="#FFFFFF" fill-rule="nonzero"></path>
            </g>
        </g>
    </g>
</svg>