<?xml version="1.0" encoding="UTF-8"?>
<svg width="163px" height="97px" viewBox="0 0 163 97" version="1.1" xmlns="http://www.w3.org/2000/svg" xmlns:xlink="http://www.w3.org/1999/xlink">
    <!-- Generator: Sketch 62 (91390) - https://sketch.com -->
    <title>Sequence</title>
    <desc>Created with Sketch.</desc>
    <defs>
        <radialGradient cx="25.0216997%" cy="50.0000199%" fx="25.0216997%" fy="50.0000199%" r="50.0190387%" gradientTransform="translate(0.250217,0.500000),scale(0.595092,1.000000),rotate(91.580894),translate(-0.250217,-0.500000)" id="radialGradient-1">
            <stop stop-color="#80C3F3" offset="0%"></stop>
            <stop stop-color="#4A90E2" offset="100%"></stop>
        </radialGradient>
    </defs>
    <g id="Symbols" stroke="none" stroke-width="1" fill="none" fill-rule="evenodd">
        <g id="i/Sequence">
            <g id="Sequence">
                <g id="Group-2" fill-rule="nonzero">
                    <g id="Group-3" fill="url(#radialGradient-1)">
                        <g id="blue-icon">
                            <rect id="Rectangle-2" x="0" y="0" width="163" height="97" rx="6"></rect>
                        </g>
                    </g>
                    <path d="M52.8895958,16.3352822 C52.8895958,17.5244059 52.5144616,18.4573968 51.7641818,19.1342826 C51.013902,19.8111685 49.9789572,20.1496063 48.6593162,20.1496063 C47.3396753,20.1496063 46.2595015,19.9148341 45.4187625,19.4452827 L45.4187625,17.3780471 C45.9508758,17.6646564 46.5162377,17.8902816 47.1148652,18.0549295 C47.7134926,18.2195774 48.2708729,18.3019001 48.7870228,18.3019001 C49.5426237,18.3019001 50.100004,18.1372547 50.4591805,17.8079589 C50.818357,17.4786631 50.9979425,17.0365596 50.9979425,16.4816352 C50.9979425,15.9815934 50.8329898,15.5577838 50.5030796,15.2101938 C50.1731694,14.8626037 49.4920745,14.4509902 48.4597748,13.9753407 C47.3955482,13.4813969 46.6452797,12.9173339 46.2089467,12.2831345 C45.7726139,11.6489352 45.5544507,10.8866878 45.5544507,9.99636945 C45.5544507,8.88042256 45.9003191,8.00231356 46.5920664,7.3620161 C47.2838137,6.72171872 48.2123375,6.4015748 49.3776656,6.4015748 C50.4951035,6.4015748 51.6072036,6.68208185 52.7139993,7.24310434 L52.1073932,9.02678105 C51.0697723,8.52673933 50.143909,8.27672213 49.3297756,8.27672213 C48.7125243,8.27672213 48.2442716,8.43069611 47.9250035,8.73864866 C47.6057356,9.04660128 47.446104,9.45364139 47.446104,9.9597812 C47.446104,10.3073712 47.5099566,10.6046477 47.6376638,10.8516196 C47.765371,11.0985914 47.9755526,11.3318392 48.2682149,11.5513697 C48.5608773,11.7709003 49.0876615,12.0605543 49.8485835,12.4203404 C50.7052859,12.8289111 51.3331702,13.2100348 51.7322552,13.5637229 C52.1313401,13.9174111 52.4239981,14.3168286 52.6102377,14.7619878 C52.7964774,15.207147 52.8895958,15.7315732 52.8895958,16.3352822 Z M58.818256,19.3858268 C57.3863796,19.3858268 56.2667023,18.9511788 55.4591906,18.0818698 C54.6516789,17.2125609 54.2479291,16.0154739 54.2479291,14.4905731 C54.2479291,12.9252394 54.6225423,11.6949402 55.37178,10.7996386 C56.1210177,9.90433699 57.1505103,9.45669291 58.4602887,9.45669291 C59.6757186,9.45669291 60.6358384,9.84080039 61.3406768,10.6090269 C62.0455153,11.3772535 62.3979291,12.4342711 62.3979291,13.7801116 L62.3979291,14.8804606 L56.2625359,14.8804606 C56.2902855,15.8104191 56.5317029,16.5252056 56.9867953,17.0248417 C57.4418879,17.5244777 58.0828927,17.774292 58.909829,17.774292 C59.4537201,17.774292 59.9601416,17.7208635 60.4291089,17.6140049 C60.8980762,17.5071463 61.4017229,17.3295327 61.940064,17.0811587 L61.940064,18.7360144 C61.4627719,18.9728361 60.9799371,19.1403416 60.4915451,19.2385359 C60.0031531,19.3367303 59.4453957,19.3858268 58.818256,19.3858268 Z M58.3959869,10.984252 C57.789875,10.984252 57.304181,11.179316 56.9388903,11.56945 C56.5735996,11.9595839 56.3557814,12.5282917 56.2854291,13.2755906 L60.3604291,13.2755906 C60.3496057,12.5227969 60.1710219,11.9527153 59.8246722,11.5653289 C59.4783225,11.1779423 59.0020989,10.984252 58.3959869,10.984252 Z M67.7745603,17.8582677 C68.5205133,17.8582677 69.0560289,17.6025139 69.3811233,17.0909983 C69.7062177,16.5794829 69.8687625,15.8062386 69.8687625,14.7712423 L69.8687625,14.4392077 C69.8687625,13.212767 69.7011776,12.3303413 69.3660028,11.791904 C69.0308279,11.2534666 68.4902721,10.984252 67.7443191,10.984252 C67.1092509,10.984252 66.6253968,11.2833793 66.2927421,11.881643 C65.9600873,12.4799068 65.7937625,13.3384023 65.7937625,14.4571555 C65.7937625,16.7245749 66.4540218,17.8582677 67.7745603,17.8582677 Z M67.2965707,19.735145 C66.1893749,19.735145 65.3225346,19.2852056 64.6960239,18.3853133 C64.0695132,17.4854211 63.7562625,16.2282815 63.7562625,14.6138569 C63.7562625,12.9994323 64.074914,11.7363134 64.7122267,10.8244625 C65.3495393,9.91261155 66.2271813,9.45669291 67.345179,9.45669291 C67.9068782,9.45669291 68.4105097,9.57179365 68.8560885,9.80199871 C69.3016673,10.0322037 69.6999817,10.4103919 70.051044,10.9365748 L70.1158549,10.9365748 L70.3264909,9.63607249 L71.9062625,9.63607249 L71.9062625,23.9685039 L69.9943343,23.9685039 L69.9943343,19.7620519 C69.9943343,19.4989605 70.0051357,19.2209249 70.0267394,18.9279367 C70.0483437,18.6349485 70.0672462,18.4107263 70.0834491,18.2552631 L69.9781314,18.2552631 C69.416432,19.2418559 68.5225874,19.735145 67.2965707,19.735145 Z M80.6762201,19.2094656 L80.4233609,17.9308471 L80.3314119,17.9308471 C80.0811057,18.3835097 79.7248081,18.7391679 79.2625082,18.9978322 C78.8002082,19.2564965 78.2727851,19.3858268 77.6802237,19.3858268 C76.6534582,19.3858268 75.8872264,19.0918944 75.381506,18.5040209 C74.8757856,17.9161474 74.6229291,17.0255324 74.6229291,15.8321492 L74.6229291,9.45669291 L76.4389162,9.45669291 L76.4389162,15.4706088 C76.4389162,16.2172081 76.57173,16.7771493 76.8373609,17.1504489 C77.1029918,17.5237486 77.5193108,17.7103956 78.0863307,17.7103956 C78.8423573,17.7103956 79.3978756,17.4502656 79.7529011,16.9299975 C80.1079274,16.4097294 80.2854378,15.53822 80.2854378,14.3154432 L80.2854378,9.45669291 L82.0937625,9.45669291 L82.0937625,19.2094656 L80.6762201,19.2094656 Z M88.7015896,19.3858268 C87.2697127,19.3858268 86.1500358,18.9511788 85.3425243,18.0818698 C84.5350121,17.2125609 84.1312625,16.0154739 84.1312625,14.4905731 C84.1312625,12.9252394 84.5058759,11.6949402 85.2551135,10.7996386 C86.0043512,9.90433699 87.0338435,9.45669291 88.3436219,9.45669291 C89.5590518,9.45669291 90.519172,9.84080039 91.2240098,10.6090269 C91.9288483,11.3772535 92.2812625,12.4342711 92.2812625,13.7801116 L92.2812625,14.8804606 L86.1458691,14.8804606 C86.1736185,15.8104191 86.4150365,16.5252056 86.8701284,17.0248417 C87.325221,17.5244777 87.966226,17.774292 88.7931623,17.774292 C89.3370532,17.774292 89.8434752,17.7208635 90.3124425,17.6140049 C90.7814098,17.5071463 91.2850561,17.3295327 91.8233975,17.0811587 L91.8233975,18.7360144 C91.346105,18.9728361 90.8632705,19.1403416 90.3748783,19.2385359 C89.8864862,19.3367303 89.3287287,19.3858268 88.7015896,19.3858268 Z M88.2793204,10.984252 C87.6732083,10.984252 87.1875145,11.179316 86.8222234,11.56945 C86.4569329,11.9595839 86.2391146,12.5282917 86.1687625,13.2755906 L90.2437625,13.2755906 C90.2329393,12.5227969 90.0543551,11.9527153 89.7080052,11.5653289 C89.3616561,11.1779423 88.8854319,10.984252 88.2793204,10.984252 Z M101.789596,19.3858268 L99.977554,19.3858268 L99.977554,13.389547 C99.977554,12.6370689 99.8457475,12.0756582 99.5821296,11.7052978 C99.3185117,11.3349375 98.9000575,11.1497602 98.3267532,11.1497602 C97.5640538,11.1497602 97.0061143,11.4084206 96.6529177,11.9257493 C96.2997219,12.443078 96.1231263,13.3101784 96.1231263,14.5270765 L96.1231263,19.3858268 L94.3187625,19.3858268 L94.3187625,9.63305411 L95.7315405,9.63305411 L95.9849193,10.9116726 L96.0770571,10.9116726 C96.3329969,10.4472525 96.6964251,10.088655 97.1673539,9.83586943 C97.6382819,9.58308384 98.1603906,9.45669291 98.7336949,9.45669291 C100.770972,9.45669291 101.789596,10.6471189 101.789596,13.0280066 L101.789596,19.3858268 Z M108.616585,19.3858268 C107.273231,19.3858268 106.25235,18.9627309 105.553913,18.1165265 C104.855476,17.2703221 104.506262,16.0559071 104.506262,14.4732448 C104.506262,12.8617019 104.871532,11.6227387 105.602081,10.7563178 C106.332631,9.8898969 107.388299,9.45669291 108.769117,9.45669291 C109.705719,9.45669291 110.548648,9.64441465 111.297929,10.0198637 L110.727943,11.657391 C109.930494,11.322375 109.272206,11.1548694 108.753061,11.1548694 C107.217034,11.1548694 106.449032,12.2552075 106.449032,14.4559165 C106.449032,15.5302784 106.640364,16.3374818 107.023033,16.8775508 C107.405701,17.4176199 107.966316,17.6876503 108.704893,17.6876503 C109.545159,17.6876503 110.33992,17.4623842 111.089202,17.0118454 L111.089202,18.7879994 C110.752025,19.0017165 110.392108,19.1547819 110.009439,19.2472001 C109.62677,19.3396183 109.162491,19.3858268 108.616585,19.3858268 Z M116.547423,19.3858268 C115.115546,19.3858268 113.995869,18.9511788 113.188358,18.0818698 C112.380845,17.2125609 111.977096,16.0154739 111.977096,14.4905731 C111.977096,12.9252394 112.351709,11.6949402 113.100947,10.7996386 C113.850185,9.90433699 114.879677,9.45669291 116.189455,9.45669291 C117.404885,9.45669291 118.365005,9.84080039 119.069843,10.6090269 C119.774682,11.3772535 120.127096,12.4342711 120.127096,13.7801116 L120.127096,14.8804606 L113.991702,14.8804606 C114.019452,15.8104191 114.26087,16.5252056 114.715962,17.0248417 C115.171054,17.5244777 115.812059,17.774292 116.638996,17.774292 C117.182887,17.774292 117.689309,17.7208635 118.158276,17.6140049 C118.627243,17.5071463 119.130889,17.3295327 119.669231,17.0811587 L119.669231,18.7360144 C119.191938,18.9728361 118.709104,19.1403416 118.220712,19.2385359 C117.73232,19.3367303 117.174562,19.3858268 116.547423,19.3858268 Z M116.125154,10.984252 C115.519042,10.984252 115.033348,11.179316 114.668057,11.56945 C114.302766,11.9595839 114.084948,12.5282917 114.014596,13.2755906 L118.089596,13.2755906 C118.078773,12.5227969 117.900188,11.9527153 117.553839,11.5653289 C117.207489,11.1779423 116.731265,10.984252 116.125154,10.984252 Z" id="Sequence" fill="#FFFFFF"></path>
                </g>
                <line x1="2" y1="27.7937466" x2="161" y2="27.7937466" id="Line-2" stroke="#FFFFFF" stroke-width="4" stroke-linecap="square"></line>
                <line x1="80.8208333" y1="39.7165354" x2="80.8208333" y2="86.3070866" id="Line-3" stroke="#FFFFFF" stroke-width="2" stroke-linecap="square"></line>
                <g id="Group-4" transform="translate(17.658333, 38.188976)" fill-rule="nonzero">
                    <path d="M41.923106,3.05511811 L14.9416667,3.05511811 L14.9416667,6.39665358 L41.923106,6.39665358 C42.7041477,6.39665358 43.3431817,7.14515747 43.3431817,8.06742126 L43.3431817,18.0920276 C43.3431817,19.0142913 42.7041477,19.7627954 41.923106,19.7627954 L37.6628788,19.7627954 L37.6628788,13.0797244 L29.1424242,21.4335631 L37.6628788,29.7874016 L37.6628788,23.1043307 L41.923106,23.1043307 C44.2719113,23.1043307 46.1833333,20.8554774 46.1833333,18.0920276 L46.1833333,8.06742126 C46.1833333,5.30397146 44.2719113,3.05511811 41.923106,3.05511811 Z" id="Shape" fill="#FFFFFF"></path>
                    <path d="M22.7212122,40.2257217 L4.26022728,40.2257217 C3.47634547,40.2257217 2.84015158,39.4619422 2.84015158,38.5284339 L2.84015158,24.9501312 C2.84015158,24.0132283 3.47634547,23.2528434 4.26022728,23.2528434 L11.360606,23.2528434 L11.360606,19.8582677 L4.26022728,19.8582677 C1.91142198,19.8582677 0,22.1428171 0,24.9501312 L0,38.5284339 C0,41.335748 1.91142198,43.6202975 4.26022728,43.6202975 L22.7212122,43.6202975 L22.7212122,50.4094488 L31.2416667,41.9230096 L22.7212122,33.4365704 L22.7212122,40.2257217 Z" id="Shape" fill="#FFFFFF"></path>
                    <path d="M1.4432292,9.92913386 L10.1026042,9.92913386 C10.8963803,9.92913386 11.5458333,9.18444874 11.5458333,8.27427819 L11.5458333,1.65485562 C11.5458333,0.74468503 10.8963803,0 10.1026042,0 L1.4432292,0 C0.649453151,0 0,0.74468503 0,1.65485562 L0,8.27427819 C0,9.18444874 0.649453151,9.92913386 1.4432292,9.92913386 Z" id="Shape" fill="#BDC3C7"></path>
                    <path d="M16.3848958,26.7322835 L25.0442708,26.7322835 C25.8380469,26.7322835 26.4875,25.9875984 26.4875,25.0774278 L26.4875,18.4580052 C26.4875,17.5478346 25.8380469,16.8031496 25.0442708,16.8031496 L16.3848958,16.8031496 C15.5911197,16.8031496 14.9416667,17.5478346 14.9416667,18.4580052 L14.9416667,25.0774278 C14.9416667,25.9875984 15.5911197,26.7322835 16.3848958,26.7322835 Z" id="Shape" fill="#BDC3C7"></path>
                    <path d="M44.0609375,36.6614173 L35.4015624,36.6614173 C34.6077864,36.6614173 33.9583333,37.4061024 33.9583333,38.3162729 L33.9583333,44.9356955 C33.9583333,45.8458661 34.6077864,46.5905512 35.4015624,46.5905512 L44.0609375,46.5905512 C44.8547135,46.5905512 45.5041667,45.8458661 45.5041667,44.9356955 L45.5041667,38.3162729 C45.5041667,37.4061024 44.8547135,36.6614173 44.0609375,36.6614173 Z" id="Shape" fill="#BDC3C7"></path>
                </g>
                <path d="M102.728516,54.1171875 C104.005859,54.1171875 104.993164,53.7304688 105.69043,52.9570312 C106.387695,52.1835938 106.736328,51.0996094 106.736328,49.7050781 C106.736328,48.3066406 106.388672,47.2226562 105.693359,46.453125 C104.998047,45.6835938 104.013672,45.2988281 102.740234,45.2988281 C101.447266,45.2988281 100.452148,45.6777344 99.7548828,46.4355469 C99.0576172,47.1933594 98.7089844,48.2792969 98.7089844,49.6933594 C98.7089844,51.1074219 99.0556641,52.1982422 99.7490234,52.9658203 C100.442383,53.7333984 101.435547,54.1171875 102.728516,54.1171875 Z M102.728516,52.921875 C101.892578,52.921875 101.261719,52.6494141 100.835938,52.1044922 C100.410156,51.5595703 100.197266,50.7597656 100.197266,49.7050781 C100.197266,48.6542969 100.411133,47.8574219 100.838867,47.3144531 C101.266602,46.7714844 101.900391,46.5 102.740234,46.5 C103.572266,46.5 104.198242,46.7714844 104.618164,47.3144531 C105.038086,47.8574219 105.248047,48.6542969 105.248047,49.7050781 C105.248047,50.7714844 105.036133,51.5742188 104.612305,52.1132812 C104.188477,52.6523438 103.560547,52.921875 102.728516,52.921875 Z M109.806641,54 L109.806641,50.6132812 C109.806641,50.0390625 109.977539,49.5722656 110.319336,49.2128906 C110.661133,48.8535156 111.107422,48.6738281 111.658203,48.6738281 C111.869141,48.6738281 112.072266,48.6972656 112.267578,48.7441406 L112.267578,48.7441406 L112.402344,47.4609375 C112.222656,47.421875 111.994141,47.4023438 111.716797,47.4023438 C111.318359,47.4023438 110.946289,47.515625 110.600586,47.7421875 C110.254883,47.96875 109.974609,48.2753906 109.759766,48.6621094 L109.759766,48.6621094 L109.689453,48.6621094 L109.507812,47.5195312 L108.429688,47.5195312 L108.429688,54 L109.806641,54 Z M115.789062,54.1171875 C116.640625,54.1171875 117.287109,53.7949219 117.728516,53.1503906 L117.728516,53.1503906 L117.792969,53.1503906 L118.033203,54 L119.111328,54 L119.111328,44.8828125 L117.728516,44.8828125 L117.728516,47.2441406 C117.728516,47.5136719 117.761719,47.8808594 117.828125,48.3457031 L117.828125,48.3457031 L117.757812,48.3457031 C117.3125,47.7167969 116.664062,47.4023438 115.8125,47.4023438 C115,47.4023438 114.364258,47.6982422 113.905273,48.2900391 C113.446289,48.8818359 113.216797,49.7089844 113.216797,50.7714844 C113.216797,51.8300781 113.443359,52.6523438 113.896484,53.2382812 C114.349609,53.8242188 114.980469,54.1171875 115.789062,54.1171875 Z M116.158203,53.0039062 C115.650391,53.0039062 115.269531,52.8154297 115.015625,52.4384766 C114.761719,52.0615234 114.634766,51.5136719 114.634766,50.7949219 C114.634766,50.0683594 114.765625,49.5087891 115.027344,49.1162109 C115.289062,48.7236328 115.662109,48.5273438 116.146484,48.5273438 C116.712891,48.5273438 117.128906,48.6992188 117.394531,49.0429688 C117.660156,49.3867188 117.792969,49.9667969 117.792969,50.7832031 L117.792969,50.7832031 L117.792969,50.9765625 C117.785156,51.6914062 117.652344,52.2080078 117.394531,52.5263672 C117.136719,52.8447266 116.724609,53.0039062 116.158203,53.0039062 Z M123.910156,54.1171875 C124.351562,54.1171875 124.744141,54.0839844 125.087891,54.0175781 C125.431641,53.9511719 125.771484,53.8378906 126.107422,53.6777344 L126.107422,53.6777344 L126.107422,52.5585938 C125.728516,52.7265625 125.374023,52.8466797 125.043945,52.9189453 C124.713867,52.9912109 124.357422,53.0273438 123.974609,53.0273438 C123.392578,53.0273438 122.941406,52.8583984 122.621094,52.5205078 C122.300781,52.1826172 122.130859,51.6992188 122.111328,51.0703125 L122.111328,51.0703125 L126.429688,51.0703125 L126.429688,50.3261719 C126.429688,49.4160156 126.181641,48.7011719 125.685547,48.1816406 C125.189453,47.6621094 124.513672,47.4023438 123.658203,47.4023438 C122.736328,47.4023438 122.011719,47.7050781 121.484375,48.3105469 C120.957031,48.9160156 120.693359,49.7480469 120.693359,50.8066406 C120.693359,51.8378906 120.977539,52.6474609 121.545898,53.2353516 C122.114258,53.8232422 122.902344,54.1171875 123.910156,54.1171875 Z M125.076172,50.0742188 L122.134766,50.0742188 C122.185547,49.5429688 122.342773,49.1386719 122.606445,48.8613281 C122.870117,48.5839844 123.220703,48.4453125 123.658203,48.4453125 C124.095703,48.4453125 124.439453,48.5830078 124.689453,48.8583984 C124.939453,49.1337891 125.068359,49.5390625 125.076172,50.0742188 L125.076172,50.0742188 Z M129.371094,54 L129.371094,50.6132812 C129.371094,50.0390625 129.541992,49.5722656 129.883789,49.2128906 C130.225586,48.8535156 130.671875,48.6738281 131.222656,48.6738281 C131.433594,48.6738281 131.636719,48.6972656 131.832031,48.7441406 L131.832031,48.7441406 L131.966797,47.4609375 C131.787109,47.421875 131.558594,47.4023438 131.28125,47.4023438 C130.882812,47.4023438 130.510742,47.515625 130.165039,47.7421875 C129.819336,47.96875 129.539062,48.2753906 129.324219,48.6621094 L129.324219,48.6621094 L129.253906,48.6621094 L129.072266,47.5195312 L127.994141,47.5195312 L127.994141,54 L129.371094,54 Z M139.572266,54.1171875 C140.384766,54.1171875 141.019531,53.8212891 141.476562,53.2294922 C141.933594,52.6376953 142.162109,51.8105469 142.162109,50.7480469 C142.162109,49.6894531 141.936523,48.8671875 141.485352,48.28125 C141.03418,47.6953125 140.404297,47.4023438 139.595703,47.4023438 C138.744141,47.4023438 138.099609,47.7246094 137.662109,48.3691406 L137.662109,48.3691406 L137.603516,48.3691406 C137.611328,48.2832031 137.623047,48.0820312 137.638672,47.765625 C137.654297,47.4492188 137.662109,47.2109375 137.662109,47.0507812 L137.662109,47.0507812 L137.662109,44.8828125 L136.285156,44.8828125 L136.285156,54 L137.316406,54 L137.568359,53.2324219 L137.662109,53.2324219 C138.115234,53.8222656 138.751953,54.1171875 139.572266,54.1171875 Z M139.261719,52.9921875 C138.695312,52.9921875 138.287109,52.8154297 138.037109,52.4619141 C137.787109,52.1083984 137.662109,51.5371094 137.662109,50.7480469 L137.662109,50.7480469 L137.662109,50.6542969 C137.669922,49.8886719 137.795898,49.3427734 138.040039,49.0166016 C138.28418,48.6904297 138.683594,48.5273438 139.238281,48.5273438 C140.246094,48.5273438 140.75,49.2636719 140.75,50.7363281 C140.75,51.4667969 140.624023,52.0253906 140.37207,52.4121094 C140.120117,52.7988281 139.75,52.9921875 139.261719,52.9921875 Z M143.919922,56.8828125 C145.095703,56.8828125 145.935547,56.2089844 146.439453,54.8613281 L146.439453,54.8613281 L149.210938,47.5195312 L147.722656,47.5195312 C146.824219,50.125 146.328125,51.5810547 146.234375,51.8876953 C146.140625,52.1943359 146.076172,52.4550781 146.041016,52.6699219 L146.041016,52.6699219 L145.994141,52.6699219 C145.927734,52.2089844 145.794922,51.7167969 145.595703,51.1933594 L145.595703,51.1933594 L144.277344,47.5195312 L142.777344,47.5195312 L145.378906,54 L145.138672,54.609375 C144.869141,55.3789062 144.402344,55.7636719 143.738281,55.7636719 C143.472656,55.7636719 143.236328,55.7402344 143.029297,55.6933594 L143.029297,55.6933594 L143.029297,56.7832031 C143.318359,56.8496094 143.615234,56.8828125 143.919922,56.8828125 Z M101.070312,66.1171875 C101.328125,66.1171875 101.577148,66.0947266 101.817383,66.0498047 C102.057617,66.0048828 102.253906,65.9492188 102.40625,65.8828125 L102.40625,65.8828125 L102.40625,64.8457031 C102.070312,64.9511719 101.734375,65.0039062 101.398438,65.0039062 C101.128906,65.0039062 100.911133,64.9248047 100.745117,64.7666016 C100.579102,64.6083984 100.496094,64.3632812 100.496094,64.03125 L100.496094,64.03125 L100.496094,60.5625 L102.341797,60.5625 L102.341797,59.5195312 L100.496094,59.5195312 L100.496094,58.078125 L99.6464844,58.078125 L99.1777344,59.4492188 L98.2285156,59.953125 L98.2285156,60.5625 L99.1132812,60.5625 L99.1132812,64.0546875 C99.1132812,65.4296875 99.765625,66.1171875 101.070312,66.1171875 Z M104.398438,58.5585938 C104.640625,58.5585938 104.829102,58.4912109 104.963867,58.3564453 C105.098633,58.2216797 105.166016,58.0371094 105.166016,57.8027344 C105.166016,57.5566406 105.098633,57.3671875 104.963867,57.234375 C104.829102,57.1015625 104.640625,57.0351562 104.398438,57.0351562 C104.148438,57.0351562 103.956055,57.1015625 103.821289,57.234375 C103.686523,57.3671875 103.619141,57.5566406 103.619141,57.8027344 C103.619141,58.0371094 103.686523,58.2216797 103.821289,58.3564453 C103.956055,58.4912109 104.148438,58.5585938 104.398438,58.5585938 Z M105.078125,66 L105.078125,59.5195312 L103.701172,59.5195312 L103.701172,66 L105.078125,66 Z M108.423828,66 L108.423828,62.7714844 C108.423828,61.9667969 108.547852,61.3916016 108.795898,61.0458984 C109.043945,60.7001953 109.433594,60.5273438 109.964844,60.5273438 C110.363281,60.5273438 110.65625,60.6494141 110.84375,60.8935547 C111.03125,61.1376953 111.125,61.5078125 111.125,62.0039062 L111.125,62.0039062 L111.125,66 L112.507812,66 L112.507812,62.5664062 C112.507812,61.875 112.631836,61.3623047 112.879883,61.0283203 C113.12793,60.6943359 113.519531,60.5273438 114.054688,60.5273438 C114.453125,60.5273438 114.74707,60.6494141 114.936523,60.8935547 C115.125977,61.1376953 115.220703,61.5078125 115.220703,62.0039062 L115.220703,62.0039062 L115.220703,66 L116.597656,66 L116.597656,61.7753906 C116.597656,60.9746094 116.420898,60.3789062 116.067383,59.9882812 C115.713867,59.5976562 115.150391,59.4023438 114.376953,59.4023438 C113.927734,59.4023438 113.529297,59.4921875 113.181641,59.671875 C112.833984,59.8515625 112.564453,60.1015625 112.373047,60.421875 L112.373047,60.421875 L112.279297,60.421875 C111.955078,59.7421875 111.294922,59.4023438 110.298828,59.4023438 C109.888672,59.4023438 109.512695,59.4863281 109.170898,59.6542969 C108.829102,59.8222656 108.568359,60.0605469 108.388672,60.3691406 L108.388672,60.3691406 L108.318359,60.3691406 L108.125,59.5195312 L107.046875,59.5195312 L107.046875,66 L108.423828,66 Z M121.349609,66.1171875 C121.791016,66.1171875 122.183594,66.0839844 122.527344,66.0175781 C122.871094,65.9511719 123.210938,65.8378906 123.546875,65.6777344 L123.546875,65.6777344 L123.546875,64.5585938 C123.167969,64.7265625 122.813477,64.8466797 122.483398,64.9189453 C122.15332,64.9912109 121.796875,65.0273438 121.414062,65.0273438 C120.832031,65.0273438 120.380859,64.8583984 120.060547,64.5205078 C119.740234,64.1826172 119.570312,63.6992188 119.550781,63.0703125 L119.550781,63.0703125 L123.869141,63.0703125 L123.869141,62.3261719 C123.869141,61.4160156 123.621094,60.7011719 123.125,60.1816406 C122.628906,59.6621094 121.953125,59.4023438 121.097656,59.4023438 C120.175781,59.4023438 119.451172,59.7050781 118.923828,60.3105469 C118.396484,60.9160156 118.132812,61.7480469 118.132812,62.8066406 C118.132812,63.8378906 118.416992,64.6474609 118.985352,65.2353516 C119.553711,65.8232422 120.341797,66.1171875 121.349609,66.1171875 Z M122.515625,62.0742188 L119.574219,62.0742188 C119.625,61.5429688 119.782227,61.1386719 120.045898,60.8613281 C120.30957,60.5839844 120.660156,60.4453125 121.097656,60.4453125 C121.535156,60.4453125 121.878906,60.5830078 122.128906,60.8583984 C122.378906,61.1337891 122.507812,61.5390625 122.515625,62.0742188 L122.515625,62.0742188 Z M131.216797,66.1171875 C132.185547,66.1171875 132.941406,65.8203125 133.484375,65.2265625 C134.027344,64.6328125 134.298828,63.8066406 134.298828,62.7480469 C134.298828,61.7246094 134.025391,60.9111328 133.478516,60.3076172 C132.931641,59.7041016 132.189453,59.4023438 131.251953,59.4023438 C130.271484,59.4023438 129.511719,59.6972656 128.972656,60.2871094 C128.433594,60.8769531 128.164062,61.6972656 128.164062,62.7480469 C128.164062,63.4238281 128.289062,64.0175781 128.539062,64.5292969 C128.789062,65.0410156 129.146484,65.4335938 129.611328,65.7070312 C130.076172,65.9804688 130.611328,66.1171875 131.216797,66.1171875 Z M131.240234,64.9921875 C130.134766,64.9921875 129.582031,64.2441406 129.582031,62.7480469 C129.582031,62.0332031 129.711914,61.484375 129.97168,61.1015625 C130.231445,60.71875 130.650391,60.5273438 131.228516,60.5273438 C132.330078,60.5273438 132.880859,61.2675781 132.880859,62.7480469 C132.880859,64.2441406 132.333984,64.9921875 131.240234,64.9921875 Z M137.257812,66 L137.257812,62.6132812 C137.257812,62.0390625 137.428711,61.5722656 137.770508,61.2128906 C138.112305,60.8535156 138.558594,60.6738281 139.109375,60.6738281 C139.320312,60.6738281 139.523438,60.6972656 139.71875,60.7441406 L139.71875,60.7441406 L139.853516,59.4609375 C139.673828,59.421875 139.445312,59.4023438 139.167969,59.4023438 C138.769531,59.4023438 138.397461,59.515625 138.051758,59.7421875 C137.706055,59.96875 137.425781,60.2753906 137.210938,60.6621094 L137.210938,60.6621094 L137.140625,60.6621094 L136.958984,59.5195312 L135.880859,59.5195312 L135.880859,66 L137.257812,66 Z M100.361328,78 L100.361328,68.8828125 L98.984375,68.8828125 L98.984375,78 L100.361328,78 Z M104.996094,78.1171875 C105.964844,78.1171875 106.720703,77.8203125 107.263672,77.2265625 C107.806641,76.6328125 108.078125,75.8066406 108.078125,74.7480469 C108.078125,73.7246094 107.804688,72.9111328 107.257812,72.3076172 C106.710938,71.7041016 105.96875,71.4023438 105.03125,71.4023438 C104.050781,71.4023438 103.291016,71.6972656 102.751953,72.2871094 C102.212891,72.8769531 101.943359,73.6972656 101.943359,74.7480469 C101.943359,75.4238281 102.068359,76.0175781 102.318359,76.5292969 C102.568359,77.0410156 102.925781,77.4335938 103.390625,77.7070312 C103.855469,77.9804688 104.390625,78.1171875 104.996094,78.1171875 Z M105.019531,76.9921875 C103.914062,76.9921875 103.361328,76.2441406 103.361328,74.7480469 C103.361328,74.0332031 103.491211,73.484375 103.750977,73.1015625 C104.010742,72.71875 104.429688,72.5273438 105.007812,72.5273438 C106.109375,72.5273438 106.660156,73.2675781 106.660156,74.7480469 C106.660156,76.2441406 106.113281,76.9921875 105.019531,76.9921875 Z M111.529297,80.8828125 C112.673828,80.8828125 113.548828,80.6835938 114.154297,80.2851562 C114.759766,79.8867188 115.0625,79.3203125 115.0625,78.5859375 C115.0625,78.0117188 114.876953,77.5722656 114.505859,77.2675781 C114.134766,76.9628906 113.591797,76.8105469 112.876953,76.8105469 L112.876953,76.8105469 L111.746094,76.8105469 C111.375,76.8105469 111.120117,76.7734375 110.981445,76.6992188 C110.842773,76.625 110.773438,76.5136719 110.773438,76.3652344 C110.773438,76.1191406 110.921875,75.9042969 111.21875,75.7207031 C111.386719,75.7519531 111.574219,75.7675781 111.78125,75.7675781 C112.589844,75.7675781 113.224609,75.5761719 113.685547,75.1933594 C114.146484,74.8105469 114.376953,74.2851562 114.376953,73.6171875 C114.376953,73.3945312 114.34375,73.1835938 114.277344,72.984375 C114.210938,72.7851562 114.126953,72.6171875 114.025391,72.4804688 L114.025391,72.4804688 L115.132812,72.2753906 L115.132812,71.5195312 L112.888672,71.5195312 C112.787109,71.4921875 112.635742,71.4658203 112.43457,71.4404297 C112.233398,71.4150391 112.041016,71.4023438 111.857422,71.4023438 C111.037109,71.4023438 110.405273,71.5957031 109.961914,71.9824219 C109.518555,72.3691406 109.296875,72.9140625 109.296875,73.6171875 C109.296875,74.0546875 109.401367,74.4365234 109.610352,74.7626953 C109.819336,75.0888672 110.091797,75.3242188 110.427734,75.46875 C110.158203,75.6328125 109.955078,75.7988281 109.818359,75.9667969 C109.681641,76.1347656 109.613281,76.3398438 109.613281,76.5820312 C109.613281,76.7734375 109.672852,76.9560547 109.791992,77.1298828 C109.911133,77.3037109 110.0625,77.4296875 110.246094,77.5078125 C109.792969,77.6132812 109.44043,77.8017578 109.188477,78.0732422 C108.936523,78.3447266 108.810547,78.6796875 108.810547,79.078125 C108.810547,79.65625 109.042969,80.1015625 109.507812,80.4140625 C109.972656,80.7265625 110.646484,80.8828125 111.529297,80.8828125 Z M111.845703,74.8828125 C111.455078,74.8828125 111.155273,74.7734375 110.946289,74.5546875 C110.737305,74.3359375 110.632812,74.0234375 110.632812,73.6171875 C110.632812,73.1835938 110.735352,72.8535156 110.94043,72.6269531 C111.145508,72.4003906 111.447266,72.2871094 111.845703,72.2871094 C112.248047,72.2871094 112.547852,72.4013672 112.745117,72.6298828 C112.942383,72.8583984 113.041016,73.1835938 113.041016,73.6054688 C113.041016,74.4570312 112.642578,74.8828125 111.845703,74.8828125 Z M111.570312,79.9335938 C111.085938,79.9335938 110.709961,79.8535156 110.442383,79.6933594 C110.174805,79.5332031 110.041016,79.3046875 110.041016,79.0078125 C110.041016,78.6914062 110.157227,78.4404297 110.389648,78.2548828 C110.62207,78.0693359 110.935547,77.9765625 111.330078,77.9765625 L111.330078,77.9765625 L112.373047,77.9765625 C112.919922,77.9765625 113.293945,78.0361328 113.495117,78.1552734 C113.696289,78.2744141 113.796875,78.4746094 113.796875,78.7558594 C113.796875,79.1113281 113.613281,79.3964844 113.246094,79.6113281 C112.878906,79.8261719 112.320312,79.9335938 111.570312,79.9335938 Z M117.03125,70.5585938 C117.273438,70.5585938 117.461914,70.4912109 117.59668,70.3564453 C117.731445,70.2216797 117.798828,70.0371094 117.798828,69.8027344 C117.798828,69.5566406 117.731445,69.3671875 117.59668,69.234375 C117.461914,69.1015625 117.273438,69.0351562 117.03125,69.0351562 C116.78125,69.0351562 116.588867,69.1015625 116.454102,69.234375 C116.319336,69.3671875 116.251953,69.5566406 116.251953,69.8027344 C116.251953,70.0371094 116.319336,70.2216797 116.454102,70.3564453 C116.588867,70.4912109 116.78125,70.5585938 117.03125,70.5585938 Z M117.710938,78 L117.710938,71.5195312 L116.333984,71.5195312 L116.333984,78 L117.710938,78 Z M122.292969,78.1171875 C122.691406,78.1171875 123.030273,78.0859375 123.30957,78.0234375 C123.588867,77.9609375 123.851562,77.8574219 124.097656,77.7128906 L124.097656,77.7128906 L124.097656,76.5117188 C123.550781,76.8164062 122.970703,76.96875 122.357422,76.96875 C121.818359,76.96875 121.40918,76.7861328 121.129883,76.4208984 C120.850586,76.0556641 120.710938,75.5097656 120.710938,74.7832031 C120.710938,73.2949219 121.271484,72.5507812 122.392578,72.5507812 C122.771484,72.5507812 123.251953,72.6640625 123.833984,72.890625 L123.833984,72.890625 L124.25,71.7832031 C123.703125,71.5292969 123.087891,71.4023438 122.404297,71.4023438 C121.396484,71.4023438 120.625977,71.6953125 120.092773,72.28125 C119.55957,72.8671875 119.292969,73.7050781 119.292969,74.7949219 C119.292969,75.8652344 119.547852,76.6865234 120.057617,77.2587891 C120.567383,77.8310547 121.3125,78.1171875 122.292969,78.1171875 Z M126.283203,78.1699219 C126.564453,78.1699219 126.780273,78.0888672 126.930664,77.9267578 C127.081055,77.7646484 127.15625,77.5449219 127.15625,77.2675781 C127.15625,76.9941406 127.082031,76.7783203 126.933594,76.6201172 C126.785156,76.4619141 126.568359,76.3828125 126.283203,76.3828125 C126.001953,76.3828125 125.787109,76.4589844 125.638672,76.6113281 C125.490234,76.7636719 125.416016,76.9824219 125.416016,77.2675781 C125.416016,77.5488281 125.490234,77.7695312 125.638672,77.9296875 C125.787109,78.0898438 126.001953,78.1699219 126.283203,78.1699219 Z" id="Orderbytimeorlogic." fill="#FFFFFF" fill-rule="nonzero"></path>
            </g>
        </g>
    </g>
</svg>