<?xml version="1.0" encoding="UTF-8"?>
<svg width="163px" height="97px" viewBox="0 0 163 97" version="1.1" xmlns="http://www.w3.org/2000/svg" xmlns:xlink="http://www.w3.org/1999/xlink">
    <!-- Generator: Sketch 62 (91390) - https://sketch.com -->
    <title>Summarise</title>
    <desc>Created with Sketch.</desc>
    <defs>
        <radialGradient cx="26.0530847%" cy="62.3934409%" fx="26.0530847%" fy="62.3934409%" r="35.1006849%" gradientTransform="translate(0.260531,0.623934),scale(0.595092,1.000000),rotate(-90.000000),translate(-0.260531,-0.623934)" id="radialGradient-1">
            <stop stop-color="#F5836F" offset="0%"></stop>
            <stop stop-color="#E74C3C" offset="100%"></stop>
        </radialGradient>
        <path d="M4.20019531,18.1660156 C5.57259115,18.1660156 6.64892578,17.8588867 7.42919922,17.2446289 C8.20947266,16.6303711 8.59960938,15.7836914 8.59960938,14.7045898 C8.59960938,14.1567383 8.50276693,13.6808268 8.30908203,13.2768555 C8.11539714,12.8728841 7.81103516,12.5104167 7.39599609,12.1894531 C6.98095703,11.8684896 6.32796224,11.5226237 5.43701172,11.1518555 C4.64567057,10.8253581 4.09781901,10.5625 3.79345703,10.3632812 C3.48909505,10.1640625 3.27050781,9.95239258 3.13769531,9.72827148 C3.00488281,9.50415039 2.93847656,9.234375 2.93847656,8.91894531 C2.93847656,8.45963542 3.10449219,8.09025065 3.43652344,7.81079102 C3.76855469,7.53133138 4.25553385,7.39160156 4.89746094,7.39160156 C5.74414062,7.39160156 6.70703125,7.61848958 7.78613281,8.07226562 L7.78613281,8.07226562 L8.41699219,6.45361328 C7.26595052,5.9444987 6.109375,5.68994141 4.94726562,5.68994141 C3.73535156,5.68994141 2.76969401,5.98046875 2.05029297,6.56152344 C1.33089193,7.14257812 0.971191406,7.93945312 0.971191406,8.95214844 C0.971191406,9.76009115 1.19807943,10.4518229 1.65185547,11.0273438 C2.10563151,11.6028646 2.88590495,12.1147461 3.99267578,12.5629883 C5.06624349,12.9946289 5.77457682,13.3681641 6.11767578,13.6835938 C6.46077474,13.9990234 6.63232422,14.3836263 6.63232422,14.8374023 C6.63232422,15.3409831 6.44555664,15.7421875 6.07202148,16.0410156 C5.69848633,16.3398438 5.1188151,16.4892578 4.33300781,16.4892578 C3.79622396,16.4892578 3.21655273,16.4145508 2.59399414,16.2651367 C1.97143555,16.1157227 1.38346354,15.9109701 0.830078125,15.6508789 L0.830078125,15.6508789 L0.830078125,17.5268555 C1.70442708,17.9529622 2.82779948,18.1660156 4.20019531,18.1660156 Z M13.9702148,18.1660156 C14.6121419,18.1660156 15.1835124,18.0442708 15.6843262,17.8007812 C16.18514,17.5572917 16.5711263,17.2224935 16.8422852,16.7963867 L16.8422852,16.7963867 L16.9418945,16.7963867 L17.2158203,18 L18.7514648,18 L18.7514648,8.81933594 L16.7924805,8.81933594 L16.7924805,13.3930664 C16.7924805,14.5441081 16.600179,15.364502 16.2155762,15.854248 C15.8309733,16.3439941 15.2291667,16.5888672 14.4101562,16.5888672 C13.7958984,16.5888672 13.3448893,16.4131673 13.0571289,16.0617676 C12.7693685,15.7103678 12.6254883,15.1832682 12.6254883,14.4804688 L12.6254883,14.4804688 L12.6254883,8.81933594 L10.6582031,8.81933594 L10.6582031,14.8208008 C10.6582031,15.9441732 10.9321289,16.7825521 11.4799805,17.3359375 C12.027832,17.8893229 12.8579102,18.1660156 13.9702148,18.1660156 Z M23.4829102,18 L23.4829102,13.4262695 C23.4829102,12.2862956 23.65861,11.4714355 24.0100098,10.9816895 C24.3614095,10.4919434 24.9134115,10.2470703 25.6660156,10.2470703 C26.2304688,10.2470703 26.6455078,10.4200033 26.9111328,10.7658691 C27.1767578,11.111735 27.3095703,11.6360677 27.3095703,12.3388672 L27.3095703,12.3388672 L27.3095703,18 L29.2685547,18 L29.2685547,13.1357422 C29.2685547,12.15625 29.4442546,11.4299316 29.7956543,10.9567871 C30.147054,10.4836426 30.7018229,10.2470703 31.4599609,10.2470703 C32.0244141,10.2470703 32.4408366,10.4200033 32.7092285,10.7658691 C32.9776204,11.111735 33.1118164,11.6360677 33.1118164,12.3388672 L33.1118164,12.3388672 L33.1118164,18 L35.0625,18 L35.0625,12.0151367 C35.0625,10.8806966 34.8120931,10.0367839 34.3112793,9.48339844 C33.8104655,8.93001302 33.012207,8.65332031 31.9165039,8.65332031 C31.2801107,8.65332031 30.7156576,8.78059896 30.2231445,9.03515625 C29.7306315,9.28971354 29.3487956,9.64388021 29.0776367,10.0976562 L29.0776367,10.0976562 L28.9448242,10.0976562 C28.4855143,9.13476562 27.550293,8.65332031 26.1391602,8.65332031 C25.5581055,8.65332031 25.025472,8.77229818 24.5412598,9.01025391 C24.0570475,9.24820964 23.6876628,9.58577474 23.4331055,10.0229492 L23.4331055,10.0229492 L23.3334961,10.0229492 L23.0595703,8.81933594 L21.5322266,8.81933594 L21.5322266,18 L23.4829102,18 Z M39.7358398,18 L39.7358398,13.4262695 C39.7358398,12.2862956 39.9115397,11.4714355 40.2629395,10.9816895 C40.6143392,10.4919434 41.1663411,10.2470703 41.9189453,10.2470703 C42.4833984,10.2470703 42.8984375,10.4200033 43.1640625,10.7658691 C43.4296875,11.111735 43.5625,11.6360677 43.5625,12.3388672 L43.5625,12.3388672 L43.5625,18 L45.5214844,18 L45.5214844,13.1357422 C45.5214844,12.15625 45.6971842,11.4299316 46.048584,10.9567871 C46.3999837,10.4836426 46.9547526,10.2470703 47.7128906,10.2470703 C48.2773438,10.2470703 48.6937663,10.4200033 48.9621582,10.7658691 C49.2305501,11.111735 49.3647461,11.6360677 49.3647461,12.3388672 L49.3647461,12.3388672 L49.3647461,18 L51.3154297,18 L51.3154297,12.0151367 C51.3154297,10.8806966 51.0650228,10.0367839 50.564209,9.48339844 C50.0633952,8.93001302 49.2651367,8.65332031 48.1694336,8.65332031 C47.5330404,8.65332031 46.9685872,8.78059896 46.4760742,9.03515625 C45.9835612,9.28971354 45.6017253,9.64388021 45.3305664,10.0976562 L45.3305664,10.0976562 L45.1977539,10.0976562 C44.738444,9.13476562 43.8032227,8.65332031 42.3920898,8.65332031 C41.8110352,8.65332031 41.2784017,8.77229818 40.7941895,9.01025391 C40.3099772,9.24820964 39.9405924,9.58577474 39.6860352,10.0229492 L39.6860352,10.0229492 L39.5864258,10.0229492 L39.3125,8.81933594 L37.7851562,8.81933594 L37.7851562,18 L39.7358398,18 Z M56.2626953,18.1660156 C56.9654948,18.1660156 57.5410156,18.0650228 57.9892578,17.8630371 C58.4375,17.6610514 58.8829753,17.280599 59.3256836,16.7216797 L59.3256836,16.7216797 L59.3920898,16.7216797 L59.7822266,18 L61.1767578,18 L61.1767578,11.815918 C61.1767578,10.7257487 60.8793132,9.92610677 60.2844238,9.41699219 C59.6895345,8.9078776 58.8082682,8.65332031 57.640625,8.65332031 C57.1149089,8.65332031 56.5559896,8.72111003 55.9638672,8.85668945 C55.3717448,8.99226888 54.8266602,9.19010417 54.3286133,9.45019531 L54.3286133,9.45019531 L54.9594727,10.8447266 C55.3579102,10.6565755 55.7729492,10.4933268 56.2045898,10.3549805 C56.6362305,10.2166341 57.0872396,10.1474609 57.5576172,10.1474609 C58.133138,10.1474609 58.5578613,10.2927246 58.8317871,10.583252 C59.1057129,10.8737793 59.2426758,11.3123372 59.2426758,11.8989258 L59.2426758,11.8989258 L59.2426758,12.3886719 L57.6572266,12.4384766 C56.2184245,12.4827474 55.1476237,12.7456055 54.4448242,13.2270508 C53.7420247,13.7084961 53.390625,14.4223633 53.390625,15.3686523 C53.390625,16.2596029 53.6437988,16.9485677 54.1501465,17.4355469 C54.6564941,17.922526 55.3606771,18.1660156 56.2626953,18.1660156 Z M56.8769531,16.671875 C56.389974,16.671875 56.0247396,16.5598145 55.78125,16.3356934 C55.5377604,16.1115723 55.4160156,15.7947591 55.4160156,15.3852539 C55.4160156,14.8208008 55.6249186,14.4016113 56.0427246,14.1276855 C56.4605306,13.8537598 57.1287435,13.7001953 58.0473633,13.6669922 L58.0473633,13.6669922 L59.2260742,13.6171875 L59.2260742,14.4140625 C59.2260742,15.1279297 59.0116374,15.6826986 58.5827637,16.0783691 C58.15389,16.4740397 57.5852865,16.671875 56.8769531,16.671875 Z M65.8500977,18 L65.8500977,13.2021484 C65.8500977,12.3886719 66.0922038,11.7273763 66.576416,11.2182617 C67.0606283,10.7091471 67.6928711,10.4545898 68.4731445,10.4545898 C68.7719727,10.4545898 69.0597331,10.487793 69.3364258,10.5541992 L69.3364258,10.5541992 L69.5273438,8.73632812 C69.2727865,8.68098958 68.949056,8.65332031 68.5561523,8.65332031 C67.9916992,8.65332031 67.4645996,8.81380208 66.9748535,9.13476562 C66.4851074,9.45572917 66.0880534,9.89013672 65.7836914,10.4379883 L65.7836914,10.4379883 L65.684082,10.4379883 L65.4267578,8.81933594 L63.8994141,8.81933594 L63.8994141,18 L65.8500977,18 Z M72.2167969,7.45800781 C72.5598958,7.45800781 72.8269043,7.36254883 73.0178223,7.17163086 C73.2087402,6.98071289 73.3041992,6.71923828 73.3041992,6.38720703 C73.3041992,6.03857422 73.2087402,5.77018229 73.0178223,5.58203125 C72.8269043,5.39388021 72.5598958,5.29980469 72.2167969,5.29980469 C71.8626302,5.29980469 71.5900879,5.39388021 71.3991699,5.58203125 C71.208252,5.77018229 71.112793,6.03857422 71.112793,6.38720703 C71.112793,6.71923828 71.208252,6.98071289 71.3991699,7.17163086 C71.5900879,7.36254883 71.8626302,7.45800781 72.2167969,7.45800781 Z M73.1796875,18 L73.1796875,8.81933594 L71.2290039,8.81933594 L71.2290039,18 L73.1796875,18 Z M78.3510742,18.1660156 C79.5685221,18.1660156 80.5037435,17.9266764 81.1567383,17.447998 C81.8097331,16.9693197 82.1362305,16.2817383 82.1362305,15.3852539 C82.1362305,14.9425456 82.0532227,14.5620931 81.887207,14.2438965 C81.7211914,13.9256999 81.4666341,13.6448568 81.1235352,13.4013672 C80.7804362,13.1578776 80.2298177,12.8894857 79.4716797,12.5961914 C78.5696615,12.2475586 77.9844564,11.9736328 77.7160645,11.7744141 C77.4476725,11.5751953 77.3134766,11.3317057 77.3134766,11.0439453 C77.3134766,10.4573568 77.828125,10.1640625 78.8574219,10.1640625 C79.5325521,10.1640625 80.3653971,10.3688151 81.355957,10.7783203 L81.355957,10.7783203 L81.9868164,9.30908203 C81.0239258,8.87190755 80.0029297,8.65332031 78.9238281,8.65332031 C77.8336589,8.65332031 76.9717611,8.87052409 76.3381348,9.30493164 C75.7045085,9.73933919 75.3876953,10.3494466 75.3876953,11.1352539 C75.3876953,11.7882487 75.5744629,12.3194987 75.947998,12.7290039 C76.3215332,13.1385091 77.0367839,13.5480143 78.09375,13.9575195 C78.6360677,14.167806 79.0594076,14.355957 79.3637695,14.5219727 C79.6681315,14.6879883 79.8867188,14.8484701 80.0195312,15.003418 C80.1523438,15.1583659 80.21875,15.3520508 80.21875,15.5844727 C80.21875,16.3094076 79.6183268,16.671875 78.4174805,16.671875 C77.487793,16.671875 76.4833984,16.4228516 75.4042969,15.9248047 L75.4042969,15.9248047 L75.4042969,17.6098633 C76.1458333,17.9806315 77.1280924,18.1660156 78.3510742,18.1660156 Z M88.2539062,18.1660156 C88.8792318,18.1660156 89.4353841,18.1189779 89.9223633,18.0249023 C90.4093424,17.9308268 90.8907878,17.7703451 91.3666992,17.543457 L91.3666992,17.543457 L91.3666992,15.9580078 C90.8299154,16.1959635 90.3277181,16.3661296 89.8601074,16.4685059 C89.3924967,16.5708822 88.8875326,16.6220703 88.3452148,16.6220703 C87.5206706,16.6220703 86.8815104,16.3827311 86.4277344,15.9040527 C85.9739583,15.4253743 85.7332357,14.7405599 85.7055664,13.8496094 L85.7055664,13.8496094 L91.8232422,13.8496094 L91.8232422,12.7954102 C91.8232422,11.5060221 91.4718424,10.4933268 90.769043,9.75732422 C90.0662435,9.02132161 89.1088867,8.65332031 87.8969727,8.65332031 C86.5909831,8.65332031 85.5644531,9.08219401 84.8173828,9.93994141 C84.0703125,10.7976888 83.6967773,11.9763997 83.6967773,13.4760742 C83.6967773,14.9370117 84.0993652,16.083903 84.904541,16.916748 C85.7097168,17.7495931 86.8261719,18.1660156 88.2539062,18.1660156 Z M89.9057617,12.4384766 L85.7387695,12.4384766 C85.8107096,11.6858724 86.0334473,11.1131185 86.4069824,10.7202148 C86.7805176,10.3273112 87.277181,10.1308594 87.8969727,10.1308594 C88.5167643,10.1308594 89.0037435,10.3259277 89.3579102,10.7160645 C89.7120768,11.1062012 89.894694,11.6803385 89.9057617,12.4384766 L89.9057617,12.4384766 Z" id="path-2"></path>
    </defs>
    <g id="Symbols" stroke="none" stroke-width="1" fill="none" fill-rule="evenodd">
        <g id="i/Summarise">
            <g id="Summarise">
                <path d="M6,0 L157,0 C160.313708,-6.08718376e-16 163,2.6862915 163,6 L163,91 C163,94.3137085 160.313708,97 157,97 L6,97 C2.6862915,97 4.05812251e-16,94.3137085 0,91 L0,6 C-4.05812251e-16,2.6862915 2.6862915,6.08718376e-16 6,0 Z" id="Rectangle-2" fill="url(#radialGradient-1)" fill-rule="nonzero"></path>
                <g id="Group-13" transform="translate(24.000000, 40.000000)" fill-rule="nonzero">
                    <path d="M32,28 L5,28 L5,30.25 L32,30.25 L32,28 Z M32,34.75 L5,34.75 L5,37 L32,37 L32,34.75 Z" id="Shape" fill="#9B9B9B"></path>
                    <path d="M36,8.29411766 L36,42.7058823 C36,43.9728886 34.9926407,45 33.7500001,45 L2.25000004,45 C1.00735931,45 0,43.9728886 0,42.7058823 L0,8.29411766 C0,7.02711143 1.00735931,6 2.25000004,6 L6.75,6 L6.75,8.29411766 L2.25000004,8.29411766 L2.25000004,42.7058823 L33.7500001,42.7058823 L33.7500001,8.29411766 L29.2500001,8.29411766 L29.2500001,6 L33.7500001,6 C34.9926407,6 36,7.02711143 36,8.29411766 Z" id="Path" fill="#FFFFFF"></path>
                    <path d="M22.5,4.4 C22.5,1.96994714 20.4852814,0 18,0 C15.5147187,0 13.5,1.96994714 13.5,4.4 L9,4.4 L9,11 L27,11 L27,4.4 L22.5,4.4 Z" id="Path" fill="#BDC3C7"></path>
                    <polygon id="Path" fill="#BDC3C7" points="32 15 5 15 5 17 32 17"></polygon>
                    <polygon id="Path" fill="#9B9B9B" points="32 23 5 23 5 25 32 25"></polygon>
                </g>
                <polyline id="Line-2" stroke="#FFFFFF" stroke-width="4" stroke-linecap="square" points="2 30 20.4627861 30 161 30"></polyline>
                <line x1="81" y1="45" x2="81" y2="85.0042519" id="Line-3" stroke="#FFFFFF" stroke-width="2" stroke-linecap="square"></line>
                <g id="Adverbs" transform="translate(37.000000, 2.000000)" fill="#FFFFFF" fill-rule="nonzero">
                    <g id="Summarise">
                        <use xlink:href="#path-2"></use>
                        <use xlink:href="#path-2"></use>
                    </g>
                </g>
                <path d="M94.2246094,51 C95.1816406,51 95.9287109,50.7822266 96.4658203,50.3466797 C97.0029297,49.9111328 97.2714844,49.3085938 97.2714844,48.5390625 C97.2714844,47.96875 97.1298828,47.5166016 96.8466797,47.1826172 C96.5634766,46.8486328 96.1210938,46.625 95.5195312,46.5117188 L95.5195312,46.5117188 L95.5195312,46.453125 C96.0039062,46.3671875 96.375,46.1582031 96.6328125,45.8261719 C96.890625,45.4941406 97.0195312,45.078125 97.0195312,44.578125 C97.0195312,43.8359375 96.7568359,43.2929688 96.2314453,42.9492188 C95.7060547,42.6054688 94.8535156,42.4335938 93.6738281,42.4335938 L93.6738281,42.4335938 L91.1308594,42.4335938 L91.1308594,51 L94.2246094,51 Z M93.8789062,45.9726562 L92.53125,45.9726562 L92.53125,43.6054688 L93.7441406,43.6054688 C94.3769531,43.6054688 94.8388672,43.6953125 95.1298828,43.875 C95.4208984,44.0546875 95.5664062,44.3457031 95.5664062,44.7480469 C95.5664062,45.1933594 95.4316406,45.5087891 95.1621094,45.6943359 C94.8925781,45.8798828 94.4648438,45.9726562 93.8789062,45.9726562 L93.8789062,45.9726562 Z M94.0195312,49.8222656 L92.53125,49.8222656 L92.53125,47.109375 L93.9492188,47.109375 C94.5703125,47.109375 95.0332031,47.2167969 95.3378906,47.4316406 C95.6425781,47.6464844 95.7949219,47.9765625 95.7949219,48.421875 C95.7949219,48.90625 95.6455078,49.2607422 95.3466797,49.4853516 C95.0478516,49.7099609 94.6054688,49.8222656 94.0195312,49.8222656 L94.0195312,49.8222656 Z M100.283203,51 L100.283203,47.6132812 C100.283203,47.0390625 100.454102,46.5722656 100.795898,46.2128906 C101.137695,45.8535156 101.583984,45.6738281 102.134766,45.6738281 C102.345703,45.6738281 102.548828,45.6972656 102.744141,45.7441406 L102.744141,45.7441406 L102.878906,44.4609375 C102.699219,44.421875 102.470703,44.4023438 102.193359,44.4023438 C101.794922,44.4023438 101.422852,44.515625 101.077148,44.7421875 C100.731445,44.96875 100.451172,45.2753906 100.236328,45.6621094 L100.236328,45.6621094 L100.166016,45.6621094 L99.984375,44.5195312 L98.90625,44.5195312 L98.90625,51 L100.283203,51 Z M104.777344,43.5585938 C105.019531,43.5585938 105.208008,43.4912109 105.342773,43.3564453 C105.477539,43.2216797 105.544922,43.0371094 105.544922,42.8027344 C105.544922,42.5566406 105.477539,42.3671875 105.342773,42.234375 C105.208008,42.1015625 105.019531,42.0351562 104.777344,42.0351562 C104.527344,42.0351562 104.334961,42.1015625 104.200195,42.234375 C104.06543,42.3671875 103.998047,42.5566406 103.998047,42.8027344 C103.998047,43.0371094 104.06543,43.2216797 104.200195,43.3564453 C104.334961,43.4912109 104.527344,43.5585938 104.777344,43.5585938 Z M105.457031,51 L105.457031,44.5195312 L104.080078,44.5195312 L104.080078,51 L105.457031,51 Z M110.255859,51.1171875 C110.697266,51.1171875 111.089844,51.0839844 111.433594,51.0175781 C111.777344,50.9511719 112.117188,50.8378906 112.453125,50.6777344 L112.453125,50.6777344 L112.453125,49.5585938 C112.074219,49.7265625 111.719727,49.8466797 111.389648,49.9189453 C111.05957,49.9912109 110.703125,50.0273438 110.320312,50.0273438 C109.738281,50.0273438 109.287109,49.8583984 108.966797,49.5205078 C108.646484,49.1826172 108.476562,48.6992188 108.457031,48.0703125 L108.457031,48.0703125 L112.775391,48.0703125 L112.775391,47.3261719 C112.775391,46.4160156 112.527344,45.7011719 112.03125,45.1816406 C111.535156,44.6621094 110.859375,44.4023438 110.003906,44.4023438 C109.082031,44.4023438 108.357422,44.7050781 107.830078,45.3105469 C107.302734,45.9160156 107.039062,46.7480469 107.039062,47.8066406 C107.039062,48.8378906 107.323242,49.6474609 107.891602,50.2353516 C108.459961,50.8232422 109.248047,51.1171875 110.255859,51.1171875 Z M111.421875,47.0742188 L108.480469,47.0742188 C108.53125,46.5429688 108.688477,46.1386719 108.952148,45.8613281 C109.21582,45.5839844 109.566406,45.4453125 110.003906,45.4453125 C110.441406,45.4453125 110.785156,45.5830078 111.035156,45.8583984 C111.285156,46.1337891 111.414062,46.5390625 111.421875,47.0742188 L111.421875,47.0742188 Z M116.009766,51 L116.009766,45.5625 L117.591797,45.5625 L117.591797,44.5195312 L116.009766,44.5195312 L116.009766,44.0976562 C116.009766,43.7109375 116.081055,43.4208984 116.223633,43.2275391 C116.366211,43.0341797 116.59375,42.9375 116.90625,42.9375 C117.214844,42.9375 117.539062,42.9921875 117.878906,43.1015625 L117.878906,43.1015625 L118.242188,42.0585938 C117.773438,41.8984375 117.296875,41.8183594 116.8125,41.8183594 C116.074219,41.8183594 115.525391,42.0029297 115.166016,42.3720703 C114.806641,42.7412109 114.626953,43.3085938 114.626953,44.0742188 L114.626953,44.0742188 L114.626953,44.4960938 L113.560547,44.9179688 L113.560547,45.5625 L114.626953,45.5625 L114.626953,51 L116.009766,51 Z M92.6660156,63.1171875 C93.5253906,63.1171875 94.1855469,62.9482422 94.6464844,62.6103516 C95.1074219,62.2724609 95.3378906,61.7871094 95.3378906,61.1542969 C95.3378906,60.8417969 95.2792969,60.5732422 95.1621094,60.3486328 C95.0449219,60.1240234 94.8652344,59.9257812 94.6230469,59.7539062 C94.3808594,59.5820312 93.9921875,59.3925781 93.4570312,59.1855469 C92.8203125,58.9394531 92.4072266,58.7460938 92.2177734,58.6054688 C92.0283203,58.4648438 91.9335938,58.2929688 91.9335938,58.0898438 C91.9335938,57.6757812 92.296875,57.46875 93.0234375,57.46875 C93.5,57.46875 94.0878906,57.6132812 94.7871094,57.9023438 L94.7871094,57.9023438 L95.2324219,56.8652344 C94.5527344,56.5566406 93.8320312,56.4023438 93.0703125,56.4023438 C92.3007812,56.4023438 91.6923828,56.5556641 91.2451172,56.8623047 C90.7978516,57.1689453 90.5742188,57.5996094 90.5742188,58.1542969 C90.5742188,58.6152344 90.7060547,58.9902344 90.9697266,59.2792969 C91.2333984,59.5683594 91.7382812,59.8574219 92.484375,60.1464844 C92.8671875,60.2949219 93.1660156,60.4277344 93.3808594,60.5449219 C93.5957031,60.6621094 93.75,60.7753906 93.84375,60.8847656 C93.9375,60.9941406 93.984375,61.1308594 93.984375,61.2949219 C93.984375,61.8066406 93.5605469,62.0625 92.7128906,62.0625 C92.0566406,62.0625 91.3476562,61.8867188 90.5859375,61.5351562 L90.5859375,61.5351562 L90.5859375,62.7246094 C91.109375,62.9863281 91.8027344,63.1171875 92.6660156,63.1171875 Z M98.9121094,63.1171875 C99.1699219,63.1171875 99.4189453,63.0947266 99.6591797,63.0498047 C99.8994141,63.0048828 100.095703,62.9492188 100.248047,62.8828125 L100.248047,62.8828125 L100.248047,61.8457031 C99.9121094,61.9511719 99.5761719,62.0039062 99.2402344,62.0039062 C98.9707031,62.0039062 98.7529297,61.9248047 98.5869141,61.7666016 C98.4208984,61.6083984 98.3378906,61.3632812 98.3378906,61.03125 L98.3378906,61.03125 L98.3378906,57.5625 L100.183594,57.5625 L100.183594,56.5195312 L98.3378906,56.5195312 L98.3378906,55.078125 L97.4882812,55.078125 L97.0195312,56.4492188 L96.0703125,56.953125 L96.0703125,57.5625 L96.9550781,57.5625 L96.9550781,61.0546875 C96.9550781,62.4296875 97.6074219,63.1171875 98.9121094,63.1171875 Z M103.113281,63.1171875 C103.609375,63.1171875 104.015625,63.0458984 104.332031,62.9033203 C104.648438,62.7607422 104.962891,62.4921875 105.275391,62.0976562 L105.275391,62.0976562 L105.322266,62.0976562 L105.597656,63 L106.582031,63 L106.582031,58.6347656 C106.582031,57.8652344 106.37207,57.3007812 105.952148,56.9414062 C105.532227,56.5820312 104.910156,56.4023438 104.085938,56.4023438 C103.714844,56.4023438 103.320312,56.4501953 102.902344,56.5458984 C102.484375,56.6416016 102.099609,56.78125 101.748047,56.9648438 L101.748047,56.9648438 L102.193359,57.9492188 C102.474609,57.8164062 102.767578,57.7011719 103.072266,57.6035156 C103.376953,57.5058594 103.695312,57.4570312 104.027344,57.4570312 C104.433594,57.4570312 104.733398,57.5595703 104.926758,57.7646484 C105.120117,57.9697266 105.216797,58.2792969 105.216797,58.6933594 L105.216797,58.6933594 L105.216797,59.0390625 L104.097656,59.0742188 C103.082031,59.1054688 102.326172,59.2910156 101.830078,59.6308594 C101.333984,59.9707031 101.085938,60.4746094 101.085938,61.1425781 C101.085938,61.7714844 101.264648,62.2578125 101.62207,62.6015625 C101.979492,62.9453125 102.476562,63.1171875 103.113281,63.1171875 Z M103.546875,62.0625 C103.203125,62.0625 102.945312,61.9833984 102.773438,61.8251953 C102.601562,61.6669922 102.515625,61.4433594 102.515625,61.1542969 C102.515625,60.7558594 102.663086,60.4599609 102.958008,60.2666016 C103.25293,60.0732422 103.724609,59.9648438 104.373047,59.9414062 L104.373047,59.9414062 L105.205078,59.90625 L105.205078,60.46875 C105.205078,60.9726562 105.053711,61.3642578 104.750977,61.6435547 C104.448242,61.9228516 104.046875,62.0625 103.546875,62.0625 Z M110.589844,63.1171875 C110.847656,63.1171875 111.09668,63.0947266 111.336914,63.0498047 C111.577148,63.0048828 111.773438,62.9492188 111.925781,62.8828125 L111.925781,62.8828125 L111.925781,61.8457031 C111.589844,61.9511719 111.253906,62.0039062 110.917969,62.0039062 C110.648438,62.0039062 110.430664,61.9248047 110.264648,61.7666016 C110.098633,61.6083984 110.015625,61.3632812 110.015625,61.03125 L110.015625,61.03125 L110.015625,57.5625 L111.861328,57.5625 L111.861328,56.5195312 L110.015625,56.5195312 L110.015625,55.078125 L109.166016,55.078125 L108.697266,56.4492188 L107.748047,56.953125 L107.748047,57.5625 L108.632812,57.5625 L108.632812,61.0546875 C108.632812,62.4296875 109.285156,63.1171875 110.589844,63.1171875 Z M116.050781,63.1171875 C116.492188,63.1171875 116.884766,63.0839844 117.228516,63.0175781 C117.572266,62.9511719 117.912109,62.8378906 118.248047,62.6777344 L118.248047,62.6777344 L118.248047,61.5585938 C117.869141,61.7265625 117.514648,61.8466797 117.18457,61.9189453 C116.854492,61.9912109 116.498047,62.0273438 116.115234,62.0273438 C115.533203,62.0273438 115.082031,61.8583984 114.761719,61.5205078 C114.441406,61.1826172 114.271484,60.6992188 114.251953,60.0703125 L114.251953,60.0703125 L118.570312,60.0703125 L118.570312,59.3261719 C118.570312,58.4160156 118.322266,57.7011719 117.826172,57.1816406 C117.330078,56.6621094 116.654297,56.4023438 115.798828,56.4023438 C114.876953,56.4023438 114.152344,56.7050781 113.625,57.3105469 C113.097656,57.9160156 112.833984,58.7480469 112.833984,59.8066406 C112.833984,60.8378906 113.118164,61.6474609 113.686523,62.2353516 C114.254883,62.8232422 115.042969,63.1171875 116.050781,63.1171875 Z M117.216797,59.0742188 L114.275391,59.0742188 C114.326172,58.5429688 114.483398,58.1386719 114.74707,57.8613281 C115.010742,57.5839844 115.361328,57.4453125 115.798828,57.4453125 C116.236328,57.4453125 116.580078,57.5830078 116.830078,57.8583984 C117.080078,58.1337891 117.208984,58.5390625 117.216797,59.0742188 L117.216797,59.0742188 Z M121.511719,63 L121.511719,59.7714844 C121.511719,58.9667969 121.635742,58.3916016 121.883789,58.0458984 C122.131836,57.7001953 122.521484,57.5273438 123.052734,57.5273438 C123.451172,57.5273438 123.744141,57.6494141 123.931641,57.8935547 C124.119141,58.1376953 124.212891,58.5078125 124.212891,59.0039062 L124.212891,59.0039062 L124.212891,63 L125.595703,63 L125.595703,59.5664062 C125.595703,58.875 125.719727,58.3623047 125.967773,58.0283203 C126.21582,57.6943359 126.607422,57.5273438 127.142578,57.5273438 C127.541016,57.5273438 127.834961,57.6494141 128.024414,57.8935547 C128.213867,58.1376953 128.308594,58.5078125 128.308594,59.0039062 L128.308594,59.0039062 L128.308594,63 L129.685547,63 L129.685547,58.7753906 C129.685547,57.9746094 129.508789,57.3789062 129.155273,56.9882812 C128.801758,56.5976562 128.238281,56.4023438 127.464844,56.4023438 C127.015625,56.4023438 126.617188,56.4921875 126.269531,56.671875 C125.921875,56.8515625 125.652344,57.1015625 125.460938,57.421875 L125.460938,57.421875 L125.367188,57.421875 C125.042969,56.7421875 124.382812,56.4023438 123.386719,56.4023438 C122.976562,56.4023438 122.600586,56.4863281 122.258789,56.6542969 C121.916992,56.8222656 121.65625,57.0605469 121.476562,57.3691406 L121.476562,57.3691406 L121.40625,57.3691406 L121.212891,56.5195312 L120.134766,56.5195312 L120.134766,63 L121.511719,63 Z M134.4375,63.1171875 C134.878906,63.1171875 135.271484,63.0839844 135.615234,63.0175781 C135.958984,62.9511719 136.298828,62.8378906 136.634766,62.6777344 L136.634766,62.6777344 L136.634766,61.5585938 C136.255859,61.7265625 135.901367,61.8466797 135.571289,61.9189453 C135.241211,61.9912109 134.884766,62.0273438 134.501953,62.0273438 C133.919922,62.0273438 133.46875,61.8583984 133.148438,61.5205078 C132.828125,61.1826172 132.658203,60.6992188 132.638672,60.0703125 L132.638672,60.0703125 L136.957031,60.0703125 L136.957031,59.3261719 C136.957031,58.4160156 136.708984,57.7011719 136.212891,57.1816406 C135.716797,56.6621094 135.041016,56.4023438 134.185547,56.4023438 C133.263672,56.4023438 132.539062,56.7050781 132.011719,57.3105469 C131.484375,57.9160156 131.220703,58.7480469 131.220703,59.8066406 C131.220703,60.8378906 131.504883,61.6474609 132.073242,62.2353516 C132.641602,62.8232422 133.429688,63.1171875 134.4375,63.1171875 Z M135.603516,59.0742188 L132.662109,59.0742188 C132.712891,58.5429688 132.870117,58.1386719 133.133789,57.8613281 C133.397461,57.5839844 133.748047,57.4453125 134.185547,57.4453125 C134.623047,57.4453125 134.966797,57.5830078 135.216797,57.8583984 C135.466797,58.1337891 135.595703,58.5390625 135.603516,59.0742188 L135.603516,59.0742188 Z M139.898438,63 L139.898438,59.7714844 C139.898438,58.9628906 140.033203,58.3867188 140.302734,58.0429688 C140.572266,57.6992188 140.998047,57.5273438 141.580078,57.5273438 C142.017578,57.5273438 142.336914,57.6503906 142.538086,57.8964844 C142.739258,58.1425781 142.839844,58.515625 142.839844,59.015625 L142.839844,59.015625 L142.839844,63 L144.222656,63 L144.222656,58.7753906 C144.222656,57.1933594 143.445312,56.4023438 141.890625,56.4023438 C141.453125,56.4023438 141.054688,56.4863281 140.695312,56.6542969 C140.335938,56.8222656 140.058594,57.0605469 139.863281,57.3691406 L139.863281,57.3691406 L139.792969,57.3691406 L139.599609,56.5195312 L138.521484,56.5195312 L138.521484,63 L139.898438,63 Z M148.224609,63.1171875 C148.482422,63.1171875 148.731445,63.0947266 148.97168,63.0498047 C149.211914,63.0048828 149.408203,62.9492188 149.560547,62.8828125 L149.560547,62.8828125 L149.560547,61.8457031 C149.224609,61.9511719 148.888672,62.0039062 148.552734,62.0039062 C148.283203,62.0039062 148.06543,61.9248047 147.899414,61.7666016 C147.733398,61.6083984 147.650391,61.3632812 147.650391,61.03125 L147.650391,61.03125 L147.650391,57.5625 L149.496094,57.5625 L149.496094,56.5195312 L147.650391,56.5195312 L147.650391,55.078125 L146.800781,55.078125 L146.332031,56.4492188 L145.382812,56.953125 L145.382812,57.5625 L146.267578,57.5625 L146.267578,61.0546875 C146.267578,62.4296875 146.919922,63.1171875 148.224609,63.1171875 Z M93.6503906,75.1171875 C94.6191406,75.1171875 95.375,74.8203125 95.9179688,74.2265625 C96.4609375,73.6328125 96.7324219,72.8066406 96.7324219,71.7480469 C96.7324219,70.7246094 96.4589844,69.9111328 95.9121094,69.3076172 C95.3652344,68.7041016 94.6230469,68.4023438 93.6855469,68.4023438 C92.7050781,68.4023438 91.9453125,68.6972656 91.40625,69.2871094 C90.8671875,69.8769531 90.5976562,70.6972656 90.5976562,71.7480469 C90.5976562,72.4238281 90.7226562,73.0175781 90.9726562,73.5292969 C91.2226562,74.0410156 91.5800781,74.4335938 92.0449219,74.7070312 C92.5097656,74.9804688 93.0449219,75.1171875 93.6503906,75.1171875 Z M93.6738281,73.9921875 C92.5683594,73.9921875 92.015625,73.2441406 92.015625,71.7480469 C92.015625,71.0332031 92.1455078,70.484375 92.4052734,70.1015625 C92.6650391,69.71875 93.0839844,69.5273438 93.6621094,69.5273438 C94.7636719,69.5273438 95.3144531,70.2675781 95.3144531,71.7480469 C95.3144531,73.2441406 94.7675781,73.9921875 93.6738281,73.9921875 Z M99.984375,75 L99.984375,69.5625 L101.566406,69.5625 L101.566406,68.5195312 L99.984375,68.5195312 L99.984375,68.0976562 C99.984375,67.7109375 100.055664,67.4208984 100.198242,67.2275391 C100.34082,67.0341797 100.568359,66.9375 100.880859,66.9375 C101.189453,66.9375 101.513672,66.9921875 101.853516,67.1015625 L101.853516,67.1015625 L102.216797,66.0585938 C101.748047,65.8984375 101.271484,65.8183594 100.787109,65.8183594 C100.048828,65.8183594 99.5,66.0029297 99.140625,66.3720703 C98.78125,66.7412109 98.6015625,67.3085938 98.6015625,68.0742188 L98.6015625,68.0742188 L98.6015625,68.4960938 L97.5351562,68.9179688 L97.5351562,69.5625 L98.6015625,69.5625 L98.6015625,75 L99.984375,75 Z M107.162109,75 L107.162109,71.7714844 C107.162109,70.9667969 107.286133,70.3916016 107.53418,70.0458984 C107.782227,69.7001953 108.171875,69.5273438 108.703125,69.5273438 C109.101562,69.5273438 109.394531,69.6494141 109.582031,69.8935547 C109.769531,70.1376953 109.863281,70.5078125 109.863281,71.0039062 L109.863281,71.0039062 L109.863281,75 L111.246094,75 L111.246094,71.5664062 C111.246094,70.875 111.370117,70.3623047 111.618164,70.0283203 C111.866211,69.6943359 112.257812,69.5273438 112.792969,69.5273438 C113.191406,69.5273438 113.485352,69.6494141 113.674805,69.8935547 C113.864258,70.1376953 113.958984,70.5078125 113.958984,71.0039062 L113.958984,71.0039062 L113.958984,75 L115.335938,75 L115.335938,70.7753906 C115.335938,69.9746094 115.15918,69.3789062 114.805664,68.9882812 C114.452148,68.5976562 113.888672,68.4023438 113.115234,68.4023438 C112.666016,68.4023438 112.267578,68.4921875 111.919922,68.671875 C111.572266,68.8515625 111.302734,69.1015625 111.111328,69.421875 L111.111328,69.421875 L111.017578,69.421875 C110.693359,68.7421875 110.033203,68.4023438 109.037109,68.4023438 C108.626953,68.4023438 108.250977,68.4863281 107.90918,68.6542969 C107.567383,68.8222656 107.306641,69.0605469 107.126953,69.3691406 L107.126953,69.3691406 L107.056641,69.3691406 L106.863281,68.5195312 L105.785156,68.5195312 L105.785156,75 L107.162109,75 Z M118.828125,75.1171875 C119.324219,75.1171875 119.730469,75.0458984 120.046875,74.9033203 C120.363281,74.7607422 120.677734,74.4921875 120.990234,74.0976562 L120.990234,74.0976562 L121.037109,74.0976562 L121.3125,75 L122.296875,75 L122.296875,70.6347656 C122.296875,69.8652344 122.086914,69.3007812 121.666992,68.9414062 C121.24707,68.5820312 120.625,68.4023438 119.800781,68.4023438 C119.429688,68.4023438 119.035156,68.4501953 118.617188,68.5458984 C118.199219,68.6416016 117.814453,68.78125 117.462891,68.9648438 L117.462891,68.9648438 L117.908203,69.9492188 C118.189453,69.8164062 118.482422,69.7011719 118.787109,69.6035156 C119.091797,69.5058594 119.410156,69.4570312 119.742188,69.4570312 C120.148438,69.4570312 120.448242,69.5595703 120.641602,69.7646484 C120.834961,69.9697266 120.931641,70.2792969 120.931641,70.6933594 L120.931641,70.6933594 L120.931641,71.0390625 L119.8125,71.0742188 C118.796875,71.1054688 118.041016,71.2910156 117.544922,71.6308594 C117.048828,71.9707031 116.800781,72.4746094 116.800781,73.1425781 C116.800781,73.7714844 116.979492,74.2578125 117.336914,74.6015625 C117.694336,74.9453125 118.191406,75.1171875 118.828125,75.1171875 Z M119.261719,74.0625 C118.917969,74.0625 118.660156,73.9833984 118.488281,73.8251953 C118.316406,73.6669922 118.230469,73.4433594 118.230469,73.1542969 C118.230469,72.7558594 118.37793,72.4599609 118.672852,72.2666016 C118.967773,72.0732422 119.439453,71.9648438 120.087891,71.9414062 L120.087891,71.9414062 L120.919922,71.90625 L120.919922,72.46875 C120.919922,72.9726562 120.768555,73.3642578 120.46582,73.6435547 C120.163086,73.9228516 119.761719,74.0625 119.261719,74.0625 Z M124.916016,67.5585938 C125.158203,67.5585938 125.34668,67.4912109 125.481445,67.3564453 C125.616211,67.2216797 125.683594,67.0371094 125.683594,66.8027344 C125.683594,66.5566406 125.616211,66.3671875 125.481445,66.234375 C125.34668,66.1015625 125.158203,66.0351562 124.916016,66.0351562 C124.666016,66.0351562 124.473633,66.1015625 124.338867,66.234375 C124.204102,66.3671875 124.136719,66.5566406 124.136719,66.8027344 C124.136719,67.0371094 124.204102,67.2216797 124.338867,67.3564453 C124.473633,67.4912109 124.666016,67.5585938 124.916016,67.5585938 Z M125.595703,75 L125.595703,68.5195312 L124.21875,68.5195312 L124.21875,75 L125.595703,75 Z M128.941406,75 L128.941406,71.7714844 C128.941406,70.9628906 129.076172,70.3867188 129.345703,70.0429688 C129.615234,69.6992188 130.041016,69.5273438 130.623047,69.5273438 C131.060547,69.5273438 131.379883,69.6503906 131.581055,69.8964844 C131.782227,70.1425781 131.882812,70.515625 131.882812,71.015625 L131.882812,71.015625 L131.882812,75 L133.265625,75 L133.265625,70.7753906 C133.265625,69.1933594 132.488281,68.4023438 130.933594,68.4023438 C130.496094,68.4023438 130.097656,68.4863281 129.738281,68.6542969 C129.378906,68.8222656 129.101562,69.0605469 128.90625,69.3691406 L128.90625,69.3691406 L128.835938,69.3691406 L128.642578,68.5195312 L127.564453,68.5195312 L127.564453,75 L128.941406,75 Z M92.3613281,89.8828125 L92.3613281,87.2285156 C92.3613281,87.1113281 92.3339844,86.7792969 92.2792969,86.2324219 L92.2792969,86.2324219 L92.3613281,86.2324219 C92.8144531,86.8222656 93.4511719,87.1171875 94.2714844,87.1171875 C95.0800781,87.1171875 95.7138672,86.8203125 96.1728516,86.2265625 C96.6318359,85.6328125 96.8613281,84.8066406 96.8613281,83.7480469 C96.8613281,82.6894531 96.6357422,81.8671875 96.1845703,81.28125 C95.7333984,80.6953125 95.1035156,80.4023438 94.2949219,80.4023438 C93.4355469,80.4023438 92.7910156,80.7304688 92.3613281,81.3867188 L92.3613281,81.3867188 L92.2910156,81.3867188 C92.1933594,80.9296875 92.1289062,80.640625 92.0976562,80.5195312 L92.0976562,80.5195312 L90.984375,80.5195312 L90.984375,89.8828125 L92.3613281,89.8828125 Z M93.9609375,85.9921875 C93.3945312,85.9921875 92.9863281,85.8154297 92.7363281,85.4619141 C92.4863281,85.1083984 92.3613281,84.5371094 92.3613281,83.7480469 L92.3613281,83.7480469 L92.3613281,83.5429688 C92.3613281,82.8398438 92.4873047,82.328125 92.7392578,82.0078125 C92.9912109,81.6875 93.390625,81.5273438 93.9375,81.5273438 C94.4335938,81.5273438 94.8095703,81.7138672 95.0654297,82.0869141 C95.3212891,82.4599609 95.4492188,83.0097656 95.4492188,83.7363281 C95.4492188,84.4589844 95.3203125,85.015625 95.0625,85.40625 C94.8046875,85.796875 94.4375,85.9921875 93.9609375,85.9921875 Z M101.126953,87.1171875 C102.095703,87.1171875 102.851562,86.8203125 103.394531,86.2265625 C103.9375,85.6328125 104.208984,84.8066406 104.208984,83.7480469 C104.208984,82.7246094 103.935547,81.9111328 103.388672,81.3076172 C102.841797,80.7041016 102.099609,80.4023438 101.162109,80.4023438 C100.181641,80.4023438 99.421875,80.6972656 98.8828125,81.2871094 C98.34375,81.8769531 98.0742188,82.6972656 98.0742188,83.7480469 C98.0742188,84.4238281 98.1992188,85.0175781 98.4492188,85.5292969 C98.6992188,86.0410156 99.0566406,86.4335938 99.5214844,86.7070312 C99.9863281,86.9804688 100.521484,87.1171875 101.126953,87.1171875 Z M101.150391,85.9921875 C100.044922,85.9921875 99.4921875,85.2441406 99.4921875,83.7480469 C99.4921875,83.0332031 99.6220703,82.484375 99.8818359,82.1015625 C100.141602,81.71875 100.560547,81.5273438 101.138672,81.5273438 C102.240234,81.5273438 102.791016,82.2675781 102.791016,83.7480469 C102.791016,85.2441406 102.244141,85.9921875 101.150391,85.9921875 Z M106.488281,79.5585938 C106.730469,79.5585938 106.918945,79.4912109 107.053711,79.3564453 C107.188477,79.2216797 107.255859,79.0371094 107.255859,78.8027344 C107.255859,78.5566406 107.188477,78.3671875 107.053711,78.234375 C106.918945,78.1015625 106.730469,78.0351562 106.488281,78.0351562 C106.238281,78.0351562 106.045898,78.1015625 105.911133,78.234375 C105.776367,78.3671875 105.708984,78.5566406 105.708984,78.8027344 C105.708984,79.0371094 105.776367,79.2216797 105.911133,79.3564453 C106.045898,79.4912109 106.238281,79.5585938 106.488281,79.5585938 Z M107.167969,87 L107.167969,80.5195312 L105.791016,80.5195312 L105.791016,87 L107.167969,87 Z M110.513672,87 L110.513672,83.7714844 C110.513672,82.9628906 110.648438,82.3867188 110.917969,82.0429688 C111.1875,81.6992188 111.613281,81.5273438 112.195312,81.5273438 C112.632812,81.5273438 112.952148,81.6503906 113.15332,81.8964844 C113.354492,82.1425781 113.455078,82.515625 113.455078,83.015625 L113.455078,83.015625 L113.455078,87 L114.837891,87 L114.837891,82.7753906 C114.837891,81.1933594 114.060547,80.4023438 112.505859,80.4023438 C112.068359,80.4023438 111.669922,80.4863281 111.310547,80.6542969 C110.951172,80.8222656 110.673828,81.0605469 110.478516,81.3691406 L110.478516,81.3691406 L110.408203,81.3691406 L110.214844,80.5195312 L109.136719,80.5195312 L109.136719,87 L110.513672,87 Z M118.839844,87.1171875 C119.097656,87.1171875 119.34668,87.0947266 119.586914,87.0498047 C119.827148,87.0048828 120.023438,86.9492188 120.175781,86.8828125 L120.175781,86.8828125 L120.175781,85.8457031 C119.839844,85.9511719 119.503906,86.0039062 119.167969,86.0039062 C118.898438,86.0039062 118.680664,85.9248047 118.514648,85.7666016 C118.348633,85.6083984 118.265625,85.3632812 118.265625,85.03125 L118.265625,85.03125 L118.265625,81.5625 L120.111328,81.5625 L120.111328,80.5195312 L118.265625,80.5195312 L118.265625,79.078125 L117.416016,79.078125 L116.947266,80.4492188 L115.998047,80.953125 L115.998047,81.5625 L116.882812,81.5625 L116.882812,85.0546875 C116.882812,86.4296875 117.535156,87.1171875 118.839844,87.1171875 Z M123.152344,87.1171875 C124.011719,87.1171875 124.671875,86.9482422 125.132812,86.6103516 C125.59375,86.2724609 125.824219,85.7871094 125.824219,85.1542969 C125.824219,84.8417969 125.765625,84.5732422 125.648438,84.3486328 C125.53125,84.1240234 125.351562,83.9257812 125.109375,83.7539062 C124.867188,83.5820312 124.478516,83.3925781 123.943359,83.1855469 C123.306641,82.9394531 122.893555,82.7460938 122.704102,82.6054688 C122.514648,82.4648438 122.419922,82.2929688 122.419922,82.0898438 C122.419922,81.6757812 122.783203,81.46875 123.509766,81.46875 C123.986328,81.46875 124.574219,81.6132812 125.273438,81.9023438 L125.273438,81.9023438 L125.71875,80.8652344 C125.039062,80.5566406 124.318359,80.4023438 123.556641,80.4023438 C122.787109,80.4023438 122.178711,80.5556641 121.731445,80.8623047 C121.28418,81.1689453 121.060547,81.5996094 121.060547,82.1542969 C121.060547,82.6152344 121.192383,82.9902344 121.456055,83.2792969 C121.719727,83.5683594 122.224609,83.8574219 122.970703,84.1464844 C123.353516,84.2949219 123.652344,84.4277344 123.867188,84.5449219 C124.082031,84.6621094 124.236328,84.7753906 124.330078,84.8847656 C124.423828,84.9941406 124.470703,85.1308594 124.470703,85.2949219 C124.470703,85.8066406 124.046875,86.0625 123.199219,86.0625 C122.542969,86.0625 121.833984,85.8867188 121.072266,85.5351562 L121.072266,85.5351562 L121.072266,86.7246094 C121.595703,86.9863281 122.289062,87.1171875 123.152344,87.1171875 Z M127.974609,87.1699219 C128.255859,87.1699219 128.47168,87.0888672 128.62207,86.9267578 C128.772461,86.7646484 128.847656,86.5449219 128.847656,86.2675781 C128.847656,85.9941406 128.773438,85.7783203 128.625,85.6201172 C128.476562,85.4619141 128.259766,85.3828125 127.974609,85.3828125 C127.693359,85.3828125 127.478516,85.4589844 127.330078,85.6113281 C127.181641,85.7636719 127.107422,85.9824219 127.107422,86.2675781 C127.107422,86.5488281 127.181641,86.7695312 127.330078,86.9296875 C127.478516,87.0898438 127.693359,87.1699219 127.974609,87.1699219 Z" id="Briefstatementofmainpoints." fill="#FFFFFF" fill-rule="nonzero"></path>
            </g>
        </g>
    </g>
</svg>