<?xml version="1.0" encoding="UTF-8"?>
<svg width="163px" height="98px" viewBox="0 0 163 98" version="1.1" xmlns="http://www.w3.org/2000/svg" xmlns:xlink="http://www.w3.org/1999/xlink">
    <!-- Generator: Sketch 62 (91390) - https://sketch.com -->
    <title>Target Vocabulary</title>
    <desc>Created with Sketch.</desc>
    <defs>
        <radialGradient cx="26.9203086%" cy="60.7926827%" fx="26.9203086%" fy="60.7926827%" r="48.1480443%" gradientTransform="translate(0.269203,0.607927),scale(0.595092,1.000000),rotate(143.900900),translate(-0.269203,-0.607927)" id="radialGradient-1">
            <stop stop-color="#FAD961" offset="0%"></stop>
            <stop stop-color="#F76B1C" offset="100%"></stop>
        </radialGradient>
        <path d="M5.79394531,18 L5.79394531,7.56591797 L9.36328125,7.56591797 L9.36328125,5.86425781 L0.240722656,5.86425781 L0.240722656,7.56591797 L3.81005859,7.56591797 L3.81005859,18 L5.79394531,18 Z M13.2397461,18.1660156 C13.9425456,18.1660156 14.5180664,18.0650228 14.9663086,17.8630371 C15.4145508,17.6610514 15.860026,17.280599 16.3027344,16.7216797 L16.3027344,16.7216797 L16.3691406,16.7216797 L16.7592773,18 L18.1538086,18 L18.1538086,11.815918 C18.1538086,10.7257487 17.8563639,9.92610677 17.2614746,9.41699219 C16.6665853,8.9078776 15.785319,8.65332031 14.6176758,8.65332031 C14.0919596,8.65332031 13.5330404,8.72111003 12.940918,8.85668945 C12.3487956,8.99226888 11.8037109,9.19010417 11.3056641,9.45019531 L11.3056641,9.45019531 L11.9365234,10.8447266 C12.3349609,10.6565755 12.75,10.4933268 13.1816406,10.3549805 C13.6132812,10.2166341 14.0642904,10.1474609 14.534668,10.1474609 C15.1101888,10.1474609 15.5349121,10.2927246 15.8088379,10.583252 C16.0827637,10.8737793 16.2197266,11.3123372 16.2197266,11.8989258 L16.2197266,11.8989258 L16.2197266,12.3886719 L14.6342773,12.4384766 C13.1954753,12.4827474 12.1246745,12.7456055 11.421875,13.2270508 C10.7190755,13.7084961 10.3676758,14.4223633 10.3676758,15.3686523 C10.3676758,16.2596029 10.6208496,16.9485677 11.1271973,17.4355469 C11.6335449,17.922526 12.3377279,18.1660156 13.2397461,18.1660156 Z M13.8540039,16.671875 C13.3670247,16.671875 13.0017904,16.5598145 12.7583008,16.3356934 C12.5148112,16.1115723 12.3930664,15.7947591 12.3930664,15.3852539 C12.3930664,14.8208008 12.6019694,14.4016113 13.0197754,14.1276855 C13.4375814,13.8537598 14.1057943,13.7001953 15.0244141,13.6669922 L15.0244141,13.6669922 L16.203125,13.6171875 L16.203125,14.4140625 C16.203125,15.1279297 15.9886882,15.6826986 15.5598145,16.0783691 C15.1309408,16.4740397 14.5623372,16.671875 13.8540039,16.671875 Z M22.8271484,18 L22.8271484,13.2021484 C22.8271484,12.3886719 23.0692546,11.7273763 23.5534668,11.2182617 C24.037679,10.7091471 24.6699219,10.4545898 25.4501953,10.4545898 C25.7490234,10.4545898 26.0367839,10.487793 26.3134766,10.5541992 L26.3134766,10.5541992 L26.5043945,8.73632812 C26.2498372,8.68098958 25.9261068,8.65332031 25.5332031,8.65332031 C24.96875,8.65332031 24.4416504,8.81380208 23.9519043,9.13476562 C23.4621582,9.45572917 23.0651042,9.89013672 22.7607422,10.4379883 L22.7607422,10.4379883 L22.6611328,10.4379883 L22.4038086,8.81933594 L20.8764648,8.81933594 L20.8764648,18 L22.8271484,18 Z M30.8540039,22.0839844 C32.4754232,22.0839844 33.7150065,21.8017578 34.5727539,21.2373047 C35.4305013,20.6728516 35.859375,19.8704427 35.859375,18.8300781 C35.859375,18.0166016 35.5965169,17.394043 35.0708008,16.9624023 C34.5450846,16.5307617 33.7758789,16.3149414 32.7631836,16.3149414 L32.7631836,16.3149414 L31.1611328,16.3149414 C30.6354167,16.3149414 30.2743327,16.2623698 30.0778809,16.1572266 C29.881429,16.0520833 29.7832031,15.8943685 29.7832031,15.684082 C29.7832031,15.3354492 29.9934896,15.0310872 30.4140625,14.7709961 C30.6520182,14.8152669 30.9176432,14.8374023 31.2109375,14.8374023 C32.3564453,14.8374023 33.2556966,14.5662435 33.9086914,14.0239258 C34.5616862,13.4816081 34.8881836,12.7373047 34.8881836,11.7910156 C34.8881836,11.4755859 34.8411458,11.1767578 34.7470703,10.8945312 C34.6529948,10.6123047 34.5340169,10.374349 34.3901367,10.1806641 L34.3901367,10.1806641 L35.9589844,9.89013672 L35.9589844,8.81933594 L32.7797852,8.81933594 C32.6359049,8.78059896 32.4214681,8.74324544 32.1364746,8.70727539 C31.8514811,8.67130534 31.5789388,8.65332031 31.3188477,8.65332031 C30.1567383,8.65332031 29.2616374,8.92724609 28.6335449,9.47509766 C28.0054525,10.0229492 27.6914062,10.7949219 27.6914062,11.7910156 C27.6914062,12.4108073 27.8394368,12.9517415 28.135498,13.4138184 C28.4315592,13.8758952 28.8175456,14.2093099 29.293457,14.4140625 C28.9116211,14.6464844 28.6238607,14.8816732 28.4301758,15.1196289 C28.2364909,15.3575846 28.1396484,15.648112 28.1396484,15.9912109 C28.1396484,16.2623698 28.2240397,16.5210775 28.3928223,16.767334 C28.5616048,17.0135905 28.7760417,17.1920573 29.0361328,17.3027344 C28.3942057,17.4521484 27.8947754,17.7191569 27.5378418,18.1037598 C27.1809082,18.4883626 27.0024414,18.9628906 27.0024414,19.5273438 C27.0024414,20.3463542 27.3317057,20.9772135 27.9902344,21.4199219 C28.648763,21.8626302 29.6033529,22.0839844 30.8540039,22.0839844 Z M31.3022461,13.5839844 C30.7488607,13.5839844 30.3241374,13.4290365 30.0280762,13.1191406 C29.732015,12.8092448 29.5839844,12.3665365 29.5839844,11.7910156 C29.5839844,11.1767578 29.729248,10.7091471 30.0197754,10.3881836 C30.3103027,10.0672201 30.737793,9.90673828 31.3022461,9.90673828 C31.8722331,9.90673828 32.2969564,10.0686035 32.576416,10.392334 C32.8558757,10.7160645 32.9956055,11.1767578 32.9956055,11.7744141 C32.9956055,12.9807943 32.4311523,13.5839844 31.3022461,13.5839844 Z M30.9121094,20.7392578 C30.2259115,20.7392578 29.693278,20.6258138 29.314209,20.3989258 C28.93514,20.1720378 28.7456055,19.8483073 28.7456055,19.4277344 C28.7456055,18.9794922 28.9102376,18.6239421 29.239502,18.361084 C29.5687663,18.0982259 30.0128581,17.9667969 30.5717773,17.9667969 L30.5717773,17.9667969 L32.0493164,17.9667969 C32.824056,17.9667969 33.3539225,18.0511882 33.638916,18.2199707 C33.9239095,18.3887533 34.0664062,18.6723633 34.0664062,19.0708008 C34.0664062,19.5743815 33.8063151,19.9783529 33.2861328,20.2827148 C32.7659505,20.5870768 31.9746094,20.7392578 30.9121094,20.7392578 Z M41.6699219,18.1660156 C42.2952474,18.1660156 42.8513997,18.1189779 43.3383789,18.0249023 C43.8253581,17.9308268 44.3068034,17.7703451 44.7827148,17.543457 L44.7827148,17.543457 L44.7827148,15.9580078 C44.245931,16.1959635 43.7437337,16.3661296 43.276123,16.4685059 C42.8085124,16.5708822 42.3035482,16.6220703 41.7612305,16.6220703 C40.9366862,16.6220703 40.297526,16.3827311 39.84375,15.9040527 C39.389974,15.4253743 39.1492513,14.7405599 39.121582,13.8496094 L39.121582,13.8496094 L45.2392578,13.8496094 L45.2392578,12.7954102 C45.2392578,11.5060221 44.8878581,10.4933268 44.1850586,9.75732422 C43.4822591,9.02132161 42.5249023,8.65332031 41.3129883,8.65332031 C40.0069987,8.65332031 38.9804688,9.08219401 38.2333984,9.93994141 C37.4863281,10.7976888 37.112793,11.9763997 37.112793,13.4760742 C37.112793,14.9370117 37.5153809,16.083903 38.3205566,16.916748 C39.1257324,17.7495931 40.2421875,18.1660156 41.6699219,18.1660156 Z M43.3217773,12.4384766 L39.1547852,12.4384766 C39.2267253,11.6858724 39.4494629,11.1131185 39.822998,10.7202148 C40.1965332,10.3273112 40.6931966,10.1308594 41.3129883,10.1308594 C41.9327799,10.1308594 42.4197591,10.3259277 42.7739258,10.7160645 C43.1280924,11.1062012 43.3107096,11.6803385 43.3217773,12.4384766 L43.3217773,12.4384766 Z M50.4106445,18.1660156 C50.7758789,18.1660156 51.1286621,18.134196 51.4689941,18.0705566 C51.8093262,18.0069173 52.0874023,17.9280599 52.3032227,17.8339844 L52.3032227,17.8339844 L52.3032227,16.3647461 C51.8273112,16.5141602 51.3513997,16.5888672 50.8754883,16.5888672 C50.4936523,16.5888672 50.18514,16.4768066 49.9499512,16.2526855 C49.7147624,16.0285645 49.597168,15.6813151 49.597168,15.2109375 L49.597168,15.2109375 L49.597168,10.296875 L52.2119141,10.296875 L52.2119141,8.81933594 L49.597168,8.81933594 L49.597168,6.77734375 L48.3935547,6.77734375 L47.7294922,8.71972656 L46.3847656,9.43359375 L46.3847656,10.296875 L47.6381836,10.296875 L47.6381836,15.2441406 C47.6381836,17.1920573 48.5623372,18.1660156 50.4106445,18.1660156 Z M63.484375,18 L67.734375,5.86425781 L65.6757812,5.86425781 L63.144043,13.3764648 C63.0499674,13.6420898 62.9282227,14.0515951 62.7788086,14.6049805 C62.6293945,15.1583659 62.5187174,15.6453451 62.4467773,16.065918 C62.4025065,15.7892253 62.3056641,15.3672689 62.15625,14.8000488 C62.0068359,14.2328288 61.8657227,13.7693685 61.7329102,13.409668 L61.7329102,13.409668 L59.2011719,5.86425781 L57.1591797,5.86425781 L61.3925781,18 L63.484375,18 Z M72.9057617,18.1660156 C74.2781576,18.1660156 75.3489583,17.7454427 76.1181641,16.9042969 C76.8873698,16.063151 77.2719727,14.8927409 77.2719727,13.3930664 C77.2719727,11.9431966 76.8846029,10.7907715 76.1098633,9.93579102 C75.3351237,9.08081055 74.2836914,8.65332031 72.9555664,8.65332031 C71.566569,8.65332031 70.4902344,9.0711263 69.7265625,9.90673828 C68.9628906,10.7423503 68.5810547,11.9044596 68.5810547,13.3930664 C68.5810547,14.3504232 68.758138,15.191569 69.1123047,15.9165039 C69.4664714,16.6414388 69.972819,17.1975911 70.6313477,17.5849609 C71.2898763,17.9723307 72.0480143,18.1660156 72.9057617,18.1660156 Z M72.9389648,16.5722656 C71.3728841,16.5722656 70.5898438,15.5125326 70.5898438,13.3930664 C70.5898438,12.3803711 70.7738444,11.6028646 71.1418457,11.0605469 C71.509847,10.5182292 72.1033529,10.2470703 72.9223633,10.2470703 C74.4829102,10.2470703 75.2631836,11.2957357 75.2631836,13.3930664 C75.2631836,15.5125326 74.488444,16.5722656 72.9389648,16.5722656 Z M83.215332,18.1660156 C83.7797852,18.1660156 84.259847,18.1217448 84.6555176,18.0332031 C85.0511882,17.9446615 85.4233398,17.7980143 85.7719727,17.5932617 L85.7719727,17.5932617 L85.7719727,15.8916016 C84.9972331,16.3232422 84.1754557,16.5390625 83.3066406,16.5390625 C82.5429688,16.5390625 81.9632975,16.2803548 81.567627,15.7629395 C81.1719564,15.2455241 80.9741211,14.472168 80.9741211,13.4428711 C80.9741211,11.3344727 81.7682292,10.2802734 83.3564453,10.2802734 C83.8932292,10.2802734 84.5738932,10.4407552 85.3984375,10.7617188 L85.3984375,10.7617188 L85.987793,9.19287109 C85.2130534,8.83317057 84.3414714,8.65332031 83.3730469,8.65332031 C81.9453125,8.65332031 80.8537598,9.06835938 80.0983887,9.8984375 C79.3430176,10.7285156 78.965332,11.9155273 78.965332,13.4594727 C78.965332,14.9757487 79.326416,16.1392415 80.048584,16.9499512 C80.770752,17.7606608 81.8263346,18.1660156 83.215332,18.1660156 Z M90.1547852,18.1660156 C90.8575846,18.1660156 91.4331055,18.0650228 91.8813477,17.8630371 C92.3295898,17.6610514 92.7750651,17.280599 93.2177734,16.7216797 L93.2177734,16.7216797 L93.2841797,16.7216797 L93.6743164,18 L95.0688477,18 L95.0688477,11.815918 C95.0688477,10.7257487 94.771403,9.92610677 94.1765137,9.41699219 C93.5816243,8.9078776 92.7003581,8.65332031 91.5327148,8.65332031 C91.0069987,8.65332031 90.4480794,8.72111003 89.855957,8.85668945 C89.2638346,8.99226888 88.71875,9.19010417 88.2207031,9.45019531 L88.2207031,9.45019531 L88.8515625,10.8447266 C89.25,10.6565755 89.6650391,10.4933268 90.0966797,10.3549805 C90.5283203,10.2166341 90.9793294,10.1474609 91.449707,10.1474609 C92.0252279,10.1474609 92.4499512,10.2927246 92.723877,10.583252 C92.9978027,10.8737793 93.1347656,11.3123372 93.1347656,11.8989258 L93.1347656,11.8989258 L93.1347656,12.3886719 L91.5493164,12.4384766 C90.1105143,12.4827474 89.0397135,12.7456055 88.3369141,13.2270508 C87.6341146,13.7084961 87.2827148,14.4223633 87.2827148,15.3686523 C87.2827148,16.2596029 87.5358887,16.9485677 88.0422363,17.4355469 C88.548584,17.922526 89.2527669,18.1660156 90.1547852,18.1660156 Z M90.769043,16.671875 C90.2820638,16.671875 89.9168294,16.5598145 89.6733398,16.3356934 C89.4298503,16.1115723 89.3081055,15.7947591 89.3081055,15.3852539 C89.3081055,14.8208008 89.5170085,14.4016113 89.9348145,14.1276855 C90.3526204,13.8537598 91.0208333,13.7001953 91.9394531,13.6669922 L91.9394531,13.6669922 L93.1181641,13.6171875 L93.1181641,14.4140625 C93.1181641,15.1279297 92.9037272,15.6826986 92.4748535,16.0783691 C92.0459798,16.4740397 91.4773763,16.671875 90.769043,16.671875 Z M102.448242,18.1660156 C103.599284,18.1660156 104.498535,17.7468262 105.145996,16.9084473 C105.793457,16.0700684 106.117188,14.8982747 106.117188,13.3930664 C106.117188,11.8933919 105.797607,10.7285156 105.158447,9.8984375 C104.519287,9.06835938 103.626953,8.65332031 102.481445,8.65332031 C101.275065,8.65332031 100.361979,9.10986328 99.7421875,10.0229492 L99.7421875,10.0229492 L99.6591797,10.0229492 C99.6702474,9.90120443 99.686849,9.61621094 99.7089844,9.16796875 C99.7311198,8.71972656 99.7421875,8.38216146 99.7421875,8.15527344 L99.7421875,8.15527344 L99.7421875,5.08398438 L97.7915039,5.08398438 L97.7915039,18 L99.2524414,18 L99.609375,16.9125977 L99.7421875,16.9125977 C100.384115,17.7482096 101.286133,18.1660156 102.448242,18.1660156 Z M102.008301,16.5722656 C101.205892,16.5722656 100.627604,16.3218587 100.273438,15.8210449 C99.9192708,15.3202311 99.7421875,14.5109049 99.7421875,13.3930664 L99.7421875,13.3930664 L99.7421875,13.2602539 C99.7532552,12.1756185 99.931722,11.4022624 100.277588,10.9401855 C100.623454,10.4781087 101.18929,10.2470703 101.975098,10.2470703 C103.402832,10.2470703 104.116699,11.2902018 104.116699,13.3764648 C104.116699,14.4112956 103.938232,15.2026367 103.581299,15.7504883 C103.224365,16.2983398 102.700033,16.5722656 102.008301,16.5722656 Z M111.612305,18.1660156 C112.254232,18.1660156 112.825602,18.0442708 113.326416,17.8007812 C113.82723,17.5572917 114.213216,17.2224935 114.484375,16.7963867 L114.484375,16.7963867 L114.583984,16.7963867 L114.85791,18 L116.393555,18 L116.393555,8.81933594 L114.43457,8.81933594 L114.43457,13.3930664 C114.43457,14.5441081 114.242269,15.364502 113.857666,15.854248 C113.473063,16.3439941 112.871257,16.5888672 112.052246,16.5888672 C111.437988,16.5888672 110.986979,16.4131673 110.699219,16.0617676 C110.411458,15.7103678 110.267578,15.1832682 110.267578,14.4804688 L110.267578,14.4804688 L110.267578,8.81933594 L108.300293,8.81933594 L108.300293,14.8208008 C108.300293,15.9441732 108.574219,16.7825521 109.12207,17.3359375 C109.669922,17.8893229 110.5,18.1660156 111.612305,18.1660156 Z M121.125,18 L121.125,5.08398438 L119.174316,5.08398438 L119.174316,18 L121.125,18 Z M126.138672,18.1660156 C126.841471,18.1660156 127.416992,18.0650228 127.865234,17.8630371 C128.313477,17.6610514 128.758952,17.280599 129.20166,16.7216797 L129.20166,16.7216797 L129.268066,16.7216797 L129.658203,18 L131.052734,18 L131.052734,11.815918 C131.052734,10.7257487 130.75529,9.92610677 130.1604,9.41699219 C129.565511,8.9078776 128.684245,8.65332031 127.516602,8.65332031 C126.990885,8.65332031 126.431966,8.72111003 125.839844,8.85668945 C125.247721,8.99226888 124.702637,9.19010417 124.20459,9.45019531 L124.20459,9.45019531 L124.835449,10.8447266 C125.233887,10.6565755 125.648926,10.4933268 126.080566,10.3549805 C126.512207,10.2166341 126.963216,10.1474609 127.433594,10.1474609 C128.009115,10.1474609 128.433838,10.2927246 128.707764,10.583252 C128.981689,10.8737793 129.118652,11.3123372 129.118652,11.8989258 L129.118652,11.8989258 L129.118652,12.3886719 L127.533203,12.4384766 C126.094401,12.4827474 125.0236,12.7456055 124.320801,13.2270508 C123.618001,13.7084961 123.266602,14.4223633 123.266602,15.3686523 C123.266602,16.2596029 123.519775,16.9485677 124.026123,17.4355469 C124.532471,17.922526 125.236654,18.1660156 126.138672,18.1660156 Z M126.75293,16.671875 C126.265951,16.671875 125.900716,16.5598145 125.657227,16.3356934 C125.413737,16.1115723 125.291992,15.7947591 125.291992,15.3852539 C125.291992,14.8208008 125.500895,14.4016113 125.918701,14.1276855 C126.336507,13.8537598 127.00472,13.7001953 127.92334,13.6669922 L127.92334,13.6669922 L129.102051,13.6171875 L129.102051,14.4140625 C129.102051,15.1279297 128.887614,15.6826986 128.45874,16.0783691 C128.029867,16.4740397 127.461263,16.671875 126.75293,16.671875 Z M135.726074,18 L135.726074,13.2021484 C135.726074,12.3886719 135.96818,11.7273763 136.452393,11.2182617 C136.936605,10.7091471 137.568848,10.4545898 138.349121,10.4545898 C138.647949,10.4545898 138.93571,10.487793 139.212402,10.5541992 L139.212402,10.5541992 L139.40332,8.73632812 C139.148763,8.68098958 138.825033,8.65332031 138.432129,8.65332031 C137.867676,8.65332031 137.340576,8.81380208 136.85083,9.13476562 C136.361084,9.45572917 135.96403,9.89013672 135.659668,10.4379883 L135.659668,10.4379883 L135.560059,10.4379883 L135.302734,8.81933594 L133.775391,8.81933594 L133.775391,18 L135.726074,18 Z M141.329102,22.0839844 C142.994792,22.0839844 144.18457,21.1293945 144.898438,19.2202148 L144.898438,19.2202148 L148.824707,8.81933594 L146.716309,8.81933594 C145.443522,12.5104167 144.740723,14.5731608 144.60791,15.0075684 C144.475098,15.4419759 144.383789,15.8113607 144.333984,16.1157227 L144.333984,16.1157227 L144.267578,16.1157227 C144.173503,15.4627279 143.985352,14.7654622 143.703125,14.0239258 L143.703125,14.0239258 L141.835449,8.81933594 L139.710449,8.81933594 L143.395996,18 L143.055664,18.8632812 C142.673828,19.9534505 142.012533,20.4985352 141.071777,20.4985352 C140.695475,20.4985352 140.360677,20.465332 140.067383,20.3989258 L140.067383,20.3989258 L140.067383,21.9428711 C140.476888,22.0369466 140.897461,22.0839844 141.329102,22.0839844 Z" id="path-2"></path>
    </defs>
    <g id="Symbols" stroke="none" stroke-width="1" fill="none" fill-rule="evenodd">
        <g id="i/Target-Vocabulary">
            <g id="Target-Vocabulary">
                <g id="Group-32">
                    <g id="Group-22">
                        <g id="Group-21">
                            <line x1="79" y1="43" x2="79" y2="88.7428943" id="Line-3" stroke="#FFFFFF" stroke-width="2" stroke-linecap="square"></line>
                            <g id="Identify" fill="url(#radialGradient-1)" fill-rule="nonzero">
                                <g id="Group-5">
                                    <g id="Group-2">
                                        <g id="Group-3" transform="translate(0.000000, 0.600000)">
                                            <path d="M6,0 L157,0 C160.313708,-6.08718376e-16 163,2.6862915 163,6 L163,91 C163,94.3137085 160.313708,97 157,97 L6,97 C2.6862915,97 4.05812251e-16,94.3137085 0,91 L0,6 C-4.05812251e-16,2.6862915 2.6862915,6.08718376e-16 6,0 Z" id="Rectangle-2"></path>
                                        </g>
                                    </g>
                                </g>
                            </g>
                            <line x1="2" y1="32.25" x2="161" y2="32.25" id="Line-2" stroke="#FFFFFF" stroke-width="4" stroke-linecap="square"></line>
                            <line x1="82" y1="42" x2="82" y2="87.7428943" id="Line-3" stroke="#FFFFFF" stroke-width="2" stroke-linecap="square"></line>
                            <path d="M89.53125,56 L89.53125,47.4335938 L88.1308594,47.4335938 L88.1308594,56 L89.53125,56 Z M93.0234375,56 L93.0234375,52.7714844 C93.0234375,51.9628906 93.1582031,51.3867188 93.4277344,51.0429688 C93.6972656,50.6992188 94.1230469,50.5273438 94.7050781,50.5273438 C95.1425781,50.5273438 95.4619141,50.6503906 95.6630859,50.8964844 C95.8642578,51.1425781 95.9648438,51.515625 95.9648438,52.015625 L95.9648438,52.015625 L95.9648438,56 L97.3476562,56 L97.3476562,51.7753906 C97.3476562,50.1933594 96.5703125,49.4023438 95.015625,49.4023438 C94.578125,49.4023438 94.1796875,49.4863281 93.8203125,49.6542969 C93.4609375,49.8222656 93.1835938,50.0605469 92.9882812,50.3691406 L92.9882812,50.3691406 L92.9179688,50.3691406 L92.7246094,49.5195312 L91.6464844,49.5195312 L91.6464844,56 L93.0234375,56 Z M101.876953,56.1171875 C102.275391,56.1171875 102.614258,56.0859375 102.893555,56.0234375 C103.172852,55.9609375 103.435547,55.8574219 103.681641,55.7128906 L103.681641,55.7128906 L103.681641,54.5117188 C103.134766,54.8164062 102.554688,54.96875 101.941406,54.96875 C101.402344,54.96875 100.993164,54.7861328 100.713867,54.4208984 C100.43457,54.0556641 100.294922,53.5097656 100.294922,52.7832031 C100.294922,51.2949219 100.855469,50.5507812 101.976562,50.5507812 C102.355469,50.5507812 102.835938,50.6640625 103.417969,50.890625 L103.417969,50.890625 L103.833984,49.7832031 C103.287109,49.5292969 102.671875,49.4023438 101.988281,49.4023438 C100.980469,49.4023438 100.209961,49.6953125 99.6767578,50.28125 C99.1435547,50.8671875 98.8769531,51.7050781 98.8769531,52.7949219 C98.8769531,53.8652344 99.1318359,54.6865234 99.6416016,55.2587891 C100.151367,55.8310547 100.896484,56.1171875 101.876953,56.1171875 Z M107.871094,56.1171875 C108.839844,56.1171875 109.595703,55.8203125 110.138672,55.2265625 C110.681641,54.6328125 110.953125,53.8066406 110.953125,52.7480469 C110.953125,51.7246094 110.679688,50.9111328 110.132812,50.3076172 C109.585938,49.7041016 108.84375,49.4023438 107.90625,49.4023438 C106.925781,49.4023438 106.166016,49.6972656 105.626953,50.2871094 C105.087891,50.8769531 104.818359,51.6972656 104.818359,52.7480469 C104.818359,53.4238281 104.943359,54.0175781 105.193359,54.5292969 C105.443359,55.0410156 105.800781,55.4335938 106.265625,55.7070312 C106.730469,55.9804688 107.265625,56.1171875 107.871094,56.1171875 Z M107.894531,54.9921875 C106.789062,54.9921875 106.236328,54.2441406 106.236328,52.7480469 C106.236328,52.0332031 106.366211,51.484375 106.625977,51.1015625 C106.885742,50.71875 107.304688,50.5273438 107.882812,50.5273438 C108.984375,50.5273438 109.535156,51.2675781 109.535156,52.7480469 C109.535156,54.2441406 108.988281,54.9921875 107.894531,54.9921875 Z M113.912109,56 L113.912109,52.6132812 C113.912109,52.0390625 114.083008,51.5722656 114.424805,51.2128906 C114.766602,50.8535156 115.212891,50.6738281 115.763672,50.6738281 C115.974609,50.6738281 116.177734,50.6972656 116.373047,50.7441406 L116.373047,50.7441406 L116.507812,49.4609375 C116.328125,49.421875 116.099609,49.4023438 115.822266,49.4023438 C115.423828,49.4023438 115.051758,49.515625 114.706055,49.7421875 C114.360352,49.96875 114.080078,50.2753906 113.865234,50.6621094 L113.865234,50.6621094 L113.794922,50.6621094 L113.613281,49.5195312 L112.535156,49.5195312 L112.535156,56 L113.912109,56 Z M119.085938,58.8828125 L119.085938,56.2285156 C119.085938,56.1113281 119.058594,55.7792969 119.003906,55.2324219 L119.003906,55.2324219 L119.085938,55.2324219 C119.539062,55.8222656 120.175781,56.1171875 120.996094,56.1171875 C121.804688,56.1171875 122.438477,55.8203125 122.897461,55.2265625 C123.356445,54.6328125 123.585938,53.8066406 123.585938,52.7480469 C123.585938,51.6894531 123.360352,50.8671875 122.90918,50.28125 C122.458008,49.6953125 121.828125,49.4023438 121.019531,49.4023438 C120.160156,49.4023438 119.515625,49.7304688 119.085938,50.3867188 L119.085938,50.3867188 L119.015625,50.3867188 C118.917969,49.9296875 118.853516,49.640625 118.822266,49.5195312 L118.822266,49.5195312 L117.708984,49.5195312 L117.708984,58.8828125 L119.085938,58.8828125 Z M120.685547,54.9921875 C120.119141,54.9921875 119.710938,54.8154297 119.460938,54.4619141 C119.210938,54.1083984 119.085938,53.5371094 119.085938,52.7480469 L119.085938,52.7480469 L119.085938,52.5429688 C119.085938,51.8398438 119.211914,51.328125 119.463867,51.0078125 C119.71582,50.6875 120.115234,50.5273438 120.662109,50.5273438 C121.158203,50.5273438 121.53418,50.7138672 121.790039,51.0869141 C122.045898,51.4599609 122.173828,52.0097656 122.173828,52.7363281 C122.173828,53.4589844 122.044922,54.015625 121.787109,54.40625 C121.529297,54.796875 121.162109,54.9921875 120.685547,54.9921875 Z M127.851562,56.1171875 C128.820312,56.1171875 129.576172,55.8203125 130.119141,55.2265625 C130.662109,54.6328125 130.933594,53.8066406 130.933594,52.7480469 C130.933594,51.7246094 130.660156,50.9111328 130.113281,50.3076172 C129.566406,49.7041016 128.824219,49.4023438 127.886719,49.4023438 C126.90625,49.4023438 126.146484,49.6972656 125.607422,50.2871094 C125.068359,50.8769531 124.798828,51.6972656 124.798828,52.7480469 C124.798828,53.4238281 124.923828,54.0175781 125.173828,54.5292969 C125.423828,55.0410156 125.78125,55.4335938 126.246094,55.7070312 C126.710938,55.9804688 127.246094,56.1171875 127.851562,56.1171875 Z M127.875,54.9921875 C126.769531,54.9921875 126.216797,54.2441406 126.216797,52.7480469 C126.216797,52.0332031 126.34668,51.484375 126.606445,51.1015625 C126.866211,50.71875 127.285156,50.5273438 127.863281,50.5273438 C128.964844,50.5273438 129.515625,51.2675781 129.515625,52.7480469 C129.515625,54.2441406 128.96875,54.9921875 127.875,54.9921875 Z M133.892578,56 L133.892578,52.6132812 C133.892578,52.0390625 134.063477,51.5722656 134.405273,51.2128906 C134.74707,50.8535156 135.193359,50.6738281 135.744141,50.6738281 C135.955078,50.6738281 136.158203,50.6972656 136.353516,50.7441406 L136.353516,50.7441406 L136.488281,49.4609375 C136.308594,49.421875 136.080078,49.4023438 135.802734,49.4023438 C135.404297,49.4023438 135.032227,49.515625 134.686523,49.7421875 C134.34082,49.96875 134.060547,50.2753906 133.845703,50.6621094 L133.845703,50.6621094 L133.775391,50.6621094 L133.59375,49.5195312 L132.515625,49.5195312 L132.515625,56 L133.892578,56 Z M139.259766,56.1171875 C139.755859,56.1171875 140.162109,56.0458984 140.478516,55.9033203 C140.794922,55.7607422 141.109375,55.4921875 141.421875,55.0976562 L141.421875,55.0976562 L141.46875,55.0976562 L141.744141,56 L142.728516,56 L142.728516,51.6347656 C142.728516,50.8652344 142.518555,50.3007812 142.098633,49.9414062 C141.678711,49.5820312 141.056641,49.4023438 140.232422,49.4023438 C139.861328,49.4023438 139.466797,49.4501953 139.048828,49.5458984 C138.630859,49.6416016 138.246094,49.78125 137.894531,49.9648438 L137.894531,49.9648438 L138.339844,50.9492188 C138.621094,50.8164062 138.914062,50.7011719 139.21875,50.6035156 C139.523438,50.5058594 139.841797,50.4570312 140.173828,50.4570312 C140.580078,50.4570312 140.879883,50.5595703 141.073242,50.7646484 C141.266602,50.9697266 141.363281,51.2792969 141.363281,51.6933594 L141.363281,51.6933594 L141.363281,52.0390625 L140.244141,52.0742188 C139.228516,52.1054688 138.472656,52.2910156 137.976562,52.6308594 C137.480469,52.9707031 137.232422,53.4746094 137.232422,54.1425781 C137.232422,54.7714844 137.411133,55.2578125 137.768555,55.6015625 C138.125977,55.9453125 138.623047,56.1171875 139.259766,56.1171875 Z M139.693359,55.0625 C139.349609,55.0625 139.091797,54.9833984 138.919922,54.8251953 C138.748047,54.6669922 138.662109,54.4433594 138.662109,54.1542969 C138.662109,53.7558594 138.80957,53.4599609 139.104492,53.2666016 C139.399414,53.0732422 139.871094,52.9648438 140.519531,52.9414062 L140.519531,52.9414062 L141.351562,52.90625 L141.351562,53.46875 C141.351562,53.9726562 141.200195,54.3642578 140.897461,54.6435547 C140.594727,54.9228516 140.193359,55.0625 139.693359,55.0625 Z M146.736328,56.1171875 C146.994141,56.1171875 147.243164,56.0947266 147.483398,56.0498047 C147.723633,56.0048828 147.919922,55.9492188 148.072266,55.8828125 L148.072266,55.8828125 L148.072266,54.8457031 C147.736328,54.9511719 147.400391,55.0039062 147.064453,55.0039062 C146.794922,55.0039062 146.577148,54.9248047 146.411133,54.7666016 C146.245117,54.6083984 146.162109,54.3632812 146.162109,54.03125 L146.162109,54.03125 L146.162109,50.5625 L148.007812,50.5625 L148.007812,49.5195312 L146.162109,49.5195312 L146.162109,48.078125 L145.3125,48.078125 L144.84375,49.4492188 L143.894531,49.953125 L143.894531,50.5625 L144.779297,50.5625 L144.779297,54.0546875 C144.779297,55.4296875 145.431641,56.1171875 146.736328,56.1171875 Z M152.197266,56.1171875 C152.638672,56.1171875 153.03125,56.0839844 153.375,56.0175781 C153.71875,55.9511719 154.058594,55.8378906 154.394531,55.6777344 L154.394531,55.6777344 L154.394531,54.5585938 C154.015625,54.7265625 153.661133,54.8466797 153.331055,54.9189453 C153.000977,54.9912109 152.644531,55.0273438 152.261719,55.0273438 C151.679688,55.0273438 151.228516,54.8583984 150.908203,54.5205078 C150.587891,54.1826172 150.417969,53.6992188 150.398438,53.0703125 L150.398438,53.0703125 L154.716797,53.0703125 L154.716797,52.3261719 C154.716797,51.4160156 154.46875,50.7011719 153.972656,50.1816406 C153.476562,49.6621094 152.800781,49.4023438 151.945312,49.4023438 C151.023438,49.4023438 150.298828,49.7050781 149.771484,50.3105469 C149.244141,50.9160156 148.980469,51.7480469 148.980469,52.8066406 C148.980469,53.8378906 149.264648,54.6474609 149.833008,55.2353516 C150.401367,55.8232422 151.189453,56.1171875 152.197266,56.1171875 Z M153.363281,52.0742188 L150.421875,52.0742188 C150.472656,51.5429688 150.629883,51.1386719 150.893555,50.8613281 C151.157227,50.5839844 151.507812,50.4453125 151.945312,50.4453125 C152.382812,50.4453125 152.726562,50.5830078 152.976562,50.8583984 C153.226562,51.1337891 153.355469,51.5390625 153.363281,52.0742188 L153.363281,52.0742188 Z M89.3613281,68 L89.3613281,64.7714844 C89.3613281,63.9628906 89.4960938,63.3867188 89.765625,63.0429688 C90.0351562,62.6992188 90.4609375,62.5273438 91.0429688,62.5273438 C91.4804688,62.5273438 91.7998047,62.6503906 92.0009766,62.8964844 C92.2021484,63.1425781 92.3027344,63.515625 92.3027344,64.015625 L92.3027344,64.015625 L92.3027344,68 L93.6855469,68 L93.6855469,63.7753906 C93.6855469,62.1933594 92.9082031,61.4023438 91.3535156,61.4023438 C90.9160156,61.4023438 90.5175781,61.4863281 90.1582031,61.6542969 C89.7988281,61.8222656 89.5214844,62.0605469 89.3261719,62.3691406 L89.3261719,62.3691406 L89.2558594,62.3691406 L89.0625,61.5195312 L87.984375,61.5195312 L87.984375,68 L89.3613281,68 Z M98.4316406,68.1171875 C98.8730469,68.1171875 99.265625,68.0839844 99.609375,68.0175781 C99.953125,67.9511719 100.292969,67.8378906 100.628906,67.6777344 L100.628906,67.6777344 L100.628906,66.5585938 C100.25,66.7265625 99.8955078,66.8466797 99.5654297,66.9189453 C99.2353516,66.9912109 98.8789062,67.0273438 98.4960938,67.0273438 C97.9140625,67.0273438 97.4628906,66.8583984 97.1425781,66.5205078 C96.8222656,66.1826172 96.6523438,65.6992188 96.6328125,65.0703125 L96.6328125,65.0703125 L100.951172,65.0703125 L100.951172,64.3261719 C100.951172,63.4160156 100.703125,62.7011719 100.207031,62.1816406 C99.7109375,61.6621094 99.0351562,61.4023438 98.1796875,61.4023438 C97.2578125,61.4023438 96.5332031,61.7050781 96.0058594,62.3105469 C95.4785156,62.9160156 95.2148438,63.7480469 95.2148438,64.8066406 C95.2148438,65.8378906 95.4990234,66.6474609 96.0673828,67.2353516 C96.6357422,67.8232422 97.4238281,68.1171875 98.4316406,68.1171875 Z M99.5976562,64.0742188 L96.65625,64.0742188 C96.7070312,63.5429688 96.8642578,63.1386719 97.1279297,62.8613281 C97.3916016,62.5839844 97.7421875,62.4453125 98.1796875,62.4453125 C98.6171875,62.4453125 98.9609375,62.5830078 99.2109375,62.8583984 C99.4609375,63.1337891 99.5898438,63.5390625 99.5976562,64.0742188 L99.5976562,64.0742188 Z M104.988281,68 L105.849609,64.9882812 C105.982422,64.546875 106.162109,63.7988281 106.388672,62.7441406 L106.388672,62.7441406 L106.441406,62.7441406 C106.707031,63.9121094 106.890625,64.65625 106.992188,64.9765625 L106.992188,64.9765625 L107.830078,68 L109.376953,68 L111.205078,61.5195312 L109.822266,61.5195312 L108.984375,64.7128906 C108.769531,65.5761719 108.632812,66.2480469 108.574219,66.7285156 L108.574219,66.7285156 L108.527344,66.7285156 C108.511719,66.5097656 108.459961,66.203125 108.37207,65.8085938 C108.28418,65.4140625 108.210938,65.1210938 108.152344,64.9296875 L108.152344,64.9296875 L107.197266,61.5195312 L105.685547,61.5195312 L104.701172,64.9296875 C104.642578,65.1132812 104.573242,65.3896484 104.493164,65.7587891 C104.413086,66.1279297 104.353516,66.4550781 104.314453,66.7402344 L104.314453,66.7402344 L104.279297,66.7402344 C104.201172,66.1777344 104.068359,65.5019531 103.880859,64.7128906 L103.880859,64.7128906 L103.054688,61.5195312 L101.648438,61.5195312 L103.464844,68 L104.988281,68 Z M90.0703125,80.1171875 C90.328125,80.1171875 90.5771484,80.0947266 90.8173828,80.0498047 C91.0576172,80.0048828 91.2539062,79.9492188 91.40625,79.8828125 L91.40625,79.8828125 L91.40625,78.8457031 C91.0703125,78.9511719 90.734375,79.0039062 90.3984375,79.0039062 C90.1289062,79.0039062 89.9111328,78.9248047 89.7451172,78.7666016 C89.5791016,78.6083984 89.4960938,78.3632812 89.4960938,78.03125 L89.4960938,78.03125 L89.4960938,74.5625 L91.3417969,74.5625 L91.3417969,73.5195312 L89.4960938,73.5195312 L89.4960938,72.078125 L88.6464844,72.078125 L88.1777344,73.4492188 L87.2285156,73.953125 L87.2285156,74.5625 L88.1132812,74.5625 L88.1132812,78.0546875 C88.1132812,79.4296875 88.765625,80.1171875 90.0703125,80.1171875 Z M95.53125,80.1171875 C95.9726562,80.1171875 96.3652344,80.0839844 96.7089844,80.0175781 C97.0527344,79.9511719 97.3925781,79.8378906 97.7285156,79.6777344 L97.7285156,79.6777344 L97.7285156,78.5585938 C97.3496094,78.7265625 96.9951172,78.8466797 96.6650391,78.9189453 C96.3349609,78.9912109 95.9785156,79.0273438 95.5957031,79.0273438 C95.0136719,79.0273438 94.5625,78.8583984 94.2421875,78.5205078 C93.921875,78.1826172 93.7519531,77.6992188 93.7324219,77.0703125 L93.7324219,77.0703125 L98.0507812,77.0703125 L98.0507812,76.3261719 C98.0507812,75.4160156 97.8027344,74.7011719 97.3066406,74.1816406 C96.8105469,73.6621094 96.1347656,73.4023438 95.2792969,73.4023438 C94.3574219,73.4023438 93.6328125,73.7050781 93.1054688,74.3105469 C92.578125,74.9160156 92.3144531,75.7480469 92.3144531,76.8066406 C92.3144531,77.8378906 92.5986328,78.6474609 93.1669922,79.2353516 C93.7353516,79.8232422 94.5234375,80.1171875 95.53125,80.1171875 Z M96.6972656,76.0742188 L93.7558594,76.0742188 C93.8066406,75.5429688 93.9638672,75.1386719 94.2275391,74.8613281 C94.4912109,74.5839844 94.8417969,74.4453125 95.2792969,74.4453125 C95.7167969,74.4453125 96.0605469,74.5830078 96.3105469,74.8583984 C96.5605469,75.1337891 96.6894531,75.5390625 96.6972656,76.0742188 L96.6972656,76.0742188 Z M100.992188,80 L100.992188,76.6132812 C100.992188,76.0390625 101.163086,75.5722656 101.504883,75.2128906 C101.84668,74.8535156 102.292969,74.6738281 102.84375,74.6738281 C103.054688,74.6738281 103.257812,74.6972656 103.453125,74.7441406 L103.453125,74.7441406 L103.587891,73.4609375 C103.408203,73.421875 103.179688,73.4023438 102.902344,73.4023438 C102.503906,73.4023438 102.131836,73.515625 101.786133,73.7421875 C101.44043,73.96875 101.160156,74.2753906 100.945312,74.6621094 L100.945312,74.6621094 L100.875,74.6621094 L100.693359,73.5195312 L99.6152344,73.5195312 L99.6152344,80 L100.992188,80 Z M106.166016,80 L106.166016,76.7714844 C106.166016,75.9667969 106.290039,75.3916016 106.538086,75.0458984 C106.786133,74.7001953 107.175781,74.5273438 107.707031,74.5273438 C108.105469,74.5273438 108.398438,74.6494141 108.585938,74.8935547 C108.773438,75.1376953 108.867188,75.5078125 108.867188,76.0039062 L108.867188,76.0039062 L108.867188,80 L110.25,80 L110.25,76.5664062 C110.25,75.875 110.374023,75.3623047 110.62207,75.0283203 C110.870117,74.6943359 111.261719,74.5273438 111.796875,74.5273438 C112.195312,74.5273438 112.489258,74.6494141 112.678711,74.8935547 C112.868164,75.1376953 112.962891,75.5078125 112.962891,76.0039062 L112.962891,76.0039062 L112.962891,80 L114.339844,80 L114.339844,75.7753906 C114.339844,74.9746094 114.163086,74.3789062 113.80957,73.9882812 C113.456055,73.5976562 112.892578,73.4023438 112.119141,73.4023438 C111.669922,73.4023438 111.271484,73.4921875 110.923828,73.671875 C110.576172,73.8515625 110.306641,74.1015625 110.115234,74.421875 L110.115234,74.421875 L110.021484,74.421875 C109.697266,73.7421875 109.037109,73.4023438 108.041016,73.4023438 C107.630859,73.4023438 107.254883,73.4863281 106.913086,73.6542969 C106.571289,73.8222656 106.310547,74.0605469 106.130859,74.3691406 L106.130859,74.3691406 L106.060547,74.3691406 L105.867188,73.5195312 L104.789062,73.5195312 L104.789062,80 L106.166016,80 Z M116.958984,72.5585938 C117.201172,72.5585938 117.389648,72.4912109 117.524414,72.3564453 C117.65918,72.2216797 117.726562,72.0371094 117.726562,71.8027344 C117.726562,71.5566406 117.65918,71.3671875 117.524414,71.234375 C117.389648,71.1015625 117.201172,71.0351562 116.958984,71.0351562 C116.708984,71.0351562 116.516602,71.1015625 116.381836,71.234375 C116.24707,71.3671875 116.179688,71.5566406 116.179688,71.8027344 C116.179688,72.0371094 116.24707,72.2216797 116.381836,72.3564453 C116.516602,72.4912109 116.708984,72.5585938 116.958984,72.5585938 Z M117.638672,80 L117.638672,73.5195312 L116.261719,73.5195312 L116.261719,80 L117.638672,80 Z M120.984375,80 L120.984375,76.7714844 C120.984375,75.9628906 121.119141,75.3867188 121.388672,75.0429688 C121.658203,74.6992188 122.083984,74.5273438 122.666016,74.5273438 C123.103516,74.5273438 123.422852,74.6503906 123.624023,74.8964844 C123.825195,75.1425781 123.925781,75.515625 123.925781,76.015625 L123.925781,76.015625 L123.925781,80 L125.308594,80 L125.308594,75.7753906 C125.308594,74.1933594 124.53125,73.4023438 122.976562,73.4023438 C122.539062,73.4023438 122.140625,73.4863281 121.78125,73.6542969 C121.421875,73.8222656 121.144531,74.0605469 120.949219,74.3691406 L120.949219,74.3691406 L120.878906,74.3691406 L120.685547,73.5195312 L119.607422,73.5195312 L119.607422,80 L120.984375,80 Z M129.890625,80.1171875 C130.859375,80.1171875 131.615234,79.8203125 132.158203,79.2265625 C132.701172,78.6328125 132.972656,77.8066406 132.972656,76.7480469 C132.972656,75.7246094 132.699219,74.9111328 132.152344,74.3076172 C131.605469,73.7041016 130.863281,73.4023438 129.925781,73.4023438 C128.945312,73.4023438 128.185547,73.6972656 127.646484,74.2871094 C127.107422,74.8769531 126.837891,75.6972656 126.837891,76.7480469 C126.837891,77.4238281 126.962891,78.0175781 127.212891,78.5292969 C127.462891,79.0410156 127.820312,79.4335938 128.285156,79.7070312 C128.75,79.9804688 129.285156,80.1171875 129.890625,80.1171875 Z M129.914062,78.9921875 C128.808594,78.9921875 128.255859,78.2441406 128.255859,76.7480469 C128.255859,76.0332031 128.385742,75.484375 128.645508,75.1015625 C128.905273,74.71875 129.324219,74.5273438 129.902344,74.5273438 C131.003906,74.5273438 131.554688,75.2675781 131.554688,76.7480469 C131.554688,78.2441406 131.007812,78.9921875 129.914062,78.9921875 Z M135.931641,80 L135.931641,70.8828125 L134.554688,70.8828125 L134.554688,80 L135.931641,80 Z M140.566406,80.1171875 C141.535156,80.1171875 142.291016,79.8203125 142.833984,79.2265625 C143.376953,78.6328125 143.648438,77.8066406 143.648438,76.7480469 C143.648438,75.7246094 143.375,74.9111328 142.828125,74.3076172 C142.28125,73.7041016 141.539062,73.4023438 140.601562,73.4023438 C139.621094,73.4023438 138.861328,73.6972656 138.322266,74.2871094 C137.783203,74.8769531 137.513672,75.6972656 137.513672,76.7480469 C137.513672,77.4238281 137.638672,78.0175781 137.888672,78.5292969 C138.138672,79.0410156 138.496094,79.4335938 138.960938,79.7070312 C139.425781,79.9804688 139.960938,80.1171875 140.566406,80.1171875 Z M140.589844,78.9921875 C139.484375,78.9921875 138.931641,78.2441406 138.931641,76.7480469 C138.931641,76.0332031 139.061523,75.484375 139.321289,75.1015625 C139.581055,74.71875 140,74.5273438 140.578125,74.5273438 C141.679688,74.5273438 142.230469,75.2675781 142.230469,76.7480469 C142.230469,78.2441406 141.683594,78.9921875 140.589844,78.9921875 Z M147.099609,82.8828125 C148.244141,82.8828125 149.119141,82.6835938 149.724609,82.2851562 C150.330078,81.8867188 150.632812,81.3203125 150.632812,80.5859375 C150.632812,80.0117188 150.447266,79.5722656 150.076172,79.2675781 C149.705078,78.9628906 149.162109,78.8105469 148.447266,78.8105469 L148.447266,78.8105469 L147.316406,78.8105469 C146.945312,78.8105469 146.69043,78.7734375 146.551758,78.6992188 C146.413086,78.625 146.34375,78.5136719 146.34375,78.3652344 C146.34375,78.1191406 146.492188,77.9042969 146.789062,77.7207031 C146.957031,77.7519531 147.144531,77.7675781 147.351562,77.7675781 C148.160156,77.7675781 148.794922,77.5761719 149.255859,77.1933594 C149.716797,76.8105469 149.947266,76.2851562 149.947266,75.6171875 C149.947266,75.3945312 149.914062,75.1835938 149.847656,74.984375 C149.78125,74.7851562 149.697266,74.6171875 149.595703,74.4804688 L149.595703,74.4804688 L150.703125,74.2753906 L150.703125,73.5195312 L148.458984,73.5195312 C148.357422,73.4921875 148.206055,73.4658203 148.004883,73.4404297 C147.803711,73.4150391 147.611328,73.4023438 147.427734,73.4023438 C146.607422,73.4023438 145.975586,73.5957031 145.532227,73.9824219 C145.088867,74.3691406 144.867188,74.9140625 144.867188,75.6171875 C144.867188,76.0546875 144.97168,76.4365234 145.180664,76.7626953 C145.389648,77.0888672 145.662109,77.3242188 145.998047,77.46875 C145.728516,77.6328125 145.525391,77.7988281 145.388672,77.9667969 C145.251953,78.1347656 145.183594,78.3398438 145.183594,78.5820312 C145.183594,78.7734375 145.243164,78.9560547 145.362305,79.1298828 C145.481445,79.3037109 145.632812,79.4296875 145.816406,79.5078125 C145.363281,79.6132812 145.010742,79.8017578 144.758789,80.0732422 C144.506836,80.3447266 144.380859,80.6796875 144.380859,81.078125 C144.380859,81.65625 144.613281,82.1015625 145.078125,82.4140625 C145.542969,82.7265625 146.216797,82.8828125 147.099609,82.8828125 Z M147.416016,76.8828125 C147.025391,76.8828125 146.725586,76.7734375 146.516602,76.5546875 C146.307617,76.3359375 146.203125,76.0234375 146.203125,75.6171875 C146.203125,75.1835938 146.305664,74.8535156 146.510742,74.6269531 C146.71582,74.4003906 147.017578,74.2871094 147.416016,74.2871094 C147.818359,74.2871094 148.118164,74.4013672 148.31543,74.6298828 C148.512695,74.8583984 148.611328,75.1835938 148.611328,75.6054688 C148.611328,76.4570312 148.212891,76.8828125 147.416016,76.8828125 Z M147.140625,81.9335938 C146.65625,81.9335938 146.280273,81.8535156 146.012695,81.6933594 C145.745117,81.5332031 145.611328,81.3046875 145.611328,81.0078125 C145.611328,80.6914062 145.727539,80.4404297 145.959961,80.2548828 C146.192383,80.0693359 146.505859,79.9765625 146.900391,79.9765625 L146.900391,79.9765625 L147.943359,79.9765625 C148.490234,79.9765625 148.864258,80.0361328 149.06543,80.1552734 C149.266602,80.2744141 149.367188,80.4746094 149.367188,80.7558594 C149.367188,81.1113281 149.183594,81.3964844 148.816406,81.6113281 C148.449219,81.8261719 147.890625,81.9335938 147.140625,81.9335938 Z M152.0625,82.8828125 C153.238281,82.8828125 154.078125,82.2089844 154.582031,80.8613281 L154.582031,80.8613281 L157.353516,73.5195312 L155.865234,73.5195312 C154.966797,76.125 154.470703,77.5810547 154.376953,77.8876953 C154.283203,78.1943359 154.21875,78.4550781 154.183594,78.6699219 L154.183594,78.6699219 L154.136719,78.6699219 C154.070312,78.2089844 153.9375,77.7167969 153.738281,77.1933594 L153.738281,77.1933594 L152.419922,73.5195312 L150.919922,73.5195312 L153.521484,80 L153.28125,80.609375 C153.011719,81.3789062 152.544922,81.7636719 151.880859,81.7636719 C151.615234,81.7636719 151.378906,81.7402344 151.171875,81.6933594 L151.171875,81.6933594 L151.171875,82.7832031 C151.460938,82.8496094 151.757812,82.8828125 152.0625,82.8828125 Z M159,80.1699219 C159.28125,80.1699219 159.49707,80.0888672 159.647461,79.9267578 C159.797852,79.7646484 159.873047,79.5449219 159.873047,79.2675781 C159.873047,78.9941406 159.798828,78.7783203 159.650391,78.6201172 C159.501953,78.4619141 159.285156,78.3828125 159,78.3828125 C158.71875,78.3828125 158.503906,78.4589844 158.355469,78.6113281 C158.207031,78.7636719 158.132812,78.9824219 158.132812,79.2675781 C158.132812,79.5488281 158.207031,79.7695312 158.355469,79.9296875 C158.503906,80.0898438 158.71875,80.1699219 159,80.1699219 Z" id="Incorporatenewterminology." fill="#FFFFFF" fill-rule="nonzero"></path>
                            <g id="Adverbs" transform="translate(8.000000, 4.000000)" fill-rule="nonzero">
                                <g id="TargetVocabulary">
                                    <use fill="#000000" xlink:href="#path-2"></use>
                                    <use fill="#FFFFFF" xlink:href="#path-2"></use>
                                </g>
                            </g>
                        </g>
                    </g>
                </g>
                <g id="noun_337749_F5D327" transform="translate(24.000000, 50.000000)" fill-rule="nonzero">
                    <g id="Group">
                        <polygon id="Shape" fill="#FFFFFF" points="9.82203826 0.190144763 9.82203826 7.67705711 12.2847078 7.67705711 12.2847078 2.68578221 22.1450053 2.68578221 22.1209559 30.137793 24.5836244 30.137793 24.6076748 2.68578221 34.4487336 2.68578221 34.4487336 7.67705711 36.911403 7.67705711 36.911403 0.190144763"></polygon>
                        <polygon id="Path" fill="#BDC3C7" points="4.94960803 0.13165326 4.94960803 22.5875165 0.00983942063 22.5875165 1.48647907 24.5811016 6.16651325 30.9030578 12.3376165 22.5875165 7.41227749 22.5875165 7.41227749 0.13165326"></polygon>
                    </g>
                </g>
            </g>
        </g>
    </g>
</svg>