<?xml version="1.0" encoding="UTF-8"?>
<svg width="163px" height="97px" viewBox="0 0 163 97" version="1.1" xmlns="http://www.w3.org/2000/svg" xmlns:xlink="http://www.w3.org/1999/xlink">
    <!-- Generator: Sketch 62 (91390) - https://sketch.com -->
    <title>Verbs</title>
    <desc>Created with Sketch.</desc>
    <defs>
        <radialGradient cx="26.9203086%" cy="60.7926827%" fx="26.9203086%" fy="60.7926827%" r="48.5880817%" gradientTransform="translate(0.269203,0.607927),scale(0.586896,1.000000),rotate(144.278371),translate(-0.269203,-0.607927)" id="radialGradient-1">
            <stop stop-color="#FAD961" offset="0%"></stop>
            <stop stop-color="#F76B1C" offset="100%"></stop>
        </radialGradient>
        <path d="M61.4414062,22 L66.4414062,7.72265625 L64.0195312,7.72265625 L61.0410156,16.5605469 C60.9303385,16.8730469 60.7871094,17.3548177 60.6113281,18.0058594 C60.4355469,18.656901 60.3053385,19.2298177 60.2207031,19.7246094 C60.1686198,19.3990885 60.0546875,18.9026693 59.8789062,18.2353516 C59.703125,17.5680339 59.5371094,17.0227865 59.3808594,16.5996094 L59.3808594,16.5996094 L56.4023438,7.72265625 L54,7.72265625 L58.9804688,22 L61.4414062,22 Z M72.7988281,22.1953125 C73.5345052,22.1953125 74.1888021,22.139974 74.7617188,22.0292969 C75.3346354,21.9186198 75.9010417,21.7298177 76.4609375,21.4628906 L76.4609375,21.4628906 L76.4609375,19.5976562 C75.8294271,19.8776042 75.2386068,20.0777995 74.6884766,20.1982422 C74.1383464,20.3186849 73.5442708,20.3789062 72.90625,20.3789062 C71.9361979,20.3789062 71.1842448,20.0973307 70.6503906,19.5341797 C70.1165365,18.9710286 69.8333333,18.1653646 69.8007812,17.1171875 L69.8007812,17.1171875 L76.9980469,17.1171875 L76.9980469,15.8769531 C76.9980469,14.360026 76.5846354,13.1686198 75.7578125,12.3027344 C74.9309896,11.436849 73.8046875,11.0039062 72.3789062,11.0039062 C70.8424479,11.0039062 69.6347656,11.5084635 68.7558594,12.5175781 C67.8769531,13.5266927 67.4375,14.9134115 67.4375,16.6777344 C67.4375,18.3964844 67.9111328,19.7457682 68.8583984,20.7255859 C69.8056641,21.7054036 71.1191406,22.1953125 72.7988281,22.1953125 Z M74.7421875,15.4570312 L69.8398438,15.4570312 C69.9244792,14.5716146 70.1865234,13.8977865 70.6259766,13.4355469 C71.0654297,12.9733073 71.6497396,12.7421875 72.3789062,12.7421875 C73.1080729,12.7421875 73.6809896,12.9716797 74.0976562,13.4306641 C74.5143229,13.8896484 74.7291667,14.5651042 74.7421875,15.4570312 L74.7421875,15.4570312 Z M81.9003906,22 L81.9003906,16.3554688 C81.9003906,15.3984375 82.1852214,14.6204427 82.7548828,14.0214844 C83.3245443,13.422526 84.0683594,13.1230469 84.9863281,13.1230469 C85.3378906,13.1230469 85.6764323,13.1621094 86.0019531,13.2402344 L86.0019531,13.2402344 L86.2265625,11.1015625 C85.9270833,11.0364583 85.546224,11.0039062 85.0839844,11.0039062 C84.4199219,11.0039062 83.7998047,11.1927083 83.2236328,11.5703125 C82.6474609,11.9479167 82.1803385,12.4589844 81.8222656,13.1035156 L81.8222656,13.1035156 L81.7050781,13.1035156 L81.4023438,11.1992188 L79.6054688,11.1992188 L79.6054688,22 L81.9003906,22 Z M93.7070312,22.1953125 C95.0611979,22.1953125 96.1191406,21.7021484 96.8808594,20.7158203 C97.6425781,19.7294922 98.0234375,18.3509115 98.0234375,16.5800781 C98.0234375,14.8157552 97.6474609,13.4453125 96.8955078,12.46875 C96.1435547,11.4921875 95.09375,11.0039062 93.7460938,11.0039062 C92.3268229,11.0039062 91.2526042,11.5410156 90.5234375,12.6152344 L90.5234375,12.6152344 L90.4257812,12.6152344 C90.4388021,12.4720052 90.4583333,12.1367188 90.484375,11.609375 C90.5104167,11.0820312 90.5234375,10.6848958 90.5234375,10.4179688 L90.5234375,10.4179688 L90.5234375,6.8046875 L88.2285156,6.8046875 L88.2285156,22 L89.9472656,22 L90.3671875,20.7207031 L90.5234375,20.7207031 C91.2786458,21.703776 92.3398438,22.1953125 93.7070312,22.1953125 Z M93.1894531,20.3203125 C92.2454427,20.3203125 91.5651042,20.0257161 91.1484375,19.4365234 C90.7317708,18.8473307 90.5234375,17.8951823 90.5234375,16.5800781 L90.5234375,16.5800781 L90.5234375,16.4238281 C90.5364583,15.1477865 90.7464193,14.2379557 91.1533203,13.6943359 C91.5602214,13.1507161 92.2259115,12.8789062 93.1503906,12.8789062 C94.8300781,12.8789062 95.6699219,14.1061198 95.6699219,16.5605469 C95.6699219,17.7779948 95.4599609,18.7089844 95.0400391,19.3535156 C94.6201172,19.9980469 94.0032552,20.3203125 93.1894531,20.3203125 Z M103.492188,22.1953125 C104.924479,22.1953125 106.02474,21.913737 106.792969,21.3505859 C107.561198,20.7874349 107.945312,19.9785156 107.945312,18.9238281 C107.945312,18.4029948 107.847656,17.9554036 107.652344,17.5810547 C107.457031,17.2067057 107.157552,16.8763021 106.753906,16.5898438 C106.35026,16.3033854 105.702474,15.9876302 104.810547,15.6425781 C103.749349,15.2324219 103.060872,14.9101562 102.745117,14.6757812 C102.429362,14.4414062 102.271484,14.1549479 102.271484,13.8164062 C102.271484,13.1263021 102.876953,12.78125 104.087891,12.78125 C104.882161,12.78125 105.861979,13.0221354 107.027344,13.5039062 L107.027344,13.5039062 L107.769531,11.7753906 C106.636719,11.2610677 105.435547,11.0039062 104.166016,11.0039062 C102.883464,11.0039062 101.869466,11.2594401 101.124023,11.7705078 C100.378581,12.2815755 100.005859,12.999349 100.005859,13.9238281 C100.005859,14.6920573 100.225586,15.3170573 100.665039,15.7988281 C101.104492,16.280599 101.945964,16.7623698 103.189453,17.2441406 C103.827474,17.4915365 104.325521,17.7128906 104.683594,17.9082031 C105.041667,18.1035156 105.298828,18.2923177 105.455078,18.4746094 C105.611328,18.656901 105.689453,18.8847656 105.689453,19.1582031 C105.689453,20.0110677 104.983073,20.4375 103.570312,20.4375 C102.476562,20.4375 101.294922,20.1445312 100.025391,19.5585938 L100.025391,19.5585938 L100.025391,21.5410156 C100.897786,21.9772135 102.053385,22.1953125 103.492188,22.1953125 Z" id="path-2"></path>
    </defs>
    <g id="Symbols" stroke="none" stroke-width="1" fill="none" fill-rule="evenodd">
        <g id="i/Verbs">
            <g id="Verbs">
                <path d="M6,0.451162791 L157,0.451162791 C160.313708,0.451162791 163,3.13745429 163,6.45116279 L163,90.1151953 C163,93.4289038 160.313708,96.1151953 157,96.1151953 L6,96.1151953 C2.6862915,96.1151953 4.05812251e-16,93.4289038 0,90.1151953 L0,6.45116279 C-4.05812251e-16,3.13745429 2.6862915,0.451162791 6,0.451162791 Z" id="Rectangle-2" fill="url(#radialGradient-1)" fill-rule="nonzero"></path>
                <line x1="81" y1="41.4511628" x2="81" y2="87.1940571" id="Line-3" stroke="#FFFFFF" stroke-width="2" stroke-linecap="square"></line>
                <path d="M40.142638,82.1116693 C39.6078083,82.1116693 39.0677509,81.9535818 38.5900233,81.6236056 C37.9635085,81.1911652 37.5368511,80.5307945 37.3880639,79.7641957 C37.2392767,78.9975969 37.3864554,78.2167786 37.8026574,77.5651905 L40.7237123,72.9911092 L38.1340106,68.7047638 L34.4078962,62.5974849 L37.2517426,58.1421782 L34.6194154,57.5190292 L32.0100093,61.6050468 C31.1514669,62.9496268 29.4006033,63.3172429 28.107763,62.4239232 C27.4812482,61.9914828 27.0545908,61.3311121 26.9058036,60.5645133 C26.7570164,59.7979145 26.9041951,59.0170962 27.3203972,58.3655081 L31.0312307,52.5685491 C31.659354,51.589494 32.8468369,51.0947388 33.9748048,51.3619819 L40.391555,52.8805418 C40.7615124,52.9679499 43.2615397,54.3426418 47.822471,56.9661412 L48.5857092,57.4052731 L43.1215993,65.9608168 L46.4455861,71.4545658 C47.0584285,72.4679149 47.0081626,73.772764 46.3285669,74.7380177 C46.2670414,74.8756123 46.2035052,74.9939688 46.1327308,75.1047973 L42.4926717,80.8051474 C41.9506037,81.6524628 41.0550655,82.1116693 40.142638,82.1116693 Z M39.5675955,67.9398378 L42.6394483,73.0162024 L39.1429488,78.4911315 C38.9648063,78.770503 38.9016722,79.1050797 38.9652084,79.4338013 C39.0291467,79.7621046 39.2121147,80.0452401 39.4803338,80.2305119 C40.0340635,80.6127658 40.7848358,80.455933 41.1527825,79.8792065 L44.7936459,74.1780199 C44.8266203,74.1265787 44.8583884,74.0630092 44.8941778,73.9768557 L44.935999,73.8756462 L45.001948,73.7886563 C45.3208352,73.3712719 45.3538096,72.7911996 45.0843841,72.3462126 L41.5894931,66.5693282 C41.5533016,66.5241603 41.5319888,66.496976 41.5118825,66.4689551 L41.1684655,65.9959474 L46.2799095,57.9916187 C43.4312375,56.3597209 40.4655464,54.6968749 39.9978721,54.5028205 L33.6177155,52.9930432 C33.1251092,52.8763596 32.6264709,53.0879793 32.346188,53.5321298 L32.277022,53.6274842 L28.6598842,59.2910309 C28.4817417,59.5699841 28.4186077,59.904979 28.482546,60.2332824 C28.5460821,60.5615858 28.7290502,60.8447213 28.9976714,61.0299931 C29.5518033,61.4135016 30.3025755,61.2554141 30.6701201,60.6791058 L33.893575,55.6315985 L39.8804508,57.0481125 L36.3256428,62.6179777 L39.5675955,67.9398378 Z" id="Shape" fill="#FFFFFF" fill-rule="nonzero"></path>
                <path d="M47.3704837,55.0641815 C46.4534244,55.0641815 45.5263053,54.7927908 44.7066258,54.2252612 C43.6322299,53.4815583 42.8998702,52.3460795 42.6447514,51.0277162 C42.3896327,49.7093528 42.6419346,48.3670803 43.3557842,47.2471216 C44.8285516,44.9354765 47.8312265,44.30335 50.0496326,45.8389938 C51.1240286,46.5826967 51.8563883,47.7181754 52.111507,49.0365387 C52.3666257,50.3549021 52.1143238,51.6971746 51.4004742,52.8171333 C50.4717455,54.274338 48.9349972,55.0641815 47.3704837,55.0641815 Z M47.3841651,46.6753974 C47.1708956,46.6753974 46.955614,46.6976287 46.7407348,46.7429304 C45.8981187,46.9199426 45.1721973,47.4291673 44.6961635,48.1758064 C44.2201297,48.9224455 44.0519283,49.8175736 44.2221416,50.6963426 C44.3923549,51.5751118 44.8804606,52.3318179 45.5967245,52.8280393 C46.312586,53.3238412 47.169286,53.500434 48.0147188,53.3221634 C48.8573349,53.1451512 49.5832563,52.6359266 50.0592901,51.8892874 C50.535324,51.1426483 50.7035253,50.2475203 50.533312,49.3687512 C50.3630987,48.4899821 49.874993,47.7332759 49.1587291,47.2370545 C48.6247504,46.8670907 48.0110973,46.6753974 47.3841651,46.6753974 Z" id="Shape" fill="#FFFFFF" fill-rule="nonzero"></path>
                <path d="M52.3151998,64.4993517 C52.1159897,64.4993517 51.917982,64.4765336 51.7215777,64.4304826 L46.1705492,63.1228001 L49.4701424,58.0293933 L51.2229511,58.4426077 L53.7810177,54.4564992 C54.1894585,53.8196678 54.8131426,53.3857097 55.5374337,53.2346956 C56.2605225,53.0832667 56.9988425,53.2330361 57.6141092,53.6562075 C58.2293759,54.078964 58.6486391,54.7249227 58.7945395,55.4741849 C58.9408407,56.223862 58.7961428,56.9868151 58.3873011,57.6240614 L54.8319814,63.1647023 C54.4732428,63.7231226 53.9277197,64.1334329 53.2928125,64.3226154 C53.2679614,64.3313278 53.2431102,64.3387955 53.2174574,64.3458483 L53.1625444,64.3616135 C53.154127,64.3653474 53.1384948,64.3703259 53.1196561,64.3753044 C52.8515039,64.4578643 52.5825502,64.4993517 52.3151998,64.4993517 Z M48.8019668,62.0408089 L52.0771097,62.8120596 C52.2683033,62.8568659 52.4691167,62.8464941 52.6735376,62.780944 L52.7264465,62.7651788 C52.7296531,62.764349 52.7328597,62.7635193 52.7356655,62.7622746 L52.8378759,62.7307442 C53.0322761,62.6751512 53.3044365,62.5457105 53.4968326,62.2457567 L57.0521522,56.7051158 C57.2241063,56.4375221 57.2846309,56.1168246 57.2233046,55.8019353 C57.1623792,55.487046 56.9860161,55.2157185 56.7274838,55.0381525 C56.4685508,54.8601716 56.1595145,54.7971107 55.8548873,54.8614162 C55.550661,54.9248919 55.2885213,55.1070215 55.1169681,55.3746151 L51.9468414,60.3149335 L50.1884212,59.9004745 L48.8019668,62.0408089 Z" id="Shape" fill="#FFFFFF" fill-rule="nonzero"></path>
                <path d="M31.7501453,74.5635332 C31.3735061,74.5635332 30.9932101,74.4845589 30.6324166,74.3198166 L24.8040563,72.9339442 C23.297093,72.5751629 22.3500098,71.0024694 22.6929262,69.4280776 C22.8591026,68.6646588 23.2995308,68.0154557 23.9333573,67.5985052 C24.5671839,67.1815545 25.3180246,67.0473831 26.048144,67.2214663 L30.5210906,68.2846478 L33.0206426,64.352065 C33.0661481,64.2807333 33.1157166,64.2183181 33.1673165,64.1571767 L33.8791525,63.241329 L34.5081035,64.2085524 L37.1136995,68.5003412 L34.0859588,73.2638531 C33.5561448,74.0986035 32.6643183,74.5635332 31.7501453,74.5635332 Z M25.423256,68.8472339 C25.2038545,68.8472339 24.9889223,68.9113476 24.7987744,69.0366025 C24.5326485,69.211535 24.3473761,69.4845484 24.2774927,69.805541 C24.1336628,70.4670573 24.5314296,71.1277244 25.1644435,71.278455 L31.1630431,72.7046638 L31.2455219,72.746274 C31.7720855,73.0095218 32.4116002,72.8294943 32.7317639,72.325502 L35.1756529,68.4799608 L33.7958612,66.2075376 L31.2536479,70.2016865 L25.6869442,68.8782292 C25.5995898,68.8574242 25.511423,68.8472339 25.423256,68.8472339 Z" id="Shape" fill="#FFFFFF" fill-rule="nonzero"></path>
                <rect id="Rectangle-path" fill="#FFFFFF" fill-rule="nonzero" x="19" y="54.4351702" width="7.84926978" height="1.88703403"></rect>
                <polygon id="Rectangle-path" fill="#FFFFFF" fill-rule="nonzero" points="19 58.8382496 25.0378998 58.8382496 25.0378998 60.7252836 19 60.7252836"></polygon>
                <rect id="Rectangle-path" fill="#FFFFFF" fill-rule="nonzero" x="19" y="62.6123176" width="3.6227399" height="1.88703403"></rect>
                <rect id="Rectangle-path" fill="#FFFFFF" fill-rule="nonzero" x="19" y="67.015397" width="2.41515993" height="1.88703403"></rect>
                <rect id="Rectangle-path" fill="#FFFFFF" fill-rule="nonzero" x="19" y="71.4184765" width="2.41515993" height="1.88703403"></rect>
                <g fill-rule="nonzero" fill="#FFFFFF">
                    <use xlink:href="#path-2"></use>
                    <use xlink:href="#path-2"></use>
                </g>
                <line x1="2" y1="31" x2="161" y2="31" id="Line-2" stroke="#FFFFFF" stroke-width="4" stroke-linecap="square"></line>
                <path d="M102.115234,60 C103.837891,60 105.157227,59.5636393 106.073242,58.690918 C106.989258,57.8181966 107.447266,56.5569661 107.447266,54.9072266 C107.447266,53.3531901 107.005208,52.1477865 106.121094,51.2910156 C105.236979,50.4342448 103.999674,50.0058594 102.40918,50.0058594 L102.40918,50.0058594 L99.3193359,50.0058594 L99.3193359,60 L102.115234,60 Z M102.115234,58.6259766 L100.953125,58.6259766 L100.953125,51.3730469 L102.368164,51.3730469 C104.605794,51.3730469 105.724609,52.5693359 105.724609,54.9619141 C105.724609,57.4046224 104.521484,58.6259766 102.115234,58.6259766 L102.115234,58.6259766 Z M112.533203,60.1367188 C113.663411,60.1367188 114.545247,59.7903646 115.178711,59.0976562 C115.812174,58.4049479 116.128906,57.4410807 116.128906,56.2060547 C116.128906,55.0120443 115.809896,54.0629883 115.171875,53.3588867 C114.533854,52.6547852 113.667969,52.3027344 112.574219,52.3027344 C111.430339,52.3027344 110.543945,52.6468099 109.915039,53.3349609 C109.286133,54.023112 108.97168,54.9801432 108.97168,56.2060547 C108.97168,56.9944661 109.117513,57.6871745 109.40918,58.2841797 C109.700846,58.8811849 110.117839,59.3391927 110.660156,59.6582031 C111.202474,59.9772135 111.826823,60.1367188 112.533203,60.1367188 Z M112.560547,58.8242188 C111.270833,58.8242188 110.625977,57.9514974 110.625977,56.2060547 C110.625977,55.3720703 110.777507,54.7317708 111.080566,54.2851562 C111.383626,53.8385417 111.872396,53.6152344 112.546875,53.6152344 C113.832031,53.6152344 114.474609,54.4788411 114.474609,56.2060547 C114.474609,57.9514974 113.836589,58.8242188 112.560547,58.8242188 Z M118.788086,51.3183594 C119.070638,51.3183594 119.290527,51.2397461 119.447754,51.0825195 C119.60498,50.925293 119.683594,50.7099609 119.683594,50.4365234 C119.683594,50.1494141 119.60498,49.9283854 119.447754,49.7734375 C119.290527,49.6184896 119.070638,49.5410156 118.788086,49.5410156 C118.496419,49.5410156 118.271973,49.6184896 118.114746,49.7734375 C117.95752,49.9283854 117.878906,50.1494141 117.878906,50.4365234 C117.878906,50.7099609 117.95752,50.925293 118.114746,51.0825195 C118.271973,51.2397461 118.496419,51.3183594 118.788086,51.3183594 Z M119.581055,60 L119.581055,52.4394531 L117.974609,52.4394531 L117.974609,60 L119.581055,60 Z M123.484375,60 L123.484375,56.2333984 C123.484375,55.2900391 123.641602,54.6178385 123.956055,54.2167969 C124.270508,53.8157552 124.767253,53.6152344 125.446289,53.6152344 C125.956706,53.6152344 126.329264,53.7587891 126.563965,54.0458984 C126.798665,54.3330078 126.916016,54.7682292 126.916016,55.3515625 L126.916016,55.3515625 L126.916016,60 L128.529297,60 L128.529297,55.0712891 C128.529297,53.2255859 127.622396,52.3027344 125.808594,52.3027344 C125.298177,52.3027344 124.833333,52.4007161 124.414062,52.5966797 C123.994792,52.7926432 123.671224,53.070638 123.443359,53.4306641 L123.443359,53.4306641 L123.361328,53.4306641 L123.135742,52.4394531 L121.87793,52.4394531 L121.87793,60 L123.484375,60 Z M132.945312,63.3632812 C134.280599,63.3632812 135.301432,63.1308594 136.007812,62.6660156 C136.714193,62.2011719 137.067383,61.5403646 137.067383,60.6835938 C137.067383,60.0136719 136.850911,59.5009766 136.417969,59.1455078 C135.985026,58.7900391 135.351562,58.6123047 134.517578,58.6123047 L134.517578,58.6123047 L133.198242,58.6123047 C132.765299,58.6123047 132.467936,58.5690104 132.306152,58.4824219 C132.144368,58.3958333 132.063477,58.2659505 132.063477,58.0927734 C132.063477,57.8056641 132.236654,57.555013 132.583008,57.3408203 C132.778971,57.3772786 132.997721,57.3955078 133.239258,57.3955078 C134.182617,57.3955078 134.923177,57.1722005 135.460938,56.7255859 C135.998698,56.2789714 136.267578,55.6660156 136.267578,54.8867188 C136.267578,54.6269531 136.228841,54.3808594 136.151367,54.1484375 C136.073893,53.9160156 135.975911,53.7200521 135.857422,53.5605469 L135.857422,53.5605469 L137.149414,53.3212891 L137.149414,52.4394531 L134.53125,52.4394531 C134.41276,52.4075521 134.236165,52.3767904 134.001465,52.347168 C133.766764,52.3175456 133.542318,52.3027344 133.328125,52.3027344 C132.371094,52.3027344 131.633952,52.5283203 131.116699,52.9794922 C130.599447,53.4306641 130.34082,54.0664062 130.34082,54.8867188 C130.34082,55.3971354 130.462728,55.8426107 130.706543,56.2231445 C130.950358,56.6036784 131.268229,56.8782552 131.660156,57.046875 C131.345703,57.2382812 131.108724,57.4319661 130.949219,57.6279297 C130.789714,57.8238932 130.709961,58.063151 130.709961,58.3457031 C130.709961,58.5690104 130.77946,58.7820638 130.918457,58.9848633 C131.057454,59.1876628 131.234049,59.3346354 131.448242,59.4257812 C130.919596,59.5488281 130.508301,59.7687174 130.214355,60.0854492 C129.92041,60.402181 129.773438,60.7929688 129.773438,61.2578125 C129.773438,61.9322917 130.044596,62.4518229 130.586914,62.8164062 C131.129232,63.1809896 131.915365,63.3632812 132.945312,63.3632812 Z M133.314453,56.3632812 C132.858724,56.3632812 132.508952,56.2356771 132.265137,55.9804688 C132.021322,55.7252604 131.899414,55.3606771 131.899414,54.8867188 C131.899414,54.3808594 132.019043,53.9957682 132.258301,53.7314453 C132.497559,53.4671224 132.849609,53.3349609 133.314453,53.3349609 C133.783854,53.3349609 134.133626,53.4682617 134.36377,53.7348633 C134.593913,54.0014648 134.708984,54.3808594 134.708984,54.8730469 C134.708984,55.8665365 134.244141,56.3632812 133.314453,56.3632812 Z M132.993164,62.2558594 C132.42806,62.2558594 131.989421,62.1624349 131.677246,61.9755859 C131.365072,61.788737 131.208984,61.5221354 131.208984,61.1757812 C131.208984,60.8066406 131.344564,60.5138346 131.615723,60.2973633 C131.886882,60.0808919 132.252604,59.9726562 132.712891,59.9726562 L132.712891,59.9726562 L133.929688,59.9726562 C134.567708,59.9726562 135.004069,60.0421549 135.23877,60.1811523 C135.47347,60.3201497 135.59082,60.5537109 135.59082,60.8818359 C135.59082,61.2965495 135.376628,61.6292318 134.948242,61.8798828 C134.519857,62.1305339 133.868164,62.2558594 132.993164,62.2558594 Z M102.033203,74 L103.038086,70.4863281 C103.193034,69.9713542 103.402669,69.0986328 103.666992,67.8681641 L103.666992,67.8681641 L103.728516,67.8681641 C104.038411,69.2307943 104.252604,70.0989583 104.371094,70.4726562 L104.371094,70.4726562 L105.348633,74 L107.15332,74 L109.286133,66.4394531 L107.672852,66.4394531 L106.695312,70.1650391 C106.444661,71.1722005 106.285156,71.9560547 106.216797,72.5166016 L106.216797,72.5166016 L106.162109,72.5166016 C106.14388,72.2613932 106.083496,71.9036458 105.980957,71.4433594 C105.878418,70.9830729 105.792969,70.641276 105.724609,70.4179688 L105.724609,70.4179688 L104.610352,66.4394531 L102.84668,66.4394531 L101.698242,70.4179688 C101.629883,70.6321615 101.548991,70.9545898 101.455566,71.3852539 C101.362142,71.815918 101.292643,72.1975911 101.24707,72.5302734 L101.24707,72.5302734 L101.206055,72.5302734 C101.114909,71.8740234 100.959961,71.085612 100.741211,70.1650391 L100.741211,70.1650391 L99.7773438,66.4394531 L98.1367188,66.4394531 L100.255859,74 L102.033203,74 Z M113.695312,74.1367188 C114.825521,74.1367188 115.707357,73.7903646 116.34082,73.0976562 C116.974284,72.4049479 117.291016,71.4410807 117.291016,70.2060547 C117.291016,69.0120443 116.972005,68.0629883 116.333984,67.3588867 C115.695964,66.6547852 114.830078,66.3027344 113.736328,66.3027344 C112.592448,66.3027344 111.706055,66.6468099 111.077148,67.3349609 C110.448242,68.023112 110.133789,68.9801432 110.133789,70.2060547 C110.133789,70.9944661 110.279622,71.6871745 110.571289,72.2841797 C110.862956,72.8811849 111.279948,73.3391927 111.822266,73.6582031 C112.364583,73.9772135 112.988932,74.1367188 113.695312,74.1367188 Z M113.722656,72.8242188 C112.432943,72.8242188 111.788086,71.9514974 111.788086,70.2060547 C111.788086,69.3720703 111.939616,68.7317708 112.242676,68.2851562 C112.545736,67.8385417 113.034505,67.6152344 113.708984,67.6152344 C114.994141,67.6152344 115.636719,68.4788411 115.636719,70.2060547 C115.636719,71.9514974 114.998698,72.8242188 113.722656,72.8242188 Z M120.743164,74 L120.743164,70.0488281 C120.743164,69.3789062 120.942546,68.8343099 121.341309,68.4150391 C121.740072,67.9957682 122.260742,67.7861328 122.90332,67.7861328 C123.149414,67.7861328 123.386393,67.8134766 123.614258,67.8681641 L123.614258,67.8681641 L123.771484,66.3710938 C123.561849,66.3255208 123.295247,66.3027344 122.97168,66.3027344 C122.506836,66.3027344 122.072754,66.4348958 121.669434,66.6992188 C121.266113,66.9635417 120.939128,67.3212891 120.688477,67.7724609 L120.688477,67.7724609 L120.606445,67.7724609 L120.394531,66.4394531 L119.136719,66.4394531 L119.136719,74 L120.743164,74 Z M127.722656,74.1367188 C128.716146,74.1367188 129.470378,73.7607422 129.985352,73.0087891 L129.985352,73.0087891 L130.060547,73.0087891 L130.34082,74 L131.598633,74 L131.598633,63.3632812 L129.985352,63.3632812 L129.985352,66.1181641 C129.985352,66.4326172 130.024089,66.8610026 130.101562,67.4033203 L130.101562,67.4033203 L130.019531,67.4033203 C129.5,66.6695964 128.74349,66.3027344 127.75,66.3027344 C126.802083,66.3027344 126.060384,66.6479492 125.524902,67.3383789 C124.989421,68.0288086 124.72168,68.9938151 124.72168,70.2333984 C124.72168,71.4684245 124.986003,72.4277344 125.514648,73.1113281 C126.043294,73.7949219 126.779297,74.1367188 127.722656,74.1367188 Z M128.15332,72.8378906 C127.560872,72.8378906 127.116536,72.6180013 126.820312,72.1782227 C126.524089,71.738444 126.375977,71.0992839 126.375977,70.2607422 C126.375977,69.4130859 126.528646,68.7602539 126.833984,68.3022461 C127.139323,67.8442383 127.574544,67.6152344 128.139648,67.6152344 C128.800456,67.6152344 129.285807,67.8157552 129.595703,68.2167969 C129.905599,68.6178385 130.060547,69.2945964 130.060547,70.2470703 L130.060547,70.2470703 L130.060547,70.4726562 C130.051432,71.3066406 129.896484,71.9093424 129.595703,72.2807617 C129.294922,72.652181 128.814128,72.8378906 128.15332,72.8378906 Z M135.857422,74.1367188 C136.860026,74.1367188 137.630208,73.9396159 138.167969,73.5454102 C138.705729,73.1512044 138.974609,72.5849609 138.974609,71.8466797 C138.974609,71.4820964 138.90625,71.1687826 138.769531,70.9067383 C138.632812,70.644694 138.423177,70.4134115 138.140625,70.2128906 C137.858073,70.0123698 137.404622,69.7913411 136.780273,69.5498047 C136.037435,69.2626953 135.555501,69.0371094 135.334473,68.8730469 C135.113444,68.7089844 135.00293,68.5084635 135.00293,68.2714844 C135.00293,67.7884115 135.426758,67.546875 136.274414,67.546875 C136.830404,67.546875 137.516276,67.7154948 138.332031,68.0527344 L138.332031,68.0527344 L138.851562,66.8427734 C138.058594,66.4827474 137.217773,66.3027344 136.329102,66.3027344 C135.431315,66.3027344 134.721517,66.4816081 134.199707,66.8393555 C133.677897,67.1971029 133.416992,67.6995443 133.416992,68.3466797 C133.416992,68.8844401 133.570801,69.3219401 133.878418,69.6591797 C134.186035,69.9964193 134.775065,70.3336589 135.645508,70.6708984 C136.092122,70.8440755 136.440755,70.9990234 136.691406,71.1357422 C136.942057,71.2724609 137.12207,71.4046224 137.231445,71.5322266 C137.34082,71.6598307 137.395508,71.8193359 137.395508,72.0107422 C137.395508,72.6077474 136.901042,72.90625 135.912109,72.90625 C135.146484,72.90625 134.319336,72.7011719 133.430664,72.2910156 L133.430664,72.2910156 L133.430664,73.6787109 C134.041341,73.9840495 134.85026,74.1367188 135.857422,74.1367188 Z M141.483398,74.1982422 C141.811523,74.1982422 142.063314,74.1036784 142.23877,73.9145508 C142.414225,73.7254232 142.501953,73.4690755 142.501953,73.1455078 C142.501953,72.8264974 142.415365,72.574707 142.242188,72.3901367 C142.06901,72.2055664 141.816081,72.1132812 141.483398,72.1132812 C141.155273,72.1132812 140.904622,72.2021484 140.731445,72.3798828 C140.558268,72.5576172 140.47168,72.8128255 140.47168,73.1455078 C140.47168,73.4736328 140.558268,73.7311198 140.731445,73.9179688 C140.904622,74.1048177 141.155273,74.1982422 141.483398,74.1982422 Z" id="Doingwords." fill="#FFFFFF" fill-rule="nonzero"></path>
            </g>
        </g>
    </g>
</svg>