<?xml version="1.0" encoding="UTF-8"?>
<svg width="163px" height="97px" viewBox="0 0 163 97" version="1.1" xmlns="http://www.w3.org/2000/svg" xmlns:xlink="http://www.w3.org/1999/xlink">
    <!-- Generator: Sketch 62 (91390) - https://sketch.com -->
    <title>Verify</title>
    <desc>Created with Sketch.</desc>
    <defs>
        <radialGradient cx="26.6602155%" cy="59.9094438%" fx="26.6602155%" fy="59.9094438%" r="35.133316%" gradientTransform="translate(0.266602,0.599094),scale(0.595092,1.000000),rotate(-90.000000),translate(-0.266602,-0.599094)" id="radialGradient-1">
            <stop stop-color="#F9E30E" offset="0%"></stop>
            <stop stop-color="#F1C206" offset="100%"></stop>
            <stop stop-color="#F1C206" offset="100%"></stop>
        </radialGradient>
        <path d="M7.44140625,17 L12.4414062,2.72265625 L10.0195312,2.72265625 L7.04101562,11.5605469 C6.93033854,11.8730469 6.78710938,12.3548177 6.61132812,13.0058594 C6.43554688,13.656901 6.30533854,14.2298177 6.22070312,14.7246094 C6.16861979,14.3990885 6.0546875,13.9026693 5.87890625,13.2353516 C5.703125,12.5680339 5.53710938,12.0227865 5.38085938,11.5996094 L5.38085938,11.5996094 L2.40234375,2.72265625 L0,2.72265625 L4.98046875,17 L7.44140625,17 Z M18.7988281,17.1953125 C19.5345052,17.1953125 20.1888021,17.139974 20.7617188,17.0292969 C21.3346354,16.9186198 21.9010417,16.7298177 22.4609375,16.4628906 L22.4609375,16.4628906 L22.4609375,14.5976562 C21.8294271,14.8776042 21.2386068,15.0777995 20.6884766,15.1982422 C20.1383464,15.3186849 19.5442708,15.3789062 18.90625,15.3789062 C17.9361979,15.3789062 17.1842448,15.0973307 16.6503906,14.5341797 C16.1165365,13.9710286 15.8333333,13.1653646 15.8007812,12.1171875 L15.8007812,12.1171875 L22.9980469,12.1171875 L22.9980469,10.8769531 C22.9980469,9.36002604 22.5846354,8.16861979 21.7578125,7.30273438 C20.9309896,6.43684896 19.8046875,6.00390625 18.3789062,6.00390625 C16.8424479,6.00390625 15.6347656,6.50846354 14.7558594,7.51757812 C13.8769531,8.52669271 13.4375,9.91341146 13.4375,11.6777344 C13.4375,13.3964844 13.9111328,14.7457682 14.8583984,15.7255859 C15.8056641,16.7054036 17.1191406,17.1953125 18.7988281,17.1953125 Z M20.7421875,10.4570312 L15.8398438,10.4570312 C15.9244792,9.57161458 16.1865234,8.89778646 16.6259766,8.43554688 C17.0654297,7.97330729 17.6497396,7.7421875 18.3789062,7.7421875 C19.1080729,7.7421875 19.6809896,7.97167969 20.0976562,8.43066406 C20.5143229,8.88964844 20.7291667,9.56510417 20.7421875,10.4570312 L20.7421875,10.4570312 Z M27.9003906,17 L27.9003906,11.3554688 C27.9003906,10.3984375 28.1852214,9.62044271 28.7548828,9.02148438 C29.3245443,8.42252604 30.0683594,8.12304688 30.9863281,8.12304688 C31.3378906,8.12304688 31.6764323,8.16210938 32.0019531,8.24023438 L32.0019531,8.24023438 L32.2265625,6.1015625 C31.9270833,6.03645833 31.546224,6.00390625 31.0839844,6.00390625 C30.4199219,6.00390625 29.7998047,6.19270833 29.2236328,6.5703125 C28.6474609,6.94791667 28.1803385,7.45898438 27.8222656,8.10351562 L27.8222656,8.10351562 L27.7050781,8.10351562 L27.4023438,6.19921875 L25.6054688,6.19921875 L25.6054688,17 L27.9003906,17 Z M35.390625,4.59765625 C35.7942708,4.59765625 36.1083984,4.48535156 36.3330078,4.26074219 C36.5576172,4.03613281 36.6699219,3.72851562 36.6699219,3.33789062 C36.6699219,2.92773438 36.5576172,2.61197917 36.3330078,2.390625 C36.1083984,2.16927083 35.7942708,2.05859375 35.390625,2.05859375 C34.9739583,2.05859375 34.6533203,2.16927083 34.4287109,2.390625 C34.2041016,2.61197917 34.0917969,2.92773438 34.0917969,3.33789062 C34.0917969,3.72851562 34.2041016,4.03613281 34.4287109,4.26074219 C34.6533203,4.48535156 34.9739583,4.59765625 35.390625,4.59765625 Z M36.5234375,17 L36.5234375,6.19921875 L34.2285156,6.19921875 L34.2285156,17 L36.5234375,17 Z M42.5878906,17 L42.5878906,7.9375 L45.2246094,7.9375 L45.2246094,6.19921875 L42.5878906,6.19921875 L42.5878906,5.49609375 C42.5878906,4.8515625 42.7067057,4.36816406 42.9443359,4.04589844 C43.1819661,3.72363281 43.5611979,3.5625 44.0820312,3.5625 C44.5963542,3.5625 45.1367188,3.65364583 45.703125,3.8359375 L45.703125,3.8359375 L46.3085938,2.09765625 C45.5273438,1.83072917 44.7330729,1.69726562 43.9257812,1.69726562 C42.6953125,1.69726562 41.780599,2.00488281 41.1816406,2.62011719 C40.5826823,3.23535156 40.2832031,4.18098958 40.2832031,5.45703125 L40.2832031,5.45703125 L40.2832031,6.16015625 L38.5058594,6.86328125 L38.5058594,7.9375 L40.2832031,7.9375 L40.2832031,17 L42.5878906,17 Z M47.3242188,21.8046875 C49.2838542,21.8046875 50.6835938,20.6816406 51.5234375,18.4355469 L51.5234375,18.4355469 L56.1425781,6.19921875 L53.6621094,6.19921875 C52.1647135,10.5416667 51.3378906,12.9684245 51.1816406,13.4794922 C51.0253906,13.9905599 50.9179688,14.4251302 50.859375,14.7832031 L50.859375,14.7832031 L50.78125,14.7832031 C50.6705729,14.014974 50.4492188,13.1946615 50.1171875,12.3222656 L50.1171875,12.3222656 L47.9199219,6.19921875 L45.4199219,6.19921875 L49.7558594,17 L49.3554688,18.015625 C48.90625,19.2981771 48.1282552,19.9394531 47.0214844,19.9394531 C46.578776,19.9394531 46.1848958,19.9003906 45.8398438,19.8222656 L45.8398438,19.8222656 L45.8398438,21.6386719 C46.3216146,21.749349 46.8164062,21.8046875 47.3242188,21.8046875 Z" id="path-2"></path>
    </defs>
    <g id="Symbols" stroke="none" stroke-width="1" fill="none" fill-rule="evenodd">
        <g id="i/Verify">
            <g id="Verify">
                <rect id="Rectangle-2" fill="url(#radialGradient-1)" fill-rule="nonzero" x="0" y="0" width="163" height="97" rx="6"></rect>
                <polyline id="Line-2" stroke="#FFFFFF" stroke-width="4" stroke-linecap="square" points="2 30 20.4627861 30 161 30"></polyline>
                <line x1="82" y1="45" x2="82" y2="85.0042519" id="Line-3" stroke="#FFFFFF" stroke-width="2" stroke-linecap="square"></line>
                <g id="Adverbs" transform="translate(56.000000, 4.000000)" fill="#FFFFFF" fill-rule="nonzero">
                    <g id="Verify">
                        <use xlink:href="#path-2"></use>
                        <use xlink:href="#path-2"></use>
                    </g>
                </g>
                <path d="M96.3730469,62.1367188 C97.3665365,62.1367188 98.2552083,61.9886068 99.0390625,61.6923828 L99.0390625,61.6923828 L99.0390625,60.2910156 C98.6106771,60.4231771 98.1982422,60.5314128 97.8017578,60.6157227 C97.4052734,60.7000326 96.9951172,60.7421875 96.5712891,60.7421875 C95.5914714,60.7421875 94.8429362,60.4277344 94.3256836,59.7988281 C93.808431,59.1699219 93.5498047,58.242513 93.5498047,57.0166016 C93.5498047,55.8453776 93.8186849,54.9270833 94.3564453,54.2617188 C94.8942057,53.5963542 95.632487,53.2636719 96.5712891,53.2636719 C96.9860026,53.2636719 97.3813477,53.324056 97.7573242,53.4448242 C98.1333008,53.5655924 98.4899089,53.7057292 98.8271484,53.8652344 L98.8271484,53.8652344 L99.4150391,52.5048828 C98.5491536,52.0764974 97.6057943,51.8623047 96.5849609,51.8623047 C95.6142578,51.8623047 94.7688802,52.0696615 94.0488281,52.484375 C93.328776,52.8990885 92.7784831,53.4960938 92.3979492,54.2753906 C92.0174154,55.0546875 91.8271484,55.9638672 91.8271484,57.0029297 C91.8271484,58.6526693 92.2190755,59.9207357 93.0029297,60.8071289 C93.7867839,61.6935221 94.9101562,62.1367188 96.3730469,62.1367188 Z M102.62793,62 L102.62793,58.2470703 C102.62793,57.2991536 102.786296,56.6235352 103.103027,56.2202148 C103.419759,55.8168945 103.915365,55.6152344 104.589844,55.6152344 C105.10026,55.6152344 105.472819,55.7587891 105.70752,56.0458984 C105.94222,56.3330078 106.05957,56.7682292 106.05957,57.3515625 L106.05957,57.3515625 L106.05957,62 L107.672852,62 L107.672852,57.0712891 C107.672852,55.2255859 106.756836,54.3027344 104.924805,54.3027344 C104.405273,54.3027344 103.950684,54.4029948 103.561035,54.6035156 C103.171387,54.8040365 102.867188,55.0865885 102.648438,55.4511719 L102.648438,55.4511719 L102.545898,55.4511719 C102.600586,54.9589844 102.62793,54.4964193 102.62793,54.0634766 L102.62793,54.0634766 L102.62793,51.3632812 L101.021484,51.3632812 L101.021484,62 L102.62793,62 Z M113.209961,62.1367188 C113.724935,62.1367188 114.182943,62.0979818 114.583984,62.0205078 C114.985026,61.9430339 115.38151,61.8108724 115.773438,61.6240234 L115.773438,61.6240234 L115.773438,60.3183594 C115.33138,60.5143229 114.917806,60.6544596 114.532715,60.7387695 C114.147624,60.8230794 113.731771,60.8652344 113.285156,60.8652344 C112.60612,60.8652344 112.079753,60.6681315 111.706055,60.2739258 C111.332357,59.8797201 111.134115,59.3157552 111.111328,58.5820312 L111.111328,58.5820312 L116.149414,58.5820312 L116.149414,57.7138672 C116.149414,56.6520182 115.860026,55.8180339 115.28125,55.2119141 C114.702474,54.6057943 113.914062,54.3027344 112.916016,54.3027344 C111.840495,54.3027344 110.995117,54.6559245 110.379883,55.3623047 C109.764648,56.0686849 109.457031,57.039388 109.457031,58.2744141 C109.457031,59.4775391 109.788574,60.4220378 110.45166,61.1079102 C111.114746,61.7937826 112.03418,62.1367188 113.209961,62.1367188 Z M114.570312,57.4199219 L111.138672,57.4199219 C111.197917,56.8001302 111.381348,56.3284505 111.688965,56.0048828 C111.996582,55.6813151 112.405599,55.5195312 112.916016,55.5195312 C113.426432,55.5195312 113.827474,55.6801758 114.119141,56.0014648 C114.410807,56.3227539 114.561198,56.7955729 114.570312,57.4199219 L114.570312,57.4199219 Z M121.023438,62.1367188 C121.488281,62.1367188 121.883626,62.1002604 122.209473,62.0273438 C122.535319,61.9544271 122.841797,61.8336589 123.128906,61.6650391 L123.128906,61.6650391 L123.128906,60.2636719 C122.490885,60.6191406 121.814128,60.796875 121.098633,60.796875 C120.469727,60.796875 119.99235,60.5838216 119.666504,60.1577148 C119.340658,59.7316081 119.177734,59.0947266 119.177734,58.2470703 C119.177734,56.5107422 119.831706,55.6425781 121.139648,55.6425781 C121.581706,55.6425781 122.142253,55.7747396 122.821289,56.0390625 L122.821289,56.0390625 L123.306641,54.7470703 C122.66862,54.4508464 121.950846,54.3027344 121.15332,54.3027344 C119.977539,54.3027344 119.078613,54.6445312 118.456543,55.328125 C117.834473,56.0117188 117.523438,56.9892578 117.523438,58.2607422 C117.523438,59.5094401 117.820801,60.4676107 118.415527,61.1352539 C119.010254,61.8028971 119.879557,62.1367188 121.023438,62.1367188 Z M126.499023,62 L126.499023,59.4091797 L127.380859,58.6845703 L129.807617,62 L131.694336,62 L128.460938,57.6865234 L131.50293,54.4394531 L129.650391,54.4394531 L127.367188,56.8730469 L126.458008,58.0078125 L126.416992,58.0078125 L126.499023,56.5517578 L126.499023,51.3632812 L124.90625,51.3632812 L124.90625,62 L126.499023,62 Z M93.9804688,74.1367188 C94.5592448,74.1367188 95.0332031,74.0535482 95.4023438,73.887207 C95.7714844,73.7208659 96.1383464,73.4075521 96.5029297,72.9472656 L96.5029297,72.9472656 L96.5576172,72.9472656 L96.8789062,74 L98.0273438,74 L98.0273438,68.9072266 C98.0273438,68.0094401 97.7823893,67.3509115 97.2924805,66.9316406 C96.8025716,66.5123698 96.0768229,66.3027344 95.1152344,66.3027344 C94.6822917,66.3027344 94.2220052,66.3585612 93.734375,66.4702148 C93.2467448,66.5818685 92.7978516,66.7447917 92.3876953,66.9589844 L92.3876953,66.9589844 L92.9072266,68.1074219 C93.2353516,67.952474 93.5771484,67.8180339 93.9326172,67.7041016 C94.2880859,67.5901693 94.6595052,67.5332031 95.046875,67.5332031 C95.5208333,67.5332031 95.8706055,67.652832 96.0961914,67.8920898 C96.3217773,68.1313477 96.4345703,68.492513 96.4345703,68.9755859 L96.4345703,68.9755859 L96.4345703,69.3789062 L95.1289062,69.4199219 C93.9440104,69.4563802 93.0621745,69.6728516 92.4833984,70.0693359 C91.9046224,70.4658203 91.6152344,71.0537109 91.6152344,71.8330078 C91.6152344,72.5667318 91.8237305,73.1341146 92.2407227,73.5351562 C92.6577148,73.9361979 93.2376302,74.1367188 93.9804688,74.1367188 Z M94.4863281,72.90625 C94.0852865,72.90625 93.7845052,72.8139648 93.5839844,72.6293945 C93.3834635,72.4448242 93.2832031,72.1839193 93.2832031,71.8466797 C93.2832031,71.3818359 93.4552409,71.0366211 93.7993164,70.8110352 C94.1433919,70.5854492 94.6936849,70.4589844 95.4501953,70.4316406 L95.4501953,70.4316406 L96.4208984,70.390625 L96.4208984,71.046875 C96.4208984,71.6347656 96.2443034,72.0916341 95.8911133,72.4174805 C95.5379232,72.7433268 95.0696615,72.90625 94.4863281,72.90625 Z M103.318359,74.1367188 C103.783203,74.1367188 104.178548,74.1002604 104.504395,74.0273438 C104.830241,73.9544271 105.136719,73.8336589 105.423828,73.6650391 L105.423828,73.6650391 L105.423828,72.2636719 C104.785807,72.6191406 104.109049,72.796875 103.393555,72.796875 C102.764648,72.796875 102.287272,72.5838216 101.961426,72.1577148 C101.635579,71.7316081 101.472656,71.0947266 101.472656,70.2470703 C101.472656,68.5107422 102.126628,67.6425781 103.43457,67.6425781 C103.876628,67.6425781 104.437174,67.7747396 105.116211,68.0390625 L105.116211,68.0390625 L105.601562,66.7470703 C104.963542,66.4508464 104.245768,66.3027344 103.448242,66.3027344 C102.272461,66.3027344 101.373535,66.6445312 100.751465,67.328125 C100.129395,68.0117188 99.8183594,68.9892578 99.8183594,70.2607422 C99.8183594,71.5094401 100.115723,72.4676107 100.710449,73.1352539 C101.305176,73.8028971 102.174479,74.1367188 103.318359,74.1367188 Z M110.25,74.1367188 C110.714844,74.1367188 111.110189,74.1002604 111.436035,74.0273438 C111.761882,73.9544271 112.068359,73.8336589 112.355469,73.6650391 L112.355469,73.6650391 L112.355469,72.2636719 C111.717448,72.6191406 111.04069,72.796875 110.325195,72.796875 C109.696289,72.796875 109.218913,72.5838216 108.893066,72.1577148 C108.56722,71.7316081 108.404297,71.0947266 108.404297,70.2470703 C108.404297,68.5107422 109.058268,67.6425781 110.366211,67.6425781 C110.808268,67.6425781 111.368815,67.7747396 112.047852,68.0390625 L112.047852,68.0390625 L112.533203,66.7470703 C111.895182,66.4508464 111.177409,66.3027344 110.379883,66.3027344 C109.204102,66.3027344 108.305176,66.6445312 107.683105,67.328125 C107.061035,68.0117188 106.75,68.9892578 106.75,70.2607422 C106.75,71.5094401 107.047363,72.4676107 107.64209,73.1352539 C108.236816,73.8028971 109.10612,74.1367188 110.25,74.1367188 Z M116.791992,74.1367188 C117.320638,74.1367188 117.791178,74.0364583 118.203613,73.8359375 C118.616048,73.6354167 118.933919,73.3597005 119.157227,73.0087891 L119.157227,73.0087891 L119.239258,73.0087891 L119.464844,74 L120.729492,74 L120.729492,66.4394531 L119.116211,66.4394531 L119.116211,70.2060547 C119.116211,71.1539714 118.957845,71.8295898 118.641113,72.2329102 C118.324382,72.6362305 117.828776,72.8378906 117.154297,72.8378906 C116.648438,72.8378906 116.277018,72.6931966 116.040039,72.4038086 C115.80306,72.1144206 115.68457,71.6803385 115.68457,71.1015625 L115.68457,71.1015625 L115.68457,66.4394531 L114.064453,66.4394531 L114.064453,71.3818359 C114.064453,72.3069661 114.290039,72.9973958 114.741211,73.453125 C115.192383,73.9088542 115.875977,74.1367188 116.791992,74.1367188 Z M124.625977,74 L124.625977,70.0488281 C124.625977,69.3789062 124.825358,68.8343099 125.224121,68.4150391 C125.622884,67.9957682 126.143555,67.7861328 126.786133,67.7861328 C127.032227,67.7861328 127.269206,67.8134766 127.49707,67.8681641 L127.49707,67.8681641 L127.654297,66.3710938 C127.444661,66.3255208 127.17806,66.3027344 126.854492,66.3027344 C126.389648,66.3027344 125.955566,66.4348958 125.552246,66.6992188 C125.148926,66.9635417 124.82194,67.3212891 124.571289,67.7724609 L124.571289,67.7724609 L124.489258,67.7724609 L124.277344,66.4394531 L123.019531,66.4394531 L123.019531,74 L124.625977,74 Z M130.887695,74.1367188 C131.466471,74.1367188 131.94043,74.0535482 132.30957,73.887207 C132.678711,73.7208659 133.045573,73.4075521 133.410156,72.9472656 L133.410156,72.9472656 L133.464844,72.9472656 L133.786133,74 L134.93457,74 L134.93457,68.9072266 C134.93457,68.0094401 134.689616,67.3509115 134.199707,66.9316406 C133.709798,66.5123698 132.984049,66.3027344 132.022461,66.3027344 C131.589518,66.3027344 131.129232,66.3585612 130.641602,66.4702148 C130.153971,66.5818685 129.705078,66.7447917 129.294922,66.9589844 L129.294922,66.9589844 L129.814453,68.1074219 C130.142578,67.952474 130.484375,67.8180339 130.839844,67.7041016 C131.195312,67.5901693 131.566732,67.5332031 131.954102,67.5332031 C132.42806,67.5332031 132.777832,67.652832 133.003418,67.8920898 C133.229004,68.1313477 133.341797,68.492513 133.341797,68.9755859 L133.341797,68.9755859 L133.341797,69.3789062 L132.036133,69.4199219 C130.851237,69.4563802 129.969401,69.6728516 129.390625,70.0693359 C128.811849,70.4658203 128.522461,71.0537109 128.522461,71.8330078 C128.522461,72.5667318 128.730957,73.1341146 129.147949,73.5351562 C129.564941,73.9361979 130.144857,74.1367188 130.887695,74.1367188 Z M131.393555,72.90625 C130.992513,72.90625 130.691732,72.8139648 130.491211,72.6293945 C130.29069,72.4448242 130.19043,72.1839193 130.19043,71.8466797 C130.19043,71.3818359 130.362467,71.0366211 130.706543,70.8110352 C131.050618,70.5854492 131.600911,70.4589844 132.357422,70.4316406 L132.357422,70.4316406 L133.328125,70.390625 L133.328125,71.046875 C133.328125,71.6347656 133.15153,72.0916341 132.79834,72.4174805 C132.44515,72.7433268 131.976888,72.90625 131.393555,72.90625 Z M140.225586,74.1367188 C140.69043,74.1367188 141.085775,74.1002604 141.411621,74.0273438 C141.737467,73.9544271 142.043945,73.8336589 142.331055,73.6650391 L142.331055,73.6650391 L142.331055,72.2636719 C141.693034,72.6191406 141.016276,72.796875 140.300781,72.796875 C139.671875,72.796875 139.194499,72.5838216 138.868652,72.1577148 C138.542806,71.7316081 138.379883,71.0947266 138.379883,70.2470703 C138.379883,68.5107422 139.033854,67.6425781 140.341797,67.6425781 C140.783854,67.6425781 141.344401,67.7747396 142.023438,68.0390625 L142.023438,68.0390625 L142.508789,66.7470703 C141.870768,66.4508464 141.152995,66.3027344 140.355469,66.3027344 C139.179688,66.3027344 138.280762,66.6445312 137.658691,67.328125 C137.036621,68.0117188 136.725586,68.9892578 136.725586,70.2607422 C136.725586,71.5094401 137.022949,72.4676107 137.617676,73.1352539 C138.212402,73.8028971 139.081706,74.1367188 140.225586,74.1367188 Z M144.292969,77.3632812 C145.664714,77.3632812 146.644531,76.5771484 147.232422,75.0048828 L147.232422,75.0048828 L150.46582,66.4394531 L148.729492,66.4394531 C147.681315,69.4791667 147.102539,71.1778971 146.993164,71.5356445 C146.883789,71.8933919 146.808594,72.1975911 146.767578,72.4482422 L146.767578,72.4482422 L146.712891,72.4482422 C146.635417,71.9104818 146.480469,71.336263 146.248047,70.7255859 L146.248047,70.7255859 L144.709961,66.4394531 L142.959961,66.4394531 L145.995117,74 L145.714844,74.7109375 C145.400391,75.608724 144.855794,76.0576172 144.081055,76.0576172 C143.771159,76.0576172 143.495443,76.0302734 143.253906,75.9755859 L143.253906,75.9755859 L143.253906,77.2470703 C143.591146,77.3245443 143.9375,77.3632812 144.292969,77.3632812 Z M152.386719,74.1982422 C152.714844,74.1982422 152.966634,74.1036784 153.14209,73.9145508 C153.317546,73.7254232 153.405273,73.4690755 153.405273,73.1455078 C153.405273,72.8264974 153.318685,72.574707 153.145508,72.3901367 C152.972331,72.2055664 152.719401,72.1132812 152.386719,72.1132812 C152.058594,72.1132812 151.807943,72.2021484 151.634766,72.3798828 C151.461589,72.5576172 151.375,72.8128255 151.375,73.1455078 C151.375,73.4736328 151.461589,73.7311198 151.634766,73.9179688 C151.807943,74.1048177 152.058594,74.1982422 152.386719,74.1982422 Z" id="Checkaccuracy." fill="#FFFFFF" fill-rule="nonzero"></path>
                <g id="noun_581502_F5D327" transform="translate(25.000000, 45.000000)" fill-rule="nonzero">
                    <g id="Group">
                        <g id="Shape">
                            <path d="M25.5848276,13.9257931 C26.6710344,15.6488276 27.3103448,17.6797241 27.3103448,19.862069 C27.3103448,26.0230344 22.2988966,31.0344828 16.137931,31.0344828 C9.97820686,31.0344828 4.96551724,26.0230344 4.96551724,19.862069 C4.96551724,13.7011034 9.97820686,8.68965521 16.137931,8.68965521 C18.3202759,8.68965521 20.3524138,9.32896556 22.0742069,10.4151724 L23.7103448,8.77779314 L23.7103448,5.61475862 C21.4522759,4.41186207 18.8764138,3.72413793 16.137931,3.72413793 C7.22482757,3.72413793 0,10.9489656 0,19.862069 C0,28.7751724 7.22482757,36 16.137931,36 C25.0510344,36 32.2758621,28.7751724 32.2758621,19.862069 C32.2758621,17.1235862 31.5881379,14.5477241 30.3852414,12.2884138 L27.2222069,12.2884138 L25.5848276,13.9257931 Z" fill="#FFFFFF"></path>
                            <path d="M17.9267586,21.5776552 C17.4748966,22.0493793 16.8417931,22.3448276 16.137931,22.3448276 C14.7674482,22.3448276 13.6551724,21.2325518 13.6551724,19.862069 C13.6551724,19.1582069 13.9518621,18.5251034 14.4223448,18.0732414 L14.4186207,18.0707586 L18.3947586,14.0946207 C17.6946207,13.8190344 16.9373793,13.6551724 16.137931,13.6551724 C12.7104828,13.6551724 9.93103444,16.4333793 9.93103444,19.862069 C9.93103444,23.2907586 12.7104828,26.0689656 16.137931,26.0689656 C19.5666207,26.0689656 22.3448276,23.2907586 22.3448276,19.862069 C22.3448276,19.0626207 22.1809656,18.3053793 21.9053793,17.6052414 L17.9304828,21.5813793 L17.9267586,21.5776552 Z" fill="#BDC3C7"></path>
                            <polygon fill="#9B9B9B" points="30.2201379 7.53641379 32.2758621 5.47944828 30.5205518 3.72413793 28.4648276 5.77986207 28.4648276 0.513931034 24.9529656 4.02455172 24.9529656 9.29172414 15.624 18.6206896 17.3793104 20.376 26.7082759 11.0470344 31.9754482 11.0470344 35.486069 7.53641379"></polygon>
                        </g>
                    </g>
                </g>
            </g>
        </g>
    </g>
</svg>